G75*
%MOIN*%
%OFA0B0*%
%FSLAX25Y25*%
%IPPOS*%
%LPD*%
%AMOC8*
5,1,8,0,0,1.08239X$1,22.5*
%
%ADD10C,0.00000*%
%ADD11C,0.05400*%
%ADD12C,0.13100*%
%ADD13R,0.01181X0.07480*%
%ADD14C,0.08268*%
%ADD15R,0.01575X0.05315*%
%ADD16C,0.05020*%
%ADD17C,0.06791*%
%ADD18R,0.00984X0.06693*%
%ADD19R,0.06693X0.00984*%
%ADD20R,0.06500X0.06500*%
%ADD21C,0.06500*%
%ADD22C,0.01969*%
%ADD23R,0.02362X0.04331*%
%ADD24R,0.09449X0.06299*%
%ADD25R,0.09449X0.11024*%
%ADD26R,0.09449X0.08661*%
%ADD27R,0.11024X0.09449*%
%ADD28R,0.09449X0.07874*%
%ADD29R,0.04331X0.03937*%
%ADD30R,0.03937X0.04331*%
%ADD31R,0.04331X0.07480*%
%ADD32C,0.07400*%
%ADD33C,0.01181*%
%ADD34R,0.03937X0.07087*%
%ADD35C,0.31496*%
%ADD36R,0.12500X0.12500*%
%ADD37R,0.05512X0.06299*%
%ADD38C,0.01339*%
%ADD39R,0.03150X0.03937*%
%ADD40R,0.02559X0.01969*%
%ADD41C,0.05906*%
%ADD42C,0.07677*%
%ADD43R,0.05079X0.04882*%
%ADD44R,0.06299X0.05512*%
%ADD45R,0.04429X0.01969*%
%ADD46R,0.01969X0.04429*%
%ADD47R,0.04724X0.01181*%
%ADD48R,0.01181X0.04724*%
%ADD49R,0.17323X0.01969*%
%ADD50R,0.17323X0.03543*%
%ADD51R,0.01969X0.19685*%
%ADD52R,0.10394X0.01969*%
%ADD53R,0.01969X0.07874*%
%ADD54R,0.01969X0.10630*%
%ADD55R,0.15512X0.01969*%
%ADD56R,0.01969X0.01969*%
%ADD57R,0.01969X0.03543*%
%ADD58R,0.05118X0.05906*%
%ADD59R,0.04331X0.02362*%
%ADD60R,0.03150X0.04724*%
%ADD61R,0.04724X0.03150*%
%ADD62C,0.00600*%
%ADD63OC8,0.02000*%
%ADD64C,0.01969*%
%ADD65C,0.00787*%
%ADD66C,0.01200*%
%ADD67C,0.01575*%
%ADD68OC8,0.02001*%
%ADD69C,0.02400*%
%ADD70OC8,0.02030*%
D10*
X0012924Y0005148D02*
X0323948Y0005148D01*
X0324233Y0005151D01*
X0324519Y0005162D01*
X0324804Y0005179D01*
X0325088Y0005203D01*
X0325372Y0005234D01*
X0325655Y0005272D01*
X0325936Y0005317D01*
X0326217Y0005368D01*
X0326497Y0005426D01*
X0326775Y0005491D01*
X0327051Y0005563D01*
X0327325Y0005641D01*
X0327598Y0005726D01*
X0327868Y0005818D01*
X0328136Y0005916D01*
X0328402Y0006020D01*
X0328665Y0006131D01*
X0328925Y0006248D01*
X0329183Y0006371D01*
X0329437Y0006501D01*
X0329688Y0006637D01*
X0329936Y0006778D01*
X0330180Y0006926D01*
X0330421Y0007079D01*
X0330657Y0007239D01*
X0330890Y0007404D01*
X0331119Y0007574D01*
X0331344Y0007750D01*
X0331564Y0007932D01*
X0331780Y0008118D01*
X0331991Y0008310D01*
X0332198Y0008507D01*
X0332400Y0008709D01*
X0332597Y0008916D01*
X0332789Y0009127D01*
X0332975Y0009343D01*
X0333157Y0009563D01*
X0333333Y0009788D01*
X0333503Y0010017D01*
X0333668Y0010250D01*
X0333828Y0010486D01*
X0333981Y0010727D01*
X0334129Y0010971D01*
X0334270Y0011219D01*
X0334406Y0011470D01*
X0334536Y0011724D01*
X0334659Y0011982D01*
X0334776Y0012242D01*
X0334887Y0012505D01*
X0334991Y0012771D01*
X0335089Y0013039D01*
X0335181Y0013309D01*
X0335266Y0013582D01*
X0335344Y0013856D01*
X0335416Y0014132D01*
X0335481Y0014410D01*
X0335539Y0014690D01*
X0335590Y0014971D01*
X0335635Y0015252D01*
X0335673Y0015535D01*
X0335704Y0015819D01*
X0335728Y0016103D01*
X0335745Y0016388D01*
X0335756Y0016674D01*
X0335759Y0016959D01*
X0335759Y0213809D01*
X0335756Y0214094D01*
X0335745Y0214380D01*
X0335728Y0214665D01*
X0335704Y0214949D01*
X0335673Y0215233D01*
X0335635Y0215516D01*
X0335590Y0215797D01*
X0335539Y0216078D01*
X0335481Y0216358D01*
X0335416Y0216636D01*
X0335344Y0216912D01*
X0335266Y0217186D01*
X0335181Y0217459D01*
X0335089Y0217729D01*
X0334991Y0217997D01*
X0334887Y0218263D01*
X0334776Y0218526D01*
X0334659Y0218786D01*
X0334536Y0219044D01*
X0334406Y0219298D01*
X0334270Y0219549D01*
X0334129Y0219797D01*
X0333981Y0220041D01*
X0333828Y0220282D01*
X0333668Y0220518D01*
X0333503Y0220751D01*
X0333333Y0220980D01*
X0333157Y0221205D01*
X0332975Y0221425D01*
X0332789Y0221641D01*
X0332597Y0221852D01*
X0332400Y0222059D01*
X0332198Y0222261D01*
X0331991Y0222458D01*
X0331780Y0222650D01*
X0331564Y0222836D01*
X0331344Y0223018D01*
X0331119Y0223194D01*
X0330890Y0223364D01*
X0330657Y0223529D01*
X0330421Y0223689D01*
X0330180Y0223842D01*
X0329936Y0223990D01*
X0329688Y0224131D01*
X0329437Y0224267D01*
X0329183Y0224397D01*
X0328925Y0224520D01*
X0328665Y0224637D01*
X0328402Y0224748D01*
X0328136Y0224852D01*
X0327868Y0224950D01*
X0327598Y0225042D01*
X0327325Y0225127D01*
X0327051Y0225205D01*
X0326775Y0225277D01*
X0326497Y0225342D01*
X0326217Y0225400D01*
X0325936Y0225451D01*
X0325655Y0225496D01*
X0325372Y0225534D01*
X0325088Y0225565D01*
X0324804Y0225589D01*
X0324519Y0225606D01*
X0324233Y0225617D01*
X0323948Y0225620D01*
X0012924Y0225620D01*
X0012639Y0225617D01*
X0012353Y0225606D01*
X0012068Y0225589D01*
X0011784Y0225565D01*
X0011500Y0225534D01*
X0011217Y0225496D01*
X0010936Y0225451D01*
X0010655Y0225400D01*
X0010375Y0225342D01*
X0010097Y0225277D01*
X0009821Y0225205D01*
X0009547Y0225127D01*
X0009274Y0225042D01*
X0009004Y0224950D01*
X0008736Y0224852D01*
X0008470Y0224748D01*
X0008207Y0224637D01*
X0007947Y0224520D01*
X0007689Y0224397D01*
X0007435Y0224267D01*
X0007184Y0224131D01*
X0006936Y0223990D01*
X0006692Y0223842D01*
X0006451Y0223689D01*
X0006215Y0223529D01*
X0005982Y0223364D01*
X0005753Y0223194D01*
X0005528Y0223018D01*
X0005308Y0222836D01*
X0005092Y0222650D01*
X0004881Y0222458D01*
X0004674Y0222261D01*
X0004472Y0222059D01*
X0004275Y0221852D01*
X0004083Y0221641D01*
X0003897Y0221425D01*
X0003715Y0221205D01*
X0003539Y0220980D01*
X0003369Y0220751D01*
X0003204Y0220518D01*
X0003044Y0220282D01*
X0002891Y0220041D01*
X0002743Y0219797D01*
X0002602Y0219549D01*
X0002466Y0219298D01*
X0002336Y0219044D01*
X0002213Y0218786D01*
X0002096Y0218526D01*
X0001985Y0218263D01*
X0001881Y0217997D01*
X0001783Y0217729D01*
X0001691Y0217459D01*
X0001606Y0217186D01*
X0001528Y0216912D01*
X0001456Y0216636D01*
X0001391Y0216358D01*
X0001333Y0216078D01*
X0001282Y0215797D01*
X0001237Y0215516D01*
X0001199Y0215233D01*
X0001168Y0214949D01*
X0001144Y0214665D01*
X0001127Y0214380D01*
X0001116Y0214094D01*
X0001113Y0213809D01*
X0001113Y0016959D01*
X0001116Y0016674D01*
X0001127Y0016388D01*
X0001144Y0016103D01*
X0001168Y0015819D01*
X0001199Y0015535D01*
X0001237Y0015252D01*
X0001282Y0014971D01*
X0001333Y0014690D01*
X0001391Y0014410D01*
X0001456Y0014132D01*
X0001528Y0013856D01*
X0001606Y0013582D01*
X0001691Y0013309D01*
X0001783Y0013039D01*
X0001881Y0012771D01*
X0001985Y0012505D01*
X0002096Y0012242D01*
X0002213Y0011982D01*
X0002336Y0011724D01*
X0002466Y0011470D01*
X0002602Y0011219D01*
X0002743Y0010971D01*
X0002891Y0010727D01*
X0003044Y0010486D01*
X0003204Y0010250D01*
X0003369Y0010017D01*
X0003539Y0009788D01*
X0003715Y0009563D01*
X0003897Y0009343D01*
X0004083Y0009127D01*
X0004275Y0008916D01*
X0004472Y0008709D01*
X0004674Y0008507D01*
X0004881Y0008310D01*
X0005092Y0008118D01*
X0005308Y0007932D01*
X0005528Y0007750D01*
X0005753Y0007574D01*
X0005982Y0007404D01*
X0006215Y0007239D01*
X0006451Y0007079D01*
X0006692Y0006926D01*
X0006936Y0006778D01*
X0007184Y0006637D01*
X0007435Y0006501D01*
X0007689Y0006371D01*
X0007947Y0006248D01*
X0008207Y0006131D01*
X0008470Y0006020D01*
X0008736Y0005916D01*
X0009004Y0005818D01*
X0009274Y0005726D01*
X0009547Y0005641D01*
X0009821Y0005563D01*
X0010097Y0005491D01*
X0010375Y0005426D01*
X0010655Y0005368D01*
X0010936Y0005317D01*
X0011217Y0005272D01*
X0011500Y0005234D01*
X0011784Y0005203D01*
X0012068Y0005179D01*
X0012353Y0005162D01*
X0012639Y0005151D01*
X0012924Y0005148D01*
X0009480Y0018927D02*
X0009482Y0019074D01*
X0009488Y0019220D01*
X0009498Y0019366D01*
X0009512Y0019512D01*
X0009530Y0019658D01*
X0009551Y0019803D01*
X0009577Y0019947D01*
X0009607Y0020091D01*
X0009640Y0020233D01*
X0009677Y0020375D01*
X0009718Y0020516D01*
X0009763Y0020655D01*
X0009812Y0020794D01*
X0009864Y0020931D01*
X0009921Y0021066D01*
X0009980Y0021200D01*
X0010044Y0021332D01*
X0010111Y0021462D01*
X0010181Y0021591D01*
X0010255Y0021718D01*
X0010332Y0021842D01*
X0010413Y0021965D01*
X0010497Y0022085D01*
X0010584Y0022203D01*
X0010674Y0022318D01*
X0010767Y0022431D01*
X0010864Y0022542D01*
X0010963Y0022650D01*
X0011065Y0022755D01*
X0011170Y0022857D01*
X0011278Y0022956D01*
X0011389Y0023053D01*
X0011502Y0023146D01*
X0011617Y0023236D01*
X0011735Y0023323D01*
X0011855Y0023407D01*
X0011978Y0023488D01*
X0012102Y0023565D01*
X0012229Y0023639D01*
X0012358Y0023709D01*
X0012488Y0023776D01*
X0012620Y0023840D01*
X0012754Y0023899D01*
X0012889Y0023956D01*
X0013026Y0024008D01*
X0013165Y0024057D01*
X0013304Y0024102D01*
X0013445Y0024143D01*
X0013587Y0024180D01*
X0013729Y0024213D01*
X0013873Y0024243D01*
X0014017Y0024269D01*
X0014162Y0024290D01*
X0014308Y0024308D01*
X0014454Y0024322D01*
X0014600Y0024332D01*
X0014746Y0024338D01*
X0014893Y0024340D01*
X0015040Y0024338D01*
X0015186Y0024332D01*
X0015332Y0024322D01*
X0015478Y0024308D01*
X0015624Y0024290D01*
X0015769Y0024269D01*
X0015913Y0024243D01*
X0016057Y0024213D01*
X0016199Y0024180D01*
X0016341Y0024143D01*
X0016482Y0024102D01*
X0016621Y0024057D01*
X0016760Y0024008D01*
X0016897Y0023956D01*
X0017032Y0023899D01*
X0017166Y0023840D01*
X0017298Y0023776D01*
X0017428Y0023709D01*
X0017557Y0023639D01*
X0017684Y0023565D01*
X0017808Y0023488D01*
X0017931Y0023407D01*
X0018051Y0023323D01*
X0018169Y0023236D01*
X0018284Y0023146D01*
X0018397Y0023053D01*
X0018508Y0022956D01*
X0018616Y0022857D01*
X0018721Y0022755D01*
X0018823Y0022650D01*
X0018922Y0022542D01*
X0019019Y0022431D01*
X0019112Y0022318D01*
X0019202Y0022203D01*
X0019289Y0022085D01*
X0019373Y0021965D01*
X0019454Y0021842D01*
X0019531Y0021718D01*
X0019605Y0021591D01*
X0019675Y0021462D01*
X0019742Y0021332D01*
X0019806Y0021200D01*
X0019865Y0021066D01*
X0019922Y0020931D01*
X0019974Y0020794D01*
X0020023Y0020655D01*
X0020068Y0020516D01*
X0020109Y0020375D01*
X0020146Y0020233D01*
X0020179Y0020091D01*
X0020209Y0019947D01*
X0020235Y0019803D01*
X0020256Y0019658D01*
X0020274Y0019512D01*
X0020288Y0019366D01*
X0020298Y0019220D01*
X0020304Y0019074D01*
X0020306Y0018927D01*
X0020304Y0018780D01*
X0020298Y0018634D01*
X0020288Y0018488D01*
X0020274Y0018342D01*
X0020256Y0018196D01*
X0020235Y0018051D01*
X0020209Y0017907D01*
X0020179Y0017763D01*
X0020146Y0017621D01*
X0020109Y0017479D01*
X0020068Y0017338D01*
X0020023Y0017199D01*
X0019974Y0017060D01*
X0019922Y0016923D01*
X0019865Y0016788D01*
X0019806Y0016654D01*
X0019742Y0016522D01*
X0019675Y0016392D01*
X0019605Y0016263D01*
X0019531Y0016136D01*
X0019454Y0016012D01*
X0019373Y0015889D01*
X0019289Y0015769D01*
X0019202Y0015651D01*
X0019112Y0015536D01*
X0019019Y0015423D01*
X0018922Y0015312D01*
X0018823Y0015204D01*
X0018721Y0015099D01*
X0018616Y0014997D01*
X0018508Y0014898D01*
X0018397Y0014801D01*
X0018284Y0014708D01*
X0018169Y0014618D01*
X0018051Y0014531D01*
X0017931Y0014447D01*
X0017808Y0014366D01*
X0017684Y0014289D01*
X0017557Y0014215D01*
X0017428Y0014145D01*
X0017298Y0014078D01*
X0017166Y0014014D01*
X0017032Y0013955D01*
X0016897Y0013898D01*
X0016760Y0013846D01*
X0016621Y0013797D01*
X0016482Y0013752D01*
X0016341Y0013711D01*
X0016199Y0013674D01*
X0016057Y0013641D01*
X0015913Y0013611D01*
X0015769Y0013585D01*
X0015624Y0013564D01*
X0015478Y0013546D01*
X0015332Y0013532D01*
X0015186Y0013522D01*
X0015040Y0013516D01*
X0014893Y0013514D01*
X0014746Y0013516D01*
X0014600Y0013522D01*
X0014454Y0013532D01*
X0014308Y0013546D01*
X0014162Y0013564D01*
X0014017Y0013585D01*
X0013873Y0013611D01*
X0013729Y0013641D01*
X0013587Y0013674D01*
X0013445Y0013711D01*
X0013304Y0013752D01*
X0013165Y0013797D01*
X0013026Y0013846D01*
X0012889Y0013898D01*
X0012754Y0013955D01*
X0012620Y0014014D01*
X0012488Y0014078D01*
X0012358Y0014145D01*
X0012229Y0014215D01*
X0012102Y0014289D01*
X0011978Y0014366D01*
X0011855Y0014447D01*
X0011735Y0014531D01*
X0011617Y0014618D01*
X0011502Y0014708D01*
X0011389Y0014801D01*
X0011278Y0014898D01*
X0011170Y0014997D01*
X0011065Y0015099D01*
X0010963Y0015204D01*
X0010864Y0015312D01*
X0010767Y0015423D01*
X0010674Y0015536D01*
X0010584Y0015651D01*
X0010497Y0015769D01*
X0010413Y0015889D01*
X0010332Y0016012D01*
X0010255Y0016136D01*
X0010181Y0016263D01*
X0010111Y0016392D01*
X0010044Y0016522D01*
X0009980Y0016654D01*
X0009921Y0016788D01*
X0009864Y0016923D01*
X0009812Y0017060D01*
X0009763Y0017199D01*
X0009718Y0017338D01*
X0009677Y0017479D01*
X0009640Y0017621D01*
X0009607Y0017763D01*
X0009577Y0017907D01*
X0009551Y0018051D01*
X0009530Y0018196D01*
X0009512Y0018342D01*
X0009498Y0018488D01*
X0009488Y0018634D01*
X0009482Y0018780D01*
X0009480Y0018927D01*
X0208397Y0026801D02*
X0208399Y0026916D01*
X0208405Y0027032D01*
X0208415Y0027147D01*
X0208429Y0027262D01*
X0208447Y0027376D01*
X0208469Y0027489D01*
X0208494Y0027602D01*
X0208524Y0027713D01*
X0208557Y0027824D01*
X0208594Y0027933D01*
X0208635Y0028041D01*
X0208680Y0028148D01*
X0208728Y0028253D01*
X0208780Y0028356D01*
X0208836Y0028457D01*
X0208895Y0028557D01*
X0208957Y0028654D01*
X0209023Y0028749D01*
X0209091Y0028842D01*
X0209163Y0028932D01*
X0209238Y0029020D01*
X0209317Y0029105D01*
X0209398Y0029187D01*
X0209481Y0029267D01*
X0209568Y0029343D01*
X0209657Y0029417D01*
X0209748Y0029487D01*
X0209842Y0029555D01*
X0209938Y0029619D01*
X0210037Y0029679D01*
X0210137Y0029736D01*
X0210239Y0029790D01*
X0210343Y0029840D01*
X0210449Y0029887D01*
X0210556Y0029930D01*
X0210665Y0029969D01*
X0210775Y0030004D01*
X0210886Y0030035D01*
X0210998Y0030063D01*
X0211111Y0030087D01*
X0211225Y0030107D01*
X0211340Y0030123D01*
X0211455Y0030135D01*
X0211570Y0030143D01*
X0211685Y0030147D01*
X0211801Y0030147D01*
X0211916Y0030143D01*
X0212031Y0030135D01*
X0212146Y0030123D01*
X0212261Y0030107D01*
X0212375Y0030087D01*
X0212488Y0030063D01*
X0212600Y0030035D01*
X0212711Y0030004D01*
X0212821Y0029969D01*
X0212930Y0029930D01*
X0213037Y0029887D01*
X0213143Y0029840D01*
X0213247Y0029790D01*
X0213349Y0029736D01*
X0213449Y0029679D01*
X0213548Y0029619D01*
X0213644Y0029555D01*
X0213738Y0029487D01*
X0213829Y0029417D01*
X0213918Y0029343D01*
X0214005Y0029267D01*
X0214088Y0029187D01*
X0214169Y0029105D01*
X0214248Y0029020D01*
X0214323Y0028932D01*
X0214395Y0028842D01*
X0214463Y0028749D01*
X0214529Y0028654D01*
X0214591Y0028557D01*
X0214650Y0028457D01*
X0214706Y0028356D01*
X0214758Y0028253D01*
X0214806Y0028148D01*
X0214851Y0028041D01*
X0214892Y0027933D01*
X0214929Y0027824D01*
X0214962Y0027713D01*
X0214992Y0027602D01*
X0215017Y0027489D01*
X0215039Y0027376D01*
X0215057Y0027262D01*
X0215071Y0027147D01*
X0215081Y0027032D01*
X0215087Y0026916D01*
X0215089Y0026801D01*
X0215087Y0026686D01*
X0215081Y0026570D01*
X0215071Y0026455D01*
X0215057Y0026340D01*
X0215039Y0026226D01*
X0215017Y0026113D01*
X0214992Y0026000D01*
X0214962Y0025889D01*
X0214929Y0025778D01*
X0214892Y0025669D01*
X0214851Y0025561D01*
X0214806Y0025454D01*
X0214758Y0025349D01*
X0214706Y0025246D01*
X0214650Y0025145D01*
X0214591Y0025045D01*
X0214529Y0024948D01*
X0214463Y0024853D01*
X0214395Y0024760D01*
X0214323Y0024670D01*
X0214248Y0024582D01*
X0214169Y0024497D01*
X0214088Y0024415D01*
X0214005Y0024335D01*
X0213918Y0024259D01*
X0213829Y0024185D01*
X0213738Y0024115D01*
X0213644Y0024047D01*
X0213548Y0023983D01*
X0213449Y0023923D01*
X0213349Y0023866D01*
X0213247Y0023812D01*
X0213143Y0023762D01*
X0213037Y0023715D01*
X0212930Y0023672D01*
X0212821Y0023633D01*
X0212711Y0023598D01*
X0212600Y0023567D01*
X0212488Y0023539D01*
X0212375Y0023515D01*
X0212261Y0023495D01*
X0212146Y0023479D01*
X0212031Y0023467D01*
X0211916Y0023459D01*
X0211801Y0023455D01*
X0211685Y0023455D01*
X0211570Y0023459D01*
X0211455Y0023467D01*
X0211340Y0023479D01*
X0211225Y0023495D01*
X0211111Y0023515D01*
X0210998Y0023539D01*
X0210886Y0023567D01*
X0210775Y0023598D01*
X0210665Y0023633D01*
X0210556Y0023672D01*
X0210449Y0023715D01*
X0210343Y0023762D01*
X0210239Y0023812D01*
X0210137Y0023866D01*
X0210037Y0023923D01*
X0209938Y0023983D01*
X0209842Y0024047D01*
X0209748Y0024115D01*
X0209657Y0024185D01*
X0209568Y0024259D01*
X0209481Y0024335D01*
X0209398Y0024415D01*
X0209317Y0024497D01*
X0209238Y0024582D01*
X0209163Y0024670D01*
X0209091Y0024760D01*
X0209023Y0024853D01*
X0208957Y0024948D01*
X0208895Y0025045D01*
X0208836Y0025145D01*
X0208780Y0025246D01*
X0208728Y0025349D01*
X0208680Y0025454D01*
X0208635Y0025561D01*
X0208594Y0025669D01*
X0208557Y0025778D01*
X0208524Y0025889D01*
X0208494Y0026000D01*
X0208469Y0026113D01*
X0208447Y0026226D01*
X0208429Y0026340D01*
X0208415Y0026455D01*
X0208405Y0026570D01*
X0208399Y0026686D01*
X0208397Y0026801D01*
X0237826Y0018927D02*
X0237828Y0019074D01*
X0237834Y0019220D01*
X0237844Y0019366D01*
X0237858Y0019512D01*
X0237876Y0019658D01*
X0237897Y0019803D01*
X0237923Y0019947D01*
X0237953Y0020091D01*
X0237986Y0020233D01*
X0238023Y0020375D01*
X0238064Y0020516D01*
X0238109Y0020655D01*
X0238158Y0020794D01*
X0238210Y0020931D01*
X0238267Y0021066D01*
X0238326Y0021200D01*
X0238390Y0021332D01*
X0238457Y0021462D01*
X0238527Y0021591D01*
X0238601Y0021718D01*
X0238678Y0021842D01*
X0238759Y0021965D01*
X0238843Y0022085D01*
X0238930Y0022203D01*
X0239020Y0022318D01*
X0239113Y0022431D01*
X0239210Y0022542D01*
X0239309Y0022650D01*
X0239411Y0022755D01*
X0239516Y0022857D01*
X0239624Y0022956D01*
X0239735Y0023053D01*
X0239848Y0023146D01*
X0239963Y0023236D01*
X0240081Y0023323D01*
X0240201Y0023407D01*
X0240324Y0023488D01*
X0240448Y0023565D01*
X0240575Y0023639D01*
X0240704Y0023709D01*
X0240834Y0023776D01*
X0240966Y0023840D01*
X0241100Y0023899D01*
X0241235Y0023956D01*
X0241372Y0024008D01*
X0241511Y0024057D01*
X0241650Y0024102D01*
X0241791Y0024143D01*
X0241933Y0024180D01*
X0242075Y0024213D01*
X0242219Y0024243D01*
X0242363Y0024269D01*
X0242508Y0024290D01*
X0242654Y0024308D01*
X0242800Y0024322D01*
X0242946Y0024332D01*
X0243092Y0024338D01*
X0243239Y0024340D01*
X0243386Y0024338D01*
X0243532Y0024332D01*
X0243678Y0024322D01*
X0243824Y0024308D01*
X0243970Y0024290D01*
X0244115Y0024269D01*
X0244259Y0024243D01*
X0244403Y0024213D01*
X0244545Y0024180D01*
X0244687Y0024143D01*
X0244828Y0024102D01*
X0244967Y0024057D01*
X0245106Y0024008D01*
X0245243Y0023956D01*
X0245378Y0023899D01*
X0245512Y0023840D01*
X0245644Y0023776D01*
X0245774Y0023709D01*
X0245903Y0023639D01*
X0246030Y0023565D01*
X0246154Y0023488D01*
X0246277Y0023407D01*
X0246397Y0023323D01*
X0246515Y0023236D01*
X0246630Y0023146D01*
X0246743Y0023053D01*
X0246854Y0022956D01*
X0246962Y0022857D01*
X0247067Y0022755D01*
X0247169Y0022650D01*
X0247268Y0022542D01*
X0247365Y0022431D01*
X0247458Y0022318D01*
X0247548Y0022203D01*
X0247635Y0022085D01*
X0247719Y0021965D01*
X0247800Y0021842D01*
X0247877Y0021718D01*
X0247951Y0021591D01*
X0248021Y0021462D01*
X0248088Y0021332D01*
X0248152Y0021200D01*
X0248211Y0021066D01*
X0248268Y0020931D01*
X0248320Y0020794D01*
X0248369Y0020655D01*
X0248414Y0020516D01*
X0248455Y0020375D01*
X0248492Y0020233D01*
X0248525Y0020091D01*
X0248555Y0019947D01*
X0248581Y0019803D01*
X0248602Y0019658D01*
X0248620Y0019512D01*
X0248634Y0019366D01*
X0248644Y0019220D01*
X0248650Y0019074D01*
X0248652Y0018927D01*
X0248650Y0018780D01*
X0248644Y0018634D01*
X0248634Y0018488D01*
X0248620Y0018342D01*
X0248602Y0018196D01*
X0248581Y0018051D01*
X0248555Y0017907D01*
X0248525Y0017763D01*
X0248492Y0017621D01*
X0248455Y0017479D01*
X0248414Y0017338D01*
X0248369Y0017199D01*
X0248320Y0017060D01*
X0248268Y0016923D01*
X0248211Y0016788D01*
X0248152Y0016654D01*
X0248088Y0016522D01*
X0248021Y0016392D01*
X0247951Y0016263D01*
X0247877Y0016136D01*
X0247800Y0016012D01*
X0247719Y0015889D01*
X0247635Y0015769D01*
X0247548Y0015651D01*
X0247458Y0015536D01*
X0247365Y0015423D01*
X0247268Y0015312D01*
X0247169Y0015204D01*
X0247067Y0015099D01*
X0246962Y0014997D01*
X0246854Y0014898D01*
X0246743Y0014801D01*
X0246630Y0014708D01*
X0246515Y0014618D01*
X0246397Y0014531D01*
X0246277Y0014447D01*
X0246154Y0014366D01*
X0246030Y0014289D01*
X0245903Y0014215D01*
X0245774Y0014145D01*
X0245644Y0014078D01*
X0245512Y0014014D01*
X0245378Y0013955D01*
X0245243Y0013898D01*
X0245106Y0013846D01*
X0244967Y0013797D01*
X0244828Y0013752D01*
X0244687Y0013711D01*
X0244545Y0013674D01*
X0244403Y0013641D01*
X0244259Y0013611D01*
X0244115Y0013585D01*
X0243970Y0013564D01*
X0243824Y0013546D01*
X0243678Y0013532D01*
X0243532Y0013522D01*
X0243386Y0013516D01*
X0243239Y0013514D01*
X0243092Y0013516D01*
X0242946Y0013522D01*
X0242800Y0013532D01*
X0242654Y0013546D01*
X0242508Y0013564D01*
X0242363Y0013585D01*
X0242219Y0013611D01*
X0242075Y0013641D01*
X0241933Y0013674D01*
X0241791Y0013711D01*
X0241650Y0013752D01*
X0241511Y0013797D01*
X0241372Y0013846D01*
X0241235Y0013898D01*
X0241100Y0013955D01*
X0240966Y0014014D01*
X0240834Y0014078D01*
X0240704Y0014145D01*
X0240575Y0014215D01*
X0240448Y0014289D01*
X0240324Y0014366D01*
X0240201Y0014447D01*
X0240081Y0014531D01*
X0239963Y0014618D01*
X0239848Y0014708D01*
X0239735Y0014801D01*
X0239624Y0014898D01*
X0239516Y0014997D01*
X0239411Y0015099D01*
X0239309Y0015204D01*
X0239210Y0015312D01*
X0239113Y0015423D01*
X0239020Y0015536D01*
X0238930Y0015651D01*
X0238843Y0015769D01*
X0238759Y0015889D01*
X0238678Y0016012D01*
X0238601Y0016136D01*
X0238527Y0016263D01*
X0238457Y0016392D01*
X0238390Y0016522D01*
X0238326Y0016654D01*
X0238267Y0016788D01*
X0238210Y0016923D01*
X0238158Y0017060D01*
X0238109Y0017199D01*
X0238064Y0017338D01*
X0238023Y0017479D01*
X0237986Y0017621D01*
X0237953Y0017763D01*
X0237923Y0017907D01*
X0237897Y0018051D01*
X0237876Y0018196D01*
X0237858Y0018342D01*
X0237844Y0018488D01*
X0237834Y0018634D01*
X0237828Y0018780D01*
X0237826Y0018927D01*
X0208397Y0054360D02*
X0208399Y0054475D01*
X0208405Y0054591D01*
X0208415Y0054706D01*
X0208429Y0054821D01*
X0208447Y0054935D01*
X0208469Y0055048D01*
X0208494Y0055161D01*
X0208524Y0055272D01*
X0208557Y0055383D01*
X0208594Y0055492D01*
X0208635Y0055600D01*
X0208680Y0055707D01*
X0208728Y0055812D01*
X0208780Y0055915D01*
X0208836Y0056016D01*
X0208895Y0056116D01*
X0208957Y0056213D01*
X0209023Y0056308D01*
X0209091Y0056401D01*
X0209163Y0056491D01*
X0209238Y0056579D01*
X0209317Y0056664D01*
X0209398Y0056746D01*
X0209481Y0056826D01*
X0209568Y0056902D01*
X0209657Y0056976D01*
X0209748Y0057046D01*
X0209842Y0057114D01*
X0209938Y0057178D01*
X0210037Y0057238D01*
X0210137Y0057295D01*
X0210239Y0057349D01*
X0210343Y0057399D01*
X0210449Y0057446D01*
X0210556Y0057489D01*
X0210665Y0057528D01*
X0210775Y0057563D01*
X0210886Y0057594D01*
X0210998Y0057622D01*
X0211111Y0057646D01*
X0211225Y0057666D01*
X0211340Y0057682D01*
X0211455Y0057694D01*
X0211570Y0057702D01*
X0211685Y0057706D01*
X0211801Y0057706D01*
X0211916Y0057702D01*
X0212031Y0057694D01*
X0212146Y0057682D01*
X0212261Y0057666D01*
X0212375Y0057646D01*
X0212488Y0057622D01*
X0212600Y0057594D01*
X0212711Y0057563D01*
X0212821Y0057528D01*
X0212930Y0057489D01*
X0213037Y0057446D01*
X0213143Y0057399D01*
X0213247Y0057349D01*
X0213349Y0057295D01*
X0213449Y0057238D01*
X0213548Y0057178D01*
X0213644Y0057114D01*
X0213738Y0057046D01*
X0213829Y0056976D01*
X0213918Y0056902D01*
X0214005Y0056826D01*
X0214088Y0056746D01*
X0214169Y0056664D01*
X0214248Y0056579D01*
X0214323Y0056491D01*
X0214395Y0056401D01*
X0214463Y0056308D01*
X0214529Y0056213D01*
X0214591Y0056116D01*
X0214650Y0056016D01*
X0214706Y0055915D01*
X0214758Y0055812D01*
X0214806Y0055707D01*
X0214851Y0055600D01*
X0214892Y0055492D01*
X0214929Y0055383D01*
X0214962Y0055272D01*
X0214992Y0055161D01*
X0215017Y0055048D01*
X0215039Y0054935D01*
X0215057Y0054821D01*
X0215071Y0054706D01*
X0215081Y0054591D01*
X0215087Y0054475D01*
X0215089Y0054360D01*
X0215087Y0054245D01*
X0215081Y0054129D01*
X0215071Y0054014D01*
X0215057Y0053899D01*
X0215039Y0053785D01*
X0215017Y0053672D01*
X0214992Y0053559D01*
X0214962Y0053448D01*
X0214929Y0053337D01*
X0214892Y0053228D01*
X0214851Y0053120D01*
X0214806Y0053013D01*
X0214758Y0052908D01*
X0214706Y0052805D01*
X0214650Y0052704D01*
X0214591Y0052604D01*
X0214529Y0052507D01*
X0214463Y0052412D01*
X0214395Y0052319D01*
X0214323Y0052229D01*
X0214248Y0052141D01*
X0214169Y0052056D01*
X0214088Y0051974D01*
X0214005Y0051894D01*
X0213918Y0051818D01*
X0213829Y0051744D01*
X0213738Y0051674D01*
X0213644Y0051606D01*
X0213548Y0051542D01*
X0213449Y0051482D01*
X0213349Y0051425D01*
X0213247Y0051371D01*
X0213143Y0051321D01*
X0213037Y0051274D01*
X0212930Y0051231D01*
X0212821Y0051192D01*
X0212711Y0051157D01*
X0212600Y0051126D01*
X0212488Y0051098D01*
X0212375Y0051074D01*
X0212261Y0051054D01*
X0212146Y0051038D01*
X0212031Y0051026D01*
X0211916Y0051018D01*
X0211801Y0051014D01*
X0211685Y0051014D01*
X0211570Y0051018D01*
X0211455Y0051026D01*
X0211340Y0051038D01*
X0211225Y0051054D01*
X0211111Y0051074D01*
X0210998Y0051098D01*
X0210886Y0051126D01*
X0210775Y0051157D01*
X0210665Y0051192D01*
X0210556Y0051231D01*
X0210449Y0051274D01*
X0210343Y0051321D01*
X0210239Y0051371D01*
X0210137Y0051425D01*
X0210037Y0051482D01*
X0209938Y0051542D01*
X0209842Y0051606D01*
X0209748Y0051674D01*
X0209657Y0051744D01*
X0209568Y0051818D01*
X0209481Y0051894D01*
X0209398Y0051974D01*
X0209317Y0052056D01*
X0209238Y0052141D01*
X0209163Y0052229D01*
X0209091Y0052319D01*
X0209023Y0052412D01*
X0208957Y0052507D01*
X0208895Y0052604D01*
X0208836Y0052704D01*
X0208780Y0052805D01*
X0208728Y0052908D01*
X0208680Y0053013D01*
X0208635Y0053120D01*
X0208594Y0053228D01*
X0208557Y0053337D01*
X0208524Y0053448D01*
X0208494Y0053559D01*
X0208469Y0053672D01*
X0208447Y0053785D01*
X0208429Y0053899D01*
X0208415Y0054014D01*
X0208405Y0054129D01*
X0208399Y0054245D01*
X0208397Y0054360D01*
X0237826Y0211841D02*
X0237828Y0211988D01*
X0237834Y0212134D01*
X0237844Y0212280D01*
X0237858Y0212426D01*
X0237876Y0212572D01*
X0237897Y0212717D01*
X0237923Y0212861D01*
X0237953Y0213005D01*
X0237986Y0213147D01*
X0238023Y0213289D01*
X0238064Y0213430D01*
X0238109Y0213569D01*
X0238158Y0213708D01*
X0238210Y0213845D01*
X0238267Y0213980D01*
X0238326Y0214114D01*
X0238390Y0214246D01*
X0238457Y0214376D01*
X0238527Y0214505D01*
X0238601Y0214632D01*
X0238678Y0214756D01*
X0238759Y0214879D01*
X0238843Y0214999D01*
X0238930Y0215117D01*
X0239020Y0215232D01*
X0239113Y0215345D01*
X0239210Y0215456D01*
X0239309Y0215564D01*
X0239411Y0215669D01*
X0239516Y0215771D01*
X0239624Y0215870D01*
X0239735Y0215967D01*
X0239848Y0216060D01*
X0239963Y0216150D01*
X0240081Y0216237D01*
X0240201Y0216321D01*
X0240324Y0216402D01*
X0240448Y0216479D01*
X0240575Y0216553D01*
X0240704Y0216623D01*
X0240834Y0216690D01*
X0240966Y0216754D01*
X0241100Y0216813D01*
X0241235Y0216870D01*
X0241372Y0216922D01*
X0241511Y0216971D01*
X0241650Y0217016D01*
X0241791Y0217057D01*
X0241933Y0217094D01*
X0242075Y0217127D01*
X0242219Y0217157D01*
X0242363Y0217183D01*
X0242508Y0217204D01*
X0242654Y0217222D01*
X0242800Y0217236D01*
X0242946Y0217246D01*
X0243092Y0217252D01*
X0243239Y0217254D01*
X0243386Y0217252D01*
X0243532Y0217246D01*
X0243678Y0217236D01*
X0243824Y0217222D01*
X0243970Y0217204D01*
X0244115Y0217183D01*
X0244259Y0217157D01*
X0244403Y0217127D01*
X0244545Y0217094D01*
X0244687Y0217057D01*
X0244828Y0217016D01*
X0244967Y0216971D01*
X0245106Y0216922D01*
X0245243Y0216870D01*
X0245378Y0216813D01*
X0245512Y0216754D01*
X0245644Y0216690D01*
X0245774Y0216623D01*
X0245903Y0216553D01*
X0246030Y0216479D01*
X0246154Y0216402D01*
X0246277Y0216321D01*
X0246397Y0216237D01*
X0246515Y0216150D01*
X0246630Y0216060D01*
X0246743Y0215967D01*
X0246854Y0215870D01*
X0246962Y0215771D01*
X0247067Y0215669D01*
X0247169Y0215564D01*
X0247268Y0215456D01*
X0247365Y0215345D01*
X0247458Y0215232D01*
X0247548Y0215117D01*
X0247635Y0214999D01*
X0247719Y0214879D01*
X0247800Y0214756D01*
X0247877Y0214632D01*
X0247951Y0214505D01*
X0248021Y0214376D01*
X0248088Y0214246D01*
X0248152Y0214114D01*
X0248211Y0213980D01*
X0248268Y0213845D01*
X0248320Y0213708D01*
X0248369Y0213569D01*
X0248414Y0213430D01*
X0248455Y0213289D01*
X0248492Y0213147D01*
X0248525Y0213005D01*
X0248555Y0212861D01*
X0248581Y0212717D01*
X0248602Y0212572D01*
X0248620Y0212426D01*
X0248634Y0212280D01*
X0248644Y0212134D01*
X0248650Y0211988D01*
X0248652Y0211841D01*
X0248650Y0211694D01*
X0248644Y0211548D01*
X0248634Y0211402D01*
X0248620Y0211256D01*
X0248602Y0211110D01*
X0248581Y0210965D01*
X0248555Y0210821D01*
X0248525Y0210677D01*
X0248492Y0210535D01*
X0248455Y0210393D01*
X0248414Y0210252D01*
X0248369Y0210113D01*
X0248320Y0209974D01*
X0248268Y0209837D01*
X0248211Y0209702D01*
X0248152Y0209568D01*
X0248088Y0209436D01*
X0248021Y0209306D01*
X0247951Y0209177D01*
X0247877Y0209050D01*
X0247800Y0208926D01*
X0247719Y0208803D01*
X0247635Y0208683D01*
X0247548Y0208565D01*
X0247458Y0208450D01*
X0247365Y0208337D01*
X0247268Y0208226D01*
X0247169Y0208118D01*
X0247067Y0208013D01*
X0246962Y0207911D01*
X0246854Y0207812D01*
X0246743Y0207715D01*
X0246630Y0207622D01*
X0246515Y0207532D01*
X0246397Y0207445D01*
X0246277Y0207361D01*
X0246154Y0207280D01*
X0246030Y0207203D01*
X0245903Y0207129D01*
X0245774Y0207059D01*
X0245644Y0206992D01*
X0245512Y0206928D01*
X0245378Y0206869D01*
X0245243Y0206812D01*
X0245106Y0206760D01*
X0244967Y0206711D01*
X0244828Y0206666D01*
X0244687Y0206625D01*
X0244545Y0206588D01*
X0244403Y0206555D01*
X0244259Y0206525D01*
X0244115Y0206499D01*
X0243970Y0206478D01*
X0243824Y0206460D01*
X0243678Y0206446D01*
X0243532Y0206436D01*
X0243386Y0206430D01*
X0243239Y0206428D01*
X0243092Y0206430D01*
X0242946Y0206436D01*
X0242800Y0206446D01*
X0242654Y0206460D01*
X0242508Y0206478D01*
X0242363Y0206499D01*
X0242219Y0206525D01*
X0242075Y0206555D01*
X0241933Y0206588D01*
X0241791Y0206625D01*
X0241650Y0206666D01*
X0241511Y0206711D01*
X0241372Y0206760D01*
X0241235Y0206812D01*
X0241100Y0206869D01*
X0240966Y0206928D01*
X0240834Y0206992D01*
X0240704Y0207059D01*
X0240575Y0207129D01*
X0240448Y0207203D01*
X0240324Y0207280D01*
X0240201Y0207361D01*
X0240081Y0207445D01*
X0239963Y0207532D01*
X0239848Y0207622D01*
X0239735Y0207715D01*
X0239624Y0207812D01*
X0239516Y0207911D01*
X0239411Y0208013D01*
X0239309Y0208118D01*
X0239210Y0208226D01*
X0239113Y0208337D01*
X0239020Y0208450D01*
X0238930Y0208565D01*
X0238843Y0208683D01*
X0238759Y0208803D01*
X0238678Y0208926D01*
X0238601Y0209050D01*
X0238527Y0209177D01*
X0238457Y0209306D01*
X0238390Y0209436D01*
X0238326Y0209568D01*
X0238267Y0209702D01*
X0238210Y0209837D01*
X0238158Y0209974D01*
X0238109Y0210113D01*
X0238064Y0210252D01*
X0238023Y0210393D01*
X0237986Y0210535D01*
X0237953Y0210677D01*
X0237923Y0210821D01*
X0237897Y0210965D01*
X0237876Y0211110D01*
X0237858Y0211256D01*
X0237844Y0211402D01*
X0237834Y0211548D01*
X0237828Y0211694D01*
X0237826Y0211841D01*
X0009480Y0211841D02*
X0009482Y0211988D01*
X0009488Y0212134D01*
X0009498Y0212280D01*
X0009512Y0212426D01*
X0009530Y0212572D01*
X0009551Y0212717D01*
X0009577Y0212861D01*
X0009607Y0213005D01*
X0009640Y0213147D01*
X0009677Y0213289D01*
X0009718Y0213430D01*
X0009763Y0213569D01*
X0009812Y0213708D01*
X0009864Y0213845D01*
X0009921Y0213980D01*
X0009980Y0214114D01*
X0010044Y0214246D01*
X0010111Y0214376D01*
X0010181Y0214505D01*
X0010255Y0214632D01*
X0010332Y0214756D01*
X0010413Y0214879D01*
X0010497Y0214999D01*
X0010584Y0215117D01*
X0010674Y0215232D01*
X0010767Y0215345D01*
X0010864Y0215456D01*
X0010963Y0215564D01*
X0011065Y0215669D01*
X0011170Y0215771D01*
X0011278Y0215870D01*
X0011389Y0215967D01*
X0011502Y0216060D01*
X0011617Y0216150D01*
X0011735Y0216237D01*
X0011855Y0216321D01*
X0011978Y0216402D01*
X0012102Y0216479D01*
X0012229Y0216553D01*
X0012358Y0216623D01*
X0012488Y0216690D01*
X0012620Y0216754D01*
X0012754Y0216813D01*
X0012889Y0216870D01*
X0013026Y0216922D01*
X0013165Y0216971D01*
X0013304Y0217016D01*
X0013445Y0217057D01*
X0013587Y0217094D01*
X0013729Y0217127D01*
X0013873Y0217157D01*
X0014017Y0217183D01*
X0014162Y0217204D01*
X0014308Y0217222D01*
X0014454Y0217236D01*
X0014600Y0217246D01*
X0014746Y0217252D01*
X0014893Y0217254D01*
X0015040Y0217252D01*
X0015186Y0217246D01*
X0015332Y0217236D01*
X0015478Y0217222D01*
X0015624Y0217204D01*
X0015769Y0217183D01*
X0015913Y0217157D01*
X0016057Y0217127D01*
X0016199Y0217094D01*
X0016341Y0217057D01*
X0016482Y0217016D01*
X0016621Y0216971D01*
X0016760Y0216922D01*
X0016897Y0216870D01*
X0017032Y0216813D01*
X0017166Y0216754D01*
X0017298Y0216690D01*
X0017428Y0216623D01*
X0017557Y0216553D01*
X0017684Y0216479D01*
X0017808Y0216402D01*
X0017931Y0216321D01*
X0018051Y0216237D01*
X0018169Y0216150D01*
X0018284Y0216060D01*
X0018397Y0215967D01*
X0018508Y0215870D01*
X0018616Y0215771D01*
X0018721Y0215669D01*
X0018823Y0215564D01*
X0018922Y0215456D01*
X0019019Y0215345D01*
X0019112Y0215232D01*
X0019202Y0215117D01*
X0019289Y0214999D01*
X0019373Y0214879D01*
X0019454Y0214756D01*
X0019531Y0214632D01*
X0019605Y0214505D01*
X0019675Y0214376D01*
X0019742Y0214246D01*
X0019806Y0214114D01*
X0019865Y0213980D01*
X0019922Y0213845D01*
X0019974Y0213708D01*
X0020023Y0213569D01*
X0020068Y0213430D01*
X0020109Y0213289D01*
X0020146Y0213147D01*
X0020179Y0213005D01*
X0020209Y0212861D01*
X0020235Y0212717D01*
X0020256Y0212572D01*
X0020274Y0212426D01*
X0020288Y0212280D01*
X0020298Y0212134D01*
X0020304Y0211988D01*
X0020306Y0211841D01*
X0020304Y0211694D01*
X0020298Y0211548D01*
X0020288Y0211402D01*
X0020274Y0211256D01*
X0020256Y0211110D01*
X0020235Y0210965D01*
X0020209Y0210821D01*
X0020179Y0210677D01*
X0020146Y0210535D01*
X0020109Y0210393D01*
X0020068Y0210252D01*
X0020023Y0210113D01*
X0019974Y0209974D01*
X0019922Y0209837D01*
X0019865Y0209702D01*
X0019806Y0209568D01*
X0019742Y0209436D01*
X0019675Y0209306D01*
X0019605Y0209177D01*
X0019531Y0209050D01*
X0019454Y0208926D01*
X0019373Y0208803D01*
X0019289Y0208683D01*
X0019202Y0208565D01*
X0019112Y0208450D01*
X0019019Y0208337D01*
X0018922Y0208226D01*
X0018823Y0208118D01*
X0018721Y0208013D01*
X0018616Y0207911D01*
X0018508Y0207812D01*
X0018397Y0207715D01*
X0018284Y0207622D01*
X0018169Y0207532D01*
X0018051Y0207445D01*
X0017931Y0207361D01*
X0017808Y0207280D01*
X0017684Y0207203D01*
X0017557Y0207129D01*
X0017428Y0207059D01*
X0017298Y0206992D01*
X0017166Y0206928D01*
X0017032Y0206869D01*
X0016897Y0206812D01*
X0016760Y0206760D01*
X0016621Y0206711D01*
X0016482Y0206666D01*
X0016341Y0206625D01*
X0016199Y0206588D01*
X0016057Y0206555D01*
X0015913Y0206525D01*
X0015769Y0206499D01*
X0015624Y0206478D01*
X0015478Y0206460D01*
X0015332Y0206446D01*
X0015186Y0206436D01*
X0015040Y0206430D01*
X0014893Y0206428D01*
X0014746Y0206430D01*
X0014600Y0206436D01*
X0014454Y0206446D01*
X0014308Y0206460D01*
X0014162Y0206478D01*
X0014017Y0206499D01*
X0013873Y0206525D01*
X0013729Y0206555D01*
X0013587Y0206588D01*
X0013445Y0206625D01*
X0013304Y0206666D01*
X0013165Y0206711D01*
X0013026Y0206760D01*
X0012889Y0206812D01*
X0012754Y0206869D01*
X0012620Y0206928D01*
X0012488Y0206992D01*
X0012358Y0207059D01*
X0012229Y0207129D01*
X0012102Y0207203D01*
X0011978Y0207280D01*
X0011855Y0207361D01*
X0011735Y0207445D01*
X0011617Y0207532D01*
X0011502Y0207622D01*
X0011389Y0207715D01*
X0011278Y0207812D01*
X0011170Y0207911D01*
X0011065Y0208013D01*
X0010963Y0208118D01*
X0010864Y0208226D01*
X0010767Y0208337D01*
X0010674Y0208450D01*
X0010584Y0208565D01*
X0010497Y0208683D01*
X0010413Y0208803D01*
X0010332Y0208926D01*
X0010255Y0209050D01*
X0010181Y0209177D01*
X0010111Y0209306D01*
X0010044Y0209436D01*
X0009980Y0209568D01*
X0009921Y0209702D01*
X0009864Y0209837D01*
X0009812Y0209974D01*
X0009763Y0210113D01*
X0009718Y0210252D01*
X0009677Y0210393D01*
X0009640Y0210535D01*
X0009607Y0210677D01*
X0009577Y0210821D01*
X0009551Y0210965D01*
X0009530Y0211110D01*
X0009512Y0211256D01*
X0009498Y0211402D01*
X0009488Y0211548D01*
X0009482Y0211694D01*
X0009480Y0211841D01*
D11*
X0278160Y0203770D03*
X0288475Y0203770D03*
X0288622Y0193927D03*
X0278160Y0193927D03*
X0278160Y0186053D03*
X0288622Y0186053D03*
X0288622Y0176211D03*
X0278160Y0176211D03*
D12*
X0276782Y0164203D03*
X0299144Y0164203D03*
X0299144Y0215778D03*
X0276782Y0215778D03*
D13*
X0144814Y0038455D03*
X0142845Y0038455D03*
X0140877Y0038455D03*
X0138908Y0038455D03*
X0136940Y0038455D03*
X0134971Y0038455D03*
X0133003Y0038455D03*
X0131034Y0038455D03*
X0129066Y0038455D03*
X0127097Y0038455D03*
X0125129Y0038455D03*
X0123160Y0038455D03*
X0121192Y0038455D03*
X0119223Y0038455D03*
X0117255Y0038455D03*
X0115286Y0038455D03*
X0113318Y0038455D03*
X0111349Y0038455D03*
X0109381Y0038455D03*
D14*
X0098554Y0034715D03*
X0096192Y0015423D03*
X0155641Y0034715D03*
X0158003Y0015423D03*
D15*
X0047963Y0021486D03*
X0045404Y0021486D03*
X0042845Y0021486D03*
X0040286Y0021486D03*
X0037727Y0021486D03*
D16*
X0033003Y0021486D03*
X0052688Y0021486D03*
D17*
X0056625Y0010856D03*
X0029066Y0010856D03*
D18*
X0040286Y0046486D03*
X0042254Y0046486D03*
X0044223Y0046486D03*
X0046191Y0046486D03*
X0048160Y0046486D03*
X0050128Y0046486D03*
X0052097Y0046486D03*
X0054065Y0046486D03*
X0056034Y0046486D03*
X0058002Y0046486D03*
X0059971Y0046486D03*
X0061939Y0046486D03*
X0063908Y0046486D03*
X0065877Y0046486D03*
X0067845Y0046486D03*
X0069814Y0046486D03*
X0069814Y0093731D03*
X0067845Y0093731D03*
X0065877Y0093731D03*
X0063908Y0093731D03*
X0061940Y0093731D03*
X0059971Y0093731D03*
X0058002Y0093731D03*
X0056034Y0093731D03*
X0054065Y0093731D03*
X0052097Y0093731D03*
X0050128Y0093731D03*
X0048160Y0093731D03*
X0046191Y0093731D03*
X0044223Y0093731D03*
X0042254Y0093731D03*
X0040286Y0093731D03*
D19*
X0031428Y0084872D03*
X0031428Y0082903D03*
X0031428Y0080935D03*
X0031428Y0078967D03*
X0031428Y0076998D03*
X0031428Y0075030D03*
X0031428Y0073061D03*
X0031428Y0071093D03*
X0031428Y0069124D03*
X0031428Y0067156D03*
X0031428Y0065187D03*
X0031428Y0063219D03*
X0031428Y0061250D03*
X0031428Y0059282D03*
X0031428Y0057313D03*
X0031428Y0055344D03*
X0078672Y0055344D03*
X0078672Y0057313D03*
X0078672Y0059281D03*
X0078672Y0061250D03*
X0078672Y0063219D03*
X0078672Y0065187D03*
X0078672Y0067156D03*
X0078672Y0069124D03*
X0078672Y0071093D03*
X0078672Y0073049D03*
X0078672Y0075017D03*
X0078672Y0076986D03*
X0078672Y0078954D03*
X0078672Y0080923D03*
X0078672Y0082891D03*
X0078672Y0084860D03*
D20*
X0034066Y0206841D03*
D21*
X0044066Y0206841D03*
X0054066Y0206841D03*
X0064066Y0206841D03*
X0074066Y0206841D03*
X0084066Y0206841D03*
X0094066Y0206841D03*
X0104066Y0206841D03*
X0114066Y0206841D03*
X0124066Y0206841D03*
X0134066Y0206841D03*
X0144066Y0206841D03*
X0154066Y0206841D03*
X0164066Y0206841D03*
X0174066Y0206841D03*
X0184066Y0206841D03*
X0194066Y0206841D03*
X0204066Y0206841D03*
X0214066Y0206841D03*
X0224066Y0206841D03*
X0224066Y0216841D03*
X0214066Y0216841D03*
X0204066Y0216841D03*
X0194066Y0216841D03*
X0184066Y0216841D03*
X0174066Y0216841D03*
X0164066Y0216841D03*
X0154066Y0216841D03*
X0144066Y0216841D03*
X0134066Y0216841D03*
X0124066Y0216841D03*
X0114066Y0216841D03*
X0104066Y0216841D03*
X0094066Y0216841D03*
X0084066Y0216841D03*
X0074066Y0216841D03*
X0064066Y0216841D03*
X0054066Y0216841D03*
X0044066Y0216841D03*
X0034066Y0216841D03*
D22*
X0109381Y0152785D03*
X0113318Y0152785D03*
X0117255Y0152785D03*
X0121192Y0152785D03*
X0125129Y0152785D03*
X0129066Y0152785D03*
X0129066Y0148848D03*
X0125129Y0148848D03*
X0121192Y0148848D03*
X0117255Y0148848D03*
X0113318Y0148848D03*
X0109381Y0148848D03*
X0109381Y0144911D03*
X0109381Y0140974D03*
X0113318Y0140974D03*
X0117255Y0140974D03*
X0121192Y0140974D03*
X0125129Y0140974D03*
X0129066Y0140974D03*
X0129066Y0144911D03*
X0125129Y0144911D03*
X0121192Y0144911D03*
X0117255Y0144911D03*
X0113318Y0144911D03*
X0113318Y0137037D03*
X0117255Y0137037D03*
X0121192Y0137037D03*
X0125129Y0137037D03*
X0129066Y0137037D03*
X0129066Y0133100D03*
X0129066Y0129163D03*
X0125129Y0129163D03*
X0121192Y0129163D03*
X0117255Y0129163D03*
X0113318Y0129163D03*
X0109381Y0129163D03*
X0109381Y0133100D03*
X0113318Y0133100D03*
X0117255Y0133100D03*
X0121192Y0133100D03*
X0125129Y0133100D03*
X0125129Y0125226D03*
X0129066Y0125226D03*
X0129066Y0121289D03*
X0125129Y0121289D03*
X0121192Y0121289D03*
X0117255Y0121289D03*
X0113318Y0121289D03*
X0109381Y0121289D03*
X0109381Y0117352D03*
X0109381Y0113415D03*
X0113318Y0113415D03*
X0117255Y0113415D03*
X0121192Y0113415D03*
X0125129Y0113415D03*
X0129066Y0113415D03*
X0129066Y0117352D03*
X0125129Y0117352D03*
X0121192Y0117352D03*
X0117255Y0117352D03*
X0113318Y0117352D03*
X0113318Y0109478D03*
X0117255Y0109478D03*
X0121192Y0109478D03*
X0125129Y0109478D03*
X0129066Y0109478D03*
X0129066Y0105541D03*
X0129066Y0101604D03*
X0125129Y0101604D03*
X0121192Y0101604D03*
X0117255Y0101604D03*
X0113318Y0101604D03*
X0109381Y0101604D03*
X0109381Y0105541D03*
X0113318Y0105541D03*
X0117255Y0105541D03*
X0121192Y0105541D03*
X0125129Y0105541D03*
X0125129Y0097667D03*
X0129066Y0097667D03*
X0129066Y0093730D03*
X0125129Y0093730D03*
X0121192Y0093730D03*
X0117255Y0093730D03*
X0113318Y0093730D03*
X0109381Y0093730D03*
X0109381Y0097667D03*
X0113318Y0097667D03*
X0117255Y0097667D03*
X0121192Y0097667D03*
X0133003Y0097667D03*
X0136940Y0097667D03*
X0140877Y0097667D03*
X0144814Y0097667D03*
X0148751Y0097667D03*
X0152688Y0097667D03*
X0156625Y0097667D03*
X0156625Y0093730D03*
X0152688Y0093730D03*
X0148751Y0093730D03*
X0144814Y0093730D03*
X0140877Y0093730D03*
X0136940Y0093730D03*
X0133003Y0093730D03*
X0133003Y0101604D03*
X0136940Y0101604D03*
X0140877Y0101604D03*
X0144814Y0101604D03*
X0148751Y0101604D03*
X0152688Y0101604D03*
X0156625Y0101604D03*
X0156625Y0105541D03*
X0152688Y0105541D03*
X0148751Y0105541D03*
X0144814Y0105541D03*
X0140877Y0105541D03*
X0136940Y0105541D03*
X0133003Y0105541D03*
X0133003Y0109478D03*
X0136940Y0109478D03*
X0140877Y0109478D03*
X0144814Y0109478D03*
X0148751Y0109478D03*
X0152688Y0109478D03*
X0156625Y0109478D03*
X0160562Y0109478D03*
X0164499Y0109478D03*
X0168436Y0109478D03*
X0168436Y0105541D03*
X0168436Y0101604D03*
X0164499Y0101604D03*
X0160562Y0101604D03*
X0160562Y0105541D03*
X0164499Y0105541D03*
X0164499Y0097667D03*
X0168436Y0097667D03*
X0168436Y0093730D03*
X0164499Y0093730D03*
X0160562Y0093730D03*
X0160562Y0097667D03*
X0160562Y0113415D03*
X0164499Y0113415D03*
X0168436Y0113415D03*
X0168436Y0117352D03*
X0164499Y0117352D03*
X0160562Y0117352D03*
X0156625Y0117352D03*
X0156625Y0113415D03*
X0152688Y0113415D03*
X0148751Y0113415D03*
X0144814Y0113415D03*
X0140877Y0113415D03*
X0136940Y0113415D03*
X0133003Y0113415D03*
X0133003Y0117352D03*
X0136940Y0117352D03*
X0140877Y0117352D03*
X0144814Y0117352D03*
X0148751Y0117352D03*
X0152688Y0117352D03*
X0152688Y0121289D03*
X0156625Y0121289D03*
X0160562Y0121289D03*
X0164499Y0121289D03*
X0168436Y0121289D03*
X0168436Y0125226D03*
X0164499Y0125226D03*
X0160562Y0125226D03*
X0156625Y0125226D03*
X0152688Y0125226D03*
X0148751Y0125226D03*
X0144814Y0125226D03*
X0140877Y0125226D03*
X0136940Y0125226D03*
X0133003Y0125226D03*
X0133003Y0121289D03*
X0136940Y0121289D03*
X0140877Y0121289D03*
X0144814Y0121289D03*
X0148751Y0121289D03*
X0148751Y0129163D03*
X0152688Y0129163D03*
X0156625Y0129163D03*
X0156625Y0133100D03*
X0152688Y0133100D03*
X0148751Y0133100D03*
X0144814Y0133100D03*
X0144814Y0129163D03*
X0140877Y0129163D03*
X0136940Y0129163D03*
X0133003Y0129163D03*
X0133003Y0133100D03*
X0136940Y0133100D03*
X0140877Y0133100D03*
X0140877Y0137037D03*
X0144814Y0137037D03*
X0148751Y0137037D03*
X0152688Y0137037D03*
X0156625Y0137037D03*
X0160562Y0137037D03*
X0164499Y0137037D03*
X0168436Y0137037D03*
X0168436Y0133100D03*
X0168436Y0129163D03*
X0164499Y0129163D03*
X0160562Y0129163D03*
X0160562Y0133100D03*
X0164499Y0133100D03*
X0164499Y0140974D03*
X0168436Y0140974D03*
X0168436Y0144911D03*
X0164499Y0144911D03*
X0160562Y0144911D03*
X0160562Y0140974D03*
X0156625Y0140974D03*
X0152688Y0140974D03*
X0148751Y0140974D03*
X0144814Y0140974D03*
X0140877Y0140974D03*
X0136940Y0140974D03*
X0133003Y0140974D03*
X0133003Y0144911D03*
X0136940Y0144911D03*
X0140877Y0144911D03*
X0144814Y0144911D03*
X0148751Y0144911D03*
X0152688Y0144911D03*
X0156625Y0144911D03*
X0156625Y0148848D03*
X0152688Y0148848D03*
X0148751Y0148848D03*
X0144814Y0148848D03*
X0140877Y0148848D03*
X0136940Y0148848D03*
X0133003Y0148848D03*
X0133003Y0152785D03*
X0136940Y0152785D03*
X0140877Y0152785D03*
X0144814Y0152785D03*
X0148751Y0152785D03*
X0152688Y0152785D03*
X0156625Y0152785D03*
X0160562Y0152785D03*
X0164499Y0152785D03*
X0168436Y0152785D03*
X0168436Y0148848D03*
X0164499Y0148848D03*
X0160562Y0148848D03*
X0136940Y0137037D03*
X0133003Y0137037D03*
X0121192Y0125226D03*
X0117255Y0125226D03*
X0113318Y0125226D03*
X0109381Y0125226D03*
X0109381Y0137037D03*
X0109381Y0109478D03*
D23*
X0016664Y0061053D03*
X0012924Y0061053D03*
X0009184Y0061053D03*
X0009184Y0050030D03*
X0012924Y0050030D03*
X0016664Y0050030D03*
X0068239Y0184675D03*
X0071979Y0184675D03*
X0075719Y0184675D03*
X0075719Y0195699D03*
X0068239Y0195699D03*
X0095798Y0195699D03*
X0103278Y0195699D03*
X0103278Y0184675D03*
X0099538Y0184675D03*
X0095798Y0184675D03*
D24*
X0225522Y0012234D03*
D25*
X0225522Y0059478D03*
D26*
X0197963Y0029951D03*
X0225522Y0022470D03*
D27*
X0208790Y0074833D03*
D28*
X0197963Y0018927D03*
D29*
X0189499Y0020797D03*
X0182806Y0020797D03*
X0177688Y0020797D03*
X0170995Y0020797D03*
X0170995Y0029163D03*
X0177688Y0029163D03*
X0182806Y0029163D03*
X0189499Y0029163D03*
X0189499Y0037530D03*
X0182806Y0037530D03*
X0177688Y0037530D03*
X0170995Y0037530D03*
X0170995Y0045896D03*
X0177688Y0045896D03*
X0182806Y0045896D03*
X0189499Y0045896D03*
X0175621Y0054262D03*
X0168928Y0054262D03*
X0168928Y0062628D03*
X0175621Y0062628D03*
X0175621Y0070994D03*
X0168928Y0070994D03*
X0168928Y0079360D03*
X0175621Y0079360D03*
X0180837Y0077982D03*
X0187530Y0077982D03*
X0187530Y0086250D03*
X0180837Y0086250D03*
X0190680Y0106722D03*
X0197373Y0106722D03*
X0246585Y0111348D03*
X0253278Y0111348D03*
X0260070Y0109970D03*
X0266763Y0109970D03*
X0266763Y0101604D03*
X0260070Y0101604D03*
X0260070Y0093238D03*
X0266763Y0093238D03*
X0266763Y0118337D03*
X0260070Y0118337D03*
X0188022Y0153868D03*
X0181330Y0153868D03*
X0180444Y0166171D03*
X0173751Y0166171D03*
X0168239Y0166171D03*
X0161546Y0166171D03*
X0163515Y0174439D03*
X0156822Y0174439D03*
X0144617Y0175620D03*
X0137924Y0175620D03*
X0130444Y0173258D03*
X0123751Y0173258D03*
X0118239Y0175620D03*
X0111546Y0175620D03*
X0111546Y0183888D03*
X0118239Y0183888D03*
X0123751Y0181526D03*
X0130444Y0181526D03*
X0130444Y0189793D03*
X0123751Y0189793D03*
X0118239Y0192156D03*
X0111546Y0192156D03*
X0087530Y0193730D03*
X0080837Y0193730D03*
X0080837Y0185463D03*
X0087530Y0185463D03*
X0085562Y0175620D03*
X0079263Y0175620D03*
X0072570Y0175620D03*
X0072570Y0167352D03*
X0066664Y0167352D03*
X0059971Y0167352D03*
X0061940Y0159085D03*
X0067452Y0159085D03*
X0074144Y0159085D03*
X0079263Y0167352D03*
X0085562Y0167352D03*
X0092255Y0167352D03*
X0092255Y0159085D03*
X0085562Y0159085D03*
X0092255Y0175620D03*
X0111546Y0167352D03*
X0118239Y0167352D03*
X0137924Y0167352D03*
X0144617Y0167352D03*
X0156822Y0182707D03*
X0163515Y0182707D03*
X0164302Y0196880D03*
X0157609Y0196880D03*
X0152097Y0196880D03*
X0145404Y0196880D03*
X0189893Y0177982D03*
X0196585Y0177982D03*
X0237530Y0189400D03*
X0244223Y0189400D03*
X0255247Y0189006D03*
X0261940Y0189006D03*
X0261940Y0197274D03*
X0255247Y0197274D03*
X0255247Y0180738D03*
X0261940Y0180738D03*
X0117845Y0084281D03*
X0111152Y0084281D03*
X0112727Y0076014D03*
X0119420Y0076014D03*
X0119420Y0067746D03*
X0112727Y0067746D03*
X0112727Y0059478D03*
X0119420Y0059478D03*
X0119420Y0051211D03*
X0112727Y0051211D03*
X0088711Y0034675D03*
X0082019Y0034675D03*
X0084479Y0043041D03*
X0077786Y0043041D03*
X0082019Y0026407D03*
X0088711Y0026407D03*
X0088711Y0018140D03*
X0082019Y0018140D03*
X0030739Y0035463D03*
X0024046Y0035463D03*
X0018436Y0035463D03*
X0011743Y0035463D03*
X0011743Y0043435D03*
X0018436Y0043435D03*
X0024046Y0043435D03*
X0030739Y0043435D03*
X0032215Y0051801D03*
X0025522Y0051801D03*
X0016172Y0066860D03*
X0009479Y0066860D03*
X0009479Y0075226D03*
X0016172Y0075226D03*
X0037924Y0104360D03*
X0044617Y0104360D03*
X0070207Y0102392D03*
X0076900Y0102392D03*
X0082412Y0102392D03*
X0089105Y0102392D03*
X0094617Y0102392D03*
X0101310Y0102392D03*
X0101310Y0094124D03*
X0094617Y0094124D03*
X0089105Y0094124D03*
X0082412Y0094124D03*
X0055247Y0159085D03*
X0043830Y0173652D03*
X0037137Y0173652D03*
X0019026Y0185069D03*
X0012333Y0185069D03*
X0042648Y0196880D03*
X0049341Y0196880D03*
X0054459Y0196880D03*
X0061152Y0196880D03*
X0061152Y0188612D03*
X0054459Y0188612D03*
X0233987Y0060266D03*
X0240680Y0060266D03*
X0240680Y0051998D03*
X0233987Y0051998D03*
X0233987Y0043730D03*
X0240680Y0043730D03*
X0240680Y0035463D03*
X0233987Y0035463D03*
X0189499Y0012431D03*
X0182806Y0012431D03*
X0177688Y0012431D03*
X0170995Y0012431D03*
D30*
X0103869Y0065187D03*
X0095601Y0065187D03*
X0095601Y0071880D03*
X0095601Y0076998D03*
X0103869Y0076998D03*
X0103869Y0071880D03*
X0103869Y0083691D03*
X0095601Y0083691D03*
X0087235Y0071880D03*
X0087235Y0065187D03*
X0046093Y0039203D03*
X0037727Y0039203D03*
X0037727Y0032510D03*
X0046093Y0032510D03*
X0057511Y0034478D03*
X0057511Y0027785D03*
X0065877Y0026211D03*
X0074243Y0026211D03*
X0074243Y0032904D03*
X0065877Y0032904D03*
X0023160Y0064892D03*
X0023160Y0071585D03*
X0030247Y0090384D03*
X0030247Y0097077D03*
X0010168Y0106526D03*
X0010168Y0113219D03*
X0055444Y0110463D03*
X0055444Y0103770D03*
X0063515Y0103770D03*
X0063515Y0110463D03*
X0149144Y0079360D03*
X0149144Y0072667D03*
X0194912Y0113809D03*
X0194912Y0120502D03*
X0251900Y0086447D03*
X0251900Y0079754D03*
X0260168Y0079754D03*
X0268436Y0079754D03*
X0268436Y0086447D03*
X0260168Y0086447D03*
X0276704Y0086447D03*
X0284971Y0086447D03*
X0284971Y0079754D03*
X0276704Y0079754D03*
X0293239Y0079754D03*
X0293239Y0086447D03*
X0268830Y0131722D03*
X0268830Y0138415D03*
X0268830Y0144321D03*
X0268830Y0151014D03*
X0277097Y0151014D03*
X0285365Y0151014D03*
X0285365Y0144321D03*
X0277097Y0144321D03*
X0293633Y0144321D03*
X0301900Y0144321D03*
X0301900Y0151014D03*
X0293633Y0151014D03*
X0229952Y0189203D03*
X0229952Y0195896D03*
X0221585Y0195994D03*
X0221585Y0189301D03*
X0013711Y0178179D03*
X0013711Y0171486D03*
X0260168Y0015974D03*
X0260168Y0009281D03*
X0268436Y0009281D03*
X0268436Y0015974D03*
X0276704Y0015974D03*
X0276704Y0009281D03*
X0284971Y0009281D03*
X0284971Y0015974D03*
X0293239Y0015974D03*
X0293239Y0009281D03*
D31*
X0102491Y0043533D03*
X0093436Y0043533D03*
X0093436Y0058100D03*
X0102491Y0058100D03*
D32*
X0018987Y0083888D03*
X0008987Y0083888D03*
X0263711Y0206526D03*
X0263711Y0216526D03*
D33*
X0006428Y0182419D02*
X0003672Y0182419D01*
X0003672Y0185175D01*
X0006428Y0185175D01*
X0006428Y0182419D01*
X0006428Y0183599D02*
X0003672Y0183599D01*
X0003672Y0184779D02*
X0006428Y0184779D01*
X0006428Y0175514D02*
X0003672Y0175514D01*
X0003672Y0178270D01*
X0006428Y0178270D01*
X0006428Y0175514D01*
X0006428Y0176694D02*
X0003672Y0176694D01*
X0003672Y0177874D02*
X0006428Y0177874D01*
D34*
X0011743Y0098455D03*
X0022767Y0098455D03*
D35*
X0025522Y0143730D03*
D36*
X0025522Y0174730D03*
X0025522Y0112730D03*
D37*
X0037333Y0112234D03*
X0048357Y0112234D03*
X0022373Y0194124D03*
X0011349Y0194124D03*
X0183298Y0069616D03*
X0194322Y0069616D03*
X0194322Y0057313D03*
X0183298Y0057313D03*
X0276704Y0105148D03*
X0288515Y0105148D03*
X0288515Y0133494D03*
X0276704Y0133494D03*
D38*
X0083003Y0131919D03*
X0079853Y0131919D03*
X0076704Y0131919D03*
X0076704Y0135069D03*
X0079853Y0135069D03*
X0079853Y0138219D03*
X0079853Y0141368D03*
X0076704Y0141368D03*
X0076704Y0138219D03*
X0076704Y0144518D03*
X0079853Y0144518D03*
X0083003Y0144518D03*
X0079853Y0147667D03*
X0076704Y0147667D03*
X0076704Y0150817D03*
X0079853Y0150817D03*
X0083003Y0150817D03*
X0083003Y0138219D03*
X0083003Y0128770D03*
X0079853Y0128770D03*
X0076704Y0128770D03*
X0076704Y0125620D03*
X0079853Y0125620D03*
X0079853Y0122470D03*
X0076704Y0122470D03*
X0076704Y0119321D03*
X0079853Y0119321D03*
X0083003Y0119321D03*
X0083003Y0122470D03*
X0083003Y0125620D03*
X0064105Y0125620D03*
X0060956Y0125620D03*
X0060956Y0122470D03*
X0064105Y0122470D03*
X0064105Y0119321D03*
X0060956Y0119321D03*
X0057806Y0119321D03*
X0057806Y0122470D03*
X0057806Y0125620D03*
X0057806Y0128770D03*
X0060956Y0128770D03*
X0064105Y0128770D03*
X0064105Y0131919D03*
X0060956Y0131919D03*
X0060956Y0135069D03*
X0064105Y0135069D03*
X0064105Y0138219D03*
X0064105Y0141368D03*
X0060956Y0141368D03*
X0060956Y0138219D03*
X0057806Y0141368D03*
X0060956Y0144518D03*
X0064105Y0144518D03*
X0064105Y0147667D03*
X0060956Y0147667D03*
X0060956Y0150817D03*
X0064105Y0150817D03*
X0057806Y0147667D03*
X0057806Y0135069D03*
X0057806Y0131919D03*
D39*
X0329853Y0125226D03*
X0329853Y0113415D03*
D40*
X0328574Y0117746D03*
X0328574Y0120896D03*
D41*
X0310168Y0128179D03*
X0310168Y0110463D03*
D42*
X0300326Y0105541D03*
X0300326Y0133100D03*
D43*
X0178770Y0181053D03*
X0169912Y0181053D03*
X0169912Y0191053D03*
X0178770Y0191053D03*
D44*
X0099932Y0167352D03*
X0099932Y0156329D03*
X0052294Y0166171D03*
X0052294Y0177195D03*
D45*
X0258249Y0066959D03*
X0258249Y0063415D03*
X0258249Y0059872D03*
X0258249Y0056329D03*
X0258249Y0052785D03*
X0258249Y0049242D03*
X0258249Y0045699D03*
X0258249Y0042156D03*
X0258249Y0038612D03*
X0258249Y0035069D03*
X0258249Y0031526D03*
X0303032Y0031526D03*
X0303032Y0035069D03*
X0303032Y0038612D03*
X0303032Y0042156D03*
X0303032Y0045699D03*
X0303032Y0049242D03*
X0303032Y0052785D03*
X0303032Y0056329D03*
X0303032Y0059872D03*
X0303032Y0063415D03*
X0303032Y0066959D03*
D46*
X0298357Y0071634D03*
X0294814Y0071634D03*
X0291270Y0071634D03*
X0287727Y0071634D03*
X0284184Y0071634D03*
X0280641Y0071634D03*
X0277097Y0071634D03*
X0273554Y0071634D03*
X0270011Y0071634D03*
X0266467Y0071634D03*
X0262924Y0071634D03*
X0262924Y0026850D03*
X0266467Y0026850D03*
X0270011Y0026850D03*
X0273554Y0026850D03*
X0277097Y0026850D03*
X0280641Y0026850D03*
X0284184Y0026850D03*
X0287727Y0026850D03*
X0291270Y0026850D03*
X0294814Y0026850D03*
X0298357Y0026850D03*
D47*
X0257609Y0124833D03*
X0257609Y0126801D03*
X0257609Y0128770D03*
X0257609Y0130738D03*
X0257609Y0132707D03*
X0257609Y0134675D03*
X0257609Y0136644D03*
X0257609Y0138612D03*
X0257609Y0140581D03*
X0257609Y0142549D03*
X0257609Y0144518D03*
X0257609Y0146486D03*
X0257609Y0148455D03*
X0257609Y0150423D03*
X0257609Y0152392D03*
X0257609Y0154360D03*
X0257609Y0156329D03*
X0257609Y0158297D03*
X0257609Y0160266D03*
X0257609Y0162234D03*
X0257609Y0164203D03*
X0257609Y0166171D03*
X0257609Y0168140D03*
X0257609Y0170108D03*
X0257609Y0172077D03*
X0196585Y0172077D03*
X0196585Y0170108D03*
X0196585Y0168140D03*
X0196585Y0166171D03*
X0196585Y0164203D03*
X0196585Y0162234D03*
X0196585Y0160266D03*
X0196585Y0158297D03*
X0196585Y0156329D03*
X0196585Y0154360D03*
X0196585Y0152392D03*
X0196585Y0150423D03*
X0196585Y0148455D03*
X0196585Y0146486D03*
X0196585Y0144518D03*
X0196585Y0142549D03*
X0196585Y0140581D03*
X0196585Y0138612D03*
X0196585Y0136644D03*
X0196585Y0134675D03*
X0196585Y0132707D03*
X0196585Y0130738D03*
X0196585Y0128770D03*
X0196585Y0126801D03*
X0196585Y0124833D03*
D48*
X0203475Y0117943D03*
X0205444Y0117943D03*
X0207412Y0117943D03*
X0209381Y0117943D03*
X0211349Y0117943D03*
X0213318Y0117943D03*
X0215286Y0117943D03*
X0217255Y0117943D03*
X0219223Y0117943D03*
X0221192Y0117943D03*
X0223160Y0117943D03*
X0225129Y0117943D03*
X0227097Y0117943D03*
X0229066Y0117943D03*
X0231034Y0117943D03*
X0233003Y0117943D03*
X0234971Y0117943D03*
X0236940Y0117943D03*
X0238908Y0117943D03*
X0240877Y0117943D03*
X0242845Y0117943D03*
X0244814Y0117943D03*
X0246782Y0117943D03*
X0248751Y0117943D03*
X0250719Y0117943D03*
X0250719Y0178967D03*
X0248751Y0178967D03*
X0246782Y0178967D03*
X0244814Y0178967D03*
X0242845Y0178967D03*
X0240877Y0178967D03*
X0238908Y0178967D03*
X0236940Y0178967D03*
X0234971Y0178967D03*
X0233003Y0178967D03*
X0231034Y0178967D03*
X0229066Y0178967D03*
X0227097Y0178967D03*
X0225129Y0178967D03*
X0223160Y0178967D03*
X0221192Y0178967D03*
X0219223Y0178967D03*
X0217255Y0178967D03*
X0215286Y0178967D03*
X0213318Y0178967D03*
X0211349Y0178967D03*
X0209381Y0178967D03*
X0207412Y0178967D03*
X0205444Y0178967D03*
X0203475Y0178967D03*
D49*
X0321192Y0034872D03*
D50*
X0321192Y0026604D03*
D51*
X0330837Y0034675D03*
D52*
X0324656Y0043533D03*
X0324656Y0053376D03*
X0324656Y0062037D03*
X0324656Y0071880D03*
D53*
X0320444Y0066959D03*
X0320444Y0048455D03*
D54*
X0330837Y0057707D03*
X0330837Y0076211D03*
D55*
X0322097Y0080541D03*
D56*
X0311546Y0034872D03*
D57*
X0311546Y0026604D03*
D58*
X0212333Y0185463D03*
X0212333Y0198061D03*
X0190680Y0198061D03*
X0190680Y0185463D03*
D59*
X0047570Y0183297D03*
X0047570Y0190778D03*
X0036546Y0190778D03*
X0036546Y0187037D03*
X0036546Y0183297D03*
D60*
X0060168Y0176407D03*
X0067255Y0176407D03*
X0097570Y0176014D03*
X0104656Y0176014D03*
D61*
X0030247Y0185463D03*
X0030247Y0192549D03*
D62*
X0036546Y0191762D02*
X0036546Y0190778D01*
X0036546Y0191762D02*
X0038908Y0194124D01*
X0042648Y0194715D02*
X0042648Y0196880D01*
X0042648Y0194715D02*
X0043633Y0193730D01*
X0047570Y0190778D02*
X0049735Y0188612D01*
X0054459Y0188612D01*
X0049341Y0192549D02*
X0047570Y0190778D01*
X0049341Y0192549D02*
X0049341Y0196880D01*
X0054459Y0196880D01*
X0061152Y0196880D02*
X0061152Y0192746D01*
X0060956Y0192549D01*
X0061152Y0192352D01*
X0061152Y0188612D01*
X0062137Y0183297D02*
X0062727Y0182707D01*
X0072570Y0175620D02*
X0080837Y0183888D01*
X0080837Y0185463D01*
X0087530Y0185463D02*
X0087530Y0183888D01*
X0079263Y0175620D01*
X0079853Y0175030D01*
X0079853Y0172470D01*
X0079853Y0167943D01*
X0079263Y0167352D01*
X0084578Y0166762D02*
X0085562Y0167352D01*
X0084578Y0164203D02*
X0084578Y0160463D01*
X0085562Y0159085D01*
X0083396Y0154360D02*
X0081034Y0154360D01*
X0078278Y0151604D01*
X0078278Y0149242D01*
X0079853Y0147667D01*
X0078278Y0146093D02*
X0072767Y0146093D01*
X0070404Y0143730D01*
X0070404Y0142156D01*
X0068042Y0139990D02*
X0065877Y0139990D01*
X0064105Y0138219D01*
X0065286Y0136644D02*
X0062530Y0136644D01*
X0060956Y0135069D01*
X0062530Y0133494D02*
X0060956Y0131919D01*
X0062530Y0133494D02*
X0086546Y0133494D01*
X0088515Y0135463D01*
X0090089Y0135463D01*
X0090483Y0135069D01*
X0111349Y0135069D01*
X0113318Y0137037D01*
X0115286Y0135069D02*
X0113318Y0133100D01*
X0115286Y0131132D02*
X0117255Y0129163D01*
X0119223Y0127195D02*
X0121192Y0129163D01*
X0119223Y0131132D02*
X0117255Y0133100D01*
X0115286Y0131132D02*
X0108593Y0131132D01*
X0108546Y0131191D01*
X0108495Y0131248D01*
X0108442Y0131303D01*
X0108387Y0131354D01*
X0108328Y0131403D01*
X0108267Y0131449D01*
X0108204Y0131491D01*
X0108139Y0131530D01*
X0108072Y0131566D01*
X0108003Y0131598D01*
X0107933Y0131627D01*
X0107861Y0131652D01*
X0107788Y0131673D01*
X0107714Y0131691D01*
X0107639Y0131704D01*
X0107564Y0131714D01*
X0107488Y0131720D01*
X0107412Y0131722D01*
X0107336Y0131720D01*
X0107260Y0131714D01*
X0107185Y0131704D01*
X0107110Y0131691D01*
X0107036Y0131673D01*
X0106963Y0131652D01*
X0106891Y0131627D01*
X0106821Y0131598D01*
X0106752Y0131566D01*
X0106685Y0131530D01*
X0106620Y0131491D01*
X0106557Y0131449D01*
X0106496Y0131403D01*
X0106437Y0131354D01*
X0106382Y0131303D01*
X0106329Y0131248D01*
X0106278Y0131191D01*
X0106231Y0131132D01*
X0106188Y0131068D01*
X0106143Y0131007D01*
X0106094Y0130948D01*
X0106043Y0130892D01*
X0105989Y0130838D01*
X0105932Y0130788D01*
X0105872Y0130740D01*
X0105810Y0130695D01*
X0105746Y0130654D01*
X0105680Y0130616D01*
X0105612Y0130581D01*
X0105542Y0130550D01*
X0105471Y0130523D01*
X0105398Y0130500D01*
X0105325Y0130480D01*
X0105250Y0130464D01*
X0105175Y0130451D01*
X0105099Y0130443D01*
X0105023Y0130439D01*
X0104947Y0130438D01*
X0104870Y0130442D01*
X0104794Y0130449D01*
X0104719Y0130460D01*
X0104644Y0130476D01*
X0104570Y0130495D01*
X0104498Y0130517D01*
X0104426Y0130544D01*
X0104356Y0130574D01*
X0104287Y0130608D01*
X0104221Y0130645D01*
X0104156Y0130686D01*
X0104094Y0130729D01*
X0104034Y0130776D01*
X0103976Y0130826D01*
X0103921Y0130879D01*
X0103869Y0130935D01*
X0101900Y0131722D02*
X0097963Y0131722D01*
X0097963Y0131723D02*
X0097886Y0131721D01*
X0097809Y0131715D01*
X0097732Y0131706D01*
X0097656Y0131693D01*
X0097580Y0131676D01*
X0097506Y0131655D01*
X0097432Y0131631D01*
X0097360Y0131603D01*
X0097290Y0131572D01*
X0097221Y0131537D01*
X0097153Y0131499D01*
X0097088Y0131458D01*
X0097025Y0131413D01*
X0096964Y0131365D01*
X0096905Y0131315D01*
X0096849Y0131262D01*
X0096796Y0131206D01*
X0096746Y0131147D01*
X0096698Y0131086D01*
X0096653Y0131023D01*
X0096612Y0130958D01*
X0096574Y0130890D01*
X0096539Y0130821D01*
X0096508Y0130751D01*
X0096480Y0130679D01*
X0096456Y0130605D01*
X0096435Y0130531D01*
X0096418Y0130455D01*
X0096405Y0130379D01*
X0096396Y0130302D01*
X0096390Y0130225D01*
X0096388Y0130148D01*
X0096389Y0130148D02*
X0096389Y0126211D01*
X0094814Y0124636D02*
X0094737Y0124638D01*
X0094660Y0124644D01*
X0094583Y0124653D01*
X0094507Y0124666D01*
X0094431Y0124683D01*
X0094357Y0124704D01*
X0094283Y0124728D01*
X0094211Y0124756D01*
X0094141Y0124787D01*
X0094072Y0124822D01*
X0094004Y0124860D01*
X0093939Y0124901D01*
X0093876Y0124946D01*
X0093815Y0124994D01*
X0093756Y0125044D01*
X0093700Y0125097D01*
X0093647Y0125153D01*
X0093597Y0125212D01*
X0093549Y0125273D01*
X0093504Y0125336D01*
X0093463Y0125401D01*
X0093425Y0125469D01*
X0093390Y0125538D01*
X0093359Y0125608D01*
X0093331Y0125680D01*
X0093307Y0125754D01*
X0093286Y0125828D01*
X0093269Y0125904D01*
X0093256Y0125980D01*
X0093247Y0126057D01*
X0093241Y0126134D01*
X0093239Y0126211D01*
X0093239Y0130148D01*
X0091665Y0131722D02*
X0091585Y0131716D01*
X0091506Y0131705D01*
X0091427Y0131691D01*
X0091350Y0131673D01*
X0091273Y0131652D01*
X0091197Y0131627D01*
X0091123Y0131598D01*
X0091050Y0131566D01*
X0090978Y0131530D01*
X0090909Y0131491D01*
X0090841Y0131449D01*
X0090776Y0131403D01*
X0090712Y0131355D01*
X0090651Y0131303D01*
X0090593Y0131249D01*
X0090537Y0131192D01*
X0090484Y0131132D01*
X0090434Y0131070D01*
X0090387Y0131006D01*
X0090343Y0130939D01*
X0090302Y0130871D01*
X0090265Y0130800D01*
X0090231Y0130728D01*
X0090200Y0130655D01*
X0090173Y0130579D01*
X0090150Y0130503D01*
X0090130Y0130426D01*
X0090114Y0130348D01*
X0090102Y0130269D01*
X0090093Y0130190D01*
X0090088Y0130110D01*
X0090087Y0130030D01*
X0090090Y0129951D01*
X0090089Y0129951D02*
X0090089Y0127195D01*
X0090090Y0127195D02*
X0090088Y0127118D01*
X0090082Y0127041D01*
X0090073Y0126964D01*
X0090060Y0126888D01*
X0090043Y0126812D01*
X0090022Y0126738D01*
X0089998Y0126664D01*
X0089970Y0126592D01*
X0089939Y0126522D01*
X0089904Y0126453D01*
X0089866Y0126385D01*
X0089825Y0126320D01*
X0089780Y0126257D01*
X0089732Y0126196D01*
X0089682Y0126137D01*
X0089629Y0126081D01*
X0089573Y0126028D01*
X0089514Y0125978D01*
X0089453Y0125930D01*
X0089390Y0125885D01*
X0089325Y0125844D01*
X0089257Y0125806D01*
X0089188Y0125771D01*
X0089118Y0125740D01*
X0089046Y0125712D01*
X0088972Y0125688D01*
X0088898Y0125667D01*
X0088822Y0125650D01*
X0088746Y0125637D01*
X0088669Y0125628D01*
X0088592Y0125622D01*
X0088515Y0125620D01*
X0088438Y0125622D01*
X0088361Y0125628D01*
X0088284Y0125637D01*
X0088208Y0125650D01*
X0088132Y0125667D01*
X0088058Y0125688D01*
X0087984Y0125712D01*
X0087912Y0125740D01*
X0087842Y0125771D01*
X0087773Y0125806D01*
X0087705Y0125844D01*
X0087640Y0125885D01*
X0087577Y0125930D01*
X0087516Y0125978D01*
X0087457Y0126028D01*
X0087401Y0126081D01*
X0087348Y0126137D01*
X0087298Y0126196D01*
X0087250Y0126257D01*
X0087205Y0126320D01*
X0087164Y0126385D01*
X0087126Y0126453D01*
X0087091Y0126522D01*
X0087060Y0126592D01*
X0087032Y0126664D01*
X0087008Y0126738D01*
X0086987Y0126812D01*
X0086970Y0126888D01*
X0086957Y0126964D01*
X0086948Y0127041D01*
X0086942Y0127118D01*
X0086940Y0127195D01*
X0086940Y0130344D01*
X0086939Y0130344D02*
X0086937Y0130398D01*
X0086932Y0130451D01*
X0086923Y0130504D01*
X0086910Y0130556D01*
X0086894Y0130608D01*
X0086874Y0130658D01*
X0086851Y0130706D01*
X0086824Y0130753D01*
X0086795Y0130798D01*
X0086762Y0130841D01*
X0086727Y0130881D01*
X0086689Y0130919D01*
X0086649Y0130954D01*
X0086606Y0130987D01*
X0086561Y0131016D01*
X0086514Y0131043D01*
X0086466Y0131066D01*
X0086416Y0131086D01*
X0086364Y0131102D01*
X0086312Y0131115D01*
X0086259Y0131124D01*
X0086206Y0131129D01*
X0086152Y0131131D01*
X0086152Y0131132D02*
X0085365Y0131132D01*
X0083003Y0128770D01*
X0081428Y0130344D02*
X0083003Y0131919D01*
X0081428Y0130344D02*
X0081428Y0127195D01*
X0083003Y0125620D01*
X0085365Y0125620D01*
X0089302Y0121683D01*
X0086940Y0120502D02*
X0086942Y0120436D01*
X0086947Y0120370D01*
X0086957Y0120304D01*
X0086970Y0120239D01*
X0086986Y0120175D01*
X0087006Y0120112D01*
X0087030Y0120050D01*
X0087057Y0119990D01*
X0087087Y0119931D01*
X0087121Y0119874D01*
X0087158Y0119819D01*
X0087198Y0119766D01*
X0087240Y0119715D01*
X0087286Y0119667D01*
X0087334Y0119621D01*
X0087385Y0119579D01*
X0087438Y0119539D01*
X0087493Y0119502D01*
X0087550Y0119468D01*
X0087609Y0119438D01*
X0087669Y0119411D01*
X0087731Y0119387D01*
X0087794Y0119367D01*
X0087858Y0119351D01*
X0087923Y0119338D01*
X0087989Y0119328D01*
X0088055Y0119323D01*
X0088121Y0119321D01*
X0090877Y0119321D01*
X0090931Y0119323D01*
X0090984Y0119328D01*
X0091037Y0119337D01*
X0091089Y0119350D01*
X0091141Y0119366D01*
X0091191Y0119386D01*
X0091239Y0119409D01*
X0091286Y0119436D01*
X0091331Y0119465D01*
X0091374Y0119498D01*
X0091414Y0119533D01*
X0091452Y0119571D01*
X0091487Y0119611D01*
X0091520Y0119654D01*
X0091549Y0119699D01*
X0091576Y0119746D01*
X0091599Y0119794D01*
X0091619Y0119844D01*
X0091635Y0119896D01*
X0091648Y0119948D01*
X0091657Y0120001D01*
X0091662Y0120054D01*
X0091664Y0120108D01*
X0091664Y0121289D01*
X0091665Y0121289D02*
X0091667Y0121343D01*
X0091672Y0121396D01*
X0091681Y0121449D01*
X0091694Y0121501D01*
X0091710Y0121553D01*
X0091730Y0121603D01*
X0091753Y0121651D01*
X0091780Y0121698D01*
X0091809Y0121743D01*
X0091842Y0121786D01*
X0091877Y0121826D01*
X0091915Y0121864D01*
X0091955Y0121899D01*
X0091998Y0121932D01*
X0092043Y0121961D01*
X0092090Y0121988D01*
X0092138Y0122011D01*
X0092188Y0122031D01*
X0092240Y0122047D01*
X0092292Y0122060D01*
X0092345Y0122069D01*
X0092398Y0122074D01*
X0092452Y0122076D01*
X0092452Y0122077D02*
X0093239Y0122077D01*
X0093239Y0122076D02*
X0093293Y0122074D01*
X0093346Y0122069D01*
X0093399Y0122060D01*
X0093451Y0122047D01*
X0093503Y0122031D01*
X0093553Y0122011D01*
X0093601Y0121988D01*
X0093648Y0121961D01*
X0093693Y0121932D01*
X0093736Y0121899D01*
X0093776Y0121864D01*
X0093814Y0121826D01*
X0093849Y0121786D01*
X0093882Y0121743D01*
X0093911Y0121698D01*
X0093938Y0121651D01*
X0093961Y0121603D01*
X0093981Y0121553D01*
X0093997Y0121501D01*
X0094010Y0121449D01*
X0094019Y0121396D01*
X0094024Y0121343D01*
X0094026Y0121289D01*
X0094026Y0120108D01*
X0094027Y0120108D02*
X0094029Y0120054D01*
X0094034Y0120001D01*
X0094043Y0119948D01*
X0094056Y0119896D01*
X0094072Y0119844D01*
X0094092Y0119794D01*
X0094115Y0119746D01*
X0094142Y0119699D01*
X0094171Y0119654D01*
X0094204Y0119611D01*
X0094239Y0119571D01*
X0094277Y0119533D01*
X0094317Y0119498D01*
X0094360Y0119465D01*
X0094405Y0119436D01*
X0094452Y0119409D01*
X0094500Y0119386D01*
X0094550Y0119366D01*
X0094602Y0119350D01*
X0094654Y0119337D01*
X0094707Y0119328D01*
X0094760Y0119323D01*
X0094814Y0119321D01*
X0095207Y0119321D01*
X0095261Y0119323D01*
X0095314Y0119328D01*
X0095367Y0119337D01*
X0095419Y0119350D01*
X0095471Y0119366D01*
X0095521Y0119386D01*
X0095569Y0119409D01*
X0095616Y0119436D01*
X0095661Y0119465D01*
X0095704Y0119498D01*
X0095744Y0119533D01*
X0095782Y0119571D01*
X0095817Y0119611D01*
X0095850Y0119654D01*
X0095879Y0119699D01*
X0095906Y0119746D01*
X0095929Y0119794D01*
X0095949Y0119844D01*
X0095965Y0119896D01*
X0095978Y0119948D01*
X0095987Y0120001D01*
X0095992Y0120054D01*
X0095994Y0120108D01*
X0095995Y0120108D02*
X0095995Y0122077D01*
X0095997Y0122131D01*
X0096002Y0122184D01*
X0096011Y0122237D01*
X0096024Y0122289D01*
X0096040Y0122341D01*
X0096060Y0122391D01*
X0096083Y0122439D01*
X0096110Y0122486D01*
X0096139Y0122531D01*
X0096172Y0122574D01*
X0096207Y0122614D01*
X0096245Y0122652D01*
X0096285Y0122687D01*
X0096328Y0122720D01*
X0096373Y0122749D01*
X0096420Y0122776D01*
X0096468Y0122799D01*
X0096518Y0122819D01*
X0096570Y0122835D01*
X0096622Y0122848D01*
X0096675Y0122857D01*
X0096728Y0122862D01*
X0096782Y0122864D01*
X0097570Y0122864D01*
X0097624Y0122862D01*
X0097677Y0122857D01*
X0097730Y0122848D01*
X0097782Y0122835D01*
X0097834Y0122819D01*
X0097884Y0122799D01*
X0097932Y0122776D01*
X0097979Y0122749D01*
X0098024Y0122720D01*
X0098067Y0122687D01*
X0098107Y0122652D01*
X0098145Y0122614D01*
X0098180Y0122574D01*
X0098213Y0122531D01*
X0098242Y0122486D01*
X0098269Y0122439D01*
X0098292Y0122391D01*
X0098312Y0122341D01*
X0098328Y0122289D01*
X0098341Y0122237D01*
X0098350Y0122184D01*
X0098355Y0122131D01*
X0098357Y0122077D01*
X0098357Y0120108D01*
X0098359Y0120054D01*
X0098364Y0120001D01*
X0098373Y0119948D01*
X0098386Y0119896D01*
X0098402Y0119844D01*
X0098422Y0119794D01*
X0098445Y0119746D01*
X0098472Y0119699D01*
X0098501Y0119654D01*
X0098534Y0119611D01*
X0098569Y0119571D01*
X0098607Y0119533D01*
X0098647Y0119498D01*
X0098690Y0119465D01*
X0098735Y0119436D01*
X0098782Y0119409D01*
X0098830Y0119386D01*
X0098880Y0119366D01*
X0098932Y0119350D01*
X0098984Y0119337D01*
X0099037Y0119328D01*
X0099090Y0119323D01*
X0099144Y0119321D01*
X0099538Y0119321D01*
X0099592Y0119323D01*
X0099645Y0119328D01*
X0099698Y0119337D01*
X0099750Y0119350D01*
X0099802Y0119366D01*
X0099852Y0119386D01*
X0099900Y0119409D01*
X0099947Y0119436D01*
X0099992Y0119465D01*
X0100035Y0119498D01*
X0100075Y0119533D01*
X0100113Y0119571D01*
X0100148Y0119611D01*
X0100181Y0119654D01*
X0100210Y0119699D01*
X0100237Y0119746D01*
X0100260Y0119794D01*
X0100280Y0119844D01*
X0100296Y0119896D01*
X0100309Y0119948D01*
X0100318Y0120001D01*
X0100323Y0120054D01*
X0100325Y0120108D01*
X0100326Y0120108D02*
X0100326Y0121683D01*
X0100328Y0121737D01*
X0100333Y0121790D01*
X0100342Y0121843D01*
X0100355Y0121895D01*
X0100371Y0121947D01*
X0100391Y0121997D01*
X0100414Y0122045D01*
X0100441Y0122092D01*
X0100470Y0122137D01*
X0100503Y0122180D01*
X0100538Y0122220D01*
X0100576Y0122258D01*
X0100616Y0122293D01*
X0100659Y0122326D01*
X0100704Y0122355D01*
X0100751Y0122382D01*
X0100799Y0122405D01*
X0100849Y0122425D01*
X0100901Y0122441D01*
X0100953Y0122454D01*
X0101006Y0122463D01*
X0101059Y0122468D01*
X0101113Y0122470D01*
X0101507Y0122470D01*
X0101561Y0122468D01*
X0101614Y0122463D01*
X0101667Y0122454D01*
X0101719Y0122441D01*
X0101771Y0122425D01*
X0101821Y0122405D01*
X0101869Y0122382D01*
X0101916Y0122355D01*
X0101961Y0122326D01*
X0102004Y0122293D01*
X0102044Y0122258D01*
X0102082Y0122220D01*
X0102117Y0122180D01*
X0102150Y0122137D01*
X0102179Y0122092D01*
X0102206Y0122045D01*
X0102229Y0121997D01*
X0102249Y0121947D01*
X0102265Y0121895D01*
X0102278Y0121843D01*
X0102287Y0121790D01*
X0102292Y0121737D01*
X0102294Y0121683D01*
X0102294Y0120502D01*
X0102296Y0120448D01*
X0102301Y0120395D01*
X0102310Y0120342D01*
X0102323Y0120290D01*
X0102339Y0120238D01*
X0102359Y0120188D01*
X0102382Y0120140D01*
X0102409Y0120093D01*
X0102438Y0120048D01*
X0102471Y0120005D01*
X0102506Y0119965D01*
X0102544Y0119927D01*
X0102584Y0119892D01*
X0102627Y0119859D01*
X0102672Y0119830D01*
X0102719Y0119803D01*
X0102767Y0119780D01*
X0102817Y0119760D01*
X0102869Y0119744D01*
X0102921Y0119731D01*
X0102974Y0119722D01*
X0103027Y0119717D01*
X0103081Y0119715D01*
X0103475Y0119715D01*
X0103529Y0119717D01*
X0103582Y0119722D01*
X0103635Y0119731D01*
X0103687Y0119744D01*
X0103739Y0119760D01*
X0103789Y0119780D01*
X0103837Y0119803D01*
X0103884Y0119830D01*
X0103929Y0119859D01*
X0103972Y0119892D01*
X0104012Y0119927D01*
X0104050Y0119965D01*
X0104085Y0120005D01*
X0104118Y0120048D01*
X0104147Y0120093D01*
X0104174Y0120140D01*
X0104197Y0120188D01*
X0104217Y0120238D01*
X0104233Y0120290D01*
X0104246Y0120342D01*
X0104255Y0120395D01*
X0104260Y0120448D01*
X0104262Y0120502D01*
X0104263Y0120502D02*
X0104263Y0121683D01*
X0104262Y0121683D02*
X0104273Y0121765D01*
X0104288Y0121846D01*
X0104306Y0121926D01*
X0104328Y0122005D01*
X0104354Y0122083D01*
X0104383Y0122160D01*
X0104416Y0122236D01*
X0104453Y0122310D01*
X0104492Y0122382D01*
X0104535Y0122452D01*
X0104582Y0122520D01*
X0104631Y0122586D01*
X0104683Y0122650D01*
X0104738Y0122711D01*
X0104796Y0122770D01*
X0104857Y0122825D01*
X0104920Y0122878D01*
X0104986Y0122928D01*
X0105053Y0122975D01*
X0105123Y0123019D01*
X0105195Y0123059D01*
X0105269Y0123096D01*
X0105344Y0123130D01*
X0105420Y0123160D01*
X0105498Y0123187D01*
X0105577Y0123210D01*
X0105658Y0123229D01*
X0105738Y0123244D01*
X0105820Y0123256D01*
X0105902Y0123264D01*
X0105984Y0123268D01*
X0106067Y0123269D01*
X0106149Y0123265D01*
X0106231Y0123258D01*
X0115286Y0123258D01*
X0117255Y0121289D01*
X0119223Y0119321D02*
X0121192Y0121289D01*
X0123160Y0123258D02*
X0121192Y0125226D01*
X0119223Y0123258D02*
X0117255Y0125226D01*
X0115286Y0127195D02*
X0113318Y0129163D01*
X0111349Y0127195D02*
X0107117Y0127195D01*
X0106920Y0126998D01*
X0108987Y0124833D02*
X0103081Y0124833D01*
X0108987Y0124833D02*
X0109381Y0125226D01*
X0111349Y0127195D02*
X0113318Y0125226D01*
X0113318Y0121289D02*
X0115286Y0119321D01*
X0115286Y0115384D01*
X0119223Y0115384D01*
X0121192Y0117352D01*
X0121192Y0113415D02*
X0123160Y0111447D01*
X0121192Y0109478D02*
X0119223Y0111447D01*
X0117255Y0109478D02*
X0119223Y0107510D01*
X0119223Y0103573D01*
X0117255Y0101604D02*
X0115286Y0103573D01*
X0115286Y0111447D01*
X0113318Y0113415D01*
X0115286Y0115384D02*
X0111349Y0115384D01*
X0111349Y0107510D01*
X0113318Y0105541D01*
X0111349Y0107510D02*
X0088515Y0107510D01*
X0087727Y0106722D01*
X0084578Y0109872D01*
X0079459Y0109872D01*
X0064105Y0109872D01*
X0063515Y0110463D01*
X0064105Y0114596D02*
X0060759Y0114596D01*
X0059381Y0115974D01*
X0059381Y0120896D01*
X0057806Y0122470D01*
X0056231Y0120896D02*
X0056231Y0124045D01*
X0052688Y0127589D01*
X0052688Y0129557D01*
X0050326Y0131919D01*
X0050326Y0136644D01*
X0055050Y0141368D01*
X0057806Y0141368D01*
X0058200Y0144124D02*
X0060956Y0141368D01*
X0060759Y0138415D02*
X0058200Y0138415D01*
X0060759Y0138415D02*
X0060956Y0138219D01*
X0064105Y0141368D02*
X0066074Y0141368D01*
X0073554Y0148848D01*
X0073554Y0153573D01*
X0074341Y0154360D01*
X0075129Y0151604D02*
X0077885Y0154360D01*
X0074144Y0157313D02*
X0074144Y0159085D01*
X0074144Y0157313D02*
X0071192Y0154360D01*
X0075129Y0151604D02*
X0075129Y0149242D01*
X0076704Y0147667D01*
X0078278Y0146093D02*
X0079853Y0144518D01*
X0081428Y0145699D02*
X0081428Y0142943D01*
X0078278Y0142943D01*
X0078278Y0139793D01*
X0076704Y0138219D01*
X0075522Y0136644D02*
X0085759Y0136644D01*
X0087727Y0138612D01*
X0100326Y0138612D01*
X0101900Y0140187D01*
X0103869Y0140187D01*
X0107019Y0137037D01*
X0109381Y0137037D01*
X0107019Y0139006D02*
X0102688Y0143337D01*
X0098357Y0143337D01*
X0097963Y0142943D01*
X0096782Y0142943D01*
X0095995Y0142156D01*
X0092845Y0143730D02*
X0089302Y0140187D01*
X0087333Y0140187D01*
X0085365Y0138219D01*
X0083003Y0138219D01*
X0081428Y0139793D02*
X0084971Y0139793D01*
X0088908Y0143730D01*
X0089696Y0143730D01*
X0087333Y0144124D02*
X0087333Y0144518D01*
X0089696Y0146880D01*
X0087727Y0149242D02*
X0098751Y0149242D01*
X0100326Y0147667D01*
X0101113Y0147667D01*
X0101507Y0147274D01*
X0108200Y0147274D01*
X0108593Y0146880D01*
X0111349Y0146880D01*
X0113318Y0144911D01*
X0115286Y0142943D02*
X0117255Y0140974D01*
X0115286Y0139006D02*
X0107019Y0139006D01*
X0107019Y0140974D02*
X0102688Y0145305D01*
X0097176Y0145305D01*
X0101113Y0150030D02*
X0102294Y0148848D01*
X0109381Y0148848D01*
X0111349Y0150817D02*
X0113318Y0148848D01*
X0115286Y0146880D02*
X0117255Y0144911D01*
X0119223Y0142943D02*
X0121192Y0140974D01*
X0123160Y0139006D02*
X0123160Y0135069D01*
X0121192Y0133100D01*
X0125129Y0129163D02*
X0127097Y0131132D01*
X0129066Y0133100D02*
X0127097Y0135069D01*
X0125129Y0137037D02*
X0127097Y0139006D01*
X0131034Y0139006D01*
X0133003Y0140974D01*
X0134971Y0139006D02*
X0136940Y0140974D01*
X0134971Y0142943D02*
X0133003Y0144911D01*
X0131034Y0142943D02*
X0131034Y0146880D01*
X0133003Y0148848D01*
X0134971Y0146880D02*
X0134971Y0159675D01*
X0133987Y0160659D01*
X0132019Y0157707D02*
X0133003Y0156722D01*
X0133003Y0152785D01*
X0131034Y0150817D02*
X0129066Y0148848D01*
X0127097Y0146880D02*
X0127097Y0157215D01*
X0124637Y0159675D01*
X0121192Y0159675D02*
X0121192Y0161152D01*
X0121192Y0159675D02*
X0125129Y0155738D01*
X0125129Y0152785D01*
X0123160Y0150817D02*
X0123160Y0154754D01*
X0119223Y0158691D01*
X0116270Y0158691D01*
X0119223Y0154754D02*
X0121192Y0152785D01*
X0123160Y0150817D02*
X0125129Y0148848D01*
X0127097Y0146880D02*
X0129066Y0144911D01*
X0127097Y0142943D02*
X0129066Y0140974D01*
X0125129Y0140974D02*
X0123160Y0142943D01*
X0121192Y0144911D02*
X0119223Y0142943D01*
X0119223Y0146880D02*
X0121192Y0148848D01*
X0123160Y0146880D02*
X0125129Y0144911D01*
X0134971Y0146880D02*
X0136940Y0144911D01*
X0138908Y0146880D02*
X0140877Y0148848D01*
X0142845Y0146880D02*
X0142845Y0157116D01*
X0143830Y0158100D01*
X0143239Y0160659D02*
X0146782Y0160659D01*
X0151113Y0164990D01*
X0151113Y0174833D01*
X0154656Y0178376D01*
X0165680Y0178376D01*
X0166861Y0177195D01*
X0174912Y0177195D01*
X0178770Y0181053D01*
X0181743Y0181053D01*
X0184971Y0184281D01*
X0186940Y0185069D02*
X0185759Y0186250D01*
X0179459Y0186250D01*
X0178278Y0187431D01*
X0161546Y0187431D01*
X0156822Y0182707D01*
X0163515Y0182707D02*
X0168259Y0182707D01*
X0169912Y0181053D01*
X0174026Y0185167D01*
X0176999Y0185167D01*
X0181310Y0188514D02*
X0178770Y0191053D01*
X0177412Y0191053D01*
X0171585Y0196880D01*
X0164302Y0196880D01*
X0157609Y0196880D02*
X0152097Y0196880D01*
X0152097Y0204872D01*
X0154066Y0206841D01*
X0145404Y0196880D02*
X0143633Y0196880D01*
X0141664Y0198848D01*
X0123751Y0191565D02*
X0123751Y0189793D01*
X0123751Y0191565D02*
X0122373Y0192943D01*
X0121585Y0192156D01*
X0118239Y0192156D01*
X0114893Y0195305D02*
X0114893Y0187234D01*
X0118239Y0183888D01*
X0120601Y0181526D01*
X0123751Y0181526D01*
X0130444Y0174833D01*
X0130444Y0173258D01*
X0136349Y0175620D02*
X0130444Y0181526D01*
X0136349Y0175620D02*
X0137924Y0175620D01*
X0137924Y0168337D02*
X0137924Y0167352D01*
X0118239Y0167352D01*
X0111546Y0167352D02*
X0111546Y0168927D01*
X0118239Y0175620D01*
X0116270Y0179163D02*
X0111546Y0183888D01*
X0108200Y0180541D01*
X0108200Y0173258D01*
X0102294Y0167352D01*
X0099932Y0167352D01*
X0104656Y0166565D02*
X0104656Y0163809D01*
X0102688Y0161841D01*
X0095011Y0161841D01*
X0092255Y0159085D01*
X0085365Y0151998D02*
X0084184Y0150817D01*
X0083003Y0150817D01*
X0081428Y0149242D02*
X0085759Y0149242D01*
X0088121Y0151604D01*
X0088515Y0151604D01*
X0087727Y0149242D02*
X0086152Y0147667D01*
X0083396Y0147667D01*
X0081428Y0145699D01*
X0083003Y0144518D02*
X0084578Y0144518D01*
X0084971Y0144911D01*
X0087333Y0144124D02*
X0084578Y0141368D01*
X0079853Y0141368D01*
X0081428Y0139793D02*
X0079853Y0138219D01*
X0076704Y0141368D02*
X0075522Y0141368D01*
X0074735Y0140581D01*
X0073160Y0139006D02*
X0071192Y0139006D01*
X0070011Y0137825D01*
X0066467Y0137825D01*
X0065286Y0136644D01*
X0064105Y0135069D02*
X0067058Y0135069D01*
X0067648Y0135659D01*
X0064105Y0131919D02*
X0076704Y0131919D01*
X0078278Y0130344D02*
X0072767Y0130344D01*
X0070798Y0128376D01*
X0067845Y0129754D02*
X0065089Y0129754D01*
X0064105Y0128770D01*
X0062530Y0127195D02*
X0059381Y0127195D01*
X0057806Y0125620D01*
X0056231Y0124045D01*
X0056231Y0120896D02*
X0057806Y0119321D01*
X0060956Y0119321D02*
X0060956Y0117549D01*
X0061743Y0116762D01*
X0064105Y0119321D02*
X0070207Y0113219D01*
X0073751Y0113219D01*
X0075522Y0111447D01*
X0078278Y0111447D01*
X0079853Y0113022D01*
X0079853Y0114596D01*
X0076704Y0117746D01*
X0076704Y0119321D01*
X0079853Y0122470D01*
X0078278Y0124045D01*
X0078278Y0127195D01*
X0079853Y0128770D01*
X0078278Y0130344D02*
X0079853Y0131919D01*
X0079853Y0135069D02*
X0086152Y0135069D01*
X0088121Y0137037D01*
X0101900Y0137037D01*
X0102885Y0138022D01*
X0107019Y0140974D02*
X0109381Y0140974D01*
X0111349Y0142943D02*
X0113318Y0140974D01*
X0115286Y0139006D02*
X0117255Y0137037D01*
X0109381Y0133100D02*
X0089302Y0133100D01*
X0091664Y0131723D02*
X0091741Y0131721D01*
X0091818Y0131715D01*
X0091895Y0131706D01*
X0091971Y0131693D01*
X0092047Y0131676D01*
X0092121Y0131655D01*
X0092195Y0131631D01*
X0092267Y0131603D01*
X0092337Y0131572D01*
X0092406Y0131537D01*
X0092474Y0131499D01*
X0092539Y0131458D01*
X0092602Y0131413D01*
X0092663Y0131365D01*
X0092722Y0131315D01*
X0092778Y0131262D01*
X0092831Y0131206D01*
X0092881Y0131147D01*
X0092929Y0131086D01*
X0092974Y0131023D01*
X0093015Y0130958D01*
X0093053Y0130890D01*
X0093088Y0130821D01*
X0093119Y0130751D01*
X0093147Y0130679D01*
X0093171Y0130605D01*
X0093192Y0130531D01*
X0093209Y0130455D01*
X0093222Y0130379D01*
X0093231Y0130302D01*
X0093237Y0130225D01*
X0093239Y0130148D01*
X0096389Y0126211D02*
X0096387Y0126134D01*
X0096381Y0126057D01*
X0096372Y0125980D01*
X0096359Y0125904D01*
X0096342Y0125828D01*
X0096321Y0125754D01*
X0096297Y0125680D01*
X0096269Y0125608D01*
X0096238Y0125538D01*
X0096203Y0125469D01*
X0096165Y0125401D01*
X0096124Y0125336D01*
X0096079Y0125273D01*
X0096031Y0125212D01*
X0095981Y0125153D01*
X0095928Y0125097D01*
X0095872Y0125044D01*
X0095813Y0124994D01*
X0095752Y0124946D01*
X0095689Y0124901D01*
X0095624Y0124860D01*
X0095556Y0124822D01*
X0095487Y0124787D01*
X0095417Y0124756D01*
X0095345Y0124728D01*
X0095271Y0124704D01*
X0095197Y0124683D01*
X0095121Y0124666D01*
X0095045Y0124653D01*
X0094968Y0124644D01*
X0094891Y0124638D01*
X0094814Y0124636D01*
X0101900Y0131722D02*
X0101996Y0131728D01*
X0102091Y0131730D01*
X0102187Y0131728D01*
X0102282Y0131723D01*
X0102377Y0131713D01*
X0102472Y0131700D01*
X0102566Y0131683D01*
X0102659Y0131662D01*
X0102751Y0131638D01*
X0102843Y0131610D01*
X0102933Y0131578D01*
X0103021Y0131542D01*
X0103109Y0131503D01*
X0103194Y0131461D01*
X0103278Y0131415D01*
X0103360Y0131366D01*
X0103440Y0131313D01*
X0103517Y0131257D01*
X0103593Y0131199D01*
X0103665Y0131137D01*
X0103736Y0131072D01*
X0103803Y0131005D01*
X0103868Y0130935D01*
X0102294Y0129163D02*
X0109381Y0129163D01*
X0109381Y0121289D02*
X0107019Y0121289D01*
X0106625Y0120896D01*
X0108200Y0119321D02*
X0107412Y0118533D01*
X0105050Y0118533D01*
X0105837Y0116171D02*
X0108200Y0116171D01*
X0109381Y0117352D01*
X0108200Y0119321D02*
X0111349Y0119321D01*
X0113318Y0117352D01*
X0105050Y0118533D02*
X0104936Y0118525D01*
X0104822Y0118512D01*
X0104709Y0118496D01*
X0104596Y0118475D01*
X0104484Y0118451D01*
X0104373Y0118423D01*
X0104263Y0118391D01*
X0104155Y0118356D01*
X0104047Y0118317D01*
X0103941Y0118274D01*
X0103836Y0118228D01*
X0103733Y0118178D01*
X0103632Y0118124D01*
X0103533Y0118067D01*
X0103435Y0118007D01*
X0103340Y0117944D01*
X0103247Y0117877D01*
X0103156Y0117807D01*
X0103068Y0117734D01*
X0102983Y0117658D01*
X0102899Y0117580D01*
X0102819Y0117498D01*
X0102742Y0117414D01*
X0102667Y0117327D01*
X0102596Y0117238D01*
X0102527Y0117146D01*
X0102462Y0117052D01*
X0102400Y0116956D01*
X0102341Y0116858D01*
X0102286Y0116757D01*
X0102234Y0116655D01*
X0102185Y0116552D01*
X0102141Y0116446D01*
X0102099Y0116340D01*
X0102062Y0116231D01*
X0102028Y0116122D01*
X0101998Y0116012D01*
X0101972Y0115900D01*
X0101949Y0115788D01*
X0101931Y0115675D01*
X0101916Y0115562D01*
X0101905Y0115448D01*
X0101898Y0115333D01*
X0101895Y0115219D01*
X0101896Y0115105D01*
X0101901Y0114990D01*
X0101900Y0114990D02*
X0101898Y0114936D01*
X0101893Y0114883D01*
X0101884Y0114830D01*
X0101871Y0114778D01*
X0101855Y0114726D01*
X0101835Y0114676D01*
X0101812Y0114628D01*
X0101785Y0114581D01*
X0101756Y0114536D01*
X0101723Y0114493D01*
X0101688Y0114453D01*
X0101650Y0114415D01*
X0101610Y0114380D01*
X0101567Y0114347D01*
X0101522Y0114318D01*
X0101475Y0114291D01*
X0101427Y0114268D01*
X0101377Y0114248D01*
X0101325Y0114232D01*
X0101273Y0114219D01*
X0101220Y0114210D01*
X0101167Y0114205D01*
X0101113Y0114203D01*
X0100326Y0114203D01*
X0100272Y0114205D01*
X0100219Y0114210D01*
X0100166Y0114219D01*
X0100114Y0114232D01*
X0100062Y0114248D01*
X0100012Y0114268D01*
X0099964Y0114291D01*
X0099917Y0114318D01*
X0099872Y0114347D01*
X0099829Y0114380D01*
X0099789Y0114415D01*
X0099751Y0114453D01*
X0099716Y0114493D01*
X0099683Y0114536D01*
X0099654Y0114581D01*
X0099627Y0114628D01*
X0099604Y0114676D01*
X0099584Y0114726D01*
X0099568Y0114778D01*
X0099555Y0114830D01*
X0099546Y0114883D01*
X0099541Y0114936D01*
X0099539Y0114990D01*
X0099538Y0114990D02*
X0099538Y0116959D01*
X0099536Y0117013D01*
X0099531Y0117066D01*
X0099522Y0117119D01*
X0099509Y0117171D01*
X0099493Y0117223D01*
X0099473Y0117273D01*
X0099450Y0117321D01*
X0099423Y0117368D01*
X0099394Y0117413D01*
X0099361Y0117456D01*
X0099326Y0117496D01*
X0099288Y0117534D01*
X0099248Y0117569D01*
X0099205Y0117602D01*
X0099160Y0117631D01*
X0099113Y0117658D01*
X0099065Y0117681D01*
X0099015Y0117701D01*
X0098963Y0117717D01*
X0098911Y0117730D01*
X0098858Y0117739D01*
X0098805Y0117744D01*
X0098751Y0117746D01*
X0097963Y0117746D01*
X0097909Y0117744D01*
X0097856Y0117739D01*
X0097803Y0117730D01*
X0097751Y0117717D01*
X0097699Y0117701D01*
X0097649Y0117681D01*
X0097601Y0117658D01*
X0097554Y0117631D01*
X0097509Y0117602D01*
X0097466Y0117569D01*
X0097426Y0117534D01*
X0097388Y0117496D01*
X0097353Y0117456D01*
X0097320Y0117413D01*
X0097291Y0117368D01*
X0097264Y0117321D01*
X0097241Y0117273D01*
X0097221Y0117223D01*
X0097205Y0117171D01*
X0097192Y0117119D01*
X0097183Y0117066D01*
X0097178Y0117013D01*
X0097176Y0116959D01*
X0097176Y0114990D01*
X0097174Y0114936D01*
X0097169Y0114883D01*
X0097160Y0114830D01*
X0097147Y0114778D01*
X0097131Y0114726D01*
X0097111Y0114676D01*
X0097088Y0114628D01*
X0097061Y0114581D01*
X0097032Y0114536D01*
X0096999Y0114493D01*
X0096964Y0114453D01*
X0096926Y0114415D01*
X0096886Y0114380D01*
X0096843Y0114347D01*
X0096798Y0114318D01*
X0096751Y0114291D01*
X0096703Y0114268D01*
X0096653Y0114248D01*
X0096601Y0114232D01*
X0096549Y0114219D01*
X0096496Y0114210D01*
X0096443Y0114205D01*
X0096389Y0114203D01*
X0095601Y0114203D01*
X0095547Y0114205D01*
X0095494Y0114210D01*
X0095441Y0114219D01*
X0095389Y0114232D01*
X0095337Y0114248D01*
X0095287Y0114268D01*
X0095239Y0114291D01*
X0095192Y0114318D01*
X0095147Y0114347D01*
X0095104Y0114380D01*
X0095064Y0114415D01*
X0095026Y0114453D01*
X0094991Y0114493D01*
X0094958Y0114536D01*
X0094929Y0114581D01*
X0094902Y0114628D01*
X0094879Y0114676D01*
X0094859Y0114726D01*
X0094843Y0114778D01*
X0094830Y0114830D01*
X0094821Y0114883D01*
X0094816Y0114936D01*
X0094814Y0114990D01*
X0094814Y0116959D01*
X0094813Y0116959D02*
X0094811Y0117013D01*
X0094806Y0117066D01*
X0094797Y0117119D01*
X0094784Y0117171D01*
X0094768Y0117223D01*
X0094748Y0117273D01*
X0094725Y0117321D01*
X0094698Y0117368D01*
X0094669Y0117413D01*
X0094636Y0117456D01*
X0094601Y0117496D01*
X0094563Y0117534D01*
X0094523Y0117569D01*
X0094480Y0117602D01*
X0094435Y0117631D01*
X0094388Y0117658D01*
X0094340Y0117681D01*
X0094290Y0117701D01*
X0094238Y0117717D01*
X0094186Y0117730D01*
X0094133Y0117739D01*
X0094080Y0117744D01*
X0094026Y0117746D01*
X0093239Y0117746D01*
X0093185Y0117744D01*
X0093132Y0117739D01*
X0093079Y0117730D01*
X0093027Y0117717D01*
X0092975Y0117701D01*
X0092925Y0117681D01*
X0092877Y0117658D01*
X0092830Y0117631D01*
X0092785Y0117602D01*
X0092742Y0117569D01*
X0092702Y0117534D01*
X0092664Y0117496D01*
X0092629Y0117456D01*
X0092596Y0117413D01*
X0092567Y0117368D01*
X0092540Y0117321D01*
X0092517Y0117273D01*
X0092497Y0117223D01*
X0092481Y0117171D01*
X0092468Y0117119D01*
X0092459Y0117066D01*
X0092454Y0117013D01*
X0092452Y0116959D01*
X0092452Y0114990D01*
X0092451Y0114990D02*
X0092449Y0114936D01*
X0092444Y0114883D01*
X0092435Y0114830D01*
X0092422Y0114778D01*
X0092406Y0114726D01*
X0092386Y0114676D01*
X0092363Y0114628D01*
X0092336Y0114581D01*
X0092307Y0114536D01*
X0092274Y0114493D01*
X0092239Y0114453D01*
X0092201Y0114415D01*
X0092161Y0114380D01*
X0092118Y0114347D01*
X0092073Y0114318D01*
X0092026Y0114291D01*
X0091978Y0114268D01*
X0091928Y0114248D01*
X0091876Y0114232D01*
X0091824Y0114219D01*
X0091771Y0114210D01*
X0091718Y0114205D01*
X0091664Y0114203D01*
X0090877Y0114203D01*
X0090823Y0114205D01*
X0090770Y0114210D01*
X0090717Y0114219D01*
X0090665Y0114232D01*
X0090613Y0114248D01*
X0090563Y0114268D01*
X0090515Y0114291D01*
X0090468Y0114318D01*
X0090423Y0114347D01*
X0090380Y0114380D01*
X0090340Y0114415D01*
X0090302Y0114453D01*
X0090267Y0114493D01*
X0090234Y0114536D01*
X0090205Y0114581D01*
X0090178Y0114628D01*
X0090155Y0114676D01*
X0090135Y0114726D01*
X0090119Y0114778D01*
X0090106Y0114830D01*
X0090097Y0114883D01*
X0090092Y0114936D01*
X0090090Y0114990D01*
X0090089Y0114990D02*
X0090089Y0116959D01*
X0090087Y0117013D01*
X0090082Y0117066D01*
X0090073Y0117119D01*
X0090060Y0117171D01*
X0090044Y0117223D01*
X0090024Y0117273D01*
X0090001Y0117321D01*
X0089974Y0117368D01*
X0089945Y0117413D01*
X0089912Y0117456D01*
X0089877Y0117496D01*
X0089839Y0117534D01*
X0089799Y0117569D01*
X0089756Y0117602D01*
X0089711Y0117631D01*
X0089664Y0117658D01*
X0089616Y0117681D01*
X0089566Y0117701D01*
X0089514Y0117717D01*
X0089462Y0117730D01*
X0089409Y0117739D01*
X0089356Y0117744D01*
X0089302Y0117746D01*
X0088515Y0117746D01*
X0088461Y0117744D01*
X0088408Y0117739D01*
X0088355Y0117730D01*
X0088303Y0117717D01*
X0088251Y0117701D01*
X0088201Y0117681D01*
X0088153Y0117658D01*
X0088106Y0117631D01*
X0088061Y0117602D01*
X0088018Y0117569D01*
X0087978Y0117534D01*
X0087940Y0117496D01*
X0087905Y0117456D01*
X0087872Y0117413D01*
X0087843Y0117368D01*
X0087816Y0117321D01*
X0087793Y0117273D01*
X0087773Y0117223D01*
X0087757Y0117171D01*
X0087744Y0117119D01*
X0087735Y0117066D01*
X0087730Y0117013D01*
X0087728Y0116959D01*
X0087727Y0116959D02*
X0087727Y0114990D01*
X0087725Y0114936D01*
X0087720Y0114883D01*
X0087711Y0114830D01*
X0087698Y0114778D01*
X0087682Y0114726D01*
X0087662Y0114676D01*
X0087639Y0114628D01*
X0087612Y0114581D01*
X0087583Y0114536D01*
X0087550Y0114493D01*
X0087515Y0114453D01*
X0087477Y0114415D01*
X0087437Y0114380D01*
X0087394Y0114347D01*
X0087349Y0114318D01*
X0087302Y0114291D01*
X0087254Y0114268D01*
X0087204Y0114248D01*
X0087152Y0114232D01*
X0087100Y0114219D01*
X0087047Y0114210D01*
X0086994Y0114205D01*
X0086940Y0114203D01*
X0086152Y0114203D01*
X0086098Y0114205D01*
X0086045Y0114210D01*
X0085992Y0114219D01*
X0085940Y0114232D01*
X0085888Y0114248D01*
X0085838Y0114268D01*
X0085790Y0114291D01*
X0085743Y0114318D01*
X0085698Y0114347D01*
X0085655Y0114380D01*
X0085615Y0114415D01*
X0085577Y0114453D01*
X0085542Y0114493D01*
X0085509Y0114536D01*
X0085480Y0114581D01*
X0085453Y0114628D01*
X0085430Y0114676D01*
X0085410Y0114726D01*
X0085394Y0114778D01*
X0085381Y0114830D01*
X0085372Y0114883D01*
X0085367Y0114936D01*
X0085365Y0114990D01*
X0085365Y0120108D01*
X0083003Y0122470D01*
X0083790Y0124045D02*
X0086940Y0120896D01*
X0086940Y0120502D01*
X0083003Y0119321D02*
X0083003Y0113415D01*
X0079459Y0109872D01*
X0080641Y0105935D02*
X0080641Y0104163D01*
X0082412Y0102392D01*
X0076900Y0102392D01*
X0070207Y0102392D02*
X0070011Y0102589D01*
X0070011Y0106722D01*
X0077491Y0113809D02*
X0074341Y0116959D01*
X0074341Y0120108D01*
X0076704Y0122470D01*
X0076704Y0125620D02*
X0064105Y0125620D01*
X0062530Y0127195D01*
X0060956Y0128770D02*
X0059381Y0130344D01*
X0059381Y0133494D01*
X0054263Y0133494D01*
X0052688Y0135069D01*
X0055050Y0137825D02*
X0055050Y0138219D01*
X0055050Y0137825D02*
X0057806Y0135069D01*
X0057806Y0131919D02*
X0055050Y0131919D01*
X0052688Y0129557D01*
X0055050Y0128770D02*
X0057806Y0128770D01*
X0060956Y0128770D02*
X0064105Y0131919D01*
X0060956Y0125620D02*
X0062530Y0124045D01*
X0070404Y0124045D01*
X0072767Y0121683D01*
X0067255Y0121683D02*
X0064696Y0121683D01*
X0064105Y0122274D01*
X0064105Y0122470D01*
X0060956Y0122470D02*
X0064105Y0119321D01*
X0073948Y0127982D02*
X0073934Y0128029D01*
X0073924Y0128077D01*
X0073918Y0128125D01*
X0073916Y0128174D01*
X0073918Y0128223D01*
X0073923Y0128272D01*
X0073932Y0128320D01*
X0073945Y0128367D01*
X0073962Y0128413D01*
X0073982Y0128457D01*
X0074005Y0128500D01*
X0074032Y0128541D01*
X0074062Y0128579D01*
X0074095Y0128615D01*
X0074130Y0128649D01*
X0074169Y0128679D01*
X0074209Y0128707D01*
X0074251Y0128731D01*
X0074296Y0128752D01*
X0074341Y0128769D01*
X0074341Y0128770D02*
X0076704Y0128770D01*
X0079853Y0125620D02*
X0081428Y0124045D01*
X0083790Y0124045D01*
X0076704Y0135069D02*
X0073948Y0135069D01*
X0072176Y0136841D01*
X0073160Y0139006D02*
X0075522Y0136644D01*
X0075916Y0143730D02*
X0073554Y0143730D01*
X0075916Y0143730D02*
X0076704Y0144518D01*
X0081428Y0149242D02*
X0079853Y0150817D01*
X0070011Y0149636D02*
X0067648Y0147274D01*
X0064499Y0147274D01*
X0064105Y0147667D01*
X0062530Y0146093D02*
X0062530Y0149242D01*
X0066074Y0149242D01*
X0066467Y0149636D01*
X0062530Y0146093D02*
X0060956Y0144518D01*
X0064105Y0144518D02*
X0066074Y0144518D01*
X0060956Y0147667D02*
X0058200Y0150423D01*
X0060956Y0150817D02*
X0060956Y0151604D01*
X0064105Y0154754D01*
X0061940Y0159085D02*
X0067452Y0159085D01*
X0066664Y0167352D02*
X0072570Y0167352D01*
X0067452Y0167746D02*
X0066664Y0167352D01*
X0068239Y0171289D02*
X0059971Y0171289D01*
X0052294Y0166171D02*
X0051507Y0165384D01*
X0051507Y0162234D01*
X0055050Y0150423D02*
X0057806Y0147667D01*
X0043436Y0129656D02*
X0026511Y0112730D01*
X0025522Y0112730D01*
X0015286Y0108691D02*
X0013121Y0106526D01*
X0010168Y0106526D01*
X0010168Y0113219D02*
X0014302Y0117352D01*
X0014893Y0117352D01*
X0030247Y0097077D02*
X0033987Y0097077D01*
X0034578Y0097667D01*
X0038022Y0097766D02*
X0038022Y0087825D01*
X0048652Y0077195D01*
X0048652Y0072569D01*
X0055739Y0078474D02*
X0059971Y0082707D01*
X0059971Y0093731D01*
X0058002Y0093731D02*
X0058002Y0084183D01*
X0055739Y0081919D01*
X0065877Y0088513D02*
X0066074Y0088317D01*
X0065877Y0088513D02*
X0065877Y0093731D01*
X0044617Y0104360D02*
X0038022Y0097766D01*
X0042254Y0093731D02*
X0042254Y0088022D01*
X0042452Y0087825D01*
X0038515Y0081919D02*
X0037530Y0080935D01*
X0031428Y0080935D01*
X0023160Y0071585D02*
X0023652Y0071093D01*
X0031428Y0071093D01*
X0023160Y0064892D02*
X0020109Y0064892D01*
X0018141Y0066860D01*
X0016172Y0066860D01*
X0016664Y0066368D01*
X0016664Y0061053D01*
X0012924Y0061053D02*
X0012924Y0071093D01*
X0031428Y0055344D02*
X0032215Y0054556D01*
X0032215Y0051801D01*
X0029361Y0046486D02*
X0025522Y0050325D01*
X0025522Y0051801D01*
X0024144Y0050423D01*
X0020798Y0050423D01*
X0029361Y0046486D02*
X0040286Y0046486D01*
X0046191Y0046486D02*
X0046191Y0039301D01*
X0046093Y0039203D01*
X0049833Y0041565D02*
X0049833Y0036250D01*
X0046093Y0032510D01*
X0037727Y0032510D01*
X0033298Y0032510D01*
X0032019Y0031230D01*
X0030739Y0032510D01*
X0030739Y0035463D01*
X0024046Y0035463D02*
X0024046Y0039596D01*
X0024243Y0039793D01*
X0024046Y0039990D01*
X0024046Y0043435D01*
X0018436Y0043435D01*
X0008987Y0046978D02*
X0008987Y0049833D01*
X0009184Y0050030D01*
X0008987Y0046978D02*
X0008003Y0045994D01*
X0008003Y0039203D01*
X0011743Y0035463D01*
X0048160Y0043238D02*
X0049833Y0041565D01*
X0048160Y0043238D02*
X0048160Y0046486D01*
X0056723Y0052392D02*
X0058002Y0051113D01*
X0058002Y0046486D01*
X0059971Y0046486D01*
X0061939Y0046486D02*
X0061939Y0050227D01*
X0059774Y0052392D01*
X0063121Y0052392D02*
X0064105Y0051407D01*
X0067058Y0051407D01*
X0067845Y0050620D01*
X0067845Y0046486D01*
X0069814Y0046486D02*
X0075325Y0046486D01*
X0075818Y0046978D01*
X0078672Y0055344D02*
X0083298Y0055344D01*
X0085267Y0057313D01*
X0082019Y0057313D02*
X0087235Y0062530D01*
X0087235Y0065187D01*
X0087235Y0065285D01*
X0090483Y0068533D01*
X0090483Y0077195D01*
X0089696Y0077982D01*
X0087333Y0075226D02*
X0087235Y0075128D01*
X0087235Y0071880D01*
X0078672Y0071093D02*
X0072963Y0071093D01*
X0078672Y0067156D02*
X0065581Y0067156D01*
X0064597Y0066171D01*
X0067058Y0063711D02*
X0072471Y0063711D01*
X0072963Y0063219D01*
X0078672Y0063219D01*
X0078672Y0061250D02*
X0078672Y0061250D01*
X0071487Y0061250D01*
X0074932Y0059281D02*
X0072963Y0057313D01*
X0074932Y0059281D02*
X0078672Y0059281D01*
X0078672Y0057313D02*
X0082019Y0057313D01*
X0093436Y0058100D02*
X0093436Y0063022D01*
X0095601Y0065187D01*
X0098751Y0061841D02*
X0102097Y0065187D01*
X0103869Y0065187D01*
X0098751Y0061841D02*
X0098751Y0051211D01*
X0102491Y0047470D01*
X0102491Y0043533D01*
X0113318Y0038455D02*
X0113318Y0032707D01*
X0123160Y0038455D02*
X0123160Y0043730D01*
X0125522Y0046093D01*
X0125522Y0048455D01*
X0125520Y0048518D01*
X0125514Y0048582D01*
X0125505Y0048644D01*
X0125491Y0048706D01*
X0125474Y0048767D01*
X0125454Y0048827D01*
X0125429Y0048886D01*
X0125402Y0048943D01*
X0125371Y0048998D01*
X0125336Y0049051D01*
X0125299Y0049103D01*
X0125258Y0049151D01*
X0125214Y0049197D01*
X0125168Y0049241D01*
X0125120Y0049282D01*
X0125068Y0049319D01*
X0125015Y0049354D01*
X0124960Y0049385D01*
X0124903Y0049412D01*
X0124844Y0049437D01*
X0124784Y0049457D01*
X0124723Y0049474D01*
X0124661Y0049488D01*
X0124599Y0049497D01*
X0124535Y0049503D01*
X0124472Y0049505D01*
X0124413Y0049505D01*
X0124350Y0049507D01*
X0124286Y0049513D01*
X0124224Y0049522D01*
X0124162Y0049536D01*
X0124101Y0049553D01*
X0124041Y0049573D01*
X0123982Y0049598D01*
X0123925Y0049625D01*
X0123870Y0049656D01*
X0123817Y0049691D01*
X0123765Y0049728D01*
X0123717Y0049769D01*
X0123671Y0049813D01*
X0123627Y0049859D01*
X0123586Y0049907D01*
X0123549Y0049959D01*
X0123514Y0050012D01*
X0123483Y0050067D01*
X0123456Y0050124D01*
X0123431Y0050183D01*
X0123411Y0050243D01*
X0123394Y0050304D01*
X0123380Y0050366D01*
X0123371Y0050428D01*
X0123365Y0050492D01*
X0123363Y0050555D01*
X0123363Y0053268D01*
X0123365Y0053331D01*
X0123371Y0053395D01*
X0123380Y0053457D01*
X0123394Y0053519D01*
X0123411Y0053580D01*
X0123431Y0053640D01*
X0123456Y0053699D01*
X0123483Y0053756D01*
X0123514Y0053811D01*
X0123549Y0053864D01*
X0123586Y0053916D01*
X0123627Y0053964D01*
X0123671Y0054010D01*
X0123717Y0054054D01*
X0123765Y0054095D01*
X0123817Y0054132D01*
X0123870Y0054167D01*
X0123925Y0054198D01*
X0123982Y0054225D01*
X0124041Y0054250D01*
X0124101Y0054270D01*
X0124162Y0054287D01*
X0124224Y0054301D01*
X0124286Y0054310D01*
X0124350Y0054316D01*
X0124413Y0054318D01*
X0124472Y0054318D01*
X0124535Y0054320D01*
X0124599Y0054326D01*
X0124661Y0054335D01*
X0124723Y0054349D01*
X0124784Y0054366D01*
X0124844Y0054386D01*
X0124903Y0054411D01*
X0124960Y0054438D01*
X0125015Y0054469D01*
X0125068Y0054504D01*
X0125120Y0054541D01*
X0125168Y0054582D01*
X0125214Y0054626D01*
X0125258Y0054672D01*
X0125299Y0054720D01*
X0125336Y0054772D01*
X0125371Y0054825D01*
X0125402Y0054880D01*
X0125429Y0054937D01*
X0125454Y0054996D01*
X0125474Y0055056D01*
X0125491Y0055117D01*
X0125505Y0055179D01*
X0125514Y0055241D01*
X0125520Y0055305D01*
X0125522Y0055368D01*
X0125522Y0058081D01*
X0125520Y0058144D01*
X0125514Y0058208D01*
X0125505Y0058270D01*
X0125491Y0058332D01*
X0125474Y0058393D01*
X0125454Y0058453D01*
X0125429Y0058512D01*
X0125402Y0058569D01*
X0125371Y0058624D01*
X0125336Y0058677D01*
X0125299Y0058729D01*
X0125258Y0058777D01*
X0125214Y0058823D01*
X0125168Y0058867D01*
X0125120Y0058908D01*
X0125068Y0058945D01*
X0125015Y0058980D01*
X0124960Y0059011D01*
X0124903Y0059038D01*
X0124844Y0059063D01*
X0124784Y0059083D01*
X0124723Y0059100D01*
X0124661Y0059114D01*
X0124599Y0059123D01*
X0124535Y0059129D01*
X0124472Y0059131D01*
X0124413Y0059131D01*
X0124350Y0059133D01*
X0124286Y0059139D01*
X0124224Y0059148D01*
X0124162Y0059162D01*
X0124101Y0059179D01*
X0124041Y0059199D01*
X0123982Y0059224D01*
X0123925Y0059251D01*
X0123870Y0059282D01*
X0123817Y0059317D01*
X0123765Y0059354D01*
X0123717Y0059395D01*
X0123671Y0059439D01*
X0123627Y0059485D01*
X0123586Y0059533D01*
X0123549Y0059585D01*
X0123514Y0059638D01*
X0123483Y0059693D01*
X0123456Y0059750D01*
X0123431Y0059809D01*
X0123411Y0059869D01*
X0123394Y0059930D01*
X0123380Y0059992D01*
X0123371Y0060054D01*
X0123365Y0060118D01*
X0123363Y0060181D01*
X0123363Y0062894D01*
X0123365Y0062957D01*
X0123371Y0063021D01*
X0123380Y0063083D01*
X0123394Y0063145D01*
X0123411Y0063206D01*
X0123431Y0063266D01*
X0123456Y0063325D01*
X0123483Y0063382D01*
X0123514Y0063437D01*
X0123549Y0063490D01*
X0123586Y0063542D01*
X0123627Y0063590D01*
X0123671Y0063636D01*
X0123717Y0063680D01*
X0123765Y0063721D01*
X0123817Y0063758D01*
X0123870Y0063793D01*
X0123925Y0063824D01*
X0123982Y0063851D01*
X0124041Y0063876D01*
X0124101Y0063896D01*
X0124162Y0063913D01*
X0124224Y0063927D01*
X0124286Y0063936D01*
X0124350Y0063942D01*
X0124413Y0063944D01*
X0124472Y0063944D01*
X0124535Y0063946D01*
X0124599Y0063952D01*
X0124661Y0063961D01*
X0124723Y0063975D01*
X0124784Y0063992D01*
X0124844Y0064012D01*
X0124903Y0064037D01*
X0124960Y0064064D01*
X0125015Y0064095D01*
X0125068Y0064130D01*
X0125120Y0064167D01*
X0125168Y0064208D01*
X0125214Y0064252D01*
X0125258Y0064298D01*
X0125299Y0064346D01*
X0125336Y0064398D01*
X0125371Y0064451D01*
X0125402Y0064506D01*
X0125429Y0064563D01*
X0125454Y0064622D01*
X0125474Y0064682D01*
X0125491Y0064743D01*
X0125505Y0064805D01*
X0125514Y0064867D01*
X0125520Y0064931D01*
X0125522Y0064994D01*
X0125522Y0067707D01*
X0125520Y0067770D01*
X0125514Y0067834D01*
X0125505Y0067896D01*
X0125491Y0067958D01*
X0125474Y0068019D01*
X0125454Y0068079D01*
X0125429Y0068138D01*
X0125402Y0068195D01*
X0125371Y0068250D01*
X0125336Y0068303D01*
X0125299Y0068355D01*
X0125258Y0068403D01*
X0125214Y0068449D01*
X0125168Y0068493D01*
X0125120Y0068534D01*
X0125068Y0068571D01*
X0125015Y0068606D01*
X0124960Y0068637D01*
X0124903Y0068664D01*
X0124844Y0068689D01*
X0124784Y0068709D01*
X0124723Y0068726D01*
X0124661Y0068740D01*
X0124599Y0068749D01*
X0124535Y0068755D01*
X0124472Y0068757D01*
X0124413Y0068757D01*
X0124350Y0068759D01*
X0124286Y0068765D01*
X0124224Y0068774D01*
X0124162Y0068788D01*
X0124101Y0068805D01*
X0124041Y0068825D01*
X0123982Y0068850D01*
X0123925Y0068877D01*
X0123870Y0068908D01*
X0123817Y0068943D01*
X0123765Y0068980D01*
X0123717Y0069021D01*
X0123671Y0069065D01*
X0123627Y0069111D01*
X0123586Y0069159D01*
X0123549Y0069211D01*
X0123514Y0069264D01*
X0123483Y0069319D01*
X0123456Y0069376D01*
X0123431Y0069435D01*
X0123411Y0069495D01*
X0123394Y0069556D01*
X0123380Y0069618D01*
X0123371Y0069680D01*
X0123365Y0069744D01*
X0123363Y0069807D01*
X0123363Y0072521D01*
X0123365Y0072584D01*
X0123371Y0072648D01*
X0123380Y0072710D01*
X0123394Y0072772D01*
X0123411Y0072833D01*
X0123431Y0072893D01*
X0123456Y0072952D01*
X0123483Y0073009D01*
X0123514Y0073064D01*
X0123549Y0073117D01*
X0123586Y0073169D01*
X0123627Y0073217D01*
X0123671Y0073263D01*
X0123717Y0073307D01*
X0123765Y0073348D01*
X0123817Y0073385D01*
X0123870Y0073420D01*
X0123925Y0073451D01*
X0123982Y0073478D01*
X0124041Y0073503D01*
X0124101Y0073523D01*
X0124162Y0073540D01*
X0124224Y0073554D01*
X0124286Y0073563D01*
X0124350Y0073569D01*
X0124413Y0073571D01*
X0124472Y0073571D01*
X0124535Y0073573D01*
X0124599Y0073579D01*
X0124661Y0073588D01*
X0124723Y0073602D01*
X0124784Y0073619D01*
X0124844Y0073639D01*
X0124903Y0073664D01*
X0124960Y0073691D01*
X0125015Y0073722D01*
X0125068Y0073757D01*
X0125120Y0073794D01*
X0125168Y0073835D01*
X0125214Y0073879D01*
X0125258Y0073925D01*
X0125299Y0073973D01*
X0125336Y0074025D01*
X0125371Y0074078D01*
X0125402Y0074133D01*
X0125429Y0074190D01*
X0125454Y0074249D01*
X0125474Y0074309D01*
X0125491Y0074370D01*
X0125505Y0074432D01*
X0125514Y0074494D01*
X0125520Y0074558D01*
X0125522Y0074621D01*
X0125522Y0076014D01*
X0121192Y0080344D01*
X0121192Y0093730D01*
X0119223Y0095699D02*
X0119223Y0091270D01*
X0118239Y0090285D01*
X0118239Y0083888D01*
X0117845Y0084281D01*
X0123160Y0080738D02*
X0127097Y0076801D01*
X0127097Y0038455D01*
X0125129Y0038455D02*
X0125129Y0032707D01*
X0131034Y0032707D02*
X0131034Y0038455D01*
X0129066Y0038455D02*
X0129066Y0043730D01*
X0131428Y0046093D01*
X0131428Y0080344D01*
X0130247Y0081526D01*
X0130247Y0081525D02*
X0130195Y0081574D01*
X0130140Y0081621D01*
X0130083Y0081665D01*
X0130023Y0081705D01*
X0129962Y0081742D01*
X0129898Y0081776D01*
X0129833Y0081806D01*
X0129766Y0081833D01*
X0129698Y0081856D01*
X0129628Y0081875D01*
X0129558Y0081890D01*
X0129487Y0081902D01*
X0129416Y0081910D01*
X0129344Y0081914D01*
X0129272Y0081914D01*
X0129200Y0081910D01*
X0129129Y0081902D01*
X0129058Y0081890D01*
X0128988Y0081875D01*
X0128918Y0081856D01*
X0128850Y0081833D01*
X0128783Y0081806D01*
X0128718Y0081776D01*
X0128654Y0081742D01*
X0128593Y0081705D01*
X0128533Y0081665D01*
X0128476Y0081621D01*
X0128421Y0081574D01*
X0128369Y0081525D01*
X0128368Y0081526D02*
X0127939Y0081097D01*
X0127940Y0081096D02*
X0127900Y0081059D01*
X0127857Y0081024D01*
X0127811Y0080993D01*
X0127764Y0080964D01*
X0127715Y0080940D01*
X0127664Y0080919D01*
X0127611Y0080901D01*
X0127558Y0080888D01*
X0127504Y0080878D01*
X0127449Y0080872D01*
X0127394Y0080870D01*
X0127339Y0080872D01*
X0127284Y0080878D01*
X0127230Y0080888D01*
X0127177Y0080901D01*
X0127124Y0080919D01*
X0127073Y0080940D01*
X0127024Y0080964D01*
X0126977Y0080993D01*
X0126931Y0081024D01*
X0126888Y0081059D01*
X0126848Y0081096D01*
X0126848Y0081097D02*
X0125982Y0081962D01*
X0125983Y0081963D02*
X0125939Y0082009D01*
X0125898Y0082057D01*
X0125861Y0082109D01*
X0125826Y0082162D01*
X0125795Y0082217D01*
X0125768Y0082274D01*
X0125743Y0082333D01*
X0125723Y0082393D01*
X0125706Y0082454D01*
X0125692Y0082516D01*
X0125683Y0082578D01*
X0125677Y0082642D01*
X0125675Y0082705D01*
X0125677Y0082768D01*
X0125683Y0082832D01*
X0125692Y0082894D01*
X0125706Y0082956D01*
X0125723Y0083017D01*
X0125743Y0083077D01*
X0125768Y0083136D01*
X0125795Y0083193D01*
X0125826Y0083248D01*
X0125861Y0083301D01*
X0125898Y0083353D01*
X0125939Y0083401D01*
X0125983Y0083447D01*
X0125982Y0083447D02*
X0126411Y0083876D01*
X0126411Y0083877D02*
X0126455Y0083923D01*
X0126496Y0083971D01*
X0126533Y0084023D01*
X0126568Y0084076D01*
X0126599Y0084131D01*
X0126626Y0084188D01*
X0126651Y0084247D01*
X0126671Y0084307D01*
X0126688Y0084368D01*
X0126702Y0084430D01*
X0126711Y0084492D01*
X0126717Y0084556D01*
X0126719Y0084619D01*
X0126717Y0084682D01*
X0126711Y0084746D01*
X0126702Y0084808D01*
X0126688Y0084870D01*
X0126671Y0084931D01*
X0126651Y0084991D01*
X0126626Y0085050D01*
X0126599Y0085107D01*
X0126568Y0085162D01*
X0126533Y0085215D01*
X0126496Y0085267D01*
X0126455Y0085315D01*
X0126411Y0085361D01*
X0125129Y0086644D01*
X0125129Y0093730D01*
X0127097Y0095699D02*
X0127097Y0087037D01*
X0133003Y0081132D01*
X0133003Y0038455D01*
X0134971Y0038455D02*
X0134971Y0043730D01*
X0137333Y0046093D01*
X0137333Y0066959D01*
X0137331Y0067022D01*
X0137325Y0067086D01*
X0137316Y0067148D01*
X0137302Y0067210D01*
X0137285Y0067271D01*
X0137265Y0067331D01*
X0137240Y0067390D01*
X0137213Y0067447D01*
X0137182Y0067502D01*
X0137147Y0067555D01*
X0137110Y0067607D01*
X0137069Y0067655D01*
X0137025Y0067701D01*
X0136979Y0067745D01*
X0136931Y0067786D01*
X0136879Y0067823D01*
X0136826Y0067858D01*
X0136771Y0067889D01*
X0136714Y0067916D01*
X0136655Y0067941D01*
X0136595Y0067961D01*
X0136534Y0067978D01*
X0136472Y0067992D01*
X0136410Y0068001D01*
X0136346Y0068007D01*
X0136283Y0068009D01*
X0135677Y0068009D01*
X0135614Y0068011D01*
X0135550Y0068017D01*
X0135488Y0068026D01*
X0135426Y0068040D01*
X0135365Y0068057D01*
X0135305Y0068077D01*
X0135246Y0068102D01*
X0135189Y0068129D01*
X0135134Y0068160D01*
X0135081Y0068195D01*
X0135029Y0068232D01*
X0134981Y0068273D01*
X0134935Y0068317D01*
X0134891Y0068363D01*
X0134850Y0068411D01*
X0134813Y0068463D01*
X0134778Y0068516D01*
X0134747Y0068571D01*
X0134720Y0068628D01*
X0134695Y0068687D01*
X0134675Y0068747D01*
X0134658Y0068808D01*
X0134644Y0068870D01*
X0134635Y0068932D01*
X0134629Y0068996D01*
X0134627Y0069059D01*
X0134627Y0070143D01*
X0134629Y0070206D01*
X0134635Y0070270D01*
X0134644Y0070332D01*
X0134658Y0070394D01*
X0134675Y0070455D01*
X0134695Y0070515D01*
X0134720Y0070574D01*
X0134747Y0070631D01*
X0134778Y0070686D01*
X0134813Y0070739D01*
X0134850Y0070791D01*
X0134891Y0070839D01*
X0134935Y0070885D01*
X0134981Y0070929D01*
X0135029Y0070970D01*
X0135081Y0071007D01*
X0135134Y0071042D01*
X0135189Y0071073D01*
X0135246Y0071100D01*
X0135305Y0071125D01*
X0135365Y0071145D01*
X0135426Y0071162D01*
X0135488Y0071176D01*
X0135550Y0071185D01*
X0135614Y0071191D01*
X0135677Y0071193D01*
X0136283Y0071193D01*
X0136346Y0071195D01*
X0136410Y0071201D01*
X0136472Y0071210D01*
X0136534Y0071224D01*
X0136595Y0071241D01*
X0136655Y0071261D01*
X0136714Y0071286D01*
X0136771Y0071313D01*
X0136826Y0071344D01*
X0136879Y0071379D01*
X0136931Y0071416D01*
X0136979Y0071457D01*
X0137025Y0071501D01*
X0137069Y0071547D01*
X0137110Y0071595D01*
X0137147Y0071647D01*
X0137182Y0071700D01*
X0137213Y0071755D01*
X0137240Y0071812D01*
X0137265Y0071871D01*
X0137285Y0071931D01*
X0137302Y0071992D01*
X0137316Y0072054D01*
X0137325Y0072116D01*
X0137331Y0072180D01*
X0137333Y0072243D01*
X0137333Y0083100D01*
X0133003Y0087431D01*
X0133003Y0093730D01*
X0134971Y0095699D02*
X0134971Y0087825D01*
X0138908Y0083888D01*
X0138908Y0038455D01*
X0136940Y0038455D02*
X0136940Y0032707D01*
X0142845Y0032707D02*
X0142845Y0038455D01*
X0140877Y0038455D02*
X0140877Y0043730D01*
X0143239Y0046093D01*
X0143239Y0076014D01*
X0143237Y0076077D01*
X0143231Y0076141D01*
X0143222Y0076203D01*
X0143208Y0076265D01*
X0143191Y0076326D01*
X0143171Y0076386D01*
X0143146Y0076445D01*
X0143119Y0076502D01*
X0143088Y0076557D01*
X0143053Y0076610D01*
X0143016Y0076662D01*
X0142975Y0076710D01*
X0142931Y0076756D01*
X0142885Y0076800D01*
X0142837Y0076841D01*
X0142785Y0076878D01*
X0142732Y0076913D01*
X0142677Y0076944D01*
X0142620Y0076971D01*
X0142561Y0076996D01*
X0142501Y0077016D01*
X0142440Y0077033D01*
X0142378Y0077047D01*
X0142316Y0077056D01*
X0142252Y0077062D01*
X0142189Y0077064D01*
X0141582Y0077064D01*
X0141519Y0077066D01*
X0141455Y0077072D01*
X0141393Y0077081D01*
X0141331Y0077095D01*
X0141270Y0077112D01*
X0141210Y0077132D01*
X0141151Y0077157D01*
X0141094Y0077184D01*
X0141039Y0077215D01*
X0140986Y0077250D01*
X0140934Y0077287D01*
X0140886Y0077328D01*
X0140840Y0077372D01*
X0140796Y0077418D01*
X0140755Y0077466D01*
X0140718Y0077518D01*
X0140683Y0077571D01*
X0140652Y0077626D01*
X0140625Y0077683D01*
X0140600Y0077742D01*
X0140580Y0077802D01*
X0140563Y0077863D01*
X0140549Y0077925D01*
X0140540Y0077987D01*
X0140534Y0078051D01*
X0140532Y0078114D01*
X0140532Y0079263D01*
X0140534Y0079326D01*
X0140540Y0079390D01*
X0140549Y0079452D01*
X0140563Y0079514D01*
X0140580Y0079575D01*
X0140600Y0079635D01*
X0140625Y0079694D01*
X0140652Y0079751D01*
X0140683Y0079806D01*
X0140718Y0079859D01*
X0140755Y0079911D01*
X0140796Y0079959D01*
X0140840Y0080005D01*
X0140886Y0080049D01*
X0140934Y0080090D01*
X0140986Y0080127D01*
X0141039Y0080162D01*
X0141094Y0080193D01*
X0141151Y0080220D01*
X0141210Y0080245D01*
X0141270Y0080265D01*
X0141331Y0080282D01*
X0141393Y0080296D01*
X0141455Y0080305D01*
X0141519Y0080311D01*
X0141582Y0080313D01*
X0142189Y0080313D01*
X0142252Y0080315D01*
X0142316Y0080321D01*
X0142378Y0080330D01*
X0142440Y0080344D01*
X0142501Y0080361D01*
X0142561Y0080381D01*
X0142620Y0080406D01*
X0142677Y0080433D01*
X0142732Y0080464D01*
X0142785Y0080499D01*
X0142837Y0080536D01*
X0142885Y0080577D01*
X0142931Y0080621D01*
X0142975Y0080667D01*
X0143016Y0080715D01*
X0143053Y0080767D01*
X0143088Y0080820D01*
X0143119Y0080875D01*
X0143146Y0080932D01*
X0143171Y0080991D01*
X0143191Y0081051D01*
X0143208Y0081112D01*
X0143222Y0081174D01*
X0143231Y0081236D01*
X0143237Y0081300D01*
X0143239Y0081363D01*
X0143239Y0085069D01*
X0140877Y0087431D01*
X0140877Y0093730D01*
X0142845Y0095699D02*
X0142845Y0087825D01*
X0144814Y0085856D01*
X0144814Y0038455D01*
X0152688Y0046978D02*
X0162038Y0037628D01*
X0162038Y0021388D01*
X0170995Y0012431D01*
X0177688Y0012431D02*
X0182806Y0012431D01*
X0186152Y0009085D01*
X0222373Y0009085D01*
X0225522Y0012234D01*
X0222373Y0012234D01*
X0217648Y0016959D01*
X0217648Y0028770D01*
X0224341Y0035463D01*
X0233987Y0035463D01*
X0235759Y0030738D02*
X0228475Y0030738D01*
X0226507Y0028770D01*
X0226507Y0023455D01*
X0225522Y0022470D01*
X0235759Y0030738D02*
X0240483Y0035463D01*
X0240680Y0035463D01*
X0240680Y0037037D01*
X0233987Y0043730D01*
X0240680Y0043730D02*
X0249538Y0034872D01*
X0249538Y0033494D01*
X0251900Y0030344D02*
X0255444Y0026801D01*
X0262875Y0026801D01*
X0262924Y0026850D01*
X0260168Y0028770D02*
X0255837Y0028770D01*
X0253869Y0030738D01*
X0253869Y0066171D01*
X0229066Y0090974D01*
X0229066Y0117943D01*
X0231034Y0117943D02*
X0231034Y0092156D01*
X0253081Y0070108D01*
X0259774Y0070108D01*
X0263711Y0066171D01*
X0273160Y0066171D01*
X0277097Y0070108D01*
X0277097Y0071634D01*
X0277097Y0074045D01*
X0274735Y0076407D01*
X0271782Y0076407D01*
X0268436Y0079754D01*
X0265089Y0074833D02*
X0260168Y0079754D01*
X0256231Y0083691D01*
X0256231Y0088612D01*
X0233003Y0111841D01*
X0233003Y0117943D01*
X0234971Y0117943D02*
X0234971Y0120699D01*
X0233396Y0122274D01*
X0236841Y0122274D02*
X0236940Y0122175D01*
X0236940Y0117943D01*
X0238908Y0117943D02*
X0238908Y0120896D01*
X0240286Y0122274D01*
X0244814Y0121388D02*
X0245700Y0122274D01*
X0244814Y0121388D02*
X0244814Y0117943D01*
X0246782Y0117943D02*
X0246782Y0111545D01*
X0246585Y0111348D01*
X0242845Y0108888D02*
X0242845Y0117943D01*
X0240877Y0117943D02*
X0240877Y0107904D01*
X0255542Y0093238D01*
X0260070Y0093238D01*
X0266467Y0094419D02*
X0266467Y0096880D01*
X0266467Y0094419D02*
X0266763Y0094124D01*
X0266763Y0093238D01*
X0269420Y0087431D02*
X0268436Y0086447D01*
X0269420Y0087431D02*
X0271585Y0087431D01*
X0275719Y0087431D01*
X0276704Y0086447D01*
X0280247Y0083297D02*
X0276704Y0079754D01*
X0278869Y0079754D01*
X0284184Y0074439D01*
X0284184Y0071634D01*
X0287727Y0071634D02*
X0287727Y0074833D01*
X0284971Y0077589D01*
X0284971Y0079754D01*
X0281625Y0079754D01*
X0280641Y0080738D01*
X0280247Y0083297D02*
X0280247Y0091762D01*
X0282215Y0089793D02*
X0284971Y0087037D01*
X0284971Y0086447D01*
X0290089Y0082904D02*
X0293239Y0079754D01*
X0293239Y0076801D01*
X0291270Y0074833D01*
X0291270Y0071634D01*
X0296389Y0074531D02*
X0296389Y0086625D01*
X0296476Y0086625D01*
X0297176Y0085925D01*
X0298750Y0085925D01*
X0299863Y0087038D01*
X0299863Y0088612D01*
X0298750Y0089725D01*
X0297176Y0089725D01*
X0296476Y0089025D01*
X0296389Y0089025D01*
X0296389Y0100817D01*
X0299349Y0100817D01*
X0299383Y0100803D01*
X0301268Y0100803D01*
X0301302Y0100817D01*
X0312137Y0100817D01*
X0312137Y0036756D01*
X0310189Y0036756D01*
X0309662Y0036229D01*
X0309662Y0036072D01*
X0306147Y0036072D01*
X0306147Y0036426D01*
X0305732Y0036841D01*
X0306147Y0037255D01*
X0306147Y0039969D01*
X0305732Y0040384D01*
X0306147Y0040798D01*
X0306147Y0043513D01*
X0305732Y0043927D01*
X0306147Y0044342D01*
X0306147Y0047056D01*
X0305732Y0047470D01*
X0306147Y0047885D01*
X0306147Y0050599D01*
X0305732Y0051014D01*
X0306147Y0051428D01*
X0306147Y0054142D01*
X0305732Y0054557D01*
X0306147Y0054972D01*
X0306147Y0057686D01*
X0305732Y0058100D01*
X0306147Y0058515D01*
X0306147Y0061229D01*
X0305732Y0061644D01*
X0306147Y0062058D01*
X0306147Y0064772D01*
X0305732Y0065187D01*
X0306147Y0065602D01*
X0306147Y0068316D01*
X0305620Y0068843D01*
X0300445Y0068843D01*
X0299918Y0068316D01*
X0299918Y0065602D01*
X0300332Y0065187D01*
X0299918Y0064772D01*
X0299918Y0062058D01*
X0300204Y0061772D01*
X0298751Y0061772D01*
X0297638Y0060659D01*
X0297638Y0059085D01*
X0298751Y0057972D01*
X0300204Y0057972D01*
X0299918Y0057686D01*
X0299918Y0054972D01*
X0300332Y0054557D01*
X0299918Y0054142D01*
X0299918Y0051428D01*
X0300332Y0051014D01*
X0299918Y0050599D01*
X0299918Y0050442D01*
X0296389Y0050442D01*
X0296389Y0066152D01*
X0297279Y0066152D01*
X0297982Y0066855D01*
X0299557Y0068430D01*
X0299557Y0068519D01*
X0299714Y0068519D01*
X0300241Y0069046D01*
X0300241Y0074221D01*
X0299714Y0074748D01*
X0297000Y0074748D01*
X0296585Y0074334D01*
X0296389Y0074531D01*
X0296389Y0074575D02*
X0296827Y0074575D01*
X0296389Y0075173D02*
X0312137Y0075173D01*
X0312137Y0074575D02*
X0299888Y0074575D01*
X0300241Y0073976D02*
X0312137Y0073976D01*
X0312137Y0073378D02*
X0300241Y0073378D01*
X0300241Y0072779D02*
X0312137Y0072779D01*
X0312137Y0072181D02*
X0300241Y0072181D01*
X0300241Y0071582D02*
X0312137Y0071582D01*
X0312137Y0070984D02*
X0300241Y0070984D01*
X0300241Y0070385D02*
X0312137Y0070385D01*
X0312137Y0069787D02*
X0300241Y0069787D01*
X0300241Y0069188D02*
X0312137Y0069188D01*
X0312137Y0068590D02*
X0305873Y0068590D01*
X0306147Y0067991D02*
X0312137Y0067991D01*
X0312137Y0067393D02*
X0306147Y0067393D01*
X0306147Y0066794D02*
X0312137Y0066794D01*
X0312137Y0066196D02*
X0306147Y0066196D01*
X0306143Y0065597D02*
X0312137Y0065597D01*
X0312137Y0064999D02*
X0305920Y0064999D01*
X0306147Y0064400D02*
X0312137Y0064400D01*
X0312137Y0063802D02*
X0306147Y0063802D01*
X0306147Y0063203D02*
X0312137Y0063203D01*
X0312137Y0062605D02*
X0306147Y0062605D01*
X0306095Y0062006D02*
X0312137Y0062006D01*
X0312137Y0061408D02*
X0305968Y0061408D01*
X0306147Y0060809D02*
X0312137Y0060809D01*
X0312137Y0060211D02*
X0306147Y0060211D01*
X0306147Y0059612D02*
X0312137Y0059612D01*
X0312137Y0059014D02*
X0306147Y0059014D01*
X0306047Y0058415D02*
X0312137Y0058415D01*
X0312137Y0057817D02*
X0306016Y0057817D01*
X0306147Y0057218D02*
X0312137Y0057218D01*
X0312137Y0056620D02*
X0306147Y0056620D01*
X0306147Y0056021D02*
X0312137Y0056021D01*
X0312137Y0055423D02*
X0306147Y0055423D01*
X0305999Y0054824D02*
X0312137Y0054824D01*
X0312137Y0054226D02*
X0306064Y0054226D01*
X0306147Y0053627D02*
X0312137Y0053627D01*
X0312137Y0053029D02*
X0306147Y0053029D01*
X0306147Y0052430D02*
X0312137Y0052430D01*
X0312137Y0051832D02*
X0306147Y0051832D01*
X0305951Y0051233D02*
X0312137Y0051233D01*
X0312137Y0050634D02*
X0306112Y0050634D01*
X0306147Y0050036D02*
X0312137Y0050036D01*
X0312137Y0049437D02*
X0306147Y0049437D01*
X0306147Y0048839D02*
X0312137Y0048839D01*
X0312137Y0048240D02*
X0306147Y0048240D01*
X0305904Y0047642D02*
X0312137Y0047642D01*
X0312137Y0047043D02*
X0306147Y0047043D01*
X0306147Y0046445D02*
X0312137Y0046445D01*
X0312137Y0045846D02*
X0306147Y0045846D01*
X0306147Y0045248D02*
X0312137Y0045248D01*
X0312137Y0044649D02*
X0306147Y0044649D01*
X0305856Y0044051D02*
X0312137Y0044051D01*
X0312137Y0043452D02*
X0306147Y0043452D01*
X0306147Y0042854D02*
X0312137Y0042854D01*
X0312137Y0042255D02*
X0306147Y0042255D01*
X0306147Y0041657D02*
X0312137Y0041657D01*
X0312137Y0041058D02*
X0306147Y0041058D01*
X0305808Y0040460D02*
X0312137Y0040460D01*
X0312137Y0039861D02*
X0306147Y0039861D01*
X0306147Y0039263D02*
X0312137Y0039263D01*
X0312137Y0038664D02*
X0306147Y0038664D01*
X0306147Y0038066D02*
X0312137Y0038066D01*
X0312137Y0037467D02*
X0306147Y0037467D01*
X0305760Y0036869D02*
X0312137Y0036869D01*
X0311546Y0034872D02*
X0303032Y0034872D01*
X0303032Y0035069D01*
X0299918Y0035073D02*
X0296389Y0035073D01*
X0296389Y0034475D02*
X0299918Y0034475D01*
X0299918Y0033876D02*
X0296389Y0033876D01*
X0296389Y0033278D02*
X0299760Y0033278D01*
X0299777Y0033308D02*
X0299606Y0033012D01*
X0299518Y0032681D01*
X0299518Y0031718D01*
X0302840Y0031718D01*
X0302840Y0031333D01*
X0303224Y0031333D01*
X0303224Y0029241D01*
X0305418Y0029241D01*
X0305749Y0029330D01*
X0306045Y0029501D01*
X0306287Y0029743D01*
X0306458Y0030040D01*
X0306547Y0030370D01*
X0306547Y0031333D01*
X0303224Y0031333D01*
X0303224Y0031718D01*
X0306547Y0031718D01*
X0306547Y0032681D01*
X0306458Y0033012D01*
X0306287Y0033308D01*
X0306045Y0033550D01*
X0306007Y0033572D01*
X0306107Y0033672D01*
X0309662Y0033672D01*
X0309662Y0033515D01*
X0310189Y0032988D01*
X0312137Y0032988D01*
X0312137Y0029676D01*
X0311738Y0029676D01*
X0311738Y0028857D01*
X0311630Y0028749D01*
X0311630Y0026797D01*
X0311354Y0026797D01*
X0311354Y0029676D01*
X0310391Y0029676D01*
X0310060Y0029587D01*
X0309764Y0029416D01*
X0309522Y0029174D01*
X0309350Y0028878D01*
X0309262Y0028547D01*
X0309262Y0026796D01*
X0311354Y0026796D01*
X0311354Y0026412D01*
X0311630Y0026412D01*
X0311630Y0024460D01*
X0311738Y0024352D01*
X0311738Y0023533D01*
X0312137Y0023533D01*
X0312137Y0007116D01*
X0296389Y0007116D01*
X0296389Y0017427D01*
X0298854Y0019893D01*
X0299557Y0020595D01*
X0299557Y0023736D01*
X0299714Y0023736D01*
X0300241Y0024263D01*
X0300241Y0029373D01*
X0300316Y0029330D01*
X0300647Y0029241D01*
X0302840Y0029241D01*
X0302840Y0031333D01*
X0299518Y0031333D01*
X0299518Y0030370D01*
X0299606Y0030040D01*
X0299649Y0029965D01*
X0298859Y0029965D01*
X0297895Y0030929D01*
X0297895Y0031919D01*
X0296782Y0033032D01*
X0296389Y0033032D01*
X0296389Y0048042D01*
X0299918Y0048042D01*
X0299918Y0047885D01*
X0300332Y0047470D01*
X0299918Y0047056D01*
X0299918Y0044342D01*
X0300332Y0043927D01*
X0299918Y0043513D01*
X0299918Y0040798D01*
X0300332Y0040384D01*
X0299918Y0039969D01*
X0299918Y0037255D01*
X0300332Y0036841D01*
X0299918Y0036426D01*
X0299918Y0033712D01*
X0300058Y0033572D01*
X0300019Y0033550D01*
X0299777Y0033308D01*
X0299518Y0032679D02*
X0297135Y0032679D01*
X0297733Y0032081D02*
X0299518Y0032081D01*
X0299518Y0030884D02*
X0297940Y0030884D01*
X0297895Y0031482D02*
X0302840Y0031482D01*
X0303224Y0031482D02*
X0312137Y0031482D01*
X0312137Y0030884D02*
X0306547Y0030884D01*
X0306524Y0030285D02*
X0312137Y0030285D01*
X0312137Y0029687D02*
X0306231Y0029687D01*
X0306547Y0032081D02*
X0312137Y0032081D01*
X0312137Y0032679D02*
X0306547Y0032679D01*
X0306305Y0033278D02*
X0309899Y0033278D01*
X0309703Y0036270D02*
X0306147Y0036270D01*
X0300304Y0036869D02*
X0296389Y0036869D01*
X0296389Y0037467D02*
X0299918Y0037467D01*
X0299918Y0038066D02*
X0296389Y0038066D01*
X0296389Y0038664D02*
X0299918Y0038664D01*
X0299918Y0039263D02*
X0296389Y0039263D01*
X0296389Y0039861D02*
X0299918Y0039861D01*
X0300256Y0040460D02*
X0296389Y0040460D01*
X0296389Y0041058D02*
X0299918Y0041058D01*
X0299918Y0041657D02*
X0296389Y0041657D01*
X0296389Y0042255D02*
X0299918Y0042255D01*
X0299918Y0042854D02*
X0296389Y0042854D01*
X0296389Y0043452D02*
X0299918Y0043452D01*
X0300209Y0044051D02*
X0296389Y0044051D01*
X0296389Y0044649D02*
X0299918Y0044649D01*
X0299918Y0045248D02*
X0296389Y0045248D01*
X0296389Y0045846D02*
X0299918Y0045846D01*
X0299918Y0046445D02*
X0296389Y0046445D01*
X0296389Y0047043D02*
X0299918Y0047043D01*
X0300161Y0047642D02*
X0296389Y0047642D01*
X0296389Y0050634D02*
X0299953Y0050634D01*
X0300113Y0051233D02*
X0296389Y0051233D01*
X0296389Y0051832D02*
X0299918Y0051832D01*
X0299918Y0052430D02*
X0296389Y0052430D01*
X0296389Y0053029D02*
X0299918Y0053029D01*
X0299918Y0053627D02*
X0296389Y0053627D01*
X0296389Y0054226D02*
X0300001Y0054226D01*
X0300065Y0054824D02*
X0296389Y0054824D01*
X0296389Y0055423D02*
X0299918Y0055423D01*
X0299918Y0056021D02*
X0296389Y0056021D01*
X0296389Y0056620D02*
X0299918Y0056620D01*
X0299918Y0057218D02*
X0296389Y0057218D01*
X0296389Y0057817D02*
X0300049Y0057817D01*
X0298308Y0058415D02*
X0296389Y0058415D01*
X0296389Y0059014D02*
X0297710Y0059014D01*
X0297638Y0059612D02*
X0296389Y0059612D01*
X0296389Y0060211D02*
X0297638Y0060211D01*
X0297788Y0060809D02*
X0296389Y0060809D01*
X0296389Y0061408D02*
X0298387Y0061408D01*
X0299970Y0062006D02*
X0296389Y0062006D01*
X0296389Y0062605D02*
X0299918Y0062605D01*
X0299918Y0063203D02*
X0296389Y0063203D01*
X0296389Y0063802D02*
X0299918Y0063802D01*
X0299918Y0064400D02*
X0296389Y0064400D01*
X0296389Y0064999D02*
X0300144Y0064999D01*
X0299922Y0065597D02*
X0296389Y0065597D01*
X0297323Y0066196D02*
X0299918Y0066196D01*
X0299918Y0066794D02*
X0297921Y0066794D01*
X0298520Y0067393D02*
X0299918Y0067393D01*
X0299918Y0067991D02*
X0299118Y0067991D01*
X0299785Y0068590D02*
X0300192Y0068590D01*
X0298357Y0068927D02*
X0296782Y0067352D01*
X0288908Y0067352D01*
X0280641Y0071634D02*
X0280641Y0075226D01*
X0273554Y0074045D02*
X0273554Y0071634D01*
X0273554Y0074045D02*
X0272767Y0074833D01*
X0265089Y0074833D01*
X0262481Y0072077D02*
X0260562Y0072077D01*
X0256231Y0072077D01*
X0251900Y0076407D01*
X0251900Y0079754D01*
X0251900Y0086447D02*
X0251900Y0089793D01*
X0259971Y0086250D02*
X0260168Y0086447D01*
X0261152Y0087431D01*
X0263318Y0087431D01*
X0267944Y0100423D02*
X0272767Y0100423D01*
X0267944Y0100423D02*
X0266763Y0101604D01*
X0260070Y0101604D02*
X0250129Y0101604D01*
X0242845Y0108888D01*
X0248751Y0115285D02*
X0248751Y0117943D01*
X0250719Y0117943D02*
X0252885Y0117943D01*
X0253081Y0117746D01*
X0256526Y0118337D02*
X0256526Y0115876D01*
X0260070Y0112333D01*
X0260070Y0109970D01*
X0266763Y0109970D02*
X0266763Y0112530D01*
X0270798Y0116565D01*
X0270798Y0119321D02*
X0267747Y0119321D01*
X0266763Y0118337D01*
X0263515Y0123652D02*
X0278672Y0123652D01*
X0283003Y0119321D01*
X0283003Y0100423D01*
X0287333Y0096093D01*
X0287333Y0095305D01*
X0290089Y0095699D02*
X0290089Y0082904D01*
X0293239Y0086447D02*
X0294617Y0087825D01*
X0297963Y0087825D01*
X0296556Y0086545D02*
X0296389Y0086545D01*
X0296389Y0085947D02*
X0297155Y0085947D01*
X0296389Y0085348D02*
X0312137Y0085348D01*
X0312137Y0084750D02*
X0296389Y0084750D01*
X0296389Y0084151D02*
X0312137Y0084151D01*
X0312137Y0083553D02*
X0296389Y0083553D01*
X0296389Y0082954D02*
X0312137Y0082954D01*
X0312137Y0082356D02*
X0296389Y0082356D01*
X0296389Y0081757D02*
X0312137Y0081757D01*
X0312137Y0081159D02*
X0296389Y0081159D01*
X0296389Y0080560D02*
X0312137Y0080560D01*
X0312137Y0079962D02*
X0296389Y0079962D01*
X0296389Y0079363D02*
X0312137Y0079363D01*
X0312137Y0078765D02*
X0296389Y0078765D01*
X0296389Y0078166D02*
X0312137Y0078166D01*
X0312137Y0077568D02*
X0296389Y0077568D01*
X0296389Y0076969D02*
X0312137Y0076969D01*
X0312137Y0076370D02*
X0296389Y0076370D01*
X0296389Y0075772D02*
X0312137Y0075772D01*
X0298357Y0071634D02*
X0298357Y0068927D01*
X0299538Y0059872D02*
X0303032Y0059872D01*
X0303032Y0049242D02*
X0280641Y0049242D01*
X0260168Y0028770D01*
X0259774Y0031526D02*
X0258249Y0031526D01*
X0259774Y0031526D02*
X0262530Y0034281D01*
X0261743Y0038612D02*
X0258249Y0038612D01*
X0251900Y0030344D02*
X0251900Y0065384D01*
X0227097Y0090187D01*
X0227097Y0117943D01*
X0225129Y0117943D02*
X0225129Y0115187D01*
X0199341Y0089400D01*
X0164893Y0089400D01*
X0160562Y0093730D01*
X0158593Y0091762D02*
X0162530Y0087825D01*
X0179263Y0087825D01*
X0180837Y0086250D01*
X0180837Y0077982D01*
X0175621Y0079360D02*
X0175621Y0070994D01*
X0181920Y0070994D01*
X0183298Y0069616D01*
X0174538Y0066860D02*
X0172668Y0066860D01*
X0172373Y0067156D01*
X0168928Y0070600D01*
X0168928Y0070994D01*
X0172373Y0067156D02*
X0172373Y0057707D01*
X0168928Y0054262D01*
X0162530Y0054360D02*
X0170995Y0045896D01*
X0177688Y0045896D02*
X0182806Y0045896D01*
X0182806Y0044222D01*
X0189499Y0037530D01*
X0182806Y0037530D02*
X0182806Y0035856D01*
X0189499Y0029163D01*
X0182806Y0029163D02*
X0182806Y0027490D01*
X0189499Y0020797D01*
X0182806Y0020797D02*
X0182806Y0019124D01*
X0189499Y0012431D01*
X0182806Y0020797D02*
X0177688Y0020797D01*
X0170995Y0020797D02*
X0164499Y0027293D01*
X0164499Y0038219D01*
X0155050Y0047667D01*
X0155050Y0082313D01*
X0149538Y0087825D01*
X0150719Y0089793D02*
X0157609Y0082904D01*
X0157609Y0047963D01*
X0166959Y0038612D01*
X0166959Y0033199D01*
X0170995Y0029163D01*
X0177688Y0029163D02*
X0182806Y0029163D01*
X0182806Y0037530D02*
X0177688Y0037530D01*
X0170995Y0037530D02*
X0170995Y0038022D01*
X0160168Y0048848D01*
X0160168Y0083888D01*
X0153869Y0090187D01*
X0154656Y0092746D02*
X0162530Y0084872D01*
X0162530Y0054360D01*
X0152688Y0046978D02*
X0152688Y0081526D01*
X0144814Y0089400D01*
X0144814Y0093730D01*
X0146782Y0095699D02*
X0144814Y0097667D01*
X0142845Y0095699D02*
X0140877Y0097667D01*
X0142845Y0099636D02*
X0140877Y0101604D01*
X0138908Y0099636D02*
X0136940Y0097667D01*
X0134971Y0099636D01*
X0134971Y0103573D01*
X0133003Y0105541D01*
X0131034Y0107510D01*
X0131034Y0111447D01*
X0138908Y0111447D01*
X0140877Y0113415D01*
X0142845Y0111447D01*
X0142845Y0107510D01*
X0144814Y0105541D01*
X0146782Y0103573D02*
X0144814Y0101604D01*
X0146782Y0099636D02*
X0148751Y0097667D01*
X0150719Y0099636D02*
X0150719Y0089793D01*
X0148751Y0091762D02*
X0148751Y0093730D01*
X0148751Y0091762D02*
X0147963Y0090974D01*
X0154656Y0092746D02*
X0154656Y0099636D01*
X0152688Y0101604D01*
X0150719Y0099636D02*
X0148751Y0101604D01*
X0150719Y0103573D02*
X0148751Y0105541D01*
X0146782Y0103573D02*
X0146782Y0115384D01*
X0144814Y0117352D02*
X0142845Y0115384D01*
X0138908Y0115384D01*
X0136940Y0117352D01*
X0133003Y0121289D01*
X0131034Y0119321D02*
X0127097Y0119321D01*
X0125129Y0121289D01*
X0127097Y0123258D02*
X0129066Y0121289D01*
X0131034Y0123258D02*
X0133003Y0125226D01*
X0131034Y0127195D02*
X0129066Y0125226D01*
X0127097Y0127195D02*
X0125129Y0125226D01*
X0129066Y0129163D02*
X0131034Y0131132D01*
X0133003Y0129163D02*
X0136940Y0125226D01*
X0140877Y0129163D01*
X0144814Y0125226D01*
X0146782Y0127195D01*
X0144814Y0129163D02*
X0148751Y0133100D01*
X0146782Y0135069D01*
X0146782Y0139006D01*
X0144814Y0140974D01*
X0146782Y0142943D02*
X0148751Y0144911D01*
X0150719Y0146880D02*
X0148751Y0148848D01*
X0146782Y0146880D02*
X0146782Y0150817D01*
X0144814Y0152785D02*
X0146782Y0154754D01*
X0148751Y0152785D02*
X0152885Y0156919D01*
X0152885Y0160069D01*
X0154656Y0154754D02*
X0152688Y0152785D01*
X0154656Y0150817D02*
X0152688Y0148848D01*
X0154656Y0146880D02*
X0152688Y0144911D01*
X0154656Y0142943D02*
X0152688Y0140974D01*
X0154656Y0139006D02*
X0156625Y0140974D01*
X0158593Y0142943D02*
X0158593Y0139006D01*
X0160562Y0140974D02*
X0162530Y0142943D01*
X0171389Y0142943D01*
X0174833Y0146388D01*
X0178278Y0146388D02*
X0178278Y0147864D01*
X0178278Y0146388D02*
X0172865Y0140974D01*
X0168436Y0140974D01*
X0166467Y0139006D02*
X0164499Y0137037D01*
X0166467Y0135069D02*
X0170896Y0135069D01*
X0174341Y0138514D01*
X0176310Y0138514D01*
X0170896Y0138514D02*
X0169912Y0138514D01*
X0168436Y0137037D01*
X0166467Y0135069D02*
X0164499Y0133100D01*
X0162530Y0131132D02*
X0160562Y0129163D01*
X0162530Y0127195D02*
X0164499Y0129163D01*
X0166467Y0127195D02*
X0164499Y0125226D01*
X0162530Y0123258D02*
X0170896Y0123258D01*
X0193288Y0145650D01*
X0194125Y0146486D01*
X0196585Y0146486D01*
X0196585Y0144518D02*
X0194125Y0144518D01*
X0181231Y0131624D01*
X0181231Y0121289D01*
X0179263Y0119321D01*
X0166467Y0119321D01*
X0164499Y0117352D01*
X0162530Y0115384D02*
X0160562Y0113415D01*
X0162530Y0111447D02*
X0164499Y0113415D01*
X0166467Y0111447D02*
X0181231Y0111447D01*
X0187137Y0117352D01*
X0187137Y0129656D01*
X0194125Y0136644D01*
X0196585Y0136644D01*
X0196585Y0138612D02*
X0194125Y0138612D01*
X0185660Y0130148D01*
X0185660Y0118337D01*
X0180739Y0113415D01*
X0168436Y0113415D01*
X0166467Y0111447D02*
X0164499Y0109478D01*
X0162530Y0107510D02*
X0182215Y0107510D01*
X0190089Y0115384D01*
X0190089Y0128671D01*
X0194125Y0132707D01*
X0196585Y0132707D01*
X0196585Y0134675D02*
X0194125Y0134675D01*
X0188613Y0129163D01*
X0188613Y0116368D01*
X0181723Y0109478D01*
X0168436Y0109478D01*
X0168436Y0105541D02*
X0170404Y0103573D01*
X0200424Y0103573D01*
X0211349Y0114498D01*
X0211349Y0117943D01*
X0209381Y0117943D02*
X0209381Y0122864D01*
X0211743Y0125226D01*
X0249637Y0125226D01*
X0256526Y0118337D01*
X0258987Y0118337D02*
X0250621Y0126703D01*
X0211251Y0126703D01*
X0207412Y0122864D01*
X0207412Y0117943D01*
X0205444Y0117943D02*
X0205444Y0114301D01*
X0205837Y0113907D01*
X0203475Y0117943D02*
X0202097Y0119321D01*
X0201507Y0119321D01*
X0198751Y0118533D02*
X0201113Y0116171D01*
X0201113Y0110463D01*
X0197373Y0106722D01*
X0200818Y0101604D02*
X0213318Y0114104D01*
X0213318Y0117943D01*
X0215286Y0117943D02*
X0215286Y0113809D01*
X0201113Y0099636D01*
X0166467Y0099636D01*
X0164499Y0101604D01*
X0162530Y0099636D02*
X0160562Y0101604D01*
X0156625Y0105541D01*
X0154656Y0107510D02*
X0152688Y0109478D01*
X0150719Y0107510D02*
X0152688Y0105541D01*
X0156625Y0101604D02*
X0158593Y0099636D01*
X0156625Y0097667D02*
X0158593Y0095699D01*
X0158593Y0091762D01*
X0162530Y0095699D02*
X0160562Y0097667D01*
X0164499Y0097667D02*
X0166467Y0095699D01*
X0201507Y0095699D01*
X0219223Y0113415D01*
X0219223Y0117943D01*
X0217255Y0117943D02*
X0217255Y0113612D01*
X0201310Y0097667D01*
X0168436Y0097667D01*
X0168436Y0093730D02*
X0170404Y0093730D01*
X0170798Y0093337D01*
X0167353Y0090876D02*
X0198751Y0090876D01*
X0223160Y0115285D01*
X0223160Y0117943D01*
X0221192Y0117943D02*
X0221192Y0121191D01*
X0220109Y0122274D01*
X0210267Y0128179D02*
X0204361Y0122274D01*
X0203475Y0124833D02*
X0206330Y0127687D01*
X0203081Y0128770D02*
X0205444Y0131132D01*
X0203081Y0128770D02*
X0196585Y0128770D01*
X0196585Y0130738D02*
X0194125Y0130738D01*
X0191566Y0128179D01*
X0191566Y0113711D01*
X0190089Y0112234D01*
X0190680Y0109577D02*
X0190680Y0106722D01*
X0190680Y0109577D02*
X0194912Y0113809D01*
X0198751Y0113809D01*
X0198751Y0118533D02*
X0198751Y0122864D01*
X0196782Y0124833D01*
X0196585Y0124833D01*
X0196782Y0124833D02*
X0203475Y0124833D01*
X0201408Y0131132D02*
X0201408Y0150325D01*
X0199341Y0152392D01*
X0196585Y0152392D01*
X0196585Y0154360D02*
X0200719Y0154360D01*
X0202688Y0156329D01*
X0201900Y0158691D02*
X0203869Y0158691D01*
X0205837Y0156722D01*
X0205837Y0139006D01*
X0203869Y0137037D01*
X0203869Y0133593D01*
X0207314Y0133593D02*
X0208298Y0133593D01*
X0219617Y0144911D01*
X0219617Y0174439D01*
X0219223Y0174833D01*
X0219223Y0178967D01*
X0217255Y0178967D02*
X0217255Y0146486D01*
X0207806Y0137037D01*
X0207314Y0137037D01*
X0196585Y0140581D02*
X0194125Y0140581D01*
X0184184Y0130640D01*
X0184184Y0119321D01*
X0180247Y0115384D01*
X0162530Y0115384D01*
X0160562Y0117352D02*
X0158593Y0115384D01*
X0156625Y0117352D02*
X0154656Y0119321D01*
X0146782Y0119321D01*
X0144814Y0121289D01*
X0144814Y0117352D02*
X0140877Y0121289D01*
X0144814Y0125226D01*
X0140877Y0125226D02*
X0138908Y0123258D01*
X0136940Y0121289D01*
X0140877Y0117352D01*
X0134971Y0115384D02*
X0133003Y0117352D01*
X0131034Y0115384D02*
X0129066Y0117352D01*
X0127097Y0115384D02*
X0125129Y0117352D01*
X0125129Y0113415D02*
X0127097Y0111447D01*
X0129066Y0113415D02*
X0131034Y0111447D01*
X0134971Y0107510D02*
X0136940Y0109478D01*
X0140877Y0105541D02*
X0142845Y0103573D01*
X0134971Y0095699D02*
X0133003Y0097667D01*
X0131034Y0099636D02*
X0129066Y0097667D01*
X0127097Y0095699D02*
X0125129Y0097667D01*
X0123160Y0099636D02*
X0123160Y0080738D01*
X0112727Y0076014D02*
X0108987Y0076014D01*
X0103869Y0076998D02*
X0098751Y0082116D01*
X0098751Y0082313D01*
X0097373Y0083691D01*
X0095601Y0083691D01*
X0103869Y0083691D02*
X0103869Y0087431D01*
X0111152Y0084281D02*
X0111349Y0084085D01*
X0111349Y0083691D01*
X0111349Y0084085D02*
X0111349Y0091762D01*
X0109381Y0093730D01*
X0108987Y0094124D02*
X0101310Y0094124D01*
X0113318Y0093730D02*
X0115286Y0095699D01*
X0117255Y0097667D02*
X0119223Y0099636D01*
X0121192Y0101604D02*
X0123160Y0099636D01*
X0121192Y0097667D02*
X0119223Y0095699D01*
X0095601Y0076998D02*
X0095601Y0071880D01*
X0095798Y0071683D01*
X0099932Y0071683D01*
X0103672Y0071683D01*
X0103869Y0071880D01*
X0063908Y0051604D02*
X0063908Y0046486D01*
X0063908Y0051604D02*
X0063121Y0052392D01*
X0088711Y0034675D02*
X0092058Y0034675D01*
X0074243Y0026211D02*
X0065877Y0026211D01*
X0058593Y0026211D01*
X0057511Y0027785D01*
X0057019Y0025817D01*
X0052688Y0021486D01*
X0164991Y0066565D02*
X0164991Y0082805D01*
X0167353Y0084577D02*
X0167353Y0080935D01*
X0168928Y0079360D01*
X0168928Y0079459D01*
X0167353Y0090876D02*
X0164499Y0093730D01*
X0168436Y0101604D02*
X0200818Y0101604D01*
X0182707Y0120305D02*
X0179755Y0117352D01*
X0168436Y0117352D01*
X0168436Y0121289D02*
X0177786Y0121289D01*
X0178770Y0122274D01*
X0182707Y0120305D02*
X0182707Y0131132D01*
X0194125Y0142549D01*
X0196585Y0142549D01*
X0187629Y0145896D02*
X0177294Y0135561D01*
X0173849Y0135561D01*
X0171389Y0133100D01*
X0168436Y0133100D01*
X0168436Y0129163D02*
X0170896Y0129163D01*
X0172865Y0131132D01*
X0170896Y0125226D02*
X0168436Y0125226D01*
X0170896Y0125226D02*
X0194125Y0148455D01*
X0196585Y0148455D01*
X0196585Y0150423D02*
X0191467Y0150423D01*
X0188022Y0153868D01*
X0181330Y0153868D02*
X0181330Y0156033D01*
X0177885Y0159478D01*
X0172767Y0159478D01*
X0172767Y0157116D01*
X0168436Y0152785D01*
X0166467Y0150817D02*
X0170404Y0150817D01*
X0173062Y0153474D01*
X0175522Y0152490D02*
X0175522Y0155935D01*
X0176802Y0157215D01*
X0175522Y0152490D02*
X0171881Y0148848D01*
X0168436Y0148848D01*
X0166467Y0146880D02*
X0164499Y0144911D01*
X0164499Y0140974D02*
X0162530Y0139006D01*
X0160562Y0137037D02*
X0158593Y0135069D01*
X0154656Y0135069D01*
X0154656Y0131132D02*
X0156625Y0129163D01*
X0154656Y0127195D02*
X0162530Y0127195D01*
X0160562Y0125226D02*
X0162530Y0123258D01*
X0164499Y0121289D02*
X0162530Y0119321D01*
X0158593Y0119321D01*
X0156625Y0117352D01*
X0158593Y0111447D02*
X0160562Y0109478D01*
X0162530Y0107510D02*
X0160562Y0105541D01*
X0162530Y0103573D02*
X0164499Y0105541D01*
X0154656Y0123258D02*
X0156625Y0125226D01*
X0154656Y0127195D02*
X0152688Y0125226D01*
X0150719Y0123258D01*
X0160562Y0133100D02*
X0162530Y0135069D01*
X0158593Y0142943D02*
X0160562Y0144911D01*
X0158593Y0146880D02*
X0156625Y0144911D01*
X0156625Y0148848D02*
X0158593Y0150817D01*
X0156625Y0152785D02*
X0158987Y0155148D01*
X0158987Y0155935D01*
X0160562Y0154360D02*
X0160562Y0152785D01*
X0160562Y0154360D02*
X0161349Y0155148D01*
X0161349Y0156329D01*
X0162530Y0157510D01*
X0162530Y0153967D02*
X0166074Y0157510D01*
X0166074Y0160659D01*
X0165089Y0162628D02*
X0161546Y0166171D01*
X0156822Y0170896D01*
X0156822Y0174439D01*
X0163515Y0174439D02*
X0167058Y0170896D01*
X0185267Y0170896D01*
X0188613Y0167549D01*
X0193928Y0162234D01*
X0196585Y0162234D01*
X0196585Y0160266D02*
X0193928Y0160266D01*
X0189105Y0165089D01*
X0187629Y0165089D01*
X0185168Y0167549D01*
X0183396Y0169321D01*
X0171192Y0169321D01*
X0168239Y0166368D01*
X0168239Y0166171D01*
X0170404Y0162628D02*
X0173751Y0165974D01*
X0174144Y0165974D01*
X0176704Y0163415D01*
X0173062Y0162530D02*
X0170404Y0159872D01*
X0170404Y0158691D01*
X0164499Y0152785D01*
X0162530Y0153967D02*
X0162530Y0150817D01*
X0160562Y0148848D01*
X0164499Y0148848D02*
X0166467Y0150817D01*
X0169912Y0146388D02*
X0170896Y0146388D01*
X0169912Y0146388D02*
X0168436Y0144911D01*
X0146782Y0146880D02*
X0144814Y0144911D01*
X0142845Y0142943D02*
X0140877Y0140974D01*
X0140877Y0144911D02*
X0142845Y0146880D01*
X0138908Y0150817D02*
X0136940Y0148848D01*
X0136940Y0152785D02*
X0137924Y0153770D01*
X0137924Y0155738D01*
X0140877Y0158297D02*
X0140877Y0152785D01*
X0140877Y0158297D02*
X0143239Y0160659D01*
X0144617Y0165974D02*
X0144617Y0167352D01*
X0129066Y0162628D02*
X0126507Y0165187D01*
X0129066Y0162628D02*
X0129066Y0152785D01*
X0117255Y0152785D02*
X0107019Y0163022D01*
X0109971Y0165974D01*
X0111546Y0167352D01*
X0111546Y0173455D02*
X0104656Y0166565D01*
X0111546Y0173455D02*
X0111546Y0175620D01*
X0116270Y0179163D02*
X0120404Y0179163D01*
X0123751Y0175817D01*
X0123751Y0173258D01*
X0107412Y0158691D02*
X0105444Y0158691D01*
X0107412Y0158691D02*
X0113318Y0152785D01*
X0109381Y0152785D02*
X0107806Y0154360D01*
X0107806Y0155148D01*
X0109381Y0144911D02*
X0106231Y0144911D01*
X0134971Y0135069D02*
X0136940Y0133100D01*
X0134971Y0131132D02*
X0136940Y0129163D01*
X0138908Y0135069D02*
X0140877Y0137037D01*
X0165089Y0162628D02*
X0170404Y0162628D01*
X0173751Y0165974D02*
X0173751Y0166171D01*
X0180444Y0166171D02*
X0183101Y0166171D01*
X0185168Y0164104D01*
X0185660Y0163612D01*
X0188613Y0163612D01*
X0193928Y0158297D01*
X0196585Y0158297D01*
X0196585Y0156329D02*
X0199538Y0156329D01*
X0201900Y0158691D01*
X0196585Y0164203D02*
X0193928Y0164203D01*
X0191566Y0166565D01*
X0191566Y0168041D01*
X0188613Y0170994D01*
X0186546Y0173061D01*
X0186546Y0181919D01*
X0186940Y0182313D01*
X0186940Y0185069D01*
X0183593Y0188514D02*
X0181310Y0188514D01*
X0189893Y0177982D02*
X0189893Y0173159D01*
X0192058Y0170994D01*
X0193042Y0170010D01*
X0193042Y0167057D01*
X0193928Y0166171D01*
X0196585Y0166171D01*
X0196585Y0168140D02*
X0199932Y0168140D01*
X0203475Y0171683D01*
X0196585Y0178573D01*
X0196585Y0177982D01*
X0196782Y0174045D02*
X0196585Y0173848D01*
X0196585Y0172077D01*
X0196585Y0170108D02*
X0199144Y0170108D01*
X0200719Y0171683D01*
X0203475Y0178967D02*
X0203475Y0184281D01*
X0207412Y0182313D02*
X0207806Y0182707D01*
X0207412Y0182313D02*
X0207412Y0178967D01*
X0205444Y0178967D02*
X0205444Y0189400D01*
X0204263Y0193730D02*
X0194066Y0203927D01*
X0194066Y0206841D01*
X0198948Y0208888D02*
X0198948Y0202982D01*
X0206231Y0195699D01*
X0212333Y0198061D02*
X0217747Y0192648D01*
X0225522Y0192648D01*
X0228967Y0189203D01*
X0229952Y0189203D01*
X0236940Y0182215D01*
X0236940Y0178967D01*
X0238908Y0178967D02*
X0238908Y0183494D01*
X0236940Y0185463D02*
X0237530Y0186053D01*
X0237530Y0189400D01*
X0240877Y0194518D02*
X0240877Y0178967D01*
X0242845Y0178967D02*
X0242845Y0175030D01*
X0239794Y0171978D01*
X0235857Y0171978D01*
X0233396Y0169518D01*
X0233396Y0166073D02*
X0237826Y0170502D01*
X0240286Y0170502D01*
X0244814Y0175030D01*
X0244814Y0178967D01*
X0246782Y0178967D02*
X0246782Y0175030D01*
X0240778Y0169026D01*
X0239794Y0169026D01*
X0236841Y0166073D01*
X0240286Y0166073D02*
X0248751Y0174537D01*
X0248751Y0178967D01*
X0250719Y0178967D02*
X0250719Y0173061D01*
X0240286Y0162628D01*
X0243731Y0162628D02*
X0249243Y0168140D01*
X0257609Y0168140D01*
X0257609Y0170108D02*
X0253475Y0170108D01*
X0253081Y0170502D01*
X0253081Y0178573D01*
X0255247Y0180738D01*
X0261940Y0180738D02*
X0261940Y0178573D01*
X0257806Y0174439D01*
X0257609Y0174242D01*
X0257609Y0172077D01*
X0260562Y0174439D02*
X0262924Y0174439D01*
X0268830Y0180344D01*
X0268830Y0211407D01*
X0263711Y0216526D01*
X0261940Y0197274D02*
X0261743Y0197077D01*
X0261743Y0193730D01*
X0261940Y0189006D02*
X0261940Y0180738D01*
X0255247Y0189006D02*
X0255247Y0189990D01*
X0251113Y0194124D01*
X0252097Y0194124D01*
X0255247Y0197274D01*
X0244420Y0194124D02*
X0244223Y0193927D01*
X0244223Y0189400D01*
X0240877Y0194518D02*
X0228377Y0207018D01*
X0228377Y0211841D01*
X0224066Y0206841D02*
X0224066Y0198474D01*
X0221585Y0195994D01*
X0224066Y0201781D02*
X0229952Y0195896D01*
X0224066Y0201781D02*
X0224066Y0206841D01*
X0221585Y0189301D02*
X0216172Y0189301D01*
X0212333Y0185463D01*
X0220404Y0183100D02*
X0221192Y0182313D01*
X0221192Y0178967D01*
X0223160Y0178967D02*
X0223160Y0183100D01*
X0225129Y0185758D02*
X0221585Y0189301D01*
X0225129Y0185758D02*
X0230936Y0185758D01*
X0234971Y0181722D01*
X0234971Y0178967D01*
X0233003Y0178967D02*
X0233003Y0175620D01*
X0233790Y0174833D01*
X0231034Y0175226D02*
X0231034Y0178967D01*
X0229066Y0178967D02*
X0229066Y0175226D01*
X0228278Y0174439D01*
X0228278Y0171683D02*
X0225129Y0174833D01*
X0225129Y0178967D01*
X0215286Y0178967D02*
X0215286Y0175226D01*
X0213318Y0175620D02*
X0212530Y0174833D01*
X0213318Y0175620D02*
X0213318Y0178967D01*
X0211349Y0178967D02*
X0209381Y0178967D01*
X0209381Y0175226D01*
X0234873Y0152096D02*
X0250326Y0152096D01*
X0251999Y0150423D01*
X0257609Y0150423D01*
X0257609Y0148455D02*
X0251999Y0148455D01*
X0251113Y0149341D01*
X0239302Y0149341D01*
X0241763Y0146880D02*
X0251605Y0146880D01*
X0251999Y0146486D01*
X0257609Y0146486D01*
X0257609Y0144518D02*
X0244322Y0144518D01*
X0244223Y0144419D01*
X0246684Y0141959D02*
X0247274Y0142549D01*
X0257609Y0142549D01*
X0257609Y0140581D02*
X0252688Y0140581D01*
X0240286Y0128179D01*
X0210267Y0128179D01*
X0196585Y0126801D02*
X0193633Y0126801D01*
X0193042Y0126211D01*
X0193042Y0122372D01*
X0194912Y0120502D01*
X0187530Y0086250D02*
X0188908Y0084872D01*
X0188908Y0082313D01*
X0188908Y0079360D01*
X0187530Y0077982D01*
X0194322Y0069616D02*
X0199735Y0064203D01*
X0202196Y0064203D01*
X0220798Y0064203D01*
X0225522Y0059478D01*
X0233987Y0060266D02*
X0233987Y0063219D01*
X0233790Y0063415D01*
X0233987Y0060266D02*
X0233987Y0051998D01*
X0240680Y0051998D02*
X0245207Y0051998D01*
X0240680Y0060266D02*
X0240680Y0061644D01*
X0242845Y0063809D01*
X0262481Y0072077D02*
X0262924Y0071634D01*
X0270011Y0071634D02*
X0270011Y0068140D01*
X0298772Y0085947D02*
X0312137Y0085947D01*
X0312137Y0086545D02*
X0299371Y0086545D01*
X0299863Y0087144D02*
X0312137Y0087144D01*
X0312137Y0087742D02*
X0299863Y0087742D01*
X0299863Y0088341D02*
X0312137Y0088341D01*
X0312137Y0088939D02*
X0299536Y0088939D01*
X0298937Y0089538D02*
X0312137Y0089538D01*
X0312137Y0090136D02*
X0296389Y0090136D01*
X0296389Y0089538D02*
X0296989Y0089538D01*
X0296389Y0090735D02*
X0312137Y0090735D01*
X0312137Y0091333D02*
X0296389Y0091333D01*
X0296389Y0091932D02*
X0312137Y0091932D01*
X0312137Y0092530D02*
X0296389Y0092530D01*
X0296389Y0093129D02*
X0312137Y0093129D01*
X0312137Y0093727D02*
X0296389Y0093727D01*
X0296389Y0094326D02*
X0312137Y0094326D01*
X0312137Y0094924D02*
X0296389Y0094924D01*
X0296389Y0095523D02*
X0312137Y0095523D01*
X0312137Y0096121D02*
X0296389Y0096121D01*
X0296389Y0096720D02*
X0312137Y0096720D01*
X0312137Y0097318D02*
X0296389Y0097318D01*
X0296389Y0097917D02*
X0312137Y0097917D01*
X0312137Y0098515D02*
X0296389Y0098515D01*
X0296389Y0099114D02*
X0312137Y0099114D01*
X0312137Y0099712D02*
X0296389Y0099712D01*
X0296389Y0100311D02*
X0312137Y0100311D01*
X0310168Y0110463D02*
X0309184Y0111447D01*
X0295995Y0111447D01*
X0280247Y0127195D01*
X0270404Y0127195D01*
X0270404Y0130148D01*
X0268830Y0131722D01*
X0263711Y0134281D02*
X0260168Y0130738D01*
X0257609Y0130738D01*
X0257609Y0128770D02*
X0266074Y0128770D01*
X0269617Y0125226D01*
X0279853Y0125226D01*
X0284578Y0120502D01*
X0284578Y0101211D01*
X0290089Y0095699D01*
X0295207Y0114596D02*
X0324735Y0114596D01*
X0325916Y0113415D01*
X0329853Y0113415D01*
X0328574Y0117746D02*
X0294420Y0117746D01*
X0283003Y0129163D01*
X0283003Y0137431D01*
X0284578Y0139006D01*
X0288318Y0139006D01*
X0293633Y0144321D01*
X0293633Y0139006D02*
X0293633Y0138612D01*
X0288515Y0133494D01*
X0293633Y0136053D02*
X0301900Y0144321D01*
X0301900Y0151014D02*
X0296585Y0156329D01*
X0268436Y0156329D01*
X0260562Y0164203D01*
X0257609Y0164203D01*
X0257609Y0166171D02*
X0250719Y0166171D01*
X0243731Y0159183D01*
X0247668Y0155738D02*
X0250227Y0158297D01*
X0257609Y0158297D01*
X0257609Y0156329D02*
X0262137Y0156329D01*
X0264499Y0153967D01*
X0264499Y0149636D01*
X0266467Y0147667D01*
X0282019Y0147667D01*
X0285365Y0151014D01*
X0280247Y0152392D02*
X0278475Y0152392D01*
X0277097Y0151014D01*
X0277097Y0144321D02*
X0277097Y0141368D01*
X0278672Y0139793D01*
X0278672Y0135463D01*
X0276704Y0133494D01*
X0280641Y0129163D02*
X0280641Y0139596D01*
X0285365Y0144321D01*
X0293633Y0151014D02*
X0289893Y0154754D01*
X0268042Y0154754D01*
X0260562Y0162234D01*
X0257609Y0162234D01*
X0257609Y0160266D02*
X0253475Y0160266D01*
X0253081Y0160659D01*
X0257609Y0160266D02*
X0260365Y0160266D01*
X0268830Y0151801D01*
X0268830Y0151014D01*
X0261349Y0152392D02*
X0257609Y0152392D01*
X0265877Y0141368D02*
X0268830Y0144321D01*
X0265877Y0141368D02*
X0265680Y0141368D01*
X0265877Y0141368D02*
X0268830Y0138415D01*
X0263711Y0137037D02*
X0260956Y0134281D01*
X0260956Y0133494D01*
X0260168Y0132707D01*
X0257609Y0132707D01*
X0257609Y0134675D02*
X0254164Y0134675D01*
X0253081Y0133593D01*
X0253475Y0136644D02*
X0253081Y0137037D01*
X0253475Y0136644D02*
X0257609Y0136644D01*
X0257609Y0138612D02*
X0261349Y0138612D01*
X0261743Y0139006D01*
X0257609Y0126801D02*
X0254459Y0126801D01*
X0253081Y0128179D01*
X0257609Y0124833D02*
X0262333Y0124833D01*
X0262432Y0124734D01*
X0263515Y0123652D01*
X0260070Y0118337D02*
X0258987Y0118337D01*
X0253278Y0114400D02*
X0253081Y0114596D01*
X0253278Y0114400D02*
X0253278Y0111348D01*
X0252688Y0111348D01*
X0248751Y0115285D01*
X0280641Y0129163D02*
X0295207Y0114596D01*
X0297570Y0120896D02*
X0328574Y0120896D01*
X0329853Y0125226D02*
X0329853Y0128376D01*
X0297570Y0120896D02*
X0293633Y0124833D01*
X0293633Y0136053D01*
X0198948Y0208888D02*
X0195995Y0211841D01*
X0069066Y0211841D01*
X0064066Y0206841D01*
X0068239Y0195699D02*
X0068042Y0195502D01*
X0068042Y0192156D01*
X0072570Y0175620D02*
X0068239Y0171289D01*
X0095798Y0184675D02*
X0095798Y0191171D01*
X0095601Y0191368D01*
X0095798Y0195699D02*
X0099341Y0199242D01*
X0110956Y0199242D01*
X0114893Y0195305D01*
X0111546Y0192156D02*
X0106822Y0192156D01*
X0103278Y0195699D01*
X0037137Y0173652D02*
X0035365Y0175423D01*
X0035365Y0177195D01*
X0022767Y0185069D02*
X0019026Y0185069D01*
X0012333Y0185069D02*
X0005050Y0177785D01*
X0005050Y0176892D01*
X0010562Y0178376D02*
X0013515Y0178376D01*
X0013711Y0178179D01*
X0013711Y0171486D02*
X0011940Y0171486D01*
X0010168Y0169715D01*
X0005050Y0183797D02*
X0005050Y0187726D01*
X0087727Y0106722D02*
X0087727Y0103770D01*
X0089105Y0102392D01*
X0164991Y0066565D02*
X0168928Y0062628D01*
X0175621Y0062628D02*
X0175621Y0054262D01*
X0177786Y0054262D01*
X0182215Y0058691D01*
X0189597Y0050915D02*
X0189597Y0045994D01*
X0189499Y0045896D01*
X0196979Y0057313D02*
X0201900Y0052392D01*
X0201900Y0033888D01*
X0197963Y0029951D01*
X0196979Y0057313D02*
X0194322Y0057313D01*
X0260168Y0015974D02*
X0263121Y0015974D01*
X0263318Y0016171D01*
X0268436Y0015974D02*
X0274932Y0022470D01*
X0286152Y0022470D01*
X0287727Y0024045D01*
X0287727Y0026850D01*
X0287727Y0029557D01*
X0289302Y0031132D01*
X0291270Y0030344D02*
X0292058Y0031132D01*
X0291270Y0030344D02*
X0291270Y0026850D01*
X0291270Y0024045D01*
X0288121Y0020896D01*
X0281625Y0020896D01*
X0276704Y0015974D01*
X0276704Y0009281D02*
X0284971Y0009281D01*
X0293239Y0009281D01*
X0296389Y0009337D02*
X0312137Y0009337D01*
X0312137Y0008739D02*
X0296389Y0008739D01*
X0296389Y0008140D02*
X0312137Y0008140D01*
X0312137Y0007542D02*
X0296389Y0007542D01*
X0296389Y0009936D02*
X0312137Y0009936D01*
X0312137Y0010534D02*
X0296389Y0010534D01*
X0296389Y0011133D02*
X0312137Y0011133D01*
X0312137Y0011731D02*
X0296389Y0011731D01*
X0296389Y0012330D02*
X0312137Y0012330D01*
X0312137Y0012928D02*
X0296389Y0012928D01*
X0296389Y0013527D02*
X0312137Y0013527D01*
X0312137Y0014125D02*
X0296389Y0014125D01*
X0296389Y0014724D02*
X0312137Y0014724D01*
X0312137Y0015322D02*
X0296389Y0015322D01*
X0296389Y0015921D02*
X0312137Y0015921D01*
X0312137Y0016519D02*
X0296389Y0016519D01*
X0296389Y0017118D02*
X0312137Y0017118D01*
X0312137Y0017716D02*
X0296678Y0017716D01*
X0297277Y0018315D02*
X0312137Y0018315D01*
X0312137Y0018913D02*
X0297875Y0018913D01*
X0298474Y0019512D02*
X0312137Y0019512D01*
X0312137Y0020110D02*
X0299072Y0020110D01*
X0299557Y0020709D02*
X0312137Y0020709D01*
X0312137Y0021307D02*
X0299557Y0021307D01*
X0299557Y0021906D02*
X0312137Y0021906D01*
X0312137Y0022504D02*
X0299557Y0022504D01*
X0299557Y0023103D02*
X0312137Y0023103D01*
X0311738Y0023701D02*
X0311354Y0023701D01*
X0311354Y0023533D02*
X0311354Y0026412D01*
X0309262Y0026412D01*
X0309262Y0024662D01*
X0309350Y0024331D01*
X0309522Y0024034D01*
X0309764Y0023792D01*
X0310060Y0023621D01*
X0310391Y0023533D01*
X0311354Y0023533D01*
X0311354Y0024300D02*
X0311738Y0024300D01*
X0311630Y0024899D02*
X0311354Y0024899D01*
X0311354Y0025497D02*
X0311630Y0025497D01*
X0311630Y0026096D02*
X0311354Y0026096D01*
X0311354Y0026694D02*
X0300241Y0026694D01*
X0300241Y0026096D02*
X0309262Y0026096D01*
X0309262Y0025497D02*
X0300241Y0025497D01*
X0300241Y0024899D02*
X0309262Y0024899D01*
X0309368Y0024300D02*
X0300241Y0024300D01*
X0299557Y0023701D02*
X0309921Y0023701D01*
X0309262Y0027293D02*
X0300241Y0027293D01*
X0300241Y0027891D02*
X0309262Y0027891D01*
X0309262Y0028490D02*
X0300241Y0028490D01*
X0300241Y0029088D02*
X0309472Y0029088D01*
X0311354Y0029088D02*
X0311738Y0029088D01*
X0311630Y0028490D02*
X0311354Y0028490D01*
X0311354Y0027891D02*
X0311630Y0027891D01*
X0311630Y0027293D02*
X0311354Y0027293D01*
X0303224Y0029687D02*
X0302840Y0029687D01*
X0302840Y0030285D02*
X0303224Y0030285D01*
X0303224Y0030884D02*
X0302840Y0030884D01*
X0299541Y0030285D02*
X0298539Y0030285D01*
X0298357Y0028770D02*
X0295995Y0031132D01*
X0294814Y0029557D02*
X0294026Y0030344D01*
X0294026Y0033100D01*
X0296389Y0035672D02*
X0299918Y0035672D01*
X0299918Y0036270D02*
X0296389Y0036270D01*
X0294814Y0029557D02*
X0294814Y0026850D01*
X0294814Y0024045D01*
X0290483Y0019715D01*
X0288711Y0019715D01*
X0284971Y0015974D01*
X0276704Y0009281D02*
X0268436Y0009281D01*
X0265089Y0009281D01*
X0264105Y0008297D01*
X0263121Y0009281D01*
X0260168Y0009281D01*
X0270011Y0026850D02*
X0270011Y0030344D01*
X0293239Y0015974D02*
X0298357Y0021093D01*
X0298357Y0026850D01*
X0298357Y0028770D01*
D63*
X0298751Y0031132D03*
X0295995Y0031132D03*
X0294026Y0033100D03*
X0292058Y0031132D03*
X0289302Y0031132D03*
X0301900Y0027982D03*
X0311349Y0031526D03*
X0311349Y0039793D03*
X0311349Y0043337D03*
X0311349Y0046880D03*
X0311349Y0050423D03*
X0311349Y0053967D03*
X0311349Y0057510D03*
X0311349Y0061053D03*
X0311349Y0064596D03*
X0311349Y0068140D03*
X0311349Y0071683D03*
X0311349Y0075226D03*
X0311349Y0078770D03*
X0311349Y0082313D03*
X0311349Y0085856D03*
X0311349Y0089400D03*
X0311349Y0092943D03*
X0311349Y0096486D03*
X0311349Y0100030D03*
X0307806Y0100030D03*
X0304263Y0100030D03*
X0300719Y0100030D03*
X0297176Y0100030D03*
X0287333Y0095305D03*
X0282215Y0089793D03*
X0280247Y0091762D03*
X0271585Y0087431D03*
X0263318Y0087431D03*
X0251900Y0089793D03*
X0266467Y0096880D03*
X0272767Y0100423D03*
X0253081Y0114596D03*
X0253081Y0117746D03*
X0245700Y0122274D03*
X0240286Y0122274D03*
X0236841Y0122274D03*
X0233396Y0122274D03*
X0220109Y0122274D03*
X0206330Y0127687D03*
X0205444Y0131132D03*
X0201408Y0131132D03*
X0203869Y0133593D03*
X0207314Y0133593D03*
X0207314Y0137037D03*
X0187629Y0145896D03*
X0178278Y0147864D03*
X0174833Y0146388D03*
X0170896Y0146388D03*
X0166467Y0146880D03*
X0158593Y0146880D03*
X0154656Y0146880D03*
X0150719Y0146880D03*
X0146782Y0142943D03*
X0142845Y0142943D03*
X0138908Y0146880D03*
X0134971Y0142943D03*
X0131034Y0142943D03*
X0127097Y0142943D03*
X0123160Y0142943D03*
X0123160Y0146880D03*
X0119223Y0146880D03*
X0115286Y0146880D03*
X0115286Y0142943D03*
X0111349Y0142943D03*
X0106231Y0144911D03*
X0099538Y0140974D03*
X0095995Y0142156D03*
X0092845Y0143730D03*
X0089696Y0143730D03*
X0089696Y0146880D03*
X0088515Y0151604D03*
X0085365Y0151998D03*
X0083396Y0154360D03*
X0077885Y0154360D03*
X0074341Y0154360D03*
X0071192Y0154360D03*
X0064105Y0154754D03*
X0058200Y0150423D03*
X0055050Y0150423D03*
X0058200Y0144124D03*
X0055050Y0141368D03*
X0055050Y0138219D03*
X0058200Y0138415D03*
X0052688Y0135069D03*
X0043436Y0129656D03*
X0038515Y0133100D03*
X0054066Y0123061D03*
X0054656Y0119321D03*
X0061743Y0116762D03*
X0064105Y0114596D03*
X0067255Y0121683D03*
X0072767Y0121683D03*
X0073948Y0127982D03*
X0070798Y0128376D03*
X0067648Y0135659D03*
X0068042Y0139990D03*
X0070404Y0142156D03*
X0073554Y0143730D03*
X0074735Y0140581D03*
X0072176Y0136841D03*
X0066074Y0144518D03*
X0066467Y0149636D03*
X0070011Y0149636D03*
X0084971Y0144911D03*
X0094814Y0151604D03*
X0097963Y0151604D03*
X0101113Y0150030D03*
X0097176Y0145305D03*
X0102885Y0138022D03*
X0102294Y0129163D03*
X0106920Y0126998D03*
X0103081Y0124833D03*
X0106625Y0120896D03*
X0105837Y0116171D03*
X0119223Y0119321D03*
X0119223Y0123258D03*
X0119223Y0127195D03*
X0115286Y0127195D03*
X0119223Y0131132D03*
X0115286Y0135069D03*
X0123160Y0139006D03*
X0119223Y0142943D03*
X0111349Y0150817D03*
X0107806Y0155148D03*
X0105444Y0158691D03*
X0107019Y0163022D03*
X0116270Y0158691D03*
X0119223Y0154754D03*
X0121192Y0161152D03*
X0124637Y0159675D03*
X0126507Y0165187D03*
X0133987Y0160659D03*
X0132019Y0157707D03*
X0137924Y0155738D03*
X0138908Y0150817D03*
X0131034Y0150817D03*
X0143830Y0158100D03*
X0146782Y0154754D03*
X0146782Y0150817D03*
X0154656Y0150817D03*
X0158593Y0150817D03*
X0158987Y0155935D03*
X0162530Y0157510D03*
X0166074Y0160659D03*
X0172767Y0159478D03*
X0173062Y0162530D03*
X0176704Y0163415D03*
X0176802Y0157215D03*
X0173062Y0153474D03*
X0185168Y0164104D03*
X0185168Y0167549D03*
X0188613Y0167549D03*
X0188613Y0170994D03*
X0192058Y0170994D03*
X0196782Y0174045D03*
X0200719Y0171683D03*
X0203475Y0171683D03*
X0209381Y0175226D03*
X0212530Y0174833D03*
X0215286Y0175226D03*
X0219617Y0174439D03*
X0228278Y0174439D03*
X0228278Y0171683D03*
X0231034Y0175226D03*
X0233790Y0174833D03*
X0233396Y0169518D03*
X0233396Y0166073D03*
X0236841Y0166073D03*
X0240286Y0166073D03*
X0240286Y0162628D03*
X0243731Y0162628D03*
X0243731Y0159183D03*
X0247668Y0155738D03*
X0253081Y0160659D03*
X0261349Y0152392D03*
X0265680Y0141368D03*
X0261743Y0139006D03*
X0263711Y0137037D03*
X0263711Y0134281D03*
X0270404Y0127195D03*
X0262432Y0124734D03*
X0253081Y0128179D03*
X0253081Y0133593D03*
X0253081Y0137037D03*
X0246684Y0141959D03*
X0244223Y0144419D03*
X0241763Y0146880D03*
X0239302Y0149341D03*
X0234873Y0152096D03*
X0253081Y0170502D03*
X0260562Y0174439D03*
X0238908Y0183494D03*
X0236940Y0185463D03*
X0244420Y0194124D03*
X0251113Y0194124D03*
X0261743Y0193730D03*
X0228377Y0211841D03*
X0206231Y0195699D03*
X0204263Y0193730D03*
X0205444Y0189400D03*
X0203475Y0184281D03*
X0207806Y0182707D03*
X0220404Y0183100D03*
X0223160Y0183100D03*
X0184971Y0184281D03*
X0183593Y0188514D03*
X0176999Y0185167D03*
X0141664Y0198848D03*
X0122373Y0192943D03*
X0141270Y0171683D03*
X0141270Y0162628D03*
X0152885Y0160069D03*
X0154656Y0154754D03*
X0154656Y0142943D03*
X0154656Y0139006D03*
X0158593Y0139006D03*
X0162530Y0139006D03*
X0166467Y0139006D03*
X0170896Y0138514D03*
X0176310Y0138514D03*
X0172865Y0131132D03*
X0166467Y0127195D03*
X0162530Y0131132D03*
X0162530Y0135069D03*
X0154656Y0135069D03*
X0154656Y0131132D03*
X0146782Y0127195D03*
X0150719Y0123258D03*
X0146782Y0119321D03*
X0146782Y0115384D03*
X0138908Y0115384D03*
X0134971Y0115384D03*
X0131034Y0115384D03*
X0127097Y0115384D03*
X0131034Y0119321D03*
X0131034Y0123258D03*
X0127097Y0123258D03*
X0123160Y0123258D03*
X0127097Y0127195D03*
X0127097Y0131132D03*
X0131034Y0131132D03*
X0131034Y0127195D03*
X0134971Y0131132D03*
X0134971Y0135069D03*
X0138908Y0135069D03*
X0134971Y0139006D03*
X0131034Y0139006D03*
X0127097Y0135069D03*
X0138908Y0123258D03*
X0138908Y0111447D03*
X0134971Y0107510D03*
X0127097Y0111447D03*
X0123160Y0111447D03*
X0119223Y0111447D03*
X0105837Y0105148D03*
X0115286Y0103573D03*
X0119223Y0103573D03*
X0119223Y0099636D03*
X0115286Y0095699D03*
X0111349Y0091762D03*
X0118239Y0090285D03*
X0103869Y0087431D03*
X0098751Y0082313D03*
X0089696Y0077982D03*
X0087333Y0075226D03*
X0099932Y0071683D03*
X0108987Y0076014D03*
X0085267Y0057313D03*
X0072963Y0057313D03*
X0067058Y0063711D03*
X0064597Y0066171D03*
X0072963Y0071093D03*
X0055739Y0078474D03*
X0055739Y0081919D03*
X0066074Y0088317D03*
X0051507Y0102785D03*
X0034578Y0097667D03*
X0042452Y0087825D03*
X0038515Y0081919D03*
X0012924Y0071093D03*
X0020798Y0050423D03*
X0032019Y0031230D03*
X0056723Y0052392D03*
X0063121Y0052392D03*
X0075818Y0046978D03*
X0092058Y0034675D03*
X0113318Y0032707D03*
X0125129Y0032707D03*
X0131034Y0032707D03*
X0136940Y0032707D03*
X0142845Y0032707D03*
X0189597Y0050915D03*
X0174538Y0066860D03*
X0164991Y0082805D03*
X0167353Y0084577D03*
X0170798Y0093337D03*
X0162530Y0095699D03*
X0158593Y0095699D03*
X0158593Y0099636D03*
X0162530Y0099636D03*
X0162530Y0103573D03*
X0154656Y0107510D03*
X0150719Y0107510D03*
X0150719Y0103573D03*
X0146782Y0099636D03*
X0142845Y0099636D03*
X0138908Y0099636D03*
X0142845Y0103573D03*
X0146782Y0095699D03*
X0147963Y0090974D03*
X0149538Y0087825D03*
X0153869Y0090187D03*
X0147963Y0083100D03*
X0148751Y0068927D03*
X0188908Y0082313D03*
X0190089Y0112234D03*
X0198751Y0113809D03*
X0205837Y0113907D03*
X0204361Y0122274D03*
X0178770Y0122274D03*
X0162530Y0111447D03*
X0158593Y0111447D03*
X0158593Y0115384D03*
X0131034Y0099636D03*
X0089302Y0121683D03*
X0077491Y0113809D03*
X0073751Y0113219D03*
X0070011Y0106722D03*
X0080641Y0105935D03*
X0087727Y0106722D03*
X0041664Y0116565D03*
X0014893Y0117352D03*
X0015286Y0108691D03*
X0006526Y0160659D03*
X0010168Y0169715D03*
X0010562Y0178376D03*
X0022767Y0185069D03*
X0035365Y0177195D03*
X0040089Y0187037D03*
X0043633Y0193730D03*
X0060956Y0192549D03*
X0068042Y0192156D03*
X0073554Y0188612D03*
X0079853Y0172470D03*
X0084578Y0164203D03*
X0095207Y0172470D03*
X0051507Y0162234D03*
X0043928Y0161152D03*
X0039007Y0165581D03*
X0035562Y0165581D03*
X0032117Y0165581D03*
X0025030Y0162923D03*
X0005050Y0187726D03*
X0007019Y0198848D03*
X0146782Y0139006D03*
X0202688Y0156329D03*
X0270798Y0119321D03*
X0270798Y0116565D03*
X0278672Y0139793D03*
X0293633Y0139006D03*
X0280247Y0152392D03*
X0329853Y0128376D03*
X0297963Y0087825D03*
X0280641Y0080738D03*
X0280641Y0075226D03*
X0288908Y0067352D03*
X0299538Y0059872D03*
X0298357Y0051211D03*
X0298357Y0047274D03*
X0270011Y0030344D03*
X0262530Y0034281D03*
X0261743Y0038612D03*
X0249538Y0033494D03*
X0263318Y0016171D03*
X0264105Y0008297D03*
X0297176Y0007904D03*
X0300719Y0007904D03*
X0304263Y0007904D03*
X0307806Y0007904D03*
X0311349Y0007904D03*
X0311349Y0011447D03*
X0311349Y0014990D03*
X0311349Y0018533D03*
X0311349Y0021683D03*
X0270011Y0068140D03*
X0260562Y0072077D03*
X0242845Y0063809D03*
X0233790Y0063415D03*
X0245207Y0051998D03*
X0226507Y0028770D03*
D64*
X0052688Y0021486D02*
X0047963Y0021486D01*
X0018987Y0083888D02*
X0018987Y0089636D01*
X0011743Y0096880D01*
X0011743Y0098455D01*
X0022767Y0098455D02*
X0022767Y0099242D01*
X0026310Y0102785D01*
X0036349Y0102785D01*
X0037924Y0104360D01*
X0044617Y0104360D02*
X0048357Y0108100D01*
X0048357Y0112234D01*
X0048357Y0161053D01*
X0043830Y0165581D01*
X0043830Y0173652D01*
X0044617Y0174439D01*
X0044617Y0180344D01*
X0047570Y0183297D01*
X0062137Y0183297D01*
X0066861Y0183297D01*
X0068239Y0184675D01*
X0068239Y0188219D01*
X0075719Y0195699D01*
X0081034Y0196093D02*
X0081034Y0193927D01*
X0080837Y0193730D01*
X0081034Y0196093D02*
X0083003Y0198061D01*
X0090877Y0198061D01*
X0092452Y0196486D01*
X0092452Y0192549D01*
X0093633Y0191368D01*
X0095601Y0191368D01*
X0098948Y0191368D01*
X0103278Y0195699D01*
X0092058Y0187825D02*
X0092058Y0181919D01*
X0093633Y0180344D01*
X0098357Y0180344D01*
X0099538Y0181526D01*
X0099538Y0184675D01*
X0092058Y0187825D02*
X0087530Y0192352D01*
X0087530Y0193730D01*
X0073554Y0188612D02*
X0071979Y0187037D01*
X0071979Y0184675D01*
X0052294Y0178967D02*
X0052294Y0177195D01*
X0044617Y0172864D02*
X0043830Y0173652D01*
X0036546Y0183297D02*
X0032412Y0183297D01*
X0030247Y0185463D01*
X0030247Y0192549D02*
X0023948Y0192549D01*
X0022373Y0194124D01*
X0030247Y0192549D02*
X0030247Y0203022D01*
X0034066Y0206841D01*
X0011349Y0194518D02*
X0007019Y0198848D01*
X0011349Y0194518D02*
X0011349Y0194124D01*
X0041664Y0116565D02*
X0037333Y0112234D01*
D65*
X0051507Y0102785D02*
X0052491Y0103770D01*
X0055444Y0103770D01*
X0063515Y0103770D01*
X0066861Y0107116D02*
X0064105Y0109872D01*
X0063515Y0110463D02*
X0055444Y0110463D01*
X0057806Y0112825D01*
X0057806Y0119321D01*
X0066861Y0107116D02*
X0066861Y0100423D01*
X0065286Y0098848D01*
X0063318Y0098848D01*
X0061940Y0097471D01*
X0061940Y0093731D01*
X0061940Y0076998D01*
X0040089Y0055148D01*
X0039893Y0055344D01*
X0031428Y0055344D01*
X0031428Y0057313D02*
X0024144Y0057313D01*
X0020798Y0053967D01*
X0015286Y0053967D01*
X0012924Y0051604D01*
X0012924Y0050030D01*
X0012924Y0043140D01*
X0011743Y0043435D01*
X0016664Y0045207D02*
X0018436Y0043435D01*
X0018436Y0035463D01*
X0016664Y0045207D02*
X0016664Y0050030D01*
X0012924Y0055541D02*
X0009184Y0051801D01*
X0009184Y0050030D01*
X0012924Y0055541D02*
X0020011Y0055541D01*
X0023751Y0059282D01*
X0031428Y0059282D01*
X0031428Y0061250D02*
X0023357Y0061250D01*
X0019223Y0057116D01*
X0010562Y0057116D01*
X0009184Y0058494D01*
X0009184Y0061053D01*
X0009184Y0066073D01*
X0009479Y0066860D01*
X0009479Y0075226D02*
X0009479Y0083396D01*
X0008987Y0083888D01*
X0016172Y0075226D02*
X0020011Y0075226D01*
X0024735Y0079951D01*
X0024735Y0084872D01*
X0030247Y0090384D01*
X0016172Y0075226D02*
X0016664Y0074636D01*
X0020011Y0071289D01*
X0020011Y0069026D01*
X0020798Y0068238D01*
X0025916Y0068238D01*
X0026704Y0067451D01*
X0026704Y0065187D01*
X0031428Y0065187D01*
X0031427Y0071093D02*
X0031428Y0071093D01*
X0038712Y0071093D01*
X0038908Y0071289D01*
X0051507Y0060266D02*
X0042254Y0051013D01*
X0042254Y0046486D01*
X0044223Y0046486D02*
X0044223Y0050620D01*
X0052294Y0058691D01*
X0064893Y0058691D01*
X0072373Y0051211D01*
X0098751Y0051211D01*
X0093436Y0058100D02*
X0088613Y0053278D01*
X0072668Y0053278D01*
X0065680Y0060266D01*
X0051507Y0060266D01*
X0050326Y0051604D02*
X0050128Y0051407D01*
X0050128Y0046486D01*
X0052097Y0046486D02*
X0052097Y0032510D01*
X0047570Y0027982D01*
X0043633Y0027982D01*
X0040286Y0024636D01*
X0040286Y0021486D01*
X0042845Y0021486D02*
X0042845Y0024833D01*
X0044420Y0026407D01*
X0048357Y0026407D01*
X0054065Y0032116D01*
X0054065Y0046486D01*
X0056034Y0046486D02*
X0056034Y0042352D01*
X0057019Y0041368D01*
X0058593Y0041368D01*
X0065877Y0034085D01*
X0065877Y0032904D01*
X0074243Y0032904D01*
X0075522Y0032904D01*
X0082019Y0026407D01*
X0085562Y0021683D02*
X0082019Y0018140D01*
X0085562Y0021683D02*
X0101900Y0021683D01*
X0109381Y0029163D01*
X0109381Y0038455D01*
X0111349Y0038455D02*
X0111349Y0044518D01*
X0107412Y0048455D01*
X0107412Y0056329D01*
X0108987Y0057904D01*
X0108987Y0064006D01*
X0112727Y0067746D01*
X0119420Y0067746D02*
X0119420Y0059478D01*
X0119420Y0051211D01*
X0119223Y0051407D01*
X0119223Y0045305D01*
X0117255Y0044124D02*
X0112924Y0048455D01*
X0112924Y0051407D01*
X0112727Y0051211D01*
X0108987Y0049242D02*
X0108987Y0055738D01*
X0112727Y0059478D01*
X0119420Y0067746D02*
X0119420Y0076014D01*
X0109381Y0093730D02*
X0108987Y0094124D01*
X0101310Y0094124D02*
X0101310Y0102392D01*
X0098160Y0105935D02*
X0094617Y0102392D01*
X0094617Y0094124D01*
X0089105Y0094124D02*
X0089105Y0102392D01*
X0082412Y0102392D02*
X0082412Y0094124D01*
X0078672Y0082891D02*
X0072976Y0082891D01*
X0072767Y0083100D01*
X0052294Y0088612D02*
X0052097Y0088809D01*
X0052097Y0093731D01*
X0098160Y0105935D02*
X0105050Y0105935D01*
X0105837Y0105148D01*
X0055050Y0141368D02*
X0052491Y0143927D01*
X0052491Y0156329D01*
X0055247Y0159085D01*
X0059971Y0163809D01*
X0059971Y0167352D01*
X0067452Y0167746D02*
X0067452Y0159085D01*
X0061940Y0159085D02*
X0055050Y0152195D01*
X0055050Y0150423D01*
X0085365Y0151998D02*
X0092255Y0158888D01*
X0092255Y0159085D01*
X0092255Y0167352D01*
X0130444Y0189793D02*
X0114066Y0206171D01*
X0114066Y0206841D01*
X0137924Y0175620D02*
X0137924Y0175030D01*
X0141270Y0171683D01*
X0137924Y0168337D01*
X0141270Y0162628D02*
X0144617Y0165974D01*
X0144617Y0167352D02*
X0144617Y0175620D01*
X0182215Y0058691D02*
X0183298Y0057313D01*
X0222471Y0019419D02*
X0225522Y0022470D01*
X0225522Y0012234D02*
X0224735Y0011447D01*
X0117255Y0038455D02*
X0117255Y0044124D01*
X0115286Y0042943D02*
X0108987Y0049242D01*
X0115286Y0042943D02*
X0115286Y0038455D01*
X0092648Y0026112D02*
X0092353Y0026407D01*
X0088711Y0026407D01*
X0088711Y0018140D02*
X0093475Y0018140D01*
X0096192Y0015423D01*
X0074243Y0032904D02*
X0073357Y0032904D01*
X0079263Y0037431D02*
X0066467Y0037431D01*
X0061939Y0041959D01*
X0061939Y0046486D01*
X0065877Y0046486D02*
X0065877Y0041958D01*
X0066467Y0041368D01*
X0071585Y0041368D01*
X0073160Y0042943D01*
X0077688Y0042943D01*
X0077786Y0043041D01*
X0079263Y0037431D02*
X0082019Y0034675D01*
X0084479Y0043041D02*
X0085956Y0043041D01*
X0088318Y0045404D01*
X0057511Y0038120D02*
X0057511Y0034478D01*
X0057511Y0038120D02*
X0056625Y0039006D01*
X0046093Y0039203D02*
X0037727Y0039203D01*
X0035463Y0039203D01*
X0030739Y0043435D01*
D66*
X0148751Y0068927D02*
X0148751Y0072274D01*
X0149144Y0072667D01*
X0149144Y0079360D02*
X0147963Y0080541D01*
X0147963Y0083100D01*
X0025522Y0143730D02*
X0008593Y0160659D01*
X0006526Y0160659D01*
D67*
X0036546Y0187037D02*
X0040089Y0187037D01*
X0042452Y0188415D02*
X0042452Y0190581D01*
X0038908Y0194124D01*
X0038908Y0216053D01*
X0039696Y0216841D01*
X0075719Y0195699D02*
X0078869Y0195699D01*
X0080837Y0193730D01*
X0083593Y0189793D02*
X0074735Y0189793D01*
X0073554Y0188612D01*
X0075719Y0184675D02*
X0075719Y0181722D01*
X0073948Y0179951D01*
X0069617Y0179951D01*
X0067255Y0177589D01*
X0067255Y0176407D01*
X0060168Y0176407D02*
X0053081Y0176407D01*
X0052294Y0177195D01*
X0059971Y0175817D02*
X0059971Y0171289D01*
X0059971Y0167352D01*
X0059971Y0175817D02*
X0060168Y0176407D01*
X0047570Y0183297D02*
X0042452Y0188415D01*
X0083593Y0189793D02*
X0087530Y0193730D01*
X0103278Y0184675D02*
X0104656Y0183297D01*
X0104656Y0176014D01*
X0097570Y0176014D02*
X0097570Y0174833D01*
X0095207Y0172470D01*
X0092255Y0175423D01*
X0092255Y0175620D01*
X0095207Y0172470D02*
X0099932Y0167746D01*
X0099932Y0167352D01*
X0085562Y0167352D02*
X0085562Y0175620D01*
X0084578Y0166762D02*
X0084578Y0164203D01*
X0099932Y0156329D02*
X0101113Y0155148D01*
X0107806Y0155148D01*
X0008987Y0083888D02*
X0005837Y0080738D01*
X0005837Y0034085D01*
X0008003Y0031919D01*
X0023160Y0031919D01*
X0028672Y0026407D01*
X0035759Y0026407D01*
X0037727Y0024439D01*
X0037727Y0021486D01*
X0278160Y0176211D02*
X0288622Y0176211D01*
D68*
X0257806Y0174439D03*
X0089302Y0133100D03*
X0067845Y0129754D03*
X0055050Y0128770D03*
X0052294Y0088612D03*
X0072767Y0083100D03*
X0048652Y0072569D03*
X0038908Y0071289D03*
X0040089Y0055148D03*
X0050326Y0051604D03*
X0059774Y0052392D03*
X0071487Y0061250D03*
X0088318Y0045404D03*
X0092648Y0026112D03*
X0119223Y0045305D03*
X0056625Y0039006D03*
X0024243Y0039793D03*
D69*
X0034066Y0216841D02*
X0039696Y0216841D01*
X0044066Y0216841D01*
D70*
X0154656Y0123258D03*
X0201507Y0119321D03*
M02*
