%
M48
M72
T01C0.01200
T02C0.01201
T03C0.03346
T04C0.03600
T05C0.03937
T06C0.04000
T07C0.04528
T08C0.05118
T09C0.05512
T10C0.06693
T11C0.09100
T12C0.10827
%
T01
X50809Y31230
X39589Y50423
X31715Y71093
X57306Y81919
X61243Y87825
X74530Y81919
X74530Y78474
X84865Y88317
X91754Y71093
X83388Y66171
X85849Y63711
X91262Y57313
X81912Y52392
X75514Y52392
X94609Y46978
X104057Y57313
X107502Y57313
X115180Y71289
X122660Y76801
X127778Y76014
X122660Y85069
X130140Y91762
X134077Y95699
X138014Y99636
X138014Y103573
X134077Y103573
X124628Y105148
X138014Y111447
X141951Y111447
X145888Y111447
X145888Y115384
X149825Y115384
X153762Y115384
X157699Y115384
X157699Y111447
X153762Y107510
X161636Y103573
X161636Y99636
X165573Y99636
X165573Y95699
X166754Y90974
X172660Y90187
X168329Y87825
X166754Y83100
X186144Y84577
X189589Y93337
X181321Y95699
X177384Y95699
X177384Y99636
X181321Y99636
X181321Y103573
X173447Y107510
X169510Y107510
X169510Y103573
X177384Y111447
X177384Y115384
X181321Y111447
X165573Y115384
X165573Y119321
X169510Y123258
X165573Y127195
X173447Y131132
X173447Y135069
X173447Y139006
X177384Y139006
X181321Y139006
X185258Y139006
X189687Y138514
X195101Y138514
X193624Y146388
X197069Y147864
X189687Y146388
X185258Y146880
X177384Y146880
X173447Y146880
X169510Y146880
X165573Y142943
X161636Y142943
X157699Y146880
X153762Y142943
X149825Y142943
X145888Y142943
X141951Y142943
X138014Y142943
X134077Y142943
X130140Y142943
X125022Y144911
X118329Y140974
X114786Y142156
X111636Y143730
X108487Y143730
X108487Y146880
X103762Y144911
X107306Y151604
X104156Y151998
X102187Y154360
X96676Y154360
X93132Y154360
X89983Y154360
X82896Y154754
X85258Y149636
X88802Y149636
X84865Y144518
X89195Y142156
X86833Y139990
X90967Y136841
X86439Y135659
X89589Y128376
X92739Y127982
X91557Y121683
X86046Y121683
X80534Y116762
X82896Y114596
X92542Y113219
X96282Y113809
X88802Y106722
X99431Y105935
X106518Y106722
X124628Y116171
X125416Y120896
X121872Y124833
X121085Y129163
X125711Y126998
X134077Y127195
X138014Y127195
X138014Y131132
X134077Y135069
X141951Y139006
X145888Y135069
X145888Y131132
X145888Y127195
X149825Y127195
X149825Y131132
X153762Y131132
X153762Y135069
X157699Y135069
X153762Y139006
X149825Y139006
X141951Y146880
X138014Y146880
X134077Y146880
X130140Y150817
X126597Y155148
X122660Y158691
X125809Y163022
X135061Y158691
X138014Y154754
X143428Y159675
X139983Y161152
X144904Y165581
X152778Y160659
X150809Y157707
X156715Y155738
X157699Y150817
X149825Y150817
X162620Y158100
X165573Y154754
X165573Y150817
X173447Y150817
X177384Y150817
X177778Y155935
X181321Y157510
X185258Y162628
X192739Y161053
X198546Y164104
X203959Y164104
X203959Y167549
X207404Y167549
X207404Y170994
X210849Y170994
X220199Y172470
X223644Y172470
X228073Y174439
X232010Y174439
X238408Y174439
X243821Y174439
X250219Y174439
X253664Y174439
X257601Y174439
X252187Y169518
X252187Y166073
X255632Y166073
X259077Y166073
X259077Y162628
X262522Y162628
X262522Y159183
X266459Y155738
X258093Y149341
X260554Y146880
X263014Y144419
X265475Y141959
X271872Y137037
X271872Y133593
X271872Y128179
X281223Y128179
X281223Y124734
X288605Y132608
X267935Y122274
X264491Y122274
X259077Y122274
X255632Y122274
X252187Y122274
X253172Y113415
X250711Y110955
X253172Y103081
X250711Y100620
X272365Y116860
X238900Y122274
X225120Y127687
X220199Y127687
X220199Y131132
X222660Y133593
X226105Y133593
X226105Y137037
X206420Y145896
X191853Y153474
X195593Y157215
X193132Y171683
X196577Y184774
X203959Y189695
X205928Y184281
X222168Y190778
X246774Y183297
X256124Y185856
X266754Y188219
X269904Y194124
X280534Y193730
X302581Y179557
X317148Y166565
X337227Y153967
X347857Y158297
X288998Y151900
X282207Y159183
X271872Y170502
X241853Y153278
X191656Y131132
X185258Y127195
X181321Y131132
X181321Y135069
X173447Y142943
X165573Y139006
X157699Y123258
X149825Y123258
X145888Y123258
X141951Y123258
X138014Y123258
X138014Y119321
X149825Y119321
X121676Y138022
X115967Y145305
X119904Y150030
X116754Y151604
X113605Y151604
X92345Y143730
X93526Y140581
X76991Y138415
X73841Y138219
X71479Y135069
X73841Y141368
X76991Y144124
X76991Y150423
X73841Y150423
X70298Y162628
X62719Y161152
X57798Y165581
X54353Y165581
X50908Y165581
X50908Y162136
X54156Y177195
X62817Y189006
X79746Y190974
X99038Y188612
X106518Y174439
X96282Y166565
X125416Y172470
X160061Y171683
X160061Y162628
X171676Y160069
X173447Y154754
X197561Y122274
X208880Y112234
X217542Y113809
X224628Y113907
X223152Y122274
X276991Y86644
X281715Y75522
X293526Y80935
X301400Y80935
X316361Y82707
X309274Y69124
X307306Y56329
X290573Y42057
X293526Y38120
X301400Y38612
X285160Y41565
X274628Y40581
X285160Y49439
X272266Y54360
X261636Y46486
X246676Y50423
X263211Y62234
X269510Y70896
X284668Y63711
X284865Y31132
X281715Y16959
X245298Y28770
X208388Y50915
X193329Y66860
X186144Y66270
X167542Y68927
X137030Y90285
X149825Y99636
X157699Y99636
X108093Y121683
X73447Y119321
X72857Y123061
X60258Y119813
X56124Y116959
X35652Y117352
X33683Y111447
X53369Y97667
X68329Y102785
X23841Y89793
X132109Y32707
X143920Y32707
X149825Y32707
X155731Y32707
X161636Y32707
X207699Y82313
X342246Y81427
X346676Y87825
X342739Y198061
X248743Y211841
X138408Y196093
X37227Y185856
X23841Y187726
X25317Y160659
T02
X73841Y128770
X86636Y129754
X108093Y133100
X71085Y88612
X91557Y83100
X67443Y72569
X57699Y71289
X58880Y55148
X69117Y51604
X78565Y52392
X88309Y61250
X107109Y45404
X138014Y46880
X111439Y26112
X75416Y39006
X43034Y39006
X276597Y174439
T03
X71479Y21486
X51794Y21486
T04
X296951Y105344
X307413Y105344
X307413Y115187
X296951Y115187
X296951Y123061
X307413Y123061
X307266Y132904
X296951Y132904
T05
X323054Y181329
X323054Y199045
T06
X295494Y195502
X295494Y185502
X242857Y206841
X232857Y206841
X222857Y206841
X212857Y206841
X202857Y206841
X192857Y206841
X182857Y206841
X172857Y206841
X162857Y206841
X152857Y206841
X142857Y206841
X132857Y206841
X122857Y206841
X112857Y206841
X102857Y206841
X92857Y206841
X82857Y206841
X72857Y206841
X62857Y206841
X52857Y206841
X52857Y216841
X62857Y216841
X72857Y216841
X82857Y216841
X92857Y216841
X102857Y216841
X112857Y216841
X122857Y216841
X132857Y216841
X142857Y216841
X152857Y216841
X162857Y216841
X172857Y216841
X182857Y216841
X192857Y216841
X202857Y216841
X212857Y216841
X222857Y216841
X232857Y216841
X242857Y216841
X37778Y83888
X27778Y83888
T07
X47857Y10856
X75416Y10856
T08
X313211Y176407
X313211Y203967
T09
X174431Y34715
X176794Y15423
X117345Y34715
X114983Y15423
T10
X230534Y26801
X230534Y54360
T11
X295573Y93337
X317935Y93337
X317935Y144911
X295573Y144911
T12
X33683Y18927
X262030Y18927
X262030Y211841
X33683Y211841
M30
