%
M48
M72
T01C0.01200
T02C0.01201
T03C0.01230
T04C0.03346
T05C0.03600
T06C0.03937
T07C0.04000
T08C0.04528
T09C0.05118
T10C0.06693
T11C0.09100
T12C0.10827
%
T01
X32019Y31230
X20798Y50423
X12924Y71093
X38515Y81919
X42452Y87825
X34578Y97667
X51507Y102785
X64105Y114596
X61743Y116762
X67255Y121683
X72767Y121683
X73948Y127982
X70798Y128376
X67648Y135659
X68042Y139990
X70404Y142156
X73554Y143730
X74735Y140581
X72176Y136841
X66074Y144518
X66467Y149636
X70011Y149636
X71192Y154360
X74341Y154360
X77885Y154360
X83396Y154360
X85365Y151998
X88515Y151604
X89696Y146880
X89696Y143730
X92845Y143730
X95995Y142156
X99538Y140974
X102885Y138022
X106231Y144911
X111349Y142943
X115286Y142943
X115286Y146880
X119223Y146880
X119223Y142943
X123160Y142943
X123160Y146880
X127097Y142943
X131034Y142943
X134971Y142943
X138908Y146880
X142845Y142943
X146782Y142943
X150719Y146880
X154656Y146880
X154656Y142943
X158593Y146880
X158593Y150817
X154656Y150817
X154656Y154754
X158987Y155935
X162530Y157510
X166074Y160659
X172767Y159478
X173062Y162530
X176704Y163415
X176802Y157215
X173062Y153474
X178278Y147864
X174833Y146388
X170896Y146388
X166467Y146880
X166467Y139006
X162530Y139006
X158593Y139006
X154656Y139006
X154656Y135069
X154656Y131132
X162530Y131132
X166467Y127195
X172865Y131132
X178770Y122274
X190089Y112234
X198751Y113809
X205837Y113907
X204361Y122274
X206330Y127687
X205444Y131132
X201408Y131132
X203869Y133593
X207314Y133593
X207314Y137037
X187629Y145896
X176310Y138514
X170896Y138514
X162530Y135069
X146782Y139006
X138908Y135069
X134971Y135069
X134971Y139006
X131034Y139006
X127097Y135069
X127097Y131132
X127097Y127195
X131034Y127195
X131034Y131132
X134971Y131132
X131034Y123258
X127097Y123258
X123160Y123258
X119223Y123258
X119223Y127195
X115286Y127195
X119223Y131132
X115286Y135069
X123160Y139006
X131034Y150817
X138908Y150817
X137924Y155738
X132019Y157707
X133987Y160659
X141270Y162628
X143830Y158100
X146782Y154754
X146782Y150817
X152885Y160069
X141270Y171683
X126507Y165187
X124637Y159675
X121192Y161152
X116270Y158691
X119223Y154754
X111349Y150817
X107806Y155148
X105444Y158691
X107019Y163022
X95207Y172470
X84578Y164203
X79853Y172470
X73554Y188612
X68042Y192156
X60956Y192549
X43633Y193730
X40089Y187037
X35365Y177195
X22767Y185069
X10562Y178376
X10168Y169715
X6526Y160659
X25030Y162923
X32117Y165581
X35562Y165581
X39007Y165581
X43928Y161152
X51507Y162234
X64105Y154754
X58200Y150423
X55050Y150423
X58200Y144124
X55050Y141368
X55050Y138219
X58200Y138415
X52688Y135069
X43436Y129656
X38515Y133100
X54066Y123061
X54656Y119321
X41664Y116565
X14893Y117352
X15286Y108691
X55739Y81919
X55739Y78474
X66074Y88317
X87333Y75226
X89696Y77982
X98751Y82313
X103869Y87431
X111349Y91762
X115286Y95699
X119223Y99636
X119223Y103573
X115286Y103573
X105837Y105148
X119223Y111447
X123160Y111447
X127097Y111447
X127097Y115384
X131034Y115384
X131034Y119321
X134971Y115384
X138908Y115384
X138908Y111447
X134971Y107510
X142845Y103573
X142845Y99636
X138908Y99636
X131034Y99636
X118239Y90285
X108987Y76014
X99932Y71683
X85267Y57313
X72963Y57313
X67058Y63711
X64597Y66171
X72963Y71093
X63121Y52392
X56723Y52392
X75818Y46978
X92058Y34675
X114302Y32707
X126113Y32904
X132019Y32707
X137924Y32707
X143830Y32707
X189597Y50915
X174538Y66860
X164991Y82805
X167353Y84577
X170798Y93337
X162530Y95699
X158593Y95699
X158593Y99636
X162530Y99636
X162530Y103573
X154656Y107510
X150719Y107510
X150719Y103573
X146782Y99636
X146782Y95699
X147963Y90974
X149538Y87825
X153869Y90187
X147963Y83100
X148751Y68927
X188908Y82313
X162530Y111447
X158593Y111447
X158593Y115384
X150719Y123258
X146782Y127195
X138908Y123258
X146782Y119321
X146782Y115384
X119223Y119321
X106625Y120896
X105837Y116171
X103081Y124833
X106920Y126998
X102294Y129163
X89302Y121683
X77491Y113809
X73751Y113219
X70011Y106722
X80641Y105935
X87727Y106722
X84971Y144911
X94814Y151604
X97963Y151604
X101113Y150030
X97176Y145305
X122373Y192943
X141664Y198848
X176999Y185167
X183593Y188514
X184971Y184281
X196782Y174045
X200719Y171683
X203475Y171683
X209381Y175226
X212530Y174833
X215286Y175226
X219617Y174439
X228278Y174439
X228278Y171683
X231034Y175226
X233790Y174833
X233396Y169518
X233396Y166073
X236841Y166073
X240286Y166073
X240286Y162628
X243731Y162628
X243731Y159183
X247668Y155738
X253081Y160659
X261349Y152392
X265680Y141368
X261743Y139006
X263711Y137037
X263711Y134281
X270404Y127195
X262432Y124734
X253081Y128179
X245700Y122274
X240286Y122274
X236841Y122274
X233396Y122274
X220109Y122274
X246684Y141959
X244223Y144419
X241763Y146880
X239302Y149341
X234873Y152096
X253081Y137037
X253081Y133593
X253081Y117746
X253081Y114596
X270798Y116565
X270798Y119321
X272767Y100423
X266467Y96880
X280247Y91762
X282215Y89793
X287333Y95305
X297176Y100030
X300719Y100030
X304263Y100030
X307806Y100030
X311349Y100030
X311349Y96486
X311349Y92943
X311349Y89400
X311349Y85856
X311349Y82313
X311349Y78770
X311349Y75226
X311349Y71683
X311349Y68140
X311349Y64596
X311349Y61053
X311349Y57510
X311349Y53967
X311349Y50423
X311349Y46880
X311349Y43337
X311349Y39793
X311349Y31526
X301900Y27982
X298751Y31132
X295995Y31132
X294026Y33100
X292058Y31132
X289302Y31132
X270011Y30344
X262530Y34281
X261743Y38612
X249538Y33494
X263318Y16171
X264105Y8297
X297176Y7904
X300719Y7904
X304263Y7904
X307806Y7904
X311349Y7904
X311349Y11447
X311349Y14990
X311349Y18533
X311349Y21683
X298357Y47274
X298357Y51211
X299538Y59872
X288908Y67352
X280641Y75226
X280641Y80738
X271585Y87431
X263318Y87431
X251900Y89793
X260562Y72077
X270011Y68140
X242845Y63809
X233790Y63415
X245207Y51998
X226507Y28770
X297963Y87825
X329853Y128376
X293633Y139006
X278672Y139793
X280247Y152392
X253081Y170502
X260562Y174439
X238908Y183494
X236940Y185463
X244420Y194124
X251113Y194124
X261743Y193730
X228377Y211841
X206231Y195699
X204263Y193730
X205444Y189400
X203475Y184281
X207806Y182707
X220404Y183100
X223160Y183100
X192058Y170994
X188613Y170994
X188613Y167549
X185168Y167549
X185168Y164104
X202688Y156329
X7019Y198848
X5050Y187726
T02
X67845Y129754
X55050Y128770
X89302Y133100
X52294Y88612
X72767Y83100
X48652Y72569
X38908Y71289
X40089Y55148
X50326Y51604
X59774Y52392
X71487Y61250
X88318Y45404
X92648Y26112
X119223Y47274
X56625Y39006
X24243Y39793
X257806Y174439
T03
X201507Y119321
X154656Y123258
T04
X52688Y21486
X33003Y21486
T05
X278160Y176211
X288622Y176211
X288622Y186053
X278160Y186053
X278160Y193927
X288622Y193927
X288475Y203770
X278160Y203770
T06
X310168Y128179
X310168Y110463
T07
X263711Y206526
X263711Y216526
X224066Y216841
X214066Y216841
X204066Y216841
X194066Y216841
X184066Y216841
X174066Y216841
X164066Y216841
X154066Y216841
X144066Y216841
X134066Y216841
X124066Y216841
X114066Y216841
X104066Y216841
X94066Y216841
X84066Y216841
X74066Y216841
X64066Y216841
X54066Y216841
X44066Y216841
X34066Y216841
X34066Y206841
X44066Y206841
X54066Y206841
X64066Y206841
X74066Y206841
X84066Y206841
X94066Y206841
X104066Y206841
X114066Y206841
X124066Y206841
X134066Y206841
X144066Y206841
X154066Y206841
X164066Y206841
X174066Y206841
X184066Y206841
X194066Y206841
X204066Y206841
X214066Y206841
X224066Y206841
X18987Y83888
X8987Y83888
T08
X29066Y10856
X56625Y10856
T09
X96192Y15423
X98554Y34715
X155641Y34715
X158003Y15423
X300326Y105541
X300326Y133100
T10
X211743Y54360
X211743Y26801
T11
X276782Y164203
X299144Y164203
X299144Y215778
X276782Y215778
T12
X14893Y18927
X243239Y18927
X243239Y211841
X14893Y211841
M30
