G75*
%MOIN*%
%OFA0B0*%
%FSLAX25Y25*%
%IPPOS*%
%LPD*%
%AMOC8*
5,1,8,0,0,1.08239X$1,22.5*
%
%ADD10C,0.00000*%
%ADD11C,0.11627*%
%ADD12C,0.04429*%
%ADD13C,0.06200*%
%ADD14C,0.13900*%
%ADD15C,0.09068*%
%ADD16C,0.05820*%
%ADD17C,0.07591*%
%ADD18R,0.07300X0.07300*%
%ADD19C,0.07300*%
%ADD20R,0.06312X0.07887*%
%ADD21R,0.08280X0.06312*%
%ADD22R,0.06706X0.03950*%
%ADD23C,0.07493*%
%ADD24C,0.08200*%
%ADD25C,0.06706*%
%ADD26C,0.08477*%
D10*
X0019904Y0016959D02*
X0019904Y0213809D01*
X0019907Y0214094D01*
X0019918Y0214380D01*
X0019935Y0214665D01*
X0019959Y0214949D01*
X0019990Y0215233D01*
X0020028Y0215516D01*
X0020073Y0215797D01*
X0020124Y0216078D01*
X0020182Y0216358D01*
X0020247Y0216636D01*
X0020319Y0216912D01*
X0020397Y0217186D01*
X0020482Y0217459D01*
X0020574Y0217729D01*
X0020672Y0217997D01*
X0020776Y0218263D01*
X0020887Y0218526D01*
X0021004Y0218786D01*
X0021127Y0219044D01*
X0021257Y0219298D01*
X0021393Y0219549D01*
X0021534Y0219797D01*
X0021682Y0220041D01*
X0021835Y0220282D01*
X0021995Y0220518D01*
X0022160Y0220751D01*
X0022330Y0220980D01*
X0022506Y0221205D01*
X0022688Y0221425D01*
X0022874Y0221641D01*
X0023066Y0221852D01*
X0023263Y0222059D01*
X0023465Y0222261D01*
X0023672Y0222458D01*
X0023883Y0222650D01*
X0024099Y0222836D01*
X0024319Y0223018D01*
X0024544Y0223194D01*
X0024773Y0223364D01*
X0025006Y0223529D01*
X0025242Y0223689D01*
X0025483Y0223842D01*
X0025727Y0223990D01*
X0025975Y0224131D01*
X0026226Y0224267D01*
X0026480Y0224397D01*
X0026738Y0224520D01*
X0026998Y0224637D01*
X0027261Y0224748D01*
X0027527Y0224852D01*
X0027795Y0224950D01*
X0028065Y0225042D01*
X0028338Y0225127D01*
X0028612Y0225205D01*
X0028888Y0225277D01*
X0029166Y0225342D01*
X0029446Y0225400D01*
X0029727Y0225451D01*
X0030008Y0225496D01*
X0030291Y0225534D01*
X0030575Y0225565D01*
X0030859Y0225589D01*
X0031144Y0225606D01*
X0031430Y0225617D01*
X0031715Y0225620D01*
X0342739Y0225620D01*
X0343024Y0225617D01*
X0343310Y0225606D01*
X0343595Y0225589D01*
X0343879Y0225565D01*
X0344163Y0225534D01*
X0344446Y0225496D01*
X0344727Y0225451D01*
X0345008Y0225400D01*
X0345288Y0225342D01*
X0345566Y0225277D01*
X0345842Y0225205D01*
X0346116Y0225127D01*
X0346389Y0225042D01*
X0346659Y0224950D01*
X0346927Y0224852D01*
X0347193Y0224748D01*
X0347456Y0224637D01*
X0347716Y0224520D01*
X0347974Y0224397D01*
X0348228Y0224267D01*
X0348479Y0224131D01*
X0348727Y0223990D01*
X0348971Y0223842D01*
X0349212Y0223689D01*
X0349448Y0223529D01*
X0349681Y0223364D01*
X0349910Y0223194D01*
X0350135Y0223018D01*
X0350355Y0222836D01*
X0350571Y0222650D01*
X0350782Y0222458D01*
X0350989Y0222261D01*
X0351191Y0222059D01*
X0351388Y0221852D01*
X0351580Y0221641D01*
X0351766Y0221425D01*
X0351948Y0221205D01*
X0352124Y0220980D01*
X0352294Y0220751D01*
X0352459Y0220518D01*
X0352619Y0220282D01*
X0352772Y0220041D01*
X0352920Y0219797D01*
X0353061Y0219549D01*
X0353197Y0219298D01*
X0353327Y0219044D01*
X0353450Y0218786D01*
X0353567Y0218526D01*
X0353678Y0218263D01*
X0353782Y0217997D01*
X0353880Y0217729D01*
X0353972Y0217459D01*
X0354057Y0217186D01*
X0354135Y0216912D01*
X0354207Y0216636D01*
X0354272Y0216358D01*
X0354330Y0216078D01*
X0354381Y0215797D01*
X0354426Y0215516D01*
X0354464Y0215233D01*
X0354495Y0214949D01*
X0354519Y0214665D01*
X0354536Y0214380D01*
X0354547Y0214094D01*
X0354550Y0213809D01*
X0354550Y0016959D01*
X0354547Y0016674D01*
X0354536Y0016388D01*
X0354519Y0016103D01*
X0354495Y0015819D01*
X0354464Y0015535D01*
X0354426Y0015252D01*
X0354381Y0014971D01*
X0354330Y0014690D01*
X0354272Y0014410D01*
X0354207Y0014132D01*
X0354135Y0013856D01*
X0354057Y0013582D01*
X0353972Y0013309D01*
X0353880Y0013039D01*
X0353782Y0012771D01*
X0353678Y0012505D01*
X0353567Y0012242D01*
X0353450Y0011982D01*
X0353327Y0011724D01*
X0353197Y0011470D01*
X0353061Y0011219D01*
X0352920Y0010971D01*
X0352772Y0010727D01*
X0352619Y0010486D01*
X0352459Y0010250D01*
X0352294Y0010017D01*
X0352124Y0009788D01*
X0351948Y0009563D01*
X0351766Y0009343D01*
X0351580Y0009127D01*
X0351388Y0008916D01*
X0351191Y0008709D01*
X0350989Y0008507D01*
X0350782Y0008310D01*
X0350571Y0008118D01*
X0350355Y0007932D01*
X0350135Y0007750D01*
X0349910Y0007574D01*
X0349681Y0007404D01*
X0349448Y0007239D01*
X0349212Y0007079D01*
X0348971Y0006926D01*
X0348727Y0006778D01*
X0348479Y0006637D01*
X0348228Y0006501D01*
X0347974Y0006371D01*
X0347716Y0006248D01*
X0347456Y0006131D01*
X0347193Y0006020D01*
X0346927Y0005916D01*
X0346659Y0005818D01*
X0346389Y0005726D01*
X0346116Y0005641D01*
X0345842Y0005563D01*
X0345566Y0005491D01*
X0345288Y0005426D01*
X0345008Y0005368D01*
X0344727Y0005317D01*
X0344446Y0005272D01*
X0344163Y0005234D01*
X0343879Y0005203D01*
X0343595Y0005179D01*
X0343310Y0005162D01*
X0343024Y0005151D01*
X0342739Y0005148D01*
X0031715Y0005148D01*
X0031430Y0005151D01*
X0031144Y0005162D01*
X0030859Y0005179D01*
X0030575Y0005203D01*
X0030291Y0005234D01*
X0030008Y0005272D01*
X0029727Y0005317D01*
X0029446Y0005368D01*
X0029166Y0005426D01*
X0028888Y0005491D01*
X0028612Y0005563D01*
X0028338Y0005641D01*
X0028065Y0005726D01*
X0027795Y0005818D01*
X0027527Y0005916D01*
X0027261Y0006020D01*
X0026998Y0006131D01*
X0026738Y0006248D01*
X0026480Y0006371D01*
X0026226Y0006501D01*
X0025975Y0006637D01*
X0025727Y0006778D01*
X0025483Y0006926D01*
X0025242Y0007079D01*
X0025006Y0007239D01*
X0024773Y0007404D01*
X0024544Y0007574D01*
X0024319Y0007750D01*
X0024099Y0007932D01*
X0023883Y0008118D01*
X0023672Y0008310D01*
X0023465Y0008507D01*
X0023263Y0008709D01*
X0023066Y0008916D01*
X0022874Y0009127D01*
X0022688Y0009343D01*
X0022506Y0009563D01*
X0022330Y0009788D01*
X0022160Y0010017D01*
X0021995Y0010250D01*
X0021835Y0010486D01*
X0021682Y0010727D01*
X0021534Y0010971D01*
X0021393Y0011219D01*
X0021257Y0011470D01*
X0021127Y0011724D01*
X0021004Y0011982D01*
X0020887Y0012242D01*
X0020776Y0012505D01*
X0020672Y0012771D01*
X0020574Y0013039D01*
X0020482Y0013309D01*
X0020397Y0013582D01*
X0020319Y0013856D01*
X0020247Y0014132D01*
X0020182Y0014410D01*
X0020124Y0014690D01*
X0020073Y0014971D01*
X0020028Y0015252D01*
X0019990Y0015535D01*
X0019959Y0015819D01*
X0019935Y0016103D01*
X0019918Y0016388D01*
X0019907Y0016674D01*
X0019904Y0016959D01*
X0028270Y0018927D02*
X0028272Y0019074D01*
X0028278Y0019220D01*
X0028288Y0019366D01*
X0028302Y0019512D01*
X0028320Y0019658D01*
X0028341Y0019803D01*
X0028367Y0019947D01*
X0028397Y0020091D01*
X0028430Y0020233D01*
X0028467Y0020375D01*
X0028508Y0020516D01*
X0028553Y0020655D01*
X0028602Y0020794D01*
X0028654Y0020931D01*
X0028711Y0021066D01*
X0028770Y0021200D01*
X0028834Y0021332D01*
X0028901Y0021462D01*
X0028971Y0021591D01*
X0029045Y0021718D01*
X0029122Y0021842D01*
X0029203Y0021965D01*
X0029287Y0022085D01*
X0029374Y0022203D01*
X0029464Y0022318D01*
X0029557Y0022431D01*
X0029654Y0022542D01*
X0029753Y0022650D01*
X0029855Y0022755D01*
X0029960Y0022857D01*
X0030068Y0022956D01*
X0030179Y0023053D01*
X0030292Y0023146D01*
X0030407Y0023236D01*
X0030525Y0023323D01*
X0030645Y0023407D01*
X0030768Y0023488D01*
X0030892Y0023565D01*
X0031019Y0023639D01*
X0031148Y0023709D01*
X0031278Y0023776D01*
X0031410Y0023840D01*
X0031544Y0023899D01*
X0031679Y0023956D01*
X0031816Y0024008D01*
X0031955Y0024057D01*
X0032094Y0024102D01*
X0032235Y0024143D01*
X0032377Y0024180D01*
X0032519Y0024213D01*
X0032663Y0024243D01*
X0032807Y0024269D01*
X0032952Y0024290D01*
X0033098Y0024308D01*
X0033244Y0024322D01*
X0033390Y0024332D01*
X0033536Y0024338D01*
X0033683Y0024340D01*
X0033830Y0024338D01*
X0033976Y0024332D01*
X0034122Y0024322D01*
X0034268Y0024308D01*
X0034414Y0024290D01*
X0034559Y0024269D01*
X0034703Y0024243D01*
X0034847Y0024213D01*
X0034989Y0024180D01*
X0035131Y0024143D01*
X0035272Y0024102D01*
X0035411Y0024057D01*
X0035550Y0024008D01*
X0035687Y0023956D01*
X0035822Y0023899D01*
X0035956Y0023840D01*
X0036088Y0023776D01*
X0036218Y0023709D01*
X0036347Y0023639D01*
X0036474Y0023565D01*
X0036598Y0023488D01*
X0036721Y0023407D01*
X0036841Y0023323D01*
X0036959Y0023236D01*
X0037074Y0023146D01*
X0037187Y0023053D01*
X0037298Y0022956D01*
X0037406Y0022857D01*
X0037511Y0022755D01*
X0037613Y0022650D01*
X0037712Y0022542D01*
X0037809Y0022431D01*
X0037902Y0022318D01*
X0037992Y0022203D01*
X0038079Y0022085D01*
X0038163Y0021965D01*
X0038244Y0021842D01*
X0038321Y0021718D01*
X0038395Y0021591D01*
X0038465Y0021462D01*
X0038532Y0021332D01*
X0038596Y0021200D01*
X0038655Y0021066D01*
X0038712Y0020931D01*
X0038764Y0020794D01*
X0038813Y0020655D01*
X0038858Y0020516D01*
X0038899Y0020375D01*
X0038936Y0020233D01*
X0038969Y0020091D01*
X0038999Y0019947D01*
X0039025Y0019803D01*
X0039046Y0019658D01*
X0039064Y0019512D01*
X0039078Y0019366D01*
X0039088Y0019220D01*
X0039094Y0019074D01*
X0039096Y0018927D01*
X0039094Y0018780D01*
X0039088Y0018634D01*
X0039078Y0018488D01*
X0039064Y0018342D01*
X0039046Y0018196D01*
X0039025Y0018051D01*
X0038999Y0017907D01*
X0038969Y0017763D01*
X0038936Y0017621D01*
X0038899Y0017479D01*
X0038858Y0017338D01*
X0038813Y0017199D01*
X0038764Y0017060D01*
X0038712Y0016923D01*
X0038655Y0016788D01*
X0038596Y0016654D01*
X0038532Y0016522D01*
X0038465Y0016392D01*
X0038395Y0016263D01*
X0038321Y0016136D01*
X0038244Y0016012D01*
X0038163Y0015889D01*
X0038079Y0015769D01*
X0037992Y0015651D01*
X0037902Y0015536D01*
X0037809Y0015423D01*
X0037712Y0015312D01*
X0037613Y0015204D01*
X0037511Y0015099D01*
X0037406Y0014997D01*
X0037298Y0014898D01*
X0037187Y0014801D01*
X0037074Y0014708D01*
X0036959Y0014618D01*
X0036841Y0014531D01*
X0036721Y0014447D01*
X0036598Y0014366D01*
X0036474Y0014289D01*
X0036347Y0014215D01*
X0036218Y0014145D01*
X0036088Y0014078D01*
X0035956Y0014014D01*
X0035822Y0013955D01*
X0035687Y0013898D01*
X0035550Y0013846D01*
X0035411Y0013797D01*
X0035272Y0013752D01*
X0035131Y0013711D01*
X0034989Y0013674D01*
X0034847Y0013641D01*
X0034703Y0013611D01*
X0034559Y0013585D01*
X0034414Y0013564D01*
X0034268Y0013546D01*
X0034122Y0013532D01*
X0033976Y0013522D01*
X0033830Y0013516D01*
X0033683Y0013514D01*
X0033536Y0013516D01*
X0033390Y0013522D01*
X0033244Y0013532D01*
X0033098Y0013546D01*
X0032952Y0013564D01*
X0032807Y0013585D01*
X0032663Y0013611D01*
X0032519Y0013641D01*
X0032377Y0013674D01*
X0032235Y0013711D01*
X0032094Y0013752D01*
X0031955Y0013797D01*
X0031816Y0013846D01*
X0031679Y0013898D01*
X0031544Y0013955D01*
X0031410Y0014014D01*
X0031278Y0014078D01*
X0031148Y0014145D01*
X0031019Y0014215D01*
X0030892Y0014289D01*
X0030768Y0014366D01*
X0030645Y0014447D01*
X0030525Y0014531D01*
X0030407Y0014618D01*
X0030292Y0014708D01*
X0030179Y0014801D01*
X0030068Y0014898D01*
X0029960Y0014997D01*
X0029855Y0015099D01*
X0029753Y0015204D01*
X0029654Y0015312D01*
X0029557Y0015423D01*
X0029464Y0015536D01*
X0029374Y0015651D01*
X0029287Y0015769D01*
X0029203Y0015889D01*
X0029122Y0016012D01*
X0029045Y0016136D01*
X0028971Y0016263D01*
X0028901Y0016392D01*
X0028834Y0016522D01*
X0028770Y0016654D01*
X0028711Y0016788D01*
X0028654Y0016923D01*
X0028602Y0017060D01*
X0028553Y0017199D01*
X0028508Y0017338D01*
X0028467Y0017479D01*
X0028430Y0017621D01*
X0028397Y0017763D01*
X0028367Y0017907D01*
X0028341Y0018051D01*
X0028320Y0018196D01*
X0028302Y0018342D01*
X0028288Y0018488D01*
X0028278Y0018634D01*
X0028272Y0018780D01*
X0028270Y0018927D01*
X0227188Y0026801D02*
X0227190Y0026916D01*
X0227196Y0027032D01*
X0227206Y0027147D01*
X0227220Y0027262D01*
X0227238Y0027376D01*
X0227260Y0027489D01*
X0227285Y0027602D01*
X0227315Y0027713D01*
X0227348Y0027824D01*
X0227385Y0027933D01*
X0227426Y0028041D01*
X0227471Y0028148D01*
X0227519Y0028253D01*
X0227571Y0028356D01*
X0227627Y0028457D01*
X0227686Y0028557D01*
X0227748Y0028654D01*
X0227814Y0028749D01*
X0227882Y0028842D01*
X0227954Y0028932D01*
X0228029Y0029020D01*
X0228108Y0029105D01*
X0228189Y0029187D01*
X0228272Y0029267D01*
X0228359Y0029343D01*
X0228448Y0029417D01*
X0228539Y0029487D01*
X0228633Y0029555D01*
X0228729Y0029619D01*
X0228828Y0029679D01*
X0228928Y0029736D01*
X0229030Y0029790D01*
X0229134Y0029840D01*
X0229240Y0029887D01*
X0229347Y0029930D01*
X0229456Y0029969D01*
X0229566Y0030004D01*
X0229677Y0030035D01*
X0229789Y0030063D01*
X0229902Y0030087D01*
X0230016Y0030107D01*
X0230131Y0030123D01*
X0230246Y0030135D01*
X0230361Y0030143D01*
X0230476Y0030147D01*
X0230592Y0030147D01*
X0230707Y0030143D01*
X0230822Y0030135D01*
X0230937Y0030123D01*
X0231052Y0030107D01*
X0231166Y0030087D01*
X0231279Y0030063D01*
X0231391Y0030035D01*
X0231502Y0030004D01*
X0231612Y0029969D01*
X0231721Y0029930D01*
X0231828Y0029887D01*
X0231934Y0029840D01*
X0232038Y0029790D01*
X0232140Y0029736D01*
X0232240Y0029679D01*
X0232339Y0029619D01*
X0232435Y0029555D01*
X0232529Y0029487D01*
X0232620Y0029417D01*
X0232709Y0029343D01*
X0232796Y0029267D01*
X0232879Y0029187D01*
X0232960Y0029105D01*
X0233039Y0029020D01*
X0233114Y0028932D01*
X0233186Y0028842D01*
X0233254Y0028749D01*
X0233320Y0028654D01*
X0233382Y0028557D01*
X0233441Y0028457D01*
X0233497Y0028356D01*
X0233549Y0028253D01*
X0233597Y0028148D01*
X0233642Y0028041D01*
X0233683Y0027933D01*
X0233720Y0027824D01*
X0233753Y0027713D01*
X0233783Y0027602D01*
X0233808Y0027489D01*
X0233830Y0027376D01*
X0233848Y0027262D01*
X0233862Y0027147D01*
X0233872Y0027032D01*
X0233878Y0026916D01*
X0233880Y0026801D01*
X0233878Y0026686D01*
X0233872Y0026570D01*
X0233862Y0026455D01*
X0233848Y0026340D01*
X0233830Y0026226D01*
X0233808Y0026113D01*
X0233783Y0026000D01*
X0233753Y0025889D01*
X0233720Y0025778D01*
X0233683Y0025669D01*
X0233642Y0025561D01*
X0233597Y0025454D01*
X0233549Y0025349D01*
X0233497Y0025246D01*
X0233441Y0025145D01*
X0233382Y0025045D01*
X0233320Y0024948D01*
X0233254Y0024853D01*
X0233186Y0024760D01*
X0233114Y0024670D01*
X0233039Y0024582D01*
X0232960Y0024497D01*
X0232879Y0024415D01*
X0232796Y0024335D01*
X0232709Y0024259D01*
X0232620Y0024185D01*
X0232529Y0024115D01*
X0232435Y0024047D01*
X0232339Y0023983D01*
X0232240Y0023923D01*
X0232140Y0023866D01*
X0232038Y0023812D01*
X0231934Y0023762D01*
X0231828Y0023715D01*
X0231721Y0023672D01*
X0231612Y0023633D01*
X0231502Y0023598D01*
X0231391Y0023567D01*
X0231279Y0023539D01*
X0231166Y0023515D01*
X0231052Y0023495D01*
X0230937Y0023479D01*
X0230822Y0023467D01*
X0230707Y0023459D01*
X0230592Y0023455D01*
X0230476Y0023455D01*
X0230361Y0023459D01*
X0230246Y0023467D01*
X0230131Y0023479D01*
X0230016Y0023495D01*
X0229902Y0023515D01*
X0229789Y0023539D01*
X0229677Y0023567D01*
X0229566Y0023598D01*
X0229456Y0023633D01*
X0229347Y0023672D01*
X0229240Y0023715D01*
X0229134Y0023762D01*
X0229030Y0023812D01*
X0228928Y0023866D01*
X0228828Y0023923D01*
X0228729Y0023983D01*
X0228633Y0024047D01*
X0228539Y0024115D01*
X0228448Y0024185D01*
X0228359Y0024259D01*
X0228272Y0024335D01*
X0228189Y0024415D01*
X0228108Y0024497D01*
X0228029Y0024582D01*
X0227954Y0024670D01*
X0227882Y0024760D01*
X0227814Y0024853D01*
X0227748Y0024948D01*
X0227686Y0025045D01*
X0227627Y0025145D01*
X0227571Y0025246D01*
X0227519Y0025349D01*
X0227471Y0025454D01*
X0227426Y0025561D01*
X0227385Y0025669D01*
X0227348Y0025778D01*
X0227315Y0025889D01*
X0227285Y0026000D01*
X0227260Y0026113D01*
X0227238Y0026226D01*
X0227220Y0026340D01*
X0227206Y0026455D01*
X0227196Y0026570D01*
X0227190Y0026686D01*
X0227188Y0026801D01*
X0256617Y0018927D02*
X0256619Y0019074D01*
X0256625Y0019220D01*
X0256635Y0019366D01*
X0256649Y0019512D01*
X0256667Y0019658D01*
X0256688Y0019803D01*
X0256714Y0019947D01*
X0256744Y0020091D01*
X0256777Y0020233D01*
X0256814Y0020375D01*
X0256855Y0020516D01*
X0256900Y0020655D01*
X0256949Y0020794D01*
X0257001Y0020931D01*
X0257058Y0021066D01*
X0257117Y0021200D01*
X0257181Y0021332D01*
X0257248Y0021462D01*
X0257318Y0021591D01*
X0257392Y0021718D01*
X0257469Y0021842D01*
X0257550Y0021965D01*
X0257634Y0022085D01*
X0257721Y0022203D01*
X0257811Y0022318D01*
X0257904Y0022431D01*
X0258001Y0022542D01*
X0258100Y0022650D01*
X0258202Y0022755D01*
X0258307Y0022857D01*
X0258415Y0022956D01*
X0258526Y0023053D01*
X0258639Y0023146D01*
X0258754Y0023236D01*
X0258872Y0023323D01*
X0258992Y0023407D01*
X0259115Y0023488D01*
X0259239Y0023565D01*
X0259366Y0023639D01*
X0259495Y0023709D01*
X0259625Y0023776D01*
X0259757Y0023840D01*
X0259891Y0023899D01*
X0260026Y0023956D01*
X0260163Y0024008D01*
X0260302Y0024057D01*
X0260441Y0024102D01*
X0260582Y0024143D01*
X0260724Y0024180D01*
X0260866Y0024213D01*
X0261010Y0024243D01*
X0261154Y0024269D01*
X0261299Y0024290D01*
X0261445Y0024308D01*
X0261591Y0024322D01*
X0261737Y0024332D01*
X0261883Y0024338D01*
X0262030Y0024340D01*
X0262177Y0024338D01*
X0262323Y0024332D01*
X0262469Y0024322D01*
X0262615Y0024308D01*
X0262761Y0024290D01*
X0262906Y0024269D01*
X0263050Y0024243D01*
X0263194Y0024213D01*
X0263336Y0024180D01*
X0263478Y0024143D01*
X0263619Y0024102D01*
X0263758Y0024057D01*
X0263897Y0024008D01*
X0264034Y0023956D01*
X0264169Y0023899D01*
X0264303Y0023840D01*
X0264435Y0023776D01*
X0264565Y0023709D01*
X0264694Y0023639D01*
X0264821Y0023565D01*
X0264945Y0023488D01*
X0265068Y0023407D01*
X0265188Y0023323D01*
X0265306Y0023236D01*
X0265421Y0023146D01*
X0265534Y0023053D01*
X0265645Y0022956D01*
X0265753Y0022857D01*
X0265858Y0022755D01*
X0265960Y0022650D01*
X0266059Y0022542D01*
X0266156Y0022431D01*
X0266249Y0022318D01*
X0266339Y0022203D01*
X0266426Y0022085D01*
X0266510Y0021965D01*
X0266591Y0021842D01*
X0266668Y0021718D01*
X0266742Y0021591D01*
X0266812Y0021462D01*
X0266879Y0021332D01*
X0266943Y0021200D01*
X0267002Y0021066D01*
X0267059Y0020931D01*
X0267111Y0020794D01*
X0267160Y0020655D01*
X0267205Y0020516D01*
X0267246Y0020375D01*
X0267283Y0020233D01*
X0267316Y0020091D01*
X0267346Y0019947D01*
X0267372Y0019803D01*
X0267393Y0019658D01*
X0267411Y0019512D01*
X0267425Y0019366D01*
X0267435Y0019220D01*
X0267441Y0019074D01*
X0267443Y0018927D01*
X0267441Y0018780D01*
X0267435Y0018634D01*
X0267425Y0018488D01*
X0267411Y0018342D01*
X0267393Y0018196D01*
X0267372Y0018051D01*
X0267346Y0017907D01*
X0267316Y0017763D01*
X0267283Y0017621D01*
X0267246Y0017479D01*
X0267205Y0017338D01*
X0267160Y0017199D01*
X0267111Y0017060D01*
X0267059Y0016923D01*
X0267002Y0016788D01*
X0266943Y0016654D01*
X0266879Y0016522D01*
X0266812Y0016392D01*
X0266742Y0016263D01*
X0266668Y0016136D01*
X0266591Y0016012D01*
X0266510Y0015889D01*
X0266426Y0015769D01*
X0266339Y0015651D01*
X0266249Y0015536D01*
X0266156Y0015423D01*
X0266059Y0015312D01*
X0265960Y0015204D01*
X0265858Y0015099D01*
X0265753Y0014997D01*
X0265645Y0014898D01*
X0265534Y0014801D01*
X0265421Y0014708D01*
X0265306Y0014618D01*
X0265188Y0014531D01*
X0265068Y0014447D01*
X0264945Y0014366D01*
X0264821Y0014289D01*
X0264694Y0014215D01*
X0264565Y0014145D01*
X0264435Y0014078D01*
X0264303Y0014014D01*
X0264169Y0013955D01*
X0264034Y0013898D01*
X0263897Y0013846D01*
X0263758Y0013797D01*
X0263619Y0013752D01*
X0263478Y0013711D01*
X0263336Y0013674D01*
X0263194Y0013641D01*
X0263050Y0013611D01*
X0262906Y0013585D01*
X0262761Y0013564D01*
X0262615Y0013546D01*
X0262469Y0013532D01*
X0262323Y0013522D01*
X0262177Y0013516D01*
X0262030Y0013514D01*
X0261883Y0013516D01*
X0261737Y0013522D01*
X0261591Y0013532D01*
X0261445Y0013546D01*
X0261299Y0013564D01*
X0261154Y0013585D01*
X0261010Y0013611D01*
X0260866Y0013641D01*
X0260724Y0013674D01*
X0260582Y0013711D01*
X0260441Y0013752D01*
X0260302Y0013797D01*
X0260163Y0013846D01*
X0260026Y0013898D01*
X0259891Y0013955D01*
X0259757Y0014014D01*
X0259625Y0014078D01*
X0259495Y0014145D01*
X0259366Y0014215D01*
X0259239Y0014289D01*
X0259115Y0014366D01*
X0258992Y0014447D01*
X0258872Y0014531D01*
X0258754Y0014618D01*
X0258639Y0014708D01*
X0258526Y0014801D01*
X0258415Y0014898D01*
X0258307Y0014997D01*
X0258202Y0015099D01*
X0258100Y0015204D01*
X0258001Y0015312D01*
X0257904Y0015423D01*
X0257811Y0015536D01*
X0257721Y0015651D01*
X0257634Y0015769D01*
X0257550Y0015889D01*
X0257469Y0016012D01*
X0257392Y0016136D01*
X0257318Y0016263D01*
X0257248Y0016392D01*
X0257181Y0016522D01*
X0257117Y0016654D01*
X0257058Y0016788D01*
X0257001Y0016923D01*
X0256949Y0017060D01*
X0256900Y0017199D01*
X0256855Y0017338D01*
X0256814Y0017479D01*
X0256777Y0017621D01*
X0256744Y0017763D01*
X0256714Y0017907D01*
X0256688Y0018051D01*
X0256667Y0018196D01*
X0256649Y0018342D01*
X0256635Y0018488D01*
X0256625Y0018634D01*
X0256619Y0018780D01*
X0256617Y0018927D01*
X0227188Y0054360D02*
X0227190Y0054475D01*
X0227196Y0054591D01*
X0227206Y0054706D01*
X0227220Y0054821D01*
X0227238Y0054935D01*
X0227260Y0055048D01*
X0227285Y0055161D01*
X0227315Y0055272D01*
X0227348Y0055383D01*
X0227385Y0055492D01*
X0227426Y0055600D01*
X0227471Y0055707D01*
X0227519Y0055812D01*
X0227571Y0055915D01*
X0227627Y0056016D01*
X0227686Y0056116D01*
X0227748Y0056213D01*
X0227814Y0056308D01*
X0227882Y0056401D01*
X0227954Y0056491D01*
X0228029Y0056579D01*
X0228108Y0056664D01*
X0228189Y0056746D01*
X0228272Y0056826D01*
X0228359Y0056902D01*
X0228448Y0056976D01*
X0228539Y0057046D01*
X0228633Y0057114D01*
X0228729Y0057178D01*
X0228828Y0057238D01*
X0228928Y0057295D01*
X0229030Y0057349D01*
X0229134Y0057399D01*
X0229240Y0057446D01*
X0229347Y0057489D01*
X0229456Y0057528D01*
X0229566Y0057563D01*
X0229677Y0057594D01*
X0229789Y0057622D01*
X0229902Y0057646D01*
X0230016Y0057666D01*
X0230131Y0057682D01*
X0230246Y0057694D01*
X0230361Y0057702D01*
X0230476Y0057706D01*
X0230592Y0057706D01*
X0230707Y0057702D01*
X0230822Y0057694D01*
X0230937Y0057682D01*
X0231052Y0057666D01*
X0231166Y0057646D01*
X0231279Y0057622D01*
X0231391Y0057594D01*
X0231502Y0057563D01*
X0231612Y0057528D01*
X0231721Y0057489D01*
X0231828Y0057446D01*
X0231934Y0057399D01*
X0232038Y0057349D01*
X0232140Y0057295D01*
X0232240Y0057238D01*
X0232339Y0057178D01*
X0232435Y0057114D01*
X0232529Y0057046D01*
X0232620Y0056976D01*
X0232709Y0056902D01*
X0232796Y0056826D01*
X0232879Y0056746D01*
X0232960Y0056664D01*
X0233039Y0056579D01*
X0233114Y0056491D01*
X0233186Y0056401D01*
X0233254Y0056308D01*
X0233320Y0056213D01*
X0233382Y0056116D01*
X0233441Y0056016D01*
X0233497Y0055915D01*
X0233549Y0055812D01*
X0233597Y0055707D01*
X0233642Y0055600D01*
X0233683Y0055492D01*
X0233720Y0055383D01*
X0233753Y0055272D01*
X0233783Y0055161D01*
X0233808Y0055048D01*
X0233830Y0054935D01*
X0233848Y0054821D01*
X0233862Y0054706D01*
X0233872Y0054591D01*
X0233878Y0054475D01*
X0233880Y0054360D01*
X0233878Y0054245D01*
X0233872Y0054129D01*
X0233862Y0054014D01*
X0233848Y0053899D01*
X0233830Y0053785D01*
X0233808Y0053672D01*
X0233783Y0053559D01*
X0233753Y0053448D01*
X0233720Y0053337D01*
X0233683Y0053228D01*
X0233642Y0053120D01*
X0233597Y0053013D01*
X0233549Y0052908D01*
X0233497Y0052805D01*
X0233441Y0052704D01*
X0233382Y0052604D01*
X0233320Y0052507D01*
X0233254Y0052412D01*
X0233186Y0052319D01*
X0233114Y0052229D01*
X0233039Y0052141D01*
X0232960Y0052056D01*
X0232879Y0051974D01*
X0232796Y0051894D01*
X0232709Y0051818D01*
X0232620Y0051744D01*
X0232529Y0051674D01*
X0232435Y0051606D01*
X0232339Y0051542D01*
X0232240Y0051482D01*
X0232140Y0051425D01*
X0232038Y0051371D01*
X0231934Y0051321D01*
X0231828Y0051274D01*
X0231721Y0051231D01*
X0231612Y0051192D01*
X0231502Y0051157D01*
X0231391Y0051126D01*
X0231279Y0051098D01*
X0231166Y0051074D01*
X0231052Y0051054D01*
X0230937Y0051038D01*
X0230822Y0051026D01*
X0230707Y0051018D01*
X0230592Y0051014D01*
X0230476Y0051014D01*
X0230361Y0051018D01*
X0230246Y0051026D01*
X0230131Y0051038D01*
X0230016Y0051054D01*
X0229902Y0051074D01*
X0229789Y0051098D01*
X0229677Y0051126D01*
X0229566Y0051157D01*
X0229456Y0051192D01*
X0229347Y0051231D01*
X0229240Y0051274D01*
X0229134Y0051321D01*
X0229030Y0051371D01*
X0228928Y0051425D01*
X0228828Y0051482D01*
X0228729Y0051542D01*
X0228633Y0051606D01*
X0228539Y0051674D01*
X0228448Y0051744D01*
X0228359Y0051818D01*
X0228272Y0051894D01*
X0228189Y0051974D01*
X0228108Y0052056D01*
X0228029Y0052141D01*
X0227954Y0052229D01*
X0227882Y0052319D01*
X0227814Y0052412D01*
X0227748Y0052507D01*
X0227686Y0052604D01*
X0227627Y0052704D01*
X0227571Y0052805D01*
X0227519Y0052908D01*
X0227471Y0053013D01*
X0227426Y0053120D01*
X0227385Y0053228D01*
X0227348Y0053337D01*
X0227315Y0053448D01*
X0227285Y0053559D01*
X0227260Y0053672D01*
X0227238Y0053785D01*
X0227220Y0053899D01*
X0227206Y0054014D01*
X0227196Y0054129D01*
X0227190Y0054245D01*
X0227188Y0054360D01*
X0256617Y0211841D02*
X0256619Y0211988D01*
X0256625Y0212134D01*
X0256635Y0212280D01*
X0256649Y0212426D01*
X0256667Y0212572D01*
X0256688Y0212717D01*
X0256714Y0212861D01*
X0256744Y0213005D01*
X0256777Y0213147D01*
X0256814Y0213289D01*
X0256855Y0213430D01*
X0256900Y0213569D01*
X0256949Y0213708D01*
X0257001Y0213845D01*
X0257058Y0213980D01*
X0257117Y0214114D01*
X0257181Y0214246D01*
X0257248Y0214376D01*
X0257318Y0214505D01*
X0257392Y0214632D01*
X0257469Y0214756D01*
X0257550Y0214879D01*
X0257634Y0214999D01*
X0257721Y0215117D01*
X0257811Y0215232D01*
X0257904Y0215345D01*
X0258001Y0215456D01*
X0258100Y0215564D01*
X0258202Y0215669D01*
X0258307Y0215771D01*
X0258415Y0215870D01*
X0258526Y0215967D01*
X0258639Y0216060D01*
X0258754Y0216150D01*
X0258872Y0216237D01*
X0258992Y0216321D01*
X0259115Y0216402D01*
X0259239Y0216479D01*
X0259366Y0216553D01*
X0259495Y0216623D01*
X0259625Y0216690D01*
X0259757Y0216754D01*
X0259891Y0216813D01*
X0260026Y0216870D01*
X0260163Y0216922D01*
X0260302Y0216971D01*
X0260441Y0217016D01*
X0260582Y0217057D01*
X0260724Y0217094D01*
X0260866Y0217127D01*
X0261010Y0217157D01*
X0261154Y0217183D01*
X0261299Y0217204D01*
X0261445Y0217222D01*
X0261591Y0217236D01*
X0261737Y0217246D01*
X0261883Y0217252D01*
X0262030Y0217254D01*
X0262177Y0217252D01*
X0262323Y0217246D01*
X0262469Y0217236D01*
X0262615Y0217222D01*
X0262761Y0217204D01*
X0262906Y0217183D01*
X0263050Y0217157D01*
X0263194Y0217127D01*
X0263336Y0217094D01*
X0263478Y0217057D01*
X0263619Y0217016D01*
X0263758Y0216971D01*
X0263897Y0216922D01*
X0264034Y0216870D01*
X0264169Y0216813D01*
X0264303Y0216754D01*
X0264435Y0216690D01*
X0264565Y0216623D01*
X0264694Y0216553D01*
X0264821Y0216479D01*
X0264945Y0216402D01*
X0265068Y0216321D01*
X0265188Y0216237D01*
X0265306Y0216150D01*
X0265421Y0216060D01*
X0265534Y0215967D01*
X0265645Y0215870D01*
X0265753Y0215771D01*
X0265858Y0215669D01*
X0265960Y0215564D01*
X0266059Y0215456D01*
X0266156Y0215345D01*
X0266249Y0215232D01*
X0266339Y0215117D01*
X0266426Y0214999D01*
X0266510Y0214879D01*
X0266591Y0214756D01*
X0266668Y0214632D01*
X0266742Y0214505D01*
X0266812Y0214376D01*
X0266879Y0214246D01*
X0266943Y0214114D01*
X0267002Y0213980D01*
X0267059Y0213845D01*
X0267111Y0213708D01*
X0267160Y0213569D01*
X0267205Y0213430D01*
X0267246Y0213289D01*
X0267283Y0213147D01*
X0267316Y0213005D01*
X0267346Y0212861D01*
X0267372Y0212717D01*
X0267393Y0212572D01*
X0267411Y0212426D01*
X0267425Y0212280D01*
X0267435Y0212134D01*
X0267441Y0211988D01*
X0267443Y0211841D01*
X0267441Y0211694D01*
X0267435Y0211548D01*
X0267425Y0211402D01*
X0267411Y0211256D01*
X0267393Y0211110D01*
X0267372Y0210965D01*
X0267346Y0210821D01*
X0267316Y0210677D01*
X0267283Y0210535D01*
X0267246Y0210393D01*
X0267205Y0210252D01*
X0267160Y0210113D01*
X0267111Y0209974D01*
X0267059Y0209837D01*
X0267002Y0209702D01*
X0266943Y0209568D01*
X0266879Y0209436D01*
X0266812Y0209306D01*
X0266742Y0209177D01*
X0266668Y0209050D01*
X0266591Y0208926D01*
X0266510Y0208803D01*
X0266426Y0208683D01*
X0266339Y0208565D01*
X0266249Y0208450D01*
X0266156Y0208337D01*
X0266059Y0208226D01*
X0265960Y0208118D01*
X0265858Y0208013D01*
X0265753Y0207911D01*
X0265645Y0207812D01*
X0265534Y0207715D01*
X0265421Y0207622D01*
X0265306Y0207532D01*
X0265188Y0207445D01*
X0265068Y0207361D01*
X0264945Y0207280D01*
X0264821Y0207203D01*
X0264694Y0207129D01*
X0264565Y0207059D01*
X0264435Y0206992D01*
X0264303Y0206928D01*
X0264169Y0206869D01*
X0264034Y0206812D01*
X0263897Y0206760D01*
X0263758Y0206711D01*
X0263619Y0206666D01*
X0263478Y0206625D01*
X0263336Y0206588D01*
X0263194Y0206555D01*
X0263050Y0206525D01*
X0262906Y0206499D01*
X0262761Y0206478D01*
X0262615Y0206460D01*
X0262469Y0206446D01*
X0262323Y0206436D01*
X0262177Y0206430D01*
X0262030Y0206428D01*
X0261883Y0206430D01*
X0261737Y0206436D01*
X0261591Y0206446D01*
X0261445Y0206460D01*
X0261299Y0206478D01*
X0261154Y0206499D01*
X0261010Y0206525D01*
X0260866Y0206555D01*
X0260724Y0206588D01*
X0260582Y0206625D01*
X0260441Y0206666D01*
X0260302Y0206711D01*
X0260163Y0206760D01*
X0260026Y0206812D01*
X0259891Y0206869D01*
X0259757Y0206928D01*
X0259625Y0206992D01*
X0259495Y0207059D01*
X0259366Y0207129D01*
X0259239Y0207203D01*
X0259115Y0207280D01*
X0258992Y0207361D01*
X0258872Y0207445D01*
X0258754Y0207532D01*
X0258639Y0207622D01*
X0258526Y0207715D01*
X0258415Y0207812D01*
X0258307Y0207911D01*
X0258202Y0208013D01*
X0258100Y0208118D01*
X0258001Y0208226D01*
X0257904Y0208337D01*
X0257811Y0208450D01*
X0257721Y0208565D01*
X0257634Y0208683D01*
X0257550Y0208803D01*
X0257469Y0208926D01*
X0257392Y0209050D01*
X0257318Y0209177D01*
X0257248Y0209306D01*
X0257181Y0209436D01*
X0257117Y0209568D01*
X0257058Y0209702D01*
X0257001Y0209837D01*
X0256949Y0209974D01*
X0256900Y0210113D01*
X0256855Y0210252D01*
X0256814Y0210393D01*
X0256777Y0210535D01*
X0256744Y0210677D01*
X0256714Y0210821D01*
X0256688Y0210965D01*
X0256667Y0211110D01*
X0256649Y0211256D01*
X0256635Y0211402D01*
X0256625Y0211548D01*
X0256619Y0211694D01*
X0256617Y0211841D01*
X0028270Y0211841D02*
X0028272Y0211988D01*
X0028278Y0212134D01*
X0028288Y0212280D01*
X0028302Y0212426D01*
X0028320Y0212572D01*
X0028341Y0212717D01*
X0028367Y0212861D01*
X0028397Y0213005D01*
X0028430Y0213147D01*
X0028467Y0213289D01*
X0028508Y0213430D01*
X0028553Y0213569D01*
X0028602Y0213708D01*
X0028654Y0213845D01*
X0028711Y0213980D01*
X0028770Y0214114D01*
X0028834Y0214246D01*
X0028901Y0214376D01*
X0028971Y0214505D01*
X0029045Y0214632D01*
X0029122Y0214756D01*
X0029203Y0214879D01*
X0029287Y0214999D01*
X0029374Y0215117D01*
X0029464Y0215232D01*
X0029557Y0215345D01*
X0029654Y0215456D01*
X0029753Y0215564D01*
X0029855Y0215669D01*
X0029960Y0215771D01*
X0030068Y0215870D01*
X0030179Y0215967D01*
X0030292Y0216060D01*
X0030407Y0216150D01*
X0030525Y0216237D01*
X0030645Y0216321D01*
X0030768Y0216402D01*
X0030892Y0216479D01*
X0031019Y0216553D01*
X0031148Y0216623D01*
X0031278Y0216690D01*
X0031410Y0216754D01*
X0031544Y0216813D01*
X0031679Y0216870D01*
X0031816Y0216922D01*
X0031955Y0216971D01*
X0032094Y0217016D01*
X0032235Y0217057D01*
X0032377Y0217094D01*
X0032519Y0217127D01*
X0032663Y0217157D01*
X0032807Y0217183D01*
X0032952Y0217204D01*
X0033098Y0217222D01*
X0033244Y0217236D01*
X0033390Y0217246D01*
X0033536Y0217252D01*
X0033683Y0217254D01*
X0033830Y0217252D01*
X0033976Y0217246D01*
X0034122Y0217236D01*
X0034268Y0217222D01*
X0034414Y0217204D01*
X0034559Y0217183D01*
X0034703Y0217157D01*
X0034847Y0217127D01*
X0034989Y0217094D01*
X0035131Y0217057D01*
X0035272Y0217016D01*
X0035411Y0216971D01*
X0035550Y0216922D01*
X0035687Y0216870D01*
X0035822Y0216813D01*
X0035956Y0216754D01*
X0036088Y0216690D01*
X0036218Y0216623D01*
X0036347Y0216553D01*
X0036474Y0216479D01*
X0036598Y0216402D01*
X0036721Y0216321D01*
X0036841Y0216237D01*
X0036959Y0216150D01*
X0037074Y0216060D01*
X0037187Y0215967D01*
X0037298Y0215870D01*
X0037406Y0215771D01*
X0037511Y0215669D01*
X0037613Y0215564D01*
X0037712Y0215456D01*
X0037809Y0215345D01*
X0037902Y0215232D01*
X0037992Y0215117D01*
X0038079Y0214999D01*
X0038163Y0214879D01*
X0038244Y0214756D01*
X0038321Y0214632D01*
X0038395Y0214505D01*
X0038465Y0214376D01*
X0038532Y0214246D01*
X0038596Y0214114D01*
X0038655Y0213980D01*
X0038712Y0213845D01*
X0038764Y0213708D01*
X0038813Y0213569D01*
X0038858Y0213430D01*
X0038899Y0213289D01*
X0038936Y0213147D01*
X0038969Y0213005D01*
X0038999Y0212861D01*
X0039025Y0212717D01*
X0039046Y0212572D01*
X0039064Y0212426D01*
X0039078Y0212280D01*
X0039088Y0212134D01*
X0039094Y0211988D01*
X0039096Y0211841D01*
X0039094Y0211694D01*
X0039088Y0211548D01*
X0039078Y0211402D01*
X0039064Y0211256D01*
X0039046Y0211110D01*
X0039025Y0210965D01*
X0038999Y0210821D01*
X0038969Y0210677D01*
X0038936Y0210535D01*
X0038899Y0210393D01*
X0038858Y0210252D01*
X0038813Y0210113D01*
X0038764Y0209974D01*
X0038712Y0209837D01*
X0038655Y0209702D01*
X0038596Y0209568D01*
X0038532Y0209436D01*
X0038465Y0209306D01*
X0038395Y0209177D01*
X0038321Y0209050D01*
X0038244Y0208926D01*
X0038163Y0208803D01*
X0038079Y0208683D01*
X0037992Y0208565D01*
X0037902Y0208450D01*
X0037809Y0208337D01*
X0037712Y0208226D01*
X0037613Y0208118D01*
X0037511Y0208013D01*
X0037406Y0207911D01*
X0037298Y0207812D01*
X0037187Y0207715D01*
X0037074Y0207622D01*
X0036959Y0207532D01*
X0036841Y0207445D01*
X0036721Y0207361D01*
X0036598Y0207280D01*
X0036474Y0207203D01*
X0036347Y0207129D01*
X0036218Y0207059D01*
X0036088Y0206992D01*
X0035956Y0206928D01*
X0035822Y0206869D01*
X0035687Y0206812D01*
X0035550Y0206760D01*
X0035411Y0206711D01*
X0035272Y0206666D01*
X0035131Y0206625D01*
X0034989Y0206588D01*
X0034847Y0206555D01*
X0034703Y0206525D01*
X0034559Y0206499D01*
X0034414Y0206478D01*
X0034268Y0206460D01*
X0034122Y0206446D01*
X0033976Y0206436D01*
X0033830Y0206430D01*
X0033683Y0206428D01*
X0033536Y0206430D01*
X0033390Y0206436D01*
X0033244Y0206446D01*
X0033098Y0206460D01*
X0032952Y0206478D01*
X0032807Y0206499D01*
X0032663Y0206525D01*
X0032519Y0206555D01*
X0032377Y0206588D01*
X0032235Y0206625D01*
X0032094Y0206666D01*
X0031955Y0206711D01*
X0031816Y0206760D01*
X0031679Y0206812D01*
X0031544Y0206869D01*
X0031410Y0206928D01*
X0031278Y0206992D01*
X0031148Y0207059D01*
X0031019Y0207129D01*
X0030892Y0207203D01*
X0030768Y0207280D01*
X0030645Y0207361D01*
X0030525Y0207445D01*
X0030407Y0207532D01*
X0030292Y0207622D01*
X0030179Y0207715D01*
X0030068Y0207812D01*
X0029960Y0207911D01*
X0029855Y0208013D01*
X0029753Y0208118D01*
X0029654Y0208226D01*
X0029557Y0208337D01*
X0029464Y0208450D01*
X0029374Y0208565D01*
X0029287Y0208683D01*
X0029203Y0208803D01*
X0029122Y0208926D01*
X0029045Y0209050D01*
X0028971Y0209177D01*
X0028901Y0209306D01*
X0028834Y0209436D01*
X0028770Y0209568D01*
X0028711Y0209702D01*
X0028654Y0209837D01*
X0028602Y0209974D01*
X0028553Y0210113D01*
X0028508Y0210252D01*
X0028467Y0210393D01*
X0028430Y0210535D01*
X0028397Y0210677D01*
X0028367Y0210821D01*
X0028341Y0210965D01*
X0028320Y0211110D01*
X0028302Y0211256D01*
X0028288Y0211402D01*
X0028278Y0211548D01*
X0028272Y0211694D01*
X0028270Y0211841D01*
D11*
X0033683Y0211841D03*
X0262030Y0211841D03*
X0262030Y0018927D03*
X0033683Y0018927D03*
D12*
X0026055Y0018927D02*
X0026057Y0019114D01*
X0026064Y0019301D01*
X0026076Y0019488D01*
X0026092Y0019675D01*
X0026112Y0019861D01*
X0026138Y0020046D01*
X0026167Y0020231D01*
X0026202Y0020415D01*
X0026240Y0020598D01*
X0026284Y0020780D01*
X0026331Y0020961D01*
X0026383Y0021141D01*
X0026440Y0021320D01*
X0026501Y0021497D01*
X0026566Y0021672D01*
X0026636Y0021846D01*
X0026709Y0022018D01*
X0026787Y0022188D01*
X0026869Y0022357D01*
X0026956Y0022523D01*
X0027046Y0022687D01*
X0027140Y0022849D01*
X0027238Y0023008D01*
X0027341Y0023165D01*
X0027446Y0023319D01*
X0027556Y0023471D01*
X0027669Y0023620D01*
X0027786Y0023766D01*
X0027907Y0023909D01*
X0028031Y0024050D01*
X0028158Y0024187D01*
X0028289Y0024321D01*
X0028423Y0024452D01*
X0028560Y0024579D01*
X0028701Y0024703D01*
X0028844Y0024824D01*
X0028990Y0024941D01*
X0029139Y0025054D01*
X0029291Y0025164D01*
X0029445Y0025269D01*
X0029602Y0025372D01*
X0029761Y0025470D01*
X0029923Y0025564D01*
X0030087Y0025654D01*
X0030253Y0025741D01*
X0030422Y0025823D01*
X0030592Y0025901D01*
X0030764Y0025974D01*
X0030938Y0026044D01*
X0031113Y0026109D01*
X0031290Y0026170D01*
X0031469Y0026227D01*
X0031649Y0026279D01*
X0031830Y0026326D01*
X0032012Y0026370D01*
X0032195Y0026408D01*
X0032379Y0026443D01*
X0032564Y0026472D01*
X0032749Y0026498D01*
X0032935Y0026518D01*
X0033122Y0026534D01*
X0033309Y0026546D01*
X0033496Y0026553D01*
X0033683Y0026555D01*
X0033870Y0026553D01*
X0034057Y0026546D01*
X0034244Y0026534D01*
X0034431Y0026518D01*
X0034617Y0026498D01*
X0034802Y0026472D01*
X0034987Y0026443D01*
X0035171Y0026408D01*
X0035354Y0026370D01*
X0035536Y0026326D01*
X0035717Y0026279D01*
X0035897Y0026227D01*
X0036076Y0026170D01*
X0036253Y0026109D01*
X0036428Y0026044D01*
X0036602Y0025974D01*
X0036774Y0025901D01*
X0036944Y0025823D01*
X0037113Y0025741D01*
X0037279Y0025654D01*
X0037443Y0025564D01*
X0037605Y0025470D01*
X0037764Y0025372D01*
X0037921Y0025269D01*
X0038075Y0025164D01*
X0038227Y0025054D01*
X0038376Y0024941D01*
X0038522Y0024824D01*
X0038665Y0024703D01*
X0038806Y0024579D01*
X0038943Y0024452D01*
X0039077Y0024321D01*
X0039208Y0024187D01*
X0039335Y0024050D01*
X0039459Y0023909D01*
X0039580Y0023766D01*
X0039697Y0023620D01*
X0039810Y0023471D01*
X0039920Y0023319D01*
X0040025Y0023165D01*
X0040128Y0023008D01*
X0040226Y0022849D01*
X0040320Y0022687D01*
X0040410Y0022523D01*
X0040497Y0022357D01*
X0040579Y0022188D01*
X0040657Y0022018D01*
X0040730Y0021846D01*
X0040800Y0021672D01*
X0040865Y0021497D01*
X0040926Y0021320D01*
X0040983Y0021141D01*
X0041035Y0020961D01*
X0041082Y0020780D01*
X0041126Y0020598D01*
X0041164Y0020415D01*
X0041199Y0020231D01*
X0041228Y0020046D01*
X0041254Y0019861D01*
X0041274Y0019675D01*
X0041290Y0019488D01*
X0041302Y0019301D01*
X0041309Y0019114D01*
X0041311Y0018927D01*
X0041309Y0018740D01*
X0041302Y0018553D01*
X0041290Y0018366D01*
X0041274Y0018179D01*
X0041254Y0017993D01*
X0041228Y0017808D01*
X0041199Y0017623D01*
X0041164Y0017439D01*
X0041126Y0017256D01*
X0041082Y0017074D01*
X0041035Y0016893D01*
X0040983Y0016713D01*
X0040926Y0016534D01*
X0040865Y0016357D01*
X0040800Y0016182D01*
X0040730Y0016008D01*
X0040657Y0015836D01*
X0040579Y0015666D01*
X0040497Y0015497D01*
X0040410Y0015331D01*
X0040320Y0015167D01*
X0040226Y0015005D01*
X0040128Y0014846D01*
X0040025Y0014689D01*
X0039920Y0014535D01*
X0039810Y0014383D01*
X0039697Y0014234D01*
X0039580Y0014088D01*
X0039459Y0013945D01*
X0039335Y0013804D01*
X0039208Y0013667D01*
X0039077Y0013533D01*
X0038943Y0013402D01*
X0038806Y0013275D01*
X0038665Y0013151D01*
X0038522Y0013030D01*
X0038376Y0012913D01*
X0038227Y0012800D01*
X0038075Y0012690D01*
X0037921Y0012585D01*
X0037764Y0012482D01*
X0037605Y0012384D01*
X0037443Y0012290D01*
X0037279Y0012200D01*
X0037113Y0012113D01*
X0036944Y0012031D01*
X0036774Y0011953D01*
X0036602Y0011880D01*
X0036428Y0011810D01*
X0036253Y0011745D01*
X0036076Y0011684D01*
X0035897Y0011627D01*
X0035717Y0011575D01*
X0035536Y0011528D01*
X0035354Y0011484D01*
X0035171Y0011446D01*
X0034987Y0011411D01*
X0034802Y0011382D01*
X0034617Y0011356D01*
X0034431Y0011336D01*
X0034244Y0011320D01*
X0034057Y0011308D01*
X0033870Y0011301D01*
X0033683Y0011299D01*
X0033496Y0011301D01*
X0033309Y0011308D01*
X0033122Y0011320D01*
X0032935Y0011336D01*
X0032749Y0011356D01*
X0032564Y0011382D01*
X0032379Y0011411D01*
X0032195Y0011446D01*
X0032012Y0011484D01*
X0031830Y0011528D01*
X0031649Y0011575D01*
X0031469Y0011627D01*
X0031290Y0011684D01*
X0031113Y0011745D01*
X0030938Y0011810D01*
X0030764Y0011880D01*
X0030592Y0011953D01*
X0030422Y0012031D01*
X0030253Y0012113D01*
X0030087Y0012200D01*
X0029923Y0012290D01*
X0029761Y0012384D01*
X0029602Y0012482D01*
X0029445Y0012585D01*
X0029291Y0012690D01*
X0029139Y0012800D01*
X0028990Y0012913D01*
X0028844Y0013030D01*
X0028701Y0013151D01*
X0028560Y0013275D01*
X0028423Y0013402D01*
X0028289Y0013533D01*
X0028158Y0013667D01*
X0028031Y0013804D01*
X0027907Y0013945D01*
X0027786Y0014088D01*
X0027669Y0014234D01*
X0027556Y0014383D01*
X0027446Y0014535D01*
X0027341Y0014689D01*
X0027238Y0014846D01*
X0027140Y0015005D01*
X0027046Y0015167D01*
X0026956Y0015331D01*
X0026869Y0015497D01*
X0026787Y0015666D01*
X0026709Y0015836D01*
X0026636Y0016008D01*
X0026566Y0016182D01*
X0026501Y0016357D01*
X0026440Y0016534D01*
X0026383Y0016713D01*
X0026331Y0016893D01*
X0026284Y0017074D01*
X0026240Y0017256D01*
X0026202Y0017439D01*
X0026167Y0017623D01*
X0026138Y0017808D01*
X0026112Y0017993D01*
X0026092Y0018179D01*
X0026076Y0018366D01*
X0026064Y0018553D01*
X0026057Y0018740D01*
X0026055Y0018927D01*
X0254402Y0018927D02*
X0254404Y0019114D01*
X0254411Y0019301D01*
X0254423Y0019488D01*
X0254439Y0019675D01*
X0254459Y0019861D01*
X0254485Y0020046D01*
X0254514Y0020231D01*
X0254549Y0020415D01*
X0254587Y0020598D01*
X0254631Y0020780D01*
X0254678Y0020961D01*
X0254730Y0021141D01*
X0254787Y0021320D01*
X0254848Y0021497D01*
X0254913Y0021672D01*
X0254983Y0021846D01*
X0255056Y0022018D01*
X0255134Y0022188D01*
X0255216Y0022357D01*
X0255303Y0022523D01*
X0255393Y0022687D01*
X0255487Y0022849D01*
X0255585Y0023008D01*
X0255688Y0023165D01*
X0255793Y0023319D01*
X0255903Y0023471D01*
X0256016Y0023620D01*
X0256133Y0023766D01*
X0256254Y0023909D01*
X0256378Y0024050D01*
X0256505Y0024187D01*
X0256636Y0024321D01*
X0256770Y0024452D01*
X0256907Y0024579D01*
X0257048Y0024703D01*
X0257191Y0024824D01*
X0257337Y0024941D01*
X0257486Y0025054D01*
X0257638Y0025164D01*
X0257792Y0025269D01*
X0257949Y0025372D01*
X0258108Y0025470D01*
X0258270Y0025564D01*
X0258434Y0025654D01*
X0258600Y0025741D01*
X0258769Y0025823D01*
X0258939Y0025901D01*
X0259111Y0025974D01*
X0259285Y0026044D01*
X0259460Y0026109D01*
X0259637Y0026170D01*
X0259816Y0026227D01*
X0259996Y0026279D01*
X0260177Y0026326D01*
X0260359Y0026370D01*
X0260542Y0026408D01*
X0260726Y0026443D01*
X0260911Y0026472D01*
X0261096Y0026498D01*
X0261282Y0026518D01*
X0261469Y0026534D01*
X0261656Y0026546D01*
X0261843Y0026553D01*
X0262030Y0026555D01*
X0262217Y0026553D01*
X0262404Y0026546D01*
X0262591Y0026534D01*
X0262778Y0026518D01*
X0262964Y0026498D01*
X0263149Y0026472D01*
X0263334Y0026443D01*
X0263518Y0026408D01*
X0263701Y0026370D01*
X0263883Y0026326D01*
X0264064Y0026279D01*
X0264244Y0026227D01*
X0264423Y0026170D01*
X0264600Y0026109D01*
X0264775Y0026044D01*
X0264949Y0025974D01*
X0265121Y0025901D01*
X0265291Y0025823D01*
X0265460Y0025741D01*
X0265626Y0025654D01*
X0265790Y0025564D01*
X0265952Y0025470D01*
X0266111Y0025372D01*
X0266268Y0025269D01*
X0266422Y0025164D01*
X0266574Y0025054D01*
X0266723Y0024941D01*
X0266869Y0024824D01*
X0267012Y0024703D01*
X0267153Y0024579D01*
X0267290Y0024452D01*
X0267424Y0024321D01*
X0267555Y0024187D01*
X0267682Y0024050D01*
X0267806Y0023909D01*
X0267927Y0023766D01*
X0268044Y0023620D01*
X0268157Y0023471D01*
X0268267Y0023319D01*
X0268372Y0023165D01*
X0268475Y0023008D01*
X0268573Y0022849D01*
X0268667Y0022687D01*
X0268757Y0022523D01*
X0268844Y0022357D01*
X0268926Y0022188D01*
X0269004Y0022018D01*
X0269077Y0021846D01*
X0269147Y0021672D01*
X0269212Y0021497D01*
X0269273Y0021320D01*
X0269330Y0021141D01*
X0269382Y0020961D01*
X0269429Y0020780D01*
X0269473Y0020598D01*
X0269511Y0020415D01*
X0269546Y0020231D01*
X0269575Y0020046D01*
X0269601Y0019861D01*
X0269621Y0019675D01*
X0269637Y0019488D01*
X0269649Y0019301D01*
X0269656Y0019114D01*
X0269658Y0018927D01*
X0269656Y0018740D01*
X0269649Y0018553D01*
X0269637Y0018366D01*
X0269621Y0018179D01*
X0269601Y0017993D01*
X0269575Y0017808D01*
X0269546Y0017623D01*
X0269511Y0017439D01*
X0269473Y0017256D01*
X0269429Y0017074D01*
X0269382Y0016893D01*
X0269330Y0016713D01*
X0269273Y0016534D01*
X0269212Y0016357D01*
X0269147Y0016182D01*
X0269077Y0016008D01*
X0269004Y0015836D01*
X0268926Y0015666D01*
X0268844Y0015497D01*
X0268757Y0015331D01*
X0268667Y0015167D01*
X0268573Y0015005D01*
X0268475Y0014846D01*
X0268372Y0014689D01*
X0268267Y0014535D01*
X0268157Y0014383D01*
X0268044Y0014234D01*
X0267927Y0014088D01*
X0267806Y0013945D01*
X0267682Y0013804D01*
X0267555Y0013667D01*
X0267424Y0013533D01*
X0267290Y0013402D01*
X0267153Y0013275D01*
X0267012Y0013151D01*
X0266869Y0013030D01*
X0266723Y0012913D01*
X0266574Y0012800D01*
X0266422Y0012690D01*
X0266268Y0012585D01*
X0266111Y0012482D01*
X0265952Y0012384D01*
X0265790Y0012290D01*
X0265626Y0012200D01*
X0265460Y0012113D01*
X0265291Y0012031D01*
X0265121Y0011953D01*
X0264949Y0011880D01*
X0264775Y0011810D01*
X0264600Y0011745D01*
X0264423Y0011684D01*
X0264244Y0011627D01*
X0264064Y0011575D01*
X0263883Y0011528D01*
X0263701Y0011484D01*
X0263518Y0011446D01*
X0263334Y0011411D01*
X0263149Y0011382D01*
X0262964Y0011356D01*
X0262778Y0011336D01*
X0262591Y0011320D01*
X0262404Y0011308D01*
X0262217Y0011301D01*
X0262030Y0011299D01*
X0261843Y0011301D01*
X0261656Y0011308D01*
X0261469Y0011320D01*
X0261282Y0011336D01*
X0261096Y0011356D01*
X0260911Y0011382D01*
X0260726Y0011411D01*
X0260542Y0011446D01*
X0260359Y0011484D01*
X0260177Y0011528D01*
X0259996Y0011575D01*
X0259816Y0011627D01*
X0259637Y0011684D01*
X0259460Y0011745D01*
X0259285Y0011810D01*
X0259111Y0011880D01*
X0258939Y0011953D01*
X0258769Y0012031D01*
X0258600Y0012113D01*
X0258434Y0012200D01*
X0258270Y0012290D01*
X0258108Y0012384D01*
X0257949Y0012482D01*
X0257792Y0012585D01*
X0257638Y0012690D01*
X0257486Y0012800D01*
X0257337Y0012913D01*
X0257191Y0013030D01*
X0257048Y0013151D01*
X0256907Y0013275D01*
X0256770Y0013402D01*
X0256636Y0013533D01*
X0256505Y0013667D01*
X0256378Y0013804D01*
X0256254Y0013945D01*
X0256133Y0014088D01*
X0256016Y0014234D01*
X0255903Y0014383D01*
X0255793Y0014535D01*
X0255688Y0014689D01*
X0255585Y0014846D01*
X0255487Y0015005D01*
X0255393Y0015167D01*
X0255303Y0015331D01*
X0255216Y0015497D01*
X0255134Y0015666D01*
X0255056Y0015836D01*
X0254983Y0016008D01*
X0254913Y0016182D01*
X0254848Y0016357D01*
X0254787Y0016534D01*
X0254730Y0016713D01*
X0254678Y0016893D01*
X0254631Y0017074D01*
X0254587Y0017256D01*
X0254549Y0017439D01*
X0254514Y0017623D01*
X0254485Y0017808D01*
X0254459Y0017993D01*
X0254439Y0018179D01*
X0254423Y0018366D01*
X0254411Y0018553D01*
X0254404Y0018740D01*
X0254402Y0018927D01*
X0254402Y0211841D02*
X0254404Y0212028D01*
X0254411Y0212215D01*
X0254423Y0212402D01*
X0254439Y0212589D01*
X0254459Y0212775D01*
X0254485Y0212960D01*
X0254514Y0213145D01*
X0254549Y0213329D01*
X0254587Y0213512D01*
X0254631Y0213694D01*
X0254678Y0213875D01*
X0254730Y0214055D01*
X0254787Y0214234D01*
X0254848Y0214411D01*
X0254913Y0214586D01*
X0254983Y0214760D01*
X0255056Y0214932D01*
X0255134Y0215102D01*
X0255216Y0215271D01*
X0255303Y0215437D01*
X0255393Y0215601D01*
X0255487Y0215763D01*
X0255585Y0215922D01*
X0255688Y0216079D01*
X0255793Y0216233D01*
X0255903Y0216385D01*
X0256016Y0216534D01*
X0256133Y0216680D01*
X0256254Y0216823D01*
X0256378Y0216964D01*
X0256505Y0217101D01*
X0256636Y0217235D01*
X0256770Y0217366D01*
X0256907Y0217493D01*
X0257048Y0217617D01*
X0257191Y0217738D01*
X0257337Y0217855D01*
X0257486Y0217968D01*
X0257638Y0218078D01*
X0257792Y0218183D01*
X0257949Y0218286D01*
X0258108Y0218384D01*
X0258270Y0218478D01*
X0258434Y0218568D01*
X0258600Y0218655D01*
X0258769Y0218737D01*
X0258939Y0218815D01*
X0259111Y0218888D01*
X0259285Y0218958D01*
X0259460Y0219023D01*
X0259637Y0219084D01*
X0259816Y0219141D01*
X0259996Y0219193D01*
X0260177Y0219240D01*
X0260359Y0219284D01*
X0260542Y0219322D01*
X0260726Y0219357D01*
X0260911Y0219386D01*
X0261096Y0219412D01*
X0261282Y0219432D01*
X0261469Y0219448D01*
X0261656Y0219460D01*
X0261843Y0219467D01*
X0262030Y0219469D01*
X0262217Y0219467D01*
X0262404Y0219460D01*
X0262591Y0219448D01*
X0262778Y0219432D01*
X0262964Y0219412D01*
X0263149Y0219386D01*
X0263334Y0219357D01*
X0263518Y0219322D01*
X0263701Y0219284D01*
X0263883Y0219240D01*
X0264064Y0219193D01*
X0264244Y0219141D01*
X0264423Y0219084D01*
X0264600Y0219023D01*
X0264775Y0218958D01*
X0264949Y0218888D01*
X0265121Y0218815D01*
X0265291Y0218737D01*
X0265460Y0218655D01*
X0265626Y0218568D01*
X0265790Y0218478D01*
X0265952Y0218384D01*
X0266111Y0218286D01*
X0266268Y0218183D01*
X0266422Y0218078D01*
X0266574Y0217968D01*
X0266723Y0217855D01*
X0266869Y0217738D01*
X0267012Y0217617D01*
X0267153Y0217493D01*
X0267290Y0217366D01*
X0267424Y0217235D01*
X0267555Y0217101D01*
X0267682Y0216964D01*
X0267806Y0216823D01*
X0267927Y0216680D01*
X0268044Y0216534D01*
X0268157Y0216385D01*
X0268267Y0216233D01*
X0268372Y0216079D01*
X0268475Y0215922D01*
X0268573Y0215763D01*
X0268667Y0215601D01*
X0268757Y0215437D01*
X0268844Y0215271D01*
X0268926Y0215102D01*
X0269004Y0214932D01*
X0269077Y0214760D01*
X0269147Y0214586D01*
X0269212Y0214411D01*
X0269273Y0214234D01*
X0269330Y0214055D01*
X0269382Y0213875D01*
X0269429Y0213694D01*
X0269473Y0213512D01*
X0269511Y0213329D01*
X0269546Y0213145D01*
X0269575Y0212960D01*
X0269601Y0212775D01*
X0269621Y0212589D01*
X0269637Y0212402D01*
X0269649Y0212215D01*
X0269656Y0212028D01*
X0269658Y0211841D01*
X0269656Y0211654D01*
X0269649Y0211467D01*
X0269637Y0211280D01*
X0269621Y0211093D01*
X0269601Y0210907D01*
X0269575Y0210722D01*
X0269546Y0210537D01*
X0269511Y0210353D01*
X0269473Y0210170D01*
X0269429Y0209988D01*
X0269382Y0209807D01*
X0269330Y0209627D01*
X0269273Y0209448D01*
X0269212Y0209271D01*
X0269147Y0209096D01*
X0269077Y0208922D01*
X0269004Y0208750D01*
X0268926Y0208580D01*
X0268844Y0208411D01*
X0268757Y0208245D01*
X0268667Y0208081D01*
X0268573Y0207919D01*
X0268475Y0207760D01*
X0268372Y0207603D01*
X0268267Y0207449D01*
X0268157Y0207297D01*
X0268044Y0207148D01*
X0267927Y0207002D01*
X0267806Y0206859D01*
X0267682Y0206718D01*
X0267555Y0206581D01*
X0267424Y0206447D01*
X0267290Y0206316D01*
X0267153Y0206189D01*
X0267012Y0206065D01*
X0266869Y0205944D01*
X0266723Y0205827D01*
X0266574Y0205714D01*
X0266422Y0205604D01*
X0266268Y0205499D01*
X0266111Y0205396D01*
X0265952Y0205298D01*
X0265790Y0205204D01*
X0265626Y0205114D01*
X0265460Y0205027D01*
X0265291Y0204945D01*
X0265121Y0204867D01*
X0264949Y0204794D01*
X0264775Y0204724D01*
X0264600Y0204659D01*
X0264423Y0204598D01*
X0264244Y0204541D01*
X0264064Y0204489D01*
X0263883Y0204442D01*
X0263701Y0204398D01*
X0263518Y0204360D01*
X0263334Y0204325D01*
X0263149Y0204296D01*
X0262964Y0204270D01*
X0262778Y0204250D01*
X0262591Y0204234D01*
X0262404Y0204222D01*
X0262217Y0204215D01*
X0262030Y0204213D01*
X0261843Y0204215D01*
X0261656Y0204222D01*
X0261469Y0204234D01*
X0261282Y0204250D01*
X0261096Y0204270D01*
X0260911Y0204296D01*
X0260726Y0204325D01*
X0260542Y0204360D01*
X0260359Y0204398D01*
X0260177Y0204442D01*
X0259996Y0204489D01*
X0259816Y0204541D01*
X0259637Y0204598D01*
X0259460Y0204659D01*
X0259285Y0204724D01*
X0259111Y0204794D01*
X0258939Y0204867D01*
X0258769Y0204945D01*
X0258600Y0205027D01*
X0258434Y0205114D01*
X0258270Y0205204D01*
X0258108Y0205298D01*
X0257949Y0205396D01*
X0257792Y0205499D01*
X0257638Y0205604D01*
X0257486Y0205714D01*
X0257337Y0205827D01*
X0257191Y0205944D01*
X0257048Y0206065D01*
X0256907Y0206189D01*
X0256770Y0206316D01*
X0256636Y0206447D01*
X0256505Y0206581D01*
X0256378Y0206718D01*
X0256254Y0206859D01*
X0256133Y0207002D01*
X0256016Y0207148D01*
X0255903Y0207297D01*
X0255793Y0207449D01*
X0255688Y0207603D01*
X0255585Y0207760D01*
X0255487Y0207919D01*
X0255393Y0208081D01*
X0255303Y0208245D01*
X0255216Y0208411D01*
X0255134Y0208580D01*
X0255056Y0208750D01*
X0254983Y0208922D01*
X0254913Y0209096D01*
X0254848Y0209271D01*
X0254787Y0209448D01*
X0254730Y0209627D01*
X0254678Y0209807D01*
X0254631Y0209988D01*
X0254587Y0210170D01*
X0254549Y0210353D01*
X0254514Y0210537D01*
X0254485Y0210722D01*
X0254459Y0210907D01*
X0254439Y0211093D01*
X0254423Y0211280D01*
X0254411Y0211467D01*
X0254404Y0211654D01*
X0254402Y0211841D01*
X0026055Y0211841D02*
X0026057Y0212028D01*
X0026064Y0212215D01*
X0026076Y0212402D01*
X0026092Y0212589D01*
X0026112Y0212775D01*
X0026138Y0212960D01*
X0026167Y0213145D01*
X0026202Y0213329D01*
X0026240Y0213512D01*
X0026284Y0213694D01*
X0026331Y0213875D01*
X0026383Y0214055D01*
X0026440Y0214234D01*
X0026501Y0214411D01*
X0026566Y0214586D01*
X0026636Y0214760D01*
X0026709Y0214932D01*
X0026787Y0215102D01*
X0026869Y0215271D01*
X0026956Y0215437D01*
X0027046Y0215601D01*
X0027140Y0215763D01*
X0027238Y0215922D01*
X0027341Y0216079D01*
X0027446Y0216233D01*
X0027556Y0216385D01*
X0027669Y0216534D01*
X0027786Y0216680D01*
X0027907Y0216823D01*
X0028031Y0216964D01*
X0028158Y0217101D01*
X0028289Y0217235D01*
X0028423Y0217366D01*
X0028560Y0217493D01*
X0028701Y0217617D01*
X0028844Y0217738D01*
X0028990Y0217855D01*
X0029139Y0217968D01*
X0029291Y0218078D01*
X0029445Y0218183D01*
X0029602Y0218286D01*
X0029761Y0218384D01*
X0029923Y0218478D01*
X0030087Y0218568D01*
X0030253Y0218655D01*
X0030422Y0218737D01*
X0030592Y0218815D01*
X0030764Y0218888D01*
X0030938Y0218958D01*
X0031113Y0219023D01*
X0031290Y0219084D01*
X0031469Y0219141D01*
X0031649Y0219193D01*
X0031830Y0219240D01*
X0032012Y0219284D01*
X0032195Y0219322D01*
X0032379Y0219357D01*
X0032564Y0219386D01*
X0032749Y0219412D01*
X0032935Y0219432D01*
X0033122Y0219448D01*
X0033309Y0219460D01*
X0033496Y0219467D01*
X0033683Y0219469D01*
X0033870Y0219467D01*
X0034057Y0219460D01*
X0034244Y0219448D01*
X0034431Y0219432D01*
X0034617Y0219412D01*
X0034802Y0219386D01*
X0034987Y0219357D01*
X0035171Y0219322D01*
X0035354Y0219284D01*
X0035536Y0219240D01*
X0035717Y0219193D01*
X0035897Y0219141D01*
X0036076Y0219084D01*
X0036253Y0219023D01*
X0036428Y0218958D01*
X0036602Y0218888D01*
X0036774Y0218815D01*
X0036944Y0218737D01*
X0037113Y0218655D01*
X0037279Y0218568D01*
X0037443Y0218478D01*
X0037605Y0218384D01*
X0037764Y0218286D01*
X0037921Y0218183D01*
X0038075Y0218078D01*
X0038227Y0217968D01*
X0038376Y0217855D01*
X0038522Y0217738D01*
X0038665Y0217617D01*
X0038806Y0217493D01*
X0038943Y0217366D01*
X0039077Y0217235D01*
X0039208Y0217101D01*
X0039335Y0216964D01*
X0039459Y0216823D01*
X0039580Y0216680D01*
X0039697Y0216534D01*
X0039810Y0216385D01*
X0039920Y0216233D01*
X0040025Y0216079D01*
X0040128Y0215922D01*
X0040226Y0215763D01*
X0040320Y0215601D01*
X0040410Y0215437D01*
X0040497Y0215271D01*
X0040579Y0215102D01*
X0040657Y0214932D01*
X0040730Y0214760D01*
X0040800Y0214586D01*
X0040865Y0214411D01*
X0040926Y0214234D01*
X0040983Y0214055D01*
X0041035Y0213875D01*
X0041082Y0213694D01*
X0041126Y0213512D01*
X0041164Y0213329D01*
X0041199Y0213145D01*
X0041228Y0212960D01*
X0041254Y0212775D01*
X0041274Y0212589D01*
X0041290Y0212402D01*
X0041302Y0212215D01*
X0041309Y0212028D01*
X0041311Y0211841D01*
X0041309Y0211654D01*
X0041302Y0211467D01*
X0041290Y0211280D01*
X0041274Y0211093D01*
X0041254Y0210907D01*
X0041228Y0210722D01*
X0041199Y0210537D01*
X0041164Y0210353D01*
X0041126Y0210170D01*
X0041082Y0209988D01*
X0041035Y0209807D01*
X0040983Y0209627D01*
X0040926Y0209448D01*
X0040865Y0209271D01*
X0040800Y0209096D01*
X0040730Y0208922D01*
X0040657Y0208750D01*
X0040579Y0208580D01*
X0040497Y0208411D01*
X0040410Y0208245D01*
X0040320Y0208081D01*
X0040226Y0207919D01*
X0040128Y0207760D01*
X0040025Y0207603D01*
X0039920Y0207449D01*
X0039810Y0207297D01*
X0039697Y0207148D01*
X0039580Y0207002D01*
X0039459Y0206859D01*
X0039335Y0206718D01*
X0039208Y0206581D01*
X0039077Y0206447D01*
X0038943Y0206316D01*
X0038806Y0206189D01*
X0038665Y0206065D01*
X0038522Y0205944D01*
X0038376Y0205827D01*
X0038227Y0205714D01*
X0038075Y0205604D01*
X0037921Y0205499D01*
X0037764Y0205396D01*
X0037605Y0205298D01*
X0037443Y0205204D01*
X0037279Y0205114D01*
X0037113Y0205027D01*
X0036944Y0204945D01*
X0036774Y0204867D01*
X0036602Y0204794D01*
X0036428Y0204724D01*
X0036253Y0204659D01*
X0036076Y0204598D01*
X0035897Y0204541D01*
X0035717Y0204489D01*
X0035536Y0204442D01*
X0035354Y0204398D01*
X0035171Y0204360D01*
X0034987Y0204325D01*
X0034802Y0204296D01*
X0034617Y0204270D01*
X0034431Y0204250D01*
X0034244Y0204234D01*
X0034057Y0204222D01*
X0033870Y0204215D01*
X0033683Y0204213D01*
X0033496Y0204215D01*
X0033309Y0204222D01*
X0033122Y0204234D01*
X0032935Y0204250D01*
X0032749Y0204270D01*
X0032564Y0204296D01*
X0032379Y0204325D01*
X0032195Y0204360D01*
X0032012Y0204398D01*
X0031830Y0204442D01*
X0031649Y0204489D01*
X0031469Y0204541D01*
X0031290Y0204598D01*
X0031113Y0204659D01*
X0030938Y0204724D01*
X0030764Y0204794D01*
X0030592Y0204867D01*
X0030422Y0204945D01*
X0030253Y0205027D01*
X0030087Y0205114D01*
X0029923Y0205204D01*
X0029761Y0205298D01*
X0029602Y0205396D01*
X0029445Y0205499D01*
X0029291Y0205604D01*
X0029139Y0205714D01*
X0028990Y0205827D01*
X0028844Y0205944D01*
X0028701Y0206065D01*
X0028560Y0206189D01*
X0028423Y0206316D01*
X0028289Y0206447D01*
X0028158Y0206581D01*
X0028031Y0206718D01*
X0027907Y0206859D01*
X0027786Y0207002D01*
X0027669Y0207148D01*
X0027556Y0207297D01*
X0027446Y0207449D01*
X0027341Y0207603D01*
X0027238Y0207760D01*
X0027140Y0207919D01*
X0027046Y0208081D01*
X0026956Y0208245D01*
X0026869Y0208411D01*
X0026787Y0208580D01*
X0026709Y0208750D01*
X0026636Y0208922D01*
X0026566Y0209096D01*
X0026501Y0209271D01*
X0026440Y0209448D01*
X0026383Y0209627D01*
X0026331Y0209807D01*
X0026284Y0209988D01*
X0026240Y0210170D01*
X0026202Y0210353D01*
X0026167Y0210537D01*
X0026138Y0210722D01*
X0026112Y0210907D01*
X0026092Y0211093D01*
X0026076Y0211280D01*
X0026064Y0211467D01*
X0026057Y0211654D01*
X0026055Y0211841D01*
D13*
X0296951Y0132904D03*
X0307266Y0132904D03*
X0307413Y0123061D03*
X0296951Y0123061D03*
X0296951Y0115187D03*
X0307413Y0115187D03*
X0307413Y0105344D03*
X0296951Y0105344D03*
D14*
X0295573Y0093337D03*
X0317935Y0093337D03*
X0317935Y0144911D03*
X0295573Y0144911D03*
D15*
X0174431Y0034715D03*
X0176794Y0015423D03*
X0117345Y0034715D03*
X0114983Y0015423D03*
D16*
X0071479Y0021486D03*
X0051794Y0021486D03*
D17*
X0047857Y0010856D03*
X0075416Y0010856D03*
D18*
X0052857Y0206841D03*
D19*
X0062857Y0206841D03*
X0072857Y0206841D03*
X0082857Y0206841D03*
X0092857Y0206841D03*
X0102857Y0206841D03*
X0112857Y0206841D03*
X0122857Y0206841D03*
X0132857Y0206841D03*
X0142857Y0206841D03*
X0152857Y0206841D03*
X0162857Y0206841D03*
X0172857Y0206841D03*
X0182857Y0206841D03*
X0192857Y0206841D03*
X0202857Y0206841D03*
X0212857Y0206841D03*
X0222857Y0206841D03*
X0232857Y0206841D03*
X0242857Y0206841D03*
X0242857Y0216841D03*
X0232857Y0216841D03*
X0222857Y0216841D03*
X0212857Y0216841D03*
X0202857Y0216841D03*
X0192857Y0216841D03*
X0182857Y0216841D03*
X0172857Y0216841D03*
X0162857Y0216841D03*
X0152857Y0216841D03*
X0142857Y0216841D03*
X0132857Y0216841D03*
X0122857Y0216841D03*
X0112857Y0216841D03*
X0102857Y0216841D03*
X0092857Y0216841D03*
X0082857Y0216841D03*
X0072857Y0216841D03*
X0062857Y0216841D03*
X0052857Y0216841D03*
D20*
X0081321Y0124242D03*
X0081321Y0101801D03*
D21*
X0029550Y0095502D03*
X0025613Y0147274D03*
D22*
X0040770Y0128927D03*
X0042345Y0124596D03*
X0040770Y0120266D03*
X0039983Y0115935D03*
X0040770Y0111604D03*
X0039983Y0107274D03*
X0040770Y0102943D03*
X0040770Y0098612D03*
D23*
X0230534Y0054360D03*
X0230534Y0026801D03*
D24*
X0037778Y0083888D03*
X0027778Y0083888D03*
X0295494Y0185502D03*
X0295494Y0195502D03*
D25*
X0323054Y0199045D03*
X0323054Y0181329D03*
D26*
X0313211Y0176407D03*
X0313211Y0203967D03*
M02*
