G75*
%MOIN*%
%OFA0B0*%
%FSLAX25Y25*%
%IPPOS*%
%LPD*%
%AMOC8*
5,1,8,0,0,1.08239X$1,22.5*
%
%ADD10C,0.00000*%
%ADD11C,0.00300*%
%ADD12C,0.00700*%
%ADD13C,0.00500*%
%ADD14C,0.00600*%
%ADD15C,0.00800*%
%ADD16C,0.01000*%
%ADD17C,0.00787*%
%ADD18C,0.00100*%
%ADD19R,0.01800X0.03000*%
%ADD20R,0.03000X0.01800*%
%ADD21C,0.02200*%
%ADD22C,0.00394*%
%ADD23C,0.00197*%
D10*
X0019904Y0016959D02*
X0019904Y0213809D01*
X0019907Y0214094D01*
X0019918Y0214380D01*
X0019935Y0214665D01*
X0019959Y0214949D01*
X0019990Y0215233D01*
X0020028Y0215516D01*
X0020073Y0215797D01*
X0020124Y0216078D01*
X0020182Y0216358D01*
X0020247Y0216636D01*
X0020319Y0216912D01*
X0020397Y0217186D01*
X0020482Y0217459D01*
X0020574Y0217729D01*
X0020672Y0217997D01*
X0020776Y0218263D01*
X0020887Y0218526D01*
X0021004Y0218786D01*
X0021127Y0219044D01*
X0021257Y0219298D01*
X0021393Y0219549D01*
X0021534Y0219797D01*
X0021682Y0220041D01*
X0021835Y0220282D01*
X0021995Y0220518D01*
X0022160Y0220751D01*
X0022330Y0220980D01*
X0022506Y0221205D01*
X0022688Y0221425D01*
X0022874Y0221641D01*
X0023066Y0221852D01*
X0023263Y0222059D01*
X0023465Y0222261D01*
X0023672Y0222458D01*
X0023883Y0222650D01*
X0024099Y0222836D01*
X0024319Y0223018D01*
X0024544Y0223194D01*
X0024773Y0223364D01*
X0025006Y0223529D01*
X0025242Y0223689D01*
X0025483Y0223842D01*
X0025727Y0223990D01*
X0025975Y0224131D01*
X0026226Y0224267D01*
X0026480Y0224397D01*
X0026738Y0224520D01*
X0026998Y0224637D01*
X0027261Y0224748D01*
X0027527Y0224852D01*
X0027795Y0224950D01*
X0028065Y0225042D01*
X0028338Y0225127D01*
X0028612Y0225205D01*
X0028888Y0225277D01*
X0029166Y0225342D01*
X0029446Y0225400D01*
X0029727Y0225451D01*
X0030008Y0225496D01*
X0030291Y0225534D01*
X0030575Y0225565D01*
X0030859Y0225589D01*
X0031144Y0225606D01*
X0031430Y0225617D01*
X0031715Y0225620D01*
X0342739Y0225620D01*
X0343024Y0225617D01*
X0343310Y0225606D01*
X0343595Y0225589D01*
X0343879Y0225565D01*
X0344163Y0225534D01*
X0344446Y0225496D01*
X0344727Y0225451D01*
X0345008Y0225400D01*
X0345288Y0225342D01*
X0345566Y0225277D01*
X0345842Y0225205D01*
X0346116Y0225127D01*
X0346389Y0225042D01*
X0346659Y0224950D01*
X0346927Y0224852D01*
X0347193Y0224748D01*
X0347456Y0224637D01*
X0347716Y0224520D01*
X0347974Y0224397D01*
X0348228Y0224267D01*
X0348479Y0224131D01*
X0348727Y0223990D01*
X0348971Y0223842D01*
X0349212Y0223689D01*
X0349448Y0223529D01*
X0349681Y0223364D01*
X0349910Y0223194D01*
X0350135Y0223018D01*
X0350355Y0222836D01*
X0350571Y0222650D01*
X0350782Y0222458D01*
X0350989Y0222261D01*
X0351191Y0222059D01*
X0351388Y0221852D01*
X0351580Y0221641D01*
X0351766Y0221425D01*
X0351948Y0221205D01*
X0352124Y0220980D01*
X0352294Y0220751D01*
X0352459Y0220518D01*
X0352619Y0220282D01*
X0352772Y0220041D01*
X0352920Y0219797D01*
X0353061Y0219549D01*
X0353197Y0219298D01*
X0353327Y0219044D01*
X0353450Y0218786D01*
X0353567Y0218526D01*
X0353678Y0218263D01*
X0353782Y0217997D01*
X0353880Y0217729D01*
X0353972Y0217459D01*
X0354057Y0217186D01*
X0354135Y0216912D01*
X0354207Y0216636D01*
X0354272Y0216358D01*
X0354330Y0216078D01*
X0354381Y0215797D01*
X0354426Y0215516D01*
X0354464Y0215233D01*
X0354495Y0214949D01*
X0354519Y0214665D01*
X0354536Y0214380D01*
X0354547Y0214094D01*
X0354550Y0213809D01*
X0354550Y0016959D01*
X0354547Y0016674D01*
X0354536Y0016388D01*
X0354519Y0016103D01*
X0354495Y0015819D01*
X0354464Y0015535D01*
X0354426Y0015252D01*
X0354381Y0014971D01*
X0354330Y0014690D01*
X0354272Y0014410D01*
X0354207Y0014132D01*
X0354135Y0013856D01*
X0354057Y0013582D01*
X0353972Y0013309D01*
X0353880Y0013039D01*
X0353782Y0012771D01*
X0353678Y0012505D01*
X0353567Y0012242D01*
X0353450Y0011982D01*
X0353327Y0011724D01*
X0353197Y0011470D01*
X0353061Y0011219D01*
X0352920Y0010971D01*
X0352772Y0010727D01*
X0352619Y0010486D01*
X0352459Y0010250D01*
X0352294Y0010017D01*
X0352124Y0009788D01*
X0351948Y0009563D01*
X0351766Y0009343D01*
X0351580Y0009127D01*
X0351388Y0008916D01*
X0351191Y0008709D01*
X0350989Y0008507D01*
X0350782Y0008310D01*
X0350571Y0008118D01*
X0350355Y0007932D01*
X0350135Y0007750D01*
X0349910Y0007574D01*
X0349681Y0007404D01*
X0349448Y0007239D01*
X0349212Y0007079D01*
X0348971Y0006926D01*
X0348727Y0006778D01*
X0348479Y0006637D01*
X0348228Y0006501D01*
X0347974Y0006371D01*
X0347716Y0006248D01*
X0347456Y0006131D01*
X0347193Y0006020D01*
X0346927Y0005916D01*
X0346659Y0005818D01*
X0346389Y0005726D01*
X0346116Y0005641D01*
X0345842Y0005563D01*
X0345566Y0005491D01*
X0345288Y0005426D01*
X0345008Y0005368D01*
X0344727Y0005317D01*
X0344446Y0005272D01*
X0344163Y0005234D01*
X0343879Y0005203D01*
X0343595Y0005179D01*
X0343310Y0005162D01*
X0343024Y0005151D01*
X0342739Y0005148D01*
X0031715Y0005148D01*
X0031430Y0005151D01*
X0031144Y0005162D01*
X0030859Y0005179D01*
X0030575Y0005203D01*
X0030291Y0005234D01*
X0030008Y0005272D01*
X0029727Y0005317D01*
X0029446Y0005368D01*
X0029166Y0005426D01*
X0028888Y0005491D01*
X0028612Y0005563D01*
X0028338Y0005641D01*
X0028065Y0005726D01*
X0027795Y0005818D01*
X0027527Y0005916D01*
X0027261Y0006020D01*
X0026998Y0006131D01*
X0026738Y0006248D01*
X0026480Y0006371D01*
X0026226Y0006501D01*
X0025975Y0006637D01*
X0025727Y0006778D01*
X0025483Y0006926D01*
X0025242Y0007079D01*
X0025006Y0007239D01*
X0024773Y0007404D01*
X0024544Y0007574D01*
X0024319Y0007750D01*
X0024099Y0007932D01*
X0023883Y0008118D01*
X0023672Y0008310D01*
X0023465Y0008507D01*
X0023263Y0008709D01*
X0023066Y0008916D01*
X0022874Y0009127D01*
X0022688Y0009343D01*
X0022506Y0009563D01*
X0022330Y0009788D01*
X0022160Y0010017D01*
X0021995Y0010250D01*
X0021835Y0010486D01*
X0021682Y0010727D01*
X0021534Y0010971D01*
X0021393Y0011219D01*
X0021257Y0011470D01*
X0021127Y0011724D01*
X0021004Y0011982D01*
X0020887Y0012242D01*
X0020776Y0012505D01*
X0020672Y0012771D01*
X0020574Y0013039D01*
X0020482Y0013309D01*
X0020397Y0013582D01*
X0020319Y0013856D01*
X0020247Y0014132D01*
X0020182Y0014410D01*
X0020124Y0014690D01*
X0020073Y0014971D01*
X0020028Y0015252D01*
X0019990Y0015535D01*
X0019959Y0015819D01*
X0019935Y0016103D01*
X0019918Y0016388D01*
X0019907Y0016674D01*
X0019904Y0016959D01*
X0028270Y0018927D02*
X0028272Y0019074D01*
X0028278Y0019220D01*
X0028288Y0019366D01*
X0028302Y0019512D01*
X0028320Y0019658D01*
X0028341Y0019803D01*
X0028367Y0019947D01*
X0028397Y0020091D01*
X0028430Y0020233D01*
X0028467Y0020375D01*
X0028508Y0020516D01*
X0028553Y0020655D01*
X0028602Y0020794D01*
X0028654Y0020931D01*
X0028711Y0021066D01*
X0028770Y0021200D01*
X0028834Y0021332D01*
X0028901Y0021462D01*
X0028971Y0021591D01*
X0029045Y0021718D01*
X0029122Y0021842D01*
X0029203Y0021965D01*
X0029287Y0022085D01*
X0029374Y0022203D01*
X0029464Y0022318D01*
X0029557Y0022431D01*
X0029654Y0022542D01*
X0029753Y0022650D01*
X0029855Y0022755D01*
X0029960Y0022857D01*
X0030068Y0022956D01*
X0030179Y0023053D01*
X0030292Y0023146D01*
X0030407Y0023236D01*
X0030525Y0023323D01*
X0030645Y0023407D01*
X0030768Y0023488D01*
X0030892Y0023565D01*
X0031019Y0023639D01*
X0031148Y0023709D01*
X0031278Y0023776D01*
X0031410Y0023840D01*
X0031544Y0023899D01*
X0031679Y0023956D01*
X0031816Y0024008D01*
X0031955Y0024057D01*
X0032094Y0024102D01*
X0032235Y0024143D01*
X0032377Y0024180D01*
X0032519Y0024213D01*
X0032663Y0024243D01*
X0032807Y0024269D01*
X0032952Y0024290D01*
X0033098Y0024308D01*
X0033244Y0024322D01*
X0033390Y0024332D01*
X0033536Y0024338D01*
X0033683Y0024340D01*
X0033830Y0024338D01*
X0033976Y0024332D01*
X0034122Y0024322D01*
X0034268Y0024308D01*
X0034414Y0024290D01*
X0034559Y0024269D01*
X0034703Y0024243D01*
X0034847Y0024213D01*
X0034989Y0024180D01*
X0035131Y0024143D01*
X0035272Y0024102D01*
X0035411Y0024057D01*
X0035550Y0024008D01*
X0035687Y0023956D01*
X0035822Y0023899D01*
X0035956Y0023840D01*
X0036088Y0023776D01*
X0036218Y0023709D01*
X0036347Y0023639D01*
X0036474Y0023565D01*
X0036598Y0023488D01*
X0036721Y0023407D01*
X0036841Y0023323D01*
X0036959Y0023236D01*
X0037074Y0023146D01*
X0037187Y0023053D01*
X0037298Y0022956D01*
X0037406Y0022857D01*
X0037511Y0022755D01*
X0037613Y0022650D01*
X0037712Y0022542D01*
X0037809Y0022431D01*
X0037902Y0022318D01*
X0037992Y0022203D01*
X0038079Y0022085D01*
X0038163Y0021965D01*
X0038244Y0021842D01*
X0038321Y0021718D01*
X0038395Y0021591D01*
X0038465Y0021462D01*
X0038532Y0021332D01*
X0038596Y0021200D01*
X0038655Y0021066D01*
X0038712Y0020931D01*
X0038764Y0020794D01*
X0038813Y0020655D01*
X0038858Y0020516D01*
X0038899Y0020375D01*
X0038936Y0020233D01*
X0038969Y0020091D01*
X0038999Y0019947D01*
X0039025Y0019803D01*
X0039046Y0019658D01*
X0039064Y0019512D01*
X0039078Y0019366D01*
X0039088Y0019220D01*
X0039094Y0019074D01*
X0039096Y0018927D01*
X0039094Y0018780D01*
X0039088Y0018634D01*
X0039078Y0018488D01*
X0039064Y0018342D01*
X0039046Y0018196D01*
X0039025Y0018051D01*
X0038999Y0017907D01*
X0038969Y0017763D01*
X0038936Y0017621D01*
X0038899Y0017479D01*
X0038858Y0017338D01*
X0038813Y0017199D01*
X0038764Y0017060D01*
X0038712Y0016923D01*
X0038655Y0016788D01*
X0038596Y0016654D01*
X0038532Y0016522D01*
X0038465Y0016392D01*
X0038395Y0016263D01*
X0038321Y0016136D01*
X0038244Y0016012D01*
X0038163Y0015889D01*
X0038079Y0015769D01*
X0037992Y0015651D01*
X0037902Y0015536D01*
X0037809Y0015423D01*
X0037712Y0015312D01*
X0037613Y0015204D01*
X0037511Y0015099D01*
X0037406Y0014997D01*
X0037298Y0014898D01*
X0037187Y0014801D01*
X0037074Y0014708D01*
X0036959Y0014618D01*
X0036841Y0014531D01*
X0036721Y0014447D01*
X0036598Y0014366D01*
X0036474Y0014289D01*
X0036347Y0014215D01*
X0036218Y0014145D01*
X0036088Y0014078D01*
X0035956Y0014014D01*
X0035822Y0013955D01*
X0035687Y0013898D01*
X0035550Y0013846D01*
X0035411Y0013797D01*
X0035272Y0013752D01*
X0035131Y0013711D01*
X0034989Y0013674D01*
X0034847Y0013641D01*
X0034703Y0013611D01*
X0034559Y0013585D01*
X0034414Y0013564D01*
X0034268Y0013546D01*
X0034122Y0013532D01*
X0033976Y0013522D01*
X0033830Y0013516D01*
X0033683Y0013514D01*
X0033536Y0013516D01*
X0033390Y0013522D01*
X0033244Y0013532D01*
X0033098Y0013546D01*
X0032952Y0013564D01*
X0032807Y0013585D01*
X0032663Y0013611D01*
X0032519Y0013641D01*
X0032377Y0013674D01*
X0032235Y0013711D01*
X0032094Y0013752D01*
X0031955Y0013797D01*
X0031816Y0013846D01*
X0031679Y0013898D01*
X0031544Y0013955D01*
X0031410Y0014014D01*
X0031278Y0014078D01*
X0031148Y0014145D01*
X0031019Y0014215D01*
X0030892Y0014289D01*
X0030768Y0014366D01*
X0030645Y0014447D01*
X0030525Y0014531D01*
X0030407Y0014618D01*
X0030292Y0014708D01*
X0030179Y0014801D01*
X0030068Y0014898D01*
X0029960Y0014997D01*
X0029855Y0015099D01*
X0029753Y0015204D01*
X0029654Y0015312D01*
X0029557Y0015423D01*
X0029464Y0015536D01*
X0029374Y0015651D01*
X0029287Y0015769D01*
X0029203Y0015889D01*
X0029122Y0016012D01*
X0029045Y0016136D01*
X0028971Y0016263D01*
X0028901Y0016392D01*
X0028834Y0016522D01*
X0028770Y0016654D01*
X0028711Y0016788D01*
X0028654Y0016923D01*
X0028602Y0017060D01*
X0028553Y0017199D01*
X0028508Y0017338D01*
X0028467Y0017479D01*
X0028430Y0017621D01*
X0028397Y0017763D01*
X0028367Y0017907D01*
X0028341Y0018051D01*
X0028320Y0018196D01*
X0028302Y0018342D01*
X0028288Y0018488D01*
X0028278Y0018634D01*
X0028272Y0018780D01*
X0028270Y0018927D01*
X0227188Y0026801D02*
X0227190Y0026916D01*
X0227196Y0027032D01*
X0227206Y0027147D01*
X0227220Y0027262D01*
X0227238Y0027376D01*
X0227260Y0027489D01*
X0227285Y0027602D01*
X0227315Y0027713D01*
X0227348Y0027824D01*
X0227385Y0027933D01*
X0227426Y0028041D01*
X0227471Y0028148D01*
X0227519Y0028253D01*
X0227571Y0028356D01*
X0227627Y0028457D01*
X0227686Y0028557D01*
X0227748Y0028654D01*
X0227814Y0028749D01*
X0227882Y0028842D01*
X0227954Y0028932D01*
X0228029Y0029020D01*
X0228108Y0029105D01*
X0228189Y0029187D01*
X0228272Y0029267D01*
X0228359Y0029343D01*
X0228448Y0029417D01*
X0228539Y0029487D01*
X0228633Y0029555D01*
X0228729Y0029619D01*
X0228828Y0029679D01*
X0228928Y0029736D01*
X0229030Y0029790D01*
X0229134Y0029840D01*
X0229240Y0029887D01*
X0229347Y0029930D01*
X0229456Y0029969D01*
X0229566Y0030004D01*
X0229677Y0030035D01*
X0229789Y0030063D01*
X0229902Y0030087D01*
X0230016Y0030107D01*
X0230131Y0030123D01*
X0230246Y0030135D01*
X0230361Y0030143D01*
X0230476Y0030147D01*
X0230592Y0030147D01*
X0230707Y0030143D01*
X0230822Y0030135D01*
X0230937Y0030123D01*
X0231052Y0030107D01*
X0231166Y0030087D01*
X0231279Y0030063D01*
X0231391Y0030035D01*
X0231502Y0030004D01*
X0231612Y0029969D01*
X0231721Y0029930D01*
X0231828Y0029887D01*
X0231934Y0029840D01*
X0232038Y0029790D01*
X0232140Y0029736D01*
X0232240Y0029679D01*
X0232339Y0029619D01*
X0232435Y0029555D01*
X0232529Y0029487D01*
X0232620Y0029417D01*
X0232709Y0029343D01*
X0232796Y0029267D01*
X0232879Y0029187D01*
X0232960Y0029105D01*
X0233039Y0029020D01*
X0233114Y0028932D01*
X0233186Y0028842D01*
X0233254Y0028749D01*
X0233320Y0028654D01*
X0233382Y0028557D01*
X0233441Y0028457D01*
X0233497Y0028356D01*
X0233549Y0028253D01*
X0233597Y0028148D01*
X0233642Y0028041D01*
X0233683Y0027933D01*
X0233720Y0027824D01*
X0233753Y0027713D01*
X0233783Y0027602D01*
X0233808Y0027489D01*
X0233830Y0027376D01*
X0233848Y0027262D01*
X0233862Y0027147D01*
X0233872Y0027032D01*
X0233878Y0026916D01*
X0233880Y0026801D01*
X0233878Y0026686D01*
X0233872Y0026570D01*
X0233862Y0026455D01*
X0233848Y0026340D01*
X0233830Y0026226D01*
X0233808Y0026113D01*
X0233783Y0026000D01*
X0233753Y0025889D01*
X0233720Y0025778D01*
X0233683Y0025669D01*
X0233642Y0025561D01*
X0233597Y0025454D01*
X0233549Y0025349D01*
X0233497Y0025246D01*
X0233441Y0025145D01*
X0233382Y0025045D01*
X0233320Y0024948D01*
X0233254Y0024853D01*
X0233186Y0024760D01*
X0233114Y0024670D01*
X0233039Y0024582D01*
X0232960Y0024497D01*
X0232879Y0024415D01*
X0232796Y0024335D01*
X0232709Y0024259D01*
X0232620Y0024185D01*
X0232529Y0024115D01*
X0232435Y0024047D01*
X0232339Y0023983D01*
X0232240Y0023923D01*
X0232140Y0023866D01*
X0232038Y0023812D01*
X0231934Y0023762D01*
X0231828Y0023715D01*
X0231721Y0023672D01*
X0231612Y0023633D01*
X0231502Y0023598D01*
X0231391Y0023567D01*
X0231279Y0023539D01*
X0231166Y0023515D01*
X0231052Y0023495D01*
X0230937Y0023479D01*
X0230822Y0023467D01*
X0230707Y0023459D01*
X0230592Y0023455D01*
X0230476Y0023455D01*
X0230361Y0023459D01*
X0230246Y0023467D01*
X0230131Y0023479D01*
X0230016Y0023495D01*
X0229902Y0023515D01*
X0229789Y0023539D01*
X0229677Y0023567D01*
X0229566Y0023598D01*
X0229456Y0023633D01*
X0229347Y0023672D01*
X0229240Y0023715D01*
X0229134Y0023762D01*
X0229030Y0023812D01*
X0228928Y0023866D01*
X0228828Y0023923D01*
X0228729Y0023983D01*
X0228633Y0024047D01*
X0228539Y0024115D01*
X0228448Y0024185D01*
X0228359Y0024259D01*
X0228272Y0024335D01*
X0228189Y0024415D01*
X0228108Y0024497D01*
X0228029Y0024582D01*
X0227954Y0024670D01*
X0227882Y0024760D01*
X0227814Y0024853D01*
X0227748Y0024948D01*
X0227686Y0025045D01*
X0227627Y0025145D01*
X0227571Y0025246D01*
X0227519Y0025349D01*
X0227471Y0025454D01*
X0227426Y0025561D01*
X0227385Y0025669D01*
X0227348Y0025778D01*
X0227315Y0025889D01*
X0227285Y0026000D01*
X0227260Y0026113D01*
X0227238Y0026226D01*
X0227220Y0026340D01*
X0227206Y0026455D01*
X0227196Y0026570D01*
X0227190Y0026686D01*
X0227188Y0026801D01*
X0256617Y0018927D02*
X0256619Y0019074D01*
X0256625Y0019220D01*
X0256635Y0019366D01*
X0256649Y0019512D01*
X0256667Y0019658D01*
X0256688Y0019803D01*
X0256714Y0019947D01*
X0256744Y0020091D01*
X0256777Y0020233D01*
X0256814Y0020375D01*
X0256855Y0020516D01*
X0256900Y0020655D01*
X0256949Y0020794D01*
X0257001Y0020931D01*
X0257058Y0021066D01*
X0257117Y0021200D01*
X0257181Y0021332D01*
X0257248Y0021462D01*
X0257318Y0021591D01*
X0257392Y0021718D01*
X0257469Y0021842D01*
X0257550Y0021965D01*
X0257634Y0022085D01*
X0257721Y0022203D01*
X0257811Y0022318D01*
X0257904Y0022431D01*
X0258001Y0022542D01*
X0258100Y0022650D01*
X0258202Y0022755D01*
X0258307Y0022857D01*
X0258415Y0022956D01*
X0258526Y0023053D01*
X0258639Y0023146D01*
X0258754Y0023236D01*
X0258872Y0023323D01*
X0258992Y0023407D01*
X0259115Y0023488D01*
X0259239Y0023565D01*
X0259366Y0023639D01*
X0259495Y0023709D01*
X0259625Y0023776D01*
X0259757Y0023840D01*
X0259891Y0023899D01*
X0260026Y0023956D01*
X0260163Y0024008D01*
X0260302Y0024057D01*
X0260441Y0024102D01*
X0260582Y0024143D01*
X0260724Y0024180D01*
X0260866Y0024213D01*
X0261010Y0024243D01*
X0261154Y0024269D01*
X0261299Y0024290D01*
X0261445Y0024308D01*
X0261591Y0024322D01*
X0261737Y0024332D01*
X0261883Y0024338D01*
X0262030Y0024340D01*
X0262177Y0024338D01*
X0262323Y0024332D01*
X0262469Y0024322D01*
X0262615Y0024308D01*
X0262761Y0024290D01*
X0262906Y0024269D01*
X0263050Y0024243D01*
X0263194Y0024213D01*
X0263336Y0024180D01*
X0263478Y0024143D01*
X0263619Y0024102D01*
X0263758Y0024057D01*
X0263897Y0024008D01*
X0264034Y0023956D01*
X0264169Y0023899D01*
X0264303Y0023840D01*
X0264435Y0023776D01*
X0264565Y0023709D01*
X0264694Y0023639D01*
X0264821Y0023565D01*
X0264945Y0023488D01*
X0265068Y0023407D01*
X0265188Y0023323D01*
X0265306Y0023236D01*
X0265421Y0023146D01*
X0265534Y0023053D01*
X0265645Y0022956D01*
X0265753Y0022857D01*
X0265858Y0022755D01*
X0265960Y0022650D01*
X0266059Y0022542D01*
X0266156Y0022431D01*
X0266249Y0022318D01*
X0266339Y0022203D01*
X0266426Y0022085D01*
X0266510Y0021965D01*
X0266591Y0021842D01*
X0266668Y0021718D01*
X0266742Y0021591D01*
X0266812Y0021462D01*
X0266879Y0021332D01*
X0266943Y0021200D01*
X0267002Y0021066D01*
X0267059Y0020931D01*
X0267111Y0020794D01*
X0267160Y0020655D01*
X0267205Y0020516D01*
X0267246Y0020375D01*
X0267283Y0020233D01*
X0267316Y0020091D01*
X0267346Y0019947D01*
X0267372Y0019803D01*
X0267393Y0019658D01*
X0267411Y0019512D01*
X0267425Y0019366D01*
X0267435Y0019220D01*
X0267441Y0019074D01*
X0267443Y0018927D01*
X0267441Y0018780D01*
X0267435Y0018634D01*
X0267425Y0018488D01*
X0267411Y0018342D01*
X0267393Y0018196D01*
X0267372Y0018051D01*
X0267346Y0017907D01*
X0267316Y0017763D01*
X0267283Y0017621D01*
X0267246Y0017479D01*
X0267205Y0017338D01*
X0267160Y0017199D01*
X0267111Y0017060D01*
X0267059Y0016923D01*
X0267002Y0016788D01*
X0266943Y0016654D01*
X0266879Y0016522D01*
X0266812Y0016392D01*
X0266742Y0016263D01*
X0266668Y0016136D01*
X0266591Y0016012D01*
X0266510Y0015889D01*
X0266426Y0015769D01*
X0266339Y0015651D01*
X0266249Y0015536D01*
X0266156Y0015423D01*
X0266059Y0015312D01*
X0265960Y0015204D01*
X0265858Y0015099D01*
X0265753Y0014997D01*
X0265645Y0014898D01*
X0265534Y0014801D01*
X0265421Y0014708D01*
X0265306Y0014618D01*
X0265188Y0014531D01*
X0265068Y0014447D01*
X0264945Y0014366D01*
X0264821Y0014289D01*
X0264694Y0014215D01*
X0264565Y0014145D01*
X0264435Y0014078D01*
X0264303Y0014014D01*
X0264169Y0013955D01*
X0264034Y0013898D01*
X0263897Y0013846D01*
X0263758Y0013797D01*
X0263619Y0013752D01*
X0263478Y0013711D01*
X0263336Y0013674D01*
X0263194Y0013641D01*
X0263050Y0013611D01*
X0262906Y0013585D01*
X0262761Y0013564D01*
X0262615Y0013546D01*
X0262469Y0013532D01*
X0262323Y0013522D01*
X0262177Y0013516D01*
X0262030Y0013514D01*
X0261883Y0013516D01*
X0261737Y0013522D01*
X0261591Y0013532D01*
X0261445Y0013546D01*
X0261299Y0013564D01*
X0261154Y0013585D01*
X0261010Y0013611D01*
X0260866Y0013641D01*
X0260724Y0013674D01*
X0260582Y0013711D01*
X0260441Y0013752D01*
X0260302Y0013797D01*
X0260163Y0013846D01*
X0260026Y0013898D01*
X0259891Y0013955D01*
X0259757Y0014014D01*
X0259625Y0014078D01*
X0259495Y0014145D01*
X0259366Y0014215D01*
X0259239Y0014289D01*
X0259115Y0014366D01*
X0258992Y0014447D01*
X0258872Y0014531D01*
X0258754Y0014618D01*
X0258639Y0014708D01*
X0258526Y0014801D01*
X0258415Y0014898D01*
X0258307Y0014997D01*
X0258202Y0015099D01*
X0258100Y0015204D01*
X0258001Y0015312D01*
X0257904Y0015423D01*
X0257811Y0015536D01*
X0257721Y0015651D01*
X0257634Y0015769D01*
X0257550Y0015889D01*
X0257469Y0016012D01*
X0257392Y0016136D01*
X0257318Y0016263D01*
X0257248Y0016392D01*
X0257181Y0016522D01*
X0257117Y0016654D01*
X0257058Y0016788D01*
X0257001Y0016923D01*
X0256949Y0017060D01*
X0256900Y0017199D01*
X0256855Y0017338D01*
X0256814Y0017479D01*
X0256777Y0017621D01*
X0256744Y0017763D01*
X0256714Y0017907D01*
X0256688Y0018051D01*
X0256667Y0018196D01*
X0256649Y0018342D01*
X0256635Y0018488D01*
X0256625Y0018634D01*
X0256619Y0018780D01*
X0256617Y0018927D01*
X0227188Y0054360D02*
X0227190Y0054475D01*
X0227196Y0054591D01*
X0227206Y0054706D01*
X0227220Y0054821D01*
X0227238Y0054935D01*
X0227260Y0055048D01*
X0227285Y0055161D01*
X0227315Y0055272D01*
X0227348Y0055383D01*
X0227385Y0055492D01*
X0227426Y0055600D01*
X0227471Y0055707D01*
X0227519Y0055812D01*
X0227571Y0055915D01*
X0227627Y0056016D01*
X0227686Y0056116D01*
X0227748Y0056213D01*
X0227814Y0056308D01*
X0227882Y0056401D01*
X0227954Y0056491D01*
X0228029Y0056579D01*
X0228108Y0056664D01*
X0228189Y0056746D01*
X0228272Y0056826D01*
X0228359Y0056902D01*
X0228448Y0056976D01*
X0228539Y0057046D01*
X0228633Y0057114D01*
X0228729Y0057178D01*
X0228828Y0057238D01*
X0228928Y0057295D01*
X0229030Y0057349D01*
X0229134Y0057399D01*
X0229240Y0057446D01*
X0229347Y0057489D01*
X0229456Y0057528D01*
X0229566Y0057563D01*
X0229677Y0057594D01*
X0229789Y0057622D01*
X0229902Y0057646D01*
X0230016Y0057666D01*
X0230131Y0057682D01*
X0230246Y0057694D01*
X0230361Y0057702D01*
X0230476Y0057706D01*
X0230592Y0057706D01*
X0230707Y0057702D01*
X0230822Y0057694D01*
X0230937Y0057682D01*
X0231052Y0057666D01*
X0231166Y0057646D01*
X0231279Y0057622D01*
X0231391Y0057594D01*
X0231502Y0057563D01*
X0231612Y0057528D01*
X0231721Y0057489D01*
X0231828Y0057446D01*
X0231934Y0057399D01*
X0232038Y0057349D01*
X0232140Y0057295D01*
X0232240Y0057238D01*
X0232339Y0057178D01*
X0232435Y0057114D01*
X0232529Y0057046D01*
X0232620Y0056976D01*
X0232709Y0056902D01*
X0232796Y0056826D01*
X0232879Y0056746D01*
X0232960Y0056664D01*
X0233039Y0056579D01*
X0233114Y0056491D01*
X0233186Y0056401D01*
X0233254Y0056308D01*
X0233320Y0056213D01*
X0233382Y0056116D01*
X0233441Y0056016D01*
X0233497Y0055915D01*
X0233549Y0055812D01*
X0233597Y0055707D01*
X0233642Y0055600D01*
X0233683Y0055492D01*
X0233720Y0055383D01*
X0233753Y0055272D01*
X0233783Y0055161D01*
X0233808Y0055048D01*
X0233830Y0054935D01*
X0233848Y0054821D01*
X0233862Y0054706D01*
X0233872Y0054591D01*
X0233878Y0054475D01*
X0233880Y0054360D01*
X0233878Y0054245D01*
X0233872Y0054129D01*
X0233862Y0054014D01*
X0233848Y0053899D01*
X0233830Y0053785D01*
X0233808Y0053672D01*
X0233783Y0053559D01*
X0233753Y0053448D01*
X0233720Y0053337D01*
X0233683Y0053228D01*
X0233642Y0053120D01*
X0233597Y0053013D01*
X0233549Y0052908D01*
X0233497Y0052805D01*
X0233441Y0052704D01*
X0233382Y0052604D01*
X0233320Y0052507D01*
X0233254Y0052412D01*
X0233186Y0052319D01*
X0233114Y0052229D01*
X0233039Y0052141D01*
X0232960Y0052056D01*
X0232879Y0051974D01*
X0232796Y0051894D01*
X0232709Y0051818D01*
X0232620Y0051744D01*
X0232529Y0051674D01*
X0232435Y0051606D01*
X0232339Y0051542D01*
X0232240Y0051482D01*
X0232140Y0051425D01*
X0232038Y0051371D01*
X0231934Y0051321D01*
X0231828Y0051274D01*
X0231721Y0051231D01*
X0231612Y0051192D01*
X0231502Y0051157D01*
X0231391Y0051126D01*
X0231279Y0051098D01*
X0231166Y0051074D01*
X0231052Y0051054D01*
X0230937Y0051038D01*
X0230822Y0051026D01*
X0230707Y0051018D01*
X0230592Y0051014D01*
X0230476Y0051014D01*
X0230361Y0051018D01*
X0230246Y0051026D01*
X0230131Y0051038D01*
X0230016Y0051054D01*
X0229902Y0051074D01*
X0229789Y0051098D01*
X0229677Y0051126D01*
X0229566Y0051157D01*
X0229456Y0051192D01*
X0229347Y0051231D01*
X0229240Y0051274D01*
X0229134Y0051321D01*
X0229030Y0051371D01*
X0228928Y0051425D01*
X0228828Y0051482D01*
X0228729Y0051542D01*
X0228633Y0051606D01*
X0228539Y0051674D01*
X0228448Y0051744D01*
X0228359Y0051818D01*
X0228272Y0051894D01*
X0228189Y0051974D01*
X0228108Y0052056D01*
X0228029Y0052141D01*
X0227954Y0052229D01*
X0227882Y0052319D01*
X0227814Y0052412D01*
X0227748Y0052507D01*
X0227686Y0052604D01*
X0227627Y0052704D01*
X0227571Y0052805D01*
X0227519Y0052908D01*
X0227471Y0053013D01*
X0227426Y0053120D01*
X0227385Y0053228D01*
X0227348Y0053337D01*
X0227315Y0053448D01*
X0227285Y0053559D01*
X0227260Y0053672D01*
X0227238Y0053785D01*
X0227220Y0053899D01*
X0227206Y0054014D01*
X0227196Y0054129D01*
X0227190Y0054245D01*
X0227188Y0054360D01*
X0256617Y0211841D02*
X0256619Y0211988D01*
X0256625Y0212134D01*
X0256635Y0212280D01*
X0256649Y0212426D01*
X0256667Y0212572D01*
X0256688Y0212717D01*
X0256714Y0212861D01*
X0256744Y0213005D01*
X0256777Y0213147D01*
X0256814Y0213289D01*
X0256855Y0213430D01*
X0256900Y0213569D01*
X0256949Y0213708D01*
X0257001Y0213845D01*
X0257058Y0213980D01*
X0257117Y0214114D01*
X0257181Y0214246D01*
X0257248Y0214376D01*
X0257318Y0214505D01*
X0257392Y0214632D01*
X0257469Y0214756D01*
X0257550Y0214879D01*
X0257634Y0214999D01*
X0257721Y0215117D01*
X0257811Y0215232D01*
X0257904Y0215345D01*
X0258001Y0215456D01*
X0258100Y0215564D01*
X0258202Y0215669D01*
X0258307Y0215771D01*
X0258415Y0215870D01*
X0258526Y0215967D01*
X0258639Y0216060D01*
X0258754Y0216150D01*
X0258872Y0216237D01*
X0258992Y0216321D01*
X0259115Y0216402D01*
X0259239Y0216479D01*
X0259366Y0216553D01*
X0259495Y0216623D01*
X0259625Y0216690D01*
X0259757Y0216754D01*
X0259891Y0216813D01*
X0260026Y0216870D01*
X0260163Y0216922D01*
X0260302Y0216971D01*
X0260441Y0217016D01*
X0260582Y0217057D01*
X0260724Y0217094D01*
X0260866Y0217127D01*
X0261010Y0217157D01*
X0261154Y0217183D01*
X0261299Y0217204D01*
X0261445Y0217222D01*
X0261591Y0217236D01*
X0261737Y0217246D01*
X0261883Y0217252D01*
X0262030Y0217254D01*
X0262177Y0217252D01*
X0262323Y0217246D01*
X0262469Y0217236D01*
X0262615Y0217222D01*
X0262761Y0217204D01*
X0262906Y0217183D01*
X0263050Y0217157D01*
X0263194Y0217127D01*
X0263336Y0217094D01*
X0263478Y0217057D01*
X0263619Y0217016D01*
X0263758Y0216971D01*
X0263897Y0216922D01*
X0264034Y0216870D01*
X0264169Y0216813D01*
X0264303Y0216754D01*
X0264435Y0216690D01*
X0264565Y0216623D01*
X0264694Y0216553D01*
X0264821Y0216479D01*
X0264945Y0216402D01*
X0265068Y0216321D01*
X0265188Y0216237D01*
X0265306Y0216150D01*
X0265421Y0216060D01*
X0265534Y0215967D01*
X0265645Y0215870D01*
X0265753Y0215771D01*
X0265858Y0215669D01*
X0265960Y0215564D01*
X0266059Y0215456D01*
X0266156Y0215345D01*
X0266249Y0215232D01*
X0266339Y0215117D01*
X0266426Y0214999D01*
X0266510Y0214879D01*
X0266591Y0214756D01*
X0266668Y0214632D01*
X0266742Y0214505D01*
X0266812Y0214376D01*
X0266879Y0214246D01*
X0266943Y0214114D01*
X0267002Y0213980D01*
X0267059Y0213845D01*
X0267111Y0213708D01*
X0267160Y0213569D01*
X0267205Y0213430D01*
X0267246Y0213289D01*
X0267283Y0213147D01*
X0267316Y0213005D01*
X0267346Y0212861D01*
X0267372Y0212717D01*
X0267393Y0212572D01*
X0267411Y0212426D01*
X0267425Y0212280D01*
X0267435Y0212134D01*
X0267441Y0211988D01*
X0267443Y0211841D01*
X0267441Y0211694D01*
X0267435Y0211548D01*
X0267425Y0211402D01*
X0267411Y0211256D01*
X0267393Y0211110D01*
X0267372Y0210965D01*
X0267346Y0210821D01*
X0267316Y0210677D01*
X0267283Y0210535D01*
X0267246Y0210393D01*
X0267205Y0210252D01*
X0267160Y0210113D01*
X0267111Y0209974D01*
X0267059Y0209837D01*
X0267002Y0209702D01*
X0266943Y0209568D01*
X0266879Y0209436D01*
X0266812Y0209306D01*
X0266742Y0209177D01*
X0266668Y0209050D01*
X0266591Y0208926D01*
X0266510Y0208803D01*
X0266426Y0208683D01*
X0266339Y0208565D01*
X0266249Y0208450D01*
X0266156Y0208337D01*
X0266059Y0208226D01*
X0265960Y0208118D01*
X0265858Y0208013D01*
X0265753Y0207911D01*
X0265645Y0207812D01*
X0265534Y0207715D01*
X0265421Y0207622D01*
X0265306Y0207532D01*
X0265188Y0207445D01*
X0265068Y0207361D01*
X0264945Y0207280D01*
X0264821Y0207203D01*
X0264694Y0207129D01*
X0264565Y0207059D01*
X0264435Y0206992D01*
X0264303Y0206928D01*
X0264169Y0206869D01*
X0264034Y0206812D01*
X0263897Y0206760D01*
X0263758Y0206711D01*
X0263619Y0206666D01*
X0263478Y0206625D01*
X0263336Y0206588D01*
X0263194Y0206555D01*
X0263050Y0206525D01*
X0262906Y0206499D01*
X0262761Y0206478D01*
X0262615Y0206460D01*
X0262469Y0206446D01*
X0262323Y0206436D01*
X0262177Y0206430D01*
X0262030Y0206428D01*
X0261883Y0206430D01*
X0261737Y0206436D01*
X0261591Y0206446D01*
X0261445Y0206460D01*
X0261299Y0206478D01*
X0261154Y0206499D01*
X0261010Y0206525D01*
X0260866Y0206555D01*
X0260724Y0206588D01*
X0260582Y0206625D01*
X0260441Y0206666D01*
X0260302Y0206711D01*
X0260163Y0206760D01*
X0260026Y0206812D01*
X0259891Y0206869D01*
X0259757Y0206928D01*
X0259625Y0206992D01*
X0259495Y0207059D01*
X0259366Y0207129D01*
X0259239Y0207203D01*
X0259115Y0207280D01*
X0258992Y0207361D01*
X0258872Y0207445D01*
X0258754Y0207532D01*
X0258639Y0207622D01*
X0258526Y0207715D01*
X0258415Y0207812D01*
X0258307Y0207911D01*
X0258202Y0208013D01*
X0258100Y0208118D01*
X0258001Y0208226D01*
X0257904Y0208337D01*
X0257811Y0208450D01*
X0257721Y0208565D01*
X0257634Y0208683D01*
X0257550Y0208803D01*
X0257469Y0208926D01*
X0257392Y0209050D01*
X0257318Y0209177D01*
X0257248Y0209306D01*
X0257181Y0209436D01*
X0257117Y0209568D01*
X0257058Y0209702D01*
X0257001Y0209837D01*
X0256949Y0209974D01*
X0256900Y0210113D01*
X0256855Y0210252D01*
X0256814Y0210393D01*
X0256777Y0210535D01*
X0256744Y0210677D01*
X0256714Y0210821D01*
X0256688Y0210965D01*
X0256667Y0211110D01*
X0256649Y0211256D01*
X0256635Y0211402D01*
X0256625Y0211548D01*
X0256619Y0211694D01*
X0256617Y0211841D01*
X0028270Y0211841D02*
X0028272Y0211988D01*
X0028278Y0212134D01*
X0028288Y0212280D01*
X0028302Y0212426D01*
X0028320Y0212572D01*
X0028341Y0212717D01*
X0028367Y0212861D01*
X0028397Y0213005D01*
X0028430Y0213147D01*
X0028467Y0213289D01*
X0028508Y0213430D01*
X0028553Y0213569D01*
X0028602Y0213708D01*
X0028654Y0213845D01*
X0028711Y0213980D01*
X0028770Y0214114D01*
X0028834Y0214246D01*
X0028901Y0214376D01*
X0028971Y0214505D01*
X0029045Y0214632D01*
X0029122Y0214756D01*
X0029203Y0214879D01*
X0029287Y0214999D01*
X0029374Y0215117D01*
X0029464Y0215232D01*
X0029557Y0215345D01*
X0029654Y0215456D01*
X0029753Y0215564D01*
X0029855Y0215669D01*
X0029960Y0215771D01*
X0030068Y0215870D01*
X0030179Y0215967D01*
X0030292Y0216060D01*
X0030407Y0216150D01*
X0030525Y0216237D01*
X0030645Y0216321D01*
X0030768Y0216402D01*
X0030892Y0216479D01*
X0031019Y0216553D01*
X0031148Y0216623D01*
X0031278Y0216690D01*
X0031410Y0216754D01*
X0031544Y0216813D01*
X0031679Y0216870D01*
X0031816Y0216922D01*
X0031955Y0216971D01*
X0032094Y0217016D01*
X0032235Y0217057D01*
X0032377Y0217094D01*
X0032519Y0217127D01*
X0032663Y0217157D01*
X0032807Y0217183D01*
X0032952Y0217204D01*
X0033098Y0217222D01*
X0033244Y0217236D01*
X0033390Y0217246D01*
X0033536Y0217252D01*
X0033683Y0217254D01*
X0033830Y0217252D01*
X0033976Y0217246D01*
X0034122Y0217236D01*
X0034268Y0217222D01*
X0034414Y0217204D01*
X0034559Y0217183D01*
X0034703Y0217157D01*
X0034847Y0217127D01*
X0034989Y0217094D01*
X0035131Y0217057D01*
X0035272Y0217016D01*
X0035411Y0216971D01*
X0035550Y0216922D01*
X0035687Y0216870D01*
X0035822Y0216813D01*
X0035956Y0216754D01*
X0036088Y0216690D01*
X0036218Y0216623D01*
X0036347Y0216553D01*
X0036474Y0216479D01*
X0036598Y0216402D01*
X0036721Y0216321D01*
X0036841Y0216237D01*
X0036959Y0216150D01*
X0037074Y0216060D01*
X0037187Y0215967D01*
X0037298Y0215870D01*
X0037406Y0215771D01*
X0037511Y0215669D01*
X0037613Y0215564D01*
X0037712Y0215456D01*
X0037809Y0215345D01*
X0037902Y0215232D01*
X0037992Y0215117D01*
X0038079Y0214999D01*
X0038163Y0214879D01*
X0038244Y0214756D01*
X0038321Y0214632D01*
X0038395Y0214505D01*
X0038465Y0214376D01*
X0038532Y0214246D01*
X0038596Y0214114D01*
X0038655Y0213980D01*
X0038712Y0213845D01*
X0038764Y0213708D01*
X0038813Y0213569D01*
X0038858Y0213430D01*
X0038899Y0213289D01*
X0038936Y0213147D01*
X0038969Y0213005D01*
X0038999Y0212861D01*
X0039025Y0212717D01*
X0039046Y0212572D01*
X0039064Y0212426D01*
X0039078Y0212280D01*
X0039088Y0212134D01*
X0039094Y0211988D01*
X0039096Y0211841D01*
X0039094Y0211694D01*
X0039088Y0211548D01*
X0039078Y0211402D01*
X0039064Y0211256D01*
X0039046Y0211110D01*
X0039025Y0210965D01*
X0038999Y0210821D01*
X0038969Y0210677D01*
X0038936Y0210535D01*
X0038899Y0210393D01*
X0038858Y0210252D01*
X0038813Y0210113D01*
X0038764Y0209974D01*
X0038712Y0209837D01*
X0038655Y0209702D01*
X0038596Y0209568D01*
X0038532Y0209436D01*
X0038465Y0209306D01*
X0038395Y0209177D01*
X0038321Y0209050D01*
X0038244Y0208926D01*
X0038163Y0208803D01*
X0038079Y0208683D01*
X0037992Y0208565D01*
X0037902Y0208450D01*
X0037809Y0208337D01*
X0037712Y0208226D01*
X0037613Y0208118D01*
X0037511Y0208013D01*
X0037406Y0207911D01*
X0037298Y0207812D01*
X0037187Y0207715D01*
X0037074Y0207622D01*
X0036959Y0207532D01*
X0036841Y0207445D01*
X0036721Y0207361D01*
X0036598Y0207280D01*
X0036474Y0207203D01*
X0036347Y0207129D01*
X0036218Y0207059D01*
X0036088Y0206992D01*
X0035956Y0206928D01*
X0035822Y0206869D01*
X0035687Y0206812D01*
X0035550Y0206760D01*
X0035411Y0206711D01*
X0035272Y0206666D01*
X0035131Y0206625D01*
X0034989Y0206588D01*
X0034847Y0206555D01*
X0034703Y0206525D01*
X0034559Y0206499D01*
X0034414Y0206478D01*
X0034268Y0206460D01*
X0034122Y0206446D01*
X0033976Y0206436D01*
X0033830Y0206430D01*
X0033683Y0206428D01*
X0033536Y0206430D01*
X0033390Y0206436D01*
X0033244Y0206446D01*
X0033098Y0206460D01*
X0032952Y0206478D01*
X0032807Y0206499D01*
X0032663Y0206525D01*
X0032519Y0206555D01*
X0032377Y0206588D01*
X0032235Y0206625D01*
X0032094Y0206666D01*
X0031955Y0206711D01*
X0031816Y0206760D01*
X0031679Y0206812D01*
X0031544Y0206869D01*
X0031410Y0206928D01*
X0031278Y0206992D01*
X0031148Y0207059D01*
X0031019Y0207129D01*
X0030892Y0207203D01*
X0030768Y0207280D01*
X0030645Y0207361D01*
X0030525Y0207445D01*
X0030407Y0207532D01*
X0030292Y0207622D01*
X0030179Y0207715D01*
X0030068Y0207812D01*
X0029960Y0207911D01*
X0029855Y0208013D01*
X0029753Y0208118D01*
X0029654Y0208226D01*
X0029557Y0208337D01*
X0029464Y0208450D01*
X0029374Y0208565D01*
X0029287Y0208683D01*
X0029203Y0208803D01*
X0029122Y0208926D01*
X0029045Y0209050D01*
X0028971Y0209177D01*
X0028901Y0209306D01*
X0028834Y0209436D01*
X0028770Y0209568D01*
X0028711Y0209702D01*
X0028654Y0209837D01*
X0028602Y0209974D01*
X0028553Y0210113D01*
X0028508Y0210252D01*
X0028467Y0210393D01*
X0028430Y0210535D01*
X0028397Y0210677D01*
X0028367Y0210821D01*
X0028341Y0210965D01*
X0028320Y0211110D01*
X0028302Y0211256D01*
X0028288Y0211402D01*
X0028278Y0211548D01*
X0028272Y0211694D01*
X0028270Y0211841D01*
D11*
X0140152Y0196701D02*
X0140152Y0194274D01*
X0141366Y0194274D02*
X0141366Y0196094D01*
X0141972Y0196701D01*
X0142579Y0196094D01*
X0142579Y0194274D01*
X0143777Y0194881D02*
X0144384Y0195487D01*
X0146204Y0195487D01*
X0146204Y0196094D02*
X0146204Y0194274D01*
X0144384Y0194274D01*
X0143777Y0194881D01*
X0144384Y0196701D02*
X0145597Y0196701D01*
X0146204Y0196094D01*
X0147402Y0195487D02*
X0149223Y0194274D01*
X0150423Y0194881D02*
X0150423Y0196094D01*
X0151030Y0196701D01*
X0152243Y0196701D01*
X0152850Y0196094D01*
X0152850Y0195487D01*
X0150423Y0195487D01*
X0150423Y0194881D02*
X0151030Y0194274D01*
X0152243Y0194274D01*
X0154049Y0194274D02*
X0154655Y0194274D01*
X0154655Y0194881D01*
X0154049Y0194881D01*
X0154049Y0194274D01*
X0155890Y0192402D02*
X0156497Y0192402D01*
X0156497Y0188762D01*
X0155890Y0188762D02*
X0157104Y0188762D01*
X0158307Y0189369D02*
X0158914Y0189976D01*
X0160734Y0189976D01*
X0160734Y0190582D02*
X0160734Y0188762D01*
X0158914Y0188762D01*
X0158307Y0189369D01*
X0158914Y0191189D02*
X0160127Y0191189D01*
X0160734Y0190582D01*
X0161932Y0191189D02*
X0161932Y0189369D01*
X0162539Y0188762D01*
X0164359Y0188762D01*
X0164359Y0188156D02*
X0163752Y0187549D01*
X0163146Y0187549D01*
X0164359Y0188156D02*
X0164359Y0191189D01*
X0165558Y0189369D02*
X0166164Y0189369D01*
X0166164Y0188762D01*
X0165558Y0188762D01*
X0165558Y0189369D01*
X0164775Y0185677D02*
X0164168Y0185070D01*
X0164168Y0183857D01*
X0164775Y0183250D01*
X0166595Y0183250D01*
X0166595Y0182644D02*
X0166595Y0185677D01*
X0164775Y0185677D01*
X0167793Y0185677D02*
X0167793Y0183250D01*
X0167793Y0184464D02*
X0169006Y0185677D01*
X0169613Y0185677D01*
X0170814Y0185070D02*
X0170814Y0183857D01*
X0171421Y0183250D01*
X0172634Y0183250D01*
X0173241Y0183857D01*
X0173241Y0185070D01*
X0172634Y0185677D01*
X0171421Y0185677D01*
X0170814Y0185070D01*
X0174439Y0185677D02*
X0174439Y0183857D01*
X0175046Y0183250D01*
X0175653Y0183857D01*
X0176259Y0183250D01*
X0176866Y0183857D01*
X0176866Y0185677D01*
X0178064Y0183857D02*
X0178671Y0183857D01*
X0178671Y0183250D01*
X0178064Y0183250D01*
X0178064Y0183857D01*
X0166595Y0182644D02*
X0165988Y0182037D01*
X0165381Y0182037D01*
X0154692Y0189369D02*
X0154085Y0188762D01*
X0152265Y0188762D01*
X0152265Y0187549D02*
X0152265Y0191189D01*
X0154085Y0191189D01*
X0154692Y0190582D01*
X0154692Y0189369D01*
X0147402Y0194274D02*
X0147402Y0197914D01*
X0149223Y0196701D02*
X0147402Y0195487D01*
X0141366Y0196094D02*
X0140759Y0196701D01*
X0140152Y0196701D01*
X0271009Y0217141D02*
X0271009Y0218354D01*
X0272223Y0219568D01*
X0274033Y0218354D02*
X0273426Y0217748D01*
X0273426Y0216534D01*
X0274033Y0215928D01*
X0275853Y0215928D01*
X0277051Y0215928D02*
X0278265Y0217141D01*
X0278265Y0218354D01*
X0277051Y0219568D01*
X0275853Y0218354D02*
X0274033Y0218354D01*
X0272223Y0215928D02*
X0271009Y0217141D01*
X0283093Y0215928D02*
X0285520Y0218354D01*
X0285520Y0218961D01*
X0284913Y0219568D01*
X0283700Y0219568D01*
X0283093Y0218961D01*
X0283093Y0215928D02*
X0285520Y0215928D01*
X0286718Y0216534D02*
X0289145Y0218961D01*
X0289145Y0216534D01*
X0288538Y0215928D01*
X0287325Y0215928D01*
X0286718Y0216534D01*
X0286718Y0218961D01*
X0287325Y0219568D01*
X0288538Y0219568D01*
X0289145Y0218961D01*
X0290343Y0218354D02*
X0291557Y0219568D01*
X0291557Y0215928D01*
X0292770Y0215928D02*
X0290343Y0215928D01*
X0293969Y0215928D02*
X0293969Y0216534D01*
X0296395Y0218961D01*
X0296395Y0219568D01*
X0293969Y0219568D01*
X0301219Y0218354D02*
X0301219Y0215928D01*
X0301219Y0217141D02*
X0302432Y0218354D01*
X0303039Y0218354D01*
X0304240Y0217748D02*
X0304240Y0216534D01*
X0304846Y0215928D01*
X0306060Y0215928D01*
X0306667Y0217141D02*
X0304240Y0217141D01*
X0304240Y0217748D02*
X0304846Y0218354D01*
X0306060Y0218354D01*
X0306667Y0217748D01*
X0306667Y0217141D01*
X0307865Y0217748D02*
X0307865Y0216534D01*
X0308472Y0215928D01*
X0310292Y0215928D01*
X0311490Y0215928D02*
X0312703Y0215928D01*
X0312097Y0215928D02*
X0312097Y0219568D01*
X0311490Y0219568D01*
X0310292Y0218354D02*
X0308472Y0218354D01*
X0307865Y0217748D01*
X0313907Y0217748D02*
X0313907Y0216534D01*
X0314514Y0215928D01*
X0315727Y0215928D01*
X0316334Y0216534D01*
X0316334Y0217748D01*
X0315727Y0218354D01*
X0314514Y0218354D01*
X0313907Y0217748D01*
X0317532Y0218354D02*
X0317532Y0215928D01*
X0317532Y0218354D02*
X0319352Y0218354D01*
X0319959Y0217748D01*
X0319959Y0215928D01*
X0321157Y0216534D02*
X0321157Y0217748D01*
X0321764Y0218354D01*
X0322977Y0218354D01*
X0323584Y0217748D01*
X0323584Y0217141D01*
X0321157Y0217141D01*
X0321157Y0216534D02*
X0321764Y0215928D01*
X0322977Y0215928D01*
X0324782Y0215928D02*
X0325996Y0215928D01*
X0325389Y0215928D02*
X0325389Y0219568D01*
X0324782Y0219568D01*
X0327806Y0218354D02*
X0329019Y0218354D01*
X0329626Y0217748D01*
X0329626Y0215928D01*
X0327806Y0215928D01*
X0327199Y0216534D01*
X0327806Y0217141D01*
X0329626Y0217141D01*
X0330824Y0218354D02*
X0332644Y0218354D01*
X0333251Y0217748D01*
X0333251Y0216534D01*
X0332644Y0215928D01*
X0330824Y0215928D01*
X0330824Y0219568D01*
X0334449Y0217748D02*
X0335056Y0217141D01*
X0336269Y0217141D01*
X0336876Y0216534D01*
X0336269Y0215928D01*
X0334449Y0215928D01*
X0334449Y0217748D02*
X0335056Y0218354D01*
X0336876Y0218354D01*
X0338074Y0216534D02*
X0338681Y0216534D01*
X0338681Y0215928D01*
X0338074Y0215928D01*
X0338074Y0216534D01*
X0339887Y0216534D02*
X0340494Y0215928D01*
X0342314Y0215928D01*
X0343512Y0216534D02*
X0344119Y0215928D01*
X0345332Y0215928D01*
X0345939Y0216534D01*
X0345939Y0217748D01*
X0345332Y0218354D01*
X0344119Y0218354D01*
X0343512Y0217748D01*
X0343512Y0216534D01*
X0342314Y0218354D02*
X0340494Y0218354D01*
X0339887Y0217748D01*
X0339887Y0216534D01*
X0347137Y0215928D02*
X0347137Y0218354D01*
X0347744Y0218354D01*
X0348351Y0217748D01*
X0348957Y0218354D01*
X0349564Y0217748D01*
X0349564Y0215928D01*
X0348351Y0215928D02*
X0348351Y0217748D01*
X0269383Y0088071D02*
X0270334Y0087120D01*
X0270334Y0086170D01*
X0269383Y0085219D01*
X0268384Y0085694D02*
X0267909Y0085219D01*
X0266958Y0085219D01*
X0266483Y0085694D01*
X0268384Y0087596D01*
X0268384Y0085694D01*
X0266483Y0085694D02*
X0266483Y0087596D01*
X0266958Y0088071D01*
X0267909Y0088071D01*
X0268384Y0087596D01*
X0265508Y0085694D02*
X0265508Y0085219D01*
X0265033Y0085219D01*
X0265033Y0085694D01*
X0265508Y0085694D01*
X0264034Y0086645D02*
X0262133Y0086645D01*
X0263559Y0088071D01*
X0263559Y0085219D01*
X0258234Y0087596D02*
X0258234Y0088071D01*
X0258234Y0087596D02*
X0257283Y0086645D01*
X0257283Y0085219D01*
X0257283Y0086645D02*
X0256333Y0087596D01*
X0256333Y0088071D01*
X0255334Y0087596D02*
X0255334Y0087120D01*
X0254859Y0086645D01*
X0253433Y0086645D01*
X0254859Y0086645D02*
X0255334Y0086170D01*
X0255334Y0085694D01*
X0254859Y0085219D01*
X0253433Y0085219D01*
X0253433Y0088071D01*
X0254859Y0088071D01*
X0255334Y0087596D01*
X0249534Y0087596D02*
X0249058Y0088071D01*
X0248108Y0088071D01*
X0247632Y0087596D01*
X0247632Y0085694D01*
X0248108Y0085219D01*
X0249058Y0085219D01*
X0249534Y0085694D01*
X0246634Y0085694D02*
X0246158Y0085219D01*
X0245208Y0085219D01*
X0244732Y0085694D01*
X0244732Y0087596D01*
X0245208Y0088071D01*
X0246158Y0088071D01*
X0246634Y0087596D01*
X0243750Y0088071D02*
X0242799Y0087120D01*
X0242799Y0086170D01*
X0243750Y0085219D01*
X0230200Y0085219D02*
X0230200Y0087120D01*
X0229249Y0088071D01*
X0228298Y0087120D01*
X0228298Y0085219D01*
X0228298Y0086645D02*
X0230200Y0086645D01*
X0224423Y0085694D02*
X0224423Y0085219D01*
X0223948Y0085219D01*
X0223948Y0085694D01*
X0224423Y0085694D01*
X0222949Y0087120D02*
X0221999Y0085219D01*
X0221048Y0087120D01*
X0220049Y0086645D02*
X0220049Y0086170D01*
X0218148Y0086170D01*
X0218148Y0086645D02*
X0218623Y0087120D01*
X0219574Y0087120D01*
X0220049Y0086645D01*
X0219574Y0085219D02*
X0218623Y0085219D01*
X0218148Y0085694D01*
X0218148Y0086645D01*
X0217149Y0086645D02*
X0216674Y0086170D01*
X0215248Y0086170D01*
X0216199Y0086170D02*
X0217149Y0085219D01*
X0217149Y0086645D02*
X0217149Y0087596D01*
X0216674Y0088071D01*
X0215248Y0088071D01*
X0215248Y0085219D01*
X0175008Y0057362D02*
X0175008Y0054510D01*
X0174533Y0054510D02*
X0175483Y0054510D01*
X0176466Y0054986D02*
X0176466Y0055936D01*
X0176941Y0056412D01*
X0177892Y0056412D01*
X0178367Y0055936D01*
X0178367Y0055461D01*
X0176466Y0055461D01*
X0176466Y0054986D02*
X0176941Y0054510D01*
X0177892Y0054510D01*
X0175008Y0057362D02*
X0174533Y0057362D01*
X0173534Y0055936D02*
X0173059Y0056412D01*
X0171633Y0056412D01*
X0171633Y0057362D02*
X0171633Y0054510D01*
X0173059Y0054510D01*
X0173534Y0054986D01*
X0173534Y0055936D01*
X0170634Y0055936D02*
X0170634Y0054510D01*
X0169208Y0054510D01*
X0168732Y0054986D01*
X0169208Y0055461D01*
X0170634Y0055461D01*
X0170634Y0055936D02*
X0170158Y0056412D01*
X0169208Y0056412D01*
X0167742Y0056412D02*
X0167266Y0056412D01*
X0166316Y0055461D01*
X0166316Y0054510D02*
X0166316Y0056412D01*
X0165317Y0056412D02*
X0165317Y0054510D01*
X0163891Y0054510D01*
X0163416Y0054986D01*
X0163416Y0056412D01*
X0162417Y0056412D02*
X0160991Y0056412D01*
X0160515Y0055936D01*
X0160515Y0054986D01*
X0160991Y0054510D01*
X0162417Y0054510D01*
X0162417Y0054035D02*
X0162417Y0056412D01*
X0162417Y0054035D02*
X0161941Y0053560D01*
X0161466Y0053560D01*
X0161724Y0051687D02*
X0161724Y0050261D01*
X0162199Y0049786D01*
X0163625Y0049786D01*
X0163625Y0051687D01*
X0164624Y0051687D02*
X0165575Y0051687D01*
X0165099Y0052163D02*
X0165099Y0050261D01*
X0165575Y0049786D01*
X0166557Y0050261D02*
X0167033Y0049786D01*
X0167983Y0049786D01*
X0168459Y0050737D02*
X0166557Y0050737D01*
X0166557Y0051212D02*
X0167033Y0051687D01*
X0167983Y0051687D01*
X0168459Y0051212D01*
X0168459Y0050737D01*
X0169457Y0050737D02*
X0170408Y0051687D01*
X0170883Y0051687D01*
X0169457Y0051687D02*
X0169457Y0049786D01*
X0166557Y0050261D02*
X0166557Y0051212D01*
X0160725Y0051212D02*
X0160725Y0050261D01*
X0160250Y0049786D01*
X0158824Y0049786D01*
X0158824Y0048835D02*
X0158824Y0051687D01*
X0160250Y0051687D01*
X0160725Y0051212D01*
X0157825Y0051212D02*
X0157825Y0049786D01*
X0156874Y0049786D02*
X0156874Y0051212D01*
X0157350Y0051687D01*
X0157825Y0051212D01*
X0156874Y0051212D02*
X0156399Y0051687D01*
X0155924Y0051687D01*
X0155924Y0049786D01*
X0154925Y0050261D02*
X0154450Y0049786D01*
X0153499Y0049786D01*
X0153023Y0050261D01*
X0153023Y0051212D01*
X0153499Y0051687D01*
X0154450Y0051687D01*
X0154925Y0051212D01*
X0154925Y0050261D01*
X0152025Y0049786D02*
X0150599Y0049786D01*
X0150123Y0050261D01*
X0150123Y0051212D01*
X0150599Y0051687D01*
X0152025Y0051687D01*
X0152274Y0054510D02*
X0152750Y0054986D01*
X0152750Y0055936D01*
X0152274Y0056412D01*
X0151324Y0056412D01*
X0150848Y0055936D01*
X0150848Y0054986D01*
X0151324Y0054510D01*
X0152274Y0054510D01*
X0153749Y0054510D02*
X0153749Y0056412D01*
X0155175Y0056412D01*
X0155650Y0055936D01*
X0155650Y0054510D01*
X0157124Y0054510D02*
X0157124Y0056887D01*
X0157599Y0057362D01*
X0158582Y0056412D02*
X0159057Y0056412D01*
X0159057Y0054510D01*
X0158582Y0054510D02*
X0159533Y0054510D01*
X0157599Y0055936D02*
X0156649Y0055936D01*
X0159057Y0057362D02*
X0159057Y0057838D01*
X0158316Y0059235D02*
X0157366Y0059235D01*
X0156890Y0059710D01*
X0156890Y0060661D01*
X0157366Y0061136D01*
X0158316Y0061136D01*
X0158792Y0060661D01*
X0158792Y0059710D01*
X0158316Y0059235D01*
X0159790Y0059710D02*
X0160266Y0060185D01*
X0161692Y0060185D01*
X0161692Y0060661D02*
X0161692Y0059235D01*
X0160266Y0059235D01*
X0159790Y0059710D01*
X0160266Y0061136D02*
X0161216Y0061136D01*
X0161692Y0060661D01*
X0162691Y0061136D02*
X0162691Y0059235D01*
X0162691Y0060185D02*
X0163641Y0061136D01*
X0164117Y0061136D01*
X0165107Y0060661D02*
X0165583Y0061136D01*
X0167009Y0061136D01*
X0167009Y0062087D02*
X0167009Y0059235D01*
X0165583Y0059235D01*
X0165107Y0059710D01*
X0165107Y0060661D01*
X0162425Y0063008D02*
X0162900Y0063484D01*
X0162900Y0065860D01*
X0161474Y0065860D01*
X0160999Y0065385D01*
X0160999Y0064434D01*
X0161474Y0063959D01*
X0162900Y0063959D01*
X0163899Y0063959D02*
X0164850Y0063959D01*
X0164374Y0063959D02*
X0164374Y0066811D01*
X0163899Y0066811D01*
X0165832Y0065385D02*
X0166308Y0065860D01*
X0167258Y0065860D01*
X0167734Y0065385D01*
X0167734Y0064910D01*
X0165832Y0064910D01*
X0165832Y0065385D02*
X0165832Y0064434D01*
X0166308Y0063959D01*
X0167258Y0063959D01*
X0162425Y0063008D02*
X0161949Y0063008D01*
X0160000Y0063959D02*
X0160000Y0065385D01*
X0159525Y0065860D01*
X0158099Y0065860D01*
X0158099Y0063959D01*
X0157116Y0063959D02*
X0156165Y0063959D01*
X0156641Y0063959D02*
X0156641Y0065860D01*
X0156165Y0065860D01*
X0155167Y0065860D02*
X0153741Y0065860D01*
X0153265Y0065385D01*
X0153741Y0064910D01*
X0154691Y0064910D01*
X0155167Y0064434D01*
X0154691Y0063959D01*
X0153265Y0063959D01*
X0153990Y0062087D02*
X0153990Y0059235D01*
X0155416Y0059235D01*
X0155892Y0059710D01*
X0155892Y0060661D01*
X0155416Y0061136D01*
X0153990Y0061136D01*
X0149850Y0056412D02*
X0148424Y0056412D01*
X0147948Y0055936D01*
X0147948Y0054986D01*
X0148424Y0054510D01*
X0149850Y0054510D01*
X0146950Y0055461D02*
X0145048Y0055461D01*
X0145048Y0055936D02*
X0145524Y0056412D01*
X0146474Y0056412D01*
X0146950Y0055936D01*
X0146950Y0055461D01*
X0146474Y0054510D02*
X0145524Y0054510D01*
X0145048Y0054986D01*
X0145048Y0055936D01*
X0144057Y0056412D02*
X0143582Y0056412D01*
X0142631Y0055461D01*
X0142631Y0054510D02*
X0142631Y0056412D01*
X0156641Y0066811D02*
X0156641Y0067286D01*
D12*
X0212669Y0094080D02*
X0212669Y0099290D01*
X0215274Y0099290D01*
X0216142Y0098422D01*
X0216142Y0096685D01*
X0215274Y0095817D01*
X0212669Y0095817D01*
X0214405Y0095817D02*
X0216142Y0094080D01*
X0218106Y0094949D02*
X0218106Y0096685D01*
X0218975Y0097554D01*
X0220711Y0097554D01*
X0221580Y0096685D01*
X0221580Y0095817D01*
X0218106Y0095817D01*
X0218106Y0094949D02*
X0218975Y0094080D01*
X0220711Y0094080D01*
X0223544Y0094949D02*
X0223544Y0096685D01*
X0224412Y0097554D01*
X0227017Y0097554D01*
X0228982Y0099290D02*
X0229850Y0099290D01*
X0229850Y0094080D01*
X0228982Y0094080D02*
X0230718Y0094080D01*
X0232607Y0094949D02*
X0233475Y0094080D01*
X0235212Y0094080D01*
X0236080Y0094949D01*
X0236080Y0096685D01*
X0235212Y0097554D01*
X0233475Y0097554D01*
X0232607Y0096685D01*
X0232607Y0094949D01*
X0227017Y0094080D02*
X0224412Y0094080D01*
X0223544Y0094949D01*
X0238045Y0094080D02*
X0238045Y0097554D01*
X0240649Y0097554D01*
X0241518Y0096685D01*
X0241518Y0094080D01*
X0243482Y0094949D02*
X0243482Y0096685D01*
X0244351Y0097554D01*
X0246087Y0097554D01*
X0246956Y0096685D01*
X0246956Y0095817D01*
X0243482Y0095817D01*
X0243482Y0094949D02*
X0244351Y0094080D01*
X0246087Y0094080D01*
X0254358Y0094080D02*
X0254358Y0099290D01*
X0256963Y0099290D01*
X0257831Y0098422D01*
X0257831Y0096685D01*
X0256963Y0095817D01*
X0254358Y0095817D01*
X0256094Y0095817D02*
X0257831Y0094080D01*
X0259795Y0094080D02*
X0261532Y0094080D01*
X0260664Y0094080D02*
X0260664Y0097554D01*
X0259795Y0097554D01*
X0260664Y0099290D02*
X0260664Y0100159D01*
X0263420Y0096685D02*
X0264289Y0097554D01*
X0266894Y0097554D01*
X0266025Y0095817D02*
X0264289Y0095817D01*
X0263420Y0096685D01*
X0263420Y0094080D02*
X0266025Y0094080D01*
X0266894Y0094949D01*
X0266025Y0095817D01*
X0268858Y0095817D02*
X0272332Y0095817D01*
X0272332Y0096685D01*
X0271463Y0097554D01*
X0269727Y0097554D01*
X0268858Y0096685D01*
X0268858Y0094949D01*
X0269727Y0094080D01*
X0271463Y0094080D01*
D13*
X0291557Y0093337D02*
X0291557Y0144911D01*
X0343487Y0144911D01*
X0332896Y0176407D02*
X0319117Y0176407D01*
X0307306Y0176407D02*
X0307306Y0203967D01*
X0319117Y0203967D02*
X0332896Y0203967D01*
X0332896Y0197077D01*
X0332896Y0183297D01*
X0332896Y0176407D01*
X0273447Y0176014D02*
X0218329Y0176014D01*
X0218329Y0120896D01*
X0273447Y0120896D01*
X0273447Y0176014D01*
X0266163Y0170699D02*
X0266165Y0170787D01*
X0266171Y0170875D01*
X0266181Y0170963D01*
X0266195Y0171051D01*
X0266212Y0171137D01*
X0266234Y0171223D01*
X0266259Y0171307D01*
X0266289Y0171391D01*
X0266321Y0171473D01*
X0266358Y0171553D01*
X0266398Y0171632D01*
X0266442Y0171709D01*
X0266489Y0171784D01*
X0266539Y0171856D01*
X0266593Y0171927D01*
X0266649Y0171994D01*
X0266709Y0172060D01*
X0266771Y0172122D01*
X0266837Y0172182D01*
X0266904Y0172238D01*
X0266975Y0172292D01*
X0267047Y0172342D01*
X0267122Y0172389D01*
X0267199Y0172433D01*
X0267278Y0172473D01*
X0267358Y0172510D01*
X0267440Y0172542D01*
X0267524Y0172572D01*
X0267608Y0172597D01*
X0267694Y0172619D01*
X0267780Y0172636D01*
X0267868Y0172650D01*
X0267956Y0172660D01*
X0268044Y0172666D01*
X0268132Y0172668D01*
X0268220Y0172666D01*
X0268308Y0172660D01*
X0268396Y0172650D01*
X0268484Y0172636D01*
X0268570Y0172619D01*
X0268656Y0172597D01*
X0268740Y0172572D01*
X0268824Y0172542D01*
X0268906Y0172510D01*
X0268986Y0172473D01*
X0269065Y0172433D01*
X0269142Y0172389D01*
X0269217Y0172342D01*
X0269289Y0172292D01*
X0269360Y0172238D01*
X0269427Y0172182D01*
X0269493Y0172122D01*
X0269555Y0172060D01*
X0269615Y0171994D01*
X0269671Y0171927D01*
X0269725Y0171856D01*
X0269775Y0171784D01*
X0269822Y0171709D01*
X0269866Y0171632D01*
X0269906Y0171553D01*
X0269943Y0171473D01*
X0269975Y0171391D01*
X0270005Y0171307D01*
X0270030Y0171223D01*
X0270052Y0171137D01*
X0270069Y0171051D01*
X0270083Y0170963D01*
X0270093Y0170875D01*
X0270099Y0170787D01*
X0270101Y0170699D01*
X0270099Y0170611D01*
X0270093Y0170523D01*
X0270083Y0170435D01*
X0270069Y0170347D01*
X0270052Y0170261D01*
X0270030Y0170175D01*
X0270005Y0170091D01*
X0269975Y0170007D01*
X0269943Y0169925D01*
X0269906Y0169845D01*
X0269866Y0169766D01*
X0269822Y0169689D01*
X0269775Y0169614D01*
X0269725Y0169542D01*
X0269671Y0169471D01*
X0269615Y0169404D01*
X0269555Y0169338D01*
X0269493Y0169276D01*
X0269427Y0169216D01*
X0269360Y0169160D01*
X0269289Y0169106D01*
X0269217Y0169056D01*
X0269142Y0169009D01*
X0269065Y0168965D01*
X0268986Y0168925D01*
X0268906Y0168888D01*
X0268824Y0168856D01*
X0268740Y0168826D01*
X0268656Y0168801D01*
X0268570Y0168779D01*
X0268484Y0168762D01*
X0268396Y0168748D01*
X0268308Y0168738D01*
X0268220Y0168732D01*
X0268132Y0168730D01*
X0268044Y0168732D01*
X0267956Y0168738D01*
X0267868Y0168748D01*
X0267780Y0168762D01*
X0267694Y0168779D01*
X0267608Y0168801D01*
X0267524Y0168826D01*
X0267440Y0168856D01*
X0267358Y0168888D01*
X0267278Y0168925D01*
X0267199Y0168965D01*
X0267122Y0169009D01*
X0267047Y0169056D01*
X0266975Y0169106D01*
X0266904Y0169160D01*
X0266837Y0169216D01*
X0266771Y0169276D01*
X0266709Y0169338D01*
X0266649Y0169404D01*
X0266593Y0169471D01*
X0266539Y0169542D01*
X0266489Y0169614D01*
X0266442Y0169689D01*
X0266398Y0169766D01*
X0266358Y0169845D01*
X0266321Y0169925D01*
X0266289Y0170007D01*
X0266259Y0170091D01*
X0266234Y0170175D01*
X0266212Y0170261D01*
X0266195Y0170347D01*
X0266181Y0170435D01*
X0266171Y0170523D01*
X0266165Y0170611D01*
X0266163Y0170699D01*
X0230829Y0188612D02*
X0228467Y0188612D01*
X0228467Y0193730D02*
X0230829Y0193730D01*
X0212719Y0193730D02*
X0212719Y0188612D01*
X0211538Y0188612D01*
X0211538Y0193730D02*
X0212719Y0193730D01*
X0126203Y0152785D02*
X0126205Y0152873D01*
X0126211Y0152961D01*
X0126221Y0153049D01*
X0126235Y0153137D01*
X0126252Y0153223D01*
X0126274Y0153309D01*
X0126299Y0153393D01*
X0126329Y0153477D01*
X0126361Y0153559D01*
X0126398Y0153639D01*
X0126438Y0153718D01*
X0126482Y0153795D01*
X0126529Y0153870D01*
X0126579Y0153942D01*
X0126633Y0154013D01*
X0126689Y0154080D01*
X0126749Y0154146D01*
X0126811Y0154208D01*
X0126877Y0154268D01*
X0126944Y0154324D01*
X0127015Y0154378D01*
X0127087Y0154428D01*
X0127162Y0154475D01*
X0127239Y0154519D01*
X0127318Y0154559D01*
X0127398Y0154596D01*
X0127480Y0154628D01*
X0127564Y0154658D01*
X0127648Y0154683D01*
X0127734Y0154705D01*
X0127820Y0154722D01*
X0127908Y0154736D01*
X0127996Y0154746D01*
X0128084Y0154752D01*
X0128172Y0154754D01*
X0128260Y0154752D01*
X0128348Y0154746D01*
X0128436Y0154736D01*
X0128524Y0154722D01*
X0128610Y0154705D01*
X0128696Y0154683D01*
X0128780Y0154658D01*
X0128864Y0154628D01*
X0128946Y0154596D01*
X0129026Y0154559D01*
X0129105Y0154519D01*
X0129182Y0154475D01*
X0129257Y0154428D01*
X0129329Y0154378D01*
X0129400Y0154324D01*
X0129467Y0154268D01*
X0129533Y0154208D01*
X0129595Y0154146D01*
X0129655Y0154080D01*
X0129711Y0154013D01*
X0129765Y0153942D01*
X0129815Y0153870D01*
X0129862Y0153795D01*
X0129906Y0153718D01*
X0129946Y0153639D01*
X0129983Y0153559D01*
X0130015Y0153477D01*
X0130045Y0153393D01*
X0130070Y0153309D01*
X0130092Y0153223D01*
X0130109Y0153137D01*
X0130123Y0153049D01*
X0130133Y0152961D01*
X0130139Y0152873D01*
X0130141Y0152785D01*
X0130139Y0152697D01*
X0130133Y0152609D01*
X0130123Y0152521D01*
X0130109Y0152433D01*
X0130092Y0152347D01*
X0130070Y0152261D01*
X0130045Y0152177D01*
X0130015Y0152093D01*
X0129983Y0152011D01*
X0129946Y0151931D01*
X0129906Y0151852D01*
X0129862Y0151775D01*
X0129815Y0151700D01*
X0129765Y0151628D01*
X0129711Y0151557D01*
X0129655Y0151490D01*
X0129595Y0151424D01*
X0129533Y0151362D01*
X0129467Y0151302D01*
X0129400Y0151246D01*
X0129329Y0151192D01*
X0129257Y0151142D01*
X0129182Y0151095D01*
X0129105Y0151051D01*
X0129026Y0151011D01*
X0128946Y0150974D01*
X0128864Y0150942D01*
X0128780Y0150912D01*
X0128696Y0150887D01*
X0128610Y0150865D01*
X0128524Y0150848D01*
X0128436Y0150834D01*
X0128348Y0150824D01*
X0128260Y0150818D01*
X0128172Y0150816D01*
X0128084Y0150818D01*
X0127996Y0150824D01*
X0127908Y0150834D01*
X0127820Y0150848D01*
X0127734Y0150865D01*
X0127648Y0150887D01*
X0127564Y0150912D01*
X0127480Y0150942D01*
X0127398Y0150974D01*
X0127318Y0151011D01*
X0127239Y0151051D01*
X0127162Y0151095D01*
X0127087Y0151142D01*
X0127015Y0151192D01*
X0126944Y0151246D01*
X0126877Y0151302D01*
X0126811Y0151362D01*
X0126749Y0151424D01*
X0126689Y0151490D01*
X0126633Y0151557D01*
X0126579Y0151628D01*
X0126529Y0151700D01*
X0126482Y0151775D01*
X0126438Y0151852D01*
X0126398Y0151931D01*
X0126361Y0152011D01*
X0126329Y0152093D01*
X0126299Y0152177D01*
X0126274Y0152261D01*
X0126252Y0152347D01*
X0126235Y0152433D01*
X0126221Y0152521D01*
X0126211Y0152609D01*
X0126205Y0152697D01*
X0126203Y0152785D01*
X0104943Y0154754D02*
X0093231Y0154754D01*
X0093231Y0115384D01*
X0085160Y0115384D01*
X0085160Y0154754D01*
X0093231Y0154754D01*
X0085160Y0154754D02*
X0073447Y0154754D01*
X0073447Y0115384D01*
X0085160Y0115384D01*
X0093231Y0115384D02*
X0104943Y0115384D01*
X0104943Y0154754D01*
X0075085Y0173183D02*
X0067085Y0173183D01*
X0063605Y0183494D02*
X0058880Y0183494D01*
X0058880Y0194518D01*
X0063605Y0194518D01*
X0063605Y0183494D01*
X0074235Y0187037D02*
X0074235Y0191762D01*
X0085258Y0191762D01*
X0085258Y0187037D01*
X0074235Y0187037D01*
X0081249Y0176801D02*
X0081251Y0176859D01*
X0081257Y0176917D01*
X0081267Y0176974D01*
X0081280Y0177031D01*
X0081298Y0177086D01*
X0081319Y0177140D01*
X0081343Y0177193D01*
X0081372Y0177244D01*
X0081403Y0177292D01*
X0081438Y0177339D01*
X0081476Y0177383D01*
X0081516Y0177424D01*
X0081560Y0177463D01*
X0081606Y0177498D01*
X0081654Y0177531D01*
X0081704Y0177560D01*
X0081757Y0177585D01*
X0081810Y0177607D01*
X0081865Y0177626D01*
X0081922Y0177640D01*
X0081979Y0177651D01*
X0082036Y0177658D01*
X0082094Y0177661D01*
X0082153Y0177660D01*
X0082210Y0177655D01*
X0082268Y0177646D01*
X0082325Y0177634D01*
X0082380Y0177617D01*
X0082435Y0177597D01*
X0082488Y0177573D01*
X0082539Y0177546D01*
X0082588Y0177515D01*
X0082635Y0177481D01*
X0082680Y0177444D01*
X0082722Y0177404D01*
X0082762Y0177361D01*
X0082798Y0177316D01*
X0082831Y0177268D01*
X0082861Y0177218D01*
X0082887Y0177167D01*
X0082910Y0177113D01*
X0082930Y0177058D01*
X0082945Y0177002D01*
X0082957Y0176946D01*
X0082965Y0176888D01*
X0082969Y0176830D01*
X0082969Y0176772D01*
X0082965Y0176714D01*
X0082957Y0176656D01*
X0082945Y0176600D01*
X0082930Y0176544D01*
X0082910Y0176489D01*
X0082887Y0176435D01*
X0082861Y0176384D01*
X0082831Y0176334D01*
X0082798Y0176286D01*
X0082762Y0176241D01*
X0082722Y0176198D01*
X0082680Y0176158D01*
X0082635Y0176121D01*
X0082588Y0176087D01*
X0082539Y0176056D01*
X0082488Y0176029D01*
X0082435Y0176005D01*
X0082380Y0175985D01*
X0082325Y0175968D01*
X0082268Y0175956D01*
X0082210Y0175947D01*
X0082153Y0175942D01*
X0082094Y0175941D01*
X0082036Y0175944D01*
X0081979Y0175951D01*
X0081922Y0175962D01*
X0081865Y0175976D01*
X0081810Y0175995D01*
X0081757Y0176017D01*
X0081704Y0176042D01*
X0081654Y0176071D01*
X0081606Y0176104D01*
X0081560Y0176139D01*
X0081516Y0176178D01*
X0081476Y0176219D01*
X0081438Y0176263D01*
X0081403Y0176310D01*
X0081372Y0176358D01*
X0081343Y0176409D01*
X0081319Y0176462D01*
X0081298Y0176516D01*
X0081280Y0176571D01*
X0081267Y0176628D01*
X0081257Y0176685D01*
X0081251Y0176743D01*
X0081249Y0176801D01*
X0082009Y0176801D02*
X0082011Y0176821D01*
X0082017Y0176839D01*
X0082026Y0176857D01*
X0082038Y0176872D01*
X0082053Y0176884D01*
X0082071Y0176893D01*
X0082089Y0176899D01*
X0082109Y0176901D01*
X0082129Y0176899D01*
X0082147Y0176893D01*
X0082165Y0176884D01*
X0082180Y0176872D01*
X0082192Y0176857D01*
X0082201Y0176839D01*
X0082207Y0176821D01*
X0082209Y0176801D01*
X0082207Y0176781D01*
X0082201Y0176763D01*
X0082192Y0176745D01*
X0082180Y0176730D01*
X0082165Y0176718D01*
X0082147Y0176709D01*
X0082129Y0176703D01*
X0082109Y0176701D01*
X0082089Y0176703D01*
X0082071Y0176709D01*
X0082053Y0176718D01*
X0082038Y0176730D01*
X0082026Y0176745D01*
X0082017Y0176763D01*
X0082011Y0176781D01*
X0082009Y0176801D01*
X0081609Y0176801D02*
X0081611Y0176845D01*
X0081617Y0176889D01*
X0081627Y0176932D01*
X0081640Y0176974D01*
X0081657Y0177015D01*
X0081678Y0177054D01*
X0081702Y0177091D01*
X0081729Y0177126D01*
X0081759Y0177158D01*
X0081792Y0177188D01*
X0081828Y0177214D01*
X0081865Y0177238D01*
X0081905Y0177257D01*
X0081946Y0177274D01*
X0081989Y0177286D01*
X0082032Y0177295D01*
X0082076Y0177300D01*
X0082120Y0177301D01*
X0082164Y0177298D01*
X0082208Y0177291D01*
X0082251Y0177280D01*
X0082293Y0177266D01*
X0082333Y0177248D01*
X0082372Y0177226D01*
X0082408Y0177202D01*
X0082442Y0177174D01*
X0082474Y0177143D01*
X0082503Y0177109D01*
X0082529Y0177073D01*
X0082551Y0177035D01*
X0082570Y0176995D01*
X0082585Y0176953D01*
X0082597Y0176911D01*
X0082605Y0176867D01*
X0082609Y0176823D01*
X0082609Y0176779D01*
X0082605Y0176735D01*
X0082597Y0176691D01*
X0082585Y0176649D01*
X0082570Y0176607D01*
X0082551Y0176567D01*
X0082529Y0176529D01*
X0082503Y0176493D01*
X0082474Y0176459D01*
X0082442Y0176428D01*
X0082408Y0176400D01*
X0082372Y0176376D01*
X0082333Y0176354D01*
X0082293Y0176336D01*
X0082251Y0176322D01*
X0082208Y0176311D01*
X0082164Y0176304D01*
X0082120Y0176301D01*
X0082076Y0176302D01*
X0082032Y0176307D01*
X0081989Y0176316D01*
X0081946Y0176328D01*
X0081905Y0176345D01*
X0081865Y0176364D01*
X0081828Y0176388D01*
X0081792Y0176414D01*
X0081759Y0176444D01*
X0081729Y0176476D01*
X0081702Y0176511D01*
X0081678Y0176548D01*
X0081657Y0176587D01*
X0081640Y0176628D01*
X0081627Y0176670D01*
X0081617Y0176713D01*
X0081611Y0176757D01*
X0081609Y0176801D01*
X0092282Y0177907D02*
X0100282Y0177907D01*
X0108808Y0178376D02*
X0108810Y0178434D01*
X0108816Y0178492D01*
X0108826Y0178549D01*
X0108839Y0178606D01*
X0108857Y0178661D01*
X0108878Y0178715D01*
X0108902Y0178768D01*
X0108931Y0178819D01*
X0108962Y0178867D01*
X0108997Y0178914D01*
X0109035Y0178958D01*
X0109075Y0178999D01*
X0109119Y0179038D01*
X0109165Y0179073D01*
X0109213Y0179106D01*
X0109263Y0179135D01*
X0109316Y0179160D01*
X0109369Y0179182D01*
X0109424Y0179201D01*
X0109481Y0179215D01*
X0109538Y0179226D01*
X0109595Y0179233D01*
X0109653Y0179236D01*
X0109712Y0179235D01*
X0109769Y0179230D01*
X0109827Y0179221D01*
X0109884Y0179209D01*
X0109939Y0179192D01*
X0109994Y0179172D01*
X0110047Y0179148D01*
X0110098Y0179121D01*
X0110147Y0179090D01*
X0110194Y0179056D01*
X0110239Y0179019D01*
X0110281Y0178979D01*
X0110321Y0178936D01*
X0110357Y0178891D01*
X0110390Y0178843D01*
X0110420Y0178793D01*
X0110446Y0178742D01*
X0110469Y0178688D01*
X0110489Y0178633D01*
X0110504Y0178577D01*
X0110516Y0178521D01*
X0110524Y0178463D01*
X0110528Y0178405D01*
X0110528Y0178347D01*
X0110524Y0178289D01*
X0110516Y0178231D01*
X0110504Y0178175D01*
X0110489Y0178119D01*
X0110469Y0178064D01*
X0110446Y0178010D01*
X0110420Y0177959D01*
X0110390Y0177909D01*
X0110357Y0177861D01*
X0110321Y0177816D01*
X0110281Y0177773D01*
X0110239Y0177733D01*
X0110194Y0177696D01*
X0110147Y0177662D01*
X0110098Y0177631D01*
X0110047Y0177604D01*
X0109994Y0177580D01*
X0109939Y0177560D01*
X0109884Y0177543D01*
X0109827Y0177531D01*
X0109769Y0177522D01*
X0109712Y0177517D01*
X0109653Y0177516D01*
X0109595Y0177519D01*
X0109538Y0177526D01*
X0109481Y0177537D01*
X0109424Y0177551D01*
X0109369Y0177570D01*
X0109316Y0177592D01*
X0109263Y0177617D01*
X0109213Y0177646D01*
X0109165Y0177679D01*
X0109119Y0177714D01*
X0109075Y0177753D01*
X0109035Y0177794D01*
X0108997Y0177838D01*
X0108962Y0177885D01*
X0108931Y0177933D01*
X0108902Y0177984D01*
X0108878Y0178037D01*
X0108857Y0178091D01*
X0108839Y0178146D01*
X0108826Y0178203D01*
X0108816Y0178260D01*
X0108810Y0178318D01*
X0108808Y0178376D01*
X0109568Y0178376D02*
X0109570Y0178396D01*
X0109576Y0178414D01*
X0109585Y0178432D01*
X0109597Y0178447D01*
X0109612Y0178459D01*
X0109630Y0178468D01*
X0109648Y0178474D01*
X0109668Y0178476D01*
X0109688Y0178474D01*
X0109706Y0178468D01*
X0109724Y0178459D01*
X0109739Y0178447D01*
X0109751Y0178432D01*
X0109760Y0178414D01*
X0109766Y0178396D01*
X0109768Y0178376D01*
X0109766Y0178356D01*
X0109760Y0178338D01*
X0109751Y0178320D01*
X0109739Y0178305D01*
X0109724Y0178293D01*
X0109706Y0178284D01*
X0109688Y0178278D01*
X0109668Y0178276D01*
X0109648Y0178278D01*
X0109630Y0178284D01*
X0109612Y0178293D01*
X0109597Y0178305D01*
X0109585Y0178320D01*
X0109576Y0178338D01*
X0109570Y0178356D01*
X0109568Y0178376D01*
X0109168Y0178376D02*
X0109170Y0178420D01*
X0109176Y0178464D01*
X0109186Y0178507D01*
X0109199Y0178549D01*
X0109216Y0178590D01*
X0109237Y0178629D01*
X0109261Y0178666D01*
X0109288Y0178701D01*
X0109318Y0178733D01*
X0109351Y0178763D01*
X0109387Y0178789D01*
X0109424Y0178813D01*
X0109464Y0178832D01*
X0109505Y0178849D01*
X0109548Y0178861D01*
X0109591Y0178870D01*
X0109635Y0178875D01*
X0109679Y0178876D01*
X0109723Y0178873D01*
X0109767Y0178866D01*
X0109810Y0178855D01*
X0109852Y0178841D01*
X0109892Y0178823D01*
X0109931Y0178801D01*
X0109967Y0178777D01*
X0110001Y0178749D01*
X0110033Y0178718D01*
X0110062Y0178684D01*
X0110088Y0178648D01*
X0110110Y0178610D01*
X0110129Y0178570D01*
X0110144Y0178528D01*
X0110156Y0178486D01*
X0110164Y0178442D01*
X0110168Y0178398D01*
X0110168Y0178354D01*
X0110164Y0178310D01*
X0110156Y0178266D01*
X0110144Y0178224D01*
X0110129Y0178182D01*
X0110110Y0178142D01*
X0110088Y0178104D01*
X0110062Y0178068D01*
X0110033Y0178034D01*
X0110001Y0178003D01*
X0109967Y0177975D01*
X0109931Y0177951D01*
X0109892Y0177929D01*
X0109852Y0177911D01*
X0109810Y0177897D01*
X0109767Y0177886D01*
X0109723Y0177879D01*
X0109679Y0177876D01*
X0109635Y0177877D01*
X0109591Y0177882D01*
X0109548Y0177891D01*
X0109505Y0177903D01*
X0109464Y0177920D01*
X0109424Y0177939D01*
X0109387Y0177963D01*
X0109351Y0177989D01*
X0109318Y0178019D01*
X0109288Y0178051D01*
X0109261Y0178086D01*
X0109237Y0178123D01*
X0109216Y0178162D01*
X0109199Y0178203D01*
X0109186Y0178245D01*
X0109176Y0178288D01*
X0109170Y0178332D01*
X0109168Y0178376D01*
X0104156Y0187037D02*
X0104156Y0191762D01*
X0115180Y0191762D01*
X0115180Y0187037D01*
X0104156Y0187037D01*
X0049359Y0189006D02*
X0049361Y0189064D01*
X0049367Y0189122D01*
X0049377Y0189179D01*
X0049390Y0189236D01*
X0049408Y0189291D01*
X0049429Y0189345D01*
X0049453Y0189398D01*
X0049482Y0189449D01*
X0049513Y0189497D01*
X0049548Y0189544D01*
X0049586Y0189588D01*
X0049626Y0189629D01*
X0049670Y0189668D01*
X0049716Y0189703D01*
X0049764Y0189736D01*
X0049814Y0189765D01*
X0049867Y0189790D01*
X0049920Y0189812D01*
X0049975Y0189831D01*
X0050032Y0189845D01*
X0050089Y0189856D01*
X0050146Y0189863D01*
X0050204Y0189866D01*
X0050263Y0189865D01*
X0050320Y0189860D01*
X0050378Y0189851D01*
X0050435Y0189839D01*
X0050490Y0189822D01*
X0050545Y0189802D01*
X0050598Y0189778D01*
X0050649Y0189751D01*
X0050698Y0189720D01*
X0050745Y0189686D01*
X0050790Y0189649D01*
X0050832Y0189609D01*
X0050872Y0189566D01*
X0050908Y0189521D01*
X0050941Y0189473D01*
X0050971Y0189423D01*
X0050997Y0189372D01*
X0051020Y0189318D01*
X0051040Y0189263D01*
X0051055Y0189207D01*
X0051067Y0189151D01*
X0051075Y0189093D01*
X0051079Y0189035D01*
X0051079Y0188977D01*
X0051075Y0188919D01*
X0051067Y0188861D01*
X0051055Y0188805D01*
X0051040Y0188749D01*
X0051020Y0188694D01*
X0050997Y0188640D01*
X0050971Y0188589D01*
X0050941Y0188539D01*
X0050908Y0188491D01*
X0050872Y0188446D01*
X0050832Y0188403D01*
X0050790Y0188363D01*
X0050745Y0188326D01*
X0050698Y0188292D01*
X0050649Y0188261D01*
X0050598Y0188234D01*
X0050545Y0188210D01*
X0050490Y0188190D01*
X0050435Y0188173D01*
X0050378Y0188161D01*
X0050320Y0188152D01*
X0050263Y0188147D01*
X0050204Y0188146D01*
X0050146Y0188149D01*
X0050089Y0188156D01*
X0050032Y0188167D01*
X0049975Y0188181D01*
X0049920Y0188200D01*
X0049867Y0188222D01*
X0049814Y0188247D01*
X0049764Y0188276D01*
X0049716Y0188309D01*
X0049670Y0188344D01*
X0049626Y0188383D01*
X0049586Y0188424D01*
X0049548Y0188468D01*
X0049513Y0188515D01*
X0049482Y0188563D01*
X0049453Y0188614D01*
X0049429Y0188667D01*
X0049408Y0188721D01*
X0049390Y0188776D01*
X0049377Y0188833D01*
X0049367Y0188890D01*
X0049361Y0188948D01*
X0049359Y0189006D01*
X0050119Y0189006D02*
X0050121Y0189026D01*
X0050127Y0189044D01*
X0050136Y0189062D01*
X0050148Y0189077D01*
X0050163Y0189089D01*
X0050181Y0189098D01*
X0050199Y0189104D01*
X0050219Y0189106D01*
X0050239Y0189104D01*
X0050257Y0189098D01*
X0050275Y0189089D01*
X0050290Y0189077D01*
X0050302Y0189062D01*
X0050311Y0189044D01*
X0050317Y0189026D01*
X0050319Y0189006D01*
X0050317Y0188986D01*
X0050311Y0188968D01*
X0050302Y0188950D01*
X0050290Y0188935D01*
X0050275Y0188923D01*
X0050257Y0188914D01*
X0050239Y0188908D01*
X0050219Y0188906D01*
X0050199Y0188908D01*
X0050181Y0188914D01*
X0050163Y0188923D01*
X0050148Y0188935D01*
X0050136Y0188950D01*
X0050127Y0188968D01*
X0050121Y0188986D01*
X0050119Y0189006D01*
X0049719Y0189006D02*
X0049721Y0189050D01*
X0049727Y0189094D01*
X0049737Y0189137D01*
X0049750Y0189179D01*
X0049767Y0189220D01*
X0049788Y0189259D01*
X0049812Y0189296D01*
X0049839Y0189331D01*
X0049869Y0189363D01*
X0049902Y0189393D01*
X0049938Y0189419D01*
X0049975Y0189443D01*
X0050015Y0189462D01*
X0050056Y0189479D01*
X0050099Y0189491D01*
X0050142Y0189500D01*
X0050186Y0189505D01*
X0050230Y0189506D01*
X0050274Y0189503D01*
X0050318Y0189496D01*
X0050361Y0189485D01*
X0050403Y0189471D01*
X0050443Y0189453D01*
X0050482Y0189431D01*
X0050518Y0189407D01*
X0050552Y0189379D01*
X0050584Y0189348D01*
X0050613Y0189314D01*
X0050639Y0189278D01*
X0050661Y0189240D01*
X0050680Y0189200D01*
X0050695Y0189158D01*
X0050707Y0189116D01*
X0050715Y0189072D01*
X0050719Y0189028D01*
X0050719Y0188984D01*
X0050715Y0188940D01*
X0050707Y0188896D01*
X0050695Y0188854D01*
X0050680Y0188812D01*
X0050661Y0188772D01*
X0050639Y0188734D01*
X0050613Y0188698D01*
X0050584Y0188664D01*
X0050552Y0188633D01*
X0050518Y0188605D01*
X0050482Y0188581D01*
X0050443Y0188559D01*
X0050403Y0188541D01*
X0050361Y0188527D01*
X0050318Y0188516D01*
X0050274Y0188509D01*
X0050230Y0188506D01*
X0050186Y0188507D01*
X0050142Y0188512D01*
X0050099Y0188521D01*
X0050056Y0188533D01*
X0050015Y0188550D01*
X0049975Y0188569D01*
X0049938Y0188593D01*
X0049902Y0188619D01*
X0049869Y0188649D01*
X0049839Y0188681D01*
X0049812Y0188716D01*
X0049788Y0188753D01*
X0049767Y0188792D01*
X0049750Y0188833D01*
X0049737Y0188875D01*
X0049727Y0188918D01*
X0049721Y0188962D01*
X0049719Y0189006D01*
X0045951Y0192868D02*
X0037951Y0192868D01*
X0063136Y0116234D02*
X0063136Y0108234D01*
X0059201Y0104360D02*
X0059203Y0104418D01*
X0059209Y0104476D01*
X0059219Y0104533D01*
X0059232Y0104590D01*
X0059250Y0104645D01*
X0059271Y0104699D01*
X0059295Y0104752D01*
X0059324Y0104803D01*
X0059355Y0104851D01*
X0059390Y0104898D01*
X0059428Y0104942D01*
X0059468Y0104983D01*
X0059512Y0105022D01*
X0059558Y0105057D01*
X0059606Y0105090D01*
X0059656Y0105119D01*
X0059709Y0105144D01*
X0059762Y0105166D01*
X0059817Y0105185D01*
X0059874Y0105199D01*
X0059931Y0105210D01*
X0059988Y0105217D01*
X0060046Y0105220D01*
X0060105Y0105219D01*
X0060162Y0105214D01*
X0060220Y0105205D01*
X0060277Y0105193D01*
X0060332Y0105176D01*
X0060387Y0105156D01*
X0060440Y0105132D01*
X0060491Y0105105D01*
X0060540Y0105074D01*
X0060587Y0105040D01*
X0060632Y0105003D01*
X0060674Y0104963D01*
X0060714Y0104920D01*
X0060750Y0104875D01*
X0060783Y0104827D01*
X0060813Y0104777D01*
X0060839Y0104726D01*
X0060862Y0104672D01*
X0060882Y0104617D01*
X0060897Y0104561D01*
X0060909Y0104505D01*
X0060917Y0104447D01*
X0060921Y0104389D01*
X0060921Y0104331D01*
X0060917Y0104273D01*
X0060909Y0104215D01*
X0060897Y0104159D01*
X0060882Y0104103D01*
X0060862Y0104048D01*
X0060839Y0103994D01*
X0060813Y0103943D01*
X0060783Y0103893D01*
X0060750Y0103845D01*
X0060714Y0103800D01*
X0060674Y0103757D01*
X0060632Y0103717D01*
X0060587Y0103680D01*
X0060540Y0103646D01*
X0060491Y0103615D01*
X0060440Y0103588D01*
X0060387Y0103564D01*
X0060332Y0103544D01*
X0060277Y0103527D01*
X0060220Y0103515D01*
X0060162Y0103506D01*
X0060105Y0103501D01*
X0060046Y0103500D01*
X0059988Y0103503D01*
X0059931Y0103510D01*
X0059874Y0103521D01*
X0059817Y0103535D01*
X0059762Y0103554D01*
X0059709Y0103576D01*
X0059656Y0103601D01*
X0059606Y0103630D01*
X0059558Y0103663D01*
X0059512Y0103698D01*
X0059468Y0103737D01*
X0059428Y0103778D01*
X0059390Y0103822D01*
X0059355Y0103869D01*
X0059324Y0103917D01*
X0059295Y0103968D01*
X0059271Y0104021D01*
X0059250Y0104075D01*
X0059232Y0104130D01*
X0059219Y0104187D01*
X0059209Y0104244D01*
X0059203Y0104302D01*
X0059201Y0104360D01*
X0059961Y0104360D02*
X0059963Y0104380D01*
X0059969Y0104398D01*
X0059978Y0104416D01*
X0059990Y0104431D01*
X0060005Y0104443D01*
X0060023Y0104452D01*
X0060041Y0104458D01*
X0060061Y0104460D01*
X0060081Y0104458D01*
X0060099Y0104452D01*
X0060117Y0104443D01*
X0060132Y0104431D01*
X0060144Y0104416D01*
X0060153Y0104398D01*
X0060159Y0104380D01*
X0060161Y0104360D01*
X0060159Y0104340D01*
X0060153Y0104322D01*
X0060144Y0104304D01*
X0060132Y0104289D01*
X0060117Y0104277D01*
X0060099Y0104268D01*
X0060081Y0104262D01*
X0060061Y0104260D01*
X0060041Y0104262D01*
X0060023Y0104268D01*
X0060005Y0104277D01*
X0059990Y0104289D01*
X0059978Y0104304D01*
X0059969Y0104322D01*
X0059963Y0104340D01*
X0059961Y0104360D01*
X0059561Y0104360D02*
X0059563Y0104404D01*
X0059569Y0104448D01*
X0059579Y0104491D01*
X0059592Y0104533D01*
X0059609Y0104574D01*
X0059630Y0104613D01*
X0059654Y0104650D01*
X0059681Y0104685D01*
X0059711Y0104717D01*
X0059744Y0104747D01*
X0059780Y0104773D01*
X0059817Y0104797D01*
X0059857Y0104816D01*
X0059898Y0104833D01*
X0059941Y0104845D01*
X0059984Y0104854D01*
X0060028Y0104859D01*
X0060072Y0104860D01*
X0060116Y0104857D01*
X0060160Y0104850D01*
X0060203Y0104839D01*
X0060245Y0104825D01*
X0060285Y0104807D01*
X0060324Y0104785D01*
X0060360Y0104761D01*
X0060394Y0104733D01*
X0060426Y0104702D01*
X0060455Y0104668D01*
X0060481Y0104632D01*
X0060503Y0104594D01*
X0060522Y0104554D01*
X0060537Y0104512D01*
X0060549Y0104470D01*
X0060557Y0104426D01*
X0060561Y0104382D01*
X0060561Y0104338D01*
X0060557Y0104294D01*
X0060549Y0104250D01*
X0060537Y0104208D01*
X0060522Y0104166D01*
X0060503Y0104126D01*
X0060481Y0104088D01*
X0060455Y0104052D01*
X0060426Y0104018D01*
X0060394Y0103987D01*
X0060360Y0103959D01*
X0060324Y0103935D01*
X0060285Y0103913D01*
X0060245Y0103895D01*
X0060203Y0103881D01*
X0060160Y0103870D01*
X0060116Y0103863D01*
X0060072Y0103860D01*
X0060028Y0103861D01*
X0059984Y0103866D01*
X0059941Y0103875D01*
X0059898Y0103887D01*
X0059857Y0103904D01*
X0059817Y0103923D01*
X0059780Y0103947D01*
X0059744Y0103973D01*
X0059711Y0104003D01*
X0059681Y0104035D01*
X0059654Y0104070D01*
X0059630Y0104107D01*
X0059609Y0104146D01*
X0059592Y0104187D01*
X0059579Y0104229D01*
X0059569Y0104272D01*
X0059563Y0104316D01*
X0059561Y0104360D01*
X0037227Y0057904D02*
X0026203Y0057904D01*
X0026203Y0053179D01*
X0037227Y0053179D01*
X0037227Y0057904D01*
X0045323Y0043435D02*
X0045325Y0043493D01*
X0045331Y0043551D01*
X0045341Y0043608D01*
X0045354Y0043665D01*
X0045372Y0043720D01*
X0045393Y0043774D01*
X0045417Y0043827D01*
X0045446Y0043878D01*
X0045477Y0043926D01*
X0045512Y0043973D01*
X0045550Y0044017D01*
X0045590Y0044058D01*
X0045634Y0044097D01*
X0045680Y0044132D01*
X0045728Y0044165D01*
X0045778Y0044194D01*
X0045831Y0044219D01*
X0045884Y0044241D01*
X0045939Y0044260D01*
X0045996Y0044274D01*
X0046053Y0044285D01*
X0046110Y0044292D01*
X0046168Y0044295D01*
X0046227Y0044294D01*
X0046284Y0044289D01*
X0046342Y0044280D01*
X0046399Y0044268D01*
X0046454Y0044251D01*
X0046509Y0044231D01*
X0046562Y0044207D01*
X0046613Y0044180D01*
X0046662Y0044149D01*
X0046709Y0044115D01*
X0046754Y0044078D01*
X0046796Y0044038D01*
X0046836Y0043995D01*
X0046872Y0043950D01*
X0046905Y0043902D01*
X0046935Y0043852D01*
X0046961Y0043801D01*
X0046984Y0043747D01*
X0047004Y0043692D01*
X0047019Y0043636D01*
X0047031Y0043580D01*
X0047039Y0043522D01*
X0047043Y0043464D01*
X0047043Y0043406D01*
X0047039Y0043348D01*
X0047031Y0043290D01*
X0047019Y0043234D01*
X0047004Y0043178D01*
X0046984Y0043123D01*
X0046961Y0043069D01*
X0046935Y0043018D01*
X0046905Y0042968D01*
X0046872Y0042920D01*
X0046836Y0042875D01*
X0046796Y0042832D01*
X0046754Y0042792D01*
X0046709Y0042755D01*
X0046662Y0042721D01*
X0046613Y0042690D01*
X0046562Y0042663D01*
X0046509Y0042639D01*
X0046454Y0042619D01*
X0046399Y0042602D01*
X0046342Y0042590D01*
X0046284Y0042581D01*
X0046227Y0042576D01*
X0046168Y0042575D01*
X0046110Y0042578D01*
X0046053Y0042585D01*
X0045996Y0042596D01*
X0045939Y0042610D01*
X0045884Y0042629D01*
X0045831Y0042651D01*
X0045778Y0042676D01*
X0045728Y0042705D01*
X0045680Y0042738D01*
X0045634Y0042773D01*
X0045590Y0042812D01*
X0045550Y0042853D01*
X0045512Y0042897D01*
X0045477Y0042944D01*
X0045446Y0042992D01*
X0045417Y0043043D01*
X0045393Y0043096D01*
X0045372Y0043150D01*
X0045354Y0043205D01*
X0045341Y0043262D01*
X0045331Y0043319D01*
X0045325Y0043377D01*
X0045323Y0043435D01*
X0046083Y0043435D02*
X0046085Y0043455D01*
X0046091Y0043473D01*
X0046100Y0043491D01*
X0046112Y0043506D01*
X0046127Y0043518D01*
X0046145Y0043527D01*
X0046163Y0043533D01*
X0046183Y0043535D01*
X0046203Y0043533D01*
X0046221Y0043527D01*
X0046239Y0043518D01*
X0046254Y0043506D01*
X0046266Y0043491D01*
X0046275Y0043473D01*
X0046281Y0043455D01*
X0046283Y0043435D01*
X0046281Y0043415D01*
X0046275Y0043397D01*
X0046266Y0043379D01*
X0046254Y0043364D01*
X0046239Y0043352D01*
X0046221Y0043343D01*
X0046203Y0043337D01*
X0046183Y0043335D01*
X0046163Y0043337D01*
X0046145Y0043343D01*
X0046127Y0043352D01*
X0046112Y0043364D01*
X0046100Y0043379D01*
X0046091Y0043397D01*
X0046085Y0043415D01*
X0046083Y0043435D01*
X0045683Y0043435D02*
X0045685Y0043479D01*
X0045691Y0043523D01*
X0045701Y0043566D01*
X0045714Y0043608D01*
X0045731Y0043649D01*
X0045752Y0043688D01*
X0045776Y0043725D01*
X0045803Y0043760D01*
X0045833Y0043792D01*
X0045866Y0043822D01*
X0045902Y0043848D01*
X0045939Y0043872D01*
X0045979Y0043891D01*
X0046020Y0043908D01*
X0046063Y0043920D01*
X0046106Y0043929D01*
X0046150Y0043934D01*
X0046194Y0043935D01*
X0046238Y0043932D01*
X0046282Y0043925D01*
X0046325Y0043914D01*
X0046367Y0043900D01*
X0046407Y0043882D01*
X0046446Y0043860D01*
X0046482Y0043836D01*
X0046516Y0043808D01*
X0046548Y0043777D01*
X0046577Y0043743D01*
X0046603Y0043707D01*
X0046625Y0043669D01*
X0046644Y0043629D01*
X0046659Y0043587D01*
X0046671Y0043545D01*
X0046679Y0043501D01*
X0046683Y0043457D01*
X0046683Y0043413D01*
X0046679Y0043369D01*
X0046671Y0043325D01*
X0046659Y0043283D01*
X0046644Y0043241D01*
X0046625Y0043201D01*
X0046603Y0043163D01*
X0046577Y0043127D01*
X0046548Y0043093D01*
X0046516Y0043062D01*
X0046482Y0043034D01*
X0046446Y0043010D01*
X0046407Y0042988D01*
X0046367Y0042970D01*
X0046325Y0042956D01*
X0046282Y0042945D01*
X0046238Y0042938D01*
X0046194Y0042935D01*
X0046150Y0042936D01*
X0046106Y0042941D01*
X0046063Y0042950D01*
X0046020Y0042962D01*
X0045979Y0042979D01*
X0045939Y0042998D01*
X0045902Y0043022D01*
X0045866Y0043048D01*
X0045833Y0043078D01*
X0045803Y0043110D01*
X0045776Y0043145D01*
X0045752Y0043182D01*
X0045731Y0043221D01*
X0045714Y0043262D01*
X0045701Y0043304D01*
X0045691Y0043347D01*
X0045685Y0043391D01*
X0045683Y0043435D01*
X0047857Y0022077D02*
X0047857Y0006329D01*
X0047857Y0022077D02*
X0075416Y0022077D01*
X0075416Y0006329D01*
X0103296Y0026407D02*
X0103298Y0026465D01*
X0103304Y0026523D01*
X0103314Y0026580D01*
X0103327Y0026637D01*
X0103345Y0026692D01*
X0103366Y0026746D01*
X0103390Y0026799D01*
X0103419Y0026850D01*
X0103450Y0026898D01*
X0103485Y0026945D01*
X0103523Y0026989D01*
X0103563Y0027030D01*
X0103607Y0027069D01*
X0103653Y0027104D01*
X0103701Y0027137D01*
X0103751Y0027166D01*
X0103804Y0027191D01*
X0103857Y0027213D01*
X0103912Y0027232D01*
X0103969Y0027246D01*
X0104026Y0027257D01*
X0104083Y0027264D01*
X0104141Y0027267D01*
X0104200Y0027266D01*
X0104257Y0027261D01*
X0104315Y0027252D01*
X0104372Y0027240D01*
X0104427Y0027223D01*
X0104482Y0027203D01*
X0104535Y0027179D01*
X0104586Y0027152D01*
X0104635Y0027121D01*
X0104682Y0027087D01*
X0104727Y0027050D01*
X0104769Y0027010D01*
X0104809Y0026967D01*
X0104845Y0026922D01*
X0104878Y0026874D01*
X0104908Y0026824D01*
X0104934Y0026773D01*
X0104957Y0026719D01*
X0104977Y0026664D01*
X0104992Y0026608D01*
X0105004Y0026552D01*
X0105012Y0026494D01*
X0105016Y0026436D01*
X0105016Y0026378D01*
X0105012Y0026320D01*
X0105004Y0026262D01*
X0104992Y0026206D01*
X0104977Y0026150D01*
X0104957Y0026095D01*
X0104934Y0026041D01*
X0104908Y0025990D01*
X0104878Y0025940D01*
X0104845Y0025892D01*
X0104809Y0025847D01*
X0104769Y0025804D01*
X0104727Y0025764D01*
X0104682Y0025727D01*
X0104635Y0025693D01*
X0104586Y0025662D01*
X0104535Y0025635D01*
X0104482Y0025611D01*
X0104427Y0025591D01*
X0104372Y0025574D01*
X0104315Y0025562D01*
X0104257Y0025553D01*
X0104200Y0025548D01*
X0104141Y0025547D01*
X0104083Y0025550D01*
X0104026Y0025557D01*
X0103969Y0025568D01*
X0103912Y0025582D01*
X0103857Y0025601D01*
X0103804Y0025623D01*
X0103751Y0025648D01*
X0103701Y0025677D01*
X0103653Y0025710D01*
X0103607Y0025745D01*
X0103563Y0025784D01*
X0103523Y0025825D01*
X0103485Y0025869D01*
X0103450Y0025916D01*
X0103419Y0025964D01*
X0103390Y0026015D01*
X0103366Y0026068D01*
X0103345Y0026122D01*
X0103327Y0026177D01*
X0103314Y0026234D01*
X0103304Y0026291D01*
X0103298Y0026349D01*
X0103296Y0026407D01*
X0104056Y0026407D02*
X0104058Y0026427D01*
X0104064Y0026445D01*
X0104073Y0026463D01*
X0104085Y0026478D01*
X0104100Y0026490D01*
X0104118Y0026499D01*
X0104136Y0026505D01*
X0104156Y0026507D01*
X0104176Y0026505D01*
X0104194Y0026499D01*
X0104212Y0026490D01*
X0104227Y0026478D01*
X0104239Y0026463D01*
X0104248Y0026445D01*
X0104254Y0026427D01*
X0104256Y0026407D01*
X0104254Y0026387D01*
X0104248Y0026369D01*
X0104239Y0026351D01*
X0104227Y0026336D01*
X0104212Y0026324D01*
X0104194Y0026315D01*
X0104176Y0026309D01*
X0104156Y0026307D01*
X0104136Y0026309D01*
X0104118Y0026315D01*
X0104100Y0026324D01*
X0104085Y0026336D01*
X0104073Y0026351D01*
X0104064Y0026369D01*
X0104058Y0026387D01*
X0104056Y0026407D01*
X0103656Y0026407D02*
X0103658Y0026451D01*
X0103664Y0026495D01*
X0103674Y0026538D01*
X0103687Y0026580D01*
X0103704Y0026621D01*
X0103725Y0026660D01*
X0103749Y0026697D01*
X0103776Y0026732D01*
X0103806Y0026764D01*
X0103839Y0026794D01*
X0103875Y0026820D01*
X0103912Y0026844D01*
X0103952Y0026863D01*
X0103993Y0026880D01*
X0104036Y0026892D01*
X0104079Y0026901D01*
X0104123Y0026906D01*
X0104167Y0026907D01*
X0104211Y0026904D01*
X0104255Y0026897D01*
X0104298Y0026886D01*
X0104340Y0026872D01*
X0104380Y0026854D01*
X0104419Y0026832D01*
X0104455Y0026808D01*
X0104489Y0026780D01*
X0104521Y0026749D01*
X0104550Y0026715D01*
X0104576Y0026679D01*
X0104598Y0026641D01*
X0104617Y0026601D01*
X0104632Y0026559D01*
X0104644Y0026517D01*
X0104652Y0026473D01*
X0104656Y0026429D01*
X0104656Y0026385D01*
X0104652Y0026341D01*
X0104644Y0026297D01*
X0104632Y0026255D01*
X0104617Y0026213D01*
X0104598Y0026173D01*
X0104576Y0026135D01*
X0104550Y0026099D01*
X0104521Y0026065D01*
X0104489Y0026034D01*
X0104455Y0026006D01*
X0104419Y0025982D01*
X0104380Y0025960D01*
X0104340Y0025942D01*
X0104298Y0025928D01*
X0104255Y0025917D01*
X0104211Y0025910D01*
X0104167Y0025907D01*
X0104123Y0025908D01*
X0104079Y0025913D01*
X0104036Y0025922D01*
X0103993Y0025934D01*
X0103952Y0025951D01*
X0103912Y0025970D01*
X0103875Y0025994D01*
X0103839Y0026020D01*
X0103806Y0026050D01*
X0103776Y0026082D01*
X0103749Y0026117D01*
X0103725Y0026154D01*
X0103704Y0026193D01*
X0103687Y0026234D01*
X0103674Y0026276D01*
X0103664Y0026319D01*
X0103658Y0026363D01*
X0103656Y0026407D01*
X0116361Y0034715D02*
X0116361Y0009124D01*
X0116361Y0034715D02*
X0175416Y0034715D01*
X0175416Y0009124D01*
X0206101Y0053313D02*
X0206101Y0061313D01*
X0206101Y0065616D02*
X0206101Y0073616D01*
X0279746Y0076998D02*
X0279746Y0014006D01*
X0350613Y0014006D01*
X0350613Y0076998D01*
X0279746Y0076998D01*
X0291557Y0093337D02*
X0343487Y0093337D01*
D14*
X0343970Y0083787D02*
X0344821Y0083787D01*
X0344395Y0083787D02*
X0344395Y0081235D01*
X0343970Y0081235D02*
X0344821Y0081235D01*
X0345904Y0081235D02*
X0345904Y0083787D01*
X0347605Y0083787D01*
X0348804Y0083787D02*
X0349654Y0083787D01*
X0349229Y0083787D02*
X0349229Y0081235D01*
X0348804Y0081235D02*
X0349654Y0081235D01*
X0346754Y0082511D02*
X0345904Y0082511D01*
X0342771Y0081235D02*
X0342771Y0083787D01*
X0341070Y0083787D02*
X0341070Y0081235D01*
X0341921Y0082086D01*
X0342771Y0081235D01*
X0242666Y0074929D02*
X0242666Y0073227D01*
X0241815Y0072377D01*
X0240965Y0073227D01*
X0240965Y0074929D01*
X0239766Y0074929D02*
X0238065Y0072377D01*
X0236866Y0072377D02*
X0236866Y0074078D01*
X0236015Y0074929D01*
X0235165Y0074078D01*
X0235165Y0072377D01*
X0235165Y0073653D02*
X0236866Y0073653D01*
X0175280Y0043432D02*
X0174429Y0043432D01*
X0174855Y0043432D02*
X0174855Y0040881D01*
X0175280Y0040881D02*
X0174429Y0040881D01*
X0173230Y0041731D02*
X0173230Y0043432D01*
X0173230Y0041731D02*
X0172380Y0040881D01*
X0171529Y0041731D01*
X0171529Y0043432D01*
X0170330Y0043007D02*
X0169905Y0043432D01*
X0168629Y0043432D01*
X0168629Y0040881D01*
X0169905Y0040881D01*
X0170330Y0041306D01*
X0170330Y0043007D01*
X0093526Y0050423D02*
X0093526Y0089793D01*
X0054156Y0089793D01*
X0054156Y0050423D01*
X0093526Y0050423D01*
X0056911Y0055148D02*
X0056913Y0055236D01*
X0056919Y0055324D01*
X0056929Y0055412D01*
X0056943Y0055500D01*
X0056960Y0055586D01*
X0056982Y0055672D01*
X0057007Y0055756D01*
X0057037Y0055840D01*
X0057069Y0055922D01*
X0057106Y0056002D01*
X0057146Y0056081D01*
X0057190Y0056158D01*
X0057237Y0056233D01*
X0057287Y0056305D01*
X0057341Y0056376D01*
X0057397Y0056443D01*
X0057457Y0056509D01*
X0057519Y0056571D01*
X0057585Y0056631D01*
X0057652Y0056687D01*
X0057723Y0056741D01*
X0057795Y0056791D01*
X0057870Y0056838D01*
X0057947Y0056882D01*
X0058026Y0056922D01*
X0058106Y0056959D01*
X0058188Y0056991D01*
X0058272Y0057021D01*
X0058356Y0057046D01*
X0058442Y0057068D01*
X0058528Y0057085D01*
X0058616Y0057099D01*
X0058704Y0057109D01*
X0058792Y0057115D01*
X0058880Y0057117D01*
X0058968Y0057115D01*
X0059056Y0057109D01*
X0059144Y0057099D01*
X0059232Y0057085D01*
X0059318Y0057068D01*
X0059404Y0057046D01*
X0059488Y0057021D01*
X0059572Y0056991D01*
X0059654Y0056959D01*
X0059734Y0056922D01*
X0059813Y0056882D01*
X0059890Y0056838D01*
X0059965Y0056791D01*
X0060037Y0056741D01*
X0060108Y0056687D01*
X0060175Y0056631D01*
X0060241Y0056571D01*
X0060303Y0056509D01*
X0060363Y0056443D01*
X0060419Y0056376D01*
X0060473Y0056305D01*
X0060523Y0056233D01*
X0060570Y0056158D01*
X0060614Y0056081D01*
X0060654Y0056002D01*
X0060691Y0055922D01*
X0060723Y0055840D01*
X0060753Y0055756D01*
X0060778Y0055672D01*
X0060800Y0055586D01*
X0060817Y0055500D01*
X0060831Y0055412D01*
X0060841Y0055324D01*
X0060847Y0055236D01*
X0060849Y0055148D01*
X0060847Y0055060D01*
X0060841Y0054972D01*
X0060831Y0054884D01*
X0060817Y0054796D01*
X0060800Y0054710D01*
X0060778Y0054624D01*
X0060753Y0054540D01*
X0060723Y0054456D01*
X0060691Y0054374D01*
X0060654Y0054294D01*
X0060614Y0054215D01*
X0060570Y0054138D01*
X0060523Y0054063D01*
X0060473Y0053991D01*
X0060419Y0053920D01*
X0060363Y0053853D01*
X0060303Y0053787D01*
X0060241Y0053725D01*
X0060175Y0053665D01*
X0060108Y0053609D01*
X0060037Y0053555D01*
X0059965Y0053505D01*
X0059890Y0053458D01*
X0059813Y0053414D01*
X0059734Y0053374D01*
X0059654Y0053337D01*
X0059572Y0053305D01*
X0059488Y0053275D01*
X0059404Y0053250D01*
X0059318Y0053228D01*
X0059232Y0053211D01*
X0059144Y0053197D01*
X0059056Y0053187D01*
X0058968Y0053181D01*
X0058880Y0053179D01*
X0058792Y0053181D01*
X0058704Y0053187D01*
X0058616Y0053197D01*
X0058528Y0053211D01*
X0058442Y0053228D01*
X0058356Y0053250D01*
X0058272Y0053275D01*
X0058188Y0053305D01*
X0058106Y0053337D01*
X0058026Y0053374D01*
X0057947Y0053414D01*
X0057870Y0053458D01*
X0057795Y0053505D01*
X0057723Y0053555D01*
X0057652Y0053609D01*
X0057585Y0053665D01*
X0057519Y0053725D01*
X0057457Y0053787D01*
X0057397Y0053853D01*
X0057341Y0053920D01*
X0057287Y0053991D01*
X0057237Y0054063D01*
X0057190Y0054138D01*
X0057146Y0054215D01*
X0057106Y0054294D01*
X0057069Y0054374D01*
X0057037Y0054456D01*
X0057007Y0054540D01*
X0056982Y0054624D01*
X0056960Y0054710D01*
X0056943Y0054796D01*
X0056929Y0054884D01*
X0056919Y0054972D01*
X0056913Y0055060D01*
X0056911Y0055148D01*
X0025116Y0054766D02*
X0022564Y0054766D01*
X0022564Y0056467D01*
X0022989Y0057666D02*
X0024690Y0057666D01*
X0025116Y0058091D01*
X0025116Y0058942D01*
X0024690Y0059367D01*
X0023840Y0059367D01*
X0023840Y0058516D01*
X0022989Y0057666D02*
X0022564Y0058091D01*
X0022564Y0058942D01*
X0022989Y0059367D01*
X0023840Y0055616D02*
X0023840Y0054766D01*
X0024690Y0053567D02*
X0025116Y0053141D01*
X0025116Y0052291D01*
X0024690Y0051865D01*
X0022989Y0051865D01*
X0022564Y0052291D01*
X0022564Y0053141D01*
X0022989Y0053567D01*
X0047763Y0028866D02*
X0049039Y0028866D01*
X0049464Y0028440D01*
X0049464Y0026739D01*
X0049039Y0026314D01*
X0047763Y0026314D01*
X0047763Y0028866D01*
X0050663Y0028866D02*
X0050663Y0026314D01*
X0052364Y0026314D01*
X0053563Y0026314D02*
X0053563Y0028866D01*
X0054839Y0028866D01*
X0055264Y0028440D01*
X0055264Y0028015D01*
X0054839Y0027590D01*
X0053563Y0027590D01*
X0054839Y0027590D02*
X0055264Y0027164D01*
X0055264Y0026739D01*
X0054839Y0026314D01*
X0053563Y0026314D01*
X0051514Y0027590D02*
X0050663Y0027590D01*
X0050663Y0028866D02*
X0052364Y0028866D01*
X0056463Y0028866D02*
X0056463Y0026739D01*
X0056889Y0026314D01*
X0057739Y0026314D01*
X0058165Y0026739D01*
X0058165Y0028866D01*
X0059363Y0028440D02*
X0059363Y0026739D01*
X0059789Y0026314D01*
X0060639Y0026314D01*
X0061065Y0026739D01*
X0061065Y0027590D01*
X0060214Y0027590D01*
X0059363Y0028440D02*
X0059789Y0028866D01*
X0060639Y0028866D01*
X0061065Y0028440D01*
X0038980Y0090600D02*
X0038129Y0091451D01*
X0038554Y0091451D02*
X0037279Y0091451D01*
X0037279Y0090600D02*
X0037279Y0093152D01*
X0038554Y0093152D01*
X0038980Y0092727D01*
X0038980Y0091876D01*
X0038554Y0091451D01*
X0036080Y0090600D02*
X0036080Y0093152D01*
X0034378Y0093152D02*
X0034378Y0090600D01*
X0035229Y0091451D01*
X0036080Y0090600D01*
X0033179Y0091876D02*
X0032754Y0091451D01*
X0031478Y0091451D01*
X0031478Y0090600D02*
X0031478Y0093152D01*
X0032754Y0093152D01*
X0033179Y0092727D01*
X0033179Y0091876D01*
X0030279Y0091451D02*
X0030279Y0091026D01*
X0029854Y0090600D01*
X0029003Y0090600D01*
X0028578Y0091026D01*
X0029003Y0091876D02*
X0029854Y0091876D01*
X0030279Y0091451D01*
X0030279Y0092727D02*
X0029854Y0093152D01*
X0029003Y0093152D01*
X0028578Y0092727D01*
X0028578Y0092302D01*
X0029003Y0091876D01*
X0027379Y0091026D02*
X0027379Y0093152D01*
X0025678Y0093152D02*
X0025678Y0091026D01*
X0026103Y0090600D01*
X0026954Y0090600D01*
X0027379Y0091026D01*
X0024479Y0091026D02*
X0024054Y0090600D01*
X0022778Y0090600D01*
X0022778Y0093152D01*
X0024054Y0093152D01*
X0024479Y0092727D01*
X0024479Y0092302D01*
X0024054Y0091876D01*
X0022778Y0091876D01*
X0024054Y0091876D02*
X0024479Y0091451D01*
X0024479Y0091026D01*
X0052881Y0098786D02*
X0053306Y0098361D01*
X0054157Y0098361D01*
X0054582Y0098786D01*
X0054582Y0100913D01*
X0055781Y0100488D02*
X0055781Y0100062D01*
X0056207Y0099637D01*
X0057057Y0099637D01*
X0057482Y0099212D01*
X0057482Y0098786D01*
X0057057Y0098361D01*
X0056207Y0098361D01*
X0055781Y0098786D01*
X0055781Y0100488D02*
X0056207Y0100913D01*
X0057057Y0100913D01*
X0057482Y0100488D01*
X0058681Y0100913D02*
X0059957Y0100913D01*
X0060383Y0100488D01*
X0060383Y0100062D01*
X0059957Y0099637D01*
X0058681Y0099637D01*
X0058681Y0098361D02*
X0058681Y0100913D01*
X0059957Y0099637D02*
X0060383Y0099212D01*
X0060383Y0098786D01*
X0059957Y0098361D01*
X0058681Y0098361D01*
X0061581Y0099637D02*
X0063283Y0099637D01*
X0064482Y0100062D02*
X0064907Y0099637D01*
X0065757Y0099637D01*
X0066183Y0099212D01*
X0066183Y0098786D01*
X0065757Y0098361D01*
X0064907Y0098361D01*
X0064482Y0098786D01*
X0064482Y0100062D02*
X0064482Y0100488D01*
X0064907Y0100913D01*
X0065757Y0100913D01*
X0066183Y0100488D01*
X0067382Y0100913D02*
X0067382Y0098361D01*
X0069083Y0098361D01*
X0070282Y0098361D02*
X0070282Y0100913D01*
X0071558Y0100913D01*
X0071983Y0100488D01*
X0071983Y0099637D01*
X0071558Y0099212D01*
X0070282Y0099212D01*
X0071132Y0099212D02*
X0071983Y0098361D01*
X0073182Y0098361D02*
X0074032Y0098361D01*
X0073607Y0098361D02*
X0073607Y0100913D01*
X0073182Y0100913D02*
X0074032Y0100913D01*
X0075115Y0100062D02*
X0075115Y0098361D01*
X0075115Y0099637D02*
X0076816Y0099637D01*
X0076816Y0100062D02*
X0076816Y0098361D01*
X0078015Y0098361D02*
X0079717Y0098361D01*
X0078015Y0098361D02*
X0078015Y0100913D01*
X0076816Y0100062D02*
X0075966Y0100913D01*
X0075115Y0100062D01*
X0069083Y0100913D02*
X0067382Y0100913D01*
X0067382Y0099637D02*
X0068232Y0099637D01*
X0052881Y0098786D02*
X0052881Y0100913D01*
X0095559Y0111550D02*
X0095559Y0114102D01*
X0096835Y0114102D01*
X0097260Y0113676D01*
X0097260Y0112826D01*
X0096835Y0112401D01*
X0095559Y0112401D01*
X0096409Y0112401D02*
X0097260Y0111550D01*
X0098459Y0111550D02*
X0098459Y0113251D01*
X0099309Y0114102D01*
X0100160Y0113251D01*
X0100160Y0111550D01*
X0101359Y0111550D02*
X0101359Y0114102D01*
X0102210Y0113251D01*
X0103060Y0114102D01*
X0103060Y0111550D01*
X0100160Y0112826D02*
X0098459Y0112826D01*
X0124535Y0158991D02*
X0124535Y0161543D01*
X0126236Y0161543D01*
X0127435Y0161543D02*
X0128711Y0161543D01*
X0129136Y0161117D01*
X0129136Y0160267D01*
X0128711Y0159842D01*
X0127435Y0159842D01*
X0127435Y0158991D02*
X0127435Y0161543D01*
X0125385Y0160267D02*
X0124535Y0160267D01*
X0130335Y0161117D02*
X0130335Y0159416D01*
X0130760Y0158991D01*
X0131611Y0158991D01*
X0132036Y0159416D01*
X0132036Y0160267D01*
X0131185Y0160267D01*
X0130335Y0161117D02*
X0130760Y0161543D01*
X0131611Y0161543D01*
X0132036Y0161117D01*
X0133235Y0160692D02*
X0134086Y0161543D01*
X0134936Y0160692D01*
X0134936Y0158991D01*
X0134936Y0160267D02*
X0133235Y0160267D01*
X0133235Y0160692D02*
X0133235Y0158991D01*
X0119604Y0180711D02*
X0117052Y0180711D01*
X0117052Y0181987D01*
X0117477Y0182412D01*
X0118328Y0182412D01*
X0118753Y0181987D01*
X0118753Y0180711D01*
X0118753Y0181561D02*
X0119604Y0182412D01*
X0119604Y0183611D02*
X0119604Y0185312D01*
X0119179Y0186511D02*
X0119604Y0186936D01*
X0119604Y0187787D01*
X0119179Y0188212D01*
X0118328Y0188212D01*
X0118328Y0187362D01*
X0117477Y0188212D02*
X0117052Y0187787D01*
X0117052Y0186936D01*
X0117477Y0186511D01*
X0119179Y0186511D01*
X0118328Y0184462D02*
X0118328Y0183611D01*
X0117052Y0183611D02*
X0119604Y0183611D01*
X0117052Y0183611D02*
X0117052Y0185312D01*
X0117903Y0189411D02*
X0117052Y0190262D01*
X0119604Y0190262D01*
X0119604Y0191112D02*
X0119604Y0189411D01*
X0119604Y0192311D02*
X0117903Y0194012D01*
X0117477Y0194012D01*
X0117052Y0193587D01*
X0117052Y0192737D01*
X0117477Y0192311D01*
X0119604Y0192311D02*
X0119604Y0194012D01*
X0089683Y0193587D02*
X0089683Y0192737D01*
X0089257Y0192311D01*
X0088832Y0192311D01*
X0088407Y0192737D01*
X0088407Y0193587D01*
X0088832Y0194012D01*
X0089257Y0194012D01*
X0089683Y0193587D01*
X0088407Y0193587D02*
X0087981Y0194012D01*
X0087556Y0194012D01*
X0087131Y0193587D01*
X0087131Y0192737D01*
X0087556Y0192311D01*
X0087981Y0192311D01*
X0088407Y0192737D01*
X0089683Y0191112D02*
X0089683Y0189411D01*
X0089683Y0190262D02*
X0087131Y0190262D01*
X0087981Y0189411D01*
X0087556Y0188212D02*
X0087131Y0187787D01*
X0087131Y0186936D01*
X0087556Y0186511D01*
X0089257Y0186511D01*
X0089683Y0186936D01*
X0089683Y0187787D01*
X0089257Y0188212D01*
X0088407Y0188212D01*
X0088407Y0187362D01*
X0089683Y0185312D02*
X0089683Y0183611D01*
X0087131Y0183611D01*
X0087131Y0185312D01*
X0088407Y0184462D02*
X0088407Y0183611D01*
X0088407Y0182412D02*
X0088832Y0181987D01*
X0088832Y0180711D01*
X0088832Y0181561D02*
X0089683Y0182412D01*
X0088407Y0182412D02*
X0087556Y0182412D01*
X0087131Y0181987D01*
X0087131Y0180711D01*
X0089683Y0180711D01*
X0065855Y0180771D02*
X0065430Y0180346D01*
X0065855Y0179920D01*
X0065855Y0179495D01*
X0065430Y0179070D01*
X0064579Y0179070D01*
X0064154Y0179495D01*
X0062955Y0179495D02*
X0062530Y0179070D01*
X0061679Y0179070D01*
X0061254Y0179495D01*
X0060055Y0179495D02*
X0060055Y0180346D01*
X0059205Y0180346D01*
X0060055Y0181196D02*
X0059630Y0181621D01*
X0058779Y0181621D01*
X0058354Y0181196D01*
X0058354Y0179495D01*
X0058779Y0179070D01*
X0059630Y0179070D01*
X0060055Y0179495D01*
X0061254Y0181196D02*
X0061679Y0181621D01*
X0062530Y0181621D01*
X0062955Y0181196D01*
X0062955Y0180771D01*
X0062530Y0180346D01*
X0062955Y0179920D01*
X0062955Y0179495D01*
X0062530Y0180346D02*
X0062105Y0180346D01*
X0064154Y0181196D02*
X0064579Y0181621D01*
X0065430Y0181621D01*
X0065855Y0181196D01*
X0065855Y0180771D01*
X0065430Y0180346D02*
X0065005Y0180346D01*
X0057155Y0181621D02*
X0055454Y0181621D01*
X0055454Y0179070D01*
X0057155Y0179070D01*
X0056304Y0180346D02*
X0055454Y0180346D01*
X0054255Y0180346D02*
X0053830Y0179920D01*
X0052554Y0179920D01*
X0052554Y0179070D02*
X0052554Y0181621D01*
X0053830Y0181621D01*
X0054255Y0181196D01*
X0054255Y0180346D01*
X0053404Y0179920D02*
X0054255Y0179070D01*
X0054382Y0196141D02*
X0054382Y0198692D01*
X0053957Y0198692D02*
X0054808Y0198692D01*
X0055890Y0198267D02*
X0055890Y0196566D01*
X0056316Y0196141D01*
X0057166Y0196141D01*
X0057591Y0196566D01*
X0057591Y0198267D01*
X0057166Y0198692D01*
X0056316Y0198692D01*
X0055890Y0198267D01*
X0054808Y0196141D02*
X0053957Y0196141D01*
X0052758Y0197416D02*
X0052333Y0196991D01*
X0051057Y0196991D01*
X0051057Y0196141D02*
X0051057Y0198692D01*
X0052333Y0198692D01*
X0052758Y0198267D01*
X0052758Y0197416D01*
X0049858Y0197416D02*
X0049858Y0196566D01*
X0049433Y0196141D01*
X0048582Y0196141D01*
X0048157Y0196566D01*
X0048157Y0198267D01*
X0048582Y0198692D01*
X0049433Y0198692D01*
X0049858Y0198267D01*
X0049858Y0197416D02*
X0049007Y0197416D01*
X0189298Y0177259D02*
X0189298Y0175558D01*
X0189724Y0175133D01*
X0190574Y0175133D01*
X0191000Y0175558D01*
X0191000Y0177259D01*
X0190574Y0177684D01*
X0189724Y0177684D01*
X0189298Y0177259D01*
X0192199Y0177259D02*
X0192199Y0176834D01*
X0192624Y0176409D01*
X0193474Y0176409D01*
X0193900Y0175983D01*
X0193900Y0175558D01*
X0193474Y0175133D01*
X0192624Y0175133D01*
X0192199Y0175558D01*
X0192199Y0177259D02*
X0192624Y0177684D01*
X0193474Y0177684D01*
X0193900Y0177259D01*
X0195099Y0177259D02*
X0195099Y0175558D01*
X0195524Y0175133D01*
X0196375Y0175133D01*
X0196800Y0175558D01*
X0197999Y0175133D02*
X0199700Y0175133D01*
X0198849Y0175133D02*
X0198849Y0177684D01*
X0197999Y0176834D01*
X0196800Y0177259D02*
X0196375Y0177684D01*
X0195524Y0177684D01*
X0195099Y0177259D01*
X0200899Y0177259D02*
X0200899Y0175558D01*
X0202600Y0177259D01*
X0202600Y0175558D01*
X0202175Y0175133D01*
X0201324Y0175133D01*
X0200899Y0175558D01*
X0200899Y0177259D02*
X0201324Y0177684D01*
X0202175Y0177684D01*
X0202600Y0177259D01*
X0203799Y0177684D02*
X0203799Y0175133D01*
X0205500Y0175133D02*
X0205500Y0177684D01*
X0204650Y0176834D01*
X0203799Y0177684D01*
X0261700Y0183479D02*
X0261700Y0186031D01*
X0262551Y0185180D01*
X0263402Y0186031D01*
X0263402Y0183479D01*
X0264601Y0183904D02*
X0265026Y0183479D01*
X0265876Y0183479D01*
X0266302Y0183904D01*
X0267501Y0183904D02*
X0267926Y0183479D01*
X0268777Y0183479D01*
X0269202Y0183904D01*
X0269202Y0186031D01*
X0267501Y0186031D02*
X0267501Y0183904D01*
X0266302Y0185606D02*
X0265876Y0186031D01*
X0265026Y0186031D01*
X0264601Y0185606D01*
X0264601Y0183904D01*
X0290691Y0202018D02*
X0291967Y0202018D01*
X0292393Y0202443D01*
X0292393Y0202868D01*
X0291967Y0203294D01*
X0290691Y0203294D01*
X0290691Y0202018D02*
X0290691Y0204570D01*
X0291967Y0204570D01*
X0292393Y0204144D01*
X0292393Y0203719D01*
X0291967Y0203294D01*
X0293591Y0204144D02*
X0293591Y0202443D01*
X0294017Y0202018D01*
X0294867Y0202018D01*
X0295293Y0202443D01*
X0295293Y0204144D01*
X0294867Y0204570D01*
X0294017Y0204570D01*
X0293591Y0204144D01*
X0296492Y0204144D02*
X0296492Y0202443D01*
X0296917Y0202018D01*
X0297767Y0202018D01*
X0298193Y0202443D01*
X0298193Y0204144D01*
X0297767Y0204570D01*
X0296917Y0204570D01*
X0296492Y0204144D01*
X0299392Y0204570D02*
X0301093Y0204570D01*
X0300242Y0204570D02*
X0300242Y0202018D01*
X0319417Y0206660D02*
X0319842Y0206235D01*
X0320692Y0206235D01*
X0321118Y0206660D01*
X0321118Y0208787D01*
X0322317Y0208362D02*
X0322742Y0208787D01*
X0323593Y0208787D01*
X0324018Y0208362D01*
X0323593Y0207511D02*
X0324018Y0207086D01*
X0324018Y0206660D01*
X0323593Y0206235D01*
X0322742Y0206235D01*
X0322317Y0206660D01*
X0322742Y0207511D02*
X0323593Y0207511D01*
X0322742Y0207511D02*
X0322317Y0207936D01*
X0322317Y0208362D01*
X0325217Y0208787D02*
X0325217Y0206235D01*
X0326918Y0206235D01*
X0328117Y0206235D02*
X0328117Y0208787D01*
X0329393Y0208787D01*
X0329818Y0208362D01*
X0329818Y0207511D01*
X0329393Y0207086D01*
X0328117Y0207086D01*
X0328967Y0207086D02*
X0329818Y0206235D01*
X0326918Y0208787D02*
X0325217Y0208787D01*
X0325217Y0207511D02*
X0326067Y0207511D01*
X0319417Y0206660D02*
X0319417Y0208787D01*
X0343039Y0204850D02*
X0343039Y0202298D01*
X0343039Y0203149D02*
X0344314Y0203149D01*
X0344740Y0203574D01*
X0344740Y0204425D01*
X0344314Y0204850D01*
X0343039Y0204850D01*
X0343889Y0203149D02*
X0344740Y0202298D01*
X0345939Y0202723D02*
X0345939Y0204425D01*
X0346364Y0204850D01*
X0347215Y0204850D01*
X0347640Y0204425D01*
X0347640Y0203574D02*
X0346789Y0203574D01*
X0347640Y0203574D02*
X0347640Y0202723D01*
X0347215Y0202298D01*
X0346364Y0202298D01*
X0345939Y0202723D01*
X0348839Y0202298D02*
X0350115Y0202298D01*
X0350540Y0202723D01*
X0350540Y0203149D01*
X0350115Y0203574D01*
X0348839Y0203574D01*
X0350115Y0203574D02*
X0350540Y0203999D01*
X0350540Y0204425D01*
X0350115Y0204850D01*
X0348839Y0204850D01*
X0348839Y0202298D01*
X0349327Y0148944D02*
X0348051Y0148944D01*
X0348051Y0146393D01*
X0349327Y0146393D01*
X0349753Y0146818D01*
X0349753Y0147243D01*
X0349327Y0147668D01*
X0348051Y0147668D01*
X0346852Y0147243D02*
X0346427Y0147668D01*
X0345577Y0147668D01*
X0345151Y0148094D01*
X0345151Y0148519D01*
X0345577Y0148944D01*
X0346427Y0148944D01*
X0346852Y0148519D01*
X0346852Y0147243D02*
X0346852Y0146818D01*
X0346427Y0146393D01*
X0345577Y0146393D01*
X0345151Y0146818D01*
X0343952Y0146818D02*
X0343952Y0148944D01*
X0342251Y0148944D02*
X0342251Y0146818D01*
X0342676Y0146393D01*
X0343527Y0146393D01*
X0343952Y0146818D01*
X0349327Y0147668D02*
X0349753Y0148094D01*
X0349753Y0148519D01*
X0349327Y0148944D01*
D15*
X0300494Y0183002D02*
X0297994Y0180502D01*
X0292994Y0180502D01*
X0290494Y0183002D01*
X0290494Y0188002D01*
X0292994Y0190502D01*
X0290494Y0193002D01*
X0290494Y0198002D01*
X0292994Y0200502D01*
X0297994Y0200502D01*
X0300494Y0198002D01*
X0300494Y0193002D01*
X0297994Y0190502D01*
X0300494Y0188002D01*
X0300494Y0183002D01*
X0247857Y0204341D02*
X0245357Y0201841D01*
X0240357Y0201841D01*
X0237857Y0204341D01*
X0235357Y0201841D01*
X0230357Y0201841D01*
X0227857Y0204341D01*
X0225357Y0201841D01*
X0220357Y0201841D01*
X0217857Y0204341D01*
X0215357Y0201841D01*
X0210357Y0201841D01*
X0207857Y0204341D01*
X0205357Y0201841D01*
X0200357Y0201841D01*
X0197857Y0204341D01*
X0195357Y0201841D01*
X0190357Y0201841D01*
X0187857Y0204341D01*
X0185357Y0201841D01*
X0180357Y0201841D01*
X0177857Y0204341D01*
X0177857Y0219341D01*
X0180357Y0221841D01*
X0185357Y0221841D01*
X0187857Y0219341D01*
X0187857Y0204341D01*
X0197857Y0204341D02*
X0197857Y0219341D01*
X0200357Y0221841D01*
X0205357Y0221841D01*
X0207857Y0219341D01*
X0207857Y0204341D01*
X0217857Y0204341D02*
X0217857Y0219341D01*
X0220357Y0221841D01*
X0225357Y0221841D01*
X0227857Y0219341D01*
X0227857Y0204341D01*
X0237857Y0204341D02*
X0237857Y0219341D01*
X0235357Y0221841D01*
X0230357Y0221841D01*
X0227857Y0219341D01*
X0217857Y0219341D02*
X0215357Y0221841D01*
X0210357Y0221841D01*
X0207857Y0219341D01*
X0197857Y0219341D02*
X0195357Y0221841D01*
X0190357Y0221841D01*
X0187857Y0219341D01*
X0177857Y0219341D02*
X0175357Y0221841D01*
X0170357Y0221841D01*
X0167857Y0219341D01*
X0167857Y0204341D01*
X0165357Y0201841D01*
X0160357Y0201841D01*
X0157857Y0204341D01*
X0157857Y0219341D01*
X0160357Y0221841D01*
X0165357Y0221841D01*
X0167857Y0219341D01*
X0157857Y0219341D02*
X0155357Y0221841D01*
X0150357Y0221841D01*
X0147857Y0219341D01*
X0147857Y0204341D01*
X0150357Y0201841D01*
X0155357Y0201841D01*
X0157857Y0204341D01*
X0167857Y0204341D02*
X0170357Y0201841D01*
X0175357Y0201841D01*
X0177857Y0204341D01*
X0147857Y0204341D02*
X0145357Y0201841D01*
X0140357Y0201841D01*
X0137857Y0204341D01*
X0137857Y0219341D01*
X0135357Y0221841D01*
X0130357Y0221841D01*
X0127857Y0219341D01*
X0127857Y0204341D01*
X0130357Y0201841D01*
X0135357Y0201841D01*
X0137857Y0204341D01*
X0127857Y0204341D02*
X0125357Y0201841D01*
X0120357Y0201841D01*
X0117857Y0204341D01*
X0117857Y0219341D01*
X0120357Y0221841D01*
X0125357Y0221841D01*
X0127857Y0219341D01*
X0137857Y0219341D02*
X0140357Y0221841D01*
X0145357Y0221841D01*
X0147857Y0219341D01*
X0117857Y0219341D02*
X0115357Y0221841D01*
X0110357Y0221841D01*
X0107857Y0219341D01*
X0107857Y0204341D01*
X0110357Y0201841D01*
X0115357Y0201841D01*
X0117857Y0204341D01*
X0107857Y0204341D02*
X0105357Y0201841D01*
X0100357Y0201841D01*
X0097857Y0204341D01*
X0097857Y0219341D01*
X0095357Y0221841D01*
X0090357Y0221841D01*
X0087857Y0219341D01*
X0087857Y0204341D01*
X0090357Y0201841D01*
X0095357Y0201841D01*
X0097857Y0204341D01*
X0087857Y0204341D02*
X0085357Y0201841D01*
X0080357Y0201841D01*
X0077857Y0204341D01*
X0077857Y0219341D01*
X0080357Y0221841D01*
X0085357Y0221841D01*
X0087857Y0219341D01*
X0097857Y0219341D02*
X0100357Y0221841D01*
X0105357Y0221841D01*
X0107857Y0219341D01*
X0077857Y0219341D02*
X0075357Y0221841D01*
X0070357Y0221841D01*
X0067857Y0219341D01*
X0067857Y0204341D01*
X0065357Y0201841D01*
X0060357Y0201841D01*
X0057857Y0204341D01*
X0057857Y0219341D01*
X0060357Y0221841D01*
X0065357Y0221841D01*
X0067857Y0219341D01*
X0057857Y0219341D02*
X0055357Y0221841D01*
X0050357Y0221841D01*
X0047857Y0219341D01*
X0047857Y0214341D01*
X0050357Y0211841D01*
X0047857Y0211841D01*
X0047857Y0201841D01*
X0057857Y0201841D01*
X0057857Y0204341D01*
X0067857Y0204341D02*
X0070357Y0201841D01*
X0075357Y0201841D01*
X0077857Y0204341D01*
X0093132Y0186250D02*
X0091557Y0184675D01*
X0091557Y0180344D01*
X0101006Y0180344D02*
X0101006Y0184675D01*
X0099431Y0186250D01*
X0093132Y0186250D01*
X0075809Y0179951D02*
X0074235Y0181526D01*
X0067935Y0181526D01*
X0066361Y0179951D01*
X0066361Y0175620D01*
X0066361Y0167746D02*
X0066361Y0161841D01*
X0075809Y0161841D01*
X0075809Y0167746D01*
X0075809Y0175620D02*
X0075809Y0179951D01*
X0091557Y0172470D02*
X0091557Y0166565D01*
X0101006Y0166565D01*
X0101006Y0172470D01*
X0069313Y0155730D02*
X0069313Y0131730D01*
X0057313Y0119730D01*
X0027313Y0119730D01*
X0028369Y0115384D02*
X0028369Y0109872D01*
X0033487Y0109872D01*
X0033487Y0115384D01*
X0033487Y0109872D02*
X0033487Y0108297D01*
X0028369Y0108297D02*
X0028369Y0109872D01*
X0051794Y0107510D02*
X0051794Y0116959D01*
X0057699Y0116959D01*
X0065573Y0116959D02*
X0069904Y0116959D01*
X0071479Y0115384D01*
X0071479Y0109085D01*
X0069904Y0107510D01*
X0065573Y0107510D01*
X0057699Y0107510D02*
X0051794Y0107510D01*
X0040278Y0088888D02*
X0035278Y0088888D01*
X0032778Y0086388D01*
X0030278Y0088888D01*
X0025278Y0088888D01*
X0022778Y0086388D01*
X0022778Y0081388D01*
X0025278Y0078888D01*
X0030278Y0078888D01*
X0032778Y0081388D01*
X0035278Y0078888D01*
X0040278Y0078888D01*
X0042778Y0081388D01*
X0042778Y0086388D01*
X0040278Y0088888D01*
X0027313Y0119730D02*
X0027157Y0119792D01*
X0027002Y0119859D01*
X0026849Y0119928D01*
X0026697Y0120002D01*
X0026548Y0120079D01*
X0026400Y0120160D01*
X0026254Y0120244D01*
X0026111Y0120332D01*
X0025969Y0120423D01*
X0025830Y0120517D01*
X0025693Y0120615D01*
X0025559Y0120716D01*
X0025427Y0120821D01*
X0025297Y0120928D01*
X0025171Y0121039D01*
X0025047Y0121153D01*
X0024925Y0121269D01*
X0024807Y0121389D01*
X0024691Y0121511D01*
X0024579Y0121636D01*
X0024469Y0121764D01*
X0024363Y0121895D01*
X0024260Y0122028D01*
X0024160Y0122163D01*
X0024063Y0122301D01*
X0023970Y0122441D01*
X0023880Y0122583D01*
X0023794Y0122728D01*
X0023711Y0122874D01*
X0023632Y0123023D01*
X0023556Y0123173D01*
X0023484Y0123325D01*
X0023416Y0123479D01*
X0023351Y0123634D01*
X0023290Y0123791D01*
X0023233Y0123949D01*
X0023180Y0124109D01*
X0023131Y0124270D01*
X0023085Y0124432D01*
X0023044Y0124595D01*
X0023006Y0124759D01*
X0022973Y0124924D01*
X0022943Y0125090D01*
X0022917Y0125256D01*
X0022896Y0125423D01*
X0022878Y0125590D01*
X0022865Y0125758D01*
X0022856Y0125926D01*
X0022850Y0126094D01*
X0022849Y0126263D01*
X0022852Y0126431D01*
X0022859Y0126599D01*
X0022870Y0126767D01*
X0022885Y0126935D01*
X0022904Y0127102D01*
X0022927Y0127268D01*
X0022954Y0127435D01*
X0022985Y0127600D01*
X0023020Y0127765D01*
X0023059Y0127928D01*
X0023102Y0128091D01*
X0023149Y0128253D01*
X0023200Y0128413D01*
X0023255Y0128572D01*
X0023313Y0128730D01*
X0023671Y0129097D01*
X0024020Y0129472D01*
X0024360Y0129856D01*
X0024691Y0130248D01*
X0025012Y0130648D01*
X0025323Y0131055D01*
X0025624Y0131470D01*
X0025915Y0131891D01*
X0026196Y0132320D01*
X0026467Y0132756D01*
X0026727Y0133198D01*
X0026976Y0133646D01*
X0027214Y0134099D01*
X0027441Y0134559D01*
X0027657Y0135024D01*
X0027862Y0135494D01*
X0028055Y0135969D01*
X0028237Y0136448D01*
X0028407Y0136932D01*
X0028565Y0137419D01*
X0028712Y0137910D01*
X0028847Y0138405D01*
X0028969Y0138903D01*
X0029080Y0139403D01*
X0029179Y0139906D01*
X0029265Y0140412D01*
X0029339Y0140919D01*
X0029401Y0141428D01*
X0029450Y0141938D01*
X0029487Y0142449D01*
X0029512Y0142961D01*
X0029524Y0143474D01*
X0029524Y0143986D01*
X0029512Y0144499D01*
X0029487Y0145011D01*
X0029450Y0145522D01*
X0029401Y0146032D01*
X0029339Y0146541D01*
X0029265Y0147048D01*
X0029179Y0147554D01*
X0029080Y0148057D01*
X0028969Y0148557D01*
X0028847Y0149055D01*
X0028712Y0149550D01*
X0028565Y0150041D01*
X0028407Y0150528D01*
X0028237Y0151012D01*
X0028055Y0151491D01*
X0027862Y0151966D01*
X0027657Y0152436D01*
X0027441Y0152901D01*
X0027214Y0153361D01*
X0026976Y0153814D01*
X0026727Y0154262D01*
X0026467Y0154704D01*
X0026196Y0155140D01*
X0025915Y0155569D01*
X0025624Y0155990D01*
X0025323Y0156405D01*
X0025012Y0156812D01*
X0024691Y0157212D01*
X0024360Y0157604D01*
X0024020Y0157988D01*
X0023671Y0158363D01*
X0023313Y0158730D01*
X0023255Y0158888D01*
X0023200Y0159047D01*
X0023149Y0159207D01*
X0023102Y0159369D01*
X0023059Y0159532D01*
X0023020Y0159695D01*
X0022985Y0159860D01*
X0022954Y0160025D01*
X0022927Y0160192D01*
X0022904Y0160358D01*
X0022885Y0160525D01*
X0022870Y0160693D01*
X0022859Y0160861D01*
X0022852Y0161029D01*
X0022849Y0161197D01*
X0022850Y0161366D01*
X0022856Y0161534D01*
X0022865Y0161702D01*
X0022878Y0161870D01*
X0022896Y0162037D01*
X0022917Y0162204D01*
X0022943Y0162370D01*
X0022973Y0162536D01*
X0023006Y0162701D01*
X0023044Y0162865D01*
X0023085Y0163028D01*
X0023131Y0163190D01*
X0023180Y0163351D01*
X0023233Y0163511D01*
X0023290Y0163669D01*
X0023351Y0163826D01*
X0023416Y0163981D01*
X0023484Y0164135D01*
X0023556Y0164287D01*
X0023632Y0164437D01*
X0023711Y0164586D01*
X0023794Y0164732D01*
X0023880Y0164877D01*
X0023970Y0165019D01*
X0024063Y0165159D01*
X0024160Y0165297D01*
X0024260Y0165432D01*
X0024363Y0165565D01*
X0024469Y0165696D01*
X0024579Y0165824D01*
X0024691Y0165949D01*
X0024807Y0166071D01*
X0024925Y0166191D01*
X0025047Y0166307D01*
X0025171Y0166421D01*
X0025297Y0166532D01*
X0025427Y0166639D01*
X0025559Y0166744D01*
X0025693Y0166845D01*
X0025830Y0166943D01*
X0025969Y0167037D01*
X0026111Y0167128D01*
X0026254Y0167216D01*
X0026400Y0167300D01*
X0026548Y0167381D01*
X0026697Y0167458D01*
X0026849Y0167532D01*
X0027002Y0167601D01*
X0027157Y0167668D01*
X0027313Y0167730D01*
X0057313Y0167730D01*
X0069313Y0155730D01*
X0046676Y0181526D02*
X0037227Y0181526D01*
X0037227Y0187431D01*
X0046676Y0187431D02*
X0046676Y0181526D01*
X0046676Y0195305D02*
X0046676Y0199636D01*
X0045101Y0201211D01*
X0038802Y0201211D01*
X0037227Y0199636D01*
X0037227Y0195305D01*
X0025652Y0181014D02*
X0023841Y0181014D01*
X0024761Y0179793D01*
X0023841Y0181014D02*
X0022030Y0181014D01*
X0022981Y0179793D02*
X0023741Y0180953D01*
X0197758Y0072766D02*
X0197758Y0066467D01*
X0199333Y0064892D01*
X0203664Y0064892D01*
X0203664Y0062037D02*
X0199333Y0062037D01*
X0197758Y0060463D01*
X0197758Y0054163D01*
X0199333Y0052589D01*
X0203664Y0052589D01*
X0211538Y0052589D02*
X0217443Y0052589D01*
X0217443Y0062037D01*
X0211538Y0062037D01*
X0211538Y0064892D02*
X0217443Y0064892D01*
X0217443Y0074341D01*
X0211538Y0074341D01*
X0203664Y0074341D02*
X0199333Y0074341D01*
X0197758Y0072766D01*
X0123054Y0053179D02*
X0123054Y0048455D01*
X0117935Y0040974D02*
X0115573Y0040974D01*
X0110455Y0048455D02*
X0110455Y0053179D01*
X0115573Y0060659D02*
X0117935Y0060659D01*
X0247857Y0204341D02*
X0247857Y0209341D01*
X0245357Y0211841D01*
X0247857Y0214341D01*
X0247857Y0219341D01*
X0245357Y0221841D01*
X0240357Y0221841D01*
X0237857Y0219341D01*
D16*
X0191164Y0156722D02*
X0124235Y0156722D01*
X0124235Y0089793D01*
X0191164Y0089793D01*
X0191164Y0156722D01*
X0218723Y0070108D02*
X0218723Y0036250D01*
X0242345Y0028376D02*
X0242345Y0052392D01*
X0242345Y0066565D02*
X0242345Y0070108D01*
X0235002Y0070108D01*
X0220259Y0070108D02*
X0218723Y0070108D01*
X0218723Y0013022D02*
X0218723Y0009085D01*
X0238014Y0009085D01*
D17*
X0038093Y0062234D02*
X0038095Y0062269D01*
X0038101Y0062304D01*
X0038111Y0062338D01*
X0038124Y0062371D01*
X0038141Y0062402D01*
X0038162Y0062430D01*
X0038185Y0062457D01*
X0038212Y0062480D01*
X0038240Y0062501D01*
X0038271Y0062518D01*
X0038304Y0062531D01*
X0038338Y0062541D01*
X0038373Y0062547D01*
X0038408Y0062549D01*
X0038443Y0062547D01*
X0038478Y0062541D01*
X0038512Y0062531D01*
X0038545Y0062518D01*
X0038576Y0062501D01*
X0038604Y0062480D01*
X0038631Y0062457D01*
X0038654Y0062430D01*
X0038675Y0062402D01*
X0038692Y0062371D01*
X0038705Y0062338D01*
X0038715Y0062304D01*
X0038721Y0062269D01*
X0038723Y0062234D01*
X0038721Y0062199D01*
X0038715Y0062164D01*
X0038705Y0062130D01*
X0038692Y0062097D01*
X0038675Y0062066D01*
X0038654Y0062038D01*
X0038631Y0062011D01*
X0038604Y0061988D01*
X0038576Y0061967D01*
X0038545Y0061950D01*
X0038512Y0061937D01*
X0038478Y0061927D01*
X0038443Y0061921D01*
X0038408Y0061919D01*
X0038373Y0061921D01*
X0038338Y0061927D01*
X0038304Y0061937D01*
X0038271Y0061950D01*
X0038240Y0061967D01*
X0038212Y0061988D01*
X0038185Y0062011D01*
X0038162Y0062038D01*
X0038141Y0062066D01*
X0038124Y0062097D01*
X0038111Y0062130D01*
X0038101Y0062164D01*
X0038095Y0062199D01*
X0038093Y0062234D01*
X0067620Y0182313D02*
X0067622Y0182348D01*
X0067628Y0182383D01*
X0067638Y0182417D01*
X0067651Y0182450D01*
X0067668Y0182481D01*
X0067689Y0182509D01*
X0067712Y0182536D01*
X0067739Y0182559D01*
X0067767Y0182580D01*
X0067798Y0182597D01*
X0067831Y0182610D01*
X0067865Y0182620D01*
X0067900Y0182626D01*
X0067935Y0182628D01*
X0067970Y0182626D01*
X0068005Y0182620D01*
X0068039Y0182610D01*
X0068072Y0182597D01*
X0068103Y0182580D01*
X0068131Y0182559D01*
X0068158Y0182536D01*
X0068181Y0182509D01*
X0068202Y0182481D01*
X0068219Y0182450D01*
X0068232Y0182417D01*
X0068242Y0182383D01*
X0068248Y0182348D01*
X0068250Y0182313D01*
X0068248Y0182278D01*
X0068242Y0182243D01*
X0068232Y0182209D01*
X0068219Y0182176D01*
X0068202Y0182145D01*
X0068181Y0182117D01*
X0068158Y0182090D01*
X0068131Y0182067D01*
X0068103Y0182046D01*
X0068072Y0182029D01*
X0068039Y0182016D01*
X0068005Y0182006D01*
X0067970Y0182000D01*
X0067935Y0181998D01*
X0067900Y0182000D01*
X0067865Y0182006D01*
X0067831Y0182016D01*
X0067798Y0182029D01*
X0067767Y0182046D01*
X0067739Y0182067D01*
X0067712Y0182090D01*
X0067689Y0182117D01*
X0067668Y0182145D01*
X0067651Y0182176D01*
X0067638Y0182209D01*
X0067628Y0182243D01*
X0067622Y0182278D01*
X0067620Y0182313D01*
X0086124Y0196093D02*
X0086126Y0196128D01*
X0086132Y0196163D01*
X0086142Y0196197D01*
X0086155Y0196230D01*
X0086172Y0196261D01*
X0086193Y0196289D01*
X0086216Y0196316D01*
X0086243Y0196339D01*
X0086271Y0196360D01*
X0086302Y0196377D01*
X0086335Y0196390D01*
X0086369Y0196400D01*
X0086404Y0196406D01*
X0086439Y0196408D01*
X0086474Y0196406D01*
X0086509Y0196400D01*
X0086543Y0196390D01*
X0086576Y0196377D01*
X0086607Y0196360D01*
X0086635Y0196339D01*
X0086662Y0196316D01*
X0086685Y0196289D01*
X0086706Y0196261D01*
X0086723Y0196230D01*
X0086736Y0196197D01*
X0086746Y0196163D01*
X0086752Y0196128D01*
X0086754Y0196093D01*
X0086752Y0196058D01*
X0086746Y0196023D01*
X0086736Y0195989D01*
X0086723Y0195956D01*
X0086706Y0195925D01*
X0086685Y0195897D01*
X0086662Y0195870D01*
X0086635Y0195847D01*
X0086607Y0195826D01*
X0086576Y0195809D01*
X0086543Y0195796D01*
X0086509Y0195786D01*
X0086474Y0195780D01*
X0086439Y0195778D01*
X0086404Y0195780D01*
X0086369Y0195786D01*
X0086335Y0195796D01*
X0086302Y0195809D01*
X0086271Y0195826D01*
X0086243Y0195847D01*
X0086216Y0195870D01*
X0086193Y0195897D01*
X0086172Y0195925D01*
X0086155Y0195956D01*
X0086142Y0195989D01*
X0086132Y0196023D01*
X0086126Y0196058D01*
X0086124Y0196093D01*
X0116046Y0196093D02*
X0116048Y0196128D01*
X0116054Y0196163D01*
X0116064Y0196197D01*
X0116077Y0196230D01*
X0116094Y0196261D01*
X0116115Y0196289D01*
X0116138Y0196316D01*
X0116165Y0196339D01*
X0116193Y0196360D01*
X0116224Y0196377D01*
X0116257Y0196390D01*
X0116291Y0196400D01*
X0116326Y0196406D01*
X0116361Y0196408D01*
X0116396Y0196406D01*
X0116431Y0196400D01*
X0116465Y0196390D01*
X0116498Y0196377D01*
X0116529Y0196360D01*
X0116557Y0196339D01*
X0116584Y0196316D01*
X0116607Y0196289D01*
X0116628Y0196261D01*
X0116645Y0196230D01*
X0116658Y0196197D01*
X0116668Y0196163D01*
X0116674Y0196128D01*
X0116676Y0196093D01*
X0116674Y0196058D01*
X0116668Y0196023D01*
X0116658Y0195989D01*
X0116645Y0195956D01*
X0116628Y0195925D01*
X0116607Y0195897D01*
X0116584Y0195870D01*
X0116557Y0195847D01*
X0116529Y0195826D01*
X0116498Y0195809D01*
X0116465Y0195796D01*
X0116431Y0195786D01*
X0116396Y0195780D01*
X0116361Y0195778D01*
X0116326Y0195780D01*
X0116291Y0195786D01*
X0116257Y0195796D01*
X0116224Y0195809D01*
X0116193Y0195826D01*
X0116165Y0195847D01*
X0116138Y0195870D01*
X0116115Y0195897D01*
X0116094Y0195925D01*
X0116077Y0195956D01*
X0116064Y0195989D01*
X0116054Y0196023D01*
X0116048Y0196058D01*
X0116046Y0196093D01*
X0189195Y0200226D02*
X0189197Y0200265D01*
X0189203Y0200304D01*
X0189213Y0200342D01*
X0189226Y0200379D01*
X0189243Y0200414D01*
X0189263Y0200448D01*
X0189287Y0200479D01*
X0189314Y0200508D01*
X0189343Y0200534D01*
X0189375Y0200557D01*
X0189409Y0200577D01*
X0189445Y0200593D01*
X0189482Y0200605D01*
X0189521Y0200614D01*
X0189560Y0200619D01*
X0189599Y0200620D01*
X0189638Y0200617D01*
X0189677Y0200610D01*
X0189714Y0200599D01*
X0189751Y0200585D01*
X0189786Y0200567D01*
X0189819Y0200546D01*
X0189850Y0200521D01*
X0189878Y0200494D01*
X0189903Y0200464D01*
X0189925Y0200431D01*
X0189944Y0200397D01*
X0189959Y0200361D01*
X0189971Y0200323D01*
X0189979Y0200285D01*
X0189983Y0200246D01*
X0189983Y0200206D01*
X0189979Y0200167D01*
X0189971Y0200129D01*
X0189959Y0200091D01*
X0189944Y0200055D01*
X0189925Y0200021D01*
X0189903Y0199988D01*
X0189878Y0199958D01*
X0189850Y0199931D01*
X0189819Y0199906D01*
X0189786Y0199885D01*
X0189751Y0199867D01*
X0189714Y0199853D01*
X0189677Y0199842D01*
X0189638Y0199835D01*
X0189599Y0199832D01*
X0189560Y0199833D01*
X0189521Y0199838D01*
X0189482Y0199847D01*
X0189445Y0199859D01*
X0189409Y0199875D01*
X0189375Y0199895D01*
X0189343Y0199918D01*
X0189314Y0199944D01*
X0189287Y0199973D01*
X0189263Y0200004D01*
X0189243Y0200038D01*
X0189226Y0200073D01*
X0189213Y0200110D01*
X0189203Y0200148D01*
X0189197Y0200187D01*
X0189195Y0200226D01*
D18*
X0182352Y0187928D02*
X0182602Y0187678D01*
X0182602Y0187178D01*
X0182352Y0186928D01*
X0182352Y0186455D02*
X0182602Y0186205D01*
X0182602Y0185705D01*
X0182352Y0185454D01*
X0182352Y0184982D02*
X0182602Y0184732D01*
X0182602Y0184231D01*
X0182352Y0183981D01*
X0181351Y0183981D01*
X0181101Y0184231D01*
X0181101Y0184732D01*
X0181351Y0184982D01*
X0181351Y0185454D02*
X0181101Y0185705D01*
X0181101Y0186205D01*
X0181351Y0186455D01*
X0181601Y0186455D01*
X0181851Y0186205D01*
X0182102Y0186455D01*
X0182352Y0186455D01*
X0181851Y0186205D02*
X0181851Y0185955D01*
X0181351Y0186928D02*
X0181101Y0187178D01*
X0181101Y0187678D01*
X0181351Y0187928D01*
X0181601Y0187928D01*
X0181851Y0187678D01*
X0182102Y0187928D01*
X0182352Y0187928D01*
X0181851Y0187678D02*
X0181851Y0187428D01*
X0196375Y0172691D02*
X0197126Y0172691D01*
X0197376Y0172441D01*
X0197376Y0171940D01*
X0197126Y0171690D01*
X0196375Y0171690D01*
X0196375Y0171190D02*
X0196375Y0172691D01*
X0196876Y0171690D02*
X0197376Y0171190D01*
X0197848Y0171190D02*
X0198849Y0171190D01*
X0198349Y0171190D02*
X0198349Y0172691D01*
X0197848Y0172191D01*
X0199322Y0171940D02*
X0200072Y0172691D01*
X0200072Y0171190D01*
X0200323Y0171940D02*
X0199322Y0171940D01*
X0212735Y0176188D02*
X0212735Y0177689D01*
X0213486Y0177689D01*
X0213736Y0177439D01*
X0213736Y0176939D01*
X0213486Y0176689D01*
X0212735Y0176689D01*
X0213235Y0176689D02*
X0213736Y0176188D01*
X0214208Y0176188D02*
X0215209Y0177189D01*
X0215209Y0177439D01*
X0214959Y0177689D01*
X0214458Y0177689D01*
X0214208Y0177439D01*
X0214208Y0176188D02*
X0215209Y0176188D01*
X0215681Y0176188D02*
X0216682Y0177189D01*
X0216682Y0177439D01*
X0216432Y0177689D01*
X0215932Y0177689D01*
X0215681Y0177439D01*
X0215681Y0176188D02*
X0216682Y0176188D01*
X0243425Y0192028D02*
X0243675Y0191778D01*
X0244676Y0191778D01*
X0244926Y0192028D01*
X0244926Y0192529D01*
X0244676Y0192779D01*
X0244676Y0193251D02*
X0244926Y0193501D01*
X0244926Y0194002D01*
X0244676Y0194252D01*
X0244176Y0194252D01*
X0243926Y0194002D01*
X0243926Y0193752D01*
X0244176Y0193251D01*
X0243425Y0193251D01*
X0243425Y0194252D01*
X0243675Y0194724D02*
X0243926Y0194724D01*
X0244176Y0194975D01*
X0244176Y0195475D01*
X0244426Y0195725D01*
X0244676Y0195725D01*
X0244926Y0195475D01*
X0244926Y0194975D01*
X0244676Y0194724D01*
X0244426Y0194724D01*
X0244176Y0194975D01*
X0244176Y0195475D02*
X0243926Y0195725D01*
X0243675Y0195725D01*
X0243425Y0195475D01*
X0243425Y0194975D01*
X0243675Y0194724D01*
X0243675Y0192779D02*
X0243425Y0192529D01*
X0243425Y0192028D01*
X0251791Y0191930D02*
X0252041Y0191679D01*
X0253042Y0191679D01*
X0253293Y0191930D01*
X0253293Y0192430D01*
X0253042Y0192680D01*
X0253042Y0193153D02*
X0253293Y0193403D01*
X0253293Y0193903D01*
X0253042Y0194154D01*
X0252542Y0194154D01*
X0252292Y0193903D01*
X0252292Y0193653D01*
X0252542Y0193153D01*
X0251791Y0193153D01*
X0251791Y0194154D01*
X0252041Y0194626D02*
X0252292Y0194626D01*
X0252542Y0194876D01*
X0252542Y0195627D01*
X0253042Y0195627D02*
X0252041Y0195627D01*
X0251791Y0195377D01*
X0251791Y0194876D01*
X0252041Y0194626D01*
X0253042Y0194626D02*
X0253293Y0194876D01*
X0253293Y0195377D01*
X0253042Y0195627D01*
X0252041Y0192680D02*
X0251791Y0192430D01*
X0251791Y0191930D01*
X0256218Y0192450D02*
X0256218Y0193951D01*
X0256968Y0193951D01*
X0257219Y0193701D01*
X0257219Y0193200D01*
X0256968Y0192950D01*
X0256218Y0192950D01*
X0256718Y0192950D02*
X0257219Y0192450D01*
X0257691Y0192700D02*
X0257941Y0192450D01*
X0258442Y0192450D01*
X0258692Y0192700D01*
X0258692Y0192950D01*
X0258442Y0193200D01*
X0258191Y0193200D01*
X0258442Y0193200D02*
X0258692Y0193450D01*
X0258692Y0193701D01*
X0258442Y0193951D01*
X0257941Y0193951D01*
X0257691Y0193701D01*
X0259164Y0193701D02*
X0259414Y0193951D01*
X0259915Y0193951D01*
X0260165Y0193701D01*
X0259164Y0192700D01*
X0259414Y0192450D01*
X0259915Y0192450D01*
X0260165Y0192700D01*
X0260165Y0193701D01*
X0259164Y0193701D02*
X0259164Y0192700D01*
X0273934Y0192306D02*
X0274184Y0192056D01*
X0274685Y0192056D01*
X0274935Y0192306D01*
X0275408Y0192056D02*
X0276408Y0193057D01*
X0276408Y0193307D01*
X0276158Y0193557D01*
X0275658Y0193557D01*
X0275408Y0193307D01*
X0274935Y0193307D02*
X0274685Y0193557D01*
X0274184Y0193557D01*
X0273934Y0193307D01*
X0273934Y0192306D01*
X0275408Y0192056D02*
X0276408Y0192056D01*
X0276881Y0192807D02*
X0277882Y0192807D01*
X0277631Y0193557D02*
X0277631Y0192056D01*
X0276881Y0192807D02*
X0277631Y0193557D01*
X0277882Y0200324D02*
X0276881Y0200324D01*
X0277882Y0201324D01*
X0277882Y0201575D01*
X0277631Y0201825D01*
X0277131Y0201825D01*
X0276881Y0201575D01*
X0276408Y0201825D02*
X0275408Y0201825D01*
X0275408Y0201074D01*
X0275908Y0201324D01*
X0276158Y0201324D01*
X0276408Y0201074D01*
X0276408Y0200574D01*
X0276158Y0200324D01*
X0275658Y0200324D01*
X0275408Y0200574D01*
X0274935Y0200574D02*
X0274685Y0200324D01*
X0274184Y0200324D01*
X0273934Y0200574D01*
X0273934Y0201575D01*
X0274184Y0201825D01*
X0274685Y0201825D01*
X0274935Y0201575D01*
X0274685Y0185289D02*
X0274184Y0185289D01*
X0273934Y0185039D01*
X0273934Y0184038D01*
X0274184Y0183788D01*
X0274685Y0183788D01*
X0274935Y0184038D01*
X0275408Y0183788D02*
X0276408Y0184789D01*
X0276408Y0185039D01*
X0276158Y0185289D01*
X0275658Y0185289D01*
X0275408Y0185039D01*
X0274935Y0185039D02*
X0274685Y0185289D01*
X0275408Y0183788D02*
X0276408Y0183788D01*
X0276881Y0184038D02*
X0276881Y0184289D01*
X0277131Y0184539D01*
X0277631Y0184539D01*
X0277882Y0184289D01*
X0277882Y0184038D01*
X0277631Y0183788D01*
X0277131Y0183788D01*
X0276881Y0184038D01*
X0277131Y0184539D02*
X0276881Y0184789D01*
X0276881Y0185039D01*
X0277131Y0185289D01*
X0277631Y0185289D01*
X0277882Y0185039D01*
X0277882Y0184789D01*
X0277631Y0184539D01*
X0298266Y0172768D02*
X0298266Y0171267D01*
X0298266Y0171767D02*
X0299017Y0171767D01*
X0299267Y0172018D01*
X0299267Y0172518D01*
X0299017Y0172768D01*
X0298266Y0172768D01*
X0298767Y0171767D02*
X0299267Y0171267D01*
X0299740Y0171517D02*
X0299990Y0171267D01*
X0300490Y0171267D01*
X0300741Y0171517D01*
X0300741Y0171767D01*
X0300490Y0172018D01*
X0300240Y0172018D01*
X0300490Y0172018D02*
X0300741Y0172268D01*
X0300741Y0172518D01*
X0300490Y0172768D01*
X0299990Y0172768D01*
X0299740Y0172518D01*
X0301213Y0172768D02*
X0301213Y0172018D01*
X0301713Y0172268D01*
X0301964Y0172268D01*
X0302214Y0172018D01*
X0302214Y0171517D01*
X0301964Y0171267D01*
X0301463Y0171267D01*
X0301213Y0171517D01*
X0301213Y0172768D02*
X0302214Y0172768D01*
X0324626Y0172595D02*
X0324626Y0171594D01*
X0324876Y0171122D02*
X0324626Y0170872D01*
X0324626Y0170371D01*
X0324876Y0170121D01*
X0324876Y0169649D02*
X0325377Y0169649D01*
X0325627Y0169399D01*
X0325627Y0168648D01*
X0326127Y0168648D02*
X0324626Y0168648D01*
X0324626Y0169399D01*
X0324876Y0169649D01*
X0325627Y0169148D02*
X0326127Y0169649D01*
X0326127Y0170121D02*
X0325126Y0171122D01*
X0324876Y0171122D01*
X0325877Y0171594D02*
X0326127Y0171594D01*
X0325877Y0171594D02*
X0324876Y0172595D01*
X0324626Y0172595D01*
X0326127Y0171122D02*
X0326127Y0170121D01*
X0332992Y0170371D02*
X0333242Y0170121D01*
X0332992Y0170371D02*
X0332992Y0170872D01*
X0333242Y0171122D01*
X0333492Y0171122D01*
X0334493Y0170121D01*
X0334493Y0171122D01*
X0334243Y0171594D02*
X0334493Y0171845D01*
X0334493Y0172345D01*
X0334243Y0172595D01*
X0333993Y0172595D01*
X0333743Y0172345D01*
X0333743Y0172095D01*
X0333743Y0172345D02*
X0333492Y0172595D01*
X0333242Y0172595D01*
X0332992Y0172345D01*
X0332992Y0171845D01*
X0333242Y0171594D01*
X0333242Y0169649D02*
X0333743Y0169649D01*
X0333993Y0169399D01*
X0333993Y0168648D01*
X0334493Y0168648D02*
X0332992Y0168648D01*
X0332992Y0169399D01*
X0333242Y0169649D01*
X0333993Y0169148D02*
X0334493Y0169649D01*
X0341358Y0169399D02*
X0341608Y0169649D01*
X0342109Y0169649D01*
X0342359Y0169399D01*
X0342359Y0168648D01*
X0342359Y0169148D02*
X0342859Y0169649D01*
X0342859Y0170121D02*
X0341859Y0171122D01*
X0341608Y0171122D01*
X0341358Y0170872D01*
X0341358Y0170371D01*
X0341608Y0170121D01*
X0341358Y0169399D02*
X0341358Y0168648D01*
X0342859Y0168648D01*
X0342859Y0170121D02*
X0342859Y0171122D01*
X0342109Y0171594D02*
X0342109Y0172595D01*
X0342859Y0172345D02*
X0341358Y0172345D01*
X0342109Y0171594D01*
X0349724Y0171594D02*
X0350475Y0171594D01*
X0350225Y0172095D01*
X0350225Y0172345D01*
X0350475Y0172595D01*
X0350975Y0172595D01*
X0351226Y0172345D01*
X0351226Y0171845D01*
X0350975Y0171594D01*
X0351226Y0171122D02*
X0351226Y0170121D01*
X0350225Y0171122D01*
X0349975Y0171122D01*
X0349724Y0170872D01*
X0349724Y0170371D01*
X0349975Y0170121D01*
X0349975Y0169649D02*
X0350475Y0169649D01*
X0350725Y0169399D01*
X0350725Y0168648D01*
X0350725Y0169148D02*
X0351226Y0169649D01*
X0351226Y0168648D02*
X0349724Y0168648D01*
X0349724Y0169399D01*
X0349975Y0169649D01*
X0349724Y0171594D02*
X0349724Y0172595D01*
X0347436Y0151705D02*
X0347686Y0151455D01*
X0347686Y0151205D01*
X0347436Y0150955D01*
X0346936Y0150955D01*
X0346685Y0151205D01*
X0346685Y0151455D01*
X0346936Y0151705D01*
X0347436Y0151705D01*
X0347436Y0150955D02*
X0347686Y0150704D01*
X0347686Y0150454D01*
X0347436Y0150204D01*
X0346936Y0150204D01*
X0346685Y0150454D01*
X0346685Y0150704D01*
X0346936Y0150955D01*
X0346213Y0150204D02*
X0345212Y0150204D01*
X0345713Y0150204D02*
X0345713Y0151705D01*
X0345212Y0151205D01*
X0344740Y0151455D02*
X0344490Y0151705D01*
X0343989Y0151705D01*
X0343739Y0151455D01*
X0343739Y0150454D01*
X0343989Y0150204D01*
X0344490Y0150204D01*
X0344740Y0150454D01*
X0282704Y0122638D02*
X0281704Y0121637D01*
X0281954Y0121387D01*
X0282454Y0121387D01*
X0282704Y0121637D01*
X0282704Y0122638D01*
X0282454Y0122888D01*
X0281954Y0122888D01*
X0281704Y0122638D01*
X0281704Y0121637D01*
X0281231Y0122137D02*
X0280230Y0122137D01*
X0280981Y0122888D01*
X0280981Y0121387D01*
X0279758Y0121387D02*
X0279258Y0121887D01*
X0279508Y0121887D02*
X0278757Y0121887D01*
X0278757Y0121387D02*
X0278757Y0122888D01*
X0279508Y0122888D01*
X0279758Y0122638D01*
X0279758Y0122137D01*
X0279508Y0121887D01*
X0279508Y0114522D02*
X0279758Y0114272D01*
X0279758Y0113771D01*
X0279508Y0113521D01*
X0278757Y0113521D01*
X0279258Y0113521D02*
X0279758Y0113020D01*
X0280230Y0113271D02*
X0280481Y0113020D01*
X0280981Y0113020D01*
X0281231Y0113271D01*
X0281231Y0113521D01*
X0280981Y0113771D01*
X0280731Y0113771D01*
X0280981Y0113771D02*
X0281231Y0114021D01*
X0281231Y0114272D01*
X0280981Y0114522D01*
X0280481Y0114522D01*
X0280230Y0114272D01*
X0279508Y0114522D02*
X0278757Y0114522D01*
X0278757Y0113020D01*
X0281704Y0113271D02*
X0281954Y0113020D01*
X0282454Y0113020D01*
X0282704Y0113271D01*
X0282704Y0114272D01*
X0282454Y0114522D01*
X0281954Y0114522D01*
X0281704Y0114272D01*
X0281704Y0114021D01*
X0281954Y0113771D01*
X0282704Y0113771D01*
X0271800Y0108049D02*
X0271800Y0107799D01*
X0271550Y0107549D01*
X0271800Y0107299D01*
X0271800Y0107049D01*
X0271550Y0106798D01*
X0271050Y0106798D01*
X0270800Y0107049D01*
X0270327Y0106798D02*
X0269326Y0106798D01*
X0269827Y0106798D02*
X0269827Y0108300D01*
X0269326Y0107799D01*
X0268854Y0108049D02*
X0268604Y0108300D01*
X0268103Y0108300D01*
X0267853Y0108049D01*
X0267853Y0107049D01*
X0268103Y0106798D01*
X0268604Y0106798D01*
X0268854Y0107049D01*
X0270800Y0108049D02*
X0271050Y0108300D01*
X0271550Y0108300D01*
X0271800Y0108049D01*
X0271550Y0107549D02*
X0271300Y0107549D01*
X0278757Y0106156D02*
X0279508Y0106156D01*
X0279758Y0105905D01*
X0279758Y0105405D01*
X0279508Y0105155D01*
X0278757Y0105155D01*
X0279258Y0105155D02*
X0279758Y0104654D01*
X0280230Y0104905D02*
X0280481Y0104654D01*
X0280981Y0104654D01*
X0281231Y0104905D01*
X0281231Y0105155D01*
X0280981Y0105405D01*
X0280731Y0105405D01*
X0280981Y0105405D02*
X0281231Y0105655D01*
X0281231Y0105905D01*
X0280981Y0106156D01*
X0280481Y0106156D01*
X0280230Y0105905D01*
X0278757Y0106156D02*
X0278757Y0104654D01*
X0281704Y0104654D02*
X0281704Y0104905D01*
X0282704Y0105905D01*
X0282704Y0106156D01*
X0281704Y0106156D01*
X0281954Y0097789D02*
X0282454Y0097789D01*
X0282704Y0097539D01*
X0282704Y0097289D01*
X0282454Y0097039D01*
X0281954Y0097039D01*
X0281704Y0097289D01*
X0281704Y0097539D01*
X0281954Y0097789D01*
X0281954Y0097039D02*
X0281704Y0096789D01*
X0281704Y0096538D01*
X0281954Y0096288D01*
X0282454Y0096288D01*
X0282704Y0096538D01*
X0282704Y0096789D01*
X0282454Y0097039D01*
X0281231Y0097289D02*
X0281231Y0097539D01*
X0280981Y0097789D01*
X0280481Y0097789D01*
X0280230Y0097539D01*
X0279758Y0097539D02*
X0279758Y0097039D01*
X0279508Y0096789D01*
X0278757Y0096789D01*
X0279258Y0096789D02*
X0279758Y0096288D01*
X0280230Y0096538D02*
X0280481Y0096288D01*
X0280981Y0096288D01*
X0281231Y0096538D01*
X0281231Y0096789D01*
X0280981Y0097039D01*
X0280731Y0097039D01*
X0280981Y0097039D02*
X0281231Y0097289D01*
X0279758Y0097539D02*
X0279508Y0097789D01*
X0278757Y0097789D01*
X0278757Y0096288D01*
X0279007Y0087652D02*
X0278757Y0087401D01*
X0278757Y0086401D01*
X0279007Y0086150D01*
X0279508Y0086150D01*
X0279758Y0086401D01*
X0280230Y0086401D02*
X0280481Y0086150D01*
X0280981Y0086150D01*
X0281231Y0086401D01*
X0281231Y0086651D01*
X0280981Y0086901D01*
X0280731Y0086901D01*
X0280981Y0086901D02*
X0281231Y0087151D01*
X0281231Y0087401D01*
X0280981Y0087652D01*
X0280481Y0087652D01*
X0280230Y0087401D01*
X0279758Y0087401D02*
X0279508Y0087652D01*
X0279007Y0087652D01*
X0281704Y0087151D02*
X0282204Y0087652D01*
X0282204Y0086150D01*
X0281704Y0086150D02*
X0282704Y0086150D01*
X0267645Y0070964D02*
X0266645Y0069964D01*
X0266895Y0069713D01*
X0267395Y0069713D01*
X0267645Y0069964D01*
X0267645Y0070964D01*
X0267395Y0071215D01*
X0266895Y0071215D01*
X0266645Y0070964D01*
X0266645Y0069964D01*
X0266172Y0069713D02*
X0265171Y0069713D01*
X0266172Y0070714D01*
X0266172Y0070964D01*
X0265922Y0071215D01*
X0265421Y0071215D01*
X0265171Y0070964D01*
X0264699Y0070964D02*
X0264699Y0070464D01*
X0264449Y0070214D01*
X0263698Y0070214D01*
X0264198Y0070214D02*
X0264699Y0069713D01*
X0263698Y0069713D02*
X0263698Y0071215D01*
X0264449Y0071215D01*
X0264699Y0070964D01*
X0264449Y0063045D02*
X0264699Y0062795D01*
X0264699Y0062295D01*
X0264449Y0062045D01*
X0263698Y0062045D01*
X0264198Y0062045D02*
X0264699Y0061544D01*
X0265171Y0061544D02*
X0266172Y0062545D01*
X0266172Y0062795D01*
X0265922Y0063045D01*
X0265421Y0063045D01*
X0265171Y0062795D01*
X0264449Y0063045D02*
X0263698Y0063045D01*
X0263698Y0061544D01*
X0265171Y0061544D02*
X0266172Y0061544D01*
X0266645Y0061544D02*
X0267645Y0061544D01*
X0267145Y0061544D02*
X0267145Y0063045D01*
X0266645Y0062545D01*
X0266895Y0054975D02*
X0266645Y0054724D01*
X0266895Y0054975D02*
X0267395Y0054975D01*
X0267645Y0054724D01*
X0267645Y0054474D01*
X0266645Y0053473D01*
X0267645Y0053473D01*
X0266172Y0053473D02*
X0265171Y0053473D01*
X0264699Y0053473D02*
X0264198Y0053974D01*
X0264449Y0053974D02*
X0263698Y0053974D01*
X0263698Y0053473D02*
X0263698Y0054975D01*
X0264449Y0054975D01*
X0264699Y0054724D01*
X0264699Y0054224D01*
X0264449Y0053974D01*
X0265171Y0054474D02*
X0265672Y0054975D01*
X0265672Y0053473D01*
X0265672Y0046707D02*
X0265672Y0045206D01*
X0266172Y0045206D02*
X0265171Y0045206D01*
X0264699Y0045206D02*
X0264198Y0045706D01*
X0264449Y0045706D02*
X0263698Y0045706D01*
X0263698Y0045206D02*
X0263698Y0046707D01*
X0264449Y0046707D01*
X0264699Y0046457D01*
X0264699Y0045956D01*
X0264449Y0045706D01*
X0265171Y0046206D02*
X0265672Y0046707D01*
X0266645Y0046457D02*
X0266895Y0046707D01*
X0267395Y0046707D01*
X0267645Y0046457D01*
X0266645Y0045456D01*
X0266895Y0045206D01*
X0267395Y0045206D01*
X0267645Y0045456D01*
X0267645Y0046457D01*
X0266645Y0046457D02*
X0266645Y0045456D01*
X0255441Y0045206D02*
X0254440Y0045206D01*
X0253967Y0045206D02*
X0252967Y0045206D01*
X0252494Y0045206D02*
X0251994Y0045706D01*
X0252244Y0045706D02*
X0251493Y0045706D01*
X0251493Y0045206D02*
X0251493Y0046707D01*
X0252244Y0046707D01*
X0252494Y0046457D01*
X0252494Y0045956D01*
X0252244Y0045706D01*
X0252967Y0046206D02*
X0253467Y0046707D01*
X0253467Y0045206D01*
X0254440Y0046206D02*
X0254940Y0046707D01*
X0254940Y0045206D01*
X0263698Y0038439D02*
X0264449Y0038439D01*
X0264699Y0038189D01*
X0264699Y0037688D01*
X0264449Y0037438D01*
X0263698Y0037438D01*
X0263698Y0036938D02*
X0263698Y0038439D01*
X0264198Y0037438D02*
X0264699Y0036938D01*
X0265171Y0036938D02*
X0266172Y0036938D01*
X0265672Y0036938D02*
X0265672Y0038439D01*
X0265171Y0037939D01*
X0266645Y0037688D02*
X0267145Y0037939D01*
X0267395Y0037939D01*
X0267645Y0037688D01*
X0267645Y0037188D01*
X0267395Y0036938D01*
X0266895Y0036938D01*
X0266645Y0037188D01*
X0266645Y0037688D02*
X0266645Y0038439D01*
X0267645Y0038439D01*
X0258021Y0030839D02*
X0257520Y0030589D01*
X0257020Y0030088D01*
X0257771Y0030088D01*
X0258021Y0029838D01*
X0258021Y0029588D01*
X0257771Y0029338D01*
X0257270Y0029338D01*
X0257020Y0029588D01*
X0257020Y0030088D01*
X0256548Y0029338D02*
X0255547Y0029338D01*
X0256047Y0029338D02*
X0256047Y0030839D01*
X0255547Y0030339D01*
X0255074Y0030589D02*
X0254824Y0030839D01*
X0254324Y0030839D01*
X0254074Y0030589D01*
X0254074Y0029588D01*
X0254324Y0029338D01*
X0254824Y0029338D01*
X0255074Y0029588D01*
X0216928Y0050326D02*
X0216928Y0051827D01*
X0216178Y0051077D01*
X0217178Y0051077D01*
X0215705Y0051327D02*
X0215455Y0051077D01*
X0215705Y0050826D01*
X0215705Y0050576D01*
X0215455Y0050326D01*
X0214954Y0050326D01*
X0214704Y0050576D01*
X0214232Y0050576D02*
X0213982Y0050326D01*
X0213481Y0050326D01*
X0213231Y0050576D01*
X0213231Y0051577D01*
X0213481Y0051827D01*
X0213982Y0051827D01*
X0214232Y0051577D01*
X0214704Y0051577D02*
X0214954Y0051827D01*
X0215455Y0051827D01*
X0215705Y0051577D01*
X0215705Y0051327D01*
X0215455Y0051077D02*
X0215205Y0051077D01*
X0205441Y0050197D02*
X0204440Y0049196D01*
X0204690Y0048946D01*
X0205190Y0048946D01*
X0205441Y0049196D01*
X0205441Y0050197D01*
X0205190Y0050447D01*
X0204690Y0050447D01*
X0204440Y0050197D01*
X0204440Y0049196D01*
X0203967Y0049196D02*
X0203967Y0049446D01*
X0203717Y0049696D01*
X0202967Y0049696D01*
X0202967Y0049196D01*
X0203217Y0048946D01*
X0203717Y0048946D01*
X0203967Y0049196D01*
X0203467Y0050197D02*
X0202967Y0049696D01*
X0202494Y0049696D02*
X0202494Y0050197D01*
X0202244Y0050447D01*
X0201493Y0050447D01*
X0201493Y0048946D01*
X0201493Y0049446D02*
X0202244Y0049446D01*
X0202494Y0049696D01*
X0201994Y0049446D02*
X0202494Y0048946D01*
X0203467Y0050197D02*
X0203967Y0050447D01*
X0193630Y0050447D02*
X0192629Y0050447D01*
X0192629Y0049696D01*
X0193129Y0049947D01*
X0193379Y0049947D01*
X0193630Y0049696D01*
X0193630Y0049196D01*
X0193379Y0048946D01*
X0192879Y0048946D01*
X0192629Y0049196D01*
X0192156Y0049196D02*
X0191906Y0048946D01*
X0191406Y0048946D01*
X0191156Y0049196D01*
X0191156Y0049696D02*
X0191656Y0049947D01*
X0191906Y0049947D01*
X0192156Y0049696D01*
X0192156Y0049196D01*
X0191156Y0049696D02*
X0191156Y0050447D01*
X0192156Y0050447D01*
X0190683Y0050197D02*
X0190683Y0049696D01*
X0190433Y0049446D01*
X0189682Y0049446D01*
X0189682Y0048946D02*
X0189682Y0050447D01*
X0190433Y0050447D01*
X0190683Y0050197D01*
X0190183Y0049446D02*
X0190683Y0048946D01*
X0190433Y0042081D02*
X0190683Y0041831D01*
X0190683Y0041330D01*
X0190433Y0041080D01*
X0189682Y0041080D01*
X0189682Y0040580D02*
X0189682Y0042081D01*
X0190433Y0042081D01*
X0191156Y0042081D02*
X0191156Y0041330D01*
X0191656Y0041580D01*
X0191906Y0041580D01*
X0192156Y0041330D01*
X0192156Y0040830D01*
X0191906Y0040580D01*
X0191406Y0040580D01*
X0191156Y0040830D01*
X0190683Y0040580D02*
X0190183Y0041080D01*
X0191156Y0042081D02*
X0192156Y0042081D01*
X0192629Y0041330D02*
X0193630Y0041330D01*
X0193379Y0040580D02*
X0193379Y0042081D01*
X0192629Y0041330D01*
X0201493Y0041080D02*
X0202244Y0041080D01*
X0202494Y0041330D01*
X0202494Y0041831D01*
X0202244Y0042081D01*
X0201493Y0042081D01*
X0201493Y0040580D01*
X0201994Y0041080D02*
X0202494Y0040580D01*
X0202967Y0040830D02*
X0203217Y0040580D01*
X0203717Y0040580D01*
X0203967Y0040830D01*
X0203967Y0041330D01*
X0203717Y0041580D01*
X0203467Y0041580D01*
X0202967Y0041330D01*
X0202967Y0042081D01*
X0203967Y0042081D01*
X0204440Y0041831D02*
X0204440Y0041580D01*
X0204690Y0041330D01*
X0205441Y0041330D01*
X0205441Y0040830D02*
X0205441Y0041831D01*
X0205190Y0042081D01*
X0204690Y0042081D01*
X0204440Y0041831D01*
X0204440Y0040830D02*
X0204690Y0040580D01*
X0205190Y0040580D01*
X0205441Y0040830D01*
X0205190Y0033715D02*
X0205441Y0033464D01*
X0205441Y0033214D01*
X0205190Y0032964D01*
X0204690Y0032964D01*
X0204440Y0033214D01*
X0204440Y0033464D01*
X0204690Y0033715D01*
X0205190Y0033715D01*
X0205190Y0032964D02*
X0205441Y0032714D01*
X0205441Y0032464D01*
X0205190Y0032213D01*
X0204690Y0032213D01*
X0204440Y0032464D01*
X0204440Y0032714D01*
X0204690Y0032964D01*
X0203967Y0032964D02*
X0203967Y0032464D01*
X0203717Y0032213D01*
X0203217Y0032213D01*
X0202967Y0032464D01*
X0202967Y0032964D02*
X0203467Y0033214D01*
X0203717Y0033214D01*
X0203967Y0032964D01*
X0203967Y0033715D02*
X0202967Y0033715D01*
X0202967Y0032964D01*
X0202494Y0032964D02*
X0202244Y0032714D01*
X0201493Y0032714D01*
X0201493Y0032213D02*
X0201493Y0033715D01*
X0202244Y0033715D01*
X0202494Y0033464D01*
X0202494Y0032964D01*
X0201994Y0032714D02*
X0202494Y0032213D01*
X0193630Y0032464D02*
X0193379Y0032213D01*
X0192879Y0032213D01*
X0192629Y0032464D01*
X0192156Y0032464D02*
X0191906Y0032213D01*
X0191406Y0032213D01*
X0191156Y0032464D01*
X0191156Y0032964D02*
X0191656Y0033214D01*
X0191906Y0033214D01*
X0192156Y0032964D01*
X0192156Y0032464D01*
X0193129Y0032964D02*
X0193379Y0032964D01*
X0193630Y0032714D01*
X0193630Y0032464D01*
X0193379Y0032964D02*
X0193630Y0033214D01*
X0193630Y0033464D01*
X0193379Y0033715D01*
X0192879Y0033715D01*
X0192629Y0033464D01*
X0192156Y0033715D02*
X0191156Y0033715D01*
X0191156Y0032964D01*
X0190683Y0032964D02*
X0190433Y0032714D01*
X0189682Y0032714D01*
X0189682Y0032213D02*
X0189682Y0033715D01*
X0190433Y0033715D01*
X0190683Y0033464D01*
X0190683Y0032964D01*
X0190183Y0032714D02*
X0190683Y0032213D01*
X0190433Y0025349D02*
X0190683Y0025098D01*
X0190683Y0024598D01*
X0190433Y0024348D01*
X0189682Y0024348D01*
X0190183Y0024348D02*
X0190683Y0023847D01*
X0191156Y0024097D02*
X0191406Y0023847D01*
X0191906Y0023847D01*
X0192156Y0024097D01*
X0192156Y0024598D01*
X0191906Y0024848D01*
X0191656Y0024848D01*
X0191156Y0024598D01*
X0191156Y0025349D01*
X0192156Y0025349D01*
X0192629Y0025098D02*
X0192879Y0025349D01*
X0193379Y0025349D01*
X0193630Y0025098D01*
X0193630Y0024848D01*
X0192629Y0023847D01*
X0193630Y0023847D01*
X0190433Y0025349D02*
X0189682Y0025349D01*
X0189682Y0023847D01*
X0189682Y0016982D02*
X0190433Y0016982D01*
X0190683Y0016732D01*
X0190683Y0016232D01*
X0190433Y0015982D01*
X0189682Y0015982D01*
X0190183Y0015982D02*
X0190683Y0015481D01*
X0191156Y0015731D02*
X0191406Y0015481D01*
X0191906Y0015481D01*
X0192156Y0015731D01*
X0192156Y0016232D01*
X0191906Y0016482D01*
X0191656Y0016482D01*
X0191156Y0016232D01*
X0191156Y0016982D01*
X0192156Y0016982D01*
X0192629Y0016482D02*
X0193129Y0016982D01*
X0193129Y0015481D01*
X0192629Y0015481D02*
X0193630Y0015481D01*
X0189682Y0015481D02*
X0189682Y0016982D01*
X0201493Y0016982D02*
X0201493Y0015481D01*
X0201493Y0015982D02*
X0202244Y0015982D01*
X0202494Y0016232D01*
X0202494Y0016732D01*
X0202244Y0016982D01*
X0201493Y0016982D01*
X0201994Y0015982D02*
X0202494Y0015481D01*
X0202967Y0015731D02*
X0203217Y0015481D01*
X0203717Y0015481D01*
X0203967Y0015731D01*
X0203967Y0016232D01*
X0203717Y0016482D01*
X0203467Y0016482D01*
X0202967Y0016232D01*
X0202967Y0016982D01*
X0203967Y0016982D01*
X0204440Y0016232D02*
X0205190Y0016232D01*
X0205441Y0015982D01*
X0205441Y0015731D01*
X0205190Y0015481D01*
X0204690Y0015481D01*
X0204440Y0015731D01*
X0204440Y0016232D01*
X0204940Y0016732D01*
X0205441Y0016982D01*
X0204440Y0023847D02*
X0204440Y0024097D01*
X0205441Y0025098D01*
X0205441Y0025349D01*
X0204440Y0025349D01*
X0203967Y0025349D02*
X0202967Y0025349D01*
X0202967Y0024598D01*
X0203467Y0024848D01*
X0203717Y0024848D01*
X0203967Y0024598D01*
X0203967Y0024097D01*
X0203717Y0023847D01*
X0203217Y0023847D01*
X0202967Y0024097D01*
X0202494Y0023847D02*
X0201994Y0024348D01*
X0202244Y0024348D02*
X0201493Y0024348D01*
X0201493Y0023847D02*
X0201493Y0025349D01*
X0202244Y0025349D01*
X0202494Y0025098D01*
X0202494Y0024598D01*
X0202244Y0024348D01*
X0191312Y0057312D02*
X0190812Y0057312D01*
X0190562Y0057562D01*
X0190562Y0058062D02*
X0191062Y0058313D01*
X0191312Y0058313D01*
X0191563Y0058062D01*
X0191563Y0057562D01*
X0191312Y0057312D01*
X0190562Y0058062D02*
X0190562Y0058813D01*
X0191563Y0058813D01*
X0189589Y0058813D02*
X0189589Y0057312D01*
X0189089Y0057312D02*
X0190089Y0057312D01*
X0189089Y0058313D02*
X0189589Y0058813D01*
X0188616Y0058563D02*
X0188366Y0058813D01*
X0187866Y0058813D01*
X0187615Y0058563D01*
X0187615Y0057562D01*
X0187866Y0057312D01*
X0188366Y0057312D01*
X0188616Y0057562D01*
X0188616Y0065678D02*
X0188116Y0066178D01*
X0188366Y0066178D02*
X0187615Y0066178D01*
X0187615Y0065678D02*
X0187615Y0067179D01*
X0188366Y0067179D01*
X0188616Y0066929D01*
X0188616Y0066429D01*
X0188366Y0066178D01*
X0189089Y0065928D02*
X0189339Y0065678D01*
X0189839Y0065678D01*
X0190089Y0065928D01*
X0190089Y0066429D01*
X0189839Y0066679D01*
X0189589Y0066679D01*
X0189089Y0066429D01*
X0189089Y0067179D01*
X0190089Y0067179D01*
X0190562Y0066929D02*
X0190812Y0067179D01*
X0191312Y0067179D01*
X0191563Y0066929D01*
X0190562Y0065928D01*
X0190812Y0065678D01*
X0191312Y0065678D01*
X0191563Y0065928D01*
X0191563Y0066929D01*
X0190562Y0066929D02*
X0190562Y0065928D01*
X0190089Y0074044D02*
X0189089Y0074044D01*
X0189589Y0074044D02*
X0189589Y0075545D01*
X0189089Y0075045D01*
X0188616Y0075295D02*
X0188366Y0075545D01*
X0187866Y0075545D01*
X0187615Y0075295D01*
X0187615Y0074294D01*
X0187866Y0074044D01*
X0188366Y0074044D01*
X0188616Y0074294D01*
X0190562Y0074795D02*
X0191563Y0074795D01*
X0191312Y0075545D02*
X0191312Y0074044D01*
X0190562Y0074795D02*
X0191312Y0075545D01*
X0191312Y0082410D02*
X0191563Y0082660D01*
X0191563Y0082911D01*
X0191312Y0083161D01*
X0190562Y0083161D01*
X0190562Y0082660D01*
X0190812Y0082410D01*
X0191312Y0082410D01*
X0190562Y0083161D02*
X0191062Y0083661D01*
X0191563Y0083912D01*
X0189589Y0083912D02*
X0189589Y0082410D01*
X0189089Y0082410D02*
X0190089Y0082410D01*
X0189089Y0083411D02*
X0189589Y0083912D01*
X0188616Y0083661D02*
X0188366Y0083912D01*
X0187615Y0083912D01*
X0187615Y0082410D01*
X0187615Y0082911D02*
X0188366Y0082911D01*
X0188616Y0083161D01*
X0188616Y0083661D01*
X0188116Y0082911D02*
X0188616Y0082410D01*
X0202105Y0081950D02*
X0202355Y0081700D01*
X0202856Y0081700D01*
X0203106Y0081950D01*
X0203578Y0081700D02*
X0204579Y0082701D01*
X0204579Y0082951D01*
X0204329Y0083201D01*
X0203828Y0083201D01*
X0203578Y0082951D01*
X0203106Y0082951D02*
X0202856Y0083201D01*
X0202355Y0083201D01*
X0202105Y0082951D01*
X0202105Y0081950D01*
X0203578Y0081700D02*
X0204579Y0081700D01*
X0205052Y0081950D02*
X0205302Y0081700D01*
X0205802Y0081700D01*
X0206052Y0081950D01*
X0206052Y0082200D01*
X0205802Y0082451D01*
X0205052Y0082451D01*
X0205052Y0081950D01*
X0205052Y0082451D02*
X0205552Y0082951D01*
X0206052Y0083201D01*
X0206052Y0074934D02*
X0205052Y0074934D01*
X0205052Y0074183D01*
X0205552Y0074433D01*
X0205802Y0074433D01*
X0206052Y0074183D01*
X0206052Y0073682D01*
X0205802Y0073432D01*
X0205302Y0073432D01*
X0205052Y0073682D01*
X0204579Y0073432D02*
X0203578Y0073432D01*
X0204579Y0074433D01*
X0204579Y0074683D01*
X0204329Y0074934D01*
X0203828Y0074934D01*
X0203578Y0074683D01*
X0203106Y0074683D02*
X0202856Y0074934D01*
X0202355Y0074934D01*
X0202105Y0074683D01*
X0202105Y0073682D01*
X0202355Y0073432D01*
X0202856Y0073432D01*
X0203106Y0073682D01*
X0213231Y0063880D02*
X0213231Y0062879D01*
X0213481Y0062629D01*
X0213982Y0062629D01*
X0214232Y0062879D01*
X0214704Y0062879D02*
X0214954Y0062629D01*
X0215455Y0062629D01*
X0215705Y0062879D01*
X0215705Y0063130D01*
X0215455Y0063380D01*
X0215205Y0063380D01*
X0215455Y0063380D02*
X0215705Y0063630D01*
X0215705Y0063880D01*
X0215455Y0064130D01*
X0214954Y0064130D01*
X0214704Y0063880D01*
X0214232Y0063880D02*
X0213982Y0064130D01*
X0213481Y0064130D01*
X0213231Y0063880D01*
X0216178Y0064130D02*
X0216178Y0063380D01*
X0216678Y0063630D01*
X0216928Y0063630D01*
X0217178Y0063380D01*
X0217178Y0062879D01*
X0216928Y0062629D01*
X0216428Y0062629D01*
X0216178Y0062879D01*
X0216178Y0064130D02*
X0217178Y0064130D01*
X0164885Y0072814D02*
X0164885Y0073314D01*
X0164635Y0073565D01*
X0164635Y0074037D02*
X0164885Y0074287D01*
X0164885Y0074788D01*
X0164635Y0075038D01*
X0164135Y0075038D01*
X0163885Y0074788D01*
X0163885Y0074537D01*
X0164135Y0074037D01*
X0163384Y0074037D01*
X0163384Y0075038D01*
X0163634Y0075510D02*
X0163384Y0075760D01*
X0163384Y0076261D01*
X0163634Y0076511D01*
X0164635Y0075510D01*
X0164885Y0075760D01*
X0164885Y0076261D01*
X0164635Y0076511D01*
X0163634Y0076511D01*
X0163634Y0075510D02*
X0164635Y0075510D01*
X0163634Y0073565D02*
X0163384Y0073314D01*
X0163384Y0072814D01*
X0163634Y0072564D01*
X0164635Y0072564D01*
X0164885Y0072814D01*
X0135362Y0072047D02*
X0135112Y0072297D01*
X0134611Y0072297D01*
X0134361Y0072047D01*
X0134361Y0071797D01*
X0134611Y0071547D01*
X0135362Y0071547D01*
X0135362Y0072047D02*
X0135362Y0071046D01*
X0135112Y0070796D01*
X0134611Y0070796D01*
X0134361Y0071046D01*
X0133889Y0070796D02*
X0132888Y0070796D01*
X0132415Y0070796D02*
X0131915Y0071296D01*
X0132165Y0071296D02*
X0131415Y0071296D01*
X0131415Y0070796D02*
X0131415Y0072297D01*
X0132165Y0072297D01*
X0132415Y0072047D01*
X0132415Y0071547D01*
X0132165Y0071296D01*
X0132888Y0071797D02*
X0133388Y0072297D01*
X0133388Y0070796D01*
X0133388Y0064030D02*
X0133388Y0062528D01*
X0132888Y0062528D02*
X0133889Y0062528D01*
X0134361Y0062779D02*
X0134361Y0063029D01*
X0134611Y0063279D01*
X0135112Y0063279D01*
X0135362Y0063029D01*
X0135362Y0062779D01*
X0135112Y0062528D01*
X0134611Y0062528D01*
X0134361Y0062779D01*
X0134611Y0063279D02*
X0134361Y0063529D01*
X0134361Y0063779D01*
X0134611Y0064030D01*
X0135112Y0064030D01*
X0135362Y0063779D01*
X0135362Y0063529D01*
X0135112Y0063279D01*
X0133388Y0064030D02*
X0132888Y0063529D01*
X0132415Y0063779D02*
X0132415Y0063279D01*
X0132165Y0063029D01*
X0131415Y0063029D01*
X0131915Y0063029D02*
X0132415Y0062528D01*
X0131415Y0062528D02*
X0131415Y0064030D01*
X0132165Y0064030D01*
X0132415Y0063779D01*
X0123667Y0068993D02*
X0123667Y0069494D01*
X0123416Y0069744D01*
X0123416Y0070216D02*
X0123667Y0070467D01*
X0123667Y0070967D01*
X0123416Y0071217D01*
X0123166Y0071217D01*
X0122916Y0070967D01*
X0122916Y0070216D01*
X0123416Y0070216D01*
X0122916Y0070216D02*
X0122415Y0070717D01*
X0122165Y0071217D01*
X0122415Y0069744D02*
X0122165Y0069494D01*
X0122165Y0068993D01*
X0122415Y0068743D01*
X0123416Y0068743D01*
X0123667Y0068993D01*
X0131665Y0079064D02*
X0131415Y0079314D01*
X0131415Y0080315D01*
X0131665Y0080565D01*
X0132165Y0080565D01*
X0132415Y0080315D01*
X0132888Y0080565D02*
X0132888Y0079814D01*
X0133388Y0080065D01*
X0133638Y0080065D01*
X0133889Y0079814D01*
X0133889Y0079314D01*
X0133638Y0079064D01*
X0133138Y0079064D01*
X0132888Y0079314D01*
X0132415Y0079314D02*
X0132165Y0079064D01*
X0131665Y0079064D01*
X0132888Y0080565D02*
X0133889Y0080565D01*
X0134361Y0080315D02*
X0134611Y0080565D01*
X0135112Y0080565D01*
X0135362Y0080315D01*
X0135362Y0080065D01*
X0135112Y0079814D01*
X0135362Y0079564D01*
X0135362Y0079314D01*
X0135112Y0079064D01*
X0134611Y0079064D01*
X0134361Y0079314D01*
X0134861Y0079814D02*
X0135112Y0079814D01*
X0133537Y0087331D02*
X0133787Y0087582D01*
X0133787Y0088583D01*
X0133537Y0088833D01*
X0133036Y0088833D01*
X0132786Y0088583D01*
X0132786Y0088332D01*
X0133036Y0088082D01*
X0133787Y0088082D01*
X0133537Y0087331D02*
X0133036Y0087331D01*
X0132786Y0087582D01*
X0132314Y0087331D02*
X0131313Y0087331D01*
X0132314Y0088332D01*
X0132314Y0088583D01*
X0132064Y0088833D01*
X0131563Y0088833D01*
X0131313Y0088583D01*
X0130841Y0088583D02*
X0130590Y0088833D01*
X0130090Y0088833D01*
X0129840Y0088583D01*
X0129840Y0087582D01*
X0130090Y0087331D01*
X0130590Y0087331D01*
X0130841Y0087582D01*
X0123667Y0083172D02*
X0123416Y0083422D01*
X0122415Y0083422D01*
X0122165Y0083172D01*
X0122165Y0082671D01*
X0122415Y0082421D01*
X0122666Y0082421D01*
X0122916Y0082671D01*
X0122916Y0083422D01*
X0123667Y0083172D02*
X0123667Y0082671D01*
X0123416Y0082421D01*
X0123667Y0081949D02*
X0123667Y0080948D01*
X0122666Y0081949D01*
X0122415Y0081949D01*
X0122165Y0081699D01*
X0122165Y0081198D01*
X0122415Y0080948D01*
X0122415Y0080476D02*
X0122916Y0080476D01*
X0123166Y0080225D01*
X0123166Y0079475D01*
X0123166Y0079975D02*
X0123667Y0080476D01*
X0123667Y0079475D02*
X0122165Y0079475D01*
X0122165Y0080225D01*
X0122415Y0080476D01*
X0119582Y0089574D02*
X0119081Y0089574D01*
X0118831Y0089824D01*
X0118831Y0090325D02*
X0119331Y0090575D01*
X0119582Y0090575D01*
X0119832Y0090325D01*
X0119832Y0089824D01*
X0119582Y0089574D01*
X0118831Y0090325D02*
X0118831Y0091075D01*
X0119832Y0091075D01*
X0118359Y0090325D02*
X0117358Y0090325D01*
X0118108Y0091075D01*
X0118108Y0089574D01*
X0116885Y0089824D02*
X0116635Y0089574D01*
X0116135Y0089574D01*
X0115885Y0089824D01*
X0115885Y0090825D01*
X0116135Y0091075D01*
X0116635Y0091075D01*
X0116885Y0090825D01*
X0116635Y0097842D02*
X0116135Y0097842D01*
X0115885Y0098092D01*
X0115885Y0099093D01*
X0116135Y0099343D01*
X0116635Y0099343D01*
X0116885Y0099093D01*
X0117358Y0098592D02*
X0118359Y0098592D01*
X0118831Y0098843D02*
X0119081Y0098592D01*
X0119832Y0098592D01*
X0119832Y0098092D02*
X0119832Y0099093D01*
X0119582Y0099343D01*
X0119081Y0099343D01*
X0118831Y0099093D01*
X0118831Y0098843D01*
X0118831Y0098092D02*
X0119081Y0097842D01*
X0119582Y0097842D01*
X0119832Y0098092D01*
X0118108Y0097842D02*
X0118108Y0099343D01*
X0117358Y0098592D01*
X0116885Y0098092D02*
X0116635Y0097842D01*
X0105047Y0097674D02*
X0105047Y0097424D01*
X0104797Y0097174D01*
X0104296Y0097174D01*
X0104046Y0097424D01*
X0104046Y0097674D01*
X0104296Y0097925D01*
X0104797Y0097925D01*
X0105047Y0097674D01*
X0104797Y0097925D02*
X0105047Y0098175D01*
X0105047Y0098425D01*
X0104797Y0098675D01*
X0104296Y0098675D01*
X0104046Y0098425D01*
X0104046Y0098175D01*
X0104296Y0097925D01*
X0103574Y0098175D02*
X0103323Y0097925D01*
X0103574Y0097674D01*
X0103574Y0097424D01*
X0103323Y0097174D01*
X0102823Y0097174D01*
X0102573Y0097424D01*
X0102100Y0097424D02*
X0101850Y0097174D01*
X0101350Y0097174D01*
X0101100Y0097424D01*
X0101100Y0098425D01*
X0101350Y0098675D01*
X0101850Y0098675D01*
X0102100Y0098425D01*
X0102573Y0098425D02*
X0102823Y0098675D01*
X0103323Y0098675D01*
X0103574Y0098425D01*
X0103574Y0098175D01*
X0103323Y0097925D02*
X0103073Y0097925D01*
X0095422Y0098092D02*
X0095422Y0098342D01*
X0095172Y0098592D01*
X0094422Y0098592D01*
X0094422Y0098092D01*
X0094672Y0097842D01*
X0095172Y0097842D01*
X0095422Y0098092D01*
X0094922Y0099093D02*
X0094422Y0098592D01*
X0093949Y0098843D02*
X0093949Y0099093D01*
X0093699Y0099343D01*
X0093199Y0099343D01*
X0092948Y0099093D01*
X0092476Y0099093D02*
X0092476Y0098592D01*
X0092226Y0098342D01*
X0091475Y0098342D01*
X0091475Y0097842D02*
X0091475Y0099343D01*
X0092226Y0099343D01*
X0092476Y0099093D01*
X0091976Y0098342D02*
X0092476Y0097842D01*
X0092948Y0097842D02*
X0093949Y0098843D01*
X0093949Y0097842D02*
X0092948Y0097842D01*
X0094922Y0099093D02*
X0095422Y0099343D01*
X0101350Y0105442D02*
X0101850Y0105442D01*
X0102100Y0105692D01*
X0102573Y0106192D02*
X0103574Y0106192D01*
X0104046Y0106693D02*
X0104296Y0106943D01*
X0104797Y0106943D01*
X0105047Y0106693D01*
X0105047Y0106443D01*
X0104046Y0105442D01*
X0105047Y0105442D01*
X0103323Y0105442D02*
X0103323Y0106943D01*
X0102573Y0106192D01*
X0102100Y0106693D02*
X0101850Y0106943D01*
X0101350Y0106943D01*
X0101100Y0106693D01*
X0101100Y0105692D01*
X0101350Y0105442D01*
X0079256Y0105390D02*
X0079005Y0105139D01*
X0079256Y0105390D02*
X0079256Y0105890D01*
X0079005Y0106140D01*
X0078755Y0106140D01*
X0078505Y0105890D01*
X0078505Y0105640D01*
X0078505Y0105890D02*
X0078255Y0106140D01*
X0078004Y0106140D01*
X0077754Y0105890D01*
X0077754Y0105390D01*
X0078004Y0105139D01*
X0078004Y0104667D02*
X0077754Y0104417D01*
X0077754Y0103916D01*
X0078004Y0103666D01*
X0079005Y0103666D01*
X0079256Y0103916D01*
X0079256Y0104417D01*
X0079005Y0104667D01*
X0079005Y0106613D02*
X0079256Y0106863D01*
X0079256Y0107363D01*
X0079005Y0107613D01*
X0078004Y0107613D01*
X0077754Y0107363D01*
X0077754Y0106863D01*
X0078004Y0106613D01*
X0078255Y0106613D01*
X0078505Y0106863D01*
X0078505Y0107613D01*
X0071185Y0105432D02*
X0070934Y0105432D01*
X0069934Y0106432D01*
X0069683Y0106432D01*
X0069683Y0105432D01*
X0069934Y0104959D02*
X0070184Y0104959D01*
X0070434Y0104709D01*
X0070684Y0104959D01*
X0070934Y0104959D01*
X0071185Y0104709D01*
X0071185Y0104209D01*
X0070934Y0103958D01*
X0070934Y0103486D02*
X0071185Y0103236D01*
X0071185Y0102735D01*
X0070934Y0102485D01*
X0069934Y0102485D01*
X0069683Y0102735D01*
X0069683Y0103236D01*
X0069934Y0103486D01*
X0069934Y0103958D02*
X0069683Y0104209D01*
X0069683Y0104709D01*
X0069934Y0104959D01*
X0070434Y0104709D02*
X0070434Y0104459D01*
X0053574Y0104654D02*
X0052573Y0104654D01*
X0052100Y0104654D02*
X0051100Y0104654D01*
X0051100Y0106156D01*
X0052573Y0105655D02*
X0053073Y0106156D01*
X0053073Y0104654D01*
X0052587Y0096808D02*
X0052337Y0096808D01*
X0052087Y0096558D01*
X0052087Y0096057D01*
X0052337Y0095807D01*
X0052337Y0095335D02*
X0052837Y0095335D01*
X0053087Y0095084D01*
X0053087Y0094334D01*
X0053087Y0094834D02*
X0053588Y0095335D01*
X0053588Y0095807D02*
X0052587Y0096808D01*
X0053588Y0096808D02*
X0053588Y0095807D01*
X0052337Y0095335D02*
X0052087Y0095084D01*
X0052087Y0094334D01*
X0053588Y0094334D01*
X0026878Y0108391D02*
X0026878Y0109141D01*
X0026627Y0109391D01*
X0025627Y0109391D01*
X0025376Y0109141D01*
X0025376Y0108391D01*
X0026878Y0108391D01*
X0026878Y0109864D02*
X0026878Y0110865D01*
X0026878Y0110364D02*
X0025376Y0110364D01*
X0025877Y0109864D01*
X0051686Y0117971D02*
X0051936Y0117721D01*
X0052437Y0117721D01*
X0052687Y0117971D01*
X0053159Y0117971D02*
X0053159Y0118222D01*
X0053410Y0118472D01*
X0053910Y0118472D01*
X0054160Y0118222D01*
X0054160Y0117971D01*
X0053910Y0117721D01*
X0053410Y0117721D01*
X0053159Y0117971D01*
X0053410Y0118472D02*
X0053159Y0118722D01*
X0053159Y0118972D01*
X0053410Y0119223D01*
X0053910Y0119223D01*
X0054160Y0118972D01*
X0054160Y0118722D01*
X0053910Y0118472D01*
X0052687Y0118972D02*
X0052437Y0119223D01*
X0051936Y0119223D01*
X0051686Y0118972D01*
X0051686Y0117971D01*
X0076765Y0154535D02*
X0077265Y0154535D01*
X0077515Y0154785D01*
X0077988Y0155285D02*
X0078989Y0155285D01*
X0079461Y0155285D02*
X0080462Y0155285D01*
X0080212Y0154535D02*
X0080212Y0156036D01*
X0079461Y0155285D01*
X0078738Y0154535D02*
X0078738Y0156036D01*
X0077988Y0155285D01*
X0077515Y0155786D02*
X0077265Y0156036D01*
X0076765Y0156036D01*
X0076514Y0155786D01*
X0076514Y0154785D01*
X0076765Y0154535D01*
X0086139Y0162135D02*
X0086139Y0163636D01*
X0086890Y0163636D01*
X0087140Y0163386D01*
X0087140Y0162885D01*
X0086890Y0162635D01*
X0086139Y0162635D01*
X0086639Y0162635D02*
X0087140Y0162135D01*
X0087612Y0162135D02*
X0088613Y0163135D01*
X0088613Y0163386D01*
X0088363Y0163636D01*
X0087862Y0163636D01*
X0087612Y0163386D01*
X0087612Y0162135D02*
X0088613Y0162135D01*
X0089085Y0162385D02*
X0089085Y0162635D01*
X0089336Y0162885D01*
X0089836Y0162885D01*
X0090086Y0162635D01*
X0090086Y0162385D01*
X0089836Y0162135D01*
X0089336Y0162135D01*
X0089085Y0162385D01*
X0089336Y0162885D02*
X0089085Y0163135D01*
X0089085Y0163386D01*
X0089336Y0163636D01*
X0089836Y0163636D01*
X0090086Y0163386D01*
X0090086Y0163135D01*
X0089836Y0162885D01*
X0085186Y0164234D02*
X0085186Y0164484D01*
X0084936Y0164734D01*
X0084185Y0164734D01*
X0084185Y0164234D01*
X0084436Y0163983D01*
X0084936Y0163983D01*
X0085186Y0164234D01*
X0084686Y0165235D02*
X0084185Y0164734D01*
X0083713Y0164484D02*
X0083713Y0164234D01*
X0083463Y0163983D01*
X0082962Y0163983D01*
X0082712Y0164234D01*
X0082240Y0164234D02*
X0081990Y0163983D01*
X0081489Y0163983D01*
X0081239Y0164234D01*
X0081239Y0165235D01*
X0081489Y0165485D01*
X0081990Y0165485D01*
X0082240Y0165235D01*
X0082712Y0165235D02*
X0082962Y0165485D01*
X0083463Y0165485D01*
X0083713Y0165235D01*
X0083713Y0164984D01*
X0083463Y0164734D01*
X0083713Y0164484D01*
X0083463Y0164734D02*
X0083213Y0164734D01*
X0084686Y0165235D02*
X0085186Y0165485D01*
X0089294Y0166708D02*
X0089544Y0166457D01*
X0090545Y0166457D01*
X0090795Y0166708D01*
X0090795Y0167208D01*
X0090545Y0167458D01*
X0090795Y0167931D02*
X0090795Y0168932D01*
X0090795Y0169404D02*
X0090795Y0170405D01*
X0090795Y0169904D02*
X0089294Y0169904D01*
X0089794Y0169404D01*
X0089294Y0168431D02*
X0090795Y0168431D01*
X0089794Y0167931D02*
X0089294Y0168431D01*
X0089544Y0167458D02*
X0089294Y0167208D01*
X0089294Y0166708D01*
X0084936Y0172251D02*
X0084436Y0172251D01*
X0084185Y0172501D01*
X0084185Y0173002D02*
X0084686Y0173252D01*
X0084936Y0173252D01*
X0085186Y0173002D01*
X0085186Y0172501D01*
X0084936Y0172251D01*
X0084185Y0173002D02*
X0084185Y0173752D01*
X0085186Y0173752D01*
X0083713Y0172251D02*
X0082712Y0172251D01*
X0082712Y0173752D01*
X0065598Y0165430D02*
X0065598Y0164930D01*
X0065348Y0164680D01*
X0064347Y0165680D01*
X0065348Y0165680D01*
X0065598Y0165430D01*
X0065348Y0164680D02*
X0064347Y0164680D01*
X0064097Y0164930D01*
X0064097Y0165430D01*
X0064347Y0165680D01*
X0065598Y0164207D02*
X0065598Y0163206D01*
X0065598Y0163707D02*
X0064097Y0163707D01*
X0064597Y0163206D01*
X0064347Y0162734D02*
X0064097Y0162484D01*
X0064097Y0161983D01*
X0064347Y0161733D01*
X0065348Y0161733D01*
X0065598Y0161983D01*
X0065598Y0162484D01*
X0065348Y0162734D01*
X0058771Y0176702D02*
X0058771Y0176952D01*
X0059771Y0177953D01*
X0059771Y0178203D01*
X0058771Y0178203D01*
X0057798Y0178203D02*
X0057798Y0176702D01*
X0058298Y0176702D02*
X0057297Y0176702D01*
X0056825Y0176952D02*
X0056575Y0176702D01*
X0056074Y0176702D01*
X0055824Y0176952D01*
X0055824Y0177953D01*
X0056074Y0178203D01*
X0056575Y0178203D01*
X0056825Y0177953D01*
X0057297Y0177702D02*
X0057798Y0178203D01*
X0054649Y0187524D02*
X0054649Y0188525D01*
X0054399Y0188998D02*
X0054649Y0189248D01*
X0054649Y0189748D01*
X0054399Y0189999D01*
X0054149Y0189999D01*
X0053899Y0189748D01*
X0053899Y0188998D01*
X0054399Y0188998D01*
X0053899Y0188998D02*
X0053398Y0189498D01*
X0053148Y0189999D01*
X0053148Y0187524D02*
X0054649Y0187524D01*
X0036464Y0188361D02*
X0036464Y0188862D01*
X0036214Y0189112D01*
X0036214Y0189584D02*
X0036464Y0189834D01*
X0036464Y0190335D01*
X0036214Y0190585D01*
X0035213Y0190585D01*
X0034963Y0190335D01*
X0034963Y0189834D01*
X0035213Y0189584D01*
X0035463Y0189584D01*
X0035714Y0189834D01*
X0035714Y0190585D01*
X0035213Y0189112D02*
X0034963Y0188862D01*
X0034963Y0188361D01*
X0035213Y0188111D01*
X0036214Y0188111D01*
X0036464Y0188361D01*
X0035227Y0183422D02*
X0034227Y0183422D01*
X0033976Y0183172D01*
X0033976Y0182671D01*
X0034227Y0182421D01*
X0034477Y0182421D01*
X0034727Y0182671D01*
X0034727Y0183422D01*
X0035227Y0183422D02*
X0035478Y0183172D01*
X0035478Y0182671D01*
X0035227Y0182421D01*
X0035478Y0181949D02*
X0034977Y0181448D01*
X0034977Y0181699D02*
X0034977Y0180948D01*
X0035478Y0180948D02*
X0033976Y0180948D01*
X0033976Y0181699D01*
X0034227Y0181949D01*
X0034727Y0181949D01*
X0034977Y0181699D01*
X0021041Y0180341D02*
X0019540Y0180341D01*
X0019540Y0179841D02*
X0019540Y0180842D01*
X0019790Y0179369D02*
X0019540Y0179118D01*
X0019540Y0178618D01*
X0019790Y0178368D01*
X0020791Y0178368D01*
X0021041Y0178618D01*
X0021041Y0179118D01*
X0020791Y0179369D01*
X0021041Y0177895D02*
X0020040Y0177895D01*
X0019540Y0177395D01*
X0020040Y0176894D01*
X0021041Y0176894D01*
X0020290Y0176894D02*
X0020290Y0177895D01*
X0092832Y0196243D02*
X0093082Y0195993D01*
X0093583Y0195993D01*
X0093833Y0196243D01*
X0094305Y0196243D02*
X0094555Y0195993D01*
X0095056Y0195993D01*
X0095306Y0196243D01*
X0095306Y0196744D01*
X0095056Y0196994D01*
X0094806Y0196994D01*
X0094305Y0196744D01*
X0094305Y0197494D01*
X0095306Y0197494D01*
X0095778Y0197494D02*
X0095778Y0196744D01*
X0096279Y0196994D01*
X0096529Y0196994D01*
X0096779Y0196744D01*
X0096779Y0196243D01*
X0096529Y0195993D01*
X0096029Y0195993D01*
X0095778Y0196243D01*
X0095778Y0197494D02*
X0096779Y0197494D01*
X0093833Y0197244D02*
X0093583Y0197494D01*
X0093082Y0197494D01*
X0092832Y0197244D01*
X0092832Y0196243D01*
X0120864Y0193584D02*
X0120864Y0193083D01*
X0121115Y0192833D01*
X0121365Y0192833D01*
X0121615Y0193083D01*
X0121615Y0193834D01*
X0121115Y0193834D02*
X0120864Y0193584D01*
X0121115Y0193834D02*
X0122116Y0193834D01*
X0122366Y0193584D01*
X0122366Y0193083D01*
X0122116Y0192833D01*
X0122366Y0192361D02*
X0122366Y0191360D01*
X0122366Y0191860D02*
X0120864Y0191860D01*
X0121365Y0191360D01*
X0121115Y0190887D02*
X0120864Y0190637D01*
X0120864Y0190137D01*
X0121115Y0189887D01*
X0122116Y0189887D01*
X0122366Y0190137D01*
X0122366Y0190637D01*
X0122116Y0190887D01*
X0129132Y0190637D02*
X0129132Y0190137D01*
X0129382Y0189887D01*
X0130383Y0189887D01*
X0130633Y0190137D01*
X0130633Y0190637D01*
X0130383Y0190887D01*
X0130633Y0191360D02*
X0129633Y0192361D01*
X0129382Y0192361D01*
X0129132Y0192111D01*
X0129132Y0191610D01*
X0129382Y0191360D01*
X0129382Y0190887D02*
X0129132Y0190637D01*
X0130633Y0191360D02*
X0130633Y0192361D01*
X0130383Y0192833D02*
X0130633Y0193083D01*
X0130633Y0193584D01*
X0130383Y0193834D01*
X0130133Y0193834D01*
X0129883Y0193584D01*
X0129883Y0193334D01*
X0129883Y0193584D02*
X0129633Y0193834D01*
X0129382Y0193834D01*
X0129132Y0193584D01*
X0129132Y0193083D01*
X0129382Y0192833D01*
X0121115Y0181629D02*
X0122116Y0180628D01*
X0122366Y0180628D01*
X0122366Y0179906D02*
X0120864Y0179906D01*
X0121615Y0179155D01*
X0121615Y0180156D01*
X0120864Y0180628D02*
X0120864Y0181629D01*
X0121115Y0181629D01*
X0121115Y0178683D02*
X0120864Y0178433D01*
X0120864Y0177932D01*
X0121115Y0177682D01*
X0122116Y0177682D01*
X0122366Y0177932D01*
X0122366Y0178433D01*
X0122116Y0178683D01*
X0112745Y0174577D02*
X0111744Y0174577D01*
X0112495Y0175327D01*
X0112495Y0173826D01*
X0111272Y0173826D02*
X0110271Y0173826D01*
X0110271Y0175327D01*
X0107946Y0172297D02*
X0107196Y0171547D01*
X0108197Y0171547D01*
X0107946Y0172297D02*
X0107946Y0170796D01*
X0106723Y0171046D02*
X0106473Y0170796D01*
X0105973Y0170796D01*
X0105722Y0171046D01*
X0105250Y0171046D02*
X0105000Y0170796D01*
X0104499Y0170796D01*
X0104249Y0171046D01*
X0104249Y0172047D01*
X0104499Y0172297D01*
X0105000Y0172297D01*
X0105250Y0172047D01*
X0105722Y0172297D02*
X0105722Y0171547D01*
X0106223Y0171797D01*
X0106473Y0171797D01*
X0106723Y0171547D01*
X0106723Y0171046D01*
X0106723Y0172297D02*
X0105722Y0172297D01*
X0105000Y0164030D02*
X0104499Y0164030D01*
X0104249Y0163779D01*
X0104249Y0162779D01*
X0104499Y0162528D01*
X0105000Y0162528D01*
X0105250Y0162779D01*
X0105722Y0163279D02*
X0106723Y0163279D01*
X0107196Y0163779D02*
X0107446Y0164030D01*
X0107946Y0164030D01*
X0108197Y0163779D01*
X0108197Y0163529D01*
X0107946Y0163279D01*
X0108197Y0163029D01*
X0108197Y0162779D01*
X0107946Y0162528D01*
X0107446Y0162528D01*
X0107196Y0162779D01*
X0107696Y0163279D02*
X0107946Y0163279D01*
X0106473Y0164030D02*
X0105722Y0163279D01*
X0105250Y0163779D02*
X0105000Y0164030D01*
X0106473Y0164030D02*
X0106473Y0162528D01*
X0119034Y0163196D02*
X0119034Y0164697D01*
X0119785Y0164697D01*
X0120035Y0164447D01*
X0120035Y0163947D01*
X0119785Y0163696D01*
X0119034Y0163696D01*
X0119535Y0163696D02*
X0120035Y0163196D01*
X0120507Y0163446D02*
X0120758Y0163196D01*
X0121258Y0163196D01*
X0121508Y0163446D01*
X0121508Y0163696D01*
X0121258Y0163947D01*
X0120507Y0163947D01*
X0120507Y0163446D01*
X0120507Y0163947D02*
X0121008Y0164447D01*
X0121508Y0164697D01*
X0121981Y0164197D02*
X0122481Y0164697D01*
X0122481Y0163196D01*
X0121981Y0163196D02*
X0122982Y0163196D01*
X0131239Y0163196D02*
X0131239Y0164697D01*
X0131990Y0164697D01*
X0132240Y0164447D01*
X0132240Y0163947D01*
X0131990Y0163696D01*
X0131239Y0163696D01*
X0131739Y0163696D02*
X0132240Y0163196D01*
X0132712Y0163446D02*
X0132962Y0163196D01*
X0133463Y0163196D01*
X0133713Y0163446D01*
X0133713Y0163696D01*
X0133463Y0163947D01*
X0132712Y0163947D01*
X0132712Y0163446D01*
X0132712Y0163947D02*
X0133213Y0164447D01*
X0133713Y0164697D01*
X0134185Y0164447D02*
X0134436Y0164697D01*
X0134936Y0164697D01*
X0135186Y0164447D01*
X0135186Y0164197D01*
X0134185Y0163196D01*
X0135186Y0163196D01*
X0156611Y0171046D02*
X0156862Y0170796D01*
X0157362Y0170796D01*
X0157612Y0171046D01*
X0158085Y0171547D02*
X0158835Y0172297D01*
X0158835Y0170796D01*
X0159558Y0171046D02*
X0159558Y0171296D01*
X0159808Y0171547D01*
X0160309Y0171547D01*
X0160559Y0171296D01*
X0160559Y0171046D01*
X0160309Y0170796D01*
X0159808Y0170796D01*
X0159558Y0171046D01*
X0159808Y0171547D02*
X0159558Y0171797D01*
X0159558Y0172047D01*
X0159808Y0172297D01*
X0160309Y0172297D01*
X0160559Y0172047D01*
X0160559Y0171797D01*
X0160309Y0171547D01*
X0159086Y0171547D02*
X0158085Y0171547D01*
X0157612Y0172047D02*
X0157362Y0172297D01*
X0156862Y0172297D01*
X0156611Y0172047D01*
X0156611Y0171046D01*
X0156862Y0179064D02*
X0157362Y0179064D01*
X0157612Y0179314D01*
X0158085Y0179814D02*
X0159086Y0179814D01*
X0159558Y0179814D02*
X0160309Y0179814D01*
X0160559Y0179564D01*
X0160559Y0179314D01*
X0160309Y0179064D01*
X0159808Y0179064D01*
X0159558Y0179314D01*
X0159558Y0179814D01*
X0160058Y0180315D01*
X0160559Y0180565D01*
X0158835Y0180565D02*
X0158085Y0179814D01*
X0157612Y0180315D02*
X0157362Y0180565D01*
X0156862Y0180565D01*
X0156611Y0180315D01*
X0156611Y0179314D01*
X0156862Y0179064D01*
X0158835Y0179064D02*
X0158835Y0180565D01*
X0200017Y0158419D02*
X0200768Y0158419D01*
X0201018Y0158169D01*
X0201018Y0157669D01*
X0200768Y0157419D01*
X0200017Y0157419D01*
X0200517Y0157419D02*
X0201018Y0156918D01*
X0201490Y0157168D02*
X0201740Y0156918D01*
X0202241Y0156918D01*
X0202491Y0157168D01*
X0202491Y0157419D01*
X0202241Y0157669D01*
X0201991Y0157669D01*
X0202241Y0157669D02*
X0202491Y0157919D01*
X0202491Y0158169D01*
X0202241Y0158419D01*
X0201740Y0158419D01*
X0201490Y0158169D01*
X0200017Y0158419D02*
X0200017Y0156918D01*
X0202963Y0157168D02*
X0203214Y0156918D01*
X0203714Y0156918D01*
X0203964Y0157168D01*
X0203964Y0157419D01*
X0203714Y0157669D01*
X0202963Y0157669D01*
X0202963Y0157168D01*
X0202963Y0157669D02*
X0203464Y0158169D01*
X0203964Y0158419D01*
X0209152Y0116180D02*
X0209402Y0116180D01*
X0210403Y0115179D01*
X0210653Y0115179D01*
X0210403Y0114706D02*
X0210653Y0114456D01*
X0210653Y0113956D01*
X0210403Y0113706D01*
X0209402Y0113706D01*
X0209152Y0113956D01*
X0209152Y0114456D01*
X0209402Y0114706D01*
X0209152Y0115179D02*
X0209152Y0116180D01*
X0209618Y0111274D02*
X0209367Y0111023D01*
X0209367Y0110023D01*
X0209618Y0109772D01*
X0210118Y0109772D01*
X0210368Y0110023D01*
X0210841Y0110023D02*
X0211091Y0109772D01*
X0211591Y0109772D01*
X0211841Y0110023D01*
X0211841Y0110273D01*
X0211591Y0110523D01*
X0211341Y0110523D01*
X0211591Y0110523D02*
X0211841Y0110773D01*
X0211841Y0111023D01*
X0211591Y0111274D01*
X0211091Y0111274D01*
X0210841Y0111023D01*
X0210368Y0111023D02*
X0210118Y0111274D01*
X0209618Y0111274D01*
X0212314Y0111023D02*
X0212564Y0111274D01*
X0213064Y0111274D01*
X0213315Y0111023D01*
X0212314Y0110023D01*
X0212564Y0109772D01*
X0213064Y0109772D01*
X0213315Y0110023D01*
X0213315Y0111023D01*
X0212314Y0111023D02*
X0212314Y0110023D01*
X0135362Y0055762D02*
X0134361Y0055762D01*
X0133388Y0055762D02*
X0133388Y0054261D01*
X0132888Y0054261D02*
X0133889Y0054261D01*
X0134361Y0054261D02*
X0134361Y0054511D01*
X0135362Y0055512D01*
X0135362Y0055762D01*
X0133388Y0055762D02*
X0132888Y0055261D01*
X0132415Y0055011D02*
X0132165Y0054761D01*
X0131415Y0054761D01*
X0131915Y0054761D02*
X0132415Y0054261D01*
X0132415Y0055011D02*
X0132415Y0055512D01*
X0132165Y0055762D01*
X0131415Y0055762D01*
X0131415Y0054261D01*
X0109204Y0043341D02*
X0109204Y0042340D01*
X0109204Y0042841D02*
X0107703Y0042841D01*
X0108203Y0042340D01*
X0107953Y0041868D02*
X0107703Y0041868D01*
X0107953Y0041868D02*
X0108454Y0041367D01*
X0109204Y0041367D01*
X0108454Y0041367D02*
X0107953Y0040867D01*
X0107703Y0040867D01*
X0098698Y0046091D02*
X0098698Y0047593D01*
X0097947Y0046842D01*
X0098948Y0046842D01*
X0097474Y0046842D02*
X0097224Y0046592D01*
X0096474Y0046592D01*
X0096974Y0046592D02*
X0097474Y0046091D01*
X0097474Y0046842D02*
X0097474Y0047342D01*
X0097224Y0047593D01*
X0096474Y0047593D01*
X0096474Y0046091D01*
X0080852Y0033959D02*
X0080601Y0034209D01*
X0080351Y0034209D01*
X0080101Y0033959D01*
X0080101Y0033709D01*
X0080101Y0033959D02*
X0079851Y0034209D01*
X0079601Y0034209D01*
X0079350Y0033959D01*
X0079350Y0033459D01*
X0079601Y0033209D01*
X0079601Y0032736D02*
X0080101Y0032736D01*
X0080351Y0032486D01*
X0080351Y0031735D01*
X0080852Y0031735D02*
X0079350Y0031735D01*
X0079350Y0032486D01*
X0079601Y0032736D01*
X0080351Y0032236D02*
X0080852Y0032736D01*
X0080601Y0033209D02*
X0080852Y0033459D01*
X0080852Y0033959D01*
X0087716Y0032384D02*
X0087716Y0031884D01*
X0087967Y0031634D01*
X0087967Y0031161D02*
X0087716Y0030911D01*
X0087716Y0030411D01*
X0087967Y0030161D01*
X0088968Y0030161D01*
X0089218Y0030411D01*
X0089218Y0030911D01*
X0088968Y0031161D01*
X0089218Y0031634D02*
X0088217Y0032635D01*
X0087967Y0032635D01*
X0087716Y0032384D01*
X0089218Y0032635D02*
X0089218Y0031634D01*
X0096083Y0030911D02*
X0096083Y0030411D01*
X0096333Y0030161D01*
X0097334Y0030161D01*
X0097584Y0030411D01*
X0097584Y0030911D01*
X0097334Y0031161D01*
X0096833Y0031634D02*
X0096833Y0032635D01*
X0096083Y0032384D02*
X0096833Y0031634D01*
X0096333Y0031161D02*
X0096083Y0030911D01*
X0096083Y0032384D02*
X0097584Y0032384D01*
X0103286Y0031376D02*
X0103286Y0030375D01*
X0103536Y0030125D01*
X0104037Y0030125D01*
X0104287Y0030375D01*
X0104759Y0030876D02*
X0105760Y0030876D01*
X0106233Y0031376D02*
X0106483Y0031626D01*
X0106983Y0031626D01*
X0107233Y0031376D01*
X0106233Y0030375D01*
X0106483Y0030125D01*
X0106983Y0030125D01*
X0107233Y0030375D01*
X0107233Y0031376D01*
X0106233Y0031376D02*
X0106233Y0030375D01*
X0105510Y0030125D02*
X0105510Y0031626D01*
X0104759Y0030876D01*
X0104287Y0031376D02*
X0104037Y0031626D01*
X0103536Y0031626D01*
X0103286Y0031376D01*
X0104759Y0023359D02*
X0104759Y0021857D01*
X0105760Y0021857D01*
X0106233Y0022108D02*
X0106483Y0021857D01*
X0106983Y0021857D01*
X0107233Y0022108D01*
X0107233Y0022358D01*
X0106983Y0022608D01*
X0106733Y0022608D01*
X0106983Y0022608D02*
X0107233Y0022858D01*
X0107233Y0023109D01*
X0106983Y0023359D01*
X0106483Y0023359D01*
X0106233Y0023109D01*
X0106483Y0015091D02*
X0106983Y0015091D01*
X0107233Y0014841D01*
X0107233Y0014591D01*
X0106983Y0014340D01*
X0107233Y0014090D01*
X0107233Y0013840D01*
X0106983Y0013590D01*
X0106483Y0013590D01*
X0106233Y0013840D01*
X0105760Y0013590D02*
X0104759Y0013590D01*
X0104287Y0013590D02*
X0103787Y0014090D01*
X0104037Y0014090D02*
X0103286Y0014090D01*
X0103286Y0013590D02*
X0103286Y0015091D01*
X0104037Y0015091D01*
X0104287Y0014841D01*
X0104287Y0014340D01*
X0104037Y0014090D01*
X0104759Y0014591D02*
X0105260Y0015091D01*
X0105260Y0013590D01*
X0106233Y0014841D02*
X0106483Y0015091D01*
X0106733Y0014340D02*
X0106983Y0014340D01*
X0069434Y0036710D02*
X0069434Y0037210D01*
X0069184Y0037461D01*
X0069434Y0037933D02*
X0069434Y0038934D01*
X0069434Y0038433D02*
X0067933Y0038433D01*
X0068433Y0037933D01*
X0068183Y0037461D02*
X0067933Y0037210D01*
X0067933Y0036710D01*
X0068183Y0036460D01*
X0069184Y0036460D01*
X0069434Y0036710D01*
X0061068Y0036710D02*
X0061068Y0037210D01*
X0060818Y0037461D01*
X0060818Y0037933D02*
X0061068Y0038183D01*
X0061068Y0038684D01*
X0060818Y0038934D01*
X0060568Y0038934D01*
X0060317Y0038684D01*
X0060317Y0038433D01*
X0060317Y0038684D02*
X0060067Y0038934D01*
X0059817Y0038934D01*
X0059567Y0038684D01*
X0059567Y0038183D01*
X0059817Y0037933D01*
X0059817Y0037461D02*
X0059567Y0037210D01*
X0059567Y0036710D01*
X0059817Y0036460D01*
X0060818Y0036460D01*
X0061068Y0036710D01*
X0049261Y0031770D02*
X0049261Y0031520D01*
X0048260Y0030519D01*
X0049261Y0030519D01*
X0049261Y0031770D02*
X0049011Y0032020D01*
X0048510Y0032020D01*
X0048260Y0031770D01*
X0047788Y0031770D02*
X0047788Y0031520D01*
X0047538Y0031270D01*
X0047788Y0031019D01*
X0047788Y0030769D01*
X0047538Y0030519D01*
X0047037Y0030519D01*
X0046787Y0030769D01*
X0046315Y0030769D02*
X0046064Y0030519D01*
X0045564Y0030519D01*
X0045314Y0030769D01*
X0045314Y0031770D01*
X0045564Y0032020D01*
X0046064Y0032020D01*
X0046315Y0031770D01*
X0046787Y0031770D02*
X0047037Y0032020D01*
X0047538Y0032020D01*
X0047788Y0031770D01*
X0047538Y0031270D02*
X0047287Y0031270D01*
X0036958Y0031770D02*
X0035957Y0030769D01*
X0035957Y0030519D01*
X0035485Y0030519D02*
X0034984Y0031019D01*
X0035234Y0031019D02*
X0034484Y0031019D01*
X0034484Y0030519D02*
X0034484Y0032020D01*
X0035234Y0032020D01*
X0035485Y0031770D01*
X0035485Y0031270D01*
X0035234Y0031019D01*
X0035957Y0032020D02*
X0036958Y0032020D01*
X0036958Y0031770D01*
X0036708Y0038885D02*
X0036958Y0039135D01*
X0036958Y0039385D01*
X0036708Y0039636D01*
X0035957Y0039636D01*
X0035957Y0039135D01*
X0036207Y0038885D01*
X0036708Y0038885D01*
X0035957Y0039636D02*
X0036457Y0040136D01*
X0036958Y0040386D01*
X0035485Y0040136D02*
X0035485Y0039636D01*
X0035234Y0039385D01*
X0034484Y0039385D01*
X0034484Y0038885D02*
X0034484Y0040386D01*
X0035234Y0040386D01*
X0035485Y0040136D01*
X0034984Y0039385D02*
X0035485Y0038885D01*
X0042733Y0046485D02*
X0043734Y0046485D01*
X0044207Y0046485D02*
X0045208Y0047486D01*
X0045208Y0047736D01*
X0044957Y0047986D01*
X0044457Y0047986D01*
X0044207Y0047736D01*
X0044207Y0046485D02*
X0045208Y0046485D01*
X0042733Y0046485D02*
X0042733Y0047986D01*
X0042500Y0054851D02*
X0042750Y0055101D01*
X0042500Y0054851D02*
X0041999Y0054851D01*
X0041749Y0055101D01*
X0041749Y0056102D01*
X0041999Y0056352D01*
X0042500Y0056352D01*
X0042750Y0056102D01*
X0043222Y0055602D02*
X0044223Y0055602D01*
X0044696Y0055852D02*
X0045196Y0056352D01*
X0045196Y0054851D01*
X0044696Y0054851D02*
X0045697Y0054851D01*
X0043973Y0054851D02*
X0043973Y0056352D01*
X0043222Y0055602D01*
X0045000Y0068842D02*
X0045000Y0069592D01*
X0045250Y0069843D01*
X0045751Y0069843D01*
X0046001Y0069592D01*
X0046001Y0068842D01*
X0046001Y0069342D02*
X0046501Y0069843D01*
X0046251Y0070315D02*
X0046001Y0070315D01*
X0045751Y0070565D01*
X0045751Y0071066D01*
X0046001Y0071316D01*
X0046251Y0071316D01*
X0046501Y0071066D01*
X0046501Y0070565D01*
X0046251Y0070315D01*
X0045751Y0070565D02*
X0045500Y0070315D01*
X0045250Y0070315D01*
X0045000Y0070565D01*
X0045000Y0071066D01*
X0045250Y0071316D01*
X0045500Y0071316D01*
X0045751Y0071066D01*
X0046501Y0068842D02*
X0045000Y0068842D01*
X0034694Y0070676D02*
X0033693Y0070676D01*
X0033221Y0070676D02*
X0032720Y0071177D01*
X0032971Y0071177D02*
X0032220Y0071177D01*
X0032220Y0070676D02*
X0032220Y0072178D01*
X0032971Y0072178D01*
X0033221Y0071927D01*
X0033221Y0071427D01*
X0032971Y0071177D01*
X0033693Y0071677D02*
X0034194Y0072178D01*
X0034194Y0070676D01*
X0030641Y0070661D02*
X0030641Y0070160D01*
X0030390Y0069910D01*
X0029890Y0069910D01*
X0029640Y0070160D01*
X0029640Y0070661D02*
X0030140Y0070911D01*
X0030390Y0070911D01*
X0030641Y0070661D01*
X0030641Y0071412D02*
X0029640Y0071412D01*
X0029640Y0070661D01*
X0029167Y0070661D02*
X0028917Y0070411D01*
X0028167Y0070411D01*
X0028667Y0070411D02*
X0029167Y0069910D01*
X0029167Y0070661D02*
X0029167Y0071161D01*
X0028917Y0071412D01*
X0028167Y0071412D01*
X0028167Y0069910D01*
X0106298Y0067164D02*
X0106298Y0066163D01*
X0107048Y0066163D01*
X0106798Y0066663D01*
X0106798Y0066914D01*
X0107048Y0067164D01*
X0107549Y0067164D01*
X0107799Y0066914D01*
X0107799Y0066413D01*
X0107549Y0066163D01*
X0107549Y0065691D02*
X0107799Y0065440D01*
X0107799Y0064940D01*
X0107549Y0064690D01*
X0106548Y0064690D01*
X0106298Y0064940D01*
X0106298Y0065440D01*
X0106548Y0065691D01*
X0106548Y0076894D02*
X0107549Y0076894D01*
X0107799Y0077145D01*
X0107799Y0077645D01*
X0107549Y0077895D01*
X0107799Y0078368D02*
X0106798Y0079369D01*
X0106548Y0079369D01*
X0106298Y0079118D01*
X0106298Y0078618D01*
X0106548Y0078368D01*
X0106548Y0077895D02*
X0106298Y0077645D01*
X0106298Y0077145D01*
X0106548Y0076894D01*
X0107799Y0078368D02*
X0107799Y0079369D01*
X0107799Y0079841D02*
X0107549Y0079841D01*
X0106548Y0080842D01*
X0106298Y0080842D01*
X0106298Y0079841D01*
D19*
X0134865Y0067746D03*
X0134865Y0059478D03*
X0134865Y0051211D03*
X0099924Y0043041D03*
X0104156Y0018140D03*
X0033880Y0035069D03*
X0033880Y0043435D03*
X0031617Y0066860D03*
X0031617Y0075226D03*
X0092345Y0102392D03*
X0089589Y0159085D03*
X0119904Y0167746D03*
X0132109Y0167746D03*
X0195888Y0168140D03*
X0213605Y0180738D03*
X0203467Y0153868D03*
X0259668Y0189400D03*
X0299136Y0175817D03*
X0282207Y0118337D03*
X0282207Y0109970D03*
X0282207Y0101604D03*
X0282207Y0093238D03*
X0267148Y0066663D03*
X0267148Y0058494D03*
X0267148Y0050423D03*
X0267148Y0042156D03*
X0267148Y0033888D03*
X0254943Y0042156D03*
X0204943Y0045896D03*
X0193132Y0045896D03*
X0193132Y0037530D03*
X0204943Y0037530D03*
X0204943Y0029163D03*
X0204943Y0020797D03*
X0193132Y0020797D03*
X0193132Y0029163D03*
X0193132Y0012431D03*
X0204943Y0012431D03*
X0191065Y0062628D03*
X0191065Y0079360D03*
D20*
X0119117Y0080344D03*
X0049038Y0093730D03*
X0041951Y0068238D03*
X0076302Y0031132D03*
X0321577Y0169518D03*
X0329943Y0169518D03*
X0338309Y0169518D03*
X0346676Y0169518D03*
X0030928Y0180344D03*
D21*
X0059274Y0173772D02*
X0059274Y0173531D01*
X0077384Y0159205D02*
X0077384Y0158965D01*
X0082109Y0168413D02*
X0082109Y0168654D01*
X0107699Y0167866D02*
X0107699Y0167626D01*
X0107699Y0159598D02*
X0107699Y0159358D01*
X0125296Y0181132D02*
X0125536Y0181132D01*
X0125536Y0193337D02*
X0125296Y0193337D01*
X0133563Y0193337D02*
X0133804Y0193337D01*
X0160061Y0176134D02*
X0160061Y0175894D01*
X0160061Y0167866D02*
X0160061Y0167626D01*
X0185532Y0187431D02*
X0185772Y0187431D01*
X0240256Y0192648D02*
X0240496Y0192648D01*
X0248622Y0192549D02*
X0248863Y0192549D01*
X0277384Y0189126D02*
X0277384Y0188886D01*
X0277384Y0197154D02*
X0277384Y0197394D01*
X0277384Y0180858D02*
X0277384Y0180618D01*
X0344609Y0154874D02*
X0344609Y0154634D01*
X0268723Y0111469D02*
X0268723Y0111228D01*
X0282207Y0083220D02*
X0282207Y0082980D01*
X0212817Y0106602D02*
X0212817Y0106843D01*
X0213583Y0117156D02*
X0213823Y0117156D01*
X0202975Y0086370D02*
X0202975Y0086130D01*
X0202975Y0078102D02*
X0202975Y0077862D01*
X0191065Y0071114D02*
X0191065Y0070874D01*
X0168056Y0076014D02*
X0167815Y0076014D01*
X0134865Y0076134D02*
X0134865Y0075894D01*
X0133290Y0084161D02*
X0133290Y0084402D01*
X0116754Y0094004D02*
X0116754Y0094244D01*
X0116754Y0102272D02*
X0116754Y0102512D01*
X0104550Y0102512D02*
X0104550Y0102272D01*
X0104550Y0094244D02*
X0104550Y0094004D01*
X0110729Y0080344D02*
X0110969Y0080344D01*
X0110969Y0068140D02*
X0110729Y0068140D01*
X0118996Y0068140D02*
X0119237Y0068140D01*
X0104156Y0034795D02*
X0104156Y0034555D01*
X0093154Y0029557D02*
X0092914Y0029557D01*
X0084788Y0029557D02*
X0084548Y0029557D01*
X0065004Y0035856D02*
X0064764Y0035856D01*
X0056638Y0035856D02*
X0056398Y0035856D01*
X0046183Y0035189D02*
X0046183Y0034949D01*
X0047660Y0051681D02*
X0047660Y0051921D01*
X0074115Y0107116D02*
X0074355Y0107116D01*
X0082185Y0107116D02*
X0082426Y0107116D01*
X0191065Y0054382D02*
X0191065Y0054142D01*
X0254943Y0034008D02*
X0254943Y0033768D01*
X0096282Y0192823D02*
X0096282Y0193063D01*
D22*
X0190770Y0190778D02*
X0190770Y0187628D01*
X0190770Y0180935D02*
X0190770Y0179360D01*
X0203369Y0179360D01*
X0203369Y0180935D01*
X0203369Y0187628D02*
X0203369Y0190778D01*
X0203369Y0197470D02*
X0203369Y0199045D01*
X0190770Y0199045D01*
X0190770Y0197470D01*
X0100219Y0119321D02*
X0100221Y0119400D01*
X0100227Y0119479D01*
X0100237Y0119558D01*
X0100251Y0119636D01*
X0100268Y0119713D01*
X0100290Y0119789D01*
X0100315Y0119864D01*
X0100345Y0119937D01*
X0100377Y0120009D01*
X0100414Y0120080D01*
X0100454Y0120148D01*
X0100497Y0120214D01*
X0100543Y0120278D01*
X0100593Y0120340D01*
X0100646Y0120399D01*
X0100701Y0120455D01*
X0100760Y0120509D01*
X0100821Y0120559D01*
X0100884Y0120607D01*
X0100950Y0120651D01*
X0101018Y0120692D01*
X0101088Y0120729D01*
X0101159Y0120763D01*
X0101233Y0120793D01*
X0101307Y0120819D01*
X0101383Y0120841D01*
X0101460Y0120860D01*
X0101538Y0120875D01*
X0101616Y0120886D01*
X0101695Y0120893D01*
X0101774Y0120896D01*
X0101853Y0120895D01*
X0101932Y0120890D01*
X0102011Y0120881D01*
X0102089Y0120868D01*
X0102166Y0120851D01*
X0102243Y0120831D01*
X0102318Y0120806D01*
X0102392Y0120778D01*
X0102465Y0120746D01*
X0102535Y0120711D01*
X0102604Y0120672D01*
X0102671Y0120629D01*
X0102736Y0120583D01*
X0102798Y0120535D01*
X0102858Y0120483D01*
X0102915Y0120428D01*
X0102969Y0120370D01*
X0103020Y0120310D01*
X0103068Y0120247D01*
X0103113Y0120182D01*
X0103155Y0120114D01*
X0103193Y0120045D01*
X0103227Y0119974D01*
X0103258Y0119901D01*
X0103286Y0119826D01*
X0103309Y0119751D01*
X0103329Y0119674D01*
X0103345Y0119597D01*
X0103357Y0119518D01*
X0103365Y0119440D01*
X0103369Y0119361D01*
X0103369Y0119281D01*
X0103365Y0119202D01*
X0103357Y0119124D01*
X0103345Y0119045D01*
X0103329Y0118968D01*
X0103309Y0118891D01*
X0103286Y0118816D01*
X0103258Y0118741D01*
X0103227Y0118668D01*
X0103193Y0118597D01*
X0103155Y0118528D01*
X0103113Y0118460D01*
X0103068Y0118395D01*
X0103020Y0118332D01*
X0102969Y0118272D01*
X0102915Y0118214D01*
X0102858Y0118159D01*
X0102798Y0118107D01*
X0102736Y0118059D01*
X0102671Y0118013D01*
X0102604Y0117970D01*
X0102535Y0117931D01*
X0102465Y0117896D01*
X0102392Y0117864D01*
X0102318Y0117836D01*
X0102243Y0117811D01*
X0102166Y0117791D01*
X0102089Y0117774D01*
X0102011Y0117761D01*
X0101932Y0117752D01*
X0101853Y0117747D01*
X0101774Y0117746D01*
X0101695Y0117749D01*
X0101616Y0117756D01*
X0101538Y0117767D01*
X0101460Y0117782D01*
X0101383Y0117801D01*
X0101307Y0117823D01*
X0101233Y0117849D01*
X0101159Y0117879D01*
X0101088Y0117913D01*
X0101018Y0117950D01*
X0100950Y0117991D01*
X0100884Y0118035D01*
X0100821Y0118083D01*
X0100760Y0118133D01*
X0100701Y0118187D01*
X0100646Y0118243D01*
X0100593Y0118302D01*
X0100543Y0118364D01*
X0100497Y0118428D01*
X0100454Y0118494D01*
X0100414Y0118562D01*
X0100377Y0118633D01*
X0100345Y0118705D01*
X0100315Y0118778D01*
X0100290Y0118853D01*
X0100268Y0118929D01*
X0100251Y0119006D01*
X0100237Y0119084D01*
X0100227Y0119163D01*
X0100221Y0119242D01*
X0100219Y0119321D01*
X0042345Y0101703D02*
X0042345Y0095207D01*
X0029746Y0095207D01*
X0029746Y0101703D01*
X0042345Y0101703D01*
D23*
X0348250Y0186250D02*
X0348374Y0186252D01*
X0348497Y0186258D01*
X0348621Y0186267D01*
X0348743Y0186281D01*
X0348866Y0186298D01*
X0348988Y0186320D01*
X0349109Y0186345D01*
X0349229Y0186374D01*
X0349348Y0186406D01*
X0349467Y0186443D01*
X0349584Y0186483D01*
X0349699Y0186526D01*
X0349814Y0186574D01*
X0349926Y0186625D01*
X0350037Y0186679D01*
X0350147Y0186737D01*
X0350254Y0186798D01*
X0350360Y0186863D01*
X0350463Y0186931D01*
X0350564Y0187002D01*
X0350663Y0187076D01*
X0350760Y0187153D01*
X0350854Y0187234D01*
X0350945Y0187317D01*
X0351034Y0187403D01*
X0351120Y0187492D01*
X0351203Y0187583D01*
X0351284Y0187677D01*
X0351361Y0187774D01*
X0351435Y0187873D01*
X0351506Y0187974D01*
X0351574Y0188077D01*
X0351639Y0188183D01*
X0351700Y0188290D01*
X0351758Y0188400D01*
X0351812Y0188511D01*
X0351863Y0188623D01*
X0351911Y0188738D01*
X0351954Y0188853D01*
X0351994Y0188970D01*
X0352031Y0189089D01*
X0352063Y0189208D01*
X0352092Y0189328D01*
X0352117Y0189449D01*
X0352139Y0189571D01*
X0352156Y0189694D01*
X0352170Y0189816D01*
X0352179Y0189940D01*
X0352185Y0190063D01*
X0352187Y0190187D01*
X0352185Y0190311D01*
X0352179Y0190434D01*
X0352170Y0190558D01*
X0352156Y0190680D01*
X0352139Y0190803D01*
X0352117Y0190925D01*
X0352092Y0191046D01*
X0352063Y0191166D01*
X0352031Y0191285D01*
X0351994Y0191404D01*
X0351954Y0191521D01*
X0351911Y0191636D01*
X0351863Y0191751D01*
X0351812Y0191863D01*
X0351758Y0191974D01*
X0351700Y0192084D01*
X0351639Y0192191D01*
X0351574Y0192297D01*
X0351506Y0192400D01*
X0351435Y0192501D01*
X0351361Y0192600D01*
X0351284Y0192697D01*
X0351203Y0192791D01*
X0351120Y0192882D01*
X0351034Y0192971D01*
X0350945Y0193057D01*
X0350854Y0193140D01*
X0350760Y0193221D01*
X0350663Y0193298D01*
X0350564Y0193372D01*
X0350463Y0193443D01*
X0350360Y0193511D01*
X0350254Y0193576D01*
X0350147Y0193637D01*
X0350037Y0193695D01*
X0349926Y0193749D01*
X0349814Y0193800D01*
X0349699Y0193848D01*
X0349584Y0193891D01*
X0349467Y0193931D01*
X0349348Y0193968D01*
X0349229Y0194000D01*
X0349109Y0194029D01*
X0348988Y0194054D01*
X0348866Y0194076D01*
X0348743Y0194093D01*
X0348621Y0194107D01*
X0348497Y0194116D01*
X0348374Y0194122D01*
X0348250Y0194124D01*
M02*
