G75*
%MOIN*%
%OFA0B0*%
%FSLAX25Y25*%
%IPPOS*%
%LPD*%
%AMOC8*
5,1,8,0,0,1.08239X$1,22.5*
%
%ADD10C,0.00000*%
%ADD11C,0.05400*%
%ADD12C,0.13100*%
%ADD13R,0.01181X0.07480*%
%ADD14C,0.08268*%
%ADD15R,0.01575X0.05315*%
%ADD16C,0.05020*%
%ADD17C,0.06791*%
%ADD18R,0.04724X0.01181*%
%ADD19R,0.01181X0.04724*%
%ADD20R,0.00984X0.06693*%
%ADD21R,0.06693X0.00984*%
%ADD22R,0.06500X0.06500*%
%ADD23C,0.06500*%
%ADD24C,0.01969*%
%ADD25R,0.02362X0.04331*%
%ADD26R,0.09449X0.06299*%
%ADD27R,0.09449X0.11024*%
%ADD28R,0.09449X0.08661*%
%ADD29R,0.11024X0.09449*%
%ADD30R,0.09449X0.07874*%
%ADD31R,0.04331X0.03937*%
%ADD32R,0.03937X0.04331*%
%ADD33R,0.04331X0.07480*%
%ADD34C,0.07400*%
%ADD35C,0.01181*%
%ADD36R,0.03937X0.07087*%
%ADD37R,0.03268X0.02480*%
%ADD38R,0.04331X0.02362*%
%ADD39C,0.31496*%
%ADD40R,0.12500X0.12500*%
%ADD41R,0.04724X0.02362*%
%ADD42R,0.05512X0.06299*%
%ADD43C,0.01339*%
%ADD44R,0.03937X0.07874*%
%ADD45R,0.05906X0.03937*%
%ADD46R,0.03150X0.03937*%
%ADD47R,0.02559X0.01969*%
%ADD48C,0.05906*%
%ADD49C,0.07677*%
%ADD50R,0.05079X0.04882*%
%ADD51R,0.06299X0.05512*%
%ADD52C,0.00600*%
%ADD53OC8,0.02000*%
%ADD54C,0.00787*%
%ADD55C,0.01969*%
%ADD56C,0.01200*%
%ADD57OC8,0.02001*%
%ADD58C,0.02400*%
%ADD59C,0.01575*%
D10*
X0019904Y0016959D02*
X0019904Y0213809D01*
X0019907Y0214094D01*
X0019918Y0214380D01*
X0019935Y0214665D01*
X0019959Y0214949D01*
X0019990Y0215233D01*
X0020028Y0215516D01*
X0020073Y0215797D01*
X0020124Y0216078D01*
X0020182Y0216358D01*
X0020247Y0216636D01*
X0020319Y0216912D01*
X0020397Y0217186D01*
X0020482Y0217459D01*
X0020574Y0217729D01*
X0020672Y0217997D01*
X0020776Y0218263D01*
X0020887Y0218526D01*
X0021004Y0218786D01*
X0021127Y0219044D01*
X0021257Y0219298D01*
X0021393Y0219549D01*
X0021534Y0219797D01*
X0021682Y0220041D01*
X0021835Y0220282D01*
X0021995Y0220518D01*
X0022160Y0220751D01*
X0022330Y0220980D01*
X0022506Y0221205D01*
X0022688Y0221425D01*
X0022874Y0221641D01*
X0023066Y0221852D01*
X0023263Y0222059D01*
X0023465Y0222261D01*
X0023672Y0222458D01*
X0023883Y0222650D01*
X0024099Y0222836D01*
X0024319Y0223018D01*
X0024544Y0223194D01*
X0024773Y0223364D01*
X0025006Y0223529D01*
X0025242Y0223689D01*
X0025483Y0223842D01*
X0025727Y0223990D01*
X0025975Y0224131D01*
X0026226Y0224267D01*
X0026480Y0224397D01*
X0026738Y0224520D01*
X0026998Y0224637D01*
X0027261Y0224748D01*
X0027527Y0224852D01*
X0027795Y0224950D01*
X0028065Y0225042D01*
X0028338Y0225127D01*
X0028612Y0225205D01*
X0028888Y0225277D01*
X0029166Y0225342D01*
X0029446Y0225400D01*
X0029727Y0225451D01*
X0030008Y0225496D01*
X0030291Y0225534D01*
X0030575Y0225565D01*
X0030859Y0225589D01*
X0031144Y0225606D01*
X0031430Y0225617D01*
X0031715Y0225620D01*
X0342739Y0225620D01*
X0343024Y0225617D01*
X0343310Y0225606D01*
X0343595Y0225589D01*
X0343879Y0225565D01*
X0344163Y0225534D01*
X0344446Y0225496D01*
X0344727Y0225451D01*
X0345008Y0225400D01*
X0345288Y0225342D01*
X0345566Y0225277D01*
X0345842Y0225205D01*
X0346116Y0225127D01*
X0346389Y0225042D01*
X0346659Y0224950D01*
X0346927Y0224852D01*
X0347193Y0224748D01*
X0347456Y0224637D01*
X0347716Y0224520D01*
X0347974Y0224397D01*
X0348228Y0224267D01*
X0348479Y0224131D01*
X0348727Y0223990D01*
X0348971Y0223842D01*
X0349212Y0223689D01*
X0349448Y0223529D01*
X0349681Y0223364D01*
X0349910Y0223194D01*
X0350135Y0223018D01*
X0350355Y0222836D01*
X0350571Y0222650D01*
X0350782Y0222458D01*
X0350989Y0222261D01*
X0351191Y0222059D01*
X0351388Y0221852D01*
X0351580Y0221641D01*
X0351766Y0221425D01*
X0351948Y0221205D01*
X0352124Y0220980D01*
X0352294Y0220751D01*
X0352459Y0220518D01*
X0352619Y0220282D01*
X0352772Y0220041D01*
X0352920Y0219797D01*
X0353061Y0219549D01*
X0353197Y0219298D01*
X0353327Y0219044D01*
X0353450Y0218786D01*
X0353567Y0218526D01*
X0353678Y0218263D01*
X0353782Y0217997D01*
X0353880Y0217729D01*
X0353972Y0217459D01*
X0354057Y0217186D01*
X0354135Y0216912D01*
X0354207Y0216636D01*
X0354272Y0216358D01*
X0354330Y0216078D01*
X0354381Y0215797D01*
X0354426Y0215516D01*
X0354464Y0215233D01*
X0354495Y0214949D01*
X0354519Y0214665D01*
X0354536Y0214380D01*
X0354547Y0214094D01*
X0354550Y0213809D01*
X0354550Y0016959D01*
X0354547Y0016674D01*
X0354536Y0016388D01*
X0354519Y0016103D01*
X0354495Y0015819D01*
X0354464Y0015535D01*
X0354426Y0015252D01*
X0354381Y0014971D01*
X0354330Y0014690D01*
X0354272Y0014410D01*
X0354207Y0014132D01*
X0354135Y0013856D01*
X0354057Y0013582D01*
X0353972Y0013309D01*
X0353880Y0013039D01*
X0353782Y0012771D01*
X0353678Y0012505D01*
X0353567Y0012242D01*
X0353450Y0011982D01*
X0353327Y0011724D01*
X0353197Y0011470D01*
X0353061Y0011219D01*
X0352920Y0010971D01*
X0352772Y0010727D01*
X0352619Y0010486D01*
X0352459Y0010250D01*
X0352294Y0010017D01*
X0352124Y0009788D01*
X0351948Y0009563D01*
X0351766Y0009343D01*
X0351580Y0009127D01*
X0351388Y0008916D01*
X0351191Y0008709D01*
X0350989Y0008507D01*
X0350782Y0008310D01*
X0350571Y0008118D01*
X0350355Y0007932D01*
X0350135Y0007750D01*
X0349910Y0007574D01*
X0349681Y0007404D01*
X0349448Y0007239D01*
X0349212Y0007079D01*
X0348971Y0006926D01*
X0348727Y0006778D01*
X0348479Y0006637D01*
X0348228Y0006501D01*
X0347974Y0006371D01*
X0347716Y0006248D01*
X0347456Y0006131D01*
X0347193Y0006020D01*
X0346927Y0005916D01*
X0346659Y0005818D01*
X0346389Y0005726D01*
X0346116Y0005641D01*
X0345842Y0005563D01*
X0345566Y0005491D01*
X0345288Y0005426D01*
X0345008Y0005368D01*
X0344727Y0005317D01*
X0344446Y0005272D01*
X0344163Y0005234D01*
X0343879Y0005203D01*
X0343595Y0005179D01*
X0343310Y0005162D01*
X0343024Y0005151D01*
X0342739Y0005148D01*
X0031715Y0005148D01*
X0031430Y0005151D01*
X0031144Y0005162D01*
X0030859Y0005179D01*
X0030575Y0005203D01*
X0030291Y0005234D01*
X0030008Y0005272D01*
X0029727Y0005317D01*
X0029446Y0005368D01*
X0029166Y0005426D01*
X0028888Y0005491D01*
X0028612Y0005563D01*
X0028338Y0005641D01*
X0028065Y0005726D01*
X0027795Y0005818D01*
X0027527Y0005916D01*
X0027261Y0006020D01*
X0026998Y0006131D01*
X0026738Y0006248D01*
X0026480Y0006371D01*
X0026226Y0006501D01*
X0025975Y0006637D01*
X0025727Y0006778D01*
X0025483Y0006926D01*
X0025242Y0007079D01*
X0025006Y0007239D01*
X0024773Y0007404D01*
X0024544Y0007574D01*
X0024319Y0007750D01*
X0024099Y0007932D01*
X0023883Y0008118D01*
X0023672Y0008310D01*
X0023465Y0008507D01*
X0023263Y0008709D01*
X0023066Y0008916D01*
X0022874Y0009127D01*
X0022688Y0009343D01*
X0022506Y0009563D01*
X0022330Y0009788D01*
X0022160Y0010017D01*
X0021995Y0010250D01*
X0021835Y0010486D01*
X0021682Y0010727D01*
X0021534Y0010971D01*
X0021393Y0011219D01*
X0021257Y0011470D01*
X0021127Y0011724D01*
X0021004Y0011982D01*
X0020887Y0012242D01*
X0020776Y0012505D01*
X0020672Y0012771D01*
X0020574Y0013039D01*
X0020482Y0013309D01*
X0020397Y0013582D01*
X0020319Y0013856D01*
X0020247Y0014132D01*
X0020182Y0014410D01*
X0020124Y0014690D01*
X0020073Y0014971D01*
X0020028Y0015252D01*
X0019990Y0015535D01*
X0019959Y0015819D01*
X0019935Y0016103D01*
X0019918Y0016388D01*
X0019907Y0016674D01*
X0019904Y0016959D01*
X0028270Y0018927D02*
X0028272Y0019074D01*
X0028278Y0019220D01*
X0028288Y0019366D01*
X0028302Y0019512D01*
X0028320Y0019658D01*
X0028341Y0019803D01*
X0028367Y0019947D01*
X0028397Y0020091D01*
X0028430Y0020233D01*
X0028467Y0020375D01*
X0028508Y0020516D01*
X0028553Y0020655D01*
X0028602Y0020794D01*
X0028654Y0020931D01*
X0028711Y0021066D01*
X0028770Y0021200D01*
X0028834Y0021332D01*
X0028901Y0021462D01*
X0028971Y0021591D01*
X0029045Y0021718D01*
X0029122Y0021842D01*
X0029203Y0021965D01*
X0029287Y0022085D01*
X0029374Y0022203D01*
X0029464Y0022318D01*
X0029557Y0022431D01*
X0029654Y0022542D01*
X0029753Y0022650D01*
X0029855Y0022755D01*
X0029960Y0022857D01*
X0030068Y0022956D01*
X0030179Y0023053D01*
X0030292Y0023146D01*
X0030407Y0023236D01*
X0030525Y0023323D01*
X0030645Y0023407D01*
X0030768Y0023488D01*
X0030892Y0023565D01*
X0031019Y0023639D01*
X0031148Y0023709D01*
X0031278Y0023776D01*
X0031410Y0023840D01*
X0031544Y0023899D01*
X0031679Y0023956D01*
X0031816Y0024008D01*
X0031955Y0024057D01*
X0032094Y0024102D01*
X0032235Y0024143D01*
X0032377Y0024180D01*
X0032519Y0024213D01*
X0032663Y0024243D01*
X0032807Y0024269D01*
X0032952Y0024290D01*
X0033098Y0024308D01*
X0033244Y0024322D01*
X0033390Y0024332D01*
X0033536Y0024338D01*
X0033683Y0024340D01*
X0033830Y0024338D01*
X0033976Y0024332D01*
X0034122Y0024322D01*
X0034268Y0024308D01*
X0034414Y0024290D01*
X0034559Y0024269D01*
X0034703Y0024243D01*
X0034847Y0024213D01*
X0034989Y0024180D01*
X0035131Y0024143D01*
X0035272Y0024102D01*
X0035411Y0024057D01*
X0035550Y0024008D01*
X0035687Y0023956D01*
X0035822Y0023899D01*
X0035956Y0023840D01*
X0036088Y0023776D01*
X0036218Y0023709D01*
X0036347Y0023639D01*
X0036474Y0023565D01*
X0036598Y0023488D01*
X0036721Y0023407D01*
X0036841Y0023323D01*
X0036959Y0023236D01*
X0037074Y0023146D01*
X0037187Y0023053D01*
X0037298Y0022956D01*
X0037406Y0022857D01*
X0037511Y0022755D01*
X0037613Y0022650D01*
X0037712Y0022542D01*
X0037809Y0022431D01*
X0037902Y0022318D01*
X0037992Y0022203D01*
X0038079Y0022085D01*
X0038163Y0021965D01*
X0038244Y0021842D01*
X0038321Y0021718D01*
X0038395Y0021591D01*
X0038465Y0021462D01*
X0038532Y0021332D01*
X0038596Y0021200D01*
X0038655Y0021066D01*
X0038712Y0020931D01*
X0038764Y0020794D01*
X0038813Y0020655D01*
X0038858Y0020516D01*
X0038899Y0020375D01*
X0038936Y0020233D01*
X0038969Y0020091D01*
X0038999Y0019947D01*
X0039025Y0019803D01*
X0039046Y0019658D01*
X0039064Y0019512D01*
X0039078Y0019366D01*
X0039088Y0019220D01*
X0039094Y0019074D01*
X0039096Y0018927D01*
X0039094Y0018780D01*
X0039088Y0018634D01*
X0039078Y0018488D01*
X0039064Y0018342D01*
X0039046Y0018196D01*
X0039025Y0018051D01*
X0038999Y0017907D01*
X0038969Y0017763D01*
X0038936Y0017621D01*
X0038899Y0017479D01*
X0038858Y0017338D01*
X0038813Y0017199D01*
X0038764Y0017060D01*
X0038712Y0016923D01*
X0038655Y0016788D01*
X0038596Y0016654D01*
X0038532Y0016522D01*
X0038465Y0016392D01*
X0038395Y0016263D01*
X0038321Y0016136D01*
X0038244Y0016012D01*
X0038163Y0015889D01*
X0038079Y0015769D01*
X0037992Y0015651D01*
X0037902Y0015536D01*
X0037809Y0015423D01*
X0037712Y0015312D01*
X0037613Y0015204D01*
X0037511Y0015099D01*
X0037406Y0014997D01*
X0037298Y0014898D01*
X0037187Y0014801D01*
X0037074Y0014708D01*
X0036959Y0014618D01*
X0036841Y0014531D01*
X0036721Y0014447D01*
X0036598Y0014366D01*
X0036474Y0014289D01*
X0036347Y0014215D01*
X0036218Y0014145D01*
X0036088Y0014078D01*
X0035956Y0014014D01*
X0035822Y0013955D01*
X0035687Y0013898D01*
X0035550Y0013846D01*
X0035411Y0013797D01*
X0035272Y0013752D01*
X0035131Y0013711D01*
X0034989Y0013674D01*
X0034847Y0013641D01*
X0034703Y0013611D01*
X0034559Y0013585D01*
X0034414Y0013564D01*
X0034268Y0013546D01*
X0034122Y0013532D01*
X0033976Y0013522D01*
X0033830Y0013516D01*
X0033683Y0013514D01*
X0033536Y0013516D01*
X0033390Y0013522D01*
X0033244Y0013532D01*
X0033098Y0013546D01*
X0032952Y0013564D01*
X0032807Y0013585D01*
X0032663Y0013611D01*
X0032519Y0013641D01*
X0032377Y0013674D01*
X0032235Y0013711D01*
X0032094Y0013752D01*
X0031955Y0013797D01*
X0031816Y0013846D01*
X0031679Y0013898D01*
X0031544Y0013955D01*
X0031410Y0014014D01*
X0031278Y0014078D01*
X0031148Y0014145D01*
X0031019Y0014215D01*
X0030892Y0014289D01*
X0030768Y0014366D01*
X0030645Y0014447D01*
X0030525Y0014531D01*
X0030407Y0014618D01*
X0030292Y0014708D01*
X0030179Y0014801D01*
X0030068Y0014898D01*
X0029960Y0014997D01*
X0029855Y0015099D01*
X0029753Y0015204D01*
X0029654Y0015312D01*
X0029557Y0015423D01*
X0029464Y0015536D01*
X0029374Y0015651D01*
X0029287Y0015769D01*
X0029203Y0015889D01*
X0029122Y0016012D01*
X0029045Y0016136D01*
X0028971Y0016263D01*
X0028901Y0016392D01*
X0028834Y0016522D01*
X0028770Y0016654D01*
X0028711Y0016788D01*
X0028654Y0016923D01*
X0028602Y0017060D01*
X0028553Y0017199D01*
X0028508Y0017338D01*
X0028467Y0017479D01*
X0028430Y0017621D01*
X0028397Y0017763D01*
X0028367Y0017907D01*
X0028341Y0018051D01*
X0028320Y0018196D01*
X0028302Y0018342D01*
X0028288Y0018488D01*
X0028278Y0018634D01*
X0028272Y0018780D01*
X0028270Y0018927D01*
X0227188Y0026801D02*
X0227190Y0026916D01*
X0227196Y0027032D01*
X0227206Y0027147D01*
X0227220Y0027262D01*
X0227238Y0027376D01*
X0227260Y0027489D01*
X0227285Y0027602D01*
X0227315Y0027713D01*
X0227348Y0027824D01*
X0227385Y0027933D01*
X0227426Y0028041D01*
X0227471Y0028148D01*
X0227519Y0028253D01*
X0227571Y0028356D01*
X0227627Y0028457D01*
X0227686Y0028557D01*
X0227748Y0028654D01*
X0227814Y0028749D01*
X0227882Y0028842D01*
X0227954Y0028932D01*
X0228029Y0029020D01*
X0228108Y0029105D01*
X0228189Y0029187D01*
X0228272Y0029267D01*
X0228359Y0029343D01*
X0228448Y0029417D01*
X0228539Y0029487D01*
X0228633Y0029555D01*
X0228729Y0029619D01*
X0228828Y0029679D01*
X0228928Y0029736D01*
X0229030Y0029790D01*
X0229134Y0029840D01*
X0229240Y0029887D01*
X0229347Y0029930D01*
X0229456Y0029969D01*
X0229566Y0030004D01*
X0229677Y0030035D01*
X0229789Y0030063D01*
X0229902Y0030087D01*
X0230016Y0030107D01*
X0230131Y0030123D01*
X0230246Y0030135D01*
X0230361Y0030143D01*
X0230476Y0030147D01*
X0230592Y0030147D01*
X0230707Y0030143D01*
X0230822Y0030135D01*
X0230937Y0030123D01*
X0231052Y0030107D01*
X0231166Y0030087D01*
X0231279Y0030063D01*
X0231391Y0030035D01*
X0231502Y0030004D01*
X0231612Y0029969D01*
X0231721Y0029930D01*
X0231828Y0029887D01*
X0231934Y0029840D01*
X0232038Y0029790D01*
X0232140Y0029736D01*
X0232240Y0029679D01*
X0232339Y0029619D01*
X0232435Y0029555D01*
X0232529Y0029487D01*
X0232620Y0029417D01*
X0232709Y0029343D01*
X0232796Y0029267D01*
X0232879Y0029187D01*
X0232960Y0029105D01*
X0233039Y0029020D01*
X0233114Y0028932D01*
X0233186Y0028842D01*
X0233254Y0028749D01*
X0233320Y0028654D01*
X0233382Y0028557D01*
X0233441Y0028457D01*
X0233497Y0028356D01*
X0233549Y0028253D01*
X0233597Y0028148D01*
X0233642Y0028041D01*
X0233683Y0027933D01*
X0233720Y0027824D01*
X0233753Y0027713D01*
X0233783Y0027602D01*
X0233808Y0027489D01*
X0233830Y0027376D01*
X0233848Y0027262D01*
X0233862Y0027147D01*
X0233872Y0027032D01*
X0233878Y0026916D01*
X0233880Y0026801D01*
X0233878Y0026686D01*
X0233872Y0026570D01*
X0233862Y0026455D01*
X0233848Y0026340D01*
X0233830Y0026226D01*
X0233808Y0026113D01*
X0233783Y0026000D01*
X0233753Y0025889D01*
X0233720Y0025778D01*
X0233683Y0025669D01*
X0233642Y0025561D01*
X0233597Y0025454D01*
X0233549Y0025349D01*
X0233497Y0025246D01*
X0233441Y0025145D01*
X0233382Y0025045D01*
X0233320Y0024948D01*
X0233254Y0024853D01*
X0233186Y0024760D01*
X0233114Y0024670D01*
X0233039Y0024582D01*
X0232960Y0024497D01*
X0232879Y0024415D01*
X0232796Y0024335D01*
X0232709Y0024259D01*
X0232620Y0024185D01*
X0232529Y0024115D01*
X0232435Y0024047D01*
X0232339Y0023983D01*
X0232240Y0023923D01*
X0232140Y0023866D01*
X0232038Y0023812D01*
X0231934Y0023762D01*
X0231828Y0023715D01*
X0231721Y0023672D01*
X0231612Y0023633D01*
X0231502Y0023598D01*
X0231391Y0023567D01*
X0231279Y0023539D01*
X0231166Y0023515D01*
X0231052Y0023495D01*
X0230937Y0023479D01*
X0230822Y0023467D01*
X0230707Y0023459D01*
X0230592Y0023455D01*
X0230476Y0023455D01*
X0230361Y0023459D01*
X0230246Y0023467D01*
X0230131Y0023479D01*
X0230016Y0023495D01*
X0229902Y0023515D01*
X0229789Y0023539D01*
X0229677Y0023567D01*
X0229566Y0023598D01*
X0229456Y0023633D01*
X0229347Y0023672D01*
X0229240Y0023715D01*
X0229134Y0023762D01*
X0229030Y0023812D01*
X0228928Y0023866D01*
X0228828Y0023923D01*
X0228729Y0023983D01*
X0228633Y0024047D01*
X0228539Y0024115D01*
X0228448Y0024185D01*
X0228359Y0024259D01*
X0228272Y0024335D01*
X0228189Y0024415D01*
X0228108Y0024497D01*
X0228029Y0024582D01*
X0227954Y0024670D01*
X0227882Y0024760D01*
X0227814Y0024853D01*
X0227748Y0024948D01*
X0227686Y0025045D01*
X0227627Y0025145D01*
X0227571Y0025246D01*
X0227519Y0025349D01*
X0227471Y0025454D01*
X0227426Y0025561D01*
X0227385Y0025669D01*
X0227348Y0025778D01*
X0227315Y0025889D01*
X0227285Y0026000D01*
X0227260Y0026113D01*
X0227238Y0026226D01*
X0227220Y0026340D01*
X0227206Y0026455D01*
X0227196Y0026570D01*
X0227190Y0026686D01*
X0227188Y0026801D01*
X0256617Y0018927D02*
X0256619Y0019074D01*
X0256625Y0019220D01*
X0256635Y0019366D01*
X0256649Y0019512D01*
X0256667Y0019658D01*
X0256688Y0019803D01*
X0256714Y0019947D01*
X0256744Y0020091D01*
X0256777Y0020233D01*
X0256814Y0020375D01*
X0256855Y0020516D01*
X0256900Y0020655D01*
X0256949Y0020794D01*
X0257001Y0020931D01*
X0257058Y0021066D01*
X0257117Y0021200D01*
X0257181Y0021332D01*
X0257248Y0021462D01*
X0257318Y0021591D01*
X0257392Y0021718D01*
X0257469Y0021842D01*
X0257550Y0021965D01*
X0257634Y0022085D01*
X0257721Y0022203D01*
X0257811Y0022318D01*
X0257904Y0022431D01*
X0258001Y0022542D01*
X0258100Y0022650D01*
X0258202Y0022755D01*
X0258307Y0022857D01*
X0258415Y0022956D01*
X0258526Y0023053D01*
X0258639Y0023146D01*
X0258754Y0023236D01*
X0258872Y0023323D01*
X0258992Y0023407D01*
X0259115Y0023488D01*
X0259239Y0023565D01*
X0259366Y0023639D01*
X0259495Y0023709D01*
X0259625Y0023776D01*
X0259757Y0023840D01*
X0259891Y0023899D01*
X0260026Y0023956D01*
X0260163Y0024008D01*
X0260302Y0024057D01*
X0260441Y0024102D01*
X0260582Y0024143D01*
X0260724Y0024180D01*
X0260866Y0024213D01*
X0261010Y0024243D01*
X0261154Y0024269D01*
X0261299Y0024290D01*
X0261445Y0024308D01*
X0261591Y0024322D01*
X0261737Y0024332D01*
X0261883Y0024338D01*
X0262030Y0024340D01*
X0262177Y0024338D01*
X0262323Y0024332D01*
X0262469Y0024322D01*
X0262615Y0024308D01*
X0262761Y0024290D01*
X0262906Y0024269D01*
X0263050Y0024243D01*
X0263194Y0024213D01*
X0263336Y0024180D01*
X0263478Y0024143D01*
X0263619Y0024102D01*
X0263758Y0024057D01*
X0263897Y0024008D01*
X0264034Y0023956D01*
X0264169Y0023899D01*
X0264303Y0023840D01*
X0264435Y0023776D01*
X0264565Y0023709D01*
X0264694Y0023639D01*
X0264821Y0023565D01*
X0264945Y0023488D01*
X0265068Y0023407D01*
X0265188Y0023323D01*
X0265306Y0023236D01*
X0265421Y0023146D01*
X0265534Y0023053D01*
X0265645Y0022956D01*
X0265753Y0022857D01*
X0265858Y0022755D01*
X0265960Y0022650D01*
X0266059Y0022542D01*
X0266156Y0022431D01*
X0266249Y0022318D01*
X0266339Y0022203D01*
X0266426Y0022085D01*
X0266510Y0021965D01*
X0266591Y0021842D01*
X0266668Y0021718D01*
X0266742Y0021591D01*
X0266812Y0021462D01*
X0266879Y0021332D01*
X0266943Y0021200D01*
X0267002Y0021066D01*
X0267059Y0020931D01*
X0267111Y0020794D01*
X0267160Y0020655D01*
X0267205Y0020516D01*
X0267246Y0020375D01*
X0267283Y0020233D01*
X0267316Y0020091D01*
X0267346Y0019947D01*
X0267372Y0019803D01*
X0267393Y0019658D01*
X0267411Y0019512D01*
X0267425Y0019366D01*
X0267435Y0019220D01*
X0267441Y0019074D01*
X0267443Y0018927D01*
X0267441Y0018780D01*
X0267435Y0018634D01*
X0267425Y0018488D01*
X0267411Y0018342D01*
X0267393Y0018196D01*
X0267372Y0018051D01*
X0267346Y0017907D01*
X0267316Y0017763D01*
X0267283Y0017621D01*
X0267246Y0017479D01*
X0267205Y0017338D01*
X0267160Y0017199D01*
X0267111Y0017060D01*
X0267059Y0016923D01*
X0267002Y0016788D01*
X0266943Y0016654D01*
X0266879Y0016522D01*
X0266812Y0016392D01*
X0266742Y0016263D01*
X0266668Y0016136D01*
X0266591Y0016012D01*
X0266510Y0015889D01*
X0266426Y0015769D01*
X0266339Y0015651D01*
X0266249Y0015536D01*
X0266156Y0015423D01*
X0266059Y0015312D01*
X0265960Y0015204D01*
X0265858Y0015099D01*
X0265753Y0014997D01*
X0265645Y0014898D01*
X0265534Y0014801D01*
X0265421Y0014708D01*
X0265306Y0014618D01*
X0265188Y0014531D01*
X0265068Y0014447D01*
X0264945Y0014366D01*
X0264821Y0014289D01*
X0264694Y0014215D01*
X0264565Y0014145D01*
X0264435Y0014078D01*
X0264303Y0014014D01*
X0264169Y0013955D01*
X0264034Y0013898D01*
X0263897Y0013846D01*
X0263758Y0013797D01*
X0263619Y0013752D01*
X0263478Y0013711D01*
X0263336Y0013674D01*
X0263194Y0013641D01*
X0263050Y0013611D01*
X0262906Y0013585D01*
X0262761Y0013564D01*
X0262615Y0013546D01*
X0262469Y0013532D01*
X0262323Y0013522D01*
X0262177Y0013516D01*
X0262030Y0013514D01*
X0261883Y0013516D01*
X0261737Y0013522D01*
X0261591Y0013532D01*
X0261445Y0013546D01*
X0261299Y0013564D01*
X0261154Y0013585D01*
X0261010Y0013611D01*
X0260866Y0013641D01*
X0260724Y0013674D01*
X0260582Y0013711D01*
X0260441Y0013752D01*
X0260302Y0013797D01*
X0260163Y0013846D01*
X0260026Y0013898D01*
X0259891Y0013955D01*
X0259757Y0014014D01*
X0259625Y0014078D01*
X0259495Y0014145D01*
X0259366Y0014215D01*
X0259239Y0014289D01*
X0259115Y0014366D01*
X0258992Y0014447D01*
X0258872Y0014531D01*
X0258754Y0014618D01*
X0258639Y0014708D01*
X0258526Y0014801D01*
X0258415Y0014898D01*
X0258307Y0014997D01*
X0258202Y0015099D01*
X0258100Y0015204D01*
X0258001Y0015312D01*
X0257904Y0015423D01*
X0257811Y0015536D01*
X0257721Y0015651D01*
X0257634Y0015769D01*
X0257550Y0015889D01*
X0257469Y0016012D01*
X0257392Y0016136D01*
X0257318Y0016263D01*
X0257248Y0016392D01*
X0257181Y0016522D01*
X0257117Y0016654D01*
X0257058Y0016788D01*
X0257001Y0016923D01*
X0256949Y0017060D01*
X0256900Y0017199D01*
X0256855Y0017338D01*
X0256814Y0017479D01*
X0256777Y0017621D01*
X0256744Y0017763D01*
X0256714Y0017907D01*
X0256688Y0018051D01*
X0256667Y0018196D01*
X0256649Y0018342D01*
X0256635Y0018488D01*
X0256625Y0018634D01*
X0256619Y0018780D01*
X0256617Y0018927D01*
X0227188Y0054360D02*
X0227190Y0054475D01*
X0227196Y0054591D01*
X0227206Y0054706D01*
X0227220Y0054821D01*
X0227238Y0054935D01*
X0227260Y0055048D01*
X0227285Y0055161D01*
X0227315Y0055272D01*
X0227348Y0055383D01*
X0227385Y0055492D01*
X0227426Y0055600D01*
X0227471Y0055707D01*
X0227519Y0055812D01*
X0227571Y0055915D01*
X0227627Y0056016D01*
X0227686Y0056116D01*
X0227748Y0056213D01*
X0227814Y0056308D01*
X0227882Y0056401D01*
X0227954Y0056491D01*
X0228029Y0056579D01*
X0228108Y0056664D01*
X0228189Y0056746D01*
X0228272Y0056826D01*
X0228359Y0056902D01*
X0228448Y0056976D01*
X0228539Y0057046D01*
X0228633Y0057114D01*
X0228729Y0057178D01*
X0228828Y0057238D01*
X0228928Y0057295D01*
X0229030Y0057349D01*
X0229134Y0057399D01*
X0229240Y0057446D01*
X0229347Y0057489D01*
X0229456Y0057528D01*
X0229566Y0057563D01*
X0229677Y0057594D01*
X0229789Y0057622D01*
X0229902Y0057646D01*
X0230016Y0057666D01*
X0230131Y0057682D01*
X0230246Y0057694D01*
X0230361Y0057702D01*
X0230476Y0057706D01*
X0230592Y0057706D01*
X0230707Y0057702D01*
X0230822Y0057694D01*
X0230937Y0057682D01*
X0231052Y0057666D01*
X0231166Y0057646D01*
X0231279Y0057622D01*
X0231391Y0057594D01*
X0231502Y0057563D01*
X0231612Y0057528D01*
X0231721Y0057489D01*
X0231828Y0057446D01*
X0231934Y0057399D01*
X0232038Y0057349D01*
X0232140Y0057295D01*
X0232240Y0057238D01*
X0232339Y0057178D01*
X0232435Y0057114D01*
X0232529Y0057046D01*
X0232620Y0056976D01*
X0232709Y0056902D01*
X0232796Y0056826D01*
X0232879Y0056746D01*
X0232960Y0056664D01*
X0233039Y0056579D01*
X0233114Y0056491D01*
X0233186Y0056401D01*
X0233254Y0056308D01*
X0233320Y0056213D01*
X0233382Y0056116D01*
X0233441Y0056016D01*
X0233497Y0055915D01*
X0233549Y0055812D01*
X0233597Y0055707D01*
X0233642Y0055600D01*
X0233683Y0055492D01*
X0233720Y0055383D01*
X0233753Y0055272D01*
X0233783Y0055161D01*
X0233808Y0055048D01*
X0233830Y0054935D01*
X0233848Y0054821D01*
X0233862Y0054706D01*
X0233872Y0054591D01*
X0233878Y0054475D01*
X0233880Y0054360D01*
X0233878Y0054245D01*
X0233872Y0054129D01*
X0233862Y0054014D01*
X0233848Y0053899D01*
X0233830Y0053785D01*
X0233808Y0053672D01*
X0233783Y0053559D01*
X0233753Y0053448D01*
X0233720Y0053337D01*
X0233683Y0053228D01*
X0233642Y0053120D01*
X0233597Y0053013D01*
X0233549Y0052908D01*
X0233497Y0052805D01*
X0233441Y0052704D01*
X0233382Y0052604D01*
X0233320Y0052507D01*
X0233254Y0052412D01*
X0233186Y0052319D01*
X0233114Y0052229D01*
X0233039Y0052141D01*
X0232960Y0052056D01*
X0232879Y0051974D01*
X0232796Y0051894D01*
X0232709Y0051818D01*
X0232620Y0051744D01*
X0232529Y0051674D01*
X0232435Y0051606D01*
X0232339Y0051542D01*
X0232240Y0051482D01*
X0232140Y0051425D01*
X0232038Y0051371D01*
X0231934Y0051321D01*
X0231828Y0051274D01*
X0231721Y0051231D01*
X0231612Y0051192D01*
X0231502Y0051157D01*
X0231391Y0051126D01*
X0231279Y0051098D01*
X0231166Y0051074D01*
X0231052Y0051054D01*
X0230937Y0051038D01*
X0230822Y0051026D01*
X0230707Y0051018D01*
X0230592Y0051014D01*
X0230476Y0051014D01*
X0230361Y0051018D01*
X0230246Y0051026D01*
X0230131Y0051038D01*
X0230016Y0051054D01*
X0229902Y0051074D01*
X0229789Y0051098D01*
X0229677Y0051126D01*
X0229566Y0051157D01*
X0229456Y0051192D01*
X0229347Y0051231D01*
X0229240Y0051274D01*
X0229134Y0051321D01*
X0229030Y0051371D01*
X0228928Y0051425D01*
X0228828Y0051482D01*
X0228729Y0051542D01*
X0228633Y0051606D01*
X0228539Y0051674D01*
X0228448Y0051744D01*
X0228359Y0051818D01*
X0228272Y0051894D01*
X0228189Y0051974D01*
X0228108Y0052056D01*
X0228029Y0052141D01*
X0227954Y0052229D01*
X0227882Y0052319D01*
X0227814Y0052412D01*
X0227748Y0052507D01*
X0227686Y0052604D01*
X0227627Y0052704D01*
X0227571Y0052805D01*
X0227519Y0052908D01*
X0227471Y0053013D01*
X0227426Y0053120D01*
X0227385Y0053228D01*
X0227348Y0053337D01*
X0227315Y0053448D01*
X0227285Y0053559D01*
X0227260Y0053672D01*
X0227238Y0053785D01*
X0227220Y0053899D01*
X0227206Y0054014D01*
X0227196Y0054129D01*
X0227190Y0054245D01*
X0227188Y0054360D01*
X0256617Y0211841D02*
X0256619Y0211988D01*
X0256625Y0212134D01*
X0256635Y0212280D01*
X0256649Y0212426D01*
X0256667Y0212572D01*
X0256688Y0212717D01*
X0256714Y0212861D01*
X0256744Y0213005D01*
X0256777Y0213147D01*
X0256814Y0213289D01*
X0256855Y0213430D01*
X0256900Y0213569D01*
X0256949Y0213708D01*
X0257001Y0213845D01*
X0257058Y0213980D01*
X0257117Y0214114D01*
X0257181Y0214246D01*
X0257248Y0214376D01*
X0257318Y0214505D01*
X0257392Y0214632D01*
X0257469Y0214756D01*
X0257550Y0214879D01*
X0257634Y0214999D01*
X0257721Y0215117D01*
X0257811Y0215232D01*
X0257904Y0215345D01*
X0258001Y0215456D01*
X0258100Y0215564D01*
X0258202Y0215669D01*
X0258307Y0215771D01*
X0258415Y0215870D01*
X0258526Y0215967D01*
X0258639Y0216060D01*
X0258754Y0216150D01*
X0258872Y0216237D01*
X0258992Y0216321D01*
X0259115Y0216402D01*
X0259239Y0216479D01*
X0259366Y0216553D01*
X0259495Y0216623D01*
X0259625Y0216690D01*
X0259757Y0216754D01*
X0259891Y0216813D01*
X0260026Y0216870D01*
X0260163Y0216922D01*
X0260302Y0216971D01*
X0260441Y0217016D01*
X0260582Y0217057D01*
X0260724Y0217094D01*
X0260866Y0217127D01*
X0261010Y0217157D01*
X0261154Y0217183D01*
X0261299Y0217204D01*
X0261445Y0217222D01*
X0261591Y0217236D01*
X0261737Y0217246D01*
X0261883Y0217252D01*
X0262030Y0217254D01*
X0262177Y0217252D01*
X0262323Y0217246D01*
X0262469Y0217236D01*
X0262615Y0217222D01*
X0262761Y0217204D01*
X0262906Y0217183D01*
X0263050Y0217157D01*
X0263194Y0217127D01*
X0263336Y0217094D01*
X0263478Y0217057D01*
X0263619Y0217016D01*
X0263758Y0216971D01*
X0263897Y0216922D01*
X0264034Y0216870D01*
X0264169Y0216813D01*
X0264303Y0216754D01*
X0264435Y0216690D01*
X0264565Y0216623D01*
X0264694Y0216553D01*
X0264821Y0216479D01*
X0264945Y0216402D01*
X0265068Y0216321D01*
X0265188Y0216237D01*
X0265306Y0216150D01*
X0265421Y0216060D01*
X0265534Y0215967D01*
X0265645Y0215870D01*
X0265753Y0215771D01*
X0265858Y0215669D01*
X0265960Y0215564D01*
X0266059Y0215456D01*
X0266156Y0215345D01*
X0266249Y0215232D01*
X0266339Y0215117D01*
X0266426Y0214999D01*
X0266510Y0214879D01*
X0266591Y0214756D01*
X0266668Y0214632D01*
X0266742Y0214505D01*
X0266812Y0214376D01*
X0266879Y0214246D01*
X0266943Y0214114D01*
X0267002Y0213980D01*
X0267059Y0213845D01*
X0267111Y0213708D01*
X0267160Y0213569D01*
X0267205Y0213430D01*
X0267246Y0213289D01*
X0267283Y0213147D01*
X0267316Y0213005D01*
X0267346Y0212861D01*
X0267372Y0212717D01*
X0267393Y0212572D01*
X0267411Y0212426D01*
X0267425Y0212280D01*
X0267435Y0212134D01*
X0267441Y0211988D01*
X0267443Y0211841D01*
X0267441Y0211694D01*
X0267435Y0211548D01*
X0267425Y0211402D01*
X0267411Y0211256D01*
X0267393Y0211110D01*
X0267372Y0210965D01*
X0267346Y0210821D01*
X0267316Y0210677D01*
X0267283Y0210535D01*
X0267246Y0210393D01*
X0267205Y0210252D01*
X0267160Y0210113D01*
X0267111Y0209974D01*
X0267059Y0209837D01*
X0267002Y0209702D01*
X0266943Y0209568D01*
X0266879Y0209436D01*
X0266812Y0209306D01*
X0266742Y0209177D01*
X0266668Y0209050D01*
X0266591Y0208926D01*
X0266510Y0208803D01*
X0266426Y0208683D01*
X0266339Y0208565D01*
X0266249Y0208450D01*
X0266156Y0208337D01*
X0266059Y0208226D01*
X0265960Y0208118D01*
X0265858Y0208013D01*
X0265753Y0207911D01*
X0265645Y0207812D01*
X0265534Y0207715D01*
X0265421Y0207622D01*
X0265306Y0207532D01*
X0265188Y0207445D01*
X0265068Y0207361D01*
X0264945Y0207280D01*
X0264821Y0207203D01*
X0264694Y0207129D01*
X0264565Y0207059D01*
X0264435Y0206992D01*
X0264303Y0206928D01*
X0264169Y0206869D01*
X0264034Y0206812D01*
X0263897Y0206760D01*
X0263758Y0206711D01*
X0263619Y0206666D01*
X0263478Y0206625D01*
X0263336Y0206588D01*
X0263194Y0206555D01*
X0263050Y0206525D01*
X0262906Y0206499D01*
X0262761Y0206478D01*
X0262615Y0206460D01*
X0262469Y0206446D01*
X0262323Y0206436D01*
X0262177Y0206430D01*
X0262030Y0206428D01*
X0261883Y0206430D01*
X0261737Y0206436D01*
X0261591Y0206446D01*
X0261445Y0206460D01*
X0261299Y0206478D01*
X0261154Y0206499D01*
X0261010Y0206525D01*
X0260866Y0206555D01*
X0260724Y0206588D01*
X0260582Y0206625D01*
X0260441Y0206666D01*
X0260302Y0206711D01*
X0260163Y0206760D01*
X0260026Y0206812D01*
X0259891Y0206869D01*
X0259757Y0206928D01*
X0259625Y0206992D01*
X0259495Y0207059D01*
X0259366Y0207129D01*
X0259239Y0207203D01*
X0259115Y0207280D01*
X0258992Y0207361D01*
X0258872Y0207445D01*
X0258754Y0207532D01*
X0258639Y0207622D01*
X0258526Y0207715D01*
X0258415Y0207812D01*
X0258307Y0207911D01*
X0258202Y0208013D01*
X0258100Y0208118D01*
X0258001Y0208226D01*
X0257904Y0208337D01*
X0257811Y0208450D01*
X0257721Y0208565D01*
X0257634Y0208683D01*
X0257550Y0208803D01*
X0257469Y0208926D01*
X0257392Y0209050D01*
X0257318Y0209177D01*
X0257248Y0209306D01*
X0257181Y0209436D01*
X0257117Y0209568D01*
X0257058Y0209702D01*
X0257001Y0209837D01*
X0256949Y0209974D01*
X0256900Y0210113D01*
X0256855Y0210252D01*
X0256814Y0210393D01*
X0256777Y0210535D01*
X0256744Y0210677D01*
X0256714Y0210821D01*
X0256688Y0210965D01*
X0256667Y0211110D01*
X0256649Y0211256D01*
X0256635Y0211402D01*
X0256625Y0211548D01*
X0256619Y0211694D01*
X0256617Y0211841D01*
X0028270Y0211841D02*
X0028272Y0211988D01*
X0028278Y0212134D01*
X0028288Y0212280D01*
X0028302Y0212426D01*
X0028320Y0212572D01*
X0028341Y0212717D01*
X0028367Y0212861D01*
X0028397Y0213005D01*
X0028430Y0213147D01*
X0028467Y0213289D01*
X0028508Y0213430D01*
X0028553Y0213569D01*
X0028602Y0213708D01*
X0028654Y0213845D01*
X0028711Y0213980D01*
X0028770Y0214114D01*
X0028834Y0214246D01*
X0028901Y0214376D01*
X0028971Y0214505D01*
X0029045Y0214632D01*
X0029122Y0214756D01*
X0029203Y0214879D01*
X0029287Y0214999D01*
X0029374Y0215117D01*
X0029464Y0215232D01*
X0029557Y0215345D01*
X0029654Y0215456D01*
X0029753Y0215564D01*
X0029855Y0215669D01*
X0029960Y0215771D01*
X0030068Y0215870D01*
X0030179Y0215967D01*
X0030292Y0216060D01*
X0030407Y0216150D01*
X0030525Y0216237D01*
X0030645Y0216321D01*
X0030768Y0216402D01*
X0030892Y0216479D01*
X0031019Y0216553D01*
X0031148Y0216623D01*
X0031278Y0216690D01*
X0031410Y0216754D01*
X0031544Y0216813D01*
X0031679Y0216870D01*
X0031816Y0216922D01*
X0031955Y0216971D01*
X0032094Y0217016D01*
X0032235Y0217057D01*
X0032377Y0217094D01*
X0032519Y0217127D01*
X0032663Y0217157D01*
X0032807Y0217183D01*
X0032952Y0217204D01*
X0033098Y0217222D01*
X0033244Y0217236D01*
X0033390Y0217246D01*
X0033536Y0217252D01*
X0033683Y0217254D01*
X0033830Y0217252D01*
X0033976Y0217246D01*
X0034122Y0217236D01*
X0034268Y0217222D01*
X0034414Y0217204D01*
X0034559Y0217183D01*
X0034703Y0217157D01*
X0034847Y0217127D01*
X0034989Y0217094D01*
X0035131Y0217057D01*
X0035272Y0217016D01*
X0035411Y0216971D01*
X0035550Y0216922D01*
X0035687Y0216870D01*
X0035822Y0216813D01*
X0035956Y0216754D01*
X0036088Y0216690D01*
X0036218Y0216623D01*
X0036347Y0216553D01*
X0036474Y0216479D01*
X0036598Y0216402D01*
X0036721Y0216321D01*
X0036841Y0216237D01*
X0036959Y0216150D01*
X0037074Y0216060D01*
X0037187Y0215967D01*
X0037298Y0215870D01*
X0037406Y0215771D01*
X0037511Y0215669D01*
X0037613Y0215564D01*
X0037712Y0215456D01*
X0037809Y0215345D01*
X0037902Y0215232D01*
X0037992Y0215117D01*
X0038079Y0214999D01*
X0038163Y0214879D01*
X0038244Y0214756D01*
X0038321Y0214632D01*
X0038395Y0214505D01*
X0038465Y0214376D01*
X0038532Y0214246D01*
X0038596Y0214114D01*
X0038655Y0213980D01*
X0038712Y0213845D01*
X0038764Y0213708D01*
X0038813Y0213569D01*
X0038858Y0213430D01*
X0038899Y0213289D01*
X0038936Y0213147D01*
X0038969Y0213005D01*
X0038999Y0212861D01*
X0039025Y0212717D01*
X0039046Y0212572D01*
X0039064Y0212426D01*
X0039078Y0212280D01*
X0039088Y0212134D01*
X0039094Y0211988D01*
X0039096Y0211841D01*
X0039094Y0211694D01*
X0039088Y0211548D01*
X0039078Y0211402D01*
X0039064Y0211256D01*
X0039046Y0211110D01*
X0039025Y0210965D01*
X0038999Y0210821D01*
X0038969Y0210677D01*
X0038936Y0210535D01*
X0038899Y0210393D01*
X0038858Y0210252D01*
X0038813Y0210113D01*
X0038764Y0209974D01*
X0038712Y0209837D01*
X0038655Y0209702D01*
X0038596Y0209568D01*
X0038532Y0209436D01*
X0038465Y0209306D01*
X0038395Y0209177D01*
X0038321Y0209050D01*
X0038244Y0208926D01*
X0038163Y0208803D01*
X0038079Y0208683D01*
X0037992Y0208565D01*
X0037902Y0208450D01*
X0037809Y0208337D01*
X0037712Y0208226D01*
X0037613Y0208118D01*
X0037511Y0208013D01*
X0037406Y0207911D01*
X0037298Y0207812D01*
X0037187Y0207715D01*
X0037074Y0207622D01*
X0036959Y0207532D01*
X0036841Y0207445D01*
X0036721Y0207361D01*
X0036598Y0207280D01*
X0036474Y0207203D01*
X0036347Y0207129D01*
X0036218Y0207059D01*
X0036088Y0206992D01*
X0035956Y0206928D01*
X0035822Y0206869D01*
X0035687Y0206812D01*
X0035550Y0206760D01*
X0035411Y0206711D01*
X0035272Y0206666D01*
X0035131Y0206625D01*
X0034989Y0206588D01*
X0034847Y0206555D01*
X0034703Y0206525D01*
X0034559Y0206499D01*
X0034414Y0206478D01*
X0034268Y0206460D01*
X0034122Y0206446D01*
X0033976Y0206436D01*
X0033830Y0206430D01*
X0033683Y0206428D01*
X0033536Y0206430D01*
X0033390Y0206436D01*
X0033244Y0206446D01*
X0033098Y0206460D01*
X0032952Y0206478D01*
X0032807Y0206499D01*
X0032663Y0206525D01*
X0032519Y0206555D01*
X0032377Y0206588D01*
X0032235Y0206625D01*
X0032094Y0206666D01*
X0031955Y0206711D01*
X0031816Y0206760D01*
X0031679Y0206812D01*
X0031544Y0206869D01*
X0031410Y0206928D01*
X0031278Y0206992D01*
X0031148Y0207059D01*
X0031019Y0207129D01*
X0030892Y0207203D01*
X0030768Y0207280D01*
X0030645Y0207361D01*
X0030525Y0207445D01*
X0030407Y0207532D01*
X0030292Y0207622D01*
X0030179Y0207715D01*
X0030068Y0207812D01*
X0029960Y0207911D01*
X0029855Y0208013D01*
X0029753Y0208118D01*
X0029654Y0208226D01*
X0029557Y0208337D01*
X0029464Y0208450D01*
X0029374Y0208565D01*
X0029287Y0208683D01*
X0029203Y0208803D01*
X0029122Y0208926D01*
X0029045Y0209050D01*
X0028971Y0209177D01*
X0028901Y0209306D01*
X0028834Y0209436D01*
X0028770Y0209568D01*
X0028711Y0209702D01*
X0028654Y0209837D01*
X0028602Y0209974D01*
X0028553Y0210113D01*
X0028508Y0210252D01*
X0028467Y0210393D01*
X0028430Y0210535D01*
X0028397Y0210677D01*
X0028367Y0210821D01*
X0028341Y0210965D01*
X0028320Y0211110D01*
X0028302Y0211256D01*
X0028288Y0211402D01*
X0028278Y0211548D01*
X0028272Y0211694D01*
X0028270Y0211841D01*
D11*
X0296951Y0132904D03*
X0307266Y0132904D03*
X0307413Y0123061D03*
X0296951Y0123061D03*
X0296951Y0115187D03*
X0307413Y0115187D03*
X0307413Y0105344D03*
X0296951Y0105344D03*
D12*
X0295573Y0093337D03*
X0317935Y0093337D03*
X0317935Y0144911D03*
X0295573Y0144911D03*
D13*
X0163605Y0038455D03*
X0161636Y0038455D03*
X0159668Y0038455D03*
X0157699Y0038455D03*
X0155731Y0038455D03*
X0153762Y0038455D03*
X0151794Y0038455D03*
X0149825Y0038455D03*
X0147857Y0038455D03*
X0145888Y0038455D03*
X0143920Y0038455D03*
X0141951Y0038455D03*
X0139983Y0038455D03*
X0138014Y0038455D03*
X0136046Y0038455D03*
X0134077Y0038455D03*
X0132109Y0038455D03*
X0130140Y0038455D03*
X0128172Y0038455D03*
D14*
X0117345Y0034715D03*
X0114983Y0015423D03*
X0174431Y0034715D03*
X0176794Y0015423D03*
D15*
X0066754Y0021486D03*
X0064195Y0021486D03*
X0061636Y0021486D03*
X0059077Y0021486D03*
X0056518Y0021486D03*
D16*
X0051794Y0021486D03*
X0071479Y0021486D03*
D17*
X0075416Y0010856D03*
X0047857Y0010856D03*
D18*
X0215376Y0124833D03*
X0215376Y0126801D03*
X0215376Y0128770D03*
X0215376Y0130738D03*
X0215376Y0132707D03*
X0215376Y0134675D03*
X0215376Y0136644D03*
X0215376Y0138612D03*
X0215376Y0140581D03*
X0215376Y0142549D03*
X0215376Y0144518D03*
X0215376Y0146486D03*
X0215376Y0148455D03*
X0215376Y0150423D03*
X0215376Y0152392D03*
X0215376Y0154360D03*
X0215376Y0156329D03*
X0215376Y0158297D03*
X0215376Y0160266D03*
X0215376Y0162234D03*
X0215376Y0164203D03*
X0215376Y0166171D03*
X0215376Y0168140D03*
X0215376Y0170108D03*
X0215376Y0172077D03*
X0276400Y0172077D03*
X0276400Y0170108D03*
X0276400Y0168140D03*
X0276400Y0166171D03*
X0276400Y0164203D03*
X0276400Y0162234D03*
X0276400Y0160266D03*
X0276400Y0158297D03*
X0276400Y0156329D03*
X0276400Y0154360D03*
X0276400Y0152392D03*
X0276400Y0150423D03*
X0276400Y0148455D03*
X0276400Y0146486D03*
X0276400Y0144518D03*
X0276400Y0142549D03*
X0276400Y0140581D03*
X0276400Y0138612D03*
X0276400Y0136644D03*
X0276400Y0134675D03*
X0276400Y0132707D03*
X0276400Y0130738D03*
X0276400Y0128770D03*
X0276400Y0126801D03*
X0276400Y0124833D03*
D19*
X0269510Y0117943D03*
X0267542Y0117943D03*
X0265573Y0117943D03*
X0263605Y0117943D03*
X0261636Y0117943D03*
X0259668Y0117943D03*
X0257699Y0117943D03*
X0255731Y0117943D03*
X0253762Y0117943D03*
X0251794Y0117943D03*
X0249825Y0117943D03*
X0247857Y0117943D03*
X0245888Y0117943D03*
X0243920Y0117943D03*
X0241951Y0117943D03*
X0239983Y0117943D03*
X0238014Y0117943D03*
X0236046Y0117943D03*
X0234077Y0117943D03*
X0232109Y0117943D03*
X0230140Y0117943D03*
X0228172Y0117943D03*
X0226203Y0117943D03*
X0224235Y0117943D03*
X0222266Y0117943D03*
X0222266Y0178967D03*
X0224235Y0178967D03*
X0226203Y0178967D03*
X0228172Y0178967D03*
X0230140Y0178967D03*
X0232109Y0178967D03*
X0234077Y0178967D03*
X0236046Y0178967D03*
X0238014Y0178967D03*
X0239983Y0178967D03*
X0241951Y0178967D03*
X0243920Y0178967D03*
X0245888Y0178967D03*
X0247857Y0178967D03*
X0249825Y0178967D03*
X0251794Y0178967D03*
X0253762Y0178967D03*
X0255731Y0178967D03*
X0257699Y0178967D03*
X0259668Y0178967D03*
X0261636Y0178967D03*
X0263605Y0178967D03*
X0265573Y0178967D03*
X0267542Y0178967D03*
X0269510Y0178967D03*
D20*
X0088605Y0093731D03*
X0086636Y0093731D03*
X0084668Y0093731D03*
X0082699Y0093731D03*
X0080731Y0093731D03*
X0078762Y0093731D03*
X0076793Y0093731D03*
X0074825Y0093731D03*
X0072856Y0093731D03*
X0070888Y0093731D03*
X0068919Y0093731D03*
X0066951Y0093731D03*
X0064982Y0093731D03*
X0063014Y0093731D03*
X0061045Y0093731D03*
X0059077Y0093731D03*
X0059077Y0046486D03*
X0061045Y0046486D03*
X0063014Y0046486D03*
X0064982Y0046486D03*
X0066951Y0046486D03*
X0068919Y0046486D03*
X0070888Y0046486D03*
X0072856Y0046486D03*
X0074825Y0046486D03*
X0076793Y0046486D03*
X0078762Y0046486D03*
X0080730Y0046486D03*
X0082699Y0046486D03*
X0084668Y0046486D03*
X0086636Y0046486D03*
X0088605Y0046486D03*
D21*
X0097463Y0055344D03*
X0097463Y0057313D03*
X0097463Y0059281D03*
X0097463Y0061250D03*
X0097463Y0063219D03*
X0097463Y0065187D03*
X0097463Y0067156D03*
X0097463Y0069124D03*
X0097463Y0071093D03*
X0097463Y0073049D03*
X0097463Y0075017D03*
X0097463Y0076986D03*
X0097463Y0078954D03*
X0097463Y0080923D03*
X0097463Y0082891D03*
X0097463Y0084860D03*
X0050219Y0084872D03*
X0050219Y0082903D03*
X0050219Y0080935D03*
X0050219Y0078967D03*
X0050219Y0076998D03*
X0050219Y0075030D03*
X0050219Y0073061D03*
X0050219Y0071093D03*
X0050219Y0069124D03*
X0050219Y0067156D03*
X0050219Y0065187D03*
X0050219Y0063219D03*
X0050219Y0061250D03*
X0050219Y0059282D03*
X0050219Y0057313D03*
X0050219Y0055344D03*
D22*
X0052857Y0206841D03*
D23*
X0062857Y0206841D03*
X0072857Y0206841D03*
X0082857Y0206841D03*
X0092857Y0206841D03*
X0102857Y0206841D03*
X0112857Y0206841D03*
X0122857Y0206841D03*
X0132857Y0206841D03*
X0142857Y0206841D03*
X0152857Y0206841D03*
X0162857Y0206841D03*
X0172857Y0206841D03*
X0182857Y0206841D03*
X0192857Y0206841D03*
X0202857Y0206841D03*
X0212857Y0206841D03*
X0222857Y0206841D03*
X0232857Y0206841D03*
X0242857Y0206841D03*
X0242857Y0216841D03*
X0232857Y0216841D03*
X0222857Y0216841D03*
X0212857Y0216841D03*
X0202857Y0216841D03*
X0192857Y0216841D03*
X0182857Y0216841D03*
X0172857Y0216841D03*
X0162857Y0216841D03*
X0152857Y0216841D03*
X0142857Y0216841D03*
X0132857Y0216841D03*
X0122857Y0216841D03*
X0112857Y0216841D03*
X0102857Y0216841D03*
X0092857Y0216841D03*
X0082857Y0216841D03*
X0072857Y0216841D03*
X0062857Y0216841D03*
X0052857Y0216841D03*
D24*
X0128172Y0152785D03*
X0132109Y0152785D03*
X0136046Y0152785D03*
X0139983Y0152785D03*
X0143920Y0152785D03*
X0147857Y0152785D03*
X0151794Y0152785D03*
X0155731Y0152785D03*
X0159668Y0152785D03*
X0163605Y0152785D03*
X0167542Y0152785D03*
X0171479Y0152785D03*
X0175416Y0152785D03*
X0179353Y0152785D03*
X0183290Y0152785D03*
X0187227Y0152785D03*
X0187227Y0148848D03*
X0183290Y0148848D03*
X0179353Y0148848D03*
X0175416Y0148848D03*
X0171479Y0148848D03*
X0167542Y0148848D03*
X0163605Y0148848D03*
X0159668Y0148848D03*
X0155731Y0148848D03*
X0151794Y0148848D03*
X0147857Y0148848D03*
X0143920Y0148848D03*
X0139983Y0148848D03*
X0136046Y0148848D03*
X0132109Y0148848D03*
X0128172Y0148848D03*
X0128172Y0144911D03*
X0128172Y0140974D03*
X0132109Y0140974D03*
X0136046Y0140974D03*
X0139983Y0140974D03*
X0143920Y0140974D03*
X0147857Y0140974D03*
X0151794Y0140974D03*
X0155731Y0140974D03*
X0159668Y0140974D03*
X0163605Y0140974D03*
X0167542Y0140974D03*
X0171479Y0140974D03*
X0175416Y0140974D03*
X0179353Y0140974D03*
X0183290Y0140974D03*
X0187227Y0140974D03*
X0187227Y0144911D03*
X0183290Y0144911D03*
X0179353Y0144911D03*
X0175416Y0144911D03*
X0171479Y0144911D03*
X0167542Y0144911D03*
X0163605Y0144911D03*
X0159668Y0144911D03*
X0155731Y0144911D03*
X0151794Y0144911D03*
X0147857Y0144911D03*
X0143920Y0144911D03*
X0139983Y0144911D03*
X0136046Y0144911D03*
X0132109Y0144911D03*
X0132109Y0137037D03*
X0136046Y0137037D03*
X0139983Y0137037D03*
X0143920Y0137037D03*
X0147857Y0137037D03*
X0151794Y0137037D03*
X0155731Y0137037D03*
X0159668Y0137037D03*
X0163605Y0137037D03*
X0167542Y0137037D03*
X0171479Y0137037D03*
X0175416Y0137037D03*
X0179353Y0137037D03*
X0183290Y0137037D03*
X0187227Y0137037D03*
X0187227Y0133100D03*
X0183290Y0133100D03*
X0179353Y0133100D03*
X0175416Y0133100D03*
X0171479Y0133100D03*
X0167542Y0133100D03*
X0163605Y0133100D03*
X0159668Y0133100D03*
X0155731Y0133100D03*
X0151794Y0133100D03*
X0147857Y0133100D03*
X0143920Y0133100D03*
X0139983Y0133100D03*
X0136046Y0133100D03*
X0132109Y0133100D03*
X0128172Y0133100D03*
X0128172Y0129163D03*
X0128172Y0125226D03*
X0132109Y0125226D03*
X0136046Y0125226D03*
X0139983Y0125226D03*
X0143920Y0125226D03*
X0147857Y0125226D03*
X0151794Y0125226D03*
X0155731Y0125226D03*
X0159668Y0125226D03*
X0163605Y0125226D03*
X0167542Y0125226D03*
X0171479Y0125226D03*
X0175416Y0125226D03*
X0179353Y0125226D03*
X0183290Y0125226D03*
X0187227Y0125226D03*
X0187227Y0129163D03*
X0183290Y0129163D03*
X0179353Y0129163D03*
X0175416Y0129163D03*
X0171479Y0129163D03*
X0167542Y0129163D03*
X0163605Y0129163D03*
X0159668Y0129163D03*
X0155731Y0129163D03*
X0151794Y0129163D03*
X0147857Y0129163D03*
X0143920Y0129163D03*
X0139983Y0129163D03*
X0136046Y0129163D03*
X0132109Y0129163D03*
X0132109Y0121289D03*
X0136046Y0121289D03*
X0139983Y0121289D03*
X0143920Y0121289D03*
X0147857Y0121289D03*
X0151794Y0121289D03*
X0155731Y0121289D03*
X0159668Y0121289D03*
X0163605Y0121289D03*
X0167542Y0121289D03*
X0171479Y0121289D03*
X0175416Y0121289D03*
X0179353Y0121289D03*
X0183290Y0121289D03*
X0187227Y0121289D03*
X0187227Y0117352D03*
X0187227Y0113415D03*
X0183290Y0113415D03*
X0179353Y0113415D03*
X0175416Y0113415D03*
X0171479Y0113415D03*
X0167542Y0113415D03*
X0163605Y0113415D03*
X0159668Y0113415D03*
X0155731Y0113415D03*
X0151794Y0113415D03*
X0147857Y0113415D03*
X0143920Y0113415D03*
X0139983Y0113415D03*
X0136046Y0113415D03*
X0132109Y0113415D03*
X0128172Y0113415D03*
X0128172Y0117352D03*
X0132109Y0117352D03*
X0136046Y0117352D03*
X0139983Y0117352D03*
X0143920Y0117352D03*
X0147857Y0117352D03*
X0151794Y0117352D03*
X0155731Y0117352D03*
X0159668Y0117352D03*
X0163605Y0117352D03*
X0167542Y0117352D03*
X0171479Y0117352D03*
X0175416Y0117352D03*
X0179353Y0117352D03*
X0183290Y0117352D03*
X0183290Y0109478D03*
X0187227Y0109478D03*
X0187227Y0105541D03*
X0183290Y0105541D03*
X0179353Y0105541D03*
X0175416Y0105541D03*
X0171479Y0105541D03*
X0167542Y0105541D03*
X0163605Y0105541D03*
X0159668Y0105541D03*
X0155731Y0105541D03*
X0151794Y0105541D03*
X0147857Y0105541D03*
X0143920Y0105541D03*
X0139983Y0105541D03*
X0136046Y0105541D03*
X0132109Y0105541D03*
X0128172Y0105541D03*
X0128172Y0101604D03*
X0132109Y0101604D03*
X0136046Y0101604D03*
X0136046Y0097667D03*
X0139983Y0097667D03*
X0143920Y0097667D03*
X0147857Y0097667D03*
X0151794Y0097667D03*
X0155731Y0097667D03*
X0159668Y0097667D03*
X0163605Y0097667D03*
X0167542Y0097667D03*
X0171479Y0097667D03*
X0175416Y0097667D03*
X0179353Y0097667D03*
X0183290Y0097667D03*
X0187227Y0097667D03*
X0187227Y0101604D03*
X0183290Y0101604D03*
X0179353Y0101604D03*
X0175416Y0101604D03*
X0171479Y0101604D03*
X0167542Y0101604D03*
X0163605Y0101604D03*
X0159668Y0101604D03*
X0155731Y0101604D03*
X0151794Y0101604D03*
X0147857Y0101604D03*
X0143920Y0101604D03*
X0139983Y0101604D03*
X0132109Y0097667D03*
X0128172Y0097667D03*
X0128172Y0093730D03*
X0132109Y0093730D03*
X0136046Y0093730D03*
X0139983Y0093730D03*
X0143920Y0093730D03*
X0147857Y0093730D03*
X0151794Y0093730D03*
X0155731Y0093730D03*
X0159668Y0093730D03*
X0163605Y0093730D03*
X0167542Y0093730D03*
X0171479Y0093730D03*
X0175416Y0093730D03*
X0179353Y0093730D03*
X0183290Y0093730D03*
X0187227Y0093730D03*
X0179353Y0109478D03*
X0175416Y0109478D03*
X0171479Y0109478D03*
X0167542Y0109478D03*
X0163605Y0109478D03*
X0159668Y0109478D03*
X0155731Y0109478D03*
X0151794Y0109478D03*
X0147857Y0109478D03*
X0143920Y0109478D03*
X0139983Y0109478D03*
X0136046Y0109478D03*
X0132109Y0109478D03*
X0128172Y0109478D03*
X0128172Y0121289D03*
X0128172Y0137037D03*
D25*
X0113408Y0183888D03*
X0105928Y0183888D03*
X0105928Y0194911D03*
X0109668Y0194911D03*
X0113408Y0194911D03*
X0083487Y0194911D03*
X0079746Y0194911D03*
X0076006Y0194911D03*
X0076006Y0183888D03*
X0083487Y0183888D03*
X0035455Y0061053D03*
X0031715Y0061053D03*
X0027975Y0061053D03*
X0027975Y0050030D03*
X0031715Y0050030D03*
X0035455Y0050030D03*
D26*
X0244313Y0012234D03*
D27*
X0244313Y0059478D03*
D28*
X0216754Y0029951D03*
X0244313Y0022470D03*
D29*
X0227581Y0074833D03*
D30*
X0216754Y0018927D03*
D31*
X0208290Y0020797D03*
X0201597Y0020797D03*
X0196479Y0020797D03*
X0189786Y0020797D03*
X0189786Y0029163D03*
X0196479Y0029163D03*
X0201597Y0029163D03*
X0208290Y0029163D03*
X0208290Y0037530D03*
X0201597Y0037530D03*
X0196479Y0037530D03*
X0189786Y0037530D03*
X0189786Y0045896D03*
X0196479Y0045896D03*
X0201597Y0045896D03*
X0208290Y0045896D03*
X0194412Y0054262D03*
X0187719Y0054262D03*
X0187719Y0062628D03*
X0194412Y0062628D03*
X0194412Y0070994D03*
X0187719Y0070994D03*
X0187719Y0079360D03*
X0194412Y0079360D03*
X0199628Y0077982D03*
X0206321Y0077982D03*
X0206321Y0086250D03*
X0199628Y0086250D03*
X0209471Y0106722D03*
X0216164Y0106722D03*
X0265376Y0111348D03*
X0272069Y0111348D03*
X0278861Y0109970D03*
X0285554Y0109970D03*
X0285554Y0101604D03*
X0278861Y0101604D03*
X0278861Y0093238D03*
X0285554Y0093238D03*
X0285554Y0083100D03*
X0278861Y0083100D03*
X0270494Y0066663D03*
X0263802Y0066663D03*
X0263802Y0058494D03*
X0270494Y0058494D03*
X0270494Y0050423D03*
X0263802Y0050423D03*
X0263802Y0042156D03*
X0258290Y0042156D03*
X0251597Y0042156D03*
X0251597Y0033888D03*
X0258290Y0033888D03*
X0263802Y0033888D03*
X0270494Y0033888D03*
X0270494Y0042156D03*
X0208290Y0012431D03*
X0201597Y0012431D03*
X0196479Y0012431D03*
X0189786Y0012431D03*
X0138211Y0051211D03*
X0131518Y0051211D03*
X0131518Y0059478D03*
X0138211Y0059478D03*
X0138211Y0067746D03*
X0131518Y0067746D03*
X0131518Y0076014D03*
X0138211Y0076014D03*
X0136636Y0084281D03*
X0129943Y0084281D03*
X0120101Y0094124D03*
X0113408Y0094124D03*
X0107896Y0094124D03*
X0101203Y0094124D03*
X0101203Y0102392D03*
X0095691Y0102392D03*
X0088998Y0102392D03*
X0107896Y0102392D03*
X0113408Y0102392D03*
X0120101Y0102392D03*
X0063408Y0104360D03*
X0056715Y0104360D03*
X0034963Y0075226D03*
X0028270Y0075226D03*
X0028270Y0066860D03*
X0034963Y0066860D03*
X0044313Y0051801D03*
X0051006Y0051801D03*
X0049530Y0043435D03*
X0042837Y0043435D03*
X0037227Y0043435D03*
X0030534Y0043435D03*
X0030534Y0035069D03*
X0037227Y0035069D03*
X0042837Y0035069D03*
X0049530Y0035069D03*
X0096577Y0043041D03*
X0103270Y0043041D03*
X0100809Y0034675D03*
X0107502Y0034675D03*
X0107502Y0026407D03*
X0100809Y0026407D03*
X0100809Y0018140D03*
X0107502Y0018140D03*
X0278861Y0118337D03*
X0285554Y0118337D03*
X0341262Y0154754D03*
X0347955Y0154754D03*
X0302483Y0175817D03*
X0295790Y0175817D03*
X0280731Y0180738D03*
X0274038Y0180738D03*
X0274038Y0189006D03*
X0280731Y0189006D03*
X0280731Y0197274D03*
X0274038Y0197274D03*
X0263014Y0189400D03*
X0256321Y0189400D03*
X0216951Y0180738D03*
X0210258Y0180738D03*
X0199235Y0168140D03*
X0192542Y0168140D03*
X0200120Y0153868D03*
X0206813Y0153868D03*
X0163408Y0167746D03*
X0156715Y0167746D03*
X0156715Y0176014D03*
X0163408Y0176014D03*
X0135455Y0167746D03*
X0128762Y0167746D03*
X0123250Y0167746D03*
X0116557Y0167746D03*
X0111046Y0167746D03*
X0104353Y0167746D03*
X0104353Y0159478D03*
X0111046Y0159478D03*
X0092935Y0159085D03*
X0086243Y0159085D03*
X0080731Y0159085D03*
X0074038Y0159085D03*
X0078762Y0168533D03*
X0085455Y0168533D03*
X0085455Y0176801D03*
X0078762Y0176801D03*
X0062620Y0173652D03*
X0055928Y0173652D03*
X0092935Y0192943D03*
X0099628Y0192943D03*
X0106321Y0178376D03*
X0113014Y0178376D03*
D32*
X0125416Y0177785D03*
X0125416Y0184478D03*
X0125416Y0189990D03*
X0133683Y0189990D03*
X0133683Y0196683D03*
X0125416Y0196683D03*
X0185652Y0190778D03*
X0185652Y0184085D03*
X0240376Y0189301D03*
X0248743Y0189203D03*
X0248743Y0195896D03*
X0240376Y0195994D03*
X0321577Y0172864D03*
X0329943Y0172864D03*
X0329943Y0166171D03*
X0321577Y0166171D03*
X0338309Y0166171D03*
X0346676Y0166171D03*
X0346676Y0172864D03*
X0338309Y0172864D03*
X0213703Y0120502D03*
X0213703Y0113809D03*
X0167935Y0079360D03*
X0167935Y0072667D03*
X0119117Y0071486D03*
X0119117Y0076998D03*
X0110849Y0076998D03*
X0110849Y0071486D03*
X0110849Y0064793D03*
X0119117Y0064793D03*
X0119117Y0083691D03*
X0110849Y0083691D03*
X0082306Y0103770D03*
X0074235Y0103770D03*
X0074235Y0110463D03*
X0082306Y0110463D03*
X0049038Y0097077D03*
X0049038Y0090384D03*
X0041951Y0071585D03*
X0041951Y0064892D03*
X0056518Y0039203D03*
X0064884Y0039203D03*
X0064884Y0032510D03*
X0056518Y0032510D03*
X0076302Y0034478D03*
X0084668Y0032904D03*
X0093034Y0032904D03*
X0093034Y0026211D03*
X0084668Y0026211D03*
X0076302Y0027785D03*
X0030928Y0176998D03*
X0030928Y0183691D03*
X0050219Y0185659D03*
X0050219Y0192352D03*
D33*
X0112227Y0058100D03*
X0121282Y0058100D03*
X0121282Y0043533D03*
X0112227Y0043533D03*
D34*
X0037778Y0083888D03*
X0027778Y0083888D03*
X0295494Y0185502D03*
X0295494Y0195502D03*
D35*
X0025219Y0182419D02*
X0022463Y0182419D01*
X0022463Y0185175D01*
X0025219Y0185175D01*
X0025219Y0182419D01*
X0025219Y0183599D02*
X0022463Y0183599D01*
X0022463Y0184779D02*
X0025219Y0184779D01*
X0025219Y0175514D02*
X0022463Y0175514D01*
X0022463Y0178270D01*
X0025219Y0178270D01*
X0025219Y0175514D01*
X0025219Y0176694D02*
X0022463Y0176694D01*
X0022463Y0177874D02*
X0025219Y0177874D01*
D36*
X0030534Y0098455D03*
X0041557Y0098455D03*
D37*
X0030928Y0107313D03*
X0030928Y0116368D03*
D38*
X0055731Y0185266D03*
X0066754Y0185266D03*
X0066754Y0189006D03*
X0066754Y0192746D03*
X0055731Y0192746D03*
D39*
X0044313Y0143730D03*
D40*
X0044313Y0112730D03*
X0044313Y0174730D03*
D41*
X0208782Y0189400D03*
X0208782Y0192943D03*
X0233585Y0192943D03*
X0233585Y0189400D03*
D42*
X0067148Y0112234D03*
X0056124Y0112234D03*
X0202089Y0069616D03*
X0213113Y0069616D03*
X0213113Y0057313D03*
X0202089Y0057313D03*
D43*
X0101794Y0119321D03*
X0098644Y0119321D03*
X0095494Y0119321D03*
X0095494Y0122470D03*
X0095494Y0125620D03*
X0095494Y0128770D03*
X0098644Y0128770D03*
X0101794Y0128770D03*
X0101794Y0125620D03*
X0101794Y0122470D03*
X0098644Y0122470D03*
X0098644Y0125620D03*
X0098644Y0131919D03*
X0095494Y0131919D03*
X0095494Y0135069D03*
X0095494Y0138219D03*
X0098644Y0138219D03*
X0101794Y0138219D03*
X0098644Y0135069D03*
X0101794Y0131919D03*
X0098644Y0141368D03*
X0095494Y0141368D03*
X0095494Y0144518D03*
X0098644Y0144518D03*
X0101794Y0144518D03*
X0098644Y0147667D03*
X0095494Y0147667D03*
X0095494Y0150817D03*
X0098644Y0150817D03*
X0101794Y0150817D03*
X0082896Y0150817D03*
X0079746Y0150817D03*
X0079746Y0147667D03*
X0076597Y0147667D03*
X0079746Y0144518D03*
X0079746Y0141368D03*
X0076597Y0141368D03*
X0079746Y0138219D03*
X0082896Y0138219D03*
X0082896Y0135069D03*
X0079746Y0135069D03*
X0076597Y0135069D03*
X0076597Y0131919D03*
X0079746Y0131919D03*
X0082896Y0131919D03*
X0082896Y0128770D03*
X0079746Y0128770D03*
X0076597Y0128770D03*
X0076597Y0125620D03*
X0079746Y0125620D03*
X0079746Y0122470D03*
X0076597Y0122470D03*
X0076597Y0119321D03*
X0079746Y0119321D03*
X0082896Y0119321D03*
X0082896Y0122470D03*
X0082896Y0125620D03*
X0082896Y0141368D03*
X0082896Y0144518D03*
X0082896Y0147667D03*
D44*
X0285652Y0075030D03*
X0293526Y0075030D03*
X0301400Y0075030D03*
X0309274Y0075030D03*
X0317148Y0075030D03*
X0325022Y0075030D03*
X0332896Y0075030D03*
X0340770Y0075030D03*
X0340770Y0015974D03*
X0332896Y0015974D03*
X0325022Y0015974D03*
X0317148Y0015974D03*
X0309274Y0015974D03*
X0301400Y0015974D03*
X0293526Y0015974D03*
X0285652Y0015974D03*
D45*
X0279746Y0025817D03*
X0279746Y0033691D03*
X0279746Y0041565D03*
X0279746Y0049439D03*
X0279746Y0057313D03*
X0279746Y0065187D03*
D46*
X0346676Y0184281D03*
X0346676Y0196093D03*
D47*
X0345396Y0191762D03*
X0345396Y0188612D03*
D48*
X0323054Y0181329D03*
X0323054Y0199045D03*
D49*
X0313211Y0203967D03*
X0313211Y0176407D03*
D50*
X0201498Y0184203D03*
X0192640Y0184203D03*
X0192640Y0194203D03*
X0201498Y0194203D03*
D51*
X0096282Y0181919D03*
X0096282Y0170896D03*
X0071085Y0166171D03*
X0071085Y0177195D03*
X0041951Y0185856D03*
X0041951Y0196880D03*
D52*
X0043821Y0200817D02*
X0038408Y0200817D01*
X0030928Y0193337D01*
X0030928Y0183691D01*
X0023841Y0183797D02*
X0023841Y0187726D01*
X0043821Y0200817D02*
X0047463Y0204459D01*
X0047463Y0219222D01*
X0050416Y0222175D01*
X0225120Y0222175D01*
X0227581Y0219715D01*
X0227581Y0203474D01*
X0225120Y0201014D01*
X0225120Y0188219D01*
X0228073Y0185266D01*
X0238900Y0185266D01*
X0241951Y0182215D01*
X0241951Y0178967D01*
X0243920Y0178967D02*
X0243920Y0174537D01*
X0243821Y0174439D01*
X0238408Y0174439D02*
X0238014Y0174833D01*
X0238014Y0178967D01*
X0236046Y0178967D02*
X0236046Y0146486D01*
X0226597Y0137037D01*
X0226105Y0137037D01*
X0226105Y0133593D02*
X0227089Y0133593D01*
X0238408Y0144911D01*
X0238408Y0174439D01*
X0234077Y0178967D02*
X0234077Y0181722D01*
X0232994Y0182805D01*
X0231026Y0182805D01*
X0230140Y0181919D01*
X0230140Y0178967D01*
X0228172Y0178967D01*
X0228172Y0174537D01*
X0228073Y0174439D01*
X0232010Y0174439D02*
X0232109Y0174537D01*
X0232109Y0178967D01*
X0226203Y0178967D02*
X0226203Y0184675D01*
X0222168Y0188711D01*
X0222168Y0190778D01*
X0217739Y0189006D02*
X0217739Y0208888D01*
X0214786Y0211841D01*
X0087857Y0211841D01*
X0082857Y0206841D01*
X0054156Y0177195D02*
X0054156Y0175423D01*
X0055928Y0173652D01*
X0079746Y0151604D02*
X0082896Y0154754D01*
X0089983Y0154360D02*
X0092935Y0157313D01*
X0092935Y0159085D01*
X0093132Y0154360D02*
X0092345Y0153573D01*
X0092345Y0148848D01*
X0084865Y0141368D01*
X0082896Y0141368D01*
X0084668Y0139990D02*
X0086833Y0139990D01*
X0084668Y0139990D02*
X0082896Y0138219D01*
X0084077Y0136644D02*
X0085258Y0137825D01*
X0088802Y0137825D01*
X0089983Y0139006D01*
X0091951Y0139006D01*
X0094313Y0136644D01*
X0104550Y0136644D01*
X0106518Y0138612D01*
X0119117Y0138612D01*
X0120691Y0140187D01*
X0122660Y0140187D01*
X0125809Y0137037D01*
X0128172Y0137037D01*
X0130140Y0135069D02*
X0132109Y0137037D01*
X0134077Y0135069D02*
X0132109Y0133100D01*
X0134077Y0131132D02*
X0136046Y0129163D01*
X0138014Y0127195D02*
X0139983Y0129163D01*
X0138014Y0131132D02*
X0136046Y0133100D01*
X0134077Y0131132D02*
X0127384Y0131132D01*
X0127337Y0131191D01*
X0127286Y0131248D01*
X0127233Y0131303D01*
X0127178Y0131354D01*
X0127119Y0131403D01*
X0127058Y0131449D01*
X0126995Y0131491D01*
X0126930Y0131530D01*
X0126863Y0131566D01*
X0126794Y0131598D01*
X0126724Y0131627D01*
X0126652Y0131652D01*
X0126579Y0131673D01*
X0126505Y0131691D01*
X0126430Y0131704D01*
X0126355Y0131714D01*
X0126279Y0131720D01*
X0126203Y0131722D01*
X0126127Y0131720D01*
X0126051Y0131714D01*
X0125976Y0131704D01*
X0125901Y0131691D01*
X0125827Y0131673D01*
X0125754Y0131652D01*
X0125682Y0131627D01*
X0125612Y0131598D01*
X0125543Y0131566D01*
X0125476Y0131530D01*
X0125411Y0131491D01*
X0125348Y0131449D01*
X0125287Y0131403D01*
X0125228Y0131354D01*
X0125173Y0131303D01*
X0125120Y0131248D01*
X0125069Y0131191D01*
X0125022Y0131132D01*
X0124979Y0131068D01*
X0124934Y0131007D01*
X0124885Y0130948D01*
X0124834Y0130892D01*
X0124780Y0130838D01*
X0124723Y0130788D01*
X0124663Y0130740D01*
X0124601Y0130695D01*
X0124537Y0130654D01*
X0124471Y0130616D01*
X0124403Y0130581D01*
X0124333Y0130550D01*
X0124262Y0130523D01*
X0124189Y0130500D01*
X0124116Y0130480D01*
X0124041Y0130464D01*
X0123966Y0130451D01*
X0123890Y0130443D01*
X0123814Y0130439D01*
X0123738Y0130438D01*
X0123661Y0130442D01*
X0123585Y0130449D01*
X0123510Y0130460D01*
X0123435Y0130476D01*
X0123361Y0130495D01*
X0123289Y0130517D01*
X0123217Y0130544D01*
X0123147Y0130574D01*
X0123078Y0130608D01*
X0123012Y0130645D01*
X0122947Y0130686D01*
X0122885Y0130729D01*
X0122825Y0130776D01*
X0122767Y0130826D01*
X0122712Y0130879D01*
X0122660Y0130935D01*
X0120691Y0131722D02*
X0116754Y0131722D01*
X0116754Y0131723D02*
X0116677Y0131721D01*
X0116600Y0131715D01*
X0116523Y0131706D01*
X0116447Y0131693D01*
X0116371Y0131676D01*
X0116297Y0131655D01*
X0116223Y0131631D01*
X0116151Y0131603D01*
X0116081Y0131572D01*
X0116012Y0131537D01*
X0115944Y0131499D01*
X0115879Y0131458D01*
X0115816Y0131413D01*
X0115755Y0131365D01*
X0115696Y0131315D01*
X0115640Y0131262D01*
X0115587Y0131206D01*
X0115537Y0131147D01*
X0115489Y0131086D01*
X0115444Y0131023D01*
X0115403Y0130958D01*
X0115365Y0130890D01*
X0115330Y0130821D01*
X0115299Y0130751D01*
X0115271Y0130679D01*
X0115247Y0130605D01*
X0115226Y0130531D01*
X0115209Y0130455D01*
X0115196Y0130379D01*
X0115187Y0130302D01*
X0115181Y0130225D01*
X0115179Y0130148D01*
X0115180Y0130148D02*
X0115180Y0126211D01*
X0113605Y0124636D02*
X0113528Y0124638D01*
X0113451Y0124644D01*
X0113374Y0124653D01*
X0113298Y0124666D01*
X0113222Y0124683D01*
X0113148Y0124704D01*
X0113074Y0124728D01*
X0113002Y0124756D01*
X0112932Y0124787D01*
X0112863Y0124822D01*
X0112795Y0124860D01*
X0112730Y0124901D01*
X0112667Y0124946D01*
X0112606Y0124994D01*
X0112547Y0125044D01*
X0112491Y0125097D01*
X0112438Y0125153D01*
X0112388Y0125212D01*
X0112340Y0125273D01*
X0112295Y0125336D01*
X0112254Y0125401D01*
X0112216Y0125469D01*
X0112181Y0125538D01*
X0112150Y0125608D01*
X0112122Y0125680D01*
X0112098Y0125754D01*
X0112077Y0125828D01*
X0112060Y0125904D01*
X0112047Y0125980D01*
X0112038Y0126057D01*
X0112032Y0126134D01*
X0112030Y0126211D01*
X0112030Y0130148D01*
X0110456Y0131722D02*
X0110376Y0131716D01*
X0110297Y0131705D01*
X0110218Y0131691D01*
X0110141Y0131673D01*
X0110064Y0131652D01*
X0109988Y0131627D01*
X0109914Y0131598D01*
X0109841Y0131566D01*
X0109769Y0131530D01*
X0109700Y0131491D01*
X0109632Y0131449D01*
X0109567Y0131403D01*
X0109503Y0131355D01*
X0109442Y0131303D01*
X0109384Y0131249D01*
X0109328Y0131192D01*
X0109275Y0131132D01*
X0109225Y0131070D01*
X0109178Y0131006D01*
X0109134Y0130939D01*
X0109093Y0130871D01*
X0109056Y0130800D01*
X0109022Y0130728D01*
X0108991Y0130655D01*
X0108964Y0130579D01*
X0108941Y0130503D01*
X0108921Y0130426D01*
X0108905Y0130348D01*
X0108893Y0130269D01*
X0108884Y0130190D01*
X0108879Y0130110D01*
X0108878Y0130030D01*
X0108881Y0129951D01*
X0108880Y0129951D02*
X0108880Y0127195D01*
X0108881Y0127195D02*
X0108879Y0127118D01*
X0108873Y0127041D01*
X0108864Y0126964D01*
X0108851Y0126888D01*
X0108834Y0126812D01*
X0108813Y0126738D01*
X0108789Y0126664D01*
X0108761Y0126592D01*
X0108730Y0126522D01*
X0108695Y0126453D01*
X0108657Y0126385D01*
X0108616Y0126320D01*
X0108571Y0126257D01*
X0108523Y0126196D01*
X0108473Y0126137D01*
X0108420Y0126081D01*
X0108364Y0126028D01*
X0108305Y0125978D01*
X0108244Y0125930D01*
X0108181Y0125885D01*
X0108116Y0125844D01*
X0108048Y0125806D01*
X0107979Y0125771D01*
X0107909Y0125740D01*
X0107837Y0125712D01*
X0107763Y0125688D01*
X0107689Y0125667D01*
X0107613Y0125650D01*
X0107537Y0125637D01*
X0107460Y0125628D01*
X0107383Y0125622D01*
X0107306Y0125620D01*
X0107229Y0125622D01*
X0107152Y0125628D01*
X0107075Y0125637D01*
X0106999Y0125650D01*
X0106923Y0125667D01*
X0106849Y0125688D01*
X0106775Y0125712D01*
X0106703Y0125740D01*
X0106633Y0125771D01*
X0106564Y0125806D01*
X0106496Y0125844D01*
X0106431Y0125885D01*
X0106368Y0125930D01*
X0106307Y0125978D01*
X0106248Y0126028D01*
X0106192Y0126081D01*
X0106139Y0126137D01*
X0106089Y0126196D01*
X0106041Y0126257D01*
X0105996Y0126320D01*
X0105955Y0126385D01*
X0105917Y0126453D01*
X0105882Y0126522D01*
X0105851Y0126592D01*
X0105823Y0126664D01*
X0105799Y0126738D01*
X0105778Y0126812D01*
X0105761Y0126888D01*
X0105748Y0126964D01*
X0105739Y0127041D01*
X0105733Y0127118D01*
X0105731Y0127195D01*
X0105731Y0130344D01*
X0105730Y0130344D02*
X0105728Y0130398D01*
X0105723Y0130451D01*
X0105714Y0130504D01*
X0105701Y0130556D01*
X0105685Y0130608D01*
X0105665Y0130658D01*
X0105642Y0130706D01*
X0105615Y0130753D01*
X0105586Y0130798D01*
X0105553Y0130841D01*
X0105518Y0130881D01*
X0105480Y0130919D01*
X0105440Y0130954D01*
X0105397Y0130987D01*
X0105352Y0131016D01*
X0105305Y0131043D01*
X0105257Y0131066D01*
X0105207Y0131086D01*
X0105155Y0131102D01*
X0105103Y0131115D01*
X0105050Y0131124D01*
X0104997Y0131129D01*
X0104943Y0131131D01*
X0104943Y0131132D02*
X0104156Y0131132D01*
X0101794Y0128770D01*
X0100219Y0130344D02*
X0101794Y0131919D01*
X0100219Y0130344D02*
X0100219Y0127195D01*
X0101794Y0125620D01*
X0104156Y0125620D01*
X0108093Y0121683D01*
X0105731Y0120502D02*
X0105733Y0120436D01*
X0105738Y0120370D01*
X0105748Y0120304D01*
X0105761Y0120239D01*
X0105777Y0120175D01*
X0105797Y0120112D01*
X0105821Y0120050D01*
X0105848Y0119990D01*
X0105878Y0119931D01*
X0105912Y0119874D01*
X0105949Y0119819D01*
X0105989Y0119766D01*
X0106031Y0119715D01*
X0106077Y0119667D01*
X0106125Y0119621D01*
X0106176Y0119579D01*
X0106229Y0119539D01*
X0106284Y0119502D01*
X0106341Y0119468D01*
X0106400Y0119438D01*
X0106460Y0119411D01*
X0106522Y0119387D01*
X0106585Y0119367D01*
X0106649Y0119351D01*
X0106714Y0119338D01*
X0106780Y0119328D01*
X0106846Y0119323D01*
X0106912Y0119321D01*
X0109668Y0119321D01*
X0109722Y0119323D01*
X0109775Y0119328D01*
X0109828Y0119337D01*
X0109880Y0119350D01*
X0109932Y0119366D01*
X0109982Y0119386D01*
X0110030Y0119409D01*
X0110077Y0119436D01*
X0110122Y0119465D01*
X0110165Y0119498D01*
X0110205Y0119533D01*
X0110243Y0119571D01*
X0110278Y0119611D01*
X0110311Y0119654D01*
X0110340Y0119699D01*
X0110367Y0119746D01*
X0110390Y0119794D01*
X0110410Y0119844D01*
X0110426Y0119896D01*
X0110439Y0119948D01*
X0110448Y0120001D01*
X0110453Y0120054D01*
X0110455Y0120108D01*
X0110455Y0121289D01*
X0110456Y0121289D02*
X0110458Y0121343D01*
X0110463Y0121396D01*
X0110472Y0121449D01*
X0110485Y0121501D01*
X0110501Y0121553D01*
X0110521Y0121603D01*
X0110544Y0121651D01*
X0110571Y0121698D01*
X0110600Y0121743D01*
X0110633Y0121786D01*
X0110668Y0121826D01*
X0110706Y0121864D01*
X0110746Y0121899D01*
X0110789Y0121932D01*
X0110834Y0121961D01*
X0110881Y0121988D01*
X0110929Y0122011D01*
X0110979Y0122031D01*
X0111031Y0122047D01*
X0111083Y0122060D01*
X0111136Y0122069D01*
X0111189Y0122074D01*
X0111243Y0122076D01*
X0111243Y0122077D02*
X0112030Y0122077D01*
X0112030Y0122076D02*
X0112084Y0122074D01*
X0112137Y0122069D01*
X0112190Y0122060D01*
X0112242Y0122047D01*
X0112294Y0122031D01*
X0112344Y0122011D01*
X0112392Y0121988D01*
X0112439Y0121961D01*
X0112484Y0121932D01*
X0112527Y0121899D01*
X0112567Y0121864D01*
X0112605Y0121826D01*
X0112640Y0121786D01*
X0112673Y0121743D01*
X0112702Y0121698D01*
X0112729Y0121651D01*
X0112752Y0121603D01*
X0112772Y0121553D01*
X0112788Y0121501D01*
X0112801Y0121449D01*
X0112810Y0121396D01*
X0112815Y0121343D01*
X0112817Y0121289D01*
X0112817Y0120108D01*
X0112818Y0120108D02*
X0112820Y0120054D01*
X0112825Y0120001D01*
X0112834Y0119948D01*
X0112847Y0119896D01*
X0112863Y0119844D01*
X0112883Y0119794D01*
X0112906Y0119746D01*
X0112933Y0119699D01*
X0112962Y0119654D01*
X0112995Y0119611D01*
X0113030Y0119571D01*
X0113068Y0119533D01*
X0113108Y0119498D01*
X0113151Y0119465D01*
X0113196Y0119436D01*
X0113243Y0119409D01*
X0113291Y0119386D01*
X0113341Y0119366D01*
X0113393Y0119350D01*
X0113445Y0119337D01*
X0113498Y0119328D01*
X0113551Y0119323D01*
X0113605Y0119321D01*
X0113998Y0119321D01*
X0114052Y0119323D01*
X0114105Y0119328D01*
X0114158Y0119337D01*
X0114210Y0119350D01*
X0114262Y0119366D01*
X0114312Y0119386D01*
X0114360Y0119409D01*
X0114407Y0119436D01*
X0114452Y0119465D01*
X0114495Y0119498D01*
X0114535Y0119533D01*
X0114573Y0119571D01*
X0114608Y0119611D01*
X0114641Y0119654D01*
X0114670Y0119699D01*
X0114697Y0119746D01*
X0114720Y0119794D01*
X0114740Y0119844D01*
X0114756Y0119896D01*
X0114769Y0119948D01*
X0114778Y0120001D01*
X0114783Y0120054D01*
X0114785Y0120108D01*
X0114786Y0120108D02*
X0114786Y0122077D01*
X0114788Y0122131D01*
X0114793Y0122184D01*
X0114802Y0122237D01*
X0114815Y0122289D01*
X0114831Y0122341D01*
X0114851Y0122391D01*
X0114874Y0122439D01*
X0114901Y0122486D01*
X0114930Y0122531D01*
X0114963Y0122574D01*
X0114998Y0122614D01*
X0115036Y0122652D01*
X0115076Y0122687D01*
X0115119Y0122720D01*
X0115164Y0122749D01*
X0115211Y0122776D01*
X0115259Y0122799D01*
X0115309Y0122819D01*
X0115361Y0122835D01*
X0115413Y0122848D01*
X0115466Y0122857D01*
X0115519Y0122862D01*
X0115573Y0122864D01*
X0116361Y0122864D01*
X0116415Y0122862D01*
X0116468Y0122857D01*
X0116521Y0122848D01*
X0116573Y0122835D01*
X0116625Y0122819D01*
X0116675Y0122799D01*
X0116723Y0122776D01*
X0116770Y0122749D01*
X0116815Y0122720D01*
X0116858Y0122687D01*
X0116898Y0122652D01*
X0116936Y0122614D01*
X0116971Y0122574D01*
X0117004Y0122531D01*
X0117033Y0122486D01*
X0117060Y0122439D01*
X0117083Y0122391D01*
X0117103Y0122341D01*
X0117119Y0122289D01*
X0117132Y0122237D01*
X0117141Y0122184D01*
X0117146Y0122131D01*
X0117148Y0122077D01*
X0117148Y0120108D01*
X0117150Y0120054D01*
X0117155Y0120001D01*
X0117164Y0119948D01*
X0117177Y0119896D01*
X0117193Y0119844D01*
X0117213Y0119794D01*
X0117236Y0119746D01*
X0117263Y0119699D01*
X0117292Y0119654D01*
X0117325Y0119611D01*
X0117360Y0119571D01*
X0117398Y0119533D01*
X0117438Y0119498D01*
X0117481Y0119465D01*
X0117526Y0119436D01*
X0117573Y0119409D01*
X0117621Y0119386D01*
X0117671Y0119366D01*
X0117723Y0119350D01*
X0117775Y0119337D01*
X0117828Y0119328D01*
X0117881Y0119323D01*
X0117935Y0119321D01*
X0118329Y0119321D01*
X0118383Y0119323D01*
X0118436Y0119328D01*
X0118489Y0119337D01*
X0118541Y0119350D01*
X0118593Y0119366D01*
X0118643Y0119386D01*
X0118691Y0119409D01*
X0118738Y0119436D01*
X0118783Y0119465D01*
X0118826Y0119498D01*
X0118866Y0119533D01*
X0118904Y0119571D01*
X0118939Y0119611D01*
X0118972Y0119654D01*
X0119001Y0119699D01*
X0119028Y0119746D01*
X0119051Y0119794D01*
X0119071Y0119844D01*
X0119087Y0119896D01*
X0119100Y0119948D01*
X0119109Y0120001D01*
X0119114Y0120054D01*
X0119116Y0120108D01*
X0119117Y0120108D02*
X0119117Y0121683D01*
X0119119Y0121737D01*
X0119124Y0121790D01*
X0119133Y0121843D01*
X0119146Y0121895D01*
X0119162Y0121947D01*
X0119182Y0121997D01*
X0119205Y0122045D01*
X0119232Y0122092D01*
X0119261Y0122137D01*
X0119294Y0122180D01*
X0119329Y0122220D01*
X0119367Y0122258D01*
X0119407Y0122293D01*
X0119450Y0122326D01*
X0119495Y0122355D01*
X0119542Y0122382D01*
X0119590Y0122405D01*
X0119640Y0122425D01*
X0119692Y0122441D01*
X0119744Y0122454D01*
X0119797Y0122463D01*
X0119850Y0122468D01*
X0119904Y0122470D01*
X0120298Y0122470D01*
X0120352Y0122468D01*
X0120405Y0122463D01*
X0120458Y0122454D01*
X0120510Y0122441D01*
X0120562Y0122425D01*
X0120612Y0122405D01*
X0120660Y0122382D01*
X0120707Y0122355D01*
X0120752Y0122326D01*
X0120795Y0122293D01*
X0120835Y0122258D01*
X0120873Y0122220D01*
X0120908Y0122180D01*
X0120941Y0122137D01*
X0120970Y0122092D01*
X0120997Y0122045D01*
X0121020Y0121997D01*
X0121040Y0121947D01*
X0121056Y0121895D01*
X0121069Y0121843D01*
X0121078Y0121790D01*
X0121083Y0121737D01*
X0121085Y0121683D01*
X0121085Y0120502D01*
X0121087Y0120448D01*
X0121092Y0120395D01*
X0121101Y0120342D01*
X0121114Y0120290D01*
X0121130Y0120238D01*
X0121150Y0120188D01*
X0121173Y0120140D01*
X0121200Y0120093D01*
X0121229Y0120048D01*
X0121262Y0120005D01*
X0121297Y0119965D01*
X0121335Y0119927D01*
X0121375Y0119892D01*
X0121418Y0119859D01*
X0121463Y0119830D01*
X0121510Y0119803D01*
X0121558Y0119780D01*
X0121608Y0119760D01*
X0121660Y0119744D01*
X0121712Y0119731D01*
X0121765Y0119722D01*
X0121818Y0119717D01*
X0121872Y0119715D01*
X0122266Y0119715D01*
X0122320Y0119717D01*
X0122373Y0119722D01*
X0122426Y0119731D01*
X0122478Y0119744D01*
X0122530Y0119760D01*
X0122580Y0119780D01*
X0122628Y0119803D01*
X0122675Y0119830D01*
X0122720Y0119859D01*
X0122763Y0119892D01*
X0122803Y0119927D01*
X0122841Y0119965D01*
X0122876Y0120005D01*
X0122909Y0120048D01*
X0122938Y0120093D01*
X0122965Y0120140D01*
X0122988Y0120188D01*
X0123008Y0120238D01*
X0123024Y0120290D01*
X0123037Y0120342D01*
X0123046Y0120395D01*
X0123051Y0120448D01*
X0123053Y0120502D01*
X0123054Y0120502D02*
X0123054Y0121683D01*
X0123053Y0121683D02*
X0123064Y0121765D01*
X0123079Y0121846D01*
X0123097Y0121926D01*
X0123119Y0122005D01*
X0123145Y0122083D01*
X0123174Y0122160D01*
X0123207Y0122236D01*
X0123244Y0122310D01*
X0123283Y0122382D01*
X0123326Y0122452D01*
X0123373Y0122520D01*
X0123422Y0122586D01*
X0123474Y0122650D01*
X0123529Y0122711D01*
X0123587Y0122770D01*
X0123648Y0122825D01*
X0123711Y0122878D01*
X0123777Y0122928D01*
X0123844Y0122975D01*
X0123914Y0123019D01*
X0123986Y0123059D01*
X0124060Y0123096D01*
X0124135Y0123130D01*
X0124211Y0123160D01*
X0124289Y0123187D01*
X0124368Y0123210D01*
X0124449Y0123229D01*
X0124529Y0123244D01*
X0124611Y0123256D01*
X0124693Y0123264D01*
X0124775Y0123268D01*
X0124858Y0123269D01*
X0124940Y0123265D01*
X0125022Y0123258D01*
X0134077Y0123258D01*
X0136046Y0121289D01*
X0138014Y0119321D02*
X0139983Y0121289D01*
X0141951Y0123258D02*
X0139983Y0125226D01*
X0138014Y0123258D02*
X0136046Y0125226D01*
X0134077Y0127195D02*
X0132109Y0129163D01*
X0130140Y0127195D02*
X0132109Y0125226D01*
X0130140Y0127195D02*
X0125908Y0127195D01*
X0125711Y0126998D01*
X0127778Y0124833D02*
X0121872Y0124833D01*
X0121085Y0129163D02*
X0128172Y0129163D01*
X0128172Y0125226D02*
X0127778Y0124833D01*
X0128172Y0121289D02*
X0125809Y0121289D01*
X0125416Y0120896D01*
X0126991Y0119321D02*
X0126203Y0118533D01*
X0123841Y0118533D01*
X0124628Y0116171D02*
X0126991Y0116171D01*
X0128172Y0117352D01*
X0126991Y0119321D02*
X0130140Y0119321D01*
X0132109Y0117352D01*
X0130140Y0115384D02*
X0134077Y0115384D01*
X0138014Y0115384D01*
X0139983Y0117352D01*
X0139983Y0113415D02*
X0141951Y0111447D01*
X0139983Y0109478D02*
X0138014Y0111447D01*
X0136046Y0109478D02*
X0138014Y0107510D01*
X0138014Y0103573D01*
X0136046Y0101604D02*
X0134077Y0103573D01*
X0134077Y0111447D01*
X0132109Y0113415D01*
X0134077Y0115384D02*
X0134077Y0119321D01*
X0132109Y0121289D01*
X0130140Y0115384D02*
X0130140Y0107510D01*
X0132109Y0105541D01*
X0130140Y0107510D02*
X0107306Y0107510D01*
X0106518Y0106722D01*
X0103369Y0109872D01*
X0098250Y0109872D01*
X0082896Y0109872D01*
X0082306Y0110463D01*
X0082896Y0114596D02*
X0079550Y0114596D01*
X0078172Y0115974D01*
X0078172Y0120896D01*
X0076597Y0122470D01*
X0075022Y0120896D02*
X0076597Y0119321D01*
X0075022Y0120896D02*
X0075022Y0124045D01*
X0071479Y0127589D01*
X0071479Y0129557D01*
X0069117Y0131919D01*
X0069117Y0136644D01*
X0073841Y0141368D01*
X0076597Y0141368D01*
X0076991Y0144124D02*
X0079746Y0141368D01*
X0079550Y0138415D02*
X0076991Y0138415D01*
X0079550Y0138415D02*
X0079746Y0138219D01*
X0081321Y0136644D02*
X0084077Y0136644D01*
X0082896Y0135069D02*
X0085849Y0135069D01*
X0086439Y0135659D01*
X0090967Y0136841D02*
X0092739Y0135069D01*
X0095494Y0135069D01*
X0095494Y0138219D02*
X0097069Y0139793D01*
X0097069Y0142943D01*
X0100219Y0142943D01*
X0100219Y0145699D01*
X0102187Y0147667D01*
X0104943Y0147667D01*
X0106518Y0149242D01*
X0117542Y0149242D01*
X0119117Y0147667D01*
X0119904Y0147667D01*
X0120298Y0147274D01*
X0126991Y0147274D01*
X0127384Y0146880D01*
X0130140Y0146880D01*
X0132109Y0144911D01*
X0134077Y0142943D02*
X0136046Y0140974D01*
X0134077Y0139006D02*
X0125809Y0139006D01*
X0121479Y0143337D01*
X0117148Y0143337D01*
X0116754Y0142943D01*
X0115573Y0142943D01*
X0114786Y0142156D01*
X0111636Y0143730D02*
X0108093Y0140187D01*
X0106124Y0140187D01*
X0104156Y0138219D01*
X0101794Y0138219D01*
X0100219Y0139793D02*
X0103762Y0139793D01*
X0107699Y0143730D01*
X0108487Y0143730D01*
X0106124Y0144124D02*
X0106124Y0144518D01*
X0108487Y0146880D01*
X0106124Y0144124D02*
X0103369Y0141368D01*
X0098644Y0141368D01*
X0100219Y0139793D02*
X0098644Y0138219D01*
X0098644Y0135069D02*
X0104943Y0135069D01*
X0106912Y0137037D01*
X0120691Y0137037D01*
X0121676Y0138022D01*
X0125809Y0140974D02*
X0121479Y0145305D01*
X0115967Y0145305D01*
X0119904Y0150030D02*
X0121085Y0148848D01*
X0128172Y0148848D01*
X0130140Y0150817D02*
X0132109Y0148848D01*
X0134077Y0146880D02*
X0136046Y0144911D01*
X0138014Y0142943D02*
X0139983Y0140974D01*
X0141951Y0139006D02*
X0141951Y0135069D01*
X0139983Y0133100D01*
X0143920Y0129163D02*
X0145888Y0131132D01*
X0147857Y0133100D02*
X0145888Y0135069D01*
X0143920Y0137037D02*
X0145888Y0139006D01*
X0149825Y0139006D01*
X0151794Y0140974D01*
X0153762Y0139006D02*
X0155731Y0140974D01*
X0153762Y0142943D02*
X0151794Y0144911D01*
X0149825Y0142943D02*
X0149825Y0146880D01*
X0151794Y0148848D01*
X0153762Y0146880D02*
X0153762Y0159675D01*
X0152778Y0160659D01*
X0150809Y0157707D02*
X0151794Y0156722D01*
X0151794Y0152785D01*
X0149825Y0150817D02*
X0147857Y0148848D01*
X0145888Y0146880D02*
X0145888Y0157215D01*
X0143428Y0159675D01*
X0139983Y0159675D02*
X0139983Y0161152D01*
X0139983Y0159675D02*
X0143920Y0155738D01*
X0143920Y0152785D01*
X0141951Y0150817D02*
X0141951Y0154754D01*
X0138014Y0158691D01*
X0135061Y0158691D01*
X0138014Y0154754D02*
X0139983Y0152785D01*
X0141951Y0150817D02*
X0143920Y0148848D01*
X0145888Y0146880D02*
X0147857Y0144911D01*
X0145888Y0142943D02*
X0147857Y0140974D01*
X0143920Y0140974D02*
X0141951Y0142943D01*
X0139983Y0144911D02*
X0138014Y0142943D01*
X0138014Y0146880D02*
X0139983Y0148848D01*
X0141951Y0146880D02*
X0143920Y0144911D01*
X0153762Y0146880D02*
X0155731Y0144911D01*
X0157699Y0146880D02*
X0159668Y0148848D01*
X0161636Y0146880D02*
X0161636Y0157116D01*
X0162620Y0158100D01*
X0159668Y0158297D02*
X0180731Y0179360D01*
X0196656Y0179360D01*
X0201498Y0184203D01*
X0205849Y0184203D01*
X0205928Y0184281D01*
X0210258Y0180738D02*
X0210849Y0180148D01*
X0210849Y0170994D01*
X0211833Y0170010D01*
X0211833Y0167057D01*
X0212719Y0166171D01*
X0215376Y0166171D01*
X0215376Y0164203D02*
X0212719Y0164203D01*
X0210357Y0166565D01*
X0210357Y0168041D01*
X0207404Y0170994D01*
X0202089Y0170994D01*
X0199235Y0168140D01*
X0203959Y0167549D02*
X0206420Y0165089D01*
X0207896Y0165089D01*
X0212719Y0160266D01*
X0215376Y0160266D01*
X0215376Y0162234D02*
X0212719Y0162234D01*
X0207404Y0167549D01*
X0207404Y0163612D02*
X0204451Y0163612D01*
X0203959Y0164104D01*
X0207404Y0163612D02*
X0212719Y0158297D01*
X0215376Y0158297D01*
X0215376Y0156329D02*
X0217640Y0156329D01*
X0222660Y0151309D01*
X0222660Y0133593D01*
X0220199Y0131132D02*
X0220199Y0150325D01*
X0218132Y0152392D01*
X0215376Y0152392D01*
X0215376Y0150423D02*
X0210258Y0150423D01*
X0206813Y0153868D01*
X0200120Y0153868D02*
X0200120Y0156033D01*
X0195101Y0161053D01*
X0192739Y0161053D01*
X0192739Y0158297D01*
X0187227Y0152785D01*
X0185258Y0150817D02*
X0189195Y0150817D01*
X0191853Y0153474D01*
X0194313Y0152490D02*
X0194313Y0155935D01*
X0195593Y0157215D01*
X0194313Y0152490D02*
X0190672Y0148848D01*
X0187227Y0148848D01*
X0185258Y0146880D02*
X0183290Y0144911D01*
X0181321Y0142943D02*
X0190180Y0142943D01*
X0193624Y0146388D01*
X0197069Y0146388D02*
X0197069Y0147864D01*
X0197069Y0146388D02*
X0191656Y0140974D01*
X0187227Y0140974D01*
X0185258Y0139006D02*
X0183290Y0137037D01*
X0185258Y0135069D02*
X0189687Y0135069D01*
X0193132Y0138514D01*
X0195101Y0138514D01*
X0189687Y0138514D02*
X0188703Y0138514D01*
X0187227Y0137037D01*
X0185258Y0135069D02*
X0183290Y0133100D01*
X0181321Y0131132D02*
X0179353Y0129163D01*
X0181321Y0127195D02*
X0173447Y0127195D01*
X0171479Y0125226D01*
X0169510Y0123258D01*
X0165573Y0127195D02*
X0163605Y0125226D01*
X0159668Y0129163D01*
X0155731Y0125226D01*
X0151794Y0129163D01*
X0149825Y0127195D02*
X0147857Y0125226D01*
X0149825Y0123258D02*
X0151794Y0125226D01*
X0155731Y0121289D02*
X0157699Y0123258D01*
X0159668Y0125226D01*
X0159668Y0121289D02*
X0163605Y0125226D01*
X0163605Y0129163D02*
X0167542Y0133100D01*
X0165573Y0135069D01*
X0165573Y0139006D01*
X0163605Y0140974D01*
X0165573Y0142943D02*
X0167542Y0144911D01*
X0169510Y0146880D02*
X0167542Y0148848D01*
X0165573Y0146880D02*
X0165573Y0150817D01*
X0163605Y0152785D02*
X0165573Y0154754D01*
X0167542Y0152785D02*
X0171676Y0156919D01*
X0171676Y0160069D01*
X0173447Y0154754D02*
X0171479Y0152785D01*
X0173447Y0150817D02*
X0171479Y0148848D01*
X0173447Y0146880D02*
X0171479Y0144911D01*
X0173447Y0142943D02*
X0171479Y0140974D01*
X0173447Y0139006D02*
X0175416Y0140974D01*
X0177384Y0142943D02*
X0177384Y0139006D01*
X0179353Y0140974D02*
X0181321Y0142943D01*
X0179353Y0144911D02*
X0177384Y0142943D01*
X0175416Y0144911D02*
X0177384Y0146880D01*
X0175416Y0148848D02*
X0177384Y0150817D01*
X0175416Y0152785D02*
X0177778Y0155148D01*
X0177778Y0155935D01*
X0179353Y0154360D02*
X0180140Y0155148D01*
X0180140Y0156329D01*
X0181321Y0157510D01*
X0181321Y0153967D02*
X0185258Y0157904D01*
X0185258Y0162628D01*
X0189195Y0162628D02*
X0189195Y0158691D01*
X0183290Y0152785D01*
X0181321Y0153967D02*
X0181321Y0150817D01*
X0179353Y0148848D01*
X0183290Y0148848D02*
X0185258Y0150817D01*
X0188703Y0146388D02*
X0189687Y0146388D01*
X0188703Y0146388D02*
X0187227Y0144911D01*
X0183290Y0140974D02*
X0181321Y0139006D01*
X0179353Y0137037D02*
X0177384Y0135069D01*
X0173447Y0135069D01*
X0179353Y0133100D02*
X0181321Y0135069D01*
X0187227Y0133100D02*
X0190180Y0133100D01*
X0192640Y0135561D01*
X0196085Y0135561D01*
X0206420Y0145896D01*
X0212916Y0146486D02*
X0215376Y0146486D01*
X0215376Y0144518D02*
X0212916Y0144518D01*
X0200022Y0131624D01*
X0200022Y0121289D01*
X0198054Y0119321D01*
X0185258Y0119321D01*
X0183290Y0117352D01*
X0181321Y0115384D02*
X0179353Y0113415D01*
X0181321Y0111447D02*
X0183290Y0113415D01*
X0185258Y0111447D02*
X0200022Y0111447D01*
X0205928Y0117352D01*
X0205928Y0129656D01*
X0212916Y0136644D01*
X0215376Y0136644D01*
X0215376Y0138612D02*
X0212916Y0138612D01*
X0204451Y0130148D01*
X0204451Y0118337D01*
X0199530Y0113415D01*
X0187227Y0113415D01*
X0185258Y0111447D02*
X0183290Y0109478D01*
X0181321Y0107510D02*
X0201006Y0107510D01*
X0208880Y0115384D01*
X0208880Y0128671D01*
X0212916Y0132707D01*
X0215376Y0132707D01*
X0215376Y0134675D02*
X0212916Y0134675D01*
X0207404Y0129163D01*
X0207404Y0116368D01*
X0200514Y0109478D01*
X0187227Y0109478D01*
X0181321Y0107510D02*
X0179353Y0105541D01*
X0181321Y0103573D02*
X0183290Y0105541D01*
X0187227Y0105541D02*
X0189195Y0103573D01*
X0219215Y0103573D01*
X0230140Y0114498D01*
X0230140Y0117943D01*
X0228172Y0117943D02*
X0228172Y0122864D01*
X0230534Y0125226D01*
X0268428Y0125226D01*
X0275317Y0118337D01*
X0275317Y0115876D01*
X0278861Y0112333D01*
X0278861Y0109970D01*
X0282207Y0113317D02*
X0285554Y0109970D01*
X0286144Y0109970D01*
X0282207Y0113317D02*
X0282207Y0121781D01*
X0283487Y0123061D01*
X0296951Y0123061D01*
X0293802Y0118337D02*
X0285554Y0118337D01*
X0278861Y0118337D02*
X0277778Y0118337D01*
X0269412Y0126703D01*
X0230042Y0126703D01*
X0226203Y0122864D01*
X0226203Y0117943D01*
X0224235Y0117943D02*
X0224235Y0114301D01*
X0224628Y0113907D01*
X0219904Y0116171D02*
X0217542Y0118533D01*
X0217542Y0122864D01*
X0215573Y0124833D01*
X0215376Y0124833D01*
X0215573Y0124833D02*
X0222266Y0124833D01*
X0225120Y0127687D01*
X0220199Y0127687D02*
X0219117Y0128770D01*
X0215376Y0128770D01*
X0215376Y0130738D02*
X0212916Y0130738D01*
X0210357Y0128179D01*
X0210357Y0113711D01*
X0208880Y0112234D01*
X0209471Y0109577D02*
X0213703Y0113809D01*
X0217542Y0113809D01*
X0219904Y0116171D02*
X0219904Y0110463D01*
X0216164Y0106722D01*
X0209471Y0106722D02*
X0209471Y0109577D01*
X0202975Y0119321D02*
X0199038Y0115384D01*
X0181321Y0115384D01*
X0179353Y0117352D02*
X0177384Y0115384D01*
X0175416Y0117352D02*
X0173447Y0119321D01*
X0165573Y0119321D01*
X0163605Y0121289D01*
X0163605Y0117352D02*
X0159668Y0121289D01*
X0159668Y0117352D02*
X0155731Y0121289D01*
X0155731Y0117352D02*
X0151794Y0121289D01*
X0149825Y0119321D02*
X0145888Y0119321D01*
X0143920Y0121289D01*
X0145888Y0123258D02*
X0147857Y0121289D01*
X0147857Y0117352D02*
X0149825Y0115384D01*
X0147857Y0113415D02*
X0149825Y0111447D01*
X0157699Y0111447D01*
X0159668Y0113415D01*
X0161636Y0111447D01*
X0161636Y0107510D01*
X0163605Y0105541D01*
X0165573Y0103573D02*
X0165573Y0115384D01*
X0163605Y0117352D02*
X0161636Y0115384D01*
X0157699Y0115384D01*
X0155731Y0117352D01*
X0153762Y0115384D02*
X0151794Y0117352D01*
X0149825Y0111447D02*
X0149825Y0107510D01*
X0151794Y0105541D01*
X0153762Y0103573D01*
X0153762Y0099636D01*
X0155731Y0097667D01*
X0157699Y0099636D01*
X0159668Y0101604D02*
X0161636Y0099636D01*
X0159668Y0097667D02*
X0161636Y0095699D01*
X0161636Y0087825D01*
X0163605Y0085856D01*
X0163605Y0038455D01*
X0161636Y0038455D02*
X0161636Y0032707D01*
X0155731Y0032707D02*
X0155731Y0038455D01*
X0157699Y0038455D02*
X0157699Y0083888D01*
X0153762Y0087825D01*
X0153762Y0095699D01*
X0151794Y0097667D01*
X0149825Y0099636D02*
X0147857Y0097667D01*
X0145888Y0095699D02*
X0145888Y0087037D01*
X0151794Y0081132D01*
X0151794Y0038455D01*
X0153762Y0038455D02*
X0153762Y0043730D01*
X0156124Y0046093D01*
X0156124Y0066959D01*
X0156122Y0067022D01*
X0156116Y0067086D01*
X0156107Y0067148D01*
X0156093Y0067210D01*
X0156076Y0067271D01*
X0156056Y0067331D01*
X0156031Y0067390D01*
X0156004Y0067447D01*
X0155973Y0067502D01*
X0155938Y0067555D01*
X0155901Y0067607D01*
X0155860Y0067655D01*
X0155816Y0067701D01*
X0155770Y0067745D01*
X0155722Y0067786D01*
X0155670Y0067823D01*
X0155617Y0067858D01*
X0155562Y0067889D01*
X0155505Y0067916D01*
X0155446Y0067941D01*
X0155386Y0067961D01*
X0155325Y0067978D01*
X0155263Y0067992D01*
X0155201Y0068001D01*
X0155137Y0068007D01*
X0155074Y0068009D01*
X0154468Y0068009D01*
X0154405Y0068011D01*
X0154341Y0068017D01*
X0154279Y0068026D01*
X0154217Y0068040D01*
X0154156Y0068057D01*
X0154096Y0068077D01*
X0154037Y0068102D01*
X0153980Y0068129D01*
X0153925Y0068160D01*
X0153872Y0068195D01*
X0153820Y0068232D01*
X0153772Y0068273D01*
X0153726Y0068317D01*
X0153682Y0068363D01*
X0153641Y0068411D01*
X0153604Y0068463D01*
X0153569Y0068516D01*
X0153538Y0068571D01*
X0153511Y0068628D01*
X0153486Y0068687D01*
X0153466Y0068747D01*
X0153449Y0068808D01*
X0153435Y0068870D01*
X0153426Y0068932D01*
X0153420Y0068996D01*
X0153418Y0069059D01*
X0153418Y0070143D01*
X0153420Y0070206D01*
X0153426Y0070270D01*
X0153435Y0070332D01*
X0153449Y0070394D01*
X0153466Y0070455D01*
X0153486Y0070515D01*
X0153511Y0070574D01*
X0153538Y0070631D01*
X0153569Y0070686D01*
X0153604Y0070739D01*
X0153641Y0070791D01*
X0153682Y0070839D01*
X0153726Y0070885D01*
X0153772Y0070929D01*
X0153820Y0070970D01*
X0153872Y0071007D01*
X0153925Y0071042D01*
X0153980Y0071073D01*
X0154037Y0071100D01*
X0154096Y0071125D01*
X0154156Y0071145D01*
X0154217Y0071162D01*
X0154279Y0071176D01*
X0154341Y0071185D01*
X0154405Y0071191D01*
X0154468Y0071193D01*
X0155074Y0071193D01*
X0155137Y0071195D01*
X0155201Y0071201D01*
X0155263Y0071210D01*
X0155325Y0071224D01*
X0155386Y0071241D01*
X0155446Y0071261D01*
X0155505Y0071286D01*
X0155562Y0071313D01*
X0155617Y0071344D01*
X0155670Y0071379D01*
X0155722Y0071416D01*
X0155770Y0071457D01*
X0155816Y0071501D01*
X0155860Y0071547D01*
X0155901Y0071595D01*
X0155938Y0071647D01*
X0155973Y0071700D01*
X0156004Y0071755D01*
X0156031Y0071812D01*
X0156056Y0071871D01*
X0156076Y0071931D01*
X0156093Y0071992D01*
X0156107Y0072054D01*
X0156116Y0072116D01*
X0156122Y0072180D01*
X0156124Y0072243D01*
X0156124Y0083100D01*
X0151794Y0087431D01*
X0151794Y0093730D01*
X0145888Y0095699D02*
X0143920Y0097667D01*
X0141951Y0099636D02*
X0139983Y0101604D01*
X0141951Y0099636D02*
X0141951Y0080738D01*
X0145888Y0076801D01*
X0145888Y0038455D01*
X0143920Y0038455D02*
X0143920Y0032707D01*
X0149825Y0032707D02*
X0149825Y0038455D01*
X0147857Y0038455D02*
X0147857Y0043730D01*
X0150219Y0046093D01*
X0150219Y0080344D01*
X0149038Y0081526D01*
X0149037Y0081525D02*
X0148985Y0081574D01*
X0148930Y0081621D01*
X0148873Y0081665D01*
X0148813Y0081705D01*
X0148752Y0081742D01*
X0148688Y0081776D01*
X0148623Y0081806D01*
X0148556Y0081833D01*
X0148488Y0081856D01*
X0148418Y0081875D01*
X0148348Y0081890D01*
X0148277Y0081902D01*
X0148206Y0081910D01*
X0148134Y0081914D01*
X0148062Y0081914D01*
X0147990Y0081910D01*
X0147919Y0081902D01*
X0147848Y0081890D01*
X0147778Y0081875D01*
X0147708Y0081856D01*
X0147640Y0081833D01*
X0147573Y0081806D01*
X0147508Y0081776D01*
X0147444Y0081742D01*
X0147383Y0081705D01*
X0147323Y0081665D01*
X0147266Y0081621D01*
X0147211Y0081574D01*
X0147159Y0081525D01*
X0147159Y0081526D02*
X0146730Y0081097D01*
X0146731Y0081096D02*
X0146691Y0081059D01*
X0146648Y0081024D01*
X0146602Y0080993D01*
X0146555Y0080964D01*
X0146506Y0080940D01*
X0146455Y0080919D01*
X0146402Y0080901D01*
X0146349Y0080888D01*
X0146295Y0080878D01*
X0146240Y0080872D01*
X0146185Y0080870D01*
X0146130Y0080872D01*
X0146075Y0080878D01*
X0146021Y0080888D01*
X0145968Y0080901D01*
X0145915Y0080919D01*
X0145864Y0080940D01*
X0145815Y0080964D01*
X0145768Y0080993D01*
X0145722Y0081024D01*
X0145679Y0081059D01*
X0145639Y0081096D01*
X0145639Y0081097D02*
X0144773Y0081962D01*
X0144774Y0081963D02*
X0144730Y0082009D01*
X0144689Y0082057D01*
X0144652Y0082109D01*
X0144617Y0082162D01*
X0144586Y0082217D01*
X0144559Y0082274D01*
X0144534Y0082333D01*
X0144514Y0082393D01*
X0144497Y0082454D01*
X0144483Y0082516D01*
X0144474Y0082578D01*
X0144468Y0082642D01*
X0144466Y0082705D01*
X0144468Y0082768D01*
X0144474Y0082832D01*
X0144483Y0082894D01*
X0144497Y0082956D01*
X0144514Y0083017D01*
X0144534Y0083077D01*
X0144559Y0083136D01*
X0144586Y0083193D01*
X0144617Y0083248D01*
X0144652Y0083301D01*
X0144689Y0083353D01*
X0144730Y0083401D01*
X0144774Y0083447D01*
X0144773Y0083447D02*
X0145202Y0083876D01*
X0145202Y0083877D02*
X0145246Y0083923D01*
X0145287Y0083971D01*
X0145324Y0084023D01*
X0145359Y0084076D01*
X0145390Y0084131D01*
X0145417Y0084188D01*
X0145442Y0084247D01*
X0145462Y0084307D01*
X0145479Y0084368D01*
X0145493Y0084430D01*
X0145502Y0084492D01*
X0145508Y0084556D01*
X0145510Y0084619D01*
X0145508Y0084682D01*
X0145502Y0084746D01*
X0145493Y0084808D01*
X0145479Y0084870D01*
X0145462Y0084931D01*
X0145442Y0084991D01*
X0145417Y0085050D01*
X0145390Y0085107D01*
X0145359Y0085162D01*
X0145324Y0085215D01*
X0145287Y0085267D01*
X0145246Y0085315D01*
X0145202Y0085361D01*
X0143920Y0086644D01*
X0143920Y0093730D01*
X0139983Y0093730D02*
X0139983Y0080344D01*
X0144313Y0076014D01*
X0144313Y0074621D01*
X0144311Y0074558D01*
X0144305Y0074494D01*
X0144296Y0074432D01*
X0144282Y0074370D01*
X0144265Y0074309D01*
X0144245Y0074249D01*
X0144220Y0074190D01*
X0144193Y0074133D01*
X0144162Y0074078D01*
X0144127Y0074025D01*
X0144090Y0073973D01*
X0144049Y0073925D01*
X0144005Y0073879D01*
X0143959Y0073835D01*
X0143911Y0073794D01*
X0143859Y0073757D01*
X0143806Y0073722D01*
X0143751Y0073691D01*
X0143694Y0073664D01*
X0143635Y0073639D01*
X0143575Y0073619D01*
X0143514Y0073602D01*
X0143452Y0073588D01*
X0143390Y0073579D01*
X0143326Y0073573D01*
X0143263Y0073571D01*
X0143204Y0073571D01*
X0143141Y0073569D01*
X0143077Y0073563D01*
X0143015Y0073554D01*
X0142953Y0073540D01*
X0142892Y0073523D01*
X0142832Y0073503D01*
X0142773Y0073478D01*
X0142716Y0073451D01*
X0142661Y0073420D01*
X0142608Y0073385D01*
X0142556Y0073348D01*
X0142508Y0073307D01*
X0142462Y0073263D01*
X0142418Y0073217D01*
X0142377Y0073169D01*
X0142340Y0073117D01*
X0142305Y0073064D01*
X0142274Y0073009D01*
X0142247Y0072952D01*
X0142222Y0072893D01*
X0142202Y0072833D01*
X0142185Y0072772D01*
X0142171Y0072710D01*
X0142162Y0072648D01*
X0142156Y0072584D01*
X0142154Y0072521D01*
X0142154Y0069807D01*
X0142156Y0069744D01*
X0142162Y0069680D01*
X0142171Y0069618D01*
X0142185Y0069556D01*
X0142202Y0069495D01*
X0142222Y0069435D01*
X0142247Y0069376D01*
X0142274Y0069319D01*
X0142305Y0069264D01*
X0142340Y0069211D01*
X0142377Y0069159D01*
X0142418Y0069111D01*
X0142462Y0069065D01*
X0142508Y0069021D01*
X0142556Y0068980D01*
X0142608Y0068943D01*
X0142661Y0068908D01*
X0142716Y0068877D01*
X0142773Y0068850D01*
X0142832Y0068825D01*
X0142892Y0068805D01*
X0142953Y0068788D01*
X0143015Y0068774D01*
X0143077Y0068765D01*
X0143141Y0068759D01*
X0143204Y0068757D01*
X0143263Y0068757D01*
X0143326Y0068755D01*
X0143390Y0068749D01*
X0143452Y0068740D01*
X0143514Y0068726D01*
X0143575Y0068709D01*
X0143635Y0068689D01*
X0143694Y0068664D01*
X0143751Y0068637D01*
X0143806Y0068606D01*
X0143859Y0068571D01*
X0143911Y0068534D01*
X0143959Y0068493D01*
X0144005Y0068449D01*
X0144049Y0068403D01*
X0144090Y0068355D01*
X0144127Y0068303D01*
X0144162Y0068250D01*
X0144193Y0068195D01*
X0144220Y0068138D01*
X0144245Y0068079D01*
X0144265Y0068019D01*
X0144282Y0067958D01*
X0144296Y0067896D01*
X0144305Y0067834D01*
X0144311Y0067770D01*
X0144313Y0067707D01*
X0144313Y0064994D01*
X0144311Y0064931D01*
X0144305Y0064867D01*
X0144296Y0064805D01*
X0144282Y0064743D01*
X0144265Y0064682D01*
X0144245Y0064622D01*
X0144220Y0064563D01*
X0144193Y0064506D01*
X0144162Y0064451D01*
X0144127Y0064398D01*
X0144090Y0064346D01*
X0144049Y0064298D01*
X0144005Y0064252D01*
X0143959Y0064208D01*
X0143911Y0064167D01*
X0143859Y0064130D01*
X0143806Y0064095D01*
X0143751Y0064064D01*
X0143694Y0064037D01*
X0143635Y0064012D01*
X0143575Y0063992D01*
X0143514Y0063975D01*
X0143452Y0063961D01*
X0143390Y0063952D01*
X0143326Y0063946D01*
X0143263Y0063944D01*
X0143204Y0063944D01*
X0143141Y0063942D01*
X0143077Y0063936D01*
X0143015Y0063927D01*
X0142953Y0063913D01*
X0142892Y0063896D01*
X0142832Y0063876D01*
X0142773Y0063851D01*
X0142716Y0063824D01*
X0142661Y0063793D01*
X0142608Y0063758D01*
X0142556Y0063721D01*
X0142508Y0063680D01*
X0142462Y0063636D01*
X0142418Y0063590D01*
X0142377Y0063542D01*
X0142340Y0063490D01*
X0142305Y0063437D01*
X0142274Y0063382D01*
X0142247Y0063325D01*
X0142222Y0063266D01*
X0142202Y0063206D01*
X0142185Y0063145D01*
X0142171Y0063083D01*
X0142162Y0063021D01*
X0142156Y0062957D01*
X0142154Y0062894D01*
X0142154Y0060181D01*
X0142156Y0060118D01*
X0142162Y0060054D01*
X0142171Y0059992D01*
X0142185Y0059930D01*
X0142202Y0059869D01*
X0142222Y0059809D01*
X0142247Y0059750D01*
X0142274Y0059693D01*
X0142305Y0059638D01*
X0142340Y0059585D01*
X0142377Y0059533D01*
X0142418Y0059485D01*
X0142462Y0059439D01*
X0142508Y0059395D01*
X0142556Y0059354D01*
X0142608Y0059317D01*
X0142661Y0059282D01*
X0142716Y0059251D01*
X0142773Y0059224D01*
X0142832Y0059199D01*
X0142892Y0059179D01*
X0142953Y0059162D01*
X0143015Y0059148D01*
X0143077Y0059139D01*
X0143141Y0059133D01*
X0143204Y0059131D01*
X0143263Y0059131D01*
X0143326Y0059129D01*
X0143390Y0059123D01*
X0143452Y0059114D01*
X0143514Y0059100D01*
X0143575Y0059083D01*
X0143635Y0059063D01*
X0143694Y0059038D01*
X0143751Y0059011D01*
X0143806Y0058980D01*
X0143859Y0058945D01*
X0143911Y0058908D01*
X0143959Y0058867D01*
X0144005Y0058823D01*
X0144049Y0058777D01*
X0144090Y0058729D01*
X0144127Y0058677D01*
X0144162Y0058624D01*
X0144193Y0058569D01*
X0144220Y0058512D01*
X0144245Y0058453D01*
X0144265Y0058393D01*
X0144282Y0058332D01*
X0144296Y0058270D01*
X0144305Y0058208D01*
X0144311Y0058144D01*
X0144313Y0058081D01*
X0144313Y0055368D01*
X0144311Y0055305D01*
X0144305Y0055241D01*
X0144296Y0055179D01*
X0144282Y0055117D01*
X0144265Y0055056D01*
X0144245Y0054996D01*
X0144220Y0054937D01*
X0144193Y0054880D01*
X0144162Y0054825D01*
X0144127Y0054772D01*
X0144090Y0054720D01*
X0144049Y0054672D01*
X0144005Y0054626D01*
X0143959Y0054582D01*
X0143911Y0054541D01*
X0143859Y0054504D01*
X0143806Y0054469D01*
X0143751Y0054438D01*
X0143694Y0054411D01*
X0143635Y0054386D01*
X0143575Y0054366D01*
X0143514Y0054349D01*
X0143452Y0054335D01*
X0143390Y0054326D01*
X0143326Y0054320D01*
X0143263Y0054318D01*
X0143204Y0054318D01*
X0143141Y0054316D01*
X0143077Y0054310D01*
X0143015Y0054301D01*
X0142953Y0054287D01*
X0142892Y0054270D01*
X0142832Y0054250D01*
X0142773Y0054225D01*
X0142716Y0054198D01*
X0142661Y0054167D01*
X0142608Y0054132D01*
X0142556Y0054095D01*
X0142508Y0054054D01*
X0142462Y0054010D01*
X0142418Y0053964D01*
X0142377Y0053916D01*
X0142340Y0053864D01*
X0142305Y0053811D01*
X0142274Y0053756D01*
X0142247Y0053699D01*
X0142222Y0053640D01*
X0142202Y0053580D01*
X0142185Y0053519D01*
X0142171Y0053457D01*
X0142162Y0053395D01*
X0142156Y0053331D01*
X0142154Y0053268D01*
X0142154Y0050555D01*
X0142156Y0050492D01*
X0142162Y0050428D01*
X0142171Y0050366D01*
X0142185Y0050304D01*
X0142202Y0050243D01*
X0142222Y0050183D01*
X0142247Y0050124D01*
X0142274Y0050067D01*
X0142305Y0050012D01*
X0142340Y0049959D01*
X0142377Y0049907D01*
X0142418Y0049859D01*
X0142462Y0049813D01*
X0142508Y0049769D01*
X0142556Y0049728D01*
X0142608Y0049691D01*
X0142661Y0049656D01*
X0142716Y0049625D01*
X0142773Y0049598D01*
X0142832Y0049573D01*
X0142892Y0049553D01*
X0142953Y0049536D01*
X0143015Y0049522D01*
X0143077Y0049513D01*
X0143141Y0049507D01*
X0143204Y0049505D01*
X0143263Y0049505D01*
X0143326Y0049503D01*
X0143390Y0049497D01*
X0143452Y0049488D01*
X0143514Y0049474D01*
X0143575Y0049457D01*
X0143635Y0049437D01*
X0143694Y0049412D01*
X0143751Y0049385D01*
X0143806Y0049354D01*
X0143859Y0049319D01*
X0143911Y0049282D01*
X0143959Y0049241D01*
X0144005Y0049197D01*
X0144049Y0049151D01*
X0144090Y0049103D01*
X0144127Y0049051D01*
X0144162Y0048998D01*
X0144193Y0048943D01*
X0144220Y0048886D01*
X0144245Y0048827D01*
X0144265Y0048767D01*
X0144282Y0048706D01*
X0144296Y0048644D01*
X0144305Y0048582D01*
X0144311Y0048518D01*
X0144313Y0048455D01*
X0144313Y0046093D01*
X0141951Y0043730D01*
X0141951Y0038455D01*
X0132109Y0038455D02*
X0132109Y0032707D01*
X0121282Y0043533D02*
X0121282Y0047470D01*
X0117542Y0051211D01*
X0107502Y0057313D02*
X0104550Y0060266D01*
X0102581Y0060266D01*
X0101597Y0059281D01*
X0097463Y0059281D01*
X0097463Y0057313D02*
X0091263Y0057313D01*
X0091262Y0057313D01*
X0097463Y0055344D02*
X0102089Y0055344D01*
X0104057Y0057313D01*
X0097463Y0061250D02*
X0097463Y0061250D01*
X0088309Y0061250D01*
X0085849Y0063711D02*
X0091262Y0063711D01*
X0091754Y0063219D01*
X0097463Y0063219D01*
X0097463Y0067156D02*
X0084372Y0067156D01*
X0083388Y0066171D01*
X0091754Y0071093D02*
X0097463Y0071093D01*
X0110849Y0071486D02*
X0110849Y0076998D01*
X0110849Y0071486D02*
X0114983Y0071486D01*
X0115180Y0071289D01*
X0115376Y0071486D01*
X0119117Y0071486D01*
X0119117Y0076998D02*
X0122463Y0076998D01*
X0122660Y0076801D01*
X0127778Y0076014D02*
X0131518Y0076014D01*
X0130140Y0083691D02*
X0130140Y0091762D01*
X0128172Y0093730D01*
X0132109Y0093730D02*
X0134077Y0095699D01*
X0136046Y0097667D02*
X0138014Y0099636D01*
X0139983Y0097667D02*
X0138014Y0095699D01*
X0138014Y0091270D01*
X0137030Y0090285D01*
X0137030Y0083888D01*
X0136636Y0084281D01*
X0130140Y0083691D02*
X0129943Y0084281D01*
X0122660Y0085069D02*
X0120494Y0085069D01*
X0119117Y0083691D01*
X0110849Y0083691D02*
X0110049Y0082891D01*
X0097463Y0082891D01*
X0084865Y0088317D02*
X0084668Y0088513D01*
X0084668Y0093731D01*
X0078762Y0093731D02*
X0078762Y0082707D01*
X0074530Y0078474D01*
X0074530Y0081919D02*
X0076793Y0084183D01*
X0076793Y0093731D01*
X0088802Y0102589D02*
X0088998Y0102392D01*
X0088802Y0102589D02*
X0088802Y0106722D01*
X0088998Y0113219D02*
X0082896Y0119321D01*
X0079746Y0122470D01*
X0081321Y0124045D02*
X0089195Y0124045D01*
X0091557Y0121683D01*
X0093132Y0120108D02*
X0093132Y0116959D01*
X0096282Y0113809D01*
X0098644Y0113022D02*
X0097069Y0111447D01*
X0094313Y0111447D01*
X0092542Y0113219D01*
X0088998Y0113219D01*
X0095494Y0117746D02*
X0098644Y0114596D01*
X0098644Y0113022D01*
X0101794Y0113415D02*
X0098250Y0109872D01*
X0099431Y0105935D02*
X0099431Y0104163D01*
X0101203Y0102392D01*
X0095691Y0102392D01*
X0106518Y0103770D02*
X0106518Y0106722D01*
X0106518Y0103770D02*
X0107896Y0102392D01*
X0109668Y0114203D02*
X0110455Y0114203D01*
X0110509Y0114205D01*
X0110562Y0114210D01*
X0110615Y0114219D01*
X0110667Y0114232D01*
X0110719Y0114248D01*
X0110769Y0114268D01*
X0110817Y0114291D01*
X0110864Y0114318D01*
X0110909Y0114347D01*
X0110952Y0114380D01*
X0110992Y0114415D01*
X0111030Y0114453D01*
X0111065Y0114493D01*
X0111098Y0114536D01*
X0111127Y0114581D01*
X0111154Y0114628D01*
X0111177Y0114676D01*
X0111197Y0114726D01*
X0111213Y0114778D01*
X0111226Y0114830D01*
X0111235Y0114883D01*
X0111240Y0114936D01*
X0111242Y0114990D01*
X0111243Y0114990D02*
X0111243Y0116959D01*
X0111245Y0117013D01*
X0111250Y0117066D01*
X0111259Y0117119D01*
X0111272Y0117171D01*
X0111288Y0117223D01*
X0111308Y0117273D01*
X0111331Y0117321D01*
X0111358Y0117368D01*
X0111387Y0117413D01*
X0111420Y0117456D01*
X0111455Y0117496D01*
X0111493Y0117534D01*
X0111533Y0117569D01*
X0111576Y0117602D01*
X0111621Y0117631D01*
X0111668Y0117658D01*
X0111716Y0117681D01*
X0111766Y0117701D01*
X0111818Y0117717D01*
X0111870Y0117730D01*
X0111923Y0117739D01*
X0111976Y0117744D01*
X0112030Y0117746D01*
X0112817Y0117746D01*
X0112871Y0117744D01*
X0112924Y0117739D01*
X0112977Y0117730D01*
X0113029Y0117717D01*
X0113081Y0117701D01*
X0113131Y0117681D01*
X0113179Y0117658D01*
X0113226Y0117631D01*
X0113271Y0117602D01*
X0113314Y0117569D01*
X0113354Y0117534D01*
X0113392Y0117496D01*
X0113427Y0117456D01*
X0113460Y0117413D01*
X0113489Y0117368D01*
X0113516Y0117321D01*
X0113539Y0117273D01*
X0113559Y0117223D01*
X0113575Y0117171D01*
X0113588Y0117119D01*
X0113597Y0117066D01*
X0113602Y0117013D01*
X0113604Y0116959D01*
X0113605Y0116959D02*
X0113605Y0114990D01*
X0113607Y0114936D01*
X0113612Y0114883D01*
X0113621Y0114830D01*
X0113634Y0114778D01*
X0113650Y0114726D01*
X0113670Y0114676D01*
X0113693Y0114628D01*
X0113720Y0114581D01*
X0113749Y0114536D01*
X0113782Y0114493D01*
X0113817Y0114453D01*
X0113855Y0114415D01*
X0113895Y0114380D01*
X0113938Y0114347D01*
X0113983Y0114318D01*
X0114030Y0114291D01*
X0114078Y0114268D01*
X0114128Y0114248D01*
X0114180Y0114232D01*
X0114232Y0114219D01*
X0114285Y0114210D01*
X0114338Y0114205D01*
X0114392Y0114203D01*
X0115180Y0114203D01*
X0115234Y0114205D01*
X0115287Y0114210D01*
X0115340Y0114219D01*
X0115392Y0114232D01*
X0115444Y0114248D01*
X0115494Y0114268D01*
X0115542Y0114291D01*
X0115589Y0114318D01*
X0115634Y0114347D01*
X0115677Y0114380D01*
X0115717Y0114415D01*
X0115755Y0114453D01*
X0115790Y0114493D01*
X0115823Y0114536D01*
X0115852Y0114581D01*
X0115879Y0114628D01*
X0115902Y0114676D01*
X0115922Y0114726D01*
X0115938Y0114778D01*
X0115951Y0114830D01*
X0115960Y0114883D01*
X0115965Y0114936D01*
X0115967Y0114990D01*
X0115967Y0116959D01*
X0115969Y0117013D01*
X0115974Y0117066D01*
X0115983Y0117119D01*
X0115996Y0117171D01*
X0116012Y0117223D01*
X0116032Y0117273D01*
X0116055Y0117321D01*
X0116082Y0117368D01*
X0116111Y0117413D01*
X0116144Y0117456D01*
X0116179Y0117496D01*
X0116217Y0117534D01*
X0116257Y0117569D01*
X0116300Y0117602D01*
X0116345Y0117631D01*
X0116392Y0117658D01*
X0116440Y0117681D01*
X0116490Y0117701D01*
X0116542Y0117717D01*
X0116594Y0117730D01*
X0116647Y0117739D01*
X0116700Y0117744D01*
X0116754Y0117746D01*
X0117542Y0117746D01*
X0117596Y0117744D01*
X0117649Y0117739D01*
X0117702Y0117730D01*
X0117754Y0117717D01*
X0117806Y0117701D01*
X0117856Y0117681D01*
X0117904Y0117658D01*
X0117951Y0117631D01*
X0117996Y0117602D01*
X0118039Y0117569D01*
X0118079Y0117534D01*
X0118117Y0117496D01*
X0118152Y0117456D01*
X0118185Y0117413D01*
X0118214Y0117368D01*
X0118241Y0117321D01*
X0118264Y0117273D01*
X0118284Y0117223D01*
X0118300Y0117171D01*
X0118313Y0117119D01*
X0118322Y0117066D01*
X0118327Y0117013D01*
X0118329Y0116959D01*
X0118329Y0114990D01*
X0118330Y0114990D02*
X0118332Y0114936D01*
X0118337Y0114883D01*
X0118346Y0114830D01*
X0118359Y0114778D01*
X0118375Y0114726D01*
X0118395Y0114676D01*
X0118418Y0114628D01*
X0118445Y0114581D01*
X0118474Y0114536D01*
X0118507Y0114493D01*
X0118542Y0114453D01*
X0118580Y0114415D01*
X0118620Y0114380D01*
X0118663Y0114347D01*
X0118708Y0114318D01*
X0118755Y0114291D01*
X0118803Y0114268D01*
X0118853Y0114248D01*
X0118905Y0114232D01*
X0118957Y0114219D01*
X0119010Y0114210D01*
X0119063Y0114205D01*
X0119117Y0114203D01*
X0119904Y0114203D01*
X0119958Y0114205D01*
X0120011Y0114210D01*
X0120064Y0114219D01*
X0120116Y0114232D01*
X0120168Y0114248D01*
X0120218Y0114268D01*
X0120266Y0114291D01*
X0120313Y0114318D01*
X0120358Y0114347D01*
X0120401Y0114380D01*
X0120441Y0114415D01*
X0120479Y0114453D01*
X0120514Y0114493D01*
X0120547Y0114536D01*
X0120576Y0114581D01*
X0120603Y0114628D01*
X0120626Y0114676D01*
X0120646Y0114726D01*
X0120662Y0114778D01*
X0120675Y0114830D01*
X0120684Y0114883D01*
X0120689Y0114936D01*
X0120691Y0114990D01*
X0120692Y0114990D02*
X0120687Y0115105D01*
X0120686Y0115219D01*
X0120689Y0115333D01*
X0120696Y0115448D01*
X0120707Y0115562D01*
X0120722Y0115675D01*
X0120740Y0115788D01*
X0120763Y0115900D01*
X0120789Y0116012D01*
X0120819Y0116122D01*
X0120853Y0116231D01*
X0120890Y0116340D01*
X0120932Y0116446D01*
X0120976Y0116552D01*
X0121025Y0116655D01*
X0121077Y0116757D01*
X0121132Y0116858D01*
X0121191Y0116956D01*
X0121253Y0117052D01*
X0121318Y0117146D01*
X0121387Y0117238D01*
X0121458Y0117327D01*
X0121533Y0117414D01*
X0121610Y0117498D01*
X0121690Y0117580D01*
X0121774Y0117658D01*
X0121859Y0117734D01*
X0121947Y0117807D01*
X0122038Y0117877D01*
X0122131Y0117944D01*
X0122226Y0118007D01*
X0122324Y0118067D01*
X0122423Y0118124D01*
X0122524Y0118178D01*
X0122627Y0118228D01*
X0122732Y0118274D01*
X0122838Y0118317D01*
X0122946Y0118356D01*
X0123054Y0118391D01*
X0123164Y0118423D01*
X0123275Y0118451D01*
X0123387Y0118475D01*
X0123500Y0118496D01*
X0123613Y0118512D01*
X0123727Y0118525D01*
X0123841Y0118533D01*
X0115180Y0126211D02*
X0115178Y0126134D01*
X0115172Y0126057D01*
X0115163Y0125980D01*
X0115150Y0125904D01*
X0115133Y0125828D01*
X0115112Y0125754D01*
X0115088Y0125680D01*
X0115060Y0125608D01*
X0115029Y0125538D01*
X0114994Y0125469D01*
X0114956Y0125401D01*
X0114915Y0125336D01*
X0114870Y0125273D01*
X0114822Y0125212D01*
X0114772Y0125153D01*
X0114719Y0125097D01*
X0114663Y0125044D01*
X0114604Y0124994D01*
X0114543Y0124946D01*
X0114480Y0124901D01*
X0114415Y0124860D01*
X0114347Y0124822D01*
X0114278Y0124787D01*
X0114208Y0124756D01*
X0114136Y0124728D01*
X0114062Y0124704D01*
X0113988Y0124683D01*
X0113912Y0124666D01*
X0113836Y0124653D01*
X0113759Y0124644D01*
X0113682Y0124638D01*
X0113605Y0124636D01*
X0105731Y0120896D02*
X0105731Y0120502D01*
X0105731Y0120896D02*
X0102581Y0124045D01*
X0100219Y0124045D01*
X0098644Y0125620D01*
X0097069Y0124045D02*
X0098644Y0122470D01*
X0095494Y0119321D01*
X0095494Y0117746D01*
X0093132Y0120108D02*
X0095494Y0122470D01*
X0097069Y0124045D02*
X0097069Y0127195D01*
X0098644Y0128770D01*
X0097069Y0130344D02*
X0098644Y0131919D01*
X0097069Y0130344D02*
X0091557Y0130344D01*
X0089589Y0128376D01*
X0086636Y0129754D02*
X0083880Y0129754D01*
X0082896Y0128770D01*
X0081321Y0127195D02*
X0082896Y0125620D01*
X0095494Y0125620D01*
X0095494Y0128770D02*
X0093132Y0128770D01*
X0093132Y0128769D02*
X0093087Y0128752D01*
X0093042Y0128731D01*
X0093000Y0128707D01*
X0092960Y0128679D01*
X0092921Y0128649D01*
X0092886Y0128615D01*
X0092853Y0128579D01*
X0092823Y0128541D01*
X0092796Y0128500D01*
X0092773Y0128457D01*
X0092753Y0128413D01*
X0092736Y0128367D01*
X0092723Y0128320D01*
X0092714Y0128272D01*
X0092709Y0128223D01*
X0092707Y0128174D01*
X0092709Y0128125D01*
X0092715Y0128077D01*
X0092725Y0128029D01*
X0092739Y0127982D01*
X0095494Y0131919D02*
X0082896Y0131919D01*
X0079746Y0128770D01*
X0078172Y0130344D01*
X0078172Y0133494D01*
X0073054Y0133494D01*
X0071479Y0135069D01*
X0073841Y0137825D02*
X0073841Y0138219D01*
X0073841Y0137825D02*
X0076597Y0135069D01*
X0079746Y0135069D02*
X0081321Y0136644D01*
X0081321Y0133494D02*
X0105337Y0133494D01*
X0107306Y0135463D01*
X0108880Y0135463D01*
X0109274Y0135069D01*
X0130140Y0135069D01*
X0128172Y0133100D02*
X0108093Y0133100D01*
X0110455Y0131723D02*
X0110532Y0131721D01*
X0110609Y0131715D01*
X0110686Y0131706D01*
X0110762Y0131693D01*
X0110838Y0131676D01*
X0110912Y0131655D01*
X0110986Y0131631D01*
X0111058Y0131603D01*
X0111128Y0131572D01*
X0111197Y0131537D01*
X0111265Y0131499D01*
X0111330Y0131458D01*
X0111393Y0131413D01*
X0111454Y0131365D01*
X0111513Y0131315D01*
X0111569Y0131262D01*
X0111622Y0131206D01*
X0111672Y0131147D01*
X0111720Y0131086D01*
X0111765Y0131023D01*
X0111806Y0130958D01*
X0111844Y0130890D01*
X0111879Y0130821D01*
X0111910Y0130751D01*
X0111938Y0130679D01*
X0111962Y0130605D01*
X0111983Y0130531D01*
X0112000Y0130455D01*
X0112013Y0130379D01*
X0112022Y0130302D01*
X0112028Y0130225D01*
X0112030Y0130148D01*
X0120691Y0131722D02*
X0120787Y0131728D01*
X0120882Y0131730D01*
X0120978Y0131728D01*
X0121073Y0131723D01*
X0121168Y0131713D01*
X0121263Y0131700D01*
X0121357Y0131683D01*
X0121450Y0131662D01*
X0121542Y0131638D01*
X0121634Y0131610D01*
X0121724Y0131578D01*
X0121812Y0131542D01*
X0121900Y0131503D01*
X0121985Y0131461D01*
X0122069Y0131415D01*
X0122151Y0131366D01*
X0122231Y0131313D01*
X0122308Y0131257D01*
X0122384Y0131199D01*
X0122456Y0131137D01*
X0122527Y0131072D01*
X0122594Y0131005D01*
X0122659Y0130935D01*
X0134077Y0139006D02*
X0136046Y0137037D01*
X0132109Y0140974D02*
X0130140Y0142943D01*
X0128172Y0144911D02*
X0125022Y0144911D01*
X0125809Y0140974D02*
X0128172Y0140974D01*
X0128172Y0152785D02*
X0126597Y0154360D01*
X0126597Y0155148D01*
X0126203Y0158691D02*
X0122660Y0158691D01*
X0126203Y0158691D02*
X0132109Y0152785D01*
X0136046Y0152785D02*
X0125809Y0163022D01*
X0125809Y0165187D01*
X0123250Y0167746D01*
X0128762Y0167746D01*
X0130731Y0172470D02*
X0125416Y0172470D01*
X0130731Y0172470D02*
X0135455Y0167746D01*
X0144904Y0165581D02*
X0147857Y0162628D01*
X0147857Y0152785D01*
X0155731Y0152785D02*
X0156715Y0153770D01*
X0156715Y0155738D01*
X0159668Y0158297D02*
X0159668Y0152785D01*
X0157699Y0150817D02*
X0155731Y0148848D01*
X0159668Y0144911D02*
X0161636Y0146880D01*
X0163605Y0144911D02*
X0165573Y0146880D01*
X0161636Y0142943D02*
X0159668Y0140974D01*
X0159668Y0137037D02*
X0157699Y0135069D01*
X0155731Y0133100D02*
X0153762Y0135069D01*
X0153762Y0131132D02*
X0155731Y0129163D01*
X0149825Y0131132D02*
X0147857Y0129163D01*
X0145888Y0127195D02*
X0143920Y0125226D01*
X0143920Y0117352D02*
X0145888Y0115384D01*
X0143920Y0113415D02*
X0145888Y0111447D01*
X0153762Y0107510D02*
X0155731Y0109478D01*
X0159668Y0105541D02*
X0161636Y0103573D01*
X0163605Y0101604D02*
X0165573Y0103573D01*
X0167542Y0105541D02*
X0169510Y0103573D01*
X0167542Y0101604D02*
X0169510Y0099636D01*
X0169510Y0089793D01*
X0176400Y0082904D01*
X0176400Y0047963D01*
X0185750Y0038612D01*
X0185750Y0033199D01*
X0189786Y0029163D01*
X0196479Y0029163D02*
X0201597Y0029163D01*
X0201597Y0027490D01*
X0208290Y0020797D01*
X0201597Y0020797D02*
X0201597Y0019124D01*
X0208290Y0012431D01*
X0204943Y0009085D02*
X0241164Y0009085D01*
X0244313Y0012234D01*
X0241164Y0012234D01*
X0236439Y0016959D01*
X0236439Y0028770D01*
X0241459Y0033789D01*
X0251597Y0033888D01*
X0255337Y0030738D02*
X0247266Y0030738D01*
X0245298Y0028770D01*
X0245298Y0023455D01*
X0244313Y0022470D01*
X0255337Y0030738D02*
X0258290Y0033888D01*
X0258290Y0042156D01*
X0251597Y0042156D02*
X0246676Y0047077D01*
X0246676Y0050423D01*
X0244313Y0059478D02*
X0239589Y0064203D01*
X0220987Y0064203D01*
X0218526Y0064203D01*
X0213113Y0069616D01*
X0202089Y0069616D02*
X0200711Y0070994D01*
X0194412Y0070994D01*
X0194412Y0079360D01*
X0199628Y0077982D02*
X0199628Y0086250D01*
X0198054Y0087825D01*
X0181321Y0087825D01*
X0177384Y0091762D01*
X0177384Y0095699D01*
X0175416Y0097667D01*
X0177384Y0099636D02*
X0175416Y0101604D01*
X0173447Y0099636D02*
X0173447Y0092746D01*
X0181321Y0084872D01*
X0181321Y0054360D01*
X0189786Y0045896D01*
X0196479Y0045896D02*
X0201597Y0045896D01*
X0201597Y0044222D01*
X0208290Y0037530D01*
X0201597Y0037530D02*
X0201597Y0035856D01*
X0208290Y0029163D01*
X0216754Y0029951D02*
X0220691Y0033888D01*
X0220691Y0052392D01*
X0215770Y0057313D01*
X0213113Y0057313D01*
X0208388Y0050915D02*
X0208388Y0045994D01*
X0208290Y0045896D01*
X0196577Y0054262D02*
X0194412Y0054262D01*
X0194412Y0062628D01*
X0193329Y0066860D02*
X0191459Y0066860D01*
X0191164Y0067156D01*
X0187719Y0070600D01*
X0187719Y0070994D01*
X0186144Y0066270D02*
X0186144Y0064203D01*
X0187719Y0062628D01*
X0191164Y0067156D02*
X0191164Y0057707D01*
X0187719Y0054262D01*
X0178959Y0048848D02*
X0178959Y0083888D01*
X0172660Y0090187D01*
X0168329Y0087825D02*
X0173841Y0082313D01*
X0173841Y0047667D01*
X0183290Y0038219D01*
X0183290Y0027293D01*
X0189786Y0020797D01*
X0196479Y0020797D02*
X0201597Y0020797D01*
X0201597Y0012431D02*
X0196479Y0012431D01*
X0201597Y0012431D02*
X0204943Y0009085D01*
X0189786Y0012431D02*
X0180829Y0021388D01*
X0180829Y0037628D01*
X0171479Y0046978D01*
X0171479Y0081526D01*
X0163605Y0089400D01*
X0163605Y0093730D01*
X0165573Y0095699D02*
X0163605Y0097667D01*
X0165573Y0099636D02*
X0167542Y0097667D01*
X0171479Y0101604D02*
X0173447Y0099636D01*
X0175416Y0105541D02*
X0179353Y0101604D01*
X0181321Y0099636D01*
X0179353Y0097667D02*
X0181321Y0095699D01*
X0179353Y0093730D02*
X0183683Y0089400D01*
X0218132Y0089400D01*
X0243920Y0115187D01*
X0243920Y0117943D01*
X0245888Y0117943D02*
X0245888Y0109872D01*
X0250219Y0105541D01*
X0255140Y0105541D01*
X0269904Y0090778D01*
X0269904Y0080443D01*
X0281715Y0068632D01*
X0283191Y0068632D01*
X0287128Y0064695D01*
X0292050Y0064695D01*
X0332896Y0023848D01*
X0332896Y0015974D01*
X0340770Y0015974D02*
X0340770Y0018927D01*
X0293034Y0066663D01*
X0287620Y0066663D01*
X0284176Y0070108D01*
X0282699Y0070108D01*
X0271872Y0080935D01*
X0271872Y0091762D01*
X0256124Y0107510D01*
X0250711Y0107510D01*
X0247857Y0110364D01*
X0247857Y0117943D01*
X0249825Y0117943D02*
X0249825Y0111841D01*
X0250711Y0110955D01*
X0253172Y0113415D02*
X0251794Y0114793D01*
X0251794Y0117943D01*
X0253762Y0117943D02*
X0253762Y0120699D01*
X0252187Y0122274D01*
X0255632Y0122274D02*
X0255731Y0122175D01*
X0255731Y0117943D01*
X0257699Y0117943D02*
X0257699Y0120896D01*
X0259077Y0122274D01*
X0259668Y0117943D02*
X0259668Y0107904D01*
X0274333Y0093238D01*
X0278861Y0093238D01*
X0285554Y0093238D02*
X0285554Y0094124D01*
X0292542Y0101112D01*
X0299924Y0101112D01*
X0302384Y0103573D01*
X0302384Y0106033D01*
X0307306Y0110955D01*
X0307306Y0115080D01*
X0307413Y0115187D01*
X0303369Y0111447D02*
X0303369Y0119017D01*
X0307413Y0123061D01*
X0308782Y0128671D02*
X0313211Y0124242D01*
X0313211Y0101604D01*
X0309766Y0098159D01*
X0309766Y0083888D01*
X0313211Y0080443D01*
X0313211Y0068632D01*
X0307306Y0062726D01*
X0307306Y0056329D01*
X0287620Y0056329D02*
X0282699Y0061250D01*
X0276794Y0061250D01*
X0275317Y0062726D01*
X0275317Y0072569D01*
X0267935Y0079951D01*
X0267935Y0089793D01*
X0254648Y0103081D01*
X0253172Y0103081D01*
X0254156Y0100620D02*
X0250711Y0100620D01*
X0254156Y0100620D02*
X0265967Y0088809D01*
X0265967Y0079459D01*
X0273743Y0071683D01*
X0273743Y0061348D01*
X0277778Y0057313D01*
X0279746Y0057313D01*
X0287620Y0056329D02*
X0287620Y0040581D01*
X0280731Y0033691D01*
X0279746Y0033691D01*
X0283683Y0029951D02*
X0274628Y0029951D01*
X0271577Y0033002D01*
X0270494Y0033888D01*
X0263802Y0033888D02*
X0263802Y0042156D01*
X0263802Y0043730D01*
X0270494Y0050423D01*
X0270494Y0054360D01*
X0272266Y0054360D01*
X0270494Y0054360D02*
X0270494Y0058494D01*
X0270494Y0066663D01*
X0269510Y0070896D02*
X0268034Y0070896D01*
X0263802Y0066663D01*
X0263211Y0062234D02*
X0263211Y0058494D01*
X0263802Y0058494D01*
X0263802Y0050423D02*
X0263802Y0048652D01*
X0261636Y0046486D01*
X0270494Y0042156D02*
X0273054Y0042156D01*
X0274628Y0040581D01*
X0279746Y0041565D02*
X0285160Y0041565D01*
X0290573Y0042057D02*
X0290573Y0033691D01*
X0282699Y0025817D01*
X0279746Y0025817D01*
X0283683Y0029951D02*
X0284865Y0031132D01*
X0293526Y0038120D02*
X0293526Y0015974D01*
X0301400Y0015974D02*
X0301400Y0038612D01*
X0285160Y0049439D02*
X0279746Y0049439D01*
X0281223Y0063711D02*
X0279746Y0065187D01*
X0281223Y0063711D02*
X0284668Y0063711D01*
X0285652Y0075030D02*
X0285160Y0075522D01*
X0281715Y0075522D01*
X0285652Y0075030D02*
X0285652Y0083002D01*
X0285554Y0083100D01*
X0278861Y0083100D02*
X0278861Y0084774D01*
X0276991Y0086644D01*
X0293526Y0080935D02*
X0293526Y0075030D01*
X0301400Y0075030D02*
X0301400Y0080935D01*
X0309274Y0075030D02*
X0309274Y0069124D01*
X0317148Y0075030D02*
X0317148Y0077195D01*
X0328959Y0089006D01*
X0328959Y0120108D01*
X0306912Y0142156D01*
X0306912Y0148061D01*
X0300613Y0154360D01*
X0276400Y0154360D01*
X0276400Y0152392D02*
X0288506Y0152392D01*
X0288998Y0151900D01*
X0282207Y0159183D02*
X0281124Y0160266D01*
X0276400Y0160266D01*
X0276400Y0162234D02*
X0315573Y0162234D01*
X0317148Y0160659D01*
X0332798Y0160659D01*
X0338309Y0166171D01*
X0346676Y0166171D02*
X0336833Y0156329D01*
X0276400Y0156329D01*
X0276400Y0158297D02*
X0269018Y0158297D01*
X0266459Y0155738D01*
X0267935Y0153278D02*
X0241853Y0153278D01*
X0258093Y0149341D02*
X0269904Y0149341D01*
X0270790Y0148455D01*
X0276400Y0148455D01*
X0276400Y0150423D02*
X0270790Y0150423D01*
X0267935Y0153278D01*
X0270396Y0146880D02*
X0260554Y0146880D01*
X0263014Y0144419D02*
X0263113Y0144518D01*
X0276400Y0144518D01*
X0276400Y0146486D02*
X0270790Y0146486D01*
X0270396Y0146880D01*
X0266065Y0142549D02*
X0265475Y0141959D01*
X0266065Y0142549D02*
X0276400Y0142549D01*
X0276400Y0140581D02*
X0271479Y0140581D01*
X0259077Y0128179D01*
X0229057Y0128179D01*
X0223152Y0122274D01*
X0215376Y0126801D02*
X0212424Y0126801D01*
X0211833Y0126211D01*
X0211833Y0122372D01*
X0213703Y0120502D01*
X0202975Y0119321D02*
X0202975Y0130640D01*
X0212916Y0140581D01*
X0215376Y0140581D01*
X0215376Y0142549D02*
X0212916Y0142549D01*
X0201498Y0131132D01*
X0201498Y0120305D01*
X0198546Y0117352D01*
X0187227Y0117352D01*
X0183290Y0121289D02*
X0181321Y0119321D01*
X0177384Y0119321D01*
X0175416Y0117352D01*
X0177384Y0111447D02*
X0179353Y0109478D01*
X0173447Y0107510D02*
X0171479Y0109478D01*
X0169510Y0107510D02*
X0171479Y0105541D01*
X0183290Y0101604D02*
X0185258Y0099636D01*
X0219904Y0099636D01*
X0234077Y0113809D01*
X0234077Y0117943D01*
X0232109Y0117943D02*
X0232109Y0114104D01*
X0219609Y0101604D01*
X0187227Y0101604D01*
X0187227Y0097667D02*
X0220101Y0097667D01*
X0236046Y0113612D01*
X0236046Y0117943D01*
X0238014Y0117943D02*
X0238014Y0113415D01*
X0220298Y0095699D01*
X0185258Y0095699D01*
X0183290Y0097667D01*
X0183290Y0093730D02*
X0186144Y0090876D01*
X0217542Y0090876D01*
X0241951Y0115285D01*
X0241951Y0117943D01*
X0239983Y0117943D02*
X0239983Y0121191D01*
X0238900Y0122274D01*
X0261636Y0117943D02*
X0261636Y0108888D01*
X0268920Y0101604D01*
X0278861Y0101604D01*
X0285554Y0101604D02*
X0293428Y0109478D01*
X0301400Y0109478D01*
X0303369Y0111447D01*
X0296951Y0115187D02*
X0293802Y0118337D01*
X0287620Y0128671D02*
X0308782Y0128671D01*
X0309274Y0137037D02*
X0326991Y0119321D01*
X0326991Y0089892D01*
X0319806Y0082707D01*
X0316361Y0082707D01*
X0325022Y0081919D02*
X0326991Y0083888D01*
X0342739Y0083888D01*
X0346676Y0087825D01*
X0342246Y0081427D02*
X0340770Y0079951D01*
X0340770Y0075030D01*
X0325022Y0075030D02*
X0325022Y0081919D01*
X0272069Y0111348D02*
X0271479Y0111348D01*
X0267542Y0115285D01*
X0267542Y0117943D01*
X0267542Y0121880D01*
X0267935Y0122274D01*
X0264491Y0122274D02*
X0263506Y0121289D01*
X0263506Y0118041D01*
X0263605Y0117943D01*
X0265573Y0117943D02*
X0265573Y0111545D01*
X0265376Y0111348D01*
X0271380Y0117844D02*
X0272365Y0116860D01*
X0271380Y0117844D02*
X0269609Y0117844D01*
X0269510Y0117943D01*
X0273250Y0126801D02*
X0271872Y0128179D01*
X0273250Y0126801D02*
X0276400Y0126801D01*
X0276400Y0124833D02*
X0281124Y0124833D01*
X0281223Y0124734D01*
X0281223Y0128179D02*
X0280632Y0128770D01*
X0276400Y0128770D01*
X0276400Y0130738D02*
X0285554Y0130738D01*
X0287620Y0128671D01*
X0288605Y0132608D02*
X0288506Y0132707D01*
X0276400Y0132707D01*
X0276400Y0134675D02*
X0272955Y0134675D01*
X0271872Y0133593D01*
X0272266Y0136644D02*
X0271872Y0137037D01*
X0272266Y0136644D02*
X0276400Y0136644D01*
X0276400Y0138612D02*
X0289491Y0138612D01*
X0291065Y0137037D01*
X0309274Y0137037D01*
X0318132Y0162628D02*
X0326400Y0162628D01*
X0329943Y0166171D01*
X0321577Y0166171D02*
X0321479Y0166565D01*
X0317148Y0166565D01*
X0316557Y0164203D02*
X0318132Y0162628D01*
X0316557Y0164203D02*
X0276400Y0164203D01*
X0276400Y0166171D02*
X0269510Y0166171D01*
X0262522Y0159183D01*
X0262522Y0162628D02*
X0268034Y0168140D01*
X0276400Y0168140D01*
X0276400Y0170108D02*
X0272266Y0170108D01*
X0271872Y0170502D01*
X0271872Y0178573D01*
X0274038Y0180738D01*
X0269510Y0178967D02*
X0269510Y0173061D01*
X0259077Y0162628D01*
X0259077Y0166073D02*
X0267542Y0174537D01*
X0267542Y0178967D01*
X0265573Y0178967D02*
X0265573Y0175030D01*
X0259569Y0169026D01*
X0258585Y0169026D01*
X0255632Y0166073D01*
X0252187Y0166073D02*
X0256617Y0170502D01*
X0259077Y0170502D01*
X0263605Y0175030D01*
X0263605Y0178967D01*
X0261636Y0178967D02*
X0261636Y0175030D01*
X0258585Y0171978D01*
X0254648Y0171978D01*
X0252187Y0169518D01*
X0253664Y0174439D02*
X0251794Y0176309D01*
X0251794Y0178967D01*
X0253762Y0178967D02*
X0253762Y0181722D01*
X0249727Y0185758D01*
X0243920Y0185758D01*
X0240376Y0189301D01*
X0240278Y0189400D01*
X0233585Y0189400D01*
X0233880Y0192648D02*
X0233585Y0192943D01*
X0233880Y0192648D02*
X0244313Y0192648D01*
X0247758Y0189203D01*
X0248743Y0189203D01*
X0255731Y0182215D01*
X0255731Y0178967D01*
X0257699Y0178967D02*
X0257699Y0174537D01*
X0257601Y0174439D01*
X0259668Y0178967D02*
X0259668Y0194518D01*
X0248743Y0205443D01*
X0248743Y0211841D01*
X0242857Y0206841D02*
X0242857Y0198474D01*
X0240376Y0195994D01*
X0242857Y0201781D02*
X0248743Y0195896D01*
X0242857Y0201781D02*
X0242857Y0206841D01*
X0269904Y0194124D02*
X0274038Y0189990D01*
X0274038Y0189006D01*
X0266754Y0188219D02*
X0265573Y0189400D01*
X0263014Y0189400D01*
X0256321Y0189400D02*
X0256321Y0186053D01*
X0256124Y0185856D01*
X0247857Y0182215D02*
X0246774Y0183297D01*
X0247857Y0182215D02*
X0247857Y0178967D01*
X0249825Y0178967D02*
X0249825Y0174833D01*
X0250219Y0174439D01*
X0276400Y0172077D02*
X0276597Y0172077D01*
X0276597Y0174439D01*
X0280731Y0178573D01*
X0280731Y0180738D01*
X0280731Y0189006D01*
X0280534Y0193730D02*
X0280534Y0197077D01*
X0280731Y0197274D01*
X0274038Y0197274D02*
X0270888Y0194124D01*
X0269904Y0194124D01*
X0295494Y0185502D02*
X0295494Y0176112D01*
X0295790Y0175817D01*
X0302483Y0175817D02*
X0302581Y0175915D01*
X0302581Y0179557D01*
X0321577Y0179852D02*
X0321577Y0172864D01*
X0329943Y0172864D02*
X0329943Y0177392D01*
X0344313Y0191762D01*
X0345396Y0191762D01*
X0345396Y0188612D02*
X0338309Y0181526D01*
X0338309Y0172864D01*
X0346676Y0172864D02*
X0346676Y0184281D01*
X0346676Y0196093D02*
X0344707Y0196093D01*
X0342739Y0198061D01*
X0323054Y0181329D02*
X0321577Y0179852D01*
X0224235Y0178967D02*
X0224235Y0182510D01*
X0217739Y0189006D01*
X0212817Y0190974D02*
X0222266Y0181526D01*
X0222266Y0178967D01*
X0216951Y0179163D02*
X0223644Y0172470D01*
X0219313Y0168140D01*
X0215376Y0168140D01*
X0215376Y0170108D02*
X0217837Y0170108D01*
X0220199Y0172470D01*
X0216951Y0179163D02*
X0216951Y0180738D01*
X0203959Y0189695D02*
X0203959Y0191742D01*
X0201498Y0194203D01*
X0212817Y0190974D02*
X0212817Y0206801D01*
X0212857Y0206841D01*
X0196577Y0184774D02*
X0196006Y0184203D01*
X0192640Y0184203D01*
X0193132Y0171683D02*
X0192542Y0171093D01*
X0192542Y0168140D01*
X0190672Y0164104D02*
X0198546Y0164104D01*
X0190672Y0164104D02*
X0189195Y0162628D01*
X0179353Y0154360D02*
X0179353Y0152785D01*
X0189687Y0125226D02*
X0212916Y0148455D01*
X0215376Y0148455D01*
X0212916Y0146486D02*
X0189687Y0123258D01*
X0181321Y0123258D01*
X0179353Y0125226D01*
X0181321Y0127195D02*
X0183290Y0129163D01*
X0185258Y0127195D02*
X0183290Y0125226D01*
X0187227Y0125226D02*
X0189687Y0125226D01*
X0189687Y0129163D02*
X0187227Y0129163D01*
X0189687Y0129163D02*
X0191656Y0131132D01*
X0197561Y0122274D02*
X0196577Y0121289D01*
X0187227Y0121289D01*
X0175416Y0129163D02*
X0173447Y0131132D01*
X0167542Y0093730D02*
X0167542Y0091762D01*
X0166754Y0090974D01*
X0162030Y0085069D02*
X0159668Y0087431D01*
X0159668Y0093730D01*
X0162030Y0085069D02*
X0162030Y0081363D01*
X0162028Y0081300D01*
X0162022Y0081236D01*
X0162013Y0081174D01*
X0161999Y0081112D01*
X0161982Y0081051D01*
X0161962Y0080991D01*
X0161937Y0080932D01*
X0161910Y0080875D01*
X0161879Y0080820D01*
X0161844Y0080767D01*
X0161807Y0080715D01*
X0161766Y0080667D01*
X0161722Y0080621D01*
X0161676Y0080577D01*
X0161628Y0080536D01*
X0161576Y0080499D01*
X0161523Y0080464D01*
X0161468Y0080433D01*
X0161411Y0080406D01*
X0161352Y0080381D01*
X0161292Y0080361D01*
X0161231Y0080344D01*
X0161169Y0080330D01*
X0161107Y0080321D01*
X0161043Y0080315D01*
X0160980Y0080313D01*
X0160373Y0080313D01*
X0160310Y0080311D01*
X0160246Y0080305D01*
X0160184Y0080296D01*
X0160122Y0080282D01*
X0160061Y0080265D01*
X0160001Y0080245D01*
X0159942Y0080220D01*
X0159885Y0080193D01*
X0159830Y0080162D01*
X0159777Y0080127D01*
X0159725Y0080090D01*
X0159677Y0080049D01*
X0159631Y0080005D01*
X0159587Y0079959D01*
X0159546Y0079911D01*
X0159509Y0079859D01*
X0159474Y0079806D01*
X0159443Y0079751D01*
X0159416Y0079694D01*
X0159391Y0079635D01*
X0159371Y0079575D01*
X0159354Y0079514D01*
X0159340Y0079452D01*
X0159331Y0079390D01*
X0159325Y0079326D01*
X0159323Y0079263D01*
X0159323Y0078114D01*
X0159325Y0078051D01*
X0159331Y0077987D01*
X0159340Y0077925D01*
X0159354Y0077863D01*
X0159371Y0077802D01*
X0159391Y0077742D01*
X0159416Y0077683D01*
X0159443Y0077626D01*
X0159474Y0077571D01*
X0159509Y0077518D01*
X0159546Y0077466D01*
X0159587Y0077418D01*
X0159631Y0077372D01*
X0159677Y0077328D01*
X0159725Y0077287D01*
X0159777Y0077250D01*
X0159830Y0077215D01*
X0159885Y0077184D01*
X0159942Y0077157D01*
X0160001Y0077132D01*
X0160061Y0077112D01*
X0160122Y0077095D01*
X0160184Y0077081D01*
X0160246Y0077072D01*
X0160310Y0077066D01*
X0160373Y0077064D01*
X0160980Y0077064D01*
X0161043Y0077062D01*
X0161107Y0077056D01*
X0161169Y0077047D01*
X0161231Y0077033D01*
X0161292Y0077016D01*
X0161352Y0076996D01*
X0161411Y0076971D01*
X0161468Y0076944D01*
X0161523Y0076913D01*
X0161576Y0076878D01*
X0161628Y0076841D01*
X0161676Y0076800D01*
X0161722Y0076756D01*
X0161766Y0076710D01*
X0161807Y0076662D01*
X0161844Y0076610D01*
X0161879Y0076557D01*
X0161910Y0076502D01*
X0161937Y0076445D01*
X0161962Y0076386D01*
X0161982Y0076326D01*
X0161999Y0076265D01*
X0162013Y0076203D01*
X0162022Y0076141D01*
X0162028Y0076077D01*
X0162030Y0076014D01*
X0162030Y0046093D01*
X0159668Y0043730D01*
X0159668Y0038455D01*
X0178959Y0048848D02*
X0189786Y0038022D01*
X0189786Y0037530D01*
X0196479Y0037530D02*
X0201597Y0037530D01*
X0196577Y0054262D02*
X0201006Y0058691D01*
X0206321Y0077982D02*
X0207699Y0079360D01*
X0207699Y0082313D01*
X0207699Y0084872D01*
X0206321Y0086250D01*
X0189589Y0093337D02*
X0189195Y0093730D01*
X0187227Y0093730D01*
X0186144Y0084577D02*
X0186144Y0080935D01*
X0187719Y0079360D01*
X0187719Y0079459D01*
X0109668Y0114203D02*
X0109614Y0114205D01*
X0109561Y0114210D01*
X0109508Y0114219D01*
X0109456Y0114232D01*
X0109404Y0114248D01*
X0109354Y0114268D01*
X0109306Y0114291D01*
X0109259Y0114318D01*
X0109214Y0114347D01*
X0109171Y0114380D01*
X0109131Y0114415D01*
X0109093Y0114453D01*
X0109058Y0114493D01*
X0109025Y0114536D01*
X0108996Y0114581D01*
X0108969Y0114628D01*
X0108946Y0114676D01*
X0108926Y0114726D01*
X0108910Y0114778D01*
X0108897Y0114830D01*
X0108888Y0114883D01*
X0108883Y0114936D01*
X0108881Y0114990D01*
X0108880Y0114990D02*
X0108880Y0116959D01*
X0108878Y0117013D01*
X0108873Y0117066D01*
X0108864Y0117119D01*
X0108851Y0117171D01*
X0108835Y0117223D01*
X0108815Y0117273D01*
X0108792Y0117321D01*
X0108765Y0117368D01*
X0108736Y0117413D01*
X0108703Y0117456D01*
X0108668Y0117496D01*
X0108630Y0117534D01*
X0108590Y0117569D01*
X0108547Y0117602D01*
X0108502Y0117631D01*
X0108455Y0117658D01*
X0108407Y0117681D01*
X0108357Y0117701D01*
X0108305Y0117717D01*
X0108253Y0117730D01*
X0108200Y0117739D01*
X0108147Y0117744D01*
X0108093Y0117746D01*
X0107306Y0117746D01*
X0107252Y0117744D01*
X0107199Y0117739D01*
X0107146Y0117730D01*
X0107094Y0117717D01*
X0107042Y0117701D01*
X0106992Y0117681D01*
X0106944Y0117658D01*
X0106897Y0117631D01*
X0106852Y0117602D01*
X0106809Y0117569D01*
X0106769Y0117534D01*
X0106731Y0117496D01*
X0106696Y0117456D01*
X0106663Y0117413D01*
X0106634Y0117368D01*
X0106607Y0117321D01*
X0106584Y0117273D01*
X0106564Y0117223D01*
X0106548Y0117171D01*
X0106535Y0117119D01*
X0106526Y0117066D01*
X0106521Y0117013D01*
X0106519Y0116959D01*
X0106518Y0116959D02*
X0106518Y0114990D01*
X0106516Y0114936D01*
X0106511Y0114883D01*
X0106502Y0114830D01*
X0106489Y0114778D01*
X0106473Y0114726D01*
X0106453Y0114676D01*
X0106430Y0114628D01*
X0106403Y0114581D01*
X0106374Y0114536D01*
X0106341Y0114493D01*
X0106306Y0114453D01*
X0106268Y0114415D01*
X0106228Y0114380D01*
X0106185Y0114347D01*
X0106140Y0114318D01*
X0106093Y0114291D01*
X0106045Y0114268D01*
X0105995Y0114248D01*
X0105943Y0114232D01*
X0105891Y0114219D01*
X0105838Y0114210D01*
X0105785Y0114205D01*
X0105731Y0114203D01*
X0104943Y0114203D01*
X0104889Y0114205D01*
X0104836Y0114210D01*
X0104783Y0114219D01*
X0104731Y0114232D01*
X0104679Y0114248D01*
X0104629Y0114268D01*
X0104581Y0114291D01*
X0104534Y0114318D01*
X0104489Y0114347D01*
X0104446Y0114380D01*
X0104406Y0114415D01*
X0104368Y0114453D01*
X0104333Y0114493D01*
X0104300Y0114536D01*
X0104271Y0114581D01*
X0104244Y0114628D01*
X0104221Y0114676D01*
X0104201Y0114726D01*
X0104185Y0114778D01*
X0104172Y0114830D01*
X0104163Y0114883D01*
X0104158Y0114936D01*
X0104156Y0114990D01*
X0104156Y0120108D01*
X0101794Y0122470D01*
X0101794Y0119321D02*
X0101794Y0113415D01*
X0086046Y0121683D02*
X0083487Y0121683D01*
X0082896Y0122274D01*
X0082896Y0122470D01*
X0081321Y0124045D02*
X0079746Y0125620D01*
X0078172Y0127195D02*
X0076597Y0125620D01*
X0075022Y0124045D01*
X0078172Y0127195D02*
X0081321Y0127195D01*
X0076597Y0128770D02*
X0073841Y0128770D01*
X0071479Y0129557D02*
X0073841Y0131919D01*
X0076597Y0131919D01*
X0079746Y0131919D02*
X0081321Y0133494D01*
X0089195Y0142156D02*
X0089195Y0143730D01*
X0091557Y0146093D01*
X0097069Y0146093D01*
X0098644Y0144518D01*
X0095494Y0144518D02*
X0094707Y0143730D01*
X0092345Y0143730D01*
X0094313Y0141368D02*
X0093526Y0140581D01*
X0094313Y0141368D02*
X0095494Y0141368D01*
X0101794Y0144518D02*
X0103369Y0144518D01*
X0103762Y0144911D01*
X0104550Y0149242D02*
X0100219Y0149242D01*
X0098644Y0150817D01*
X0097069Y0151604D02*
X0097069Y0149242D01*
X0098644Y0147667D01*
X0095494Y0147667D02*
X0093920Y0149242D01*
X0093920Y0151604D01*
X0096676Y0154360D01*
X0097069Y0151604D02*
X0099825Y0154360D01*
X0102187Y0154360D01*
X0104156Y0151998D02*
X0102975Y0150817D01*
X0101794Y0150817D01*
X0104550Y0149242D02*
X0106912Y0151604D01*
X0107306Y0151604D01*
X0088802Y0149636D02*
X0086439Y0147274D01*
X0083290Y0147274D01*
X0082896Y0147667D01*
X0081321Y0146093D02*
X0081321Y0149242D01*
X0084865Y0149242D01*
X0085258Y0149636D01*
X0079746Y0150817D02*
X0079746Y0151604D01*
X0076991Y0150423D02*
X0079746Y0147667D01*
X0081321Y0146093D02*
X0079746Y0144518D01*
X0082896Y0144518D02*
X0084865Y0144518D01*
X0076597Y0147667D02*
X0073841Y0150423D01*
X0079746Y0119321D02*
X0079746Y0117549D01*
X0080534Y0116762D01*
X0060258Y0119813D02*
X0051892Y0119813D01*
X0044809Y0112730D01*
X0044313Y0112730D01*
X0056813Y0097766D02*
X0063408Y0104360D01*
X0056813Y0097766D02*
X0056813Y0087825D01*
X0067443Y0077195D01*
X0067443Y0072569D01*
X0057306Y0081919D02*
X0056321Y0080935D01*
X0050219Y0080935D01*
X0061045Y0088022D02*
X0061243Y0087825D01*
X0061045Y0088022D02*
X0061045Y0093731D01*
X0053369Y0097667D02*
X0052778Y0097077D01*
X0049038Y0097077D01*
X0050219Y0071093D02*
X0042443Y0071093D01*
X0041951Y0071585D01*
X0036931Y0066860D02*
X0034963Y0066860D01*
X0035455Y0066368D01*
X0035455Y0061053D01*
X0031715Y0061053D02*
X0031715Y0071093D01*
X0036931Y0066860D02*
X0038900Y0064892D01*
X0041951Y0064892D01*
X0050219Y0055344D02*
X0051006Y0054556D01*
X0051006Y0051801D01*
X0048152Y0046486D02*
X0044313Y0051801D01*
X0042935Y0050423D01*
X0039589Y0050423D01*
X0048152Y0046486D02*
X0059077Y0046486D01*
X0064982Y0046486D02*
X0064982Y0039301D01*
X0064884Y0039203D01*
X0068624Y0041565D02*
X0068624Y0036250D01*
X0064884Y0032510D01*
X0056518Y0032510D01*
X0052581Y0032510D01*
X0049530Y0035069D01*
X0050809Y0033789D01*
X0050809Y0031230D01*
X0042837Y0035069D02*
X0042837Y0038809D01*
X0043034Y0039006D01*
X0042837Y0039203D01*
X0042837Y0043435D01*
X0030534Y0035069D02*
X0026794Y0038809D01*
X0026794Y0045994D01*
X0027778Y0046978D01*
X0027778Y0049833D01*
X0027975Y0050030D01*
X0066951Y0046486D02*
X0066951Y0043238D01*
X0068624Y0041565D01*
X0076793Y0046486D02*
X0076793Y0051113D01*
X0075514Y0052392D01*
X0078565Y0052392D02*
X0080730Y0050227D01*
X0080730Y0046486D01*
X0078762Y0046486D02*
X0076793Y0046486D01*
X0082699Y0046486D02*
X0082699Y0051604D01*
X0081912Y0052392D01*
X0082896Y0051407D01*
X0085849Y0051407D01*
X0086636Y0050620D01*
X0086636Y0046486D01*
X0088605Y0046486D02*
X0094116Y0046486D01*
X0094609Y0046978D01*
X0076302Y0027785D02*
X0077384Y0026211D01*
X0084668Y0026211D01*
X0093034Y0026211D01*
X0076302Y0027785D02*
X0075809Y0025817D01*
X0071479Y0021486D01*
X0281715Y0016959D02*
X0284668Y0016959D01*
X0285652Y0015974D01*
D53*
X0281715Y0016959D03*
X0284865Y0031132D03*
X0293526Y0038120D03*
X0290573Y0042057D03*
X0285160Y0041565D03*
X0274628Y0040581D03*
X0285160Y0049439D03*
X0272266Y0054360D03*
X0261636Y0046486D03*
X0246676Y0050423D03*
X0263211Y0062234D03*
X0269510Y0070896D03*
X0281715Y0075522D03*
X0293526Y0080935D03*
X0301400Y0080935D03*
X0316361Y0082707D03*
X0309274Y0069124D03*
X0307306Y0056329D03*
X0284668Y0063711D03*
X0276991Y0086644D03*
X0253172Y0103081D03*
X0250711Y0100620D03*
X0250711Y0110955D03*
X0253172Y0113415D03*
X0252187Y0122274D03*
X0255632Y0122274D03*
X0259077Y0122274D03*
X0264491Y0122274D03*
X0267935Y0122274D03*
X0272365Y0116860D03*
X0281223Y0124734D03*
X0281223Y0128179D03*
X0288605Y0132608D03*
X0271872Y0133593D03*
X0271872Y0137037D03*
X0265475Y0141959D03*
X0263014Y0144419D03*
X0260554Y0146880D03*
X0258093Y0149341D03*
X0266459Y0155738D03*
X0262522Y0159183D03*
X0262522Y0162628D03*
X0259077Y0162628D03*
X0259077Y0166073D03*
X0255632Y0166073D03*
X0252187Y0166073D03*
X0252187Y0169518D03*
X0253664Y0174439D03*
X0250219Y0174439D03*
X0243821Y0174439D03*
X0238408Y0174439D03*
X0232010Y0174439D03*
X0228073Y0174439D03*
X0223644Y0172470D03*
X0220199Y0172470D03*
X0210849Y0170994D03*
X0207404Y0170994D03*
X0207404Y0167549D03*
X0203959Y0167549D03*
X0203959Y0164104D03*
X0198546Y0164104D03*
X0192739Y0161053D03*
X0195593Y0157215D03*
X0191853Y0153474D03*
X0197069Y0147864D03*
X0193624Y0146388D03*
X0189687Y0146388D03*
X0185258Y0146880D03*
X0177384Y0146880D03*
X0173447Y0146880D03*
X0169510Y0146880D03*
X0165573Y0142943D03*
X0161636Y0142943D03*
X0157699Y0146880D03*
X0153762Y0142943D03*
X0149825Y0142943D03*
X0145888Y0142943D03*
X0141951Y0142943D03*
X0138014Y0142943D03*
X0134077Y0142943D03*
X0130140Y0142943D03*
X0125022Y0144911D03*
X0118329Y0140974D03*
X0114786Y0142156D03*
X0111636Y0143730D03*
X0108487Y0143730D03*
X0108487Y0146880D03*
X0103762Y0144911D03*
X0107306Y0151604D03*
X0104156Y0151998D03*
X0102187Y0154360D03*
X0096676Y0154360D03*
X0093132Y0154360D03*
X0089983Y0154360D03*
X0082896Y0154754D03*
X0085258Y0149636D03*
X0088802Y0149636D03*
X0084865Y0144518D03*
X0089195Y0142156D03*
X0086833Y0139990D03*
X0090967Y0136841D03*
X0086439Y0135659D03*
X0089589Y0128376D03*
X0092739Y0127982D03*
X0091557Y0121683D03*
X0086046Y0121683D03*
X0080534Y0116762D03*
X0082896Y0114596D03*
X0092542Y0113219D03*
X0096282Y0113809D03*
X0088802Y0106722D03*
X0099431Y0105935D03*
X0106518Y0106722D03*
X0124628Y0105148D03*
X0134077Y0103573D03*
X0138014Y0103573D03*
X0138014Y0099636D03*
X0134077Y0095699D03*
X0130140Y0091762D03*
X0137030Y0090285D03*
X0122660Y0085069D03*
X0122660Y0076801D03*
X0127778Y0076014D03*
X0115180Y0071289D03*
X0107502Y0057313D03*
X0104057Y0057313D03*
X0091262Y0057313D03*
X0085849Y0063711D03*
X0083388Y0066171D03*
X0091754Y0071093D03*
X0074530Y0078474D03*
X0074530Y0081919D03*
X0084865Y0088317D03*
X0061243Y0087825D03*
X0057306Y0081919D03*
X0053369Y0097667D03*
X0068329Y0102785D03*
X0056124Y0116959D03*
X0060258Y0119813D03*
X0072857Y0123061D03*
X0073447Y0119321D03*
X0071479Y0135069D03*
X0073841Y0138219D03*
X0076991Y0138415D03*
X0073841Y0141368D03*
X0076991Y0144124D03*
X0076991Y0150423D03*
X0073841Y0150423D03*
X0070298Y0162628D03*
X0062719Y0161152D03*
X0057798Y0165581D03*
X0054353Y0165581D03*
X0050908Y0165581D03*
X0050908Y0162136D03*
X0054156Y0177195D03*
X0062817Y0189006D03*
X0079746Y0190974D03*
X0099038Y0188612D03*
X0106518Y0174439D03*
X0096282Y0166565D03*
X0113605Y0151604D03*
X0116754Y0151604D03*
X0119904Y0150030D03*
X0115967Y0145305D03*
X0121676Y0138022D03*
X0134077Y0135069D03*
X0138014Y0131132D03*
X0138014Y0127195D03*
X0134077Y0127195D03*
X0138014Y0123258D03*
X0141951Y0123258D03*
X0145888Y0123258D03*
X0149825Y0123258D03*
X0149825Y0127195D03*
X0145888Y0127195D03*
X0145888Y0131132D03*
X0149825Y0131132D03*
X0153762Y0131132D03*
X0153762Y0135069D03*
X0157699Y0135069D03*
X0153762Y0139006D03*
X0149825Y0139006D03*
X0145888Y0135069D03*
X0141951Y0139006D03*
X0141951Y0146880D03*
X0138014Y0146880D03*
X0134077Y0146880D03*
X0130140Y0150817D03*
X0126597Y0155148D03*
X0122660Y0158691D03*
X0125809Y0163022D03*
X0135061Y0158691D03*
X0138014Y0154754D03*
X0143428Y0159675D03*
X0139983Y0161152D03*
X0144904Y0165581D03*
X0152778Y0160659D03*
X0150809Y0157707D03*
X0156715Y0155738D03*
X0157699Y0150817D03*
X0149825Y0150817D03*
X0162620Y0158100D03*
X0165573Y0154754D03*
X0165573Y0150817D03*
X0173447Y0150817D03*
X0177384Y0150817D03*
X0177778Y0155935D03*
X0181321Y0157510D03*
X0185258Y0162628D03*
X0173447Y0154754D03*
X0171676Y0160069D03*
X0160061Y0162628D03*
X0160061Y0171683D03*
X0193132Y0171683D03*
X0196577Y0184774D03*
X0203959Y0189695D03*
X0205928Y0184281D03*
X0222168Y0190778D03*
X0246774Y0183297D03*
X0256124Y0185856D03*
X0266754Y0188219D03*
X0269904Y0194124D03*
X0280534Y0193730D03*
X0302581Y0179557D03*
X0317148Y0166565D03*
X0337227Y0153967D03*
X0347857Y0158297D03*
X0288998Y0151900D03*
X0282207Y0159183D03*
X0271872Y0170502D03*
X0257601Y0174439D03*
X0241853Y0153278D03*
X0226105Y0137037D03*
X0226105Y0133593D03*
X0222660Y0133593D03*
X0220199Y0131132D03*
X0220199Y0127687D03*
X0225120Y0127687D03*
X0223152Y0122274D03*
X0224628Y0113907D03*
X0217542Y0113809D03*
X0208880Y0112234D03*
X0197561Y0122274D03*
X0185258Y0127195D03*
X0181321Y0131132D03*
X0181321Y0135069D03*
X0181321Y0139006D03*
X0177384Y0139006D03*
X0173447Y0139006D03*
X0173447Y0142943D03*
X0165573Y0139006D03*
X0173447Y0135069D03*
X0173447Y0131132D03*
X0165573Y0127195D03*
X0169510Y0123258D03*
X0165573Y0119321D03*
X0165573Y0115384D03*
X0157699Y0115384D03*
X0153762Y0115384D03*
X0149825Y0115384D03*
X0145888Y0115384D03*
X0145888Y0111447D03*
X0141951Y0111447D03*
X0138014Y0111447D03*
X0138014Y0119321D03*
X0149825Y0119321D03*
X0157699Y0123258D03*
X0157699Y0111447D03*
X0153762Y0107510D03*
X0161636Y0103573D03*
X0161636Y0099636D03*
X0165573Y0099636D03*
X0165573Y0095699D03*
X0166754Y0090974D03*
X0172660Y0090187D03*
X0168329Y0087825D03*
X0166754Y0083100D03*
X0186144Y0084577D03*
X0189589Y0093337D03*
X0181321Y0095699D03*
X0177384Y0095699D03*
X0177384Y0099636D03*
X0181321Y0099636D03*
X0181321Y0103573D03*
X0173447Y0107510D03*
X0169510Y0107510D03*
X0169510Y0103573D03*
X0177384Y0111447D03*
X0177384Y0115384D03*
X0181321Y0111447D03*
X0157699Y0099636D03*
X0149825Y0099636D03*
X0124628Y0116171D03*
X0125416Y0120896D03*
X0121872Y0124833D03*
X0121085Y0129163D03*
X0125711Y0126998D03*
X0108093Y0121683D03*
X0093526Y0140581D03*
X0092345Y0143730D03*
X0125416Y0172470D03*
X0138408Y0196093D03*
X0206420Y0145896D03*
X0195101Y0138514D03*
X0189687Y0138514D03*
X0185258Y0139006D03*
X0191656Y0131132D03*
X0238900Y0122274D03*
X0271872Y0128179D03*
X0207699Y0082313D03*
X0193329Y0066860D03*
X0186144Y0066270D03*
X0167542Y0068927D03*
X0208388Y0050915D03*
X0245298Y0028770D03*
X0301400Y0038612D03*
X0342246Y0081427D03*
X0346676Y0087825D03*
X0342739Y0198061D03*
X0248743Y0211841D03*
X0037227Y0185856D03*
X0023841Y0187726D03*
X0025317Y0160659D03*
X0035652Y0117352D03*
X0033683Y0111447D03*
X0023841Y0089793D03*
X0031715Y0071093D03*
X0039589Y0050423D03*
X0050809Y0031230D03*
X0075514Y0052392D03*
X0081912Y0052392D03*
X0094609Y0046978D03*
X0132109Y0032707D03*
X0143920Y0032707D03*
X0149825Y0032707D03*
X0155731Y0032707D03*
X0161636Y0032707D03*
D54*
X0136046Y0038455D02*
X0136046Y0044911D01*
X0131715Y0049242D01*
X0131715Y0051407D01*
X0131518Y0051211D01*
X0127778Y0049242D02*
X0127778Y0055738D01*
X0131518Y0059478D01*
X0127778Y0057904D02*
X0127778Y0064006D01*
X0131518Y0067746D01*
X0138211Y0067746D02*
X0138211Y0059478D01*
X0138211Y0051211D01*
X0138014Y0051407D01*
X0138014Y0046880D01*
X0134077Y0042943D02*
X0127778Y0049242D01*
X0126203Y0048455D02*
X0126203Y0056329D01*
X0127778Y0057904D01*
X0119117Y0064793D02*
X0117542Y0063219D01*
X0117542Y0051211D01*
X0091164Y0051211D01*
X0083683Y0058691D01*
X0071085Y0058691D01*
X0063014Y0050620D01*
X0063014Y0046486D01*
X0061045Y0046486D02*
X0061045Y0051013D01*
X0070298Y0060266D01*
X0084471Y0060266D01*
X0091459Y0053278D01*
X0107404Y0053278D01*
X0112227Y0058100D01*
X0112227Y0063809D01*
X0110849Y0064793D01*
X0126203Y0048455D02*
X0130140Y0044518D01*
X0130140Y0038455D01*
X0128172Y0038455D02*
X0128172Y0029163D01*
X0120691Y0021683D01*
X0104353Y0021683D01*
X0100809Y0018140D01*
X0107502Y0018140D02*
X0112266Y0018140D01*
X0114983Y0015423D01*
X0111439Y0026112D02*
X0111144Y0026407D01*
X0107502Y0026407D01*
X0100809Y0026407D02*
X0094313Y0032904D01*
X0093034Y0032904D01*
X0092148Y0032904D01*
X0093034Y0032904D02*
X0084668Y0032904D01*
X0084668Y0034085D01*
X0077384Y0041368D01*
X0075809Y0041368D01*
X0074825Y0042352D01*
X0074825Y0046486D01*
X0072856Y0046486D02*
X0072856Y0032116D01*
X0067148Y0026407D01*
X0063211Y0026407D01*
X0061636Y0024833D01*
X0061636Y0021486D01*
X0059077Y0021486D02*
X0059077Y0024636D01*
X0062424Y0027982D01*
X0066361Y0027982D01*
X0070888Y0032510D01*
X0070888Y0046486D01*
X0068919Y0046486D02*
X0068919Y0051407D01*
X0069117Y0051604D01*
X0058880Y0055148D02*
X0080731Y0076998D01*
X0080731Y0093731D01*
X0080731Y0097471D01*
X0082109Y0098848D01*
X0084077Y0098848D01*
X0085652Y0100423D01*
X0085652Y0107116D01*
X0082306Y0110463D01*
X0074235Y0110463D01*
X0076597Y0112825D01*
X0076597Y0119321D01*
X0074235Y0103770D02*
X0069313Y0103770D01*
X0068329Y0102785D01*
X0074235Y0103770D02*
X0082306Y0103770D01*
X0070888Y0093731D02*
X0070888Y0088809D01*
X0071085Y0088612D01*
X0049038Y0090384D02*
X0043526Y0084872D01*
X0043526Y0079951D01*
X0038802Y0075226D01*
X0034963Y0075226D01*
X0035455Y0074636D01*
X0038802Y0071289D01*
X0038802Y0069026D01*
X0039589Y0068238D01*
X0044707Y0068238D01*
X0045494Y0067451D01*
X0045494Y0065187D01*
X0050219Y0065187D01*
X0050219Y0061250D02*
X0042148Y0061250D01*
X0038014Y0057116D01*
X0029353Y0057116D01*
X0027975Y0058494D01*
X0027975Y0061053D01*
X0027975Y0066073D01*
X0028270Y0066860D01*
X0028270Y0075226D02*
X0028270Y0083396D01*
X0027778Y0083888D01*
X0050218Y0071093D02*
X0050219Y0071093D01*
X0057503Y0071093D01*
X0057699Y0071289D01*
X0050219Y0059282D02*
X0042542Y0059282D01*
X0038802Y0055541D01*
X0031715Y0055541D01*
X0027975Y0051801D01*
X0027975Y0050030D01*
X0031715Y0050030D02*
X0031715Y0051604D01*
X0034077Y0053967D01*
X0039589Y0053967D01*
X0042935Y0057313D01*
X0050219Y0057313D01*
X0050219Y0055344D02*
X0058684Y0055344D01*
X0058880Y0055148D01*
X0049530Y0043435D02*
X0054254Y0039203D01*
X0056518Y0039203D01*
X0064884Y0039203D01*
X0075416Y0039006D02*
X0076302Y0038120D01*
X0076302Y0034478D01*
X0080730Y0041959D02*
X0085258Y0037431D01*
X0098054Y0037431D01*
X0100809Y0034675D01*
X0107502Y0034675D02*
X0117306Y0034675D01*
X0117345Y0034715D01*
X0107109Y0045404D02*
X0104746Y0043041D01*
X0103270Y0043041D01*
X0096577Y0043041D02*
X0096479Y0042943D01*
X0091951Y0042943D01*
X0090376Y0041368D01*
X0085258Y0041368D01*
X0084668Y0041958D01*
X0084668Y0046486D01*
X0080730Y0046486D02*
X0080730Y0041959D01*
X0042837Y0035069D02*
X0037227Y0035069D01*
X0037227Y0043435D01*
X0035455Y0045207D01*
X0035455Y0050030D01*
X0031715Y0050030D02*
X0031715Y0043140D01*
X0030534Y0043435D01*
X0091557Y0083100D02*
X0091767Y0082891D01*
X0097463Y0082891D01*
X0101203Y0094124D02*
X0101203Y0102392D01*
X0107896Y0102392D02*
X0107896Y0094124D01*
X0113408Y0094124D02*
X0113408Y0102392D01*
X0116951Y0105935D01*
X0123841Y0105935D01*
X0124628Y0105148D01*
X0120101Y0102392D02*
X0120101Y0094124D01*
X0127778Y0094124D01*
X0128172Y0093730D01*
X0138211Y0076014D02*
X0138211Y0067746D01*
X0134077Y0042943D02*
X0134077Y0038455D01*
X0201006Y0058691D02*
X0202089Y0057313D01*
X0241262Y0019419D02*
X0244313Y0022470D01*
X0244313Y0012234D02*
X0243526Y0011447D01*
X0073841Y0141368D02*
X0071282Y0143927D01*
X0071282Y0156329D01*
X0074038Y0159085D01*
X0078762Y0163809D01*
X0078762Y0168533D01*
X0078762Y0176801D01*
X0076006Y0179557D01*
X0076006Y0183888D01*
X0092935Y0192943D02*
X0097266Y0188612D01*
X0099038Y0188612D01*
X0099628Y0192943D02*
X0101597Y0194911D01*
X0105928Y0194911D01*
X0109668Y0194911D02*
X0109668Y0192943D01*
X0112620Y0189990D01*
X0125416Y0189990D01*
X0120298Y0187825D02*
X0123644Y0184478D01*
X0125416Y0184478D01*
X0120298Y0187825D02*
X0109865Y0187825D01*
X0105928Y0183888D01*
X0109668Y0193337D02*
X0109668Y0194911D01*
X0113408Y0194911D02*
X0123644Y0194911D01*
X0125416Y0196683D01*
X0132857Y0197510D02*
X0133683Y0196683D01*
X0132857Y0197510D02*
X0132857Y0206841D01*
X0138408Y0196093D02*
X0138408Y0194715D01*
X0133683Y0189990D01*
X0125416Y0177785D02*
X0125416Y0172470D01*
X0116557Y0167746D02*
X0111046Y0167746D01*
X0111046Y0159478D01*
X0111046Y0158888D01*
X0104156Y0151998D01*
X0104353Y0159478D02*
X0104353Y0167746D01*
X0103172Y0166565D01*
X0096282Y0166565D01*
X0086243Y0167746D02*
X0086243Y0159085D01*
X0080731Y0159085D01*
X0073841Y0152195D01*
X0073841Y0150423D01*
X0086243Y0167746D02*
X0085455Y0168533D01*
X0092935Y0199439D02*
X0093132Y0199636D01*
X0030928Y0176998D02*
X0030821Y0176892D01*
X0023841Y0176892D01*
X0156715Y0176014D02*
X0156715Y0175030D01*
X0160061Y0171683D01*
X0156715Y0168337D01*
X0156715Y0167746D01*
X0160061Y0162628D02*
X0163408Y0165974D01*
X0163408Y0167746D01*
X0163408Y0176014D01*
X0185652Y0184085D02*
X0192522Y0184085D01*
X0192640Y0184203D01*
X0186735Y0189695D02*
X0203959Y0189695D01*
X0186735Y0189695D02*
X0185652Y0190778D01*
X0337227Y0153967D02*
X0338014Y0154754D01*
X0341262Y0154754D01*
X0347955Y0154754D02*
X0347955Y0158199D01*
X0347857Y0158297D01*
D55*
X0113408Y0178770D02*
X0113014Y0178376D01*
X0113408Y0178770D02*
X0113408Y0183888D01*
X0105928Y0183888D02*
X0103959Y0181919D01*
X0096282Y0181919D01*
X0099038Y0188612D02*
X0106124Y0188612D01*
X0109668Y0192156D01*
X0109668Y0192943D01*
X0113408Y0194911D02*
X0113408Y0199045D01*
X0112817Y0199636D01*
X0106518Y0199636D01*
X0105928Y0199045D01*
X0105928Y0194911D01*
X0106518Y0199636D02*
X0093132Y0199636D01*
X0083683Y0199636D01*
X0083487Y0199439D01*
X0083487Y0194911D01*
X0079746Y0194911D02*
X0079746Y0190974D01*
X0076006Y0194911D02*
X0076006Y0198258D01*
X0077384Y0199636D01*
X0083683Y0199636D01*
X0076006Y0194911D02*
X0073841Y0192746D01*
X0066754Y0192746D01*
X0070101Y0192746D01*
X0071085Y0191762D01*
X0071085Y0186250D01*
X0070101Y0185266D01*
X0066754Y0185266D01*
X0063408Y0181919D01*
X0063408Y0174439D01*
X0062620Y0173652D01*
X0062620Y0165581D01*
X0067148Y0161053D01*
X0067148Y0112234D01*
X0067148Y0108100D01*
X0063408Y0104360D01*
X0056715Y0104360D02*
X0055140Y0102785D01*
X0045101Y0102785D01*
X0041557Y0099242D01*
X0041557Y0098455D01*
X0032699Y0107313D01*
X0030928Y0107313D01*
X0033683Y0111447D02*
X0033683Y0113612D01*
X0030928Y0116368D01*
X0056124Y0116959D02*
X0056124Y0112234D01*
X0030534Y0098455D02*
X0030534Y0096880D01*
X0037778Y0089636D01*
X0037778Y0083888D01*
X0066754Y0021486D02*
X0071479Y0021486D01*
X0070298Y0162628D02*
X0070298Y0166171D01*
X0071085Y0166171D01*
X0063408Y0172864D02*
X0062620Y0173652D01*
X0071085Y0177195D02*
X0071085Y0178967D01*
X0076006Y0183888D01*
X0083487Y0183888D02*
X0083487Y0178770D01*
X0085455Y0176801D01*
X0096282Y0170896D02*
X0096282Y0166565D01*
X0106321Y0178376D02*
X0105928Y0178770D01*
X0105928Y0183888D01*
X0066754Y0189006D02*
X0062817Y0189006D01*
X0066754Y0192746D02*
X0066951Y0192549D01*
X0055731Y0192746D02*
X0050613Y0192746D01*
X0050219Y0192352D01*
X0046479Y0192352D01*
X0041951Y0196880D01*
X0050219Y0192352D02*
X0050219Y0204203D01*
X0052857Y0206841D01*
X0041951Y0185856D02*
X0037227Y0185856D01*
X0050219Y0185659D02*
X0050613Y0185266D01*
X0055731Y0185266D01*
D56*
X0027384Y0160659D02*
X0025317Y0160659D01*
X0027384Y0160659D02*
X0044313Y0143730D01*
X0106321Y0174636D02*
X0106518Y0174439D01*
X0106321Y0174636D02*
X0106321Y0178376D01*
X0166754Y0083100D02*
X0166754Y0080541D01*
X0167935Y0079360D01*
X0167935Y0072667D02*
X0167542Y0072274D01*
X0167542Y0068927D01*
D57*
X0138014Y0046880D03*
X0107109Y0045404D03*
X0088309Y0061250D03*
X0078565Y0052392D03*
X0069117Y0051604D03*
X0058880Y0055148D03*
X0057699Y0071289D03*
X0067443Y0072569D03*
X0071085Y0088612D03*
X0091557Y0083100D03*
X0075416Y0039006D03*
X0043034Y0039006D03*
X0111439Y0026112D03*
X0073841Y0128770D03*
X0086636Y0129754D03*
X0108093Y0133100D03*
X0276597Y0174439D03*
D58*
X0062857Y0216841D02*
X0058487Y0216841D01*
X0052857Y0216841D01*
D59*
X0057699Y0216053D02*
X0058487Y0216841D01*
X0057699Y0216053D02*
X0057699Y0201801D01*
X0066754Y0192746D01*
X0027778Y0083888D02*
X0024628Y0080738D01*
X0024628Y0034085D01*
X0027581Y0031132D01*
X0041164Y0031132D01*
X0045888Y0026407D01*
X0054550Y0026407D01*
X0056518Y0024439D01*
X0056518Y0021486D01*
M02*
