G75*
%MOIN*%
%OFA0B0*%
%FSLAX25Y25*%
%IPPOS*%
%LPD*%
%AMOC8*
5,1,8,0,0,1.08239X$1,22.5*
%
%ADD10C,0.00000*%
%ADD11C,0.11627*%
%ADD12C,0.04429*%
%ADD13C,0.06200*%
%ADD14C,0.13900*%
%ADD15C,0.09068*%
%ADD16C,0.05820*%
%ADD17C,0.07591*%
%ADD18R,0.07300X0.07300*%
%ADD19C,0.07300*%
%ADD20C,0.07493*%
%ADD21C,0.08200*%
%ADD22R,0.05906X0.16535*%
%ADD23C,0.06706*%
%ADD24C,0.08477*%
%ADD25R,0.04737X0.02769*%
%ADD26R,0.02965X0.12257*%
%ADD27R,0.05524X0.04934*%
%ADD28R,0.10209X0.04934*%
%ADD29R,0.05052X0.04934*%
%ADD30R,0.03871X0.03635*%
D10*
X0012924Y0005148D02*
X0323948Y0005148D01*
X0324233Y0005151D01*
X0324519Y0005162D01*
X0324804Y0005179D01*
X0325088Y0005203D01*
X0325372Y0005234D01*
X0325655Y0005272D01*
X0325936Y0005317D01*
X0326217Y0005368D01*
X0326497Y0005426D01*
X0326775Y0005491D01*
X0327051Y0005563D01*
X0327325Y0005641D01*
X0327598Y0005726D01*
X0327868Y0005818D01*
X0328136Y0005916D01*
X0328402Y0006020D01*
X0328665Y0006131D01*
X0328925Y0006248D01*
X0329183Y0006371D01*
X0329437Y0006501D01*
X0329688Y0006637D01*
X0329936Y0006778D01*
X0330180Y0006926D01*
X0330421Y0007079D01*
X0330657Y0007239D01*
X0330890Y0007404D01*
X0331119Y0007574D01*
X0331344Y0007750D01*
X0331564Y0007932D01*
X0331780Y0008118D01*
X0331991Y0008310D01*
X0332198Y0008507D01*
X0332400Y0008709D01*
X0332597Y0008916D01*
X0332789Y0009127D01*
X0332975Y0009343D01*
X0333157Y0009563D01*
X0333333Y0009788D01*
X0333503Y0010017D01*
X0333668Y0010250D01*
X0333828Y0010486D01*
X0333981Y0010727D01*
X0334129Y0010971D01*
X0334270Y0011219D01*
X0334406Y0011470D01*
X0334536Y0011724D01*
X0334659Y0011982D01*
X0334776Y0012242D01*
X0334887Y0012505D01*
X0334991Y0012771D01*
X0335089Y0013039D01*
X0335181Y0013309D01*
X0335266Y0013582D01*
X0335344Y0013856D01*
X0335416Y0014132D01*
X0335481Y0014410D01*
X0335539Y0014690D01*
X0335590Y0014971D01*
X0335635Y0015252D01*
X0335673Y0015535D01*
X0335704Y0015819D01*
X0335728Y0016103D01*
X0335745Y0016388D01*
X0335756Y0016674D01*
X0335759Y0016959D01*
X0335759Y0213809D01*
X0335756Y0214094D01*
X0335745Y0214380D01*
X0335728Y0214665D01*
X0335704Y0214949D01*
X0335673Y0215233D01*
X0335635Y0215516D01*
X0335590Y0215797D01*
X0335539Y0216078D01*
X0335481Y0216358D01*
X0335416Y0216636D01*
X0335344Y0216912D01*
X0335266Y0217186D01*
X0335181Y0217459D01*
X0335089Y0217729D01*
X0334991Y0217997D01*
X0334887Y0218263D01*
X0334776Y0218526D01*
X0334659Y0218786D01*
X0334536Y0219044D01*
X0334406Y0219298D01*
X0334270Y0219549D01*
X0334129Y0219797D01*
X0333981Y0220041D01*
X0333828Y0220282D01*
X0333668Y0220518D01*
X0333503Y0220751D01*
X0333333Y0220980D01*
X0333157Y0221205D01*
X0332975Y0221425D01*
X0332789Y0221641D01*
X0332597Y0221852D01*
X0332400Y0222059D01*
X0332198Y0222261D01*
X0331991Y0222458D01*
X0331780Y0222650D01*
X0331564Y0222836D01*
X0331344Y0223018D01*
X0331119Y0223194D01*
X0330890Y0223364D01*
X0330657Y0223529D01*
X0330421Y0223689D01*
X0330180Y0223842D01*
X0329936Y0223990D01*
X0329688Y0224131D01*
X0329437Y0224267D01*
X0329183Y0224397D01*
X0328925Y0224520D01*
X0328665Y0224637D01*
X0328402Y0224748D01*
X0328136Y0224852D01*
X0327868Y0224950D01*
X0327598Y0225042D01*
X0327325Y0225127D01*
X0327051Y0225205D01*
X0326775Y0225277D01*
X0326497Y0225342D01*
X0326217Y0225400D01*
X0325936Y0225451D01*
X0325655Y0225496D01*
X0325372Y0225534D01*
X0325088Y0225565D01*
X0324804Y0225589D01*
X0324519Y0225606D01*
X0324233Y0225617D01*
X0323948Y0225620D01*
X0012924Y0225620D01*
X0012639Y0225617D01*
X0012353Y0225606D01*
X0012068Y0225589D01*
X0011784Y0225565D01*
X0011500Y0225534D01*
X0011217Y0225496D01*
X0010936Y0225451D01*
X0010655Y0225400D01*
X0010375Y0225342D01*
X0010097Y0225277D01*
X0009821Y0225205D01*
X0009547Y0225127D01*
X0009274Y0225042D01*
X0009004Y0224950D01*
X0008736Y0224852D01*
X0008470Y0224748D01*
X0008207Y0224637D01*
X0007947Y0224520D01*
X0007689Y0224397D01*
X0007435Y0224267D01*
X0007184Y0224131D01*
X0006936Y0223990D01*
X0006692Y0223842D01*
X0006451Y0223689D01*
X0006215Y0223529D01*
X0005982Y0223364D01*
X0005753Y0223194D01*
X0005528Y0223018D01*
X0005308Y0222836D01*
X0005092Y0222650D01*
X0004881Y0222458D01*
X0004674Y0222261D01*
X0004472Y0222059D01*
X0004275Y0221852D01*
X0004083Y0221641D01*
X0003897Y0221425D01*
X0003715Y0221205D01*
X0003539Y0220980D01*
X0003369Y0220751D01*
X0003204Y0220518D01*
X0003044Y0220282D01*
X0002891Y0220041D01*
X0002743Y0219797D01*
X0002602Y0219549D01*
X0002466Y0219298D01*
X0002336Y0219044D01*
X0002213Y0218786D01*
X0002096Y0218526D01*
X0001985Y0218263D01*
X0001881Y0217997D01*
X0001783Y0217729D01*
X0001691Y0217459D01*
X0001606Y0217186D01*
X0001528Y0216912D01*
X0001456Y0216636D01*
X0001391Y0216358D01*
X0001333Y0216078D01*
X0001282Y0215797D01*
X0001237Y0215516D01*
X0001199Y0215233D01*
X0001168Y0214949D01*
X0001144Y0214665D01*
X0001127Y0214380D01*
X0001116Y0214094D01*
X0001113Y0213809D01*
X0001113Y0016959D01*
X0001116Y0016674D01*
X0001127Y0016388D01*
X0001144Y0016103D01*
X0001168Y0015819D01*
X0001199Y0015535D01*
X0001237Y0015252D01*
X0001282Y0014971D01*
X0001333Y0014690D01*
X0001391Y0014410D01*
X0001456Y0014132D01*
X0001528Y0013856D01*
X0001606Y0013582D01*
X0001691Y0013309D01*
X0001783Y0013039D01*
X0001881Y0012771D01*
X0001985Y0012505D01*
X0002096Y0012242D01*
X0002213Y0011982D01*
X0002336Y0011724D01*
X0002466Y0011470D01*
X0002602Y0011219D01*
X0002743Y0010971D01*
X0002891Y0010727D01*
X0003044Y0010486D01*
X0003204Y0010250D01*
X0003369Y0010017D01*
X0003539Y0009788D01*
X0003715Y0009563D01*
X0003897Y0009343D01*
X0004083Y0009127D01*
X0004275Y0008916D01*
X0004472Y0008709D01*
X0004674Y0008507D01*
X0004881Y0008310D01*
X0005092Y0008118D01*
X0005308Y0007932D01*
X0005528Y0007750D01*
X0005753Y0007574D01*
X0005982Y0007404D01*
X0006215Y0007239D01*
X0006451Y0007079D01*
X0006692Y0006926D01*
X0006936Y0006778D01*
X0007184Y0006637D01*
X0007435Y0006501D01*
X0007689Y0006371D01*
X0007947Y0006248D01*
X0008207Y0006131D01*
X0008470Y0006020D01*
X0008736Y0005916D01*
X0009004Y0005818D01*
X0009274Y0005726D01*
X0009547Y0005641D01*
X0009821Y0005563D01*
X0010097Y0005491D01*
X0010375Y0005426D01*
X0010655Y0005368D01*
X0010936Y0005317D01*
X0011217Y0005272D01*
X0011500Y0005234D01*
X0011784Y0005203D01*
X0012068Y0005179D01*
X0012353Y0005162D01*
X0012639Y0005151D01*
X0012924Y0005148D01*
X0009480Y0018927D02*
X0009482Y0019074D01*
X0009488Y0019220D01*
X0009498Y0019366D01*
X0009512Y0019512D01*
X0009530Y0019658D01*
X0009551Y0019803D01*
X0009577Y0019947D01*
X0009607Y0020091D01*
X0009640Y0020233D01*
X0009677Y0020375D01*
X0009718Y0020516D01*
X0009763Y0020655D01*
X0009812Y0020794D01*
X0009864Y0020931D01*
X0009921Y0021066D01*
X0009980Y0021200D01*
X0010044Y0021332D01*
X0010111Y0021462D01*
X0010181Y0021591D01*
X0010255Y0021718D01*
X0010332Y0021842D01*
X0010413Y0021965D01*
X0010497Y0022085D01*
X0010584Y0022203D01*
X0010674Y0022318D01*
X0010767Y0022431D01*
X0010864Y0022542D01*
X0010963Y0022650D01*
X0011065Y0022755D01*
X0011170Y0022857D01*
X0011278Y0022956D01*
X0011389Y0023053D01*
X0011502Y0023146D01*
X0011617Y0023236D01*
X0011735Y0023323D01*
X0011855Y0023407D01*
X0011978Y0023488D01*
X0012102Y0023565D01*
X0012229Y0023639D01*
X0012358Y0023709D01*
X0012488Y0023776D01*
X0012620Y0023840D01*
X0012754Y0023899D01*
X0012889Y0023956D01*
X0013026Y0024008D01*
X0013165Y0024057D01*
X0013304Y0024102D01*
X0013445Y0024143D01*
X0013587Y0024180D01*
X0013729Y0024213D01*
X0013873Y0024243D01*
X0014017Y0024269D01*
X0014162Y0024290D01*
X0014308Y0024308D01*
X0014454Y0024322D01*
X0014600Y0024332D01*
X0014746Y0024338D01*
X0014893Y0024340D01*
X0015040Y0024338D01*
X0015186Y0024332D01*
X0015332Y0024322D01*
X0015478Y0024308D01*
X0015624Y0024290D01*
X0015769Y0024269D01*
X0015913Y0024243D01*
X0016057Y0024213D01*
X0016199Y0024180D01*
X0016341Y0024143D01*
X0016482Y0024102D01*
X0016621Y0024057D01*
X0016760Y0024008D01*
X0016897Y0023956D01*
X0017032Y0023899D01*
X0017166Y0023840D01*
X0017298Y0023776D01*
X0017428Y0023709D01*
X0017557Y0023639D01*
X0017684Y0023565D01*
X0017808Y0023488D01*
X0017931Y0023407D01*
X0018051Y0023323D01*
X0018169Y0023236D01*
X0018284Y0023146D01*
X0018397Y0023053D01*
X0018508Y0022956D01*
X0018616Y0022857D01*
X0018721Y0022755D01*
X0018823Y0022650D01*
X0018922Y0022542D01*
X0019019Y0022431D01*
X0019112Y0022318D01*
X0019202Y0022203D01*
X0019289Y0022085D01*
X0019373Y0021965D01*
X0019454Y0021842D01*
X0019531Y0021718D01*
X0019605Y0021591D01*
X0019675Y0021462D01*
X0019742Y0021332D01*
X0019806Y0021200D01*
X0019865Y0021066D01*
X0019922Y0020931D01*
X0019974Y0020794D01*
X0020023Y0020655D01*
X0020068Y0020516D01*
X0020109Y0020375D01*
X0020146Y0020233D01*
X0020179Y0020091D01*
X0020209Y0019947D01*
X0020235Y0019803D01*
X0020256Y0019658D01*
X0020274Y0019512D01*
X0020288Y0019366D01*
X0020298Y0019220D01*
X0020304Y0019074D01*
X0020306Y0018927D01*
X0020304Y0018780D01*
X0020298Y0018634D01*
X0020288Y0018488D01*
X0020274Y0018342D01*
X0020256Y0018196D01*
X0020235Y0018051D01*
X0020209Y0017907D01*
X0020179Y0017763D01*
X0020146Y0017621D01*
X0020109Y0017479D01*
X0020068Y0017338D01*
X0020023Y0017199D01*
X0019974Y0017060D01*
X0019922Y0016923D01*
X0019865Y0016788D01*
X0019806Y0016654D01*
X0019742Y0016522D01*
X0019675Y0016392D01*
X0019605Y0016263D01*
X0019531Y0016136D01*
X0019454Y0016012D01*
X0019373Y0015889D01*
X0019289Y0015769D01*
X0019202Y0015651D01*
X0019112Y0015536D01*
X0019019Y0015423D01*
X0018922Y0015312D01*
X0018823Y0015204D01*
X0018721Y0015099D01*
X0018616Y0014997D01*
X0018508Y0014898D01*
X0018397Y0014801D01*
X0018284Y0014708D01*
X0018169Y0014618D01*
X0018051Y0014531D01*
X0017931Y0014447D01*
X0017808Y0014366D01*
X0017684Y0014289D01*
X0017557Y0014215D01*
X0017428Y0014145D01*
X0017298Y0014078D01*
X0017166Y0014014D01*
X0017032Y0013955D01*
X0016897Y0013898D01*
X0016760Y0013846D01*
X0016621Y0013797D01*
X0016482Y0013752D01*
X0016341Y0013711D01*
X0016199Y0013674D01*
X0016057Y0013641D01*
X0015913Y0013611D01*
X0015769Y0013585D01*
X0015624Y0013564D01*
X0015478Y0013546D01*
X0015332Y0013532D01*
X0015186Y0013522D01*
X0015040Y0013516D01*
X0014893Y0013514D01*
X0014746Y0013516D01*
X0014600Y0013522D01*
X0014454Y0013532D01*
X0014308Y0013546D01*
X0014162Y0013564D01*
X0014017Y0013585D01*
X0013873Y0013611D01*
X0013729Y0013641D01*
X0013587Y0013674D01*
X0013445Y0013711D01*
X0013304Y0013752D01*
X0013165Y0013797D01*
X0013026Y0013846D01*
X0012889Y0013898D01*
X0012754Y0013955D01*
X0012620Y0014014D01*
X0012488Y0014078D01*
X0012358Y0014145D01*
X0012229Y0014215D01*
X0012102Y0014289D01*
X0011978Y0014366D01*
X0011855Y0014447D01*
X0011735Y0014531D01*
X0011617Y0014618D01*
X0011502Y0014708D01*
X0011389Y0014801D01*
X0011278Y0014898D01*
X0011170Y0014997D01*
X0011065Y0015099D01*
X0010963Y0015204D01*
X0010864Y0015312D01*
X0010767Y0015423D01*
X0010674Y0015536D01*
X0010584Y0015651D01*
X0010497Y0015769D01*
X0010413Y0015889D01*
X0010332Y0016012D01*
X0010255Y0016136D01*
X0010181Y0016263D01*
X0010111Y0016392D01*
X0010044Y0016522D01*
X0009980Y0016654D01*
X0009921Y0016788D01*
X0009864Y0016923D01*
X0009812Y0017060D01*
X0009763Y0017199D01*
X0009718Y0017338D01*
X0009677Y0017479D01*
X0009640Y0017621D01*
X0009607Y0017763D01*
X0009577Y0017907D01*
X0009551Y0018051D01*
X0009530Y0018196D01*
X0009512Y0018342D01*
X0009498Y0018488D01*
X0009488Y0018634D01*
X0009482Y0018780D01*
X0009480Y0018927D01*
X0208397Y0026801D02*
X0208399Y0026916D01*
X0208405Y0027032D01*
X0208415Y0027147D01*
X0208429Y0027262D01*
X0208447Y0027376D01*
X0208469Y0027489D01*
X0208494Y0027602D01*
X0208524Y0027713D01*
X0208557Y0027824D01*
X0208594Y0027933D01*
X0208635Y0028041D01*
X0208680Y0028148D01*
X0208728Y0028253D01*
X0208780Y0028356D01*
X0208836Y0028457D01*
X0208895Y0028557D01*
X0208957Y0028654D01*
X0209023Y0028749D01*
X0209091Y0028842D01*
X0209163Y0028932D01*
X0209238Y0029020D01*
X0209317Y0029105D01*
X0209398Y0029187D01*
X0209481Y0029267D01*
X0209568Y0029343D01*
X0209657Y0029417D01*
X0209748Y0029487D01*
X0209842Y0029555D01*
X0209938Y0029619D01*
X0210037Y0029679D01*
X0210137Y0029736D01*
X0210239Y0029790D01*
X0210343Y0029840D01*
X0210449Y0029887D01*
X0210556Y0029930D01*
X0210665Y0029969D01*
X0210775Y0030004D01*
X0210886Y0030035D01*
X0210998Y0030063D01*
X0211111Y0030087D01*
X0211225Y0030107D01*
X0211340Y0030123D01*
X0211455Y0030135D01*
X0211570Y0030143D01*
X0211685Y0030147D01*
X0211801Y0030147D01*
X0211916Y0030143D01*
X0212031Y0030135D01*
X0212146Y0030123D01*
X0212261Y0030107D01*
X0212375Y0030087D01*
X0212488Y0030063D01*
X0212600Y0030035D01*
X0212711Y0030004D01*
X0212821Y0029969D01*
X0212930Y0029930D01*
X0213037Y0029887D01*
X0213143Y0029840D01*
X0213247Y0029790D01*
X0213349Y0029736D01*
X0213449Y0029679D01*
X0213548Y0029619D01*
X0213644Y0029555D01*
X0213738Y0029487D01*
X0213829Y0029417D01*
X0213918Y0029343D01*
X0214005Y0029267D01*
X0214088Y0029187D01*
X0214169Y0029105D01*
X0214248Y0029020D01*
X0214323Y0028932D01*
X0214395Y0028842D01*
X0214463Y0028749D01*
X0214529Y0028654D01*
X0214591Y0028557D01*
X0214650Y0028457D01*
X0214706Y0028356D01*
X0214758Y0028253D01*
X0214806Y0028148D01*
X0214851Y0028041D01*
X0214892Y0027933D01*
X0214929Y0027824D01*
X0214962Y0027713D01*
X0214992Y0027602D01*
X0215017Y0027489D01*
X0215039Y0027376D01*
X0215057Y0027262D01*
X0215071Y0027147D01*
X0215081Y0027032D01*
X0215087Y0026916D01*
X0215089Y0026801D01*
X0215087Y0026686D01*
X0215081Y0026570D01*
X0215071Y0026455D01*
X0215057Y0026340D01*
X0215039Y0026226D01*
X0215017Y0026113D01*
X0214992Y0026000D01*
X0214962Y0025889D01*
X0214929Y0025778D01*
X0214892Y0025669D01*
X0214851Y0025561D01*
X0214806Y0025454D01*
X0214758Y0025349D01*
X0214706Y0025246D01*
X0214650Y0025145D01*
X0214591Y0025045D01*
X0214529Y0024948D01*
X0214463Y0024853D01*
X0214395Y0024760D01*
X0214323Y0024670D01*
X0214248Y0024582D01*
X0214169Y0024497D01*
X0214088Y0024415D01*
X0214005Y0024335D01*
X0213918Y0024259D01*
X0213829Y0024185D01*
X0213738Y0024115D01*
X0213644Y0024047D01*
X0213548Y0023983D01*
X0213449Y0023923D01*
X0213349Y0023866D01*
X0213247Y0023812D01*
X0213143Y0023762D01*
X0213037Y0023715D01*
X0212930Y0023672D01*
X0212821Y0023633D01*
X0212711Y0023598D01*
X0212600Y0023567D01*
X0212488Y0023539D01*
X0212375Y0023515D01*
X0212261Y0023495D01*
X0212146Y0023479D01*
X0212031Y0023467D01*
X0211916Y0023459D01*
X0211801Y0023455D01*
X0211685Y0023455D01*
X0211570Y0023459D01*
X0211455Y0023467D01*
X0211340Y0023479D01*
X0211225Y0023495D01*
X0211111Y0023515D01*
X0210998Y0023539D01*
X0210886Y0023567D01*
X0210775Y0023598D01*
X0210665Y0023633D01*
X0210556Y0023672D01*
X0210449Y0023715D01*
X0210343Y0023762D01*
X0210239Y0023812D01*
X0210137Y0023866D01*
X0210037Y0023923D01*
X0209938Y0023983D01*
X0209842Y0024047D01*
X0209748Y0024115D01*
X0209657Y0024185D01*
X0209568Y0024259D01*
X0209481Y0024335D01*
X0209398Y0024415D01*
X0209317Y0024497D01*
X0209238Y0024582D01*
X0209163Y0024670D01*
X0209091Y0024760D01*
X0209023Y0024853D01*
X0208957Y0024948D01*
X0208895Y0025045D01*
X0208836Y0025145D01*
X0208780Y0025246D01*
X0208728Y0025349D01*
X0208680Y0025454D01*
X0208635Y0025561D01*
X0208594Y0025669D01*
X0208557Y0025778D01*
X0208524Y0025889D01*
X0208494Y0026000D01*
X0208469Y0026113D01*
X0208447Y0026226D01*
X0208429Y0026340D01*
X0208415Y0026455D01*
X0208405Y0026570D01*
X0208399Y0026686D01*
X0208397Y0026801D01*
X0237826Y0018927D02*
X0237828Y0019074D01*
X0237834Y0019220D01*
X0237844Y0019366D01*
X0237858Y0019512D01*
X0237876Y0019658D01*
X0237897Y0019803D01*
X0237923Y0019947D01*
X0237953Y0020091D01*
X0237986Y0020233D01*
X0238023Y0020375D01*
X0238064Y0020516D01*
X0238109Y0020655D01*
X0238158Y0020794D01*
X0238210Y0020931D01*
X0238267Y0021066D01*
X0238326Y0021200D01*
X0238390Y0021332D01*
X0238457Y0021462D01*
X0238527Y0021591D01*
X0238601Y0021718D01*
X0238678Y0021842D01*
X0238759Y0021965D01*
X0238843Y0022085D01*
X0238930Y0022203D01*
X0239020Y0022318D01*
X0239113Y0022431D01*
X0239210Y0022542D01*
X0239309Y0022650D01*
X0239411Y0022755D01*
X0239516Y0022857D01*
X0239624Y0022956D01*
X0239735Y0023053D01*
X0239848Y0023146D01*
X0239963Y0023236D01*
X0240081Y0023323D01*
X0240201Y0023407D01*
X0240324Y0023488D01*
X0240448Y0023565D01*
X0240575Y0023639D01*
X0240704Y0023709D01*
X0240834Y0023776D01*
X0240966Y0023840D01*
X0241100Y0023899D01*
X0241235Y0023956D01*
X0241372Y0024008D01*
X0241511Y0024057D01*
X0241650Y0024102D01*
X0241791Y0024143D01*
X0241933Y0024180D01*
X0242075Y0024213D01*
X0242219Y0024243D01*
X0242363Y0024269D01*
X0242508Y0024290D01*
X0242654Y0024308D01*
X0242800Y0024322D01*
X0242946Y0024332D01*
X0243092Y0024338D01*
X0243239Y0024340D01*
X0243386Y0024338D01*
X0243532Y0024332D01*
X0243678Y0024322D01*
X0243824Y0024308D01*
X0243970Y0024290D01*
X0244115Y0024269D01*
X0244259Y0024243D01*
X0244403Y0024213D01*
X0244545Y0024180D01*
X0244687Y0024143D01*
X0244828Y0024102D01*
X0244967Y0024057D01*
X0245106Y0024008D01*
X0245243Y0023956D01*
X0245378Y0023899D01*
X0245512Y0023840D01*
X0245644Y0023776D01*
X0245774Y0023709D01*
X0245903Y0023639D01*
X0246030Y0023565D01*
X0246154Y0023488D01*
X0246277Y0023407D01*
X0246397Y0023323D01*
X0246515Y0023236D01*
X0246630Y0023146D01*
X0246743Y0023053D01*
X0246854Y0022956D01*
X0246962Y0022857D01*
X0247067Y0022755D01*
X0247169Y0022650D01*
X0247268Y0022542D01*
X0247365Y0022431D01*
X0247458Y0022318D01*
X0247548Y0022203D01*
X0247635Y0022085D01*
X0247719Y0021965D01*
X0247800Y0021842D01*
X0247877Y0021718D01*
X0247951Y0021591D01*
X0248021Y0021462D01*
X0248088Y0021332D01*
X0248152Y0021200D01*
X0248211Y0021066D01*
X0248268Y0020931D01*
X0248320Y0020794D01*
X0248369Y0020655D01*
X0248414Y0020516D01*
X0248455Y0020375D01*
X0248492Y0020233D01*
X0248525Y0020091D01*
X0248555Y0019947D01*
X0248581Y0019803D01*
X0248602Y0019658D01*
X0248620Y0019512D01*
X0248634Y0019366D01*
X0248644Y0019220D01*
X0248650Y0019074D01*
X0248652Y0018927D01*
X0248650Y0018780D01*
X0248644Y0018634D01*
X0248634Y0018488D01*
X0248620Y0018342D01*
X0248602Y0018196D01*
X0248581Y0018051D01*
X0248555Y0017907D01*
X0248525Y0017763D01*
X0248492Y0017621D01*
X0248455Y0017479D01*
X0248414Y0017338D01*
X0248369Y0017199D01*
X0248320Y0017060D01*
X0248268Y0016923D01*
X0248211Y0016788D01*
X0248152Y0016654D01*
X0248088Y0016522D01*
X0248021Y0016392D01*
X0247951Y0016263D01*
X0247877Y0016136D01*
X0247800Y0016012D01*
X0247719Y0015889D01*
X0247635Y0015769D01*
X0247548Y0015651D01*
X0247458Y0015536D01*
X0247365Y0015423D01*
X0247268Y0015312D01*
X0247169Y0015204D01*
X0247067Y0015099D01*
X0246962Y0014997D01*
X0246854Y0014898D01*
X0246743Y0014801D01*
X0246630Y0014708D01*
X0246515Y0014618D01*
X0246397Y0014531D01*
X0246277Y0014447D01*
X0246154Y0014366D01*
X0246030Y0014289D01*
X0245903Y0014215D01*
X0245774Y0014145D01*
X0245644Y0014078D01*
X0245512Y0014014D01*
X0245378Y0013955D01*
X0245243Y0013898D01*
X0245106Y0013846D01*
X0244967Y0013797D01*
X0244828Y0013752D01*
X0244687Y0013711D01*
X0244545Y0013674D01*
X0244403Y0013641D01*
X0244259Y0013611D01*
X0244115Y0013585D01*
X0243970Y0013564D01*
X0243824Y0013546D01*
X0243678Y0013532D01*
X0243532Y0013522D01*
X0243386Y0013516D01*
X0243239Y0013514D01*
X0243092Y0013516D01*
X0242946Y0013522D01*
X0242800Y0013532D01*
X0242654Y0013546D01*
X0242508Y0013564D01*
X0242363Y0013585D01*
X0242219Y0013611D01*
X0242075Y0013641D01*
X0241933Y0013674D01*
X0241791Y0013711D01*
X0241650Y0013752D01*
X0241511Y0013797D01*
X0241372Y0013846D01*
X0241235Y0013898D01*
X0241100Y0013955D01*
X0240966Y0014014D01*
X0240834Y0014078D01*
X0240704Y0014145D01*
X0240575Y0014215D01*
X0240448Y0014289D01*
X0240324Y0014366D01*
X0240201Y0014447D01*
X0240081Y0014531D01*
X0239963Y0014618D01*
X0239848Y0014708D01*
X0239735Y0014801D01*
X0239624Y0014898D01*
X0239516Y0014997D01*
X0239411Y0015099D01*
X0239309Y0015204D01*
X0239210Y0015312D01*
X0239113Y0015423D01*
X0239020Y0015536D01*
X0238930Y0015651D01*
X0238843Y0015769D01*
X0238759Y0015889D01*
X0238678Y0016012D01*
X0238601Y0016136D01*
X0238527Y0016263D01*
X0238457Y0016392D01*
X0238390Y0016522D01*
X0238326Y0016654D01*
X0238267Y0016788D01*
X0238210Y0016923D01*
X0238158Y0017060D01*
X0238109Y0017199D01*
X0238064Y0017338D01*
X0238023Y0017479D01*
X0237986Y0017621D01*
X0237953Y0017763D01*
X0237923Y0017907D01*
X0237897Y0018051D01*
X0237876Y0018196D01*
X0237858Y0018342D01*
X0237844Y0018488D01*
X0237834Y0018634D01*
X0237828Y0018780D01*
X0237826Y0018927D01*
X0208397Y0054360D02*
X0208399Y0054475D01*
X0208405Y0054591D01*
X0208415Y0054706D01*
X0208429Y0054821D01*
X0208447Y0054935D01*
X0208469Y0055048D01*
X0208494Y0055161D01*
X0208524Y0055272D01*
X0208557Y0055383D01*
X0208594Y0055492D01*
X0208635Y0055600D01*
X0208680Y0055707D01*
X0208728Y0055812D01*
X0208780Y0055915D01*
X0208836Y0056016D01*
X0208895Y0056116D01*
X0208957Y0056213D01*
X0209023Y0056308D01*
X0209091Y0056401D01*
X0209163Y0056491D01*
X0209238Y0056579D01*
X0209317Y0056664D01*
X0209398Y0056746D01*
X0209481Y0056826D01*
X0209568Y0056902D01*
X0209657Y0056976D01*
X0209748Y0057046D01*
X0209842Y0057114D01*
X0209938Y0057178D01*
X0210037Y0057238D01*
X0210137Y0057295D01*
X0210239Y0057349D01*
X0210343Y0057399D01*
X0210449Y0057446D01*
X0210556Y0057489D01*
X0210665Y0057528D01*
X0210775Y0057563D01*
X0210886Y0057594D01*
X0210998Y0057622D01*
X0211111Y0057646D01*
X0211225Y0057666D01*
X0211340Y0057682D01*
X0211455Y0057694D01*
X0211570Y0057702D01*
X0211685Y0057706D01*
X0211801Y0057706D01*
X0211916Y0057702D01*
X0212031Y0057694D01*
X0212146Y0057682D01*
X0212261Y0057666D01*
X0212375Y0057646D01*
X0212488Y0057622D01*
X0212600Y0057594D01*
X0212711Y0057563D01*
X0212821Y0057528D01*
X0212930Y0057489D01*
X0213037Y0057446D01*
X0213143Y0057399D01*
X0213247Y0057349D01*
X0213349Y0057295D01*
X0213449Y0057238D01*
X0213548Y0057178D01*
X0213644Y0057114D01*
X0213738Y0057046D01*
X0213829Y0056976D01*
X0213918Y0056902D01*
X0214005Y0056826D01*
X0214088Y0056746D01*
X0214169Y0056664D01*
X0214248Y0056579D01*
X0214323Y0056491D01*
X0214395Y0056401D01*
X0214463Y0056308D01*
X0214529Y0056213D01*
X0214591Y0056116D01*
X0214650Y0056016D01*
X0214706Y0055915D01*
X0214758Y0055812D01*
X0214806Y0055707D01*
X0214851Y0055600D01*
X0214892Y0055492D01*
X0214929Y0055383D01*
X0214962Y0055272D01*
X0214992Y0055161D01*
X0215017Y0055048D01*
X0215039Y0054935D01*
X0215057Y0054821D01*
X0215071Y0054706D01*
X0215081Y0054591D01*
X0215087Y0054475D01*
X0215089Y0054360D01*
X0215087Y0054245D01*
X0215081Y0054129D01*
X0215071Y0054014D01*
X0215057Y0053899D01*
X0215039Y0053785D01*
X0215017Y0053672D01*
X0214992Y0053559D01*
X0214962Y0053448D01*
X0214929Y0053337D01*
X0214892Y0053228D01*
X0214851Y0053120D01*
X0214806Y0053013D01*
X0214758Y0052908D01*
X0214706Y0052805D01*
X0214650Y0052704D01*
X0214591Y0052604D01*
X0214529Y0052507D01*
X0214463Y0052412D01*
X0214395Y0052319D01*
X0214323Y0052229D01*
X0214248Y0052141D01*
X0214169Y0052056D01*
X0214088Y0051974D01*
X0214005Y0051894D01*
X0213918Y0051818D01*
X0213829Y0051744D01*
X0213738Y0051674D01*
X0213644Y0051606D01*
X0213548Y0051542D01*
X0213449Y0051482D01*
X0213349Y0051425D01*
X0213247Y0051371D01*
X0213143Y0051321D01*
X0213037Y0051274D01*
X0212930Y0051231D01*
X0212821Y0051192D01*
X0212711Y0051157D01*
X0212600Y0051126D01*
X0212488Y0051098D01*
X0212375Y0051074D01*
X0212261Y0051054D01*
X0212146Y0051038D01*
X0212031Y0051026D01*
X0211916Y0051018D01*
X0211801Y0051014D01*
X0211685Y0051014D01*
X0211570Y0051018D01*
X0211455Y0051026D01*
X0211340Y0051038D01*
X0211225Y0051054D01*
X0211111Y0051074D01*
X0210998Y0051098D01*
X0210886Y0051126D01*
X0210775Y0051157D01*
X0210665Y0051192D01*
X0210556Y0051231D01*
X0210449Y0051274D01*
X0210343Y0051321D01*
X0210239Y0051371D01*
X0210137Y0051425D01*
X0210037Y0051482D01*
X0209938Y0051542D01*
X0209842Y0051606D01*
X0209748Y0051674D01*
X0209657Y0051744D01*
X0209568Y0051818D01*
X0209481Y0051894D01*
X0209398Y0051974D01*
X0209317Y0052056D01*
X0209238Y0052141D01*
X0209163Y0052229D01*
X0209091Y0052319D01*
X0209023Y0052412D01*
X0208957Y0052507D01*
X0208895Y0052604D01*
X0208836Y0052704D01*
X0208780Y0052805D01*
X0208728Y0052908D01*
X0208680Y0053013D01*
X0208635Y0053120D01*
X0208594Y0053228D01*
X0208557Y0053337D01*
X0208524Y0053448D01*
X0208494Y0053559D01*
X0208469Y0053672D01*
X0208447Y0053785D01*
X0208429Y0053899D01*
X0208415Y0054014D01*
X0208405Y0054129D01*
X0208399Y0054245D01*
X0208397Y0054360D01*
X0237826Y0211841D02*
X0237828Y0211988D01*
X0237834Y0212134D01*
X0237844Y0212280D01*
X0237858Y0212426D01*
X0237876Y0212572D01*
X0237897Y0212717D01*
X0237923Y0212861D01*
X0237953Y0213005D01*
X0237986Y0213147D01*
X0238023Y0213289D01*
X0238064Y0213430D01*
X0238109Y0213569D01*
X0238158Y0213708D01*
X0238210Y0213845D01*
X0238267Y0213980D01*
X0238326Y0214114D01*
X0238390Y0214246D01*
X0238457Y0214376D01*
X0238527Y0214505D01*
X0238601Y0214632D01*
X0238678Y0214756D01*
X0238759Y0214879D01*
X0238843Y0214999D01*
X0238930Y0215117D01*
X0239020Y0215232D01*
X0239113Y0215345D01*
X0239210Y0215456D01*
X0239309Y0215564D01*
X0239411Y0215669D01*
X0239516Y0215771D01*
X0239624Y0215870D01*
X0239735Y0215967D01*
X0239848Y0216060D01*
X0239963Y0216150D01*
X0240081Y0216237D01*
X0240201Y0216321D01*
X0240324Y0216402D01*
X0240448Y0216479D01*
X0240575Y0216553D01*
X0240704Y0216623D01*
X0240834Y0216690D01*
X0240966Y0216754D01*
X0241100Y0216813D01*
X0241235Y0216870D01*
X0241372Y0216922D01*
X0241511Y0216971D01*
X0241650Y0217016D01*
X0241791Y0217057D01*
X0241933Y0217094D01*
X0242075Y0217127D01*
X0242219Y0217157D01*
X0242363Y0217183D01*
X0242508Y0217204D01*
X0242654Y0217222D01*
X0242800Y0217236D01*
X0242946Y0217246D01*
X0243092Y0217252D01*
X0243239Y0217254D01*
X0243386Y0217252D01*
X0243532Y0217246D01*
X0243678Y0217236D01*
X0243824Y0217222D01*
X0243970Y0217204D01*
X0244115Y0217183D01*
X0244259Y0217157D01*
X0244403Y0217127D01*
X0244545Y0217094D01*
X0244687Y0217057D01*
X0244828Y0217016D01*
X0244967Y0216971D01*
X0245106Y0216922D01*
X0245243Y0216870D01*
X0245378Y0216813D01*
X0245512Y0216754D01*
X0245644Y0216690D01*
X0245774Y0216623D01*
X0245903Y0216553D01*
X0246030Y0216479D01*
X0246154Y0216402D01*
X0246277Y0216321D01*
X0246397Y0216237D01*
X0246515Y0216150D01*
X0246630Y0216060D01*
X0246743Y0215967D01*
X0246854Y0215870D01*
X0246962Y0215771D01*
X0247067Y0215669D01*
X0247169Y0215564D01*
X0247268Y0215456D01*
X0247365Y0215345D01*
X0247458Y0215232D01*
X0247548Y0215117D01*
X0247635Y0214999D01*
X0247719Y0214879D01*
X0247800Y0214756D01*
X0247877Y0214632D01*
X0247951Y0214505D01*
X0248021Y0214376D01*
X0248088Y0214246D01*
X0248152Y0214114D01*
X0248211Y0213980D01*
X0248268Y0213845D01*
X0248320Y0213708D01*
X0248369Y0213569D01*
X0248414Y0213430D01*
X0248455Y0213289D01*
X0248492Y0213147D01*
X0248525Y0213005D01*
X0248555Y0212861D01*
X0248581Y0212717D01*
X0248602Y0212572D01*
X0248620Y0212426D01*
X0248634Y0212280D01*
X0248644Y0212134D01*
X0248650Y0211988D01*
X0248652Y0211841D01*
X0248650Y0211694D01*
X0248644Y0211548D01*
X0248634Y0211402D01*
X0248620Y0211256D01*
X0248602Y0211110D01*
X0248581Y0210965D01*
X0248555Y0210821D01*
X0248525Y0210677D01*
X0248492Y0210535D01*
X0248455Y0210393D01*
X0248414Y0210252D01*
X0248369Y0210113D01*
X0248320Y0209974D01*
X0248268Y0209837D01*
X0248211Y0209702D01*
X0248152Y0209568D01*
X0248088Y0209436D01*
X0248021Y0209306D01*
X0247951Y0209177D01*
X0247877Y0209050D01*
X0247800Y0208926D01*
X0247719Y0208803D01*
X0247635Y0208683D01*
X0247548Y0208565D01*
X0247458Y0208450D01*
X0247365Y0208337D01*
X0247268Y0208226D01*
X0247169Y0208118D01*
X0247067Y0208013D01*
X0246962Y0207911D01*
X0246854Y0207812D01*
X0246743Y0207715D01*
X0246630Y0207622D01*
X0246515Y0207532D01*
X0246397Y0207445D01*
X0246277Y0207361D01*
X0246154Y0207280D01*
X0246030Y0207203D01*
X0245903Y0207129D01*
X0245774Y0207059D01*
X0245644Y0206992D01*
X0245512Y0206928D01*
X0245378Y0206869D01*
X0245243Y0206812D01*
X0245106Y0206760D01*
X0244967Y0206711D01*
X0244828Y0206666D01*
X0244687Y0206625D01*
X0244545Y0206588D01*
X0244403Y0206555D01*
X0244259Y0206525D01*
X0244115Y0206499D01*
X0243970Y0206478D01*
X0243824Y0206460D01*
X0243678Y0206446D01*
X0243532Y0206436D01*
X0243386Y0206430D01*
X0243239Y0206428D01*
X0243092Y0206430D01*
X0242946Y0206436D01*
X0242800Y0206446D01*
X0242654Y0206460D01*
X0242508Y0206478D01*
X0242363Y0206499D01*
X0242219Y0206525D01*
X0242075Y0206555D01*
X0241933Y0206588D01*
X0241791Y0206625D01*
X0241650Y0206666D01*
X0241511Y0206711D01*
X0241372Y0206760D01*
X0241235Y0206812D01*
X0241100Y0206869D01*
X0240966Y0206928D01*
X0240834Y0206992D01*
X0240704Y0207059D01*
X0240575Y0207129D01*
X0240448Y0207203D01*
X0240324Y0207280D01*
X0240201Y0207361D01*
X0240081Y0207445D01*
X0239963Y0207532D01*
X0239848Y0207622D01*
X0239735Y0207715D01*
X0239624Y0207812D01*
X0239516Y0207911D01*
X0239411Y0208013D01*
X0239309Y0208118D01*
X0239210Y0208226D01*
X0239113Y0208337D01*
X0239020Y0208450D01*
X0238930Y0208565D01*
X0238843Y0208683D01*
X0238759Y0208803D01*
X0238678Y0208926D01*
X0238601Y0209050D01*
X0238527Y0209177D01*
X0238457Y0209306D01*
X0238390Y0209436D01*
X0238326Y0209568D01*
X0238267Y0209702D01*
X0238210Y0209837D01*
X0238158Y0209974D01*
X0238109Y0210113D01*
X0238064Y0210252D01*
X0238023Y0210393D01*
X0237986Y0210535D01*
X0237953Y0210677D01*
X0237923Y0210821D01*
X0237897Y0210965D01*
X0237876Y0211110D01*
X0237858Y0211256D01*
X0237844Y0211402D01*
X0237834Y0211548D01*
X0237828Y0211694D01*
X0237826Y0211841D01*
X0009480Y0211841D02*
X0009482Y0211988D01*
X0009488Y0212134D01*
X0009498Y0212280D01*
X0009512Y0212426D01*
X0009530Y0212572D01*
X0009551Y0212717D01*
X0009577Y0212861D01*
X0009607Y0213005D01*
X0009640Y0213147D01*
X0009677Y0213289D01*
X0009718Y0213430D01*
X0009763Y0213569D01*
X0009812Y0213708D01*
X0009864Y0213845D01*
X0009921Y0213980D01*
X0009980Y0214114D01*
X0010044Y0214246D01*
X0010111Y0214376D01*
X0010181Y0214505D01*
X0010255Y0214632D01*
X0010332Y0214756D01*
X0010413Y0214879D01*
X0010497Y0214999D01*
X0010584Y0215117D01*
X0010674Y0215232D01*
X0010767Y0215345D01*
X0010864Y0215456D01*
X0010963Y0215564D01*
X0011065Y0215669D01*
X0011170Y0215771D01*
X0011278Y0215870D01*
X0011389Y0215967D01*
X0011502Y0216060D01*
X0011617Y0216150D01*
X0011735Y0216237D01*
X0011855Y0216321D01*
X0011978Y0216402D01*
X0012102Y0216479D01*
X0012229Y0216553D01*
X0012358Y0216623D01*
X0012488Y0216690D01*
X0012620Y0216754D01*
X0012754Y0216813D01*
X0012889Y0216870D01*
X0013026Y0216922D01*
X0013165Y0216971D01*
X0013304Y0217016D01*
X0013445Y0217057D01*
X0013587Y0217094D01*
X0013729Y0217127D01*
X0013873Y0217157D01*
X0014017Y0217183D01*
X0014162Y0217204D01*
X0014308Y0217222D01*
X0014454Y0217236D01*
X0014600Y0217246D01*
X0014746Y0217252D01*
X0014893Y0217254D01*
X0015040Y0217252D01*
X0015186Y0217246D01*
X0015332Y0217236D01*
X0015478Y0217222D01*
X0015624Y0217204D01*
X0015769Y0217183D01*
X0015913Y0217157D01*
X0016057Y0217127D01*
X0016199Y0217094D01*
X0016341Y0217057D01*
X0016482Y0217016D01*
X0016621Y0216971D01*
X0016760Y0216922D01*
X0016897Y0216870D01*
X0017032Y0216813D01*
X0017166Y0216754D01*
X0017298Y0216690D01*
X0017428Y0216623D01*
X0017557Y0216553D01*
X0017684Y0216479D01*
X0017808Y0216402D01*
X0017931Y0216321D01*
X0018051Y0216237D01*
X0018169Y0216150D01*
X0018284Y0216060D01*
X0018397Y0215967D01*
X0018508Y0215870D01*
X0018616Y0215771D01*
X0018721Y0215669D01*
X0018823Y0215564D01*
X0018922Y0215456D01*
X0019019Y0215345D01*
X0019112Y0215232D01*
X0019202Y0215117D01*
X0019289Y0214999D01*
X0019373Y0214879D01*
X0019454Y0214756D01*
X0019531Y0214632D01*
X0019605Y0214505D01*
X0019675Y0214376D01*
X0019742Y0214246D01*
X0019806Y0214114D01*
X0019865Y0213980D01*
X0019922Y0213845D01*
X0019974Y0213708D01*
X0020023Y0213569D01*
X0020068Y0213430D01*
X0020109Y0213289D01*
X0020146Y0213147D01*
X0020179Y0213005D01*
X0020209Y0212861D01*
X0020235Y0212717D01*
X0020256Y0212572D01*
X0020274Y0212426D01*
X0020288Y0212280D01*
X0020298Y0212134D01*
X0020304Y0211988D01*
X0020306Y0211841D01*
X0020304Y0211694D01*
X0020298Y0211548D01*
X0020288Y0211402D01*
X0020274Y0211256D01*
X0020256Y0211110D01*
X0020235Y0210965D01*
X0020209Y0210821D01*
X0020179Y0210677D01*
X0020146Y0210535D01*
X0020109Y0210393D01*
X0020068Y0210252D01*
X0020023Y0210113D01*
X0019974Y0209974D01*
X0019922Y0209837D01*
X0019865Y0209702D01*
X0019806Y0209568D01*
X0019742Y0209436D01*
X0019675Y0209306D01*
X0019605Y0209177D01*
X0019531Y0209050D01*
X0019454Y0208926D01*
X0019373Y0208803D01*
X0019289Y0208683D01*
X0019202Y0208565D01*
X0019112Y0208450D01*
X0019019Y0208337D01*
X0018922Y0208226D01*
X0018823Y0208118D01*
X0018721Y0208013D01*
X0018616Y0207911D01*
X0018508Y0207812D01*
X0018397Y0207715D01*
X0018284Y0207622D01*
X0018169Y0207532D01*
X0018051Y0207445D01*
X0017931Y0207361D01*
X0017808Y0207280D01*
X0017684Y0207203D01*
X0017557Y0207129D01*
X0017428Y0207059D01*
X0017298Y0206992D01*
X0017166Y0206928D01*
X0017032Y0206869D01*
X0016897Y0206812D01*
X0016760Y0206760D01*
X0016621Y0206711D01*
X0016482Y0206666D01*
X0016341Y0206625D01*
X0016199Y0206588D01*
X0016057Y0206555D01*
X0015913Y0206525D01*
X0015769Y0206499D01*
X0015624Y0206478D01*
X0015478Y0206460D01*
X0015332Y0206446D01*
X0015186Y0206436D01*
X0015040Y0206430D01*
X0014893Y0206428D01*
X0014746Y0206430D01*
X0014600Y0206436D01*
X0014454Y0206446D01*
X0014308Y0206460D01*
X0014162Y0206478D01*
X0014017Y0206499D01*
X0013873Y0206525D01*
X0013729Y0206555D01*
X0013587Y0206588D01*
X0013445Y0206625D01*
X0013304Y0206666D01*
X0013165Y0206711D01*
X0013026Y0206760D01*
X0012889Y0206812D01*
X0012754Y0206869D01*
X0012620Y0206928D01*
X0012488Y0206992D01*
X0012358Y0207059D01*
X0012229Y0207129D01*
X0012102Y0207203D01*
X0011978Y0207280D01*
X0011855Y0207361D01*
X0011735Y0207445D01*
X0011617Y0207532D01*
X0011502Y0207622D01*
X0011389Y0207715D01*
X0011278Y0207812D01*
X0011170Y0207911D01*
X0011065Y0208013D01*
X0010963Y0208118D01*
X0010864Y0208226D01*
X0010767Y0208337D01*
X0010674Y0208450D01*
X0010584Y0208565D01*
X0010497Y0208683D01*
X0010413Y0208803D01*
X0010332Y0208926D01*
X0010255Y0209050D01*
X0010181Y0209177D01*
X0010111Y0209306D01*
X0010044Y0209436D01*
X0009980Y0209568D01*
X0009921Y0209702D01*
X0009864Y0209837D01*
X0009812Y0209974D01*
X0009763Y0210113D01*
X0009718Y0210252D01*
X0009677Y0210393D01*
X0009640Y0210535D01*
X0009607Y0210677D01*
X0009577Y0210821D01*
X0009551Y0210965D01*
X0009530Y0211110D01*
X0009512Y0211256D01*
X0009498Y0211402D01*
X0009488Y0211548D01*
X0009482Y0211694D01*
X0009480Y0211841D01*
D11*
X0014893Y0211841D03*
X0243239Y0211841D03*
X0243239Y0018927D03*
X0014893Y0018927D03*
D12*
X0007265Y0018927D02*
X0007267Y0019114D01*
X0007274Y0019301D01*
X0007286Y0019488D01*
X0007302Y0019675D01*
X0007322Y0019861D01*
X0007348Y0020046D01*
X0007377Y0020231D01*
X0007412Y0020415D01*
X0007450Y0020598D01*
X0007494Y0020780D01*
X0007541Y0020961D01*
X0007593Y0021141D01*
X0007650Y0021320D01*
X0007711Y0021497D01*
X0007776Y0021672D01*
X0007846Y0021846D01*
X0007919Y0022018D01*
X0007997Y0022188D01*
X0008079Y0022357D01*
X0008166Y0022523D01*
X0008256Y0022687D01*
X0008350Y0022849D01*
X0008448Y0023008D01*
X0008551Y0023165D01*
X0008656Y0023319D01*
X0008766Y0023471D01*
X0008879Y0023620D01*
X0008996Y0023766D01*
X0009117Y0023909D01*
X0009241Y0024050D01*
X0009368Y0024187D01*
X0009499Y0024321D01*
X0009633Y0024452D01*
X0009770Y0024579D01*
X0009911Y0024703D01*
X0010054Y0024824D01*
X0010200Y0024941D01*
X0010349Y0025054D01*
X0010501Y0025164D01*
X0010655Y0025269D01*
X0010812Y0025372D01*
X0010971Y0025470D01*
X0011133Y0025564D01*
X0011297Y0025654D01*
X0011463Y0025741D01*
X0011632Y0025823D01*
X0011802Y0025901D01*
X0011974Y0025974D01*
X0012148Y0026044D01*
X0012323Y0026109D01*
X0012500Y0026170D01*
X0012679Y0026227D01*
X0012859Y0026279D01*
X0013040Y0026326D01*
X0013222Y0026370D01*
X0013405Y0026408D01*
X0013589Y0026443D01*
X0013774Y0026472D01*
X0013959Y0026498D01*
X0014145Y0026518D01*
X0014332Y0026534D01*
X0014519Y0026546D01*
X0014706Y0026553D01*
X0014893Y0026555D01*
X0015080Y0026553D01*
X0015267Y0026546D01*
X0015454Y0026534D01*
X0015641Y0026518D01*
X0015827Y0026498D01*
X0016012Y0026472D01*
X0016197Y0026443D01*
X0016381Y0026408D01*
X0016564Y0026370D01*
X0016746Y0026326D01*
X0016927Y0026279D01*
X0017107Y0026227D01*
X0017286Y0026170D01*
X0017463Y0026109D01*
X0017638Y0026044D01*
X0017812Y0025974D01*
X0017984Y0025901D01*
X0018154Y0025823D01*
X0018323Y0025741D01*
X0018489Y0025654D01*
X0018653Y0025564D01*
X0018815Y0025470D01*
X0018974Y0025372D01*
X0019131Y0025269D01*
X0019285Y0025164D01*
X0019437Y0025054D01*
X0019586Y0024941D01*
X0019732Y0024824D01*
X0019875Y0024703D01*
X0020016Y0024579D01*
X0020153Y0024452D01*
X0020287Y0024321D01*
X0020418Y0024187D01*
X0020545Y0024050D01*
X0020669Y0023909D01*
X0020790Y0023766D01*
X0020907Y0023620D01*
X0021020Y0023471D01*
X0021130Y0023319D01*
X0021235Y0023165D01*
X0021338Y0023008D01*
X0021436Y0022849D01*
X0021530Y0022687D01*
X0021620Y0022523D01*
X0021707Y0022357D01*
X0021789Y0022188D01*
X0021867Y0022018D01*
X0021940Y0021846D01*
X0022010Y0021672D01*
X0022075Y0021497D01*
X0022136Y0021320D01*
X0022193Y0021141D01*
X0022245Y0020961D01*
X0022292Y0020780D01*
X0022336Y0020598D01*
X0022374Y0020415D01*
X0022409Y0020231D01*
X0022438Y0020046D01*
X0022464Y0019861D01*
X0022484Y0019675D01*
X0022500Y0019488D01*
X0022512Y0019301D01*
X0022519Y0019114D01*
X0022521Y0018927D01*
X0022519Y0018740D01*
X0022512Y0018553D01*
X0022500Y0018366D01*
X0022484Y0018179D01*
X0022464Y0017993D01*
X0022438Y0017808D01*
X0022409Y0017623D01*
X0022374Y0017439D01*
X0022336Y0017256D01*
X0022292Y0017074D01*
X0022245Y0016893D01*
X0022193Y0016713D01*
X0022136Y0016534D01*
X0022075Y0016357D01*
X0022010Y0016182D01*
X0021940Y0016008D01*
X0021867Y0015836D01*
X0021789Y0015666D01*
X0021707Y0015497D01*
X0021620Y0015331D01*
X0021530Y0015167D01*
X0021436Y0015005D01*
X0021338Y0014846D01*
X0021235Y0014689D01*
X0021130Y0014535D01*
X0021020Y0014383D01*
X0020907Y0014234D01*
X0020790Y0014088D01*
X0020669Y0013945D01*
X0020545Y0013804D01*
X0020418Y0013667D01*
X0020287Y0013533D01*
X0020153Y0013402D01*
X0020016Y0013275D01*
X0019875Y0013151D01*
X0019732Y0013030D01*
X0019586Y0012913D01*
X0019437Y0012800D01*
X0019285Y0012690D01*
X0019131Y0012585D01*
X0018974Y0012482D01*
X0018815Y0012384D01*
X0018653Y0012290D01*
X0018489Y0012200D01*
X0018323Y0012113D01*
X0018154Y0012031D01*
X0017984Y0011953D01*
X0017812Y0011880D01*
X0017638Y0011810D01*
X0017463Y0011745D01*
X0017286Y0011684D01*
X0017107Y0011627D01*
X0016927Y0011575D01*
X0016746Y0011528D01*
X0016564Y0011484D01*
X0016381Y0011446D01*
X0016197Y0011411D01*
X0016012Y0011382D01*
X0015827Y0011356D01*
X0015641Y0011336D01*
X0015454Y0011320D01*
X0015267Y0011308D01*
X0015080Y0011301D01*
X0014893Y0011299D01*
X0014706Y0011301D01*
X0014519Y0011308D01*
X0014332Y0011320D01*
X0014145Y0011336D01*
X0013959Y0011356D01*
X0013774Y0011382D01*
X0013589Y0011411D01*
X0013405Y0011446D01*
X0013222Y0011484D01*
X0013040Y0011528D01*
X0012859Y0011575D01*
X0012679Y0011627D01*
X0012500Y0011684D01*
X0012323Y0011745D01*
X0012148Y0011810D01*
X0011974Y0011880D01*
X0011802Y0011953D01*
X0011632Y0012031D01*
X0011463Y0012113D01*
X0011297Y0012200D01*
X0011133Y0012290D01*
X0010971Y0012384D01*
X0010812Y0012482D01*
X0010655Y0012585D01*
X0010501Y0012690D01*
X0010349Y0012800D01*
X0010200Y0012913D01*
X0010054Y0013030D01*
X0009911Y0013151D01*
X0009770Y0013275D01*
X0009633Y0013402D01*
X0009499Y0013533D01*
X0009368Y0013667D01*
X0009241Y0013804D01*
X0009117Y0013945D01*
X0008996Y0014088D01*
X0008879Y0014234D01*
X0008766Y0014383D01*
X0008656Y0014535D01*
X0008551Y0014689D01*
X0008448Y0014846D01*
X0008350Y0015005D01*
X0008256Y0015167D01*
X0008166Y0015331D01*
X0008079Y0015497D01*
X0007997Y0015666D01*
X0007919Y0015836D01*
X0007846Y0016008D01*
X0007776Y0016182D01*
X0007711Y0016357D01*
X0007650Y0016534D01*
X0007593Y0016713D01*
X0007541Y0016893D01*
X0007494Y0017074D01*
X0007450Y0017256D01*
X0007412Y0017439D01*
X0007377Y0017623D01*
X0007348Y0017808D01*
X0007322Y0017993D01*
X0007302Y0018179D01*
X0007286Y0018366D01*
X0007274Y0018553D01*
X0007267Y0018740D01*
X0007265Y0018927D01*
X0235611Y0018927D02*
X0235613Y0019114D01*
X0235620Y0019301D01*
X0235632Y0019488D01*
X0235648Y0019675D01*
X0235668Y0019861D01*
X0235694Y0020046D01*
X0235723Y0020231D01*
X0235758Y0020415D01*
X0235796Y0020598D01*
X0235840Y0020780D01*
X0235887Y0020961D01*
X0235939Y0021141D01*
X0235996Y0021320D01*
X0236057Y0021497D01*
X0236122Y0021672D01*
X0236192Y0021846D01*
X0236265Y0022018D01*
X0236343Y0022188D01*
X0236425Y0022357D01*
X0236512Y0022523D01*
X0236602Y0022687D01*
X0236696Y0022849D01*
X0236794Y0023008D01*
X0236897Y0023165D01*
X0237002Y0023319D01*
X0237112Y0023471D01*
X0237225Y0023620D01*
X0237342Y0023766D01*
X0237463Y0023909D01*
X0237587Y0024050D01*
X0237714Y0024187D01*
X0237845Y0024321D01*
X0237979Y0024452D01*
X0238116Y0024579D01*
X0238257Y0024703D01*
X0238400Y0024824D01*
X0238546Y0024941D01*
X0238695Y0025054D01*
X0238847Y0025164D01*
X0239001Y0025269D01*
X0239158Y0025372D01*
X0239317Y0025470D01*
X0239479Y0025564D01*
X0239643Y0025654D01*
X0239809Y0025741D01*
X0239978Y0025823D01*
X0240148Y0025901D01*
X0240320Y0025974D01*
X0240494Y0026044D01*
X0240669Y0026109D01*
X0240846Y0026170D01*
X0241025Y0026227D01*
X0241205Y0026279D01*
X0241386Y0026326D01*
X0241568Y0026370D01*
X0241751Y0026408D01*
X0241935Y0026443D01*
X0242120Y0026472D01*
X0242305Y0026498D01*
X0242491Y0026518D01*
X0242678Y0026534D01*
X0242865Y0026546D01*
X0243052Y0026553D01*
X0243239Y0026555D01*
X0243426Y0026553D01*
X0243613Y0026546D01*
X0243800Y0026534D01*
X0243987Y0026518D01*
X0244173Y0026498D01*
X0244358Y0026472D01*
X0244543Y0026443D01*
X0244727Y0026408D01*
X0244910Y0026370D01*
X0245092Y0026326D01*
X0245273Y0026279D01*
X0245453Y0026227D01*
X0245632Y0026170D01*
X0245809Y0026109D01*
X0245984Y0026044D01*
X0246158Y0025974D01*
X0246330Y0025901D01*
X0246500Y0025823D01*
X0246669Y0025741D01*
X0246835Y0025654D01*
X0246999Y0025564D01*
X0247161Y0025470D01*
X0247320Y0025372D01*
X0247477Y0025269D01*
X0247631Y0025164D01*
X0247783Y0025054D01*
X0247932Y0024941D01*
X0248078Y0024824D01*
X0248221Y0024703D01*
X0248362Y0024579D01*
X0248499Y0024452D01*
X0248633Y0024321D01*
X0248764Y0024187D01*
X0248891Y0024050D01*
X0249015Y0023909D01*
X0249136Y0023766D01*
X0249253Y0023620D01*
X0249366Y0023471D01*
X0249476Y0023319D01*
X0249581Y0023165D01*
X0249684Y0023008D01*
X0249782Y0022849D01*
X0249876Y0022687D01*
X0249966Y0022523D01*
X0250053Y0022357D01*
X0250135Y0022188D01*
X0250213Y0022018D01*
X0250286Y0021846D01*
X0250356Y0021672D01*
X0250421Y0021497D01*
X0250482Y0021320D01*
X0250539Y0021141D01*
X0250591Y0020961D01*
X0250638Y0020780D01*
X0250682Y0020598D01*
X0250720Y0020415D01*
X0250755Y0020231D01*
X0250784Y0020046D01*
X0250810Y0019861D01*
X0250830Y0019675D01*
X0250846Y0019488D01*
X0250858Y0019301D01*
X0250865Y0019114D01*
X0250867Y0018927D01*
X0250865Y0018740D01*
X0250858Y0018553D01*
X0250846Y0018366D01*
X0250830Y0018179D01*
X0250810Y0017993D01*
X0250784Y0017808D01*
X0250755Y0017623D01*
X0250720Y0017439D01*
X0250682Y0017256D01*
X0250638Y0017074D01*
X0250591Y0016893D01*
X0250539Y0016713D01*
X0250482Y0016534D01*
X0250421Y0016357D01*
X0250356Y0016182D01*
X0250286Y0016008D01*
X0250213Y0015836D01*
X0250135Y0015666D01*
X0250053Y0015497D01*
X0249966Y0015331D01*
X0249876Y0015167D01*
X0249782Y0015005D01*
X0249684Y0014846D01*
X0249581Y0014689D01*
X0249476Y0014535D01*
X0249366Y0014383D01*
X0249253Y0014234D01*
X0249136Y0014088D01*
X0249015Y0013945D01*
X0248891Y0013804D01*
X0248764Y0013667D01*
X0248633Y0013533D01*
X0248499Y0013402D01*
X0248362Y0013275D01*
X0248221Y0013151D01*
X0248078Y0013030D01*
X0247932Y0012913D01*
X0247783Y0012800D01*
X0247631Y0012690D01*
X0247477Y0012585D01*
X0247320Y0012482D01*
X0247161Y0012384D01*
X0246999Y0012290D01*
X0246835Y0012200D01*
X0246669Y0012113D01*
X0246500Y0012031D01*
X0246330Y0011953D01*
X0246158Y0011880D01*
X0245984Y0011810D01*
X0245809Y0011745D01*
X0245632Y0011684D01*
X0245453Y0011627D01*
X0245273Y0011575D01*
X0245092Y0011528D01*
X0244910Y0011484D01*
X0244727Y0011446D01*
X0244543Y0011411D01*
X0244358Y0011382D01*
X0244173Y0011356D01*
X0243987Y0011336D01*
X0243800Y0011320D01*
X0243613Y0011308D01*
X0243426Y0011301D01*
X0243239Y0011299D01*
X0243052Y0011301D01*
X0242865Y0011308D01*
X0242678Y0011320D01*
X0242491Y0011336D01*
X0242305Y0011356D01*
X0242120Y0011382D01*
X0241935Y0011411D01*
X0241751Y0011446D01*
X0241568Y0011484D01*
X0241386Y0011528D01*
X0241205Y0011575D01*
X0241025Y0011627D01*
X0240846Y0011684D01*
X0240669Y0011745D01*
X0240494Y0011810D01*
X0240320Y0011880D01*
X0240148Y0011953D01*
X0239978Y0012031D01*
X0239809Y0012113D01*
X0239643Y0012200D01*
X0239479Y0012290D01*
X0239317Y0012384D01*
X0239158Y0012482D01*
X0239001Y0012585D01*
X0238847Y0012690D01*
X0238695Y0012800D01*
X0238546Y0012913D01*
X0238400Y0013030D01*
X0238257Y0013151D01*
X0238116Y0013275D01*
X0237979Y0013402D01*
X0237845Y0013533D01*
X0237714Y0013667D01*
X0237587Y0013804D01*
X0237463Y0013945D01*
X0237342Y0014088D01*
X0237225Y0014234D01*
X0237112Y0014383D01*
X0237002Y0014535D01*
X0236897Y0014689D01*
X0236794Y0014846D01*
X0236696Y0015005D01*
X0236602Y0015167D01*
X0236512Y0015331D01*
X0236425Y0015497D01*
X0236343Y0015666D01*
X0236265Y0015836D01*
X0236192Y0016008D01*
X0236122Y0016182D01*
X0236057Y0016357D01*
X0235996Y0016534D01*
X0235939Y0016713D01*
X0235887Y0016893D01*
X0235840Y0017074D01*
X0235796Y0017256D01*
X0235758Y0017439D01*
X0235723Y0017623D01*
X0235694Y0017808D01*
X0235668Y0017993D01*
X0235648Y0018179D01*
X0235632Y0018366D01*
X0235620Y0018553D01*
X0235613Y0018740D01*
X0235611Y0018927D01*
X0235611Y0211841D02*
X0235613Y0212028D01*
X0235620Y0212215D01*
X0235632Y0212402D01*
X0235648Y0212589D01*
X0235668Y0212775D01*
X0235694Y0212960D01*
X0235723Y0213145D01*
X0235758Y0213329D01*
X0235796Y0213512D01*
X0235840Y0213694D01*
X0235887Y0213875D01*
X0235939Y0214055D01*
X0235996Y0214234D01*
X0236057Y0214411D01*
X0236122Y0214586D01*
X0236192Y0214760D01*
X0236265Y0214932D01*
X0236343Y0215102D01*
X0236425Y0215271D01*
X0236512Y0215437D01*
X0236602Y0215601D01*
X0236696Y0215763D01*
X0236794Y0215922D01*
X0236897Y0216079D01*
X0237002Y0216233D01*
X0237112Y0216385D01*
X0237225Y0216534D01*
X0237342Y0216680D01*
X0237463Y0216823D01*
X0237587Y0216964D01*
X0237714Y0217101D01*
X0237845Y0217235D01*
X0237979Y0217366D01*
X0238116Y0217493D01*
X0238257Y0217617D01*
X0238400Y0217738D01*
X0238546Y0217855D01*
X0238695Y0217968D01*
X0238847Y0218078D01*
X0239001Y0218183D01*
X0239158Y0218286D01*
X0239317Y0218384D01*
X0239479Y0218478D01*
X0239643Y0218568D01*
X0239809Y0218655D01*
X0239978Y0218737D01*
X0240148Y0218815D01*
X0240320Y0218888D01*
X0240494Y0218958D01*
X0240669Y0219023D01*
X0240846Y0219084D01*
X0241025Y0219141D01*
X0241205Y0219193D01*
X0241386Y0219240D01*
X0241568Y0219284D01*
X0241751Y0219322D01*
X0241935Y0219357D01*
X0242120Y0219386D01*
X0242305Y0219412D01*
X0242491Y0219432D01*
X0242678Y0219448D01*
X0242865Y0219460D01*
X0243052Y0219467D01*
X0243239Y0219469D01*
X0243426Y0219467D01*
X0243613Y0219460D01*
X0243800Y0219448D01*
X0243987Y0219432D01*
X0244173Y0219412D01*
X0244358Y0219386D01*
X0244543Y0219357D01*
X0244727Y0219322D01*
X0244910Y0219284D01*
X0245092Y0219240D01*
X0245273Y0219193D01*
X0245453Y0219141D01*
X0245632Y0219084D01*
X0245809Y0219023D01*
X0245984Y0218958D01*
X0246158Y0218888D01*
X0246330Y0218815D01*
X0246500Y0218737D01*
X0246669Y0218655D01*
X0246835Y0218568D01*
X0246999Y0218478D01*
X0247161Y0218384D01*
X0247320Y0218286D01*
X0247477Y0218183D01*
X0247631Y0218078D01*
X0247783Y0217968D01*
X0247932Y0217855D01*
X0248078Y0217738D01*
X0248221Y0217617D01*
X0248362Y0217493D01*
X0248499Y0217366D01*
X0248633Y0217235D01*
X0248764Y0217101D01*
X0248891Y0216964D01*
X0249015Y0216823D01*
X0249136Y0216680D01*
X0249253Y0216534D01*
X0249366Y0216385D01*
X0249476Y0216233D01*
X0249581Y0216079D01*
X0249684Y0215922D01*
X0249782Y0215763D01*
X0249876Y0215601D01*
X0249966Y0215437D01*
X0250053Y0215271D01*
X0250135Y0215102D01*
X0250213Y0214932D01*
X0250286Y0214760D01*
X0250356Y0214586D01*
X0250421Y0214411D01*
X0250482Y0214234D01*
X0250539Y0214055D01*
X0250591Y0213875D01*
X0250638Y0213694D01*
X0250682Y0213512D01*
X0250720Y0213329D01*
X0250755Y0213145D01*
X0250784Y0212960D01*
X0250810Y0212775D01*
X0250830Y0212589D01*
X0250846Y0212402D01*
X0250858Y0212215D01*
X0250865Y0212028D01*
X0250867Y0211841D01*
X0250865Y0211654D01*
X0250858Y0211467D01*
X0250846Y0211280D01*
X0250830Y0211093D01*
X0250810Y0210907D01*
X0250784Y0210722D01*
X0250755Y0210537D01*
X0250720Y0210353D01*
X0250682Y0210170D01*
X0250638Y0209988D01*
X0250591Y0209807D01*
X0250539Y0209627D01*
X0250482Y0209448D01*
X0250421Y0209271D01*
X0250356Y0209096D01*
X0250286Y0208922D01*
X0250213Y0208750D01*
X0250135Y0208580D01*
X0250053Y0208411D01*
X0249966Y0208245D01*
X0249876Y0208081D01*
X0249782Y0207919D01*
X0249684Y0207760D01*
X0249581Y0207603D01*
X0249476Y0207449D01*
X0249366Y0207297D01*
X0249253Y0207148D01*
X0249136Y0207002D01*
X0249015Y0206859D01*
X0248891Y0206718D01*
X0248764Y0206581D01*
X0248633Y0206447D01*
X0248499Y0206316D01*
X0248362Y0206189D01*
X0248221Y0206065D01*
X0248078Y0205944D01*
X0247932Y0205827D01*
X0247783Y0205714D01*
X0247631Y0205604D01*
X0247477Y0205499D01*
X0247320Y0205396D01*
X0247161Y0205298D01*
X0246999Y0205204D01*
X0246835Y0205114D01*
X0246669Y0205027D01*
X0246500Y0204945D01*
X0246330Y0204867D01*
X0246158Y0204794D01*
X0245984Y0204724D01*
X0245809Y0204659D01*
X0245632Y0204598D01*
X0245453Y0204541D01*
X0245273Y0204489D01*
X0245092Y0204442D01*
X0244910Y0204398D01*
X0244727Y0204360D01*
X0244543Y0204325D01*
X0244358Y0204296D01*
X0244173Y0204270D01*
X0243987Y0204250D01*
X0243800Y0204234D01*
X0243613Y0204222D01*
X0243426Y0204215D01*
X0243239Y0204213D01*
X0243052Y0204215D01*
X0242865Y0204222D01*
X0242678Y0204234D01*
X0242491Y0204250D01*
X0242305Y0204270D01*
X0242120Y0204296D01*
X0241935Y0204325D01*
X0241751Y0204360D01*
X0241568Y0204398D01*
X0241386Y0204442D01*
X0241205Y0204489D01*
X0241025Y0204541D01*
X0240846Y0204598D01*
X0240669Y0204659D01*
X0240494Y0204724D01*
X0240320Y0204794D01*
X0240148Y0204867D01*
X0239978Y0204945D01*
X0239809Y0205027D01*
X0239643Y0205114D01*
X0239479Y0205204D01*
X0239317Y0205298D01*
X0239158Y0205396D01*
X0239001Y0205499D01*
X0238847Y0205604D01*
X0238695Y0205714D01*
X0238546Y0205827D01*
X0238400Y0205944D01*
X0238257Y0206065D01*
X0238116Y0206189D01*
X0237979Y0206316D01*
X0237845Y0206447D01*
X0237714Y0206581D01*
X0237587Y0206718D01*
X0237463Y0206859D01*
X0237342Y0207002D01*
X0237225Y0207148D01*
X0237112Y0207297D01*
X0237002Y0207449D01*
X0236897Y0207603D01*
X0236794Y0207760D01*
X0236696Y0207919D01*
X0236602Y0208081D01*
X0236512Y0208245D01*
X0236425Y0208411D01*
X0236343Y0208580D01*
X0236265Y0208750D01*
X0236192Y0208922D01*
X0236122Y0209096D01*
X0236057Y0209271D01*
X0235996Y0209448D01*
X0235939Y0209627D01*
X0235887Y0209807D01*
X0235840Y0209988D01*
X0235796Y0210170D01*
X0235758Y0210353D01*
X0235723Y0210537D01*
X0235694Y0210722D01*
X0235668Y0210907D01*
X0235648Y0211093D01*
X0235632Y0211280D01*
X0235620Y0211467D01*
X0235613Y0211654D01*
X0235611Y0211841D01*
X0007265Y0211841D02*
X0007267Y0212028D01*
X0007274Y0212215D01*
X0007286Y0212402D01*
X0007302Y0212589D01*
X0007322Y0212775D01*
X0007348Y0212960D01*
X0007377Y0213145D01*
X0007412Y0213329D01*
X0007450Y0213512D01*
X0007494Y0213694D01*
X0007541Y0213875D01*
X0007593Y0214055D01*
X0007650Y0214234D01*
X0007711Y0214411D01*
X0007776Y0214586D01*
X0007846Y0214760D01*
X0007919Y0214932D01*
X0007997Y0215102D01*
X0008079Y0215271D01*
X0008166Y0215437D01*
X0008256Y0215601D01*
X0008350Y0215763D01*
X0008448Y0215922D01*
X0008551Y0216079D01*
X0008656Y0216233D01*
X0008766Y0216385D01*
X0008879Y0216534D01*
X0008996Y0216680D01*
X0009117Y0216823D01*
X0009241Y0216964D01*
X0009368Y0217101D01*
X0009499Y0217235D01*
X0009633Y0217366D01*
X0009770Y0217493D01*
X0009911Y0217617D01*
X0010054Y0217738D01*
X0010200Y0217855D01*
X0010349Y0217968D01*
X0010501Y0218078D01*
X0010655Y0218183D01*
X0010812Y0218286D01*
X0010971Y0218384D01*
X0011133Y0218478D01*
X0011297Y0218568D01*
X0011463Y0218655D01*
X0011632Y0218737D01*
X0011802Y0218815D01*
X0011974Y0218888D01*
X0012148Y0218958D01*
X0012323Y0219023D01*
X0012500Y0219084D01*
X0012679Y0219141D01*
X0012859Y0219193D01*
X0013040Y0219240D01*
X0013222Y0219284D01*
X0013405Y0219322D01*
X0013589Y0219357D01*
X0013774Y0219386D01*
X0013959Y0219412D01*
X0014145Y0219432D01*
X0014332Y0219448D01*
X0014519Y0219460D01*
X0014706Y0219467D01*
X0014893Y0219469D01*
X0015080Y0219467D01*
X0015267Y0219460D01*
X0015454Y0219448D01*
X0015641Y0219432D01*
X0015827Y0219412D01*
X0016012Y0219386D01*
X0016197Y0219357D01*
X0016381Y0219322D01*
X0016564Y0219284D01*
X0016746Y0219240D01*
X0016927Y0219193D01*
X0017107Y0219141D01*
X0017286Y0219084D01*
X0017463Y0219023D01*
X0017638Y0218958D01*
X0017812Y0218888D01*
X0017984Y0218815D01*
X0018154Y0218737D01*
X0018323Y0218655D01*
X0018489Y0218568D01*
X0018653Y0218478D01*
X0018815Y0218384D01*
X0018974Y0218286D01*
X0019131Y0218183D01*
X0019285Y0218078D01*
X0019437Y0217968D01*
X0019586Y0217855D01*
X0019732Y0217738D01*
X0019875Y0217617D01*
X0020016Y0217493D01*
X0020153Y0217366D01*
X0020287Y0217235D01*
X0020418Y0217101D01*
X0020545Y0216964D01*
X0020669Y0216823D01*
X0020790Y0216680D01*
X0020907Y0216534D01*
X0021020Y0216385D01*
X0021130Y0216233D01*
X0021235Y0216079D01*
X0021338Y0215922D01*
X0021436Y0215763D01*
X0021530Y0215601D01*
X0021620Y0215437D01*
X0021707Y0215271D01*
X0021789Y0215102D01*
X0021867Y0214932D01*
X0021940Y0214760D01*
X0022010Y0214586D01*
X0022075Y0214411D01*
X0022136Y0214234D01*
X0022193Y0214055D01*
X0022245Y0213875D01*
X0022292Y0213694D01*
X0022336Y0213512D01*
X0022374Y0213329D01*
X0022409Y0213145D01*
X0022438Y0212960D01*
X0022464Y0212775D01*
X0022484Y0212589D01*
X0022500Y0212402D01*
X0022512Y0212215D01*
X0022519Y0212028D01*
X0022521Y0211841D01*
X0022519Y0211654D01*
X0022512Y0211467D01*
X0022500Y0211280D01*
X0022484Y0211093D01*
X0022464Y0210907D01*
X0022438Y0210722D01*
X0022409Y0210537D01*
X0022374Y0210353D01*
X0022336Y0210170D01*
X0022292Y0209988D01*
X0022245Y0209807D01*
X0022193Y0209627D01*
X0022136Y0209448D01*
X0022075Y0209271D01*
X0022010Y0209096D01*
X0021940Y0208922D01*
X0021867Y0208750D01*
X0021789Y0208580D01*
X0021707Y0208411D01*
X0021620Y0208245D01*
X0021530Y0208081D01*
X0021436Y0207919D01*
X0021338Y0207760D01*
X0021235Y0207603D01*
X0021130Y0207449D01*
X0021020Y0207297D01*
X0020907Y0207148D01*
X0020790Y0207002D01*
X0020669Y0206859D01*
X0020545Y0206718D01*
X0020418Y0206581D01*
X0020287Y0206447D01*
X0020153Y0206316D01*
X0020016Y0206189D01*
X0019875Y0206065D01*
X0019732Y0205944D01*
X0019586Y0205827D01*
X0019437Y0205714D01*
X0019285Y0205604D01*
X0019131Y0205499D01*
X0018974Y0205396D01*
X0018815Y0205298D01*
X0018653Y0205204D01*
X0018489Y0205114D01*
X0018323Y0205027D01*
X0018154Y0204945D01*
X0017984Y0204867D01*
X0017812Y0204794D01*
X0017638Y0204724D01*
X0017463Y0204659D01*
X0017286Y0204598D01*
X0017107Y0204541D01*
X0016927Y0204489D01*
X0016746Y0204442D01*
X0016564Y0204398D01*
X0016381Y0204360D01*
X0016197Y0204325D01*
X0016012Y0204296D01*
X0015827Y0204270D01*
X0015641Y0204250D01*
X0015454Y0204234D01*
X0015267Y0204222D01*
X0015080Y0204215D01*
X0014893Y0204213D01*
X0014706Y0204215D01*
X0014519Y0204222D01*
X0014332Y0204234D01*
X0014145Y0204250D01*
X0013959Y0204270D01*
X0013774Y0204296D01*
X0013589Y0204325D01*
X0013405Y0204360D01*
X0013222Y0204398D01*
X0013040Y0204442D01*
X0012859Y0204489D01*
X0012679Y0204541D01*
X0012500Y0204598D01*
X0012323Y0204659D01*
X0012148Y0204724D01*
X0011974Y0204794D01*
X0011802Y0204867D01*
X0011632Y0204945D01*
X0011463Y0205027D01*
X0011297Y0205114D01*
X0011133Y0205204D01*
X0010971Y0205298D01*
X0010812Y0205396D01*
X0010655Y0205499D01*
X0010501Y0205604D01*
X0010349Y0205714D01*
X0010200Y0205827D01*
X0010054Y0205944D01*
X0009911Y0206065D01*
X0009770Y0206189D01*
X0009633Y0206316D01*
X0009499Y0206447D01*
X0009368Y0206581D01*
X0009241Y0206718D01*
X0009117Y0206859D01*
X0008996Y0207002D01*
X0008879Y0207148D01*
X0008766Y0207297D01*
X0008656Y0207449D01*
X0008551Y0207603D01*
X0008448Y0207760D01*
X0008350Y0207919D01*
X0008256Y0208081D01*
X0008166Y0208245D01*
X0008079Y0208411D01*
X0007997Y0208580D01*
X0007919Y0208750D01*
X0007846Y0208922D01*
X0007776Y0209096D01*
X0007711Y0209271D01*
X0007650Y0209448D01*
X0007593Y0209627D01*
X0007541Y0209807D01*
X0007494Y0209988D01*
X0007450Y0210170D01*
X0007412Y0210353D01*
X0007377Y0210537D01*
X0007348Y0210722D01*
X0007322Y0210907D01*
X0007302Y0211093D01*
X0007286Y0211280D01*
X0007274Y0211467D01*
X0007267Y0211654D01*
X0007265Y0211841D01*
D13*
X0278160Y0203770D03*
X0288475Y0203770D03*
X0288622Y0193927D03*
X0278160Y0193927D03*
X0278160Y0186053D03*
X0288622Y0186053D03*
X0288622Y0176211D03*
X0278160Y0176211D03*
D14*
X0276782Y0164203D03*
X0299144Y0164203D03*
X0299144Y0215778D03*
X0276782Y0215778D03*
D15*
X0155641Y0034715D03*
X0158003Y0015423D03*
X0096192Y0015423D03*
X0098554Y0034715D03*
D16*
X0052688Y0021486D03*
X0033003Y0021486D03*
D17*
X0029066Y0010856D03*
X0056625Y0010856D03*
D18*
X0034066Y0206841D03*
D19*
X0044066Y0206841D03*
X0054066Y0206841D03*
X0064066Y0206841D03*
X0074066Y0206841D03*
X0084066Y0206841D03*
X0094066Y0206841D03*
X0104066Y0206841D03*
X0114066Y0206841D03*
X0124066Y0206841D03*
X0134066Y0206841D03*
X0144066Y0206841D03*
X0154066Y0206841D03*
X0164066Y0206841D03*
X0174066Y0206841D03*
X0184066Y0206841D03*
X0194066Y0206841D03*
X0204066Y0206841D03*
X0214066Y0206841D03*
X0224066Y0206841D03*
X0224066Y0216841D03*
X0214066Y0216841D03*
X0204066Y0216841D03*
X0194066Y0216841D03*
X0184066Y0216841D03*
X0174066Y0216841D03*
X0164066Y0216841D03*
X0154066Y0216841D03*
X0144066Y0216841D03*
X0134066Y0216841D03*
X0124066Y0216841D03*
X0114066Y0216841D03*
X0104066Y0216841D03*
X0094066Y0216841D03*
X0084066Y0216841D03*
X0074066Y0216841D03*
X0064066Y0216841D03*
X0054066Y0216841D03*
X0044066Y0216841D03*
X0034066Y0216841D03*
D20*
X0211743Y0054360D03*
X0211743Y0026801D03*
D21*
X0018987Y0083888D03*
X0008987Y0083888D03*
X0263711Y0206526D03*
X0263711Y0216526D03*
D22*
X0334774Y0119321D03*
D23*
X0310168Y0128179D03*
X0310168Y0110463D03*
D24*
X0300326Y0105541D03*
X0300326Y0133100D03*
D25*
X0018830Y0130541D03*
X0018830Y0126211D03*
X0018830Y0121880D03*
X0018830Y0117549D03*
X0018830Y0113219D03*
X0018830Y0108888D03*
X0018830Y0104557D03*
X0018830Y0100226D03*
D26*
X0047314Y0107136D03*
X0047314Y0123632D03*
D27*
X0044656Y0136348D03*
X0042412Y0094419D03*
D28*
X0029873Y0094419D03*
D29*
X0034381Y0136348D03*
D30*
X0029381Y0136486D03*
M02*
